<svg width="25" height="24" viewBox="0 0 25 24" fill="none" xmlns="http://www.w3.org/2000/svg">
<path d="M12.5 21V13M12.5 21L6.33752 16.5982C5.92695 16.305 5.72166 16.1583 5.61083 15.943C5.5 15.7276 5.5 15.4753 5.5 14.9708V8M12.5 21L18.6625 16.5982C19.073 16.305 19.2783 16.1583 19.3892 15.943C19.5 15.7276 19.5 15.4753 19.5 14.9708V8M12.5 13L5.5 8M12.5 13L19.5 8M5.5 8L11.3375 3.83034C11.8989 3.42938 12.1795 3.2289 12.5 3.2289C12.8205 3.2289 13.1011 3.42938 13.6625 3.83034L19.5 8" stroke="#1A1A8D" stroke-width="2" stroke-linejoin="round"/>
</svg>
