<svg width="25" height="24" viewBox="0 0 25 24" fill="none" xmlns="http://www.w3.org/2000/svg">
<path fill-rule="evenodd" clip-rule="evenodd" d="M10.175 19.3395L7.17505 17.1967C6.3539 16.6101 5.94333 16.3169 5.72166 15.8861C5.5 15.4554 5.5 14.9508 5.5 13.9417V10.0587C5.5 9.73732 5.5 9.46714 5.50716 9.23422L11.5 13.5148V20.2315C11.1433 20.0311 10.727 19.7338 10.175 19.3395ZM13.5 20.2315C13.8567 20.0311 14.273 19.7338 14.825 19.3395L17.825 17.1967C18.6461 16.6101 19.0567 16.3169 19.2783 15.8861C19.5 15.4554 19.5 14.9508 19.5 13.9417V10.0587C19.5 9.73732 19.5 9.46714 19.4928 9.23422L13.5 13.5148V20.2315ZM18.6276 7.39447L12.5 11.7713L6.37244 7.39447C6.58372 7.22611 6.84653 7.03839 7.17505 6.80374L10.175 4.66088C11.2977 3.85897 11.8591 3.45801 12.5 3.45801C13.1409 3.45801 13.7023 3.85897 14.825 4.66088L17.825 6.80374C18.1535 7.03839 18.4163 7.22611 18.6276 7.39447Z" fill="#1A1A8D"/>
</svg>
