<svg width="25" height="24" viewBox="0 0 25 24" fill="none" xmlns="http://www.w3.org/2000/svg">
<path fill-rule="evenodd" clip-rule="evenodd" d="M4.67157 4.17157C3.5 5.34315 3.5 7.22876 3.5 11V13C3.5 16.7712 3.5 18.6569 4.67157 19.8284C5.84315 21 7.72876 21 11.5 21H13.5C17.2712 21 19.1569 21 20.3284 19.8284C21.5 18.6569 21.5 16.7712 21.5 13V11C21.5 7.22876 21.5 5.34315 20.3284 4.17157C19.1569 3 17.2712 3 13.5 3H11.5C7.72876 3 5.84315 3 4.67157 4.17157ZM11.5 7V11L7.5 11V13H11.5V17H13.5V13H17.5V11H13.5V7H11.5Z" fill="#1A1A8D"/>
</svg>
