<svg width="25" height="24" viewBox="0 0 25 24" fill="none" xmlns="http://www.w3.org/2000/svg">
<path d="M4 11C4 9.10025 4.00106 7.72573 4.14199 6.67754C4.28098 5.64373 4.54772 5.00253 5.02513 4.52513C5.50253 4.04772 6.14373 3.78098 7.17754 3.64199C8.22573 3.50106 9.60025 3.5 11.5 3.5H13.5C15.3998 3.5 16.7743 3.50106 17.8225 3.64199C18.8563 3.78098 19.4975 4.04772 19.9749 4.52513C20.4523 5.00253 20.719 5.64373 20.858 6.67754C20.9989 7.72573 21 9.10025 21 11V13C21 14.8998 20.9989 16.2743 20.858 17.3225C20.719 18.3563 20.4523 18.9975 19.9749 19.4749C19.4975 19.9523 18.8563 20.219 17.8225 20.358C16.7743 20.4989 15.3998 20.5 13.5 20.5H11.5C9.60025 20.5 8.22573 20.4989 7.17754 20.358C6.14373 20.219 5.50253 19.9523 5.02513 19.4749C4.54772 18.9975 4.28098 18.3563 4.14199 17.3225C4.00106 16.2743 4 14.8998 4 13V11Z" stroke="#FFD400" stroke-opacity="0.5"/>
<path d="M12.5 8L12.5 16" stroke="#1A1A8D" stroke-linejoin="round"/>
<path d="M16.5 12L8.5 12" stroke="#1A1A8D" stroke-linejoin="round"/>
</svg>
