<svg width="25" height="24" viewBox="0 0 25 24" fill="none" xmlns="http://www.w3.org/2000/svg">
<path d="M5.5 4L3.5 6" stroke="#1A1A8D" stroke-width="2" stroke-linecap="round"/>
<path d="M19.5 4L21.5 6" stroke="#1A1A8D" stroke-width="2" stroke-linecap="round"/>
<path fill-rule="evenodd" clip-rule="evenodd" d="M12.5 20C16.9183 20 20.5 16.4183 20.5 12C20.5 7.58172 16.9183 4 12.5 4C8.08172 4 4.5 7.58172 4.5 12C4.5 16.4183 8.08172 20 12.5 20ZM15.2809 10.1247C15.6259 9.69343 15.556 9.06414 15.1247 8.71913C14.6934 8.37412 14.0641 8.44404 13.7191 8.87531L12.2919 10.6594L10.0547 9.16795C9.59517 8.8616 8.9743 8.98577 8.66795 9.4453C8.3616 9.90483 8.48577 10.5257 8.9453 10.8321L11.7546 12.7049C12.2941 13.0646 13.019 12.952 13.4241 12.4457L15.2809 10.1247Z" fill="#1A1A8D"/>
</svg>
