<svg width="25" height="24" viewBox="0 0 25 24" fill="none" xmlns="http://www.w3.org/2000/svg">
<path d="M7 8.5L5.28246 9.64502C4.81358 9.95761 4.57914 10.1139 4.40942 10.3204C4.25917 10.5032 4.14643 10.7139 4.07767 10.9403C4 11.196 4 11.4778 4 12.0413V15.62C4 16.6281 4 17.1321 4.19619 17.5172C4.36876 17.8559 4.64413 18.1312 4.98282 18.3038C5.36786 18.5 5.87191 18.5 6.88 18.5H18.12C19.1281 18.5 19.6321 18.5 20.0172 18.3038C20.3559 18.1312 20.6312 17.8559 20.8038 17.5172C21 17.1321 21 16.6281 21 15.62V12.0413C21 11.4778 21 11.196 20.9223 10.9403C20.8536 10.7139 20.7408 10.5032 20.5906 10.3204C20.4209 10.1139 20.1864 9.95761 19.7175 9.64502L18 8.5" stroke="#1A1A8D" stroke-linecap="round"/>
<path d="M21 12.5H18.4415C17.7458 12.5 17.3979 12.5 17.136 12.6888C16.8742 12.8775 16.7642 13.2075 16.5442 13.8675L16.4558 14.1325C16.2358 14.7925 16.1258 15.1225 15.864 15.3112C15.6021 15.5 15.2542 15.5 14.5585 15.5H10.4415C9.7458 15.5 9.39794 15.5 9.13605 15.3112C8.87416 15.1225 8.76416 14.7925 8.54415 14.1325L8.45585 13.8675C8.23584 13.2075 8.12584 12.8775 7.86395 12.6888C7.60206 12.5 7.2542 12.5 6.55848 12.5H4" stroke="#1A1A8D"/>
<path d="M10 5.5L12.5 3M12.5 3L15 5.5M12.5 3L12.5 10" stroke="#1A1A8D"/>
</svg>
