<svg width="25" height="24" viewBox="0 0 25 24" fill="none" xmlns="http://www.w3.org/2000/svg">
<path d="M6.27446 11.9837C6.54414 11.8039 6.67898 11.714 6.82486 11.6503C6.95434 11.5938 7.09003 11.5527 7.22912 11.5279C7.38582 11.5 7.54788 11.5 7.87199 11.5H17.128C17.4521 11.5 17.6142 11.5 17.7709 11.5279C17.91 11.5527 18.0457 11.5938 18.1751 11.6503C18.321 11.714 18.4559 11.8039 18.7255 11.9837L19.7175 12.645C20.1864 12.9576 20.4209 13.1139 20.5906 13.3204C20.7408 13.5032 20.8536 13.7139 20.9223 13.9403C21 14.196 21 14.4778 21 15.0413V17.62C21 18.6281 21 19.1321 20.8038 19.5172C20.6312 19.8559 20.3559 20.1312 20.0172 20.3038C19.6321 20.5 19.1281 20.5 18.12 20.5H6.88C5.87191 20.5 5.36786 20.5 4.98282 20.3038C4.64413 20.1312 4.36876 19.8559 4.19619 19.5172C4 19.1321 4 18.6281 4 17.62V15.0413C4 14.4778 4 14.196 4.07767 13.9403C4.14643 13.7139 4.25917 13.5032 4.40942 13.3204C4.57914 13.1139 4.81358 12.9576 5.28246 12.645L6.27446 11.9837Z" stroke="#1A1A8D"/>
<path d="M21 15.5H18.118C17.6329 15.5 17.3903 15.5 17.185 15.5986C17.1214 15.6292 17.0612 15.6664 17.0055 15.7096C16.8255 15.8491 16.717 16.0661 16.5 16.5V16.5C16.283 16.9339 16.1745 17.1509 15.9945 17.2904C15.9388 17.3336 15.8786 17.3708 15.815 17.4014C15.6097 17.5 15.3671 17.5 14.882 17.5H10.118C9.63287 17.5 9.39029 17.5 9.185 17.4014C9.12141 17.3708 9.06123 17.3336 9.00547 17.2904C8.82546 17.1509 8.71697 16.9339 8.5 16.5V16.5C8.28303 16.0661 8.17454 15.8491 7.99453 15.7096C7.93877 15.6664 7.87859 15.6292 7.815 15.5986C7.60971 15.5 7.36713 15.5 6.88197 15.5H4" stroke="#1A1A8D"/>
</svg>
