<svg width="25" height="24" viewBox="0 0 25 24" fill="none" xmlns="http://www.w3.org/2000/svg">
<path d="M6 12.5H6.55848C7.2542 12.5 7.60206 12.5 7.86395 12.6888C8.12584 12.8775 8.23584 13.2075 8.45585 13.8675L8.54415 14.1325C8.76416 14.7925 8.87416 15.1225 9.13605 15.3112C9.39794 15.5 9.7458 15.5 10.4415 15.5H14.5585C15.2542 15.5 15.6021 15.5 15.864 15.3112C16.1258 15.1225 16.2358 14.7925 16.4558 14.1325L16.5442 13.8675C16.7642 13.2075 16.8742 12.8775 17.136 12.6888C17.3979 12.5 17.7458 12.5 18.4415 12.5H19C19.9428 12.5 20.4142 12.5 20.7071 12.7929C21 13.0858 21 13.5572 21 14.5C21 16.3856 21 17.3284 20.4142 17.9142C19.8284 18.5 18.8856 18.5 17 18.5H8C6.11438 18.5 5.17157 18.5 4.58579 17.9142C4 17.3284 4 16.3856 4 14.5C4 13.5572 4 13.0858 4.29289 12.7929C4.58579 12.5 5.05719 12.5 6 12.5Z" fill="#FFD400" fill-opacity="0.5"/>
<path d="M6.16105 6.89825C6.46698 6.38837 6.61994 6.13343 6.83054 5.94825C7.01691 5.78438 7.23515 5.66081 7.47156 5.58531C7.7387 5.5 8.03601 5.5 8.63063 5.5H16.3694C16.964 5.5 17.2613 5.5 17.5284 5.58531C17.7648 5.66081 17.9831 5.78438 18.1695 5.94825C18.3801 6.13343 18.533 6.38837 18.839 6.89825L20.5896 9.81597C20.7423 10.0706 20.8187 10.1979 20.8727 10.3338C20.9207 10.4544 20.9554 10.5799 20.9764 10.708C21 10.8523 21 11.0008 21 11.2977V15.62C21 16.6281 21 17.1321 20.8038 17.5172C20.6312 17.8559 20.3559 18.1312 20.0172 18.3038C19.6321 18.5 19.1281 18.5 18.12 18.5H6.88C5.87191 18.5 5.36786 18.5 4.98282 18.3038C4.64413 18.1312 4.36876 17.8559 4.19619 17.5172C4 17.1321 4 16.6281 4 15.62V11.2977C4 11.0008 4 10.8523 4.0236 10.708C4.04456 10.5799 4.07932 10.4544 4.12727 10.3338C4.18128 10.1979 4.25766 10.0706 4.41042 9.81597L6.16105 6.89825Z" stroke="#1A1A8D"/>
<path d="M21 12.5H18.4415C17.7458 12.5 17.3979 12.5 17.136 12.6888C16.8742 12.8775 16.7642 13.2075 16.5442 13.8675L16.4558 14.1325C16.2358 14.7925 16.1258 15.1225 15.864 15.3112C15.6021 15.5 15.2542 15.5 14.5585 15.5H10.4415C9.7458 15.5 9.39794 15.5 9.13605 15.3112C8.87416 15.1225 8.76416 14.7925 8.54415 14.1325L8.45585 13.8675C8.23584 13.2075 8.12584 12.8775 7.86395 12.6888C7.60206 12.5 7.2542 12.5 6.55848 12.5H4" stroke="#1A1A8D"/>
</svg>
