<svg width="25" height="24" viewBox="0 0 25 24" fill="none" xmlns="http://www.w3.org/2000/svg">
<path d="M9 9.5H8.19294C7.75267 9.5 7.53254 9.5 7.32538 9.54973C7.14172 9.59383 6.96614 9.66656 6.80509 9.76525C6.62344 9.87656 6.46778 10.0322 6.15647 10.3435L4.84353 11.6565C4.53222 11.9678 4.37656 12.1234 4.26525 12.3051C4.16656 12.4661 4.09383 12.6417 4.04973 12.8254C4 13.0325 4 13.2527 4 13.6929V17.62C4 18.6281 4 19.1321 4.19619 19.5172C4.36876 19.8559 4.64413 20.1312 4.98282 20.3038C5.36786 20.5 5.87191 20.5 6.88 20.5H18.12C19.1281 20.5 19.6321 20.5 20.0172 20.3038C20.3559 20.1312 20.6312 19.8559 20.8038 19.5172C21 19.1321 21 18.6281 21 17.62V13.6929C21 13.2527 21 13.0325 20.9503 12.8254C20.9062 12.6417 20.8334 12.4661 20.7348 12.3051C20.6234 12.1234 20.4678 11.9678 20.1565 11.6565L18.8435 10.3435C18.5322 10.0322 18.3766 9.87656 18.1949 9.76525C18.0339 9.66656 17.8583 9.59383 17.6746 9.54973C17.4675 9.5 17.2473 9.5 16.8071 9.5H16" stroke="#1A1A8D"/>
<path d="M21 14.5H18.4415C17.7458 14.5 17.3979 14.5 17.136 14.6888C16.8742 14.8775 16.7642 15.2075 16.5442 15.8675L16.4558 16.1325C16.2358 16.7925 16.1258 17.1225 15.864 17.3112C15.6021 17.5 15.2542 17.5 14.5585 17.5H10.4415C9.7458 17.5 9.39794 17.5 9.13605 17.3112C8.87416 17.1225 8.76416 16.7925 8.54415 16.1325L8.45585 15.8675C8.23584 15.2075 8.12584 14.8775 7.86395 14.6888C7.60206 14.5 7.2542 14.5 6.55848 14.5H4" stroke="#1A1A8D"/>
<path d="M9 6.9C9 6.75999 9 6.68998 9.02725 6.6365C9.05122 6.58946 9.08946 6.55122 9.1365 6.52725C9.18998 6.5 9.25999 6.5 9.4 6.5H15.6C15.74 6.5 15.81 6.5 15.8635 6.52725C15.9105 6.55122 15.9488 6.58946 15.9728 6.6365C16 6.68998 16 6.75999 16 6.9V11.1C16 11.24 16 11.31 15.9728 11.3635C15.9488 11.4105 15.9105 11.4488 15.8635 11.4728C15.81 11.5 15.74 11.5 15.6 11.5H9.4C9.25999 11.5 9.18998 11.5 9.1365 11.4728C9.08946 11.4488 9.05122 11.4105 9.02725 11.3635C9 11.31 9 11.24 9 11.1V6.9Z" stroke="#1A1A8D"/>
<path d="M15 6.5V6C15 5.53534 15 5.30302 14.9616 5.10982C14.8038 4.31644 14.1836 3.69624 13.3902 3.53843C13.197 3.5 12.9647 3.5 12.5 3.5V3.5C12.0353 3.5 11.803 3.5 11.6098 3.53843C10.8164 3.69624 10.1962 4.31644 10.0384 5.10982C10 5.30302 10 5.53534 10 6V6.5" stroke="#1A1A8D"/>
</svg>
