<svg width="25" height="24" viewBox="0 0 25 24" fill="none" xmlns="http://www.w3.org/2000/svg">
<path d="M5.5 8V16C5.5 17.8856 5.5 18.8284 6.08579 19.4142C6.67157 20 7.61438 20 9.5 20H15.5C17.3856 20 18.3284 20 18.9142 19.4142C19.5 18.8284 19.5 17.8856 19.5 16V8M5.5 8H19.5M5.5 8H3.86364C3.71017 8 3.63343 8 3.58014 7.96011C3.56488 7.94868 3.55132 7.93512 3.53989 7.91986C3.5 7.86657 3.5 7.78983 3.5 7.63636V7.63636C3.5 6.10168 3.5 5.33434 3.89892 4.80144C4.01321 4.64876 4.14876 4.51321 4.30144 4.39892C4.83434 4 5.60168 4 7.13636 4H17.8636C19.3983 4 20.1657 4 20.6986 4.39892C20.8512 4.51321 20.9868 4.64876 21.1011 4.80144C21.5 5.33434 21.5 6.10168 21.5 7.63636V7.63636C21.5 7.78983 21.5 7.86657 21.4601 7.91986C21.4487 7.93512 21.4351 7.94868 21.4199 7.96011C21.3666 8 21.2898 8 21.1364 8H19.5" stroke="#1A1A8D" stroke-width="2"/>
<path d="M10.5 16H14.5" stroke="#1A1A8D" stroke-width="2" stroke-linecap="round"/>
</svg>
