<svg width="25" height="24" viewBox="0 0 25 24" fill="none" xmlns="http://www.w3.org/2000/svg">
<path fill-rule="evenodd" clip-rule="evenodd" d="M21.5 10V15C21.5 17.8284 21.5 19.2426 20.6213 20.1213C19.7426 21 18.3284 21 15.5 21H9.5C6.67157 21 5.25736 21 4.37868 20.1213C3.5 19.2426 3.5 17.8284 3.5 15V10C3.5 10.9319 3.5 11.3978 3.65224 11.7654C3.85523 12.2554 4.24458 12.6448 4.73463 12.8478C5.10218 13 5.56812 13 6.5 13H7.17544C7.75646 13 8.04696 13 8.27888 13.1338C8.33745 13.1675 8.39245 13.2072 8.44303 13.2521C8.64326 13.4298 8.73513 13.7054 8.91886 14.2566L9.04415 14.6325C9.26416 15.2925 9.37416 15.6225 9.63605 15.8112C9.89794 16 10.2458 16 10.9415 16H14.0585C14.7542 16 15.1021 16 15.364 15.8112C15.6258 15.6225 15.7358 15.2925 15.9558 14.6325L16.0811 14.2566L16.0811 14.2566L16.0811 14.2566C16.2649 13.7054 16.3567 13.4298 16.557 13.2521C16.6075 13.2072 16.6625 13.1675 16.7211 13.1338C16.953 13 17.2435 13 17.8246 13H18.5C19.4319 13 19.8978 13 20.2654 12.8478C20.7554 12.6448 21.1448 12.2554 21.3478 11.7654C21.5 11.3978 21.5 10.9319 21.5 10Z" fill="#1A1A8D"/>
<path d="M3.5 7C3.5 5.11438 3.5 4.17157 4.08579 3.58579C4.67157 3 5.61438 3 7.5 3H17.5C19.3856 3 20.3284 3 20.9142 3.58579C21.5 4.17157 21.5 5.11438 21.5 7V17C21.5 18.8856 21.5 19.8284 20.9142 20.4142C20.3284 21 19.3856 21 17.5 21H7.5C5.61438 21 4.67157 21 4.08579 20.4142C3.5 19.8284 3.5 18.8856 3.5 17V7Z" stroke="#1A1A8D" stroke-width="2"/>
</svg>
