<svg width="25" height="24" viewBox="0 0 25 24" fill="none" xmlns="http://www.w3.org/2000/svg">
<path d="M7 9.5L4.84353 11.6565C4.53222 11.9678 4.37656 12.1234 4.26525 12.3051C4.16656 12.4661 4.09383 12.6417 4.04973 12.8254C4 13.0325 4 13.2527 4 13.6929V17.62C4 18.6281 4 19.1321 4.19619 19.5172C4.36876 19.8559 4.64413 20.1312 4.98282 20.3038C5.36786 20.5 5.87191 20.5 6.88 20.5H18.12C19.1281 20.5 19.6321 20.5 20.0172 20.3038C20.3559 20.1312 20.6312 19.8559 20.8038 19.5172C21 19.1321 21 18.6281 21 17.62V13.6929C21 13.2527 21 13.0325 20.9503 12.8254C20.9062 12.6417 20.8334 12.4661 20.7348 12.3051C20.6234 12.1234 20.4678 11.9678 20.1565 11.6565L18 9.5" stroke="#1A1A8D"/>
<path d="M21 14.5H18.4415C17.7458 14.5 17.3979 14.5 17.136 14.6888C16.8742 14.8775 16.7642 15.2075 16.5442 15.8675L16.4558 16.1325C16.2358 16.7925 16.1258 17.1225 15.864 17.3112C15.6021 17.5 15.2542 17.5 14.5585 17.5H10.4415C9.7458 17.5 9.39794 17.5 9.13605 17.3112C8.87416 17.1225 8.76416 16.7925 8.54415 16.1325L8.45585 15.8675C8.23584 15.2075 8.12584 14.8775 7.86395 14.6888C7.60206 14.5 7.2542 14.5 6.55848 14.5H4" stroke="#1A1A8D"/>
<path d="M18 14.5V8.16274C18 7.91815 18 7.79586 17.9724 7.68077C17.9479 7.57873 17.9075 7.48119 17.8526 7.39172C17.7908 7.2908 17.7043 7.20432 17.5314 7.03137L15.4686 4.96863C15.2957 4.79568 15.2092 4.7092 15.1083 4.64736C15.0188 4.59253 14.9213 4.55213 14.8192 4.52763C14.7041 4.5 14.5818 4.5 14.3373 4.5H9.4C8.55992 4.5 8.13988 4.5 7.81901 4.66349C7.53677 4.8073 7.3073 5.03677 7.16349 5.31901C7 5.63988 7 6.05992 7 6.9V14.5" stroke="#1A1A8D"/>
<path d="M14 4.5L14 6.9C14 7.46005 14 7.74008 14.109 7.95399C14.2049 8.14215 14.3578 8.29513 14.546 8.39101C14.7599 8.5 15.0399 8.5 15.6 8.5L18 8.5" stroke="#1A1A8D"/>
</svg>
