<svg width="25" height="24" viewBox="0 0 25 24" fill="none" xmlns="http://www.w3.org/2000/svg">
<path d="M18.5 2.5V2.5C19.1514 2.5 19.477 2.5 19.7413 2.58331C20.3014 2.75991 20.7401 3.19863 20.9167 3.75873C21 4.02295 21 4.34864 21 5V16.62C21 17.6281 21 18.1321 20.8038 18.5172C20.6312 18.8559 20.3559 19.1312 20.0172 19.3038C19.6321 19.5 19.1281 19.5 18.12 19.5H6.88C5.87191 19.5 5.36786 19.5 4.98282 19.3038C4.64413 19.1312 4.36876 18.8559 4.19619 18.5172C4 18.1321 4 17.6281 4 16.62V5C4 4.34864 4 4.02295 4.08331 3.75873C4.25991 3.19863 4.69863 2.75991 5.25873 2.58331C5.52295 2.5 5.84864 2.5 6.5 2.5V2.5" stroke="#1A1A8D"/>
<path d="M21 12.5H18.4415C17.7458 12.5 17.3979 12.5 17.136 12.6888C16.8742 12.8775 16.7642 13.2075 16.5442 13.8675L16.4558 14.1325C16.2358 14.7925 16.1258 15.1225 15.864 15.3112C15.6021 15.5 15.2542 15.5 14.5585 15.5H10.4415C9.7458 15.5 9.39794 15.5 9.13605 15.3112C8.87416 15.1225 8.76416 14.7925 8.54415 14.1325L8.45585 13.8675C8.23584 13.2075 8.12584 12.8775 7.86395 12.6888C7.60206 12.5 7.2542 12.5 6.55848 12.5H4M16.6667 13.5H8.33333" stroke="#1A1A8D"/>
<path d="M21 7.5H18.4415C17.7458 7.5 17.3979 7.5 17.136 7.68876C16.8742 7.87752 16.7642 8.20753 16.5442 8.86754L16.4558 9.13246C16.2358 9.79247 16.1258 10.1225 15.864 10.3112C15.6021 10.5 15.2542 10.5 14.5585 10.5H10.4415C9.7458 10.5 9.39794 10.5 9.13605 10.3112C8.87416 10.1225 8.76416 9.79247 8.54415 9.13246L8.45585 8.86754C8.23584 8.20753 8.12584 7.87752 7.86395 7.68876C7.60206 7.5 7.2542 7.5 6.55848 7.5H4M16.6667 8.5H8.33333" stroke="#1A1A8D"/>
<path d="M19 2.5H18.4415C17.7458 2.5 17.3979 2.5 17.136 2.68876C16.8742 2.87752 16.7642 3.20753 16.5442 3.86754L16.4558 4.13246C16.2358 4.79247 16.1258 5.12248 15.864 5.31124C15.6021 5.5 15.2542 5.5 14.5585 5.5H10.4415C9.7458 5.5 9.39794 5.5 9.13605 5.31124C8.87416 5.12248 8.76416 4.79247 8.54415 4.13246L8.45585 3.86754C8.23584 3.20753 8.12584 2.87752 7.86395 2.68876C7.60206 2.5 7.2542 2.5 6.55848 2.5H6M16.6667 3.5H8.33333" stroke="#1A1A8D"/>
</svg>
