<svg width="25" height="24" viewBox="0 0 25 24" fill="none" xmlns="http://www.w3.org/2000/svg">
<path d="M19.5 16V8H5.5V16C5.5 17.8856 5.5 18.8284 6.08579 19.4142C6.67157 20 7.61438 20 9.5 20H15.5C17.3856 20 18.3284 20 18.9142 19.4142C19.5 18.8284 19.5 17.8856 19.5 16Z" stroke="#1A1A8D" stroke-width="1.2"/>
<path d="M17.8636 4H7.13636C5.60168 4 4.83434 4 4.30144 4.39892C4.14876 4.51321 4.01321 4.64876 3.89892 4.80144C3.5 5.33434 3.5 6.10168 3.5 7.63636C3.5 7.78983 3.5 7.86657 3.53989 7.91986C3.55132 7.93512 3.56488 7.94868 3.58014 7.96011C3.63343 8 3.71017 8 3.86364 8H5.5H19.5H21.1364C21.2898 8 21.3666 8 21.4199 7.96011C21.4351 7.94868 21.4487 7.93512 21.4601 7.91986C21.5 7.86657 21.5 7.78983 21.5 7.63636C21.5 6.10168 21.5 5.33434 21.1011 4.80144C20.9868 4.64876 20.8512 4.51321 20.6986 4.39892C20.1657 4 19.3983 4 17.8636 4Z" stroke="#1A1A8D" stroke-width="1.2"/>
<path d="M10.5 16H14.5" stroke="#FFD400" stroke-opacity="0.5" stroke-width="1.2" stroke-linecap="round"/>
</svg>
