<svg width="25" height="24" viewBox="0 0 25 24" fill="none" xmlns="http://www.w3.org/2000/svg">
<path d="M3.5 7C3.5 5.11438 3.5 4.17157 4.08579 3.58579C4.67157 3 5.61438 3 7.5 3H17.5C19.3856 3 20.3284 3 20.9142 3.58579C21.5 4.17157 21.5 5.11438 21.5 7V17C21.5 18.8856 21.5 19.8284 20.9142 20.4142C20.3284 21 19.3856 21 17.5 21H7.5C5.61438 21 4.67157 21 4.08579 20.4142C3.5 19.8284 3.5 18.8856 3.5 17V7Z" stroke="#1A1A8D"/>
<path d="M3.5 12V12C3.5 12.9319 3.5 13.3978 3.65224 13.7654C3.85523 14.2554 4.24458 14.6448 4.73463 14.8478C5.10218 15 5.56812 15 6.5 15H7.17544C7.75646 15 8.04696 15 8.27888 15.1338C8.33745 15.1675 8.39245 15.2072 8.44303 15.2521C8.64326 15.4298 8.73513 15.7054 8.91886 16.2566L9.04415 16.6325C9.26416 17.2925 9.37416 17.6225 9.63605 17.8112C9.89794 18 10.2458 18 10.9415 18H14.0585C14.7542 18 15.1021 18 15.364 17.8112C15.6258 17.6225 15.7358 17.2925 15.9558 16.6325L16.0811 16.2566C16.2649 15.7054 16.3567 15.4298 16.557 15.2521C16.6075 15.2072 16.6625 15.1675 16.7211 15.1338C16.953 15 17.2435 15 17.8246 15H18.5C19.4319 15 19.8978 15 20.2654 14.8478C20.7554 14.6448 21.1448 14.2554 21.3478 13.7654C21.5 13.3978 21.5 12.9319 21.5 12V12" stroke="#1A1A8D"/>
<path d="M10 9.5L12.5 7M12.5 7L15 9.5M12.5 7L12.5 14" stroke="#1A1A8D"/>
</svg>
