<svg width="25" height="24" viewBox="0 0 25 24" fill="none" xmlns="http://www.w3.org/2000/svg">
<path d="M4.5 9.3C4.5 9.15858 4.5 9.08787 4.54393 9.04393C4.58787 9 4.65858 9 4.8 9H20.2C20.3414 9 20.4121 9 20.4561 9.04393C20.5 9.08787 20.5 9.15858 20.5 9.3V15C20.5 16.8856 20.5 17.8284 19.9142 18.4142C19.3284 19 18.3856 19 16.5 19H8.5C6.61438 19 5.67157 19 5.08579 18.4142C4.5 17.8284 4.5 16.8856 4.5 15V9.3Z" fill="#FFD400" fill-opacity="0.5"/>
<path d="M2.5 7C2.5 5.89543 3.39543 5 4.5 5H20.5C21.6046 5 22.5 5.89543 22.5 7C22.5 7.55228 22.0523 8 21.5 8H3.5C2.94772 8 2.5 7.55228 2.5 7Z" fill="#FFD400" fill-opacity="0.5"/>
<rect x="9.5" y="12" width="6" height="1" rx="0.5" fill="#1A1A8D"/>
</svg>
