<svg width="25" height="24" viewBox="0 0 25 24" fill="none" xmlns="http://www.w3.org/2000/svg">
<path d="M6.5 14H7.17544C7.75646 14 8.04696 14 8.27888 14.1338C8.33745 14.1675 8.39245 14.2072 8.44303 14.2521C8.64326 14.4298 8.73513 14.7054 8.91886 15.2566L9.04415 15.6325C9.26416 16.2925 9.37416 16.6225 9.63605 16.8112C9.89794 17 10.2458 17 10.9415 17H14.0585C14.7542 17 15.1021 17 15.364 16.8112C15.6258 16.6225 15.7358 16.2925 15.9558 15.6325L16.0811 15.2566L16.0811 15.2566C16.2649 14.7054 16.3567 14.4298 16.557 14.2521C16.6075 14.2072 16.6625 14.1675 16.7211 14.1338C16.953 14 17.2435 14 17.8246 14H18.5C19.4319 14 19.8978 14 20.2654 13.8478C20.7554 13.6448 21.1448 13.2554 21.3478 12.7654C21.5 12.3978 21.5 11.9319 21.5 11V17C21.5 18.8856 21.5 19.8284 20.9142 20.4142C20.3284 21 19.3856 21 17.5 21H7.5C5.61438 21 4.67157 21 4.08579 20.4142C3.5 19.8284 3.5 18.8856 3.5 17V11C3.5 11.9319 3.5 12.3978 3.65224 12.7654C3.85523 13.2554 4.24458 13.6448 4.73463 13.8478C5.10218 14 5.56812 14 6.5 14Z" fill="#FFD400" fill-opacity="0.5"/>
<path d="M3.5 7C3.5 5.11438 3.5 4.17157 4.08579 3.58579C4.67157 3 5.61438 3 7.5 3H17.5C19.3856 3 20.3284 3 20.9142 3.58579C21.5 4.17157 21.5 5.11438 21.5 7V17C21.5 18.8856 21.5 19.8284 20.9142 20.4142C20.3284 21 19.3856 21 17.5 21H7.5C5.61438 21 4.67157 21 4.08579 20.4142C3.5 19.8284 3.5 18.8856 3.5 17V7Z" stroke="#1A1A8D" stroke-width="1.2"/>
<path d="M3.5 11V11C3.5 11.9319 3.5 12.3978 3.65224 12.7654C3.85523 13.2554 4.24458 13.6448 4.73463 13.8478C5.10218 14 5.56812 14 6.5 14H7.17544C7.75646 14 8.04696 14 8.27888 14.1338C8.33745 14.1675 8.39245 14.2072 8.44303 14.2521C8.64326 14.4298 8.73513 14.7054 8.91886 15.2566L9.04415 15.6325C9.26416 16.2925 9.37416 16.6225 9.63605 16.8112C9.89794 17 10.2458 17 10.9415 17H14.0585C14.7542 17 15.1021 17 15.364 16.8112C15.6258 16.6225 15.7358 16.2925 15.9558 15.6325L16.0811 15.2566C16.2649 14.7054 16.3567 14.4298 16.557 14.2521C16.6075 14.2072 16.6625 14.1675 16.7211 14.1338C16.953 14 17.2435 14 17.8246 14H18.5C19.4319 14 19.8978 14 20.2654 13.8478C20.7554 13.6448 21.1448 13.2554 21.3478 12.7654C21.5 12.3978 21.5 11.9319 21.5 11V11" stroke="#1A1A8D" stroke-width="1.2"/>
</svg>
