<svg width="25" height="24" viewBox="0 0 25 24" fill="none" xmlns="http://www.w3.org/2000/svg">
<path d="M3.5 10C3.5 7.17157 3.5 5.75736 4.37868 4.87868C5.25736 4 6.67157 4 9.5 4H15.5C18.3284 4 19.7426 4 20.6213 4.87868C21.5 5.75736 21.5 7.17157 21.5 10C21.5 12.8284 21.5 14.2426 20.6213 15.1213C19.7426 16 18.3284 16 15.5 16H9.5C6.67157 16 5.25736 16 4.37868 15.1213C3.5 14.2426 3.5 12.8284 3.5 10Z" fill="#FFD400" fill-opacity="0.5"/>
<path fill-rule="evenodd" clip-rule="evenodd" d="M6.06689 12H5.3558C4.55238 12 4.15068 12 3.87733 12.2175C3.81819 12.2646 3.76457 12.3182 3.71751 12.3773C3.5 12.6507 3.5 13.0524 3.5 13.8558V15C3.5 17.8284 3.5 19.2426 4.37868 20.1213C5.25736 21 6.67157 21 9.5 21H15.5C18.3284 21 19.7426 21 20.6213 20.1213C21.5 19.2426 21.5 17.8284 21.5 15V13.8558C21.5 13.0524 21.5 12.6507 21.2825 12.3773C21.2354 12.3182 21.1818 12.2646 21.1227 12.2175C20.8493 12 20.4476 12 19.6442 12H18.9331C18.2346 12 17.8853 12 17.5908 12.0932C17.0803 12.2548 16.6559 12.6143 16.4126 13.0913C16.2723 13.3665 16.2148 13.711 16.1 14.4L16.1 14.4L16.1 14.4L16.1 14.4001C16.0713 14.5723 16.0569 14.6584 16.0218 14.7272C15.961 14.8464 15.8549 14.9363 15.7273 14.9767C15.6537 15 15.5664 15 15.3917 15H9.60828C9.43365 15 9.34633 15 9.2727 14.9767C9.14508 14.9363 9.03897 14.8464 8.97815 14.7272C8.94306 14.6584 8.92871 14.5723 8.9 14.4C8.78517 13.711 8.72775 13.3665 8.58739 13.0913C8.3441 12.6143 7.9197 12.2548 7.40919 12.0932C7.11466 12 6.76541 12 6.06689 12ZM10 17C9.72386 17 9.5 17.2239 9.5 17.5C9.5 17.7761 9.72386 18 10 18H15C15.2761 18 15.5 17.7761 15.5 17.5C15.5 17.2239 15.2761 17 15 17H10Z" fill="#1A1A8D"/>
</svg>
