<svg width="25" height="24" viewBox="0 0 25 24" fill="none" xmlns="http://www.w3.org/2000/svg">
<path d="M21 15.5H18.4415C17.7458 15.5 17.3979 15.5 17.136 15.6888C16.8742 15.8775 16.7642 16.2075 16.5442 16.8675L16.4558 17.1325C16.2358 17.7925 16.1258 18.1225 15.864 18.3112C15.6021 18.5 15.2542 18.5 14.5585 18.5H10.4415C9.7458 18.5 9.39794 18.5 9.13605 18.3112C8.87416 18.1225 8.76416 17.7925 8.54415 17.1325L8.45585 16.8675C8.23584 16.2075 8.12584 15.8775 7.86395 15.6888C7.60206 15.5 7.2542 15.5 6.55848 15.5H4M16.6667 16.5H8.33333" stroke="#1A1A8D"/>
<path d="M21 11.5H18.4415C17.7458 11.5 17.3979 11.5 17.136 11.6888C16.8742 11.8775 16.7642 12.2075 16.5442 12.8675L16.4558 13.1325C16.2358 13.7925 16.1258 14.1225 15.864 14.3112C15.6021 14.5 15.2542 14.5 14.5585 14.5H10.4415C9.7458 14.5 9.39794 14.5 9.13605 14.3112C8.87416 14.1225 8.76416 13.7925 8.54415 13.1325L8.45585 12.8675C8.23584 12.2075 8.12584 11.8775 7.86395 11.6888C7.60206 11.5 7.2542 11.5 6.55848 11.5H4M16.6667 12.5H8.33333" stroke="#1A1A8D"/>
<path d="M18 12V5.66274C18 5.41815 18 5.29586 17.9724 5.18077C17.9479 5.07873 17.9075 4.98119 17.8526 4.89172C17.7908 4.7908 17.7043 4.70432 17.5314 4.53137L15.4686 2.46863C15.2957 2.29568 15.2092 2.2092 15.1083 2.14736C15.0188 2.09253 14.9213 2.05213 14.8192 2.02763C14.7041 2 14.5818 2 14.3373 2H9.4C8.55992 2 8.13988 2 7.81901 2.16349C7.53677 2.3073 7.3073 2.53677 7.16349 2.81901C7 3.13988 7 3.55992 7 4.4V12" stroke="#1A1A8D"/>
<path d="M14 2L14 4.4C14 4.96005 14 5.24008 14.109 5.45399C14.2049 5.64215 14.3578 5.79513 14.546 5.89101C14.7599 6 15.0399 6 15.6 6L18 6" stroke="#1A1A8D"/>
<path d="M7 6.5L4.84353 8.65647C4.53222 8.96778 4.37656 9.12344 4.26525 9.30509C4.16656 9.46614 4.09383 9.64172 4.04973 9.82538C4 10.0325 4 10.2527 4 10.6929V18.62C4 19.6281 4 20.1321 4.19619 20.5172C4.36876 20.8559 4.64413 21.1312 4.98282 21.3038C5.36786 21.5 5.87191 21.5 6.88 21.5H18.12C19.1281 21.5 19.6321 21.5 20.0172 21.3038C20.3559 21.1312 20.6312 20.8559 20.8038 20.5172C21 20.1321 21 19.6281 21 18.62V10.6929C21 10.2527 21 10.0325 20.9503 9.82538C20.9062 9.64172 20.8334 9.46614 20.7348 9.30509C20.6234 9.12344 20.4678 8.96778 20.1565 8.65647L18 6.5" stroke="#1A1A8D"/>
</svg>
