<svg width="25" height="24" viewBox="0 0 25 24" fill="none" xmlns="http://www.w3.org/2000/svg">
<path d="M6.6 11.5H8.01115C8.3701 11.5 8.54958 11.5 8.70804 11.5547C8.84816 11.603 8.97579 11.6819 9.08169 11.7856C9.20143 11.9029 9.2817 12.0634 9.44223 12.3845L9.44223 12.3845L9.55777 12.6155L9.55778 12.6155C9.7183 12.9366 9.79857 13.0971 9.91831 13.2144C10.0242 13.3181 10.1518 13.397 10.292 13.4453C10.4504 13.5 10.6299 13.5 10.9889 13.5H14.0111C14.3701 13.5 14.5496 13.5 14.708 13.4453C14.8482 13.397 14.9758 13.3181 15.0817 13.2144C15.2014 13.0971 15.2817 12.9366 15.4422 12.6155L15.4422 12.6155L15.5578 12.3845L15.5578 12.3845C15.7183 12.0634 15.7986 11.9029 15.9183 11.7856C16.0242 11.6819 16.1518 11.603 16.292 11.5547C16.4504 11.5 16.6299 11.5 16.9889 11.5H18.4C18.9601 11.5 19.2401 11.5 19.454 11.609C19.6422 11.7049 19.7951 11.8578 19.891 12.046C20 12.2599 20 12.5399 20 13.1V18.9C20 19.4601 20 19.7401 19.891 19.954C19.7951 20.1422 19.6422 20.2951 19.454 20.391C19.2401 20.5 18.9601 20.5 18.4 20.5H6.6C6.03995 20.5 5.75992 20.5 5.54601 20.391C5.35785 20.2951 5.20487 20.1422 5.10899 19.954C5 19.7401 5 19.4601 5 18.9V13.1C5 12.5399 5 12.2599 5.10899 12.046C5.20487 11.8578 5.35785 11.7049 5.54601 11.609C5.75992 11.5 6.03995 11.5 6.6 11.5Z" stroke="#1A1A8D"/>
<path d="M14.5 15.5H10.5C10.0341 15.5 9.80109 15.5 9.61732 15.5761C9.37229 15.6776 9.17761 15.8723 9.07612 16.1173C9 16.3011 9 16.5341 9 17C9 17.4659 9 17.6989 9.07612 17.8827C9.17761 18.1277 9.37229 18.3224 9.61732 18.4239C9.80109 18.5 10.0341 18.5 10.5 18.5H14.5C14.9659 18.5 15.1989 18.5 15.3827 18.4239C15.6277 18.3224 15.8224 18.1277 15.9239 17.8827C16 17.6989 16 17.4659 16 17C16 16.5341 16 16.3011 15.9239 16.1173C15.8224 15.8723 15.6277 15.6776 15.3827 15.5761C15.1989 15.5 14.9659 15.5 14.5 15.5Z" stroke="#1A1A8D"/>
<path d="M7 11.5H4.6C4.03995 11.5 3.75992 11.5 3.54601 11.609C3.35785 11.7049 3.20487 11.8578 3.10899 12.046C3 12.2599 3 12.5399 3 13.1V18.9C3 19.4601 3 19.7401 3.10899 19.954C3.20487 20.1422 3.35785 20.2951 3.54601 20.391C3.75992 20.5 4.03995 20.5 4.6 20.5H20.4C20.9601 20.5 21.2401 20.5 21.454 20.391C21.6422 20.2951 21.7951 20.1422 21.891 19.954C22 19.7401 22 19.4601 22 18.9V13.1C22 12.5399 22 12.2599 21.891 12.046C21.7951 11.8578 21.6422 11.7049 21.454 11.609C21.2401 11.5 20.9601 11.5 20.4 11.5H18" stroke="#1A1A8D"/>
<path d="M18 11.5V7.16274C18 6.91815 18 6.79586 17.9724 6.68077C17.9479 6.57873 17.9075 6.48119 17.8526 6.39172C17.7908 6.2908 17.7043 6.20432 17.5314 6.03137L15.4686 3.96863C15.2957 3.79568 15.2092 3.7092 15.1083 3.64736C15.0188 3.59253 14.9213 3.55213 14.8192 3.52763C14.7041 3.5 14.5818 3.5 14.3373 3.5H9.4C8.55992 3.5 8.13988 3.5 7.81901 3.66349C7.53677 3.8073 7.3073 4.03677 7.16349 4.31901C7 4.63988 7 5.05992 7 5.9V11.5" stroke="#1A1A8D"/>
<path d="M14 3.5L14 5.9C14 6.46005 14 6.74008 14.109 6.95399C14.2049 7.14215 14.3578 7.29513 14.546 7.39101C14.7599 7.5 15.0399 7.5 15.6 7.5L18 7.5" stroke="#1A1A8D"/>
</svg>
