<svg width="25" height="24" viewBox="0 0 25 24" fill="none" xmlns="http://www.w3.org/2000/svg">
<path d="M3.5 12C3.5 9.17157 3.5 7.75736 4.37868 6.87868C5.25736 6 6.67157 6 9.5 6H15.5C18.3284 6 19.7426 6 20.6213 6.87868C21.5 7.75736 21.5 9.17157 21.5 12V15C21.5 17.8284 21.5 19.2426 20.6213 20.1213C19.7426 21 18.3284 21 15.5 21H9.5C6.67157 21 5.25736 21 4.37868 20.1213C3.5 19.2426 3.5 17.8284 3.5 15V12Z" fill="#FFD400" fill-opacity="0.5"/>
<path d="M5.25 14H6.06689C6.76541 14 7.11466 14 7.40919 14.0932C7.9197 14.2548 8.3441 14.6143 8.58739 15.0913C8.72775 15.3665 8.78517 15.711 8.9 16.4C8.92871 16.5723 8.94306 16.6584 8.97815 16.7272C9.03897 16.8464 9.14508 16.9363 9.2727 16.9767C9.34633 17 9.43365 17 9.60828 17H15.3917C15.5664 17 15.6537 17 15.7273 16.9767C15.8549 16.9363 15.961 16.8464 16.0218 16.7272C16.0569 16.6584 16.0713 16.5723 16.1 16.4L16.1 16.4L16.1 16.4C16.2148 15.711 16.2723 15.3665 16.4126 15.0913C16.6559 14.6143 17.0803 14.2548 17.5908 14.0932C17.8853 14 18.2346 14 18.9331 14H19.75C20.4522 14 20.8033 14 21.0556 14.1685C21.1648 14.2415 21.2585 14.3352 21.3315 14.4444C21.5 14.6967 21.5 15.0478 21.5 15.75C21.5 17.8567 21.5 18.91 20.9944 19.6667C20.7755 19.9943 20.4943 20.2755 20.1667 20.4944C19.41 21 18.3567 21 16.25 21H8.75C6.64331 21 5.58996 21 4.83329 20.4944C4.50572 20.2755 4.22447 19.9943 4.00559 19.6667C3.5 18.91 3.5 17.8567 3.5 15.75C3.5 15.0478 3.5 14.6967 3.66853 14.4444C3.74149 14.3352 3.83524 14.2415 3.94443 14.1685C4.19665 14 4.54777 14 5.25 14Z" fill="#1A1A8D"/>
<path d="M10 10.5L12.5 13M12.5 13L15 10.5M12.5 13L12.5 3" stroke="#1A1A8D" stroke-linecap="round"/>
</svg>
