<svg width="25" height="24" viewBox="0 0 25 24" fill="none" xmlns="http://www.w3.org/2000/svg">
<path d="M5 7.5V15.5C5 17.3856 5 18.3284 5.58579 18.9142C6.17157 19.5 7.11438 19.5 9 19.5H16C17.8856 19.5 18.8284 19.5 19.4142 18.9142C20 18.3284 20 17.3856 20 15.5V7.5M5 7.5H20M5 7.5H3.42857C3.26151 7.5 3.17798 7.5 3.11699 7.46168C3.08519 7.4417 3.0583 7.41481 3.03832 7.38301C3 7.32202 3 7.23849 3 7.07143V7.07143C3 6.06905 3 5.56786 3.22991 5.20195C3.3498 5.01115 3.51115 4.8498 3.70195 4.72991C4.06786 4.5 4.56905 4.5 5.57143 4.5H19.4286C20.431 4.5 20.9321 4.5 21.298 4.72991C21.4889 4.8498 21.6502 5.01115 21.7701 5.20195C22 5.56786 22 6.06905 22 7.07143V7.07143C22 7.23849 22 7.32202 21.9617 7.38301C21.9417 7.41481 21.9148 7.4417 21.883 7.46168C21.822 7.5 21.7385 7.5 21.5714 7.5H20" stroke="#1A1A8D"/>
<path d="M10 14.5H15" stroke="#1A1A8D" stroke-linecap="round"/>
</svg>
