<svg width="25" height="24" viewBox="0 0 25 24" fill="none" xmlns="http://www.w3.org/2000/svg">
<path d="M9 9.5H8.19294C7.75267 9.5 7.53254 9.5 7.32538 9.54973C7.14172 9.59383 6.96614 9.66656 6.80509 9.76525C6.62344 9.87656 6.46778 10.0322 6.15647 10.3435L4.84353 11.6565C4.53222 11.9678 4.37656 12.1234 4.26525 12.3051C4.16656 12.4661 4.09383 12.6417 4.04973 12.8254C4 13.0325 4 13.2527 4 13.6929V17.62C4 18.6281 4 19.1321 4.19619 19.5172C4.36876 19.8559 4.64413 20.1312 4.98282 20.3038C5.36786 20.5 5.87191 20.5 6.88 20.5H18.12C19.1281 20.5 19.6321 20.5 20.0172 20.3038C20.3559 20.1312 20.6312 19.8559 20.8038 19.5172C21 19.1321 21 18.6281 21 17.62V13.6929C21 13.2527 21 13.0325 20.9503 12.8254C20.9062 12.6417 20.8334 12.4661 20.7348 12.3051C20.6234 12.1234 20.4678 11.9678 20.1565 11.6565L18.8435 10.3435C18.5322 10.0322 18.3766 9.87656 18.1949 9.76525C18.0339 9.66656 17.8583 9.59383 17.6746 9.54973C17.4675 9.5 17.2473 9.5 16.8071 9.5H16" stroke="#1A1A8D"/>
<path d="M21 14.5H18.4415C17.7458 14.5 17.3979 14.5 17.136 14.6888C16.8742 14.8775 16.7642 15.2075 16.5442 15.8675L16.4558 16.1325C16.2358 16.7925 16.1258 17.1225 15.864 17.3112C15.6021 17.5 15.2542 17.5 14.5585 17.5H10.4415C9.7458 17.5 9.39794 17.5 9.13605 17.3112C8.87416 17.1225 8.76416 16.7925 8.54415 16.1325L8.45585 15.8675C8.23584 15.2075 8.12584 14.8775 7.86395 14.6888C7.60206 14.5 7.2542 14.5 6.55848 14.5H4" stroke="#1A1A8D"/>
<path d="M12.5 4C13.5824 4 14.9253 4.78113 15.589 5.21601C15.8523 5.38852 16 5.68524 16 6V8.17871C16 9.61414 15.2309 10.9395 13.9846 11.6517L12.9961 12.2165C12.6887 12.3922 12.3113 12.3922 12.0039 12.2165L11.0154 11.6517C9.76914 10.9395 9 9.61414 9 8.17871V6C9 5.68524 9.14773 5.38852 9.41101 5.21601C10.0747 4.78113 11.4176 4 12.5 4Z" stroke="#1A1A8D"/>
</svg>
