<svg width="25" height="24" viewBox="0 0 25 24" fill="none" xmlns="http://www.w3.org/2000/svg">
<path d="M2.5 7C2.5 5.11438 2.5 4.17157 3.08579 3.58579C3.67157 3 4.61438 3 6.5 3H18.5C20.3856 3 21.3284 3 21.9142 3.58579C22.5 4.17157 22.5 5.11438 22.5 7C22.5 7.94281 22.5 8.41421 22.2071 8.70711C21.9142 9 21.4428 9 20.5 9H4.5C3.55719 9 3.08579 9 2.79289 8.70711C2.5 8.41421 2.5 7.94281 2.5 7Z" fill="#1A1A8D"/>
<path fill-rule="evenodd" clip-rule="evenodd" d="M5.37868 20.1213C4.5 19.2426 4.5 17.8284 4.5 15V11H20.5V15C20.5 17.8284 20.5 19.2426 19.6213 20.1213C18.7426 21 17.3284 21 14.5 21H10.5C7.67157 21 6.25736 21 5.37868 20.1213ZM10.5 15C9.94772 15 9.5 15.4477 9.5 16C9.5 16.5523 9.94772 17 10.5 17H14.5C15.0523 17 15.5 16.5523 15.5 16C15.5 15.4477 15.0523 15 14.5 15H10.5Z" fill="#1A1A8D"/>
</svg>
