<svg width="25" height="24" viewBox="0 0 25 24" fill="none" xmlns="http://www.w3.org/2000/svg">
<path d="M4.5 10L3.79289 10.7071L3.08579 10L3.79289 9.29289L4.5 10ZM21.5 18C21.5 18.5523 21.0523 19 20.5 19C19.9477 19 19.5 18.5523 19.5 18L21.5 18ZM8.79289 15.7071L3.79289 10.7071L5.20711 9.29289L10.2071 14.2929L8.79289 15.7071ZM3.79289 9.29289L8.79289 4.29289L10.2071 5.70711L5.20711 10.7071L3.79289 9.29289ZM4.5 9L14.5 9L14.5 11L4.5 11L4.5 9ZM21.5 16L21.5 18L19.5 18L19.5 16L21.5 16ZM14.5 9C18.366 9 21.5 12.134 21.5 16L19.5 16C19.5 13.2386 17.2614 11 14.5 11L14.5 9Z" fill="#1A1A8D"/>
</svg>
