<svg width="25" height="24" viewBox="0 0 25 24" fill="none" xmlns="http://www.w3.org/2000/svg">
<path d="M4.5 10L4.14645 10.3536L3.79289 10L4.14645 9.64645L4.5 10ZM21 18C21 18.2761 20.7761 18.5 20.5 18.5C20.2239 18.5 20 18.2761 20 18L21 18ZM9.14645 15.3536L4.14645 10.3536L4.85355 9.64645L9.85355 14.6464L9.14645 15.3536ZM4.14645 9.64645L9.14645 4.64645L9.85355 5.35355L4.85355 10.3536L4.14645 9.64645ZM4.5 9.5L14.5 9.5L14.5 10.5L4.5 10.5L4.5 9.5ZM21 16L21 18L20 18L20 16L21 16ZM14.5 9.5C18.0898 9.5 21 12.4101 21 16L20 16C20 12.9624 17.5376 10.5 14.5 10.5L14.5 9.5Z" fill="#1A1A8D"/>
</svg>
