<svg width="25" height="24" viewBox="0 0 25 24" fill="none" xmlns="http://www.w3.org/2000/svg">
<path d="M8.5 8L8.5 7C8.5 4.79086 10.2909 3 12.5 3V3C14.7091 3 16.5 4.79086 16.5 7L16.5 8" stroke="#1A1A8D" stroke-width="2" stroke-linecap="round"/>
<path d="M15.5 14V12" stroke="#1A1A8D" stroke-width="2" stroke-linecap="round"/>
<path d="M9.5 14V12" stroke="#1A1A8D" stroke-width="2" stroke-linecap="round"/>
<path d="M4.5 12C4.5 10.1144 4.5 9.17157 5.08579 8.58579C5.67157 8 6.61438 8 8.5 8H16.5C18.3856 8 19.3284 8 19.9142 8.58579C20.5 9.17157 20.5 10.1144 20.5 12V13C20.5 16.7712 20.5 18.6569 19.3284 19.8284C18.1569 21 16.2712 21 12.5 21V21C8.72876 21 6.84315 21 5.67157 19.8284C4.5 18.6569 4.5 16.7712 4.5 13V12Z" stroke="#1A1A8D" stroke-width="2"/>
</svg>
