<svg width="25" height="24" viewBox="0 0 25 24" fill="none" xmlns="http://www.w3.org/2000/svg">
<path d="M8.5 8L8.5 7C8.5 4.79086 10.2909 3 12.5 3V3C14.7091 3 16.5 4.79086 16.5 7L16.5 8" stroke="#1A1A8D" stroke-width="2" stroke-linecap="round"/>
<path fill-rule="evenodd" clip-rule="evenodd" d="M4.08579 7.58579C3.5 8.17157 3.5 9.11438 3.5 11V14C3.5 17.7712 3.5 19.6569 4.67157 20.8284C5.84315 22 7.72876 22 11.5 22H13.5C17.2712 22 19.1569 22 20.3284 20.8284C21.5 19.6569 21.5 17.7712 21.5 14V11C21.5 9.11438 21.5 8.17157 20.9142 7.58579C20.3284 7 19.3856 7 17.5 7H7.5C5.61438 7 4.67157 7 4.08579 7.58579ZM10.5 12C10.5 11.4477 10.0523 11 9.5 11C8.94772 11 8.5 11.4477 8.5 12V14C8.5 14.5523 8.94772 15 9.5 15C10.0523 15 10.5 14.5523 10.5 14V12ZM16.5 12C16.5 11.4477 16.0523 11 15.5 11C14.9477 11 14.5 11.4477 14.5 12V14C14.5 14.5523 14.9477 15 15.5 15C16.0523 15 16.5 14.5523 16.5 14V12Z" fill="#1A1A8D"/>
</svg>
