<svg width="25" height="24" viewBox="0 0 25 24" fill="none" xmlns="http://www.w3.org/2000/svg">
<path d="M8 8.5L8 8C8 7.53566 8 7.30349 8.01926 7.10793C8.20631 5.20882 9.70882 3.70631 11.6079 3.51926C11.8035 3.5 12.0357 3.5 12.5 3.5V3.5C12.9643 3.5 13.1965 3.5 13.3921 3.51926C15.2912 3.7063 16.7937 5.20882 16.9807 7.10793C17 7.30349 17 7.53566 17 8L17 8.5" stroke="#1A1A8D" stroke-linecap="round"/>
<path d="M16 13.5V11.5" stroke="#1A1A8D" stroke-linecap="round"/>
<path d="M9 13.5V11.5" stroke="#1A1A8D" stroke-linecap="round"/>
<path d="M6 12.1C6 10.4029 6 9.55442 6.52721 9.02721C7.05442 8.5 7.90294 8.5 9.6 8.5H15.4C17.0971 8.5 17.9456 8.5 18.4728 9.02721C19 9.55442 19 10.4029 19 12.1V14.5C19 17.3284 19 18.7426 18.1213 19.6213C17.2426 20.5 15.8284 20.5 13 20.5H12C9.17157 20.5 7.75736 20.5 6.87868 19.6213C6 18.7426 6 17.3284 6 14.5V12.1Z" stroke="#1A1A8D"/>
</svg>
