<svg width="25" height="24" viewBox="0 0 25 24" fill="none" xmlns="http://www.w3.org/2000/svg">
<path d="M4.93141 14.9116C5.41901 11.9859 5.66281 10.5231 6.63201 9.60143C6.74307 9.49581 6.86011 9.39667 6.98254 9.30448C8.05103 8.5 9.53402 8.5 12.5 8.5V8.5C15.466 8.5 16.949 8.5 18.0175 9.30448C18.1399 9.39667 18.2569 9.49581 18.368 9.60143C19.3372 10.5231 19.581 11.9859 20.0686 14.9116L20.6119 18.1712C20.792 19.2522 20.8821 19.7927 20.5826 20.1464C20.283 20.5 19.735 20.5 18.6391 20.5H6.36092C5.26498 20.5 4.71701 20.5 4.41744 20.1464C4.11788 19.7927 4.20796 19.2522 4.38813 18.1712L4.93141 14.9116Z" stroke="#FFD400" stroke-opacity="0.5"/>
<path d="M9 11L9 7.5C9 5.567 10.567 4 12.5 4V4C14.433 4 16 5.567 16 7.5L16 11" stroke="#1A1A8D" stroke-linecap="round"/>
</svg>
