<svg width="25" height="24" viewBox="0 0 25 24" fill="none" xmlns="http://www.w3.org/2000/svg">
<path d="M4.45638 14.7835C4.95435 11.5467 5.20334 9.92828 6.32715 8.96414C7.45096 8 9.08843 8 12.3634 8H12.6366C15.9116 8 17.549 8 18.6728 8.96414C19.7967 9.92828 20.0456 11.5467 20.5436 14.7835L21.1455 18.6959C21.3103 19.7668 21.3927 20.3023 21.0934 20.6511C20.7941 21 20.2523 21 19.1688 21H5.83122C4.74771 21 4.20595 21 3.90665 20.6511C3.60734 20.3023 3.68972 19.7668 3.85448 18.6959L4.45638 14.7835Z" fill="#FFD400" fill-opacity="0.5"/>
<path d="M9 11L9 7.5C9 5.567 10.567 4 12.5 4V4C14.433 4 16 5.567 16 7.5L16 11" stroke="#1A1A8D" stroke-linecap="round"/>
</svg>
