<svg width="25" height="24" viewBox="0 0 25 24" fill="none" xmlns="http://www.w3.org/2000/svg">
<path d="M5.84717 10.3339C5.91971 9.46346 5.95598 9.02824 6.24302 8.76412C6.53007 8.5 6.9668 8.5 7.84027 8.5H17.1597C18.0332 8.5 18.4699 8.5 18.757 8.76412C19.044 9.02824 19.0803 9.46346 19.1528 10.3339L19.3772 13.0259C19.6202 15.9422 19.7417 17.4004 19.1308 18.4758C18.8302 19.0049 18.4129 19.4584 17.9106 19.8019C16.8896 20.5 15.4264 20.5 12.5 20.5V20.5C9.57359 20.5 8.11038 20.5 7.08943 19.8019C6.58711 19.4584 6.16979 19.0049 5.86922 18.4758C5.2583 17.4004 5.37982 15.9422 5.62284 13.0259L5.84717 10.3339Z" stroke="#FFD400" stroke-opacity="0.5"/>
<path d="M9 7L9 6.5C9 4.567 10.567 3 12.5 3V3C14.433 3 16 4.567 16 6.5L16 7" stroke="#1A1A8D"/>
<path d="M9 12.5V11" stroke="#1A1A8D" stroke-linecap="round"/>
<path d="M16 12.5V11" stroke="#1A1A8D" stroke-linecap="round"/>
</svg>
