<svg width="25" height="24" viewBox="0 0 25 24" fill="none" xmlns="http://www.w3.org/2000/svg">
<path d="M5.35795 9.84661C5.42534 8.97057 5.45903 8.53256 5.74658 8.26628C6.03413 8 6.47344 8 7.35206 8H17.6479C18.5266 8 18.9659 8 19.2534 8.26628C19.541 8.53256 19.5747 8.97057 19.642 9.84661L19.8864 13.0236C20.1495 16.4434 20.281 18.1534 19.424 19.3409C19.2336 19.6047 19.0117 19.8443 18.7632 20.0544C17.6449 21 15.93 21 12.5 21C9.07003 21 7.35505 21 6.23678 20.0544C5.98832 19.8443 5.76641 19.6047 5.57599 19.3409C4.71897 18.1534 4.85051 16.4434 5.11357 13.0236L5.35795 9.84661Z" fill="#FFD400" fill-opacity="0.5"/>
<path d="M9 8L9 6.5C9 4.567 10.567 3 12.5 3V3C14.433 3 16 4.567 16 6.5L16 8" stroke="#1A1A8D"/>
<path d="M8.5 11.5C8.5 11.7761 8.72386 12 9 12C9.27614 12 9.5 11.7761 9.5 11.5H8.5ZM9.5 11.5V10H8.5V11.5H9.5Z" fill="#1A1A8D"/>
<path d="M15.5 11.5C15.5 11.7761 15.7239 12 16 12C16.2761 12 16.5 11.7761 16.5 11.5H15.5ZM16.5 11.5V10H15.5V11.5H16.5Z" fill="#1A1A8D"/>
</svg>
