<svg width="25" height="24" viewBox="0 0 25 24" fill="none" xmlns="http://www.w3.org/2000/svg">
<path d="M12.5 5L12.5 3" stroke="#1A1A8D" stroke-linecap="round"/>
<path d="M10.5 16L10 13" stroke="#1A1A8D" stroke-linecap="round"/>
<path d="M14.5 16L15 13" stroke="#1A1A8D" stroke-linecap="round"/>
<path d="M2.5 9H22.5V9C21.2333 9 20.6 9 20.1161 9.29969C19.956 9.39881 19.8108 9.52003 19.6846 9.65977C19.3032 10.0822 19.1899 10.7054 18.9633 11.9516L18.0972 16.7155C17.8117 18.2859 17.6689 19.071 17.1123 19.5355C16.5558 20 15.7577 20 14.1617 20H10.8383C9.24225 20 8.44422 20 7.88766 19.5355C7.33109 19.071 7.18834 18.2859 6.90283 16.7155L6.03666 11.9516C5.81007 10.7054 5.69677 10.0822 5.31536 9.65977C5.1892 9.52003 5.04395 9.39881 4.88391 9.29969C4.40002 9 3.76668 9 2.5 9V9Z" stroke="#1A1A8D" stroke-linecap="round"/>
</svg>
