<svg width="25" height="24" viewBox="0 0 25 24" fill="none" xmlns="http://www.w3.org/2000/svg">
<path d="M4.91291 10.6086C4.19007 10.1267 4.53122 9 5.39995 9H19.6C20.4688 9 20.8099 10.1267 20.0871 10.6086C19.7103 10.8598 19.4452 11.2468 19.3469 11.6888L18.1961 16.8677C17.8624 18.3694 17.6955 19.1202 17.1471 19.5601C16.5987 20 15.8296 20 14.2913 20H10.7087C9.17043 20 8.4013 20 7.85289 19.5601C7.30448 19.1202 7.13763 18.3694 6.80394 16.8677L5.65307 11.6888C5.55484 11.2468 5.28966 10.8598 4.91291 10.6086Z" fill="#FFD400" fill-opacity="0.5"/>
<path d="M12.5 7L12.5 5" stroke="#1A1A8D" stroke-linecap="round"/>
<path d="M15.5 16.5L16 13.5" stroke="#1A1A8D" stroke-linecap="round"/>
<path d="M12.5 16.5L12.5 13.5" stroke="#1A1A8D" stroke-linecap="round"/>
<path d="M9.5 16.5L9 13.5" stroke="#1A1A8D" stroke-linecap="round"/>
</svg>
