<svg width="25" height="24" viewBox="0 0 25 24" fill="none" xmlns="http://www.w3.org/2000/svg">
<path d="M12.5 5L12.5 3" stroke="#1A1A8D" stroke-width="2" stroke-linecap="round"/>
<path fill-rule="evenodd" clip-rule="evenodd" d="M22.5 8H2.5V11C2.87518 11 3.06277 11 3.22757 11.0277C3.91213 11.1429 4.48799 11.6049 4.74896 12.2481C4.81178 12.403 4.85247 12.5861 4.93386 12.9524L4.93386 12.9524L5.80394 16.8677C6.13763 18.3694 6.30448 19.1202 6.85289 19.5601C7.4013 20 8.17043 20 9.70869 20H15.2913C16.8296 20 17.5987 20 18.1471 19.5601C18.6955 19.1202 18.8624 18.3694 19.1961 16.8677L20.0661 12.9524L20.0661 12.9523C20.1475 12.5861 20.1882 12.403 20.251 12.2481C20.512 11.6049 21.0879 11.1429 21.7724 11.0277C21.9372 11 22.1248 11 22.5 11V8ZM9.98639 12.8356C9.8956 12.2908 9.38037 11.9228 8.8356 12.0136C8.29083 12.1044 7.92281 12.6196 8.01361 13.1644L8.51361 16.1644C8.6044 16.7092 9.11963 17.0772 9.6644 16.9864C10.2092 16.8956 10.5772 16.3804 10.4864 15.8356L9.98639 12.8356ZM16.9863 13.1644C17.0771 12.6196 16.7091 12.1044 16.1643 12.0136C15.6195 11.9228 15.1043 12.2908 15.0135 12.8356L14.5135 15.8356C14.4227 16.3804 14.7907 16.8956 15.3355 16.9864C15.8803 17.0772 16.3955 16.7092 16.4863 16.1644L16.9863 13.1644Z" fill="#1A1A8D"/>
</svg>
