<svg width="25" height="24" viewBox="0 0 25 24" fill="none" xmlns="http://www.w3.org/2000/svg">
<path fill-rule="evenodd" clip-rule="evenodd" d="M9.57613 3.61732C9.50001 3.80109 9.50001 4.03406 9.50001 4.5C9.50001 4.57215 9.50001 4.63871 9.50029 4.70037C9.50096 4.84756 9.5013 4.92116 9.46024 4.96477C9.41917 5.00838 9.34598 5.01245 9.1996 5.0206C9.02995 5.03004 8.8699 5.0438 8.72085 5.06383C8.20149 5.13366 7.66868 5.29579 7.23224 5.73223C6.7958 6.16867 6.63367 6.70149 6.56384 7.22084C6.49989 7.69655 6.49994 8.28427 6.5 8.93839L6.50001 9V18L6.5 18.0616C6.49994 18.7157 6.49989 19.3035 6.56384 19.7792C6.63367 20.2985 6.7958 20.8313 7.23224 21.2678C7.66868 21.7042 8.20149 21.8663 8.72085 21.9362C9.19656 22.0001 9.78429 22.0001 10.4384 22L10.5 22H14.5L14.5616 22C15.2157 22.0001 15.8035 22.0001 16.2792 21.9362C16.7985 21.8663 17.3313 21.7042 17.7678 21.2678C18.2042 20.8313 18.3663 20.2985 18.4362 19.7792C18.5001 19.3035 18.5001 18.7157 18.5 18.0616L18.5 18V9L18.5 8.93839C18.5001 8.28427 18.5001 7.69655 18.4362 7.22084C18.3663 6.70149 18.2042 6.16867 17.7678 5.73223C17.3313 5.29579 16.7985 5.13366 16.2792 5.06383C16.1301 5.0438 15.9701 5.03004 15.8004 5.0206C15.654 5.01246 15.5808 5.00838 15.5398 4.96477C15.4987 4.92116 15.4991 4.84756 15.4997 4.70038C15.5 4.63871 15.5 4.57215 15.5 4.5C15.5 4.03406 15.5 3.80109 15.4239 3.61732C15.3224 3.37229 15.1277 3.17761 14.8827 3.07612C14.6989 3 14.4659 3 14 3H11C10.5341 3 10.3011 3 10.1173 3.07612C9.8723 3.17761 9.67762 3.37229 9.57613 3.61732ZM11 6H10.5C9.08579 6 8.37869 6 7.93935 6.43934C7.50001 6.87868 7.50001 7.58579 7.50001 9V18C7.50001 19.4142 7.50001 20.1213 7.93935 20.5607C8.37869 21 9.08579 21 10.5 21H14.5C15.9142 21 16.6213 21 17.0607 20.5607C17.5 20.1213 17.5 19.4142 17.5 18V9C17.5 7.58579 17.5 6.87868 17.0607 6.43934C16.6213 6 15.9142 6 14.5 6H14H11Z" fill="#FFD400" fill-opacity="0.5"/>
<path d="M9 17.5C9 16.5572 9 16.0858 9.29289 15.7929C9.58579 15.5 10.0572 15.5 11 15.5H14C14.9428 15.5 15.4142 15.5 15.7071 15.7929C16 16.0858 16 16.5572 16 17.5V17.5C16 18.4428 16 18.9142 15.7071 19.2071C15.4142 19.5 14.9428 19.5 14 19.5H11C10.0572 19.5 9.58579 19.5 9.29289 19.2071C9 18.9142 9 18.4428 9 17.5V17.5Z" stroke="#1A1A8D"/>
</svg>
