<svg width="25" height="24" viewBox="0 0 25 24" fill="none" xmlns="http://www.w3.org/2000/svg">
<path fill-rule="evenodd" clip-rule="evenodd" d="M7.08579 5.58579C6.5 6.17157 6.5 7.11438 6.5 9V19C6.5 20.8856 6.5 21.8284 7.08579 22.4142C7.67157 23 8.61438 23 10.5 23H14.5C16.3856 23 17.3284 23 17.9142 22.4142C18.5 21.8284 18.5 20.8856 18.5 19V9C18.5 7.11438 18.5 6.17157 17.9142 5.58579C17.3284 5 16.3856 5 14.5 5H10.5C8.61438 5 7.67157 5 7.08579 5.58579ZM8.73431 8.23431C8.5 8.46863 8.5 8.84575 8.5 9.6V15.4C8.5 16.1542 8.5 16.5314 8.73431 16.7657C8.96863 17 9.34575 17 10.1 17H14.9C15.6542 17 16.0314 17 16.2657 16.7657C16.5 16.5314 16.5 16.1542 16.5 15.4V9.6C16.5 8.84575 16.5 8.46863 16.2657 8.23431C16.0314 8 15.6542 8 14.9 8H10.1C9.34575 8 8.96863 8 8.73431 8.23431Z" fill="#1A1A8D"/>
<path fill-rule="evenodd" clip-rule="evenodd" d="M9.79289 1.29289C9.5 1.58579 9.5 2.05719 9.5 3H15.5C15.5 2.05719 15.5 1.58579 15.2071 1.29289C14.9142 1 14.4428 1 13.5 1H11.5C10.5572 1 10.0858 1 9.79289 1.29289Z" fill="#1A1A8D"/>
</svg>
