<svg width="25" height="24" viewBox="0 0 25 24" fill="none" xmlns="http://www.w3.org/2000/svg">
<path d="M6.5 9C6.5 7.11438 6.5 6.17157 7.08579 5.58579C7.67157 5 8.61438 5 10.5 5H14.5C16.3856 5 17.3284 5 17.9142 5.58579C18.5 6.17157 18.5 7.11438 18.5 9V19C18.5 20.8856 18.5 21.8284 17.9142 22.4142C17.3284 23 16.3856 23 14.5 23H10.5C8.61438 23 7.67157 23 7.08579 22.4142C6.5 21.8284 6.5 20.8856 6.5 19V9Z" fill="#1A1A8D"/>
<path d="M9.5 3C9.5 2.05719 9.5 1.58579 9.79289 1.29289C10.0858 1 10.5572 1 11.5 1H13.5C14.4428 1 14.9142 1 15.2071 1.29289C15.5 1.58579 15.5 2.05719 15.5 3V4H9.5V3Z" fill="#1A1A8D"/>
</svg>
