<svg width="25" height="24" viewBox="0 0 25 24" fill="none" xmlns="http://www.w3.org/2000/svg">
<path fill-rule="evenodd" clip-rule="evenodd" d="M14.955 2.47362C14.194 2.16764 13.3647 2 12.4997 2C9.14361 2 6.32424 4.52345 5.95363 7.85899L5.70182 10.1252L5.69577 10.1793C5.58294 11.1625 5.26291 12.1106 4.75677 12.9611L4.72883 13.0077L4.15079 13.9711L4.12665 14.0114C3.88512 14.4138 3.66631 14.7785 3.52056 15.0879C3.37244 15.4024 3.21407 15.8286 3.2903 16.3117C3.36565 16.7893 3.61142 17.2233 3.98215 17.5337C4.35722 17.8476 4.8041 17.931 5.14998 17.9658C5.49036 18.0001 5.91561 18 6.38499 18L6.4319 18H18.5674L18.6143 18C19.0837 18 19.509 18.0001 19.8494 17.9658C20.1952 17.931 20.6421 17.8476 21.0172 17.5337C21.3879 17.2233 21.6337 16.7893 21.709 16.3117C21.7853 15.8286 21.6269 15.4024 21.4788 15.0879C21.333 14.7785 21.1142 14.4138 20.8727 14.0114L20.8485 13.9711L20.2705 13.0077L20.2426 12.9611C19.8638 12.3247 19.5893 11.6336 19.4278 10.914C19.1271 10.9705 18.8168 11 18.4997 11C18.1157 11 17.7418 10.9567 17.3827 10.8748C17.5673 11.9715 17.9537 13.0259 18.5239 13.9839L18.5555 14.0367L19.1336 15.0001C19.4071 15.456 19.5719 15.733 19.6694 15.9401C19.6747 15.9514 19.6796 15.9621 19.6841 15.972C19.6733 15.9733 19.6616 15.9746 19.6491 15.9759C19.4214 15.9988 19.099 16 18.5674 16H6.4319C5.9003 16 5.57793 15.9988 5.35019 15.9759C5.33773 15.9746 5.32609 15.9733 5.31522 15.972C5.31971 15.9621 5.3246 15.9514 5.32993 15.9401C5.42746 15.733 5.59228 15.456 5.86578 15.0001L6.44381 14.0367L6.47545 13.9839C7.12619 12.8904 7.53767 11.6714 7.68273 10.4073L7.68959 10.3461L7.94139 8.07985C8.19947 5.75718 10.1627 4 12.4997 4C12.9627 4 13.411 4.06898 13.8344 4.19767C14.0863 3.54594 14.4709 2.96023 14.955 2.47362ZM17.4818 4.27804C16.8939 4.62632 16.4997 5.26713 16.4997 6C16.4997 6.14503 16.5151 6.28645 16.5444 6.42272C16.6648 6.6476 16.7672 6.88404 16.8494 7.13021C17.2098 7.65547 17.8145 8 18.4997 8C18.6915 8 18.8771 7.97298 19.0528 7.92254L19.0457 7.85899C18.8935 6.48875 18.328 5.25555 17.4818 4.27804Z" fill="#1A1A8D"/>
<path d="M9.60222 17.6647C9.77315 18.6215 10.1498 19.467 10.6737 20.0701C11.1976 20.6731 11.8396 21 12.5 21C13.1604 21 13.8024 20.6731 14.3263 20.0701C14.8502 19.467 15.2269 18.6215 15.3978 17.6647" stroke="#1A1A8D" stroke-width="2" stroke-linecap="round"/>
<circle cx="18.5" cy="6" r="2.5" fill="#1A1A8D" stroke="#1A1A8D"/>
</svg>
