<svg width="25" height="24" viewBox="0 0 25 24" fill="none" xmlns="http://www.w3.org/2000/svg">
<path d="M6.49994 8C6.49994 4.68629 9.18623 2 12.4999 2C15.8136 2 18.4999 4.68629 18.4999 8V9.83095C18.4999 11.2503 18.8857 12.6429 19.6159 13.8599L20.1693 14.7823C20.5364 15.3941 20.7199 15.7 20.7325 15.9497C20.752 16.3366 20.5462 16.6999 20.2045 16.8823C19.9838 17 19.6271 17 18.9137 17H6.08624C5.3728 17 5.01608 17 4.79543 16.8823C4.45367 16.6999 4.24797 16.3366 4.26744 15.9497C4.28 15.7 4.46353 15.3941 4.83059 14.7823L5.384 13.8599C6.11421 12.6429 6.49994 11.2503 6.49994 9.83098V8Z" fill="#FFD400" fill-opacity="0.5"/>
<path d="M14.85 18C14.9328 18 15.0007 18.0673 14.993 18.1498C14.9484 18.6254 14.6923 19.0746 14.2678 19.4142C13.7989 19.7893 13.163 20 12.5 20C11.837 20 11.2011 19.7893 10.7322 19.4142C10.3077 19.0746 10.0516 18.6254 10.007 18.1498C9.99928 18.0673 10.0672 18 10.15 18L12.5 18L14.85 18Z" fill="#1A1A8D"/>
</svg>
