<svg width="25" height="24" viewBox="0 0 25 24" fill="none" xmlns="http://www.w3.org/2000/svg">
<path fill-rule="evenodd" clip-rule="evenodd" d="M14.8749 3.98156C14.1429 3.67099 13.3395 3.5 12.4997 3.5C9.39839 3.5 6.79305 5.83189 6.45057 8.9142L6.19877 11.1804L6.19252 11.2363C6.07163 12.2897 5.72873 13.3056 5.18645 14.2168L5.15758 14.265L4.57955 15.2284L4.56562 15.2516C4.31519 15.669 4.10774 16.0147 3.9729 16.301C3.83681 16.5899 3.73192 16.9025 3.78419 17.2338C3.8407 17.5919 4.02504 17.9175 4.30308 18.1502C4.56026 18.3655 4.88224 18.4364 5.20004 18.4683C5.51491 18.5 5.9181 18.5 6.40483 18.5H6.4319H18.5674H18.5945C19.0812 18.5 19.4844 18.5 19.7993 18.4683C20.1171 18.4364 20.4391 18.3655 20.6963 18.1502C20.9743 17.9175 21.1586 17.5919 21.2152 17.2338C21.2674 16.9025 21.1625 16.5899 21.0264 16.301C20.8916 16.0147 20.6842 15.669 20.4338 15.2517L20.4337 15.2516L20.4198 15.2284L19.8418 14.265L19.8129 14.2168C19.2706 13.3056 18.9277 12.2897 18.8068 11.2363L18.8006 11.1804L18.7581 10.798C18.4452 10.9016 18.1152 10.9677 17.7733 10.9908L17.8067 11.2909L17.8133 11.3503C17.9504 12.5442 18.339 13.6955 18.9536 14.7282L18.9843 14.7795L19.5623 15.7429C19.8302 16.1894 20.011 16.4918 20.1218 16.7271C20.2338 16.9649 20.2317 17.0504 20.2274 17.0779C20.2085 17.1973 20.1471 17.3058 20.0544 17.3834C20.033 17.4013 19.9608 17.447 19.6992 17.4734C19.4405 17.4994 19.0881 17.5 18.5674 17.5H6.4319C5.91122 17.5 5.55887 17.4994 5.30014 17.4734C5.03852 17.447 4.96633 17.4013 4.94494 17.3834C4.85225 17.3058 4.79081 17.1973 4.77197 17.0779C4.76762 17.0504 4.76556 16.9649 4.87759 16.7271C4.98838 16.4918 5.16915 16.1894 5.43704 15.7429L6.01507 14.7795L6.04578 14.7282C6.66037 13.6955 7.04899 12.5442 7.186 11.3503L7.19265 11.2909L7.44446 9.02463C7.73067 6.44875 9.90794 4.5 12.4997 4.5C13.0834 4.5 13.646 4.59884 14.1708 4.78142C14.3692 4.48435 14.6063 4.21532 14.8749 3.98156ZM16.6889 5.17115C16.3741 5.31089 16.1022 5.52951 15.8981 5.80192C16.7928 6.6054 17.404 7.72482 17.552 8.99933C17.9066 8.99021 18.2383 8.8888 18.5238 8.71822C18.323 7.32034 17.6546 6.08721 16.6889 5.17115Z" fill="#1A1A8D"/>
<path d="M9.60222 18.4059C9.77315 19.1501 10.1498 19.8077 10.6737 20.2767C11.1976 20.7458 11.8396 21 12.5 21C13.1604 21 13.8024 20.7458 14.3263 20.2767C14.8502 19.8077 15.2269 19.1501 15.3978 18.4059" stroke="#1A1A8D" stroke-linecap="round"/>
<circle cx="17.5" cy="7" r="2" fill="#1A1A8D"/>
</svg>
