<svg width="25" height="24" viewBox="0 0 25 24" fill="none" xmlns="http://www.w3.org/2000/svg">
<path d="M6.94784 8.96942C7.26219 6.14032 9.65349 4 12.5 4V4C15.3465 4 17.7378 6.14032 18.0522 8.96942L18.304 11.2356C18.3072 11.2645 18.3088 11.279 18.3104 11.2933C18.4394 12.4169 18.8051 13.5005 19.3836 14.4725C19.3909 14.4849 19.3984 14.4973 19.4133 14.5222L19.9914 15.4856C20.5159 16.3599 20.7782 16.797 20.7216 17.1559C20.6839 17.3946 20.561 17.6117 20.3757 17.7668C20.0971 18 19.5873 18 18.5678 18H6.43223C5.41268 18 4.90291 18 4.62434 17.7668C4.43897 17.6117 4.31609 17.3946 4.27841 17.1559C4.22179 16.797 4.48407 16.3599 5.00862 15.4856L5.58665 14.5222C5.60161 14.4973 5.60909 14.4849 5.61644 14.4725C6.19488 13.5005 6.56064 12.4169 6.68959 11.2933C6.69123 11.279 6.69283 11.2645 6.69604 11.2356L6.94784 8.96942Z" stroke="#1A1A8D"/>
<path d="M9.60222 18.4059C9.77315 19.1501 10.1498 19.8077 10.6737 20.2767C11.1976 20.7458 11.8396 21 12.5 21C13.1604 21 13.8024 20.7458 14.3263 20.2767C14.8502 19.8077 15.2269 19.1501 15.3978 18.4059" stroke="#1A1A8D" stroke-linecap="round"/>
</svg>
