<svg width="25" height="24" viewBox="0 0 25 24" fill="none" xmlns="http://www.w3.org/2000/svg">
<path fill-rule="evenodd" clip-rule="evenodd" d="M12.4999 2C9.1862 2 6.49991 4.68629 6.49991 8V10C6.49991 11.5146 6.00866 12.9883 5.09991 14.2L4.88562 14.4857L4.87127 14.5048L4.87122 14.5049C4.81246 14.5832 4.76469 14.6469 4.73256 14.6976C4.12845 15.6518 4.7556 16.9061 5.88141 16.9953C5.94129 17.0001 6.02089 17 6.11879 17H6.11884L6.14276 17H18.857L18.881 17H18.881C18.9789 17 19.0585 17.0001 19.1184 16.9953C20.2442 16.9061 20.8714 15.6518 20.2673 14.6976C20.2351 14.6468 20.1873 14.5832 20.1285 14.5048L20.1142 14.4857L19.8999 14.2C18.9912 12.9883 18.4999 11.5146 18.4999 10V9.31701C18.4999 9.15272 18.4999 9.07058 18.4531 9.02621C18.4063 8.98184 18.3162 8.98668 18.1362 8.99635C18.091 8.99877 18.0456 9 17.9999 9C17.9542 9 17.9088 8.99877 17.8636 8.99635C17.6836 8.98668 17.5935 8.98184 17.5467 9.02622C17.4999 9.07059 17.4999 9.15273 17.4999 9.31701V10C17.4999 11.731 18.0613 13.4152 19.0999 14.8L19.3142 15.0857C19.3514 15.1353 19.3768 15.1692 19.3956 15.1949C19.4048 15.2075 19.4113 15.2165 19.4159 15.2231L19.4209 15.2303L19.4216 15.2314C19.422 15.232 19.4223 15.2324 19.4223 15.2325L19.4224 15.2325C19.6237 15.5506 19.4147 15.9687 19.0394 15.9984C19.0395 15.9984 19.0387 15.9985 19.0367 15.9986L19.028 15.999C19.0247 15.9991 19.0208 15.9992 19.0164 15.9993C19.01 15.9994 19.0024 15.9995 18.9933 15.9996C18.9614 16 18.919 16 18.857 16H6.14276C6.08079 16 6.03846 16 6.00655 15.9996C5.99097 15.9995 5.9799 15.9992 5.97181 15.999L5.96309 15.9986C5.96115 15.9985 5.96033 15.9984 5.96041 15.9984C5.58514 15.9687 5.37609 15.5506 5.57746 15.2325L5.57768 15.2322C5.57791 15.2318 5.57832 15.2312 5.57894 15.2303L5.58388 15.2231C5.58852 15.2165 5.59497 15.2075 5.60418 15.1949C5.62304 15.1692 5.64844 15.1353 5.68562 15.0857L5.89991 14.8C6.93848 13.4152 7.49991 11.731 7.49991 10V8C7.49991 5.23858 9.73848 3 12.4999 3C13.8855 3 15.1395 3.56364 16.0451 4.47414C16.1495 4.57912 16.2017 4.63162 16.2577 4.63565C16.3137 4.63969 16.3757 4.59307 16.4998 4.49985C16.5746 4.44369 16.6526 4.39163 16.7335 4.34399C16.9106 4.23977 16.9991 4.18766 17.0091 4.11574C17.019 4.04383 16.9567 3.97879 16.832 3.84872C15.7399 2.70937 14.2027 2 12.4999 2Z" fill="#FFD400" fill-opacity="0.5"/>
<circle cx="18" cy="6.5" r="1.5" fill="#1A1A8D"/>
<path d="M10.0852 18.647C10.2276 19.1786 10.5415 19.6484 10.9781 19.9834C11.4147 20.3184 11.9497 20.5 12.5 20.5C13.0503 20.5 13.5853 20.3184 14.0219 19.9834C14.4585 19.6484 14.7724 19.1786 14.9148 18.647" stroke="#1A1A8D" stroke-linecap="round"/>
</svg>
