<svg width="25" height="24" viewBox="0 0 25 24" fill="none" xmlns="http://www.w3.org/2000/svg">
<path d="M6.94784 7.96942C7.26219 5.14032 9.65349 3 12.5 3V3C15.3465 3 17.7378 5.14032 18.0522 7.96942L18.304 10.2356C18.3072 10.2645 18.3088 10.279 18.3104 10.2933C18.4394 11.4169 18.8051 12.5005 19.3836 13.4725C19.3909 13.4849 19.3984 13.4973 19.4133 13.5222L19.9914 14.4856C20.5159 15.3599 20.7782 15.797 20.7216 16.1559C20.6839 16.3946 20.561 16.6117 20.3757 16.7668C20.0971 17 19.5873 17 18.5678 17H6.43223C5.41268 17 4.90291 17 4.62434 16.7668C4.43897 16.6117 4.31609 16.3946 4.27841 16.1559C4.22179 15.797 4.48407 15.3599 5.00862 14.4856L5.58665 13.5222C5.60161 13.4973 5.60909 13.4849 5.61644 13.4725C6.19488 12.5005 6.56064 11.4169 6.68959 10.2933C6.69123 10.279 6.69283 10.2645 6.69604 10.2356L6.94784 7.96942Z" stroke="#1A1A8D" stroke-width="2"/>
<path d="M9.60222 17.6647C9.77315 18.6215 10.1498 19.467 10.6737 20.0701C11.1976 20.6731 11.8396 21 12.5 21C13.1604 21 13.8024 20.6731 14.3263 20.0701C14.8502 19.467 15.2269 18.6215 15.3978 17.6647" stroke="#1A1A8D" stroke-width="2" stroke-linecap="round"/>
</svg>
