<svg width="25" height="24" viewBox="0 0 25 24" fill="none" xmlns="http://www.w3.org/2000/svg">
<path fill-rule="evenodd" clip-rule="evenodd" d="M12.5004 2C9.18667 2 6.50037 4.68629 6.50037 8V9.83098C6.50037 11.2503 6.11465 12.6429 5.38444 13.8599L4.83102 14.7823C4.46397 15.3941 4.28044 15.7 4.26787 15.9497C4.2484 16.3366 4.45411 16.6999 4.79586 16.8823C5.01651 17 5.37323 17 6.08667 17H18.9141C19.6276 17 19.9843 17 20.2049 16.8823C20.5467 16.6999 20.7524 16.3366 20.7329 15.9497C20.7203 15.7 20.5368 15.3941 20.1698 14.7824L20.1698 14.7823L19.6163 13.8599C18.8861 12.6429 18.5004 11.2503 18.5004 9.83095V9.31701C18.5004 9.15273 18.5004 9.07059 18.4536 9.02622C18.4067 8.98185 18.3167 8.98668 18.1366 8.99635C18.0915 8.99877 18.0461 9 18.0004 9C16.6197 9 15.5004 7.88071 15.5004 6.5C15.5004 5.58144 15.9958 4.77858 16.734 4.34403C16.9111 4.23979 16.9996 4.18767 17.0096 4.11576C17.0195 4.04385 16.9572 3.97881 16.8325 3.84874C15.7404 2.70938 14.2032 2 12.5004 2Z" fill="#FFD400" fill-opacity="0.5"/>
<circle cx="18" cy="6.5" r="1.5" fill="#1A1A8D"/>
<path d="M14.85 18C14.9328 18 15.0007 18.0673 14.993 18.1498C14.9484 18.6254 14.6923 19.0746 14.2678 19.4142C13.7989 19.7893 13.163 20 12.5 20C11.837 20 11.2011 19.7893 10.7322 19.4142C10.3077 19.0746 10.0516 18.6254 10.007 18.1498C9.99928 18.0673 10.0672 18 10.15 18L12.5 18L14.85 18Z" fill="#1A1A8D"/>
</svg>
