<svg width="25" height="24" viewBox="0 0 25 24" fill="none" xmlns="http://www.w3.org/2000/svg">
<path d="M7 8C7 4.96243 9.46243 2.5 12.5 2.5V2.5C15.5376 2.5 18 4.96243 18 8V10C18 11.6228 18.5263 13.2018 19.5 14.5L19.7143 14.7857C19.7873 14.883 19.8237 14.9316 19.8449 14.9651C20.2476 15.6012 19.8295 16.4374 19.079 16.4969C19.0396 16.5 18.9788 16.5 18.8571 16.5H6.14286C6.02124 16.5 5.96044 16.5 5.921 16.4969C5.17047 16.4374 4.75236 15.6012 5.1551 14.9651C5.17626 14.9316 5.21275 14.883 5.28571 14.7857L5.5 14.5C6.47367 13.2018 7 11.6228 7 10V8Z" stroke="#FFD400" stroke-opacity="0.5"/>
<path d="M10.0852 18.647C10.2276 19.1786 10.5415 19.6484 10.9781 19.9834C11.4147 20.3184 11.9497 20.5 12.5 20.5C13.0503 20.5 13.5853 20.3184 14.0219 19.9834C14.4585 19.6484 14.7724 19.1786 14.9148 18.647" stroke="#1A1A8D" stroke-linecap="round"/>
</svg>
