<svg width="25" height="24" viewBox="0 0 25 24" fill="none" xmlns="http://www.w3.org/2000/svg">
<path fill-rule="evenodd" clip-rule="evenodd" d="M7.5 2C5.84315 2 4.5 3.34315 4.5 5V19C4.5 20.6569 5.84315 22 7.5 22H11.5V17L11.5 16.9384C11.4999 16.2843 11.4999 15.6965 11.5638 15.2208C11.6337 14.7015 11.7958 14.1687 12.2322 13.7322C12.6687 13.2958 13.2015 13.1337 13.7208 13.0638C14.1966 12.9999 14.7843 12.9999 15.4384 13L15.5 13H20.5V5C20.5 3.34315 19.1569 2 17.5 2H7.5ZM20.2305 15H15.5C14.7646 15 14.3137 15.0021 13.9873 15.046C13.7005 15.0846 13.6526 15.1394 13.6469 15.1459L13.6464 15.1464L13.6459 15.1469C13.6394 15.1526 13.5846 15.2005 13.546 15.4873C13.5021 15.8137 13.5 16.2646 13.5 17V21.7305C13.824 21.5831 14.1222 21.3778 14.3787 21.1213L19.6213 15.8787C19.8778 15.6222 20.0831 15.324 20.2305 15Z" fill="#1A1A8D"/>
</svg>
