<svg width="25" height="24" viewBox="0 0 25 24" fill="none" xmlns="http://www.w3.org/2000/svg">
<path fill-rule="evenodd" clip-rule="evenodd" d="M5.5 2C3.84315 2 2.5 3.34315 2.5 5V19C2.5 20.6569 3.84315 22 5.5 22H13.5V17L13.5 16.9384C13.4999 16.2843 13.4999 15.6965 13.5638 15.2208C13.6337 14.7015 13.7958 14.1687 14.2322 13.7322C14.6687 13.2958 15.2015 13.1337 15.7208 13.0638C16.1966 12.9999 16.7843 12.9999 17.4384 13L17.5 13H22.5V5C22.5 3.34315 21.1569 2 19.5 2H5.5ZM22.2305 15H17.5C16.7646 15 16.3137 15.0021 15.9873 15.046C15.7005 15.0846 15.6526 15.1394 15.6469 15.1459L15.6464 15.1464L15.6459 15.1469C15.6394 15.1526 15.5846 15.2005 15.546 15.4873C15.5021 15.8137 15.5 16.2646 15.5 17V21.7305C15.824 21.5831 16.1222 21.3778 16.3787 21.1213L21.6213 15.8787C21.8778 15.6222 22.0831 15.324 22.2305 15Z" fill="#1A1A8D"/>
</svg>
