<svg width="25" height="24" viewBox="0 0 25 24" fill="none" xmlns="http://www.w3.org/2000/svg">
<path d="M5.5 19C5.5 20.1046 6.39543 21 7.5 21H12.25C12.3881 21 12.5 20.8881 12.5 20.75V16C12.5 14.8954 13.3954 14 14.5 14H19.25C19.3881 14 19.5 13.8881 19.5 13.75V5C19.5 3.89543 18.6046 3 17.5 3H7.5C6.39543 3 5.5 3.89543 5.5 5V19Z" fill="#FFD400" fill-opacity="0.5"/>
<path d="M13.5 16V20.3964C13.5 20.6192 13.7693 20.7307 13.9268 20.5732L19.0732 15.4268C19.2307 15.2693 19.1192 15 18.8964 15H14.5C13.9477 15 13.5 15.4477 13.5 16Z" fill="#1A1A8D"/>
</svg>
