<svg width="25" height="24" viewBox="0 0 25 24" fill="none" xmlns="http://www.w3.org/2000/svg">
<path d="M14.6716 21H7.5C5.61438 21 4.67157 21 4.08579 20.4142C3.5 19.8284 3.5 18.8856 3.5 17V7C3.5 5.11438 3.5 4.17157 4.08579 3.58579C4.67157 3 5.61438 3 7.5 3H17.5C19.3856 3 20.3284 3 20.9142 3.58579C21.5 4.17157 21.5 5.11438 21.5 7V14.1716C21.5 14.5803 21.5 14.7847 21.4239 14.9685C21.3478 15.1522 21.2032 15.2968 20.9142 15.5858L16.0858 20.4142C15.7968 20.7032 15.6522 20.8478 15.4685 20.9239C15.2847 21 15.0803 21 14.6716 21Z" stroke="#1A1A8D" stroke-width="2"/>
<path d="M14.5 21V16.3333C14.5 15.2334 14.5 14.6834 14.8417 14.3417C15.1834 14 15.7334 14 16.8333 14H21.5" stroke="#1A1A8D" stroke-width="2"/>
</svg>
