<svg width="25" height="24" viewBox="0 0 25 24" fill="none" xmlns="http://www.w3.org/2000/svg">
<path d="M2.5 19C2.5 20.1046 3.39543 21 4.5 21H15.25C15.3881 21 15.5 20.8881 15.5 20.75V16C15.5 14.8954 16.3954 14 17.5 14H22.25C22.3881 14 22.5 13.8881 22.5 13.75V5C22.5 3.89543 21.6046 3 20.5 3H4.5C3.39543 3 2.5 3.89543 2.5 5V19Z" fill="#FFD400" fill-opacity="0.5"/>
<path d="M16.5 16V20.3964C16.5 20.6192 16.7693 20.7307 16.9268 20.5732L22.0732 15.4268C22.2307 15.2693 22.1192 15 21.8964 15H17.5C16.9477 15 16.5 15.4477 16.5 16Z" fill="#1A1A8D"/>
</svg>
