<svg width="25" height="24" viewBox="0 0 25 24" fill="none" xmlns="http://www.w3.org/2000/svg">
<path d="M5.5 17H9.5C11.1569 17 12.5 18.3431 12.5 20V10C12.5 7.17157 12.5 5.75736 11.6213 4.87868C10.7426 4 9.32843 4 6.5 4H5.5C4.55719 4 4.08579 4 3.79289 4.29289C3.5 4.58579 3.5 5.05719 3.5 6V15C3.5 15.9428 3.5 16.4142 3.79289 16.7071C4.08579 17 4.55719 17 5.5 17Z" fill="#FFD400" fill-opacity="0.5"/>
<path d="M19.5 17H16.5C14.8431 17 13.5 18.3431 13.5 20V10C13.5 7.17157 13.5 5.75736 14.3787 4.87868C15.2574 4 16.6716 4 19.5 4C20.4428 4 20.9142 4 21.2071 4.29289C21.5 4.58579 21.5 5.05719 21.5 6V15C21.5 15.9428 21.5 16.4142 21.2071 16.7071C20.9142 17 20.4428 17 19.5 17Z" fill="#1A1A8D"/>
<path d="M5.5 4.15C5.5 4.06716 5.56716 4 5.65 4H8.35C8.43284 4 8.5 4.06716 8.5 4.15V8.39645C8.5 8.61917 8.23071 8.73071 8.07322 8.57322L7.17678 7.67678C7.07915 7.57915 6.92085 7.57915 6.82322 7.67678L5.92678 8.57322C5.76929 8.73071 5.5 8.61917 5.5 8.39645V4.15Z" fill="#1A1A8D"/>
</svg>
