<svg width="25" height="24" viewBox="0 0 25 24" fill="none" xmlns="http://www.w3.org/2000/svg">
<path d="M16.5 16H8.91548C7.73086 16 7.13856 16 6.61625 16.202C6.34326 16.3076 6.08719 16.4526 5.85619 16.6324C5.41422 16.9763 5.10948 17.4842 4.5 18.5V7C4.5 5.11438 4.5 4.17157 5.08579 3.58579C5.67157 3 6.61438 3 8.5 3H16.5C18.3856 3 19.3284 3 19.9142 3.58579C20.5 4.17157 20.5 5.11438 20.5 7V12C20.5 13.8856 20.5 14.8284 19.9142 15.4142C19.3284 16 18.3856 16 16.5 16Z" fill="#FFD400" fill-opacity="0.5"/>
<path d="M20.5 12V17C20.5 18.8856 20.5 19.8284 19.9142 20.4142C19.3284 21 18.3856 21 16.5 21H7C5.61929 21 4.5 19.8807 4.5 18.5V18.5C4.5 17.1193 5.61929 16 7 16H16.5C18.3856 16 19.3284 16 19.9142 15.4142C20.5 14.8284 20.5 13.8856 20.5 12V7C20.5 5.11438 20.5 4.17157 19.9142 3.58579C19.3284 3 18.3856 3 16.5 3H8.5C6.61438 3 5.67157 3 5.08579 3.58579C4.5 4.17157 4.5 5.11438 4.5 7V18.5" stroke="#1A1A8D" stroke-width="1.2"/>
<path d="M9.5 10L10.7929 11.2929C11.1834 11.6834 11.8166 11.6834 12.2071 11.2929L15.5 8" stroke="#1A1A8D" stroke-width="1.2" stroke-linecap="round"/>
</svg>
