<svg width="25" height="24" viewBox="0 0 25 24" fill="none" xmlns="http://www.w3.org/2000/svg">
<path d="M4.5 9C4.5 6.17157 4.5 4.75736 5.37868 3.87868C6.25736 3 7.67157 3 10.5 3H14.5C17.3284 3 18.7426 3 19.6213 3.87868C20.5 4.75736 20.5 6.17157 20.5 9V15.8276C20.5 18.5109 20.5 19.8525 19.6557 20.2629C18.8114 20.6733 17.7565 19.8444 15.6465 18.1866L14.9713 17.656C13.7849 16.7239 13.1917 16.2578 12.5 16.2578C11.8083 16.2578 11.2151 16.7239 10.0287 17.656L9.35346 18.1866C7.24355 19.8444 6.18859 20.6733 5.34429 20.2629C4.5 19.8525 4.5 18.5109 4.5 15.8276V9Z" fill="#1A1A8D" stroke="#1A1A8D" stroke-width="2"/>
</svg>
