<svg width="25" height="24" viewBox="0 0 25 24" fill="none" xmlns="http://www.w3.org/2000/svg">
<path fill-rule="evenodd" clip-rule="evenodd" d="M7 16H16.5C18.3856 16 19.3284 16 19.9142 15.4142C20.5 14.8284 20.5 13.8856 20.5 12V7C20.5 5.11438 20.5 4.17157 19.9142 3.58579C19.3284 3 18.3856 3 16.5 3H8.5C6.61438 3 5.67157 3 5.08579 3.58579C4.5 4.17157 4.5 5.11438 4.5 7V18.5C4.5 17.1193 5.61929 16 7 16ZM9.5 6C8.39543 6 7.5 6.89543 7.5 8C7.5 9.10457 8.39543 10 9.5 10L15.5 10C16.6046 10 17.5 9.10457 17.5 8C17.5 6.89543 16.6046 6 15.5 6L9.5 6Z" fill="#1A1A8D"/>
<path d="M19.9142 15.4142L19.2071 14.7071L19.2071 14.7071L19.9142 15.4142ZM19.9142 3.58579L19.2071 4.29289L19.2071 4.29289L19.9142 3.58579ZM9.5 6V5V6ZM9.5 10V9V10ZM15.5 10V11V10ZM15.5 6V5V6ZM16.5 15H7V17H16.5V15ZM19.2071 14.7071C19.131 14.7832 18.995 14.8774 18.5613 14.9357C18.0988 14.9979 17.4711 15 16.5 15V17C17.4145 17 18.201 17.0021 18.8278 16.9179C19.4833 16.8297 20.1117 16.631 20.6213 16.1213L19.2071 14.7071ZM19.5 12C19.5 12.9711 19.4979 13.5988 19.4357 14.0613C19.3774 14.495 19.2832 14.631 19.2071 14.7071L20.6213 16.1213C21.131 15.6117 21.3297 14.9833 21.4179 14.3278C21.5021 13.701 21.5 12.9145 21.5 12H19.5ZM19.5 7V12H21.5V7H19.5ZM19.2071 4.29289C19.2832 4.36902 19.3774 4.50496 19.4357 4.9387C19.4979 5.40121 19.5 6.02892 19.5 7H21.5C21.5 6.08546 21.5021 5.29896 21.4179 4.67221C21.3297 4.01669 21.131 3.38834 20.6213 2.87868L19.2071 4.29289ZM16.5 4C17.4711 4 18.0988 4.00212 18.5613 4.06431C18.995 4.12262 19.131 4.21677 19.2071 4.29289L20.6213 2.87868C20.1117 2.36902 19.4833 2.17027 18.8278 2.08214C18.201 1.99788 17.4145 2 16.5 2V4ZM8.5 4H16.5V2H8.5V4ZM5.79289 4.29289C5.86902 4.21677 6.00496 4.12262 6.4387 4.06431C6.90121 4.00212 7.52892 4 8.5 4V2C7.58546 2 6.79896 1.99788 6.17221 2.08214C5.51669 2.17027 4.88834 2.36902 4.37868 2.87868L5.79289 4.29289ZM5.5 7C5.5 6.02892 5.50212 5.40121 5.56431 4.9387C5.62262 4.50496 5.71677 4.36902 5.79289 4.29289L4.37868 2.87868C3.86902 3.38834 3.67027 4.01669 3.58214 4.67221C3.49788 5.29896 3.5 6.08546 3.5 7H5.5ZM5.5 18.5V7H3.5V18.5H5.5ZM7 15C5.067 15 3.5 16.567 3.5 18.5H5.5C5.5 17.6716 6.17157 17 7 17V15ZM8.5 8C8.5 7.44772 8.94772 7 9.5 7V5C7.84315 5 6.5 6.34315 6.5 8H8.5ZM9.5 9C8.94772 9 8.5 8.55228 8.5 8H6.5C6.5 9.65685 7.84315 11 9.5 11V9ZM15.5 9L9.5 9V11H15.5V9ZM16.5 8C16.5 8.55229 16.0523 9 15.5 9V11C17.1569 11 18.5 9.65686 18.5 8H16.5ZM15.5 7C16.0523 7 16.5 7.44772 16.5 8H18.5C18.5 6.34315 17.1569 5 15.5 5V7ZM9.5 7L15.5 7V5L9.5 5V7Z" fill="#1A1A8D"/>
<path d="M20.5 21H10.5" stroke="#1A1A8D" stroke-width="2" stroke-linecap="round"/>
</svg>
