<svg width="25" height="24" viewBox="0 0 25 24" fill="none" xmlns="http://www.w3.org/2000/svg">
<path fill-rule="evenodd" clip-rule="evenodd" d="M7 16H16.5C18.3856 16 19.3284 16 19.9142 15.4142C20.5 14.8284 20.5 13.8856 20.5 12V7C20.5 5.11438 20.5 4.17157 19.9142 3.58579C19.3284 3 18.3856 3 16.5 3H8.5C6.61438 3 5.67157 3 5.08579 3.58579C4.5 4.17157 4.5 5.11438 4.5 7V18.5C4.5 17.1193 5.61929 16 7 16ZM16.9142 9.41421C17.6953 8.63317 17.6953 7.36684 16.9142 6.58579C16.1332 5.80474 14.8668 5.80474 14.0858 6.58579L11.5 9.17157L10.9142 8.58579C10.1332 7.80474 8.86684 7.80474 8.08579 8.58579C7.30474 9.36683 7.30474 10.6332 8.08579 11.4142L9.37868 12.7071C10.5503 13.8787 12.4497 13.8787 13.6213 12.7071L16.9142 9.41421Z" fill="#1A1A8D"/>
<path d="M19.9142 15.4142L19.2071 14.7071L19.2071 14.7071L19.9142 15.4142ZM19.9142 3.58579L19.2071 4.29289L19.2071 4.29289L19.9142 3.58579ZM16.9142 6.58579L17.6213 5.87868L17.6213 5.87868L16.9142 6.58579ZM16.9142 9.41421L16.2071 8.70711L16.9142 9.41421ZM14.0858 6.58579L13.3787 5.87868L14.0858 6.58579ZM11.5 9.17157L10.7929 9.87868L11.5 10.5858L12.2071 9.87868L11.5 9.17157ZM10.9142 8.58579L10.2071 9.29289H10.2071L10.9142 8.58579ZM8.08579 8.58579L8.79289 9.29289L8.79289 9.29289L8.08579 8.58579ZM8.08579 11.4142L8.79289 10.7071V10.7071L8.08579 11.4142ZM9.37868 12.7071L8.67157 13.4142L9.37868 12.7071ZM13.6213 12.7071L12.9142 12L13.6213 12.7071ZM16.5 15H7V17H16.5V15ZM19.2071 14.7071C19.131 14.7832 18.995 14.8774 18.5613 14.9357C18.0988 14.9979 17.4711 15 16.5 15V17C17.4145 17 18.201 17.0021 18.8278 16.9179C19.4833 16.8297 20.1117 16.631 20.6213 16.1213L19.2071 14.7071ZM19.5 12C19.5 12.9711 19.4979 13.5988 19.4357 14.0613C19.3774 14.495 19.2832 14.631 19.2071 14.7071L20.6213 16.1213C21.131 15.6117 21.3297 14.9833 21.4179 14.3278C21.5021 13.701 21.5 12.9145 21.5 12H19.5ZM19.5 7V12H21.5V7H19.5ZM19.2071 4.29289C19.2832 4.36902 19.3774 4.50496 19.4357 4.9387C19.4979 5.40121 19.5 6.02892 19.5 7H21.5C21.5 6.08546 21.5021 5.29896 21.4179 4.67221C21.3297 4.01669 21.131 3.38834 20.6213 2.87868L19.2071 4.29289ZM16.5 4C17.4711 4 18.0988 4.00212 18.5613 4.06431C18.995 4.12262 19.131 4.21677 19.2071 4.29289L20.6213 2.87868C20.1117 2.36902 19.4833 2.17027 18.8278 2.08214C18.201 1.99788 17.4145 2 16.5 2V4ZM8.5 4H16.5V2H8.5V4ZM5.79289 4.29289C5.86902 4.21677 6.00496 4.12262 6.4387 4.06431C6.90121 4.00212 7.52892 4 8.5 4V2C7.58546 2 6.79896 1.99788 6.17221 2.08214C5.51669 2.17027 4.88834 2.36902 4.37868 2.87868L5.79289 4.29289ZM5.5 7C5.5 6.02892 5.50212 5.40121 5.56431 4.9387C5.62262 4.50496 5.71677 4.36902 5.79289 4.29289L4.37868 2.87868C3.86902 3.38834 3.67027 4.01669 3.58214 4.67221C3.49788 5.29896 3.5 6.08546 3.5 7H5.5ZM5.5 18.5V7H3.5V18.5H5.5ZM7 15C5.067 15 3.5 16.567 3.5 18.5H5.5C5.5 17.6716 6.17157 17 7 17V15ZM16.2071 7.29289C16.5976 7.68342 16.5976 8.31658 16.2071 8.70711L17.6213 10.1213C18.7929 8.94975 18.7929 7.05025 17.6213 5.87868L16.2071 7.29289ZM14.7929 7.29289C15.1834 6.90237 15.8166 6.90237 16.2071 7.29289L17.6213 5.87868C16.4497 4.70711 14.5503 4.70711 13.3787 5.87868L14.7929 7.29289ZM12.2071 9.87868L14.7929 7.29289L13.3787 5.87868L10.7929 8.46447L12.2071 9.87868ZM10.2071 9.29289L10.7929 9.87868L12.2071 8.46447L11.6213 7.87868L10.2071 9.29289ZM8.79289 9.29289C9.18342 8.90237 9.81658 8.90237 10.2071 9.29289L11.6213 7.87868C10.4497 6.70711 8.55025 6.70711 7.37868 7.87868L8.79289 9.29289ZM8.79289 10.7071C8.40237 10.3166 8.40237 9.68342 8.79289 9.29289L7.37868 7.87868C6.20711 9.05025 6.20711 10.9497 7.37868 12.1213L8.79289 10.7071ZM10.0858 12L8.79289 10.7071L7.37868 12.1213L8.67157 13.4142L10.0858 12ZM12.9142 12C12.1332 12.781 10.8668 12.781 10.0858 12L8.67157 13.4142C10.2337 14.9763 12.7663 14.9763 14.3284 13.4142L12.9142 12ZM16.2071 8.70711L12.9142 12L14.3284 13.4142L17.6213 10.1213L16.2071 8.70711Z" fill="#1A1A8D"/>
<path d="M20.5 21H10.5" stroke="#1A1A8D" stroke-width="2" stroke-linecap="round"/>
</svg>
