<svg width="25" height="24" viewBox="0 0 25 24" fill="none" xmlns="http://www.w3.org/2000/svg">
<path d="M4.5 9.65685C4.5 8.83935 4.5 8.4306 4.65224 8.06306C4.80448 7.69552 5.09351 7.40649 5.67157 6.82843L6.32843 6.17157C6.90649 5.59351 7.19552 5.30448 7.56306 5.15224C7.9306 5 8.33935 5 9.15685 5H15.8431C16.6606 5 17.0694 5 17.4369 5.15224C17.8045 5.30448 18.0935 5.59351 18.6716 6.17157L19.3284 6.82843C19.9065 7.40649 20.1955 7.69552 20.3478 8.06306C20.5 8.4306 20.5 8.83935 20.5 9.65685V16C20.5 17.8856 20.5 18.8284 19.9142 19.4142C19.3284 20 18.3856 20 16.5 20H8.5C6.61438 20 5.67157 20 5.08579 19.4142C4.5 18.8284 4.5 17.8856 4.5 16V9.65685Z" stroke="#1A1A8D" stroke-width="2"/>
<path d="M4.5 10H20.5" stroke="#1A1A8D" stroke-width="2" stroke-linecap="round"/>
<path d="M15.3327 9L9.66602 9C9.43031 9 9.31246 9 9.23924 9.07322C9.16602 9.14645 9.16602 9.2643 9.16602 9.5L9.16602 13.6667C9.16602 14.4315 9.16602 14.8139 9.26492 15.0194C9.48572 15.4782 10.016 15.6979 10.4966 15.5296C10.7118 15.4542 10.9822 15.1838 11.523 14.643C11.7735 14.3925 11.8988 14.2673 12.0319 14.1969C12.3244 14.0422 12.6743 14.0422 12.9668 14.1969C13.0999 14.2673 13.2252 14.3925 13.4757 14.643C14.0165 15.1838 14.2869 15.4542 14.5021 15.5296C14.9827 15.6979 15.513 15.4782 15.7338 15.0194C15.8327 14.8139 15.8327 14.4315 15.8327 13.6667V9.5C15.8327 9.2643 15.8327 9.14645 15.7595 9.07322C15.6862 9 15.5684 9 15.3327 9Z" fill="#1A1A8D"/>
</svg>
