<svg width="25" height="24" viewBox="0 0 25 24" fill="none" xmlns="http://www.w3.org/2000/svg">
<path fill-rule="evenodd" clip-rule="evenodd" d="M4.5 9.65685C4.5 8.83935 4.5 8.4306 4.65224 8.06306C4.80448 7.69552 5.09351 7.40649 5.67157 6.82843L6.32843 6.17157C6.90649 5.59351 7.19552 5.30448 7.56306 5.15224C7.9306 5 8.33935 5 9.15685 5H15.8431C16.6606 5 17.0694 5 17.4369 5.15224C17.8045 5.30448 18.0935 5.59351 18.6716 6.17157L19.3284 6.82843C19.9065 7.40649 20.1955 7.69552 20.3478 8.06306C20.5 8.4306 20.5 8.83935 20.5 9.65685V10H4.5V9.65685ZM15.8332 12H20.5V16C20.5 17.8856 20.5 18.8284 19.9142 19.4142C19.3284 20 18.3856 20 16.5 20H8.5C6.61438 20 5.67157 20 5.08579 19.4142C4.5 18.8284 4.5 17.8856 4.5 16V12H9.1665V15.6667C9.1665 16.4315 9.1665 16.8139 9.26541 17.0194C9.48621 17.4782 10.0165 17.6979 10.4971 17.5296C10.7123 17.4542 10.9827 17.1838 11.5235 16.643L11.5235 16.643C11.774 16.3925 11.8992 16.2673 12.0324 16.1969C12.3248 16.0422 12.6748 16.0422 12.9673 16.1969C13.1004 16.2673 13.2257 16.3925 13.4761 16.643C14.017 17.1838 14.2874 17.4542 14.5026 17.5296C14.9832 17.6979 15.5135 17.4782 15.7343 17.0194C15.8332 16.8139 15.8332 16.4315 15.8332 15.6667V12Z" fill="#1A1A8D"/>
</svg>
