<svg width="25" height="24" viewBox="0 0 25 24" fill="none" xmlns="http://www.w3.org/2000/svg">
<path d="M4.5 9.3C4.5 9.15858 4.5 9.08787 4.54393 9.04393C4.58787 9 4.65858 9 4.8 9H20.2C20.3414 9 20.4121 9 20.4561 9.04393C20.5 9.08787 20.5 9.15858 20.5 9.3V16C20.5 17.8856 20.5 18.8284 19.9142 19.4142C19.3284 20 18.3856 20 16.5 20H8.5C6.61438 20 5.67157 20 5.08579 19.4142C4.5 18.8284 4.5 17.8856 4.5 16V9.3Z" fill="#FFD400" fill-opacity="0.5"/>
<path d="M5.22426 8C4.91602 8 4.76191 8 4.72355 7.9074C4.68519 7.81481 4.79417 7.70583 5.01213 7.48787L6.32843 6.17157C6.90649 5.59351 7.19552 5.30448 7.56306 5.15224C7.9306 5 8.33935 5 9.15685 5H15.8431C16.6606 5 17.0694 5 17.4369 5.15224C17.8045 5.30448 18.0935 5.59351 18.6716 6.17157L19.9879 7.48787C20.2058 7.70583 20.3148 7.81481 20.2765 7.9074C20.2381 8 20.084 8 19.7757 8H5.22426Z" fill="#FFD400" fill-opacity="0.5"/>
<path d="M9.5 9.15C9.5 9.06716 9.56716 9 9.65 9H15.35C15.4328 9 15.5 9.06716 15.5 9.15V14.0657C15.5 14.4651 15.0549 14.7033 14.7227 14.4818L13.0547 13.3698C12.7188 13.1459 12.2812 13.1459 11.9453 13.3698L10.2773 14.4818C9.94507 14.7033 9.5 14.4651 9.5 14.0657V9.15Z" fill="#1A1A8D"/>
</svg>
