<svg width="25" height="24" viewBox="0 0 25 24" fill="none" xmlns="http://www.w3.org/2000/svg">
<path d="M4.5 7.65686C4.5 6.83935 4.5 6.4306 4.65224 6.06306C4.80448 5.69552 5.09351 5.40649 5.67157 4.82843L6.32843 4.17157C6.90649 3.59351 7.19552 3.30448 7.56306 3.15224C7.9306 3 8.33935 3 9.15685 3H15.8431C16.6606 3 17.0694 3 17.4369 3.15224C17.8045 3.30448 18.0935 3.59351 18.6716 4.17157L19.3284 4.82843C19.9065 5.40649 20.1955 5.69552 20.3478 6.06306C20.5 6.4306 20.5 6.83935 20.5 7.65685V17C20.5 18.8856 20.5 19.8284 19.9142 20.4142C19.3284 21 18.3856 21 16.5 21H8.5C6.61438 21 5.67157 21 5.08579 20.4142C4.5 19.8284 4.5 18.8856 4.5 17V7.65686Z" stroke="#1A1A8D" stroke-width="1.2"/>
<path d="M4.5 7H20.5" stroke="#1A1A8D" stroke-width="1.2" stroke-linecap="round"/>
<path d="M9.5 11C9.5 11.7956 9.81607 12.5587 10.3787 13.1213C10.9413 13.6839 11.7044 14 12.5 14C13.2956 14 14.0587 13.6839 14.6213 13.1213C15.1839 12.5587 15.5 11.7957 15.5 11" stroke="#FFD400" stroke-opacity="0.5" stroke-width="1.2" stroke-linecap="round"/>
</svg>
