<svg width="25" height="24" viewBox="0 0 25 24" fill="none" xmlns="http://www.w3.org/2000/svg">
<path d="M6.5 11.6569C6.5 10.8394 6.5 10.4306 6.65224 10.0631C6.80448 9.69552 7.09351 9.40649 7.67157 8.82843L8.32843 8.17157C8.90649 7.59351 9.19552 7.30448 9.56306 7.15224C9.9306 7 10.3394 7 11.1569 7H13.8431C14.6606 7 15.0694 7 15.4369 7.15224C15.8045 7.30448 16.0935 7.59351 16.6716 8.17157L17.3284 8.82843C17.9065 9.40649 18.1955 9.69552 18.3478 10.0631C18.5 10.4306 18.5 10.8394 18.5 11.6569V16C18.5 17.8856 18.5 18.8284 17.9142 19.4142C17.3284 20 16.3856 20 14.5 20H10.5C8.61438 20 7.67157 20 7.08579 19.4142C6.5 18.8284 6.5 17.8856 6.5 16V11.6569Z" stroke="#1A1A8D" stroke-width="2"/>
<path d="M9.5 7L6.63868 5.09245C6.5547 5.03647 6.4453 5.03647 6.36132 5.09245L3.75373 6.83084C3.62247 6.91835 3.60408 7.10408 3.71563 7.21563L6.29289 9.79289C6.4255 9.9255 6.5 10.1054 6.5 10.2929V10.2929C6.5 10.6834 6.81658 11 7.20711 11H17.7929C18.1834 11 18.5 10.6834 18.5 10.2929V10.2929C18.5 10.1054 18.5745 9.9255 18.7071 9.79289L21.2844 7.21563C21.3959 7.10408 21.3775 6.91835 21.2463 6.83084L18.6387 5.09245C18.5547 5.03647 18.4453 5.03647 18.3613 5.09245L15.5 7" stroke="#1A1A8D" stroke-width="2" stroke-linecap="round"/>
</svg>
