<svg width="25" height="24" viewBox="0 0 25 24" fill="none" xmlns="http://www.w3.org/2000/svg">
<path d="M5.5 11H19.5V15C19.5 16.8856 19.5 17.8284 18.9142 18.4142C18.3284 19 17.3856 19 15.5 19H9.5C7.61438 19 6.67157 19 6.08579 18.4142C5.5 17.8284 5.5 16.8856 5.5 15V11Z" fill="#1A1A8D"/>
<path d="M3.3153 7.8153L5.5 10L9.5 6L7.08869 4.39246C6.73591 4.15728 6.27317 4.17012 5.93399 4.42451L3.42241 6.30819C2.93557 6.67332 2.88499 7.38499 3.3153 7.8153Z" fill="#1A1A8D"/>
<path d="M21.6847 7.8153L19.5 10L15.5 6L17.9113 4.39246C18.2641 4.15728 18.7268 4.17012 19.066 4.42451L21.5776 6.30819C22.0644 6.67332 22.115 7.38499 21.6847 7.8153Z" fill="#1A1A8D"/>
<path d="M18.5 10V11H6.5V10L9.5 7H15.5L18.5 10Z" stroke="#1A1A8D" stroke-width="2" stroke-linecap="round"/>
</svg>
