<svg width="25" height="24" viewBox="0 0 25 24" fill="none" xmlns="http://www.w3.org/2000/svg">
<path d="M5.5 12H19.5V16C19.5 17.8856 19.5 18.8284 18.9142 19.4142C18.3284 20 17.3856 20 15.5 20H9.5C7.61438 20 6.67157 20 6.08579 19.4142C5.5 18.8284 5.5 17.8856 5.5 16V12Z" fill="#1A1A8D"/>
<path fill-rule="evenodd" clip-rule="evenodd" d="M3.31538 7.8154L5.50008 10.0001V11.0001H6.70008H18.3001H19.5001V10.0001L21.6848 7.8154C22.1151 7.38509 22.0645 6.67343 21.5777 6.3083L19.0661 4.42461C18.7269 4.17022 18.2642 4.15738 17.9114 4.39256L15.5001 6.0001H9.50008L7.08876 4.39256C6.73599 4.15738 6.27325 4.17022 5.93406 4.42461L3.42248 6.3083C2.93564 6.67343 2.88507 7.38509 3.31538 7.8154ZM9.10008 7.2001H15.9001L17.8501 9.8001H7.15008L9.10008 7.2001Z" fill="#FFD400" fill-opacity="0.5"/>
</svg>
