<svg width="25" height="24" viewBox="0 0 25 24" fill="none" xmlns="http://www.w3.org/2000/svg">
<path d="M5 8.7111C5 8.10998 5 7.80941 5.08582 7.52598C5.17163 7.24255 5.33835 6.99247 5.6718 6.4923L5.81253 6.2812C6.39382 5.40927 6.68447 4.9733 7.12665 4.73665C7.56884 4.5 8.0928 4.5 9.14074 4.5H15.8593C16.9072 4.5 17.4312 4.5 17.8733 4.73665C18.3155 4.9733 18.6062 5.40927 19.1875 6.2812L19.3282 6.4923C19.6616 6.99247 19.8284 7.24255 19.9142 7.52598C20 7.80941 20 8.10998 20 8.7111V15.5C20 17.3856 20 18.3284 19.4142 18.9142C18.8284 19.5 17.8856 19.5 16 19.5H9C7.11438 19.5 6.17157 19.5 5.58579 18.9142C5 18.3284 5 17.3856 5 15.5V8.7111Z" stroke="#1A1A8D"/>
<path d="M5 9.5H20" stroke="#1A1A8D" stroke-linecap="round"/>
<path d="M10 9.65C10 9.56716 10.0672 9.5 10.15 9.5H14.85C14.9328 9.5 15 9.56716 15 9.65V13.7052C15 14.055 14.6184 14.271 14.3185 14.0911L12.6286 13.0772C12.5495 13.0297 12.4505 13.0297 12.3714 13.0772L10.6815 14.0911C10.3816 14.271 10 14.055 10 13.7052V9.65Z" stroke="#1A1A8D"/>
</svg>
