<svg width="25" height="24" viewBox="0 0 25 24" fill="none" xmlns="http://www.w3.org/2000/svg">
<path d="M7 6.3C7 5.30589 7.80589 4.5 8.8 4.5H15.2C16.1941 4.5 17 5.30589 17 6.3V11.5H8.8C7.80589 11.5 7 10.6941 7 9.7V6.3Z" stroke="#1A1A8D"/>
<path d="M5 13.3C5 12.3059 5.80589 11.5 6.8 11.5H13V19.5H6.8C5.80589 19.5 5 18.6941 5 17.7V13.3Z" stroke="#1A1A8D"/>
<path d="M13 11.5H19.2C20.1941 11.5 21 12.3059 21 13.3V17.7C21 18.6941 20.1941 19.5 19.2 19.5H13V11.5Z" stroke="#1A1A8D"/>
<path d="M17 11.5V14.5" stroke="#1A1A8D" stroke-linecap="round"/>
<path d="M9 11.5V14.5" stroke="#1A1A8D" stroke-linecap="round"/>
<path d="M12 4.5V7.5" stroke="#1A1A8D" stroke-linecap="round"/>
</svg>
