<svg width="25" height="24" viewBox="0 0 25 24" fill="none" xmlns="http://www.w3.org/2000/svg">
<path fill-rule="evenodd" clip-rule="evenodd" d="M11.1582 5.6091L9.00025 9.00024L13.0003 12.5002L12.0003 15.0002L15.5003 12.0002L12.5003 8.50024L14.5003 6.00024L14.0507 5.4383C15.7878 4.09729 18.326 4.09801 20.0583 5.66054C22.4156 7.78672 22.373 11.4988 19.9674 13.5702L12.9857 19.5822C12.8353 19.7117 12.7601 19.7765 12.6782 19.8077C12.5636 19.8514 12.4369 19.8514 12.3222 19.8077C12.2404 19.7765 12.1652 19.7117 12.0148 19.5822L12.0148 19.5822L5.03305 13.5702C2.6275 11.4988 2.58484 7.78672 4.94213 5.66054C6.74517 4.03427 9.42115 4.09983 11.1582 5.6091Z" fill="#FFD400" fill-opacity="0.5"/>
<path fill-rule="evenodd" clip-rule="evenodd" d="M10.2358 5.99211C8.65622 4.94509 6.39684 5.17036 5.10632 6.8337L4.79697 7.23242C3.30982 9.14919 3.52454 11.8826 5.29275 13.5436L12.2454 20.0749C12.3724 20.1942 12.4416 20.2585 12.4952 20.2997C12.4968 20.301 12.4983 20.3021 12.4997 20.3032C12.5012 20.3021 12.5027 20.301 12.5043 20.2997C12.5578 20.2585 12.6271 20.1942 12.7541 20.0749L19.7067 13.5436C21.4749 11.8826 21.6896 9.14919 20.2025 7.23242L19.8931 6.8337C18.5336 5.08138 16.0988 4.92469 14.5154 6.17172L13.8967 5.38612C15.8888 3.81715 18.9624 4.00277 20.6832 6.2207L20.9926 6.61942C22.7959 8.94372 22.5355 12.2583 20.3914 14.2725L13.4388 20.8037L13.4249 20.8168C13.3172 20.918 13.2117 21.0171 13.1145 21.092C13.0063 21.1753 12.8695 21.2604 12.6923 21.2951C12.5651 21.3201 12.4343 21.3201 12.3072 21.2951C12.13 21.2604 11.9932 21.1753 11.885 21.092C11.7877 21.0171 11.6823 20.918 11.5746 20.8168L11.5607 20.8037L4.60807 14.2725C2.46392 12.2583 2.20355 8.94372 4.00688 6.61943L4.31623 6.2207C6.08579 3.93994 9.28583 3.80782 11.2703 5.52448L11.6318 5.83713L11.3358 6.21232L10.3001 7.52509C9.9628 7.9526 9.74355 8.23239 9.61159 8.45841C9.48681 8.67215 9.48675 8.76155 9.49692 8.81709C9.5071 8.87262 9.53885 8.9562 9.73131 9.11181C9.93483 9.27637 10.239 9.46025 10.706 9.74041L11.9584 10.4919L11.9875 10.5093C12.3848 10.7477 12.7261 10.9524 12.9758 11.1529C13.2428 11.3672 13.4675 11.6244 13.5494 11.9886C13.6313 12.3528 13.5383 12.6815 13.3888 12.9895C13.2489 13.2775 13.0281 13.6087 12.7711 13.9942L12.7523 14.0224L11.9158 15.2771L11.0837 14.7224L11.9203 13.4677C12.2014 13.046 12.3828 12.7718 12.4892 12.5527C12.5893 12.3467 12.5858 12.2616 12.5738 12.208C12.5617 12.1544 12.5284 12.0761 12.3498 11.9327C12.1599 11.7802 11.8785 11.6101 11.4439 11.3494L10.1915 10.5979L10.1611 10.5797C9.73301 10.3229 9.36721 10.1034 9.10256 9.88942C8.8206 9.66143 8.58459 9.38645 8.5133 8.9973C8.442 8.60816 8.56518 8.26737 8.748 7.95423C8.91959 7.66031 9.18382 7.32543 9.49303 6.93354L9.515 6.9057L10.2358 5.99211Z" fill="#1A1A8D"/>
</svg>
