<svg width="25" height="24" viewBox="0 0 25 24" fill="none" xmlns="http://www.w3.org/2000/svg">
<path fill-rule="evenodd" clip-rule="evenodd" d="M9.47841 6.14462C8.15647 5.55712 6.49577 5.85832 5.50137 7.13999L5.19202 7.53871C3.86296 9.25171 4.05486 11.6945 5.63509 13.179L12.4997 19.6276L19.3644 13.179C20.9446 11.6945 21.1365 9.25171 19.8075 7.53871L19.4981 7.13998C18.3192 5.62047 16.2038 5.47824 14.8248 6.56431L13.5874 4.99311C15.7838 3.26317 19.1768 3.46325 21.0783 5.91399L21.3876 6.31271C23.3491 8.84077 23.0659 12.4459 20.7337 14.6367L13.7811 21.1679C13.7746 21.1741 13.7679 21.1804 13.7611 21.1868C13.6596 21.2822 13.5371 21.3974 13.4196 21.4879C13.2808 21.5948 13.0723 21.7299 12.7886 21.7856C12.5978 21.823 12.4016 21.823 12.2109 21.7856C11.9271 21.7299 11.7187 21.5948 11.5799 21.4879C11.4623 21.3973 11.3399 21.2822 11.2384 21.1868C11.2316 21.1804 11.2249 21.1741 11.2184 21.1679L4.26574 14.6367C1.93362 12.4459 1.65042 8.84078 3.61184 6.31272L4.40193 6.92571L3.61184 6.31272L3.9212 5.91399C5.87642 3.39393 9.40869 3.25276 11.5975 5.14611L12.3203 5.77142L11.7283 6.5218L10.6926 7.83457C10.346 8.27389 10.1535 8.52168 10.0434 8.71029C10.042 8.71275 10.0406 8.71516 10.0392 8.71752C10.0413 8.71925 10.0435 8.72101 10.0457 8.72279C10.2155 8.86011 10.4834 9.02355 10.9632 9.31145L12.2157 10.0629C12.2317 10.0726 12.2478 10.0822 12.2638 10.0918C12.6441 10.3199 13.0118 10.5404 13.2888 10.7627C13.6 11.0126 13.9204 11.3591 14.0373 11.8787C14.1541 12.3983 14.0129 12.8486 13.8386 13.2077C13.6835 13.5271 13.4456 13.8838 13.1995 14.2528C13.1891 14.2683 13.1787 14.2839 13.1683 14.2995L12.3318 15.5543L10.6677 14.4449L11.5042 13.1901C11.7934 12.7564 11.9515 12.5153 12.0394 12.3341C12.0406 12.3318 12.0417 12.3295 12.0428 12.3272C12.0408 12.3256 12.0388 12.324 12.0368 12.3224C11.8798 12.1963 11.6337 12.0461 11.1867 11.7779L9.93423 11.0264C9.91731 11.0163 9.90042 11.0062 9.88355 10.996C9.47349 10.7501 9.08074 10.5146 8.78819 10.278C8.46148 10.0138 8.12335 9.64315 8.02149 9.0872C7.91963 8.53126 8.10437 8.06477 8.31621 7.70193C8.50589 7.37702 8.78962 7.01752 9.08586 6.64218C9.09804 6.62675 9.11024 6.61129 9.12246 6.5958L9.47841 6.14462ZM9.95409 8.63816C9.95411 8.63817 9.95453 8.63868 9.95526 8.63969C9.95443 8.63867 9.95406 8.63816 9.95409 8.63816ZM9.9883 8.82005C9.98798 8.82126 9.98777 8.82189 9.98775 8.8219L9.9883 8.82005Z" fill="#1A1A8D"/>
</svg>
