<svg width="25" height="24" viewBox="0 0 25 24" fill="none" xmlns="http://www.w3.org/2000/svg">
<path fill-rule="evenodd" clip-rule="evenodd" d="M10.5558 4.23112L8.5 8L13 12.5L12 15L15.5 12L11.5 8L12.8513 6.31322C12.9237 6.25671 12.9844 6.18008 13.025 6.08333C14.3648 2.89335 18.6316 2.30249 20.7879 5.00835L21.1761 5.49557C23.032 7.82447 22.715 11.2038 20.4584 13.147L13.0681 19.5108L13.0681 19.5108C12.8387 19.7084 12.724 19.8071 12.5914 19.8318C12.531 19.843 12.469 19.843 12.4086 19.8318C12.2759 19.8071 12.1612 19.7084 11.9319 19.5108L11.9319 19.5108L4.54157 13.147C2.285 11.2038 1.96802 7.82448 3.82386 5.49557L4.21211 5.00836C5.84547 2.95865 8.68991 2.80065 10.5558 4.23112Z" fill="#1A1A8D"/>
</svg>
