<svg width="25" height="24" viewBox="0 0 25 24" fill="none" xmlns="http://www.w3.org/2000/svg">
<path d="M7.5 14.3333C7.5 13.0872 7.5 12.4641 7.76795 12C7.94349 11.696 8.19596 11.4435 8.5 11.2679C8.9641 11 9.58718 11 10.8333 11H14.1667C15.4128 11 16.0359 11 16.5 11.2679C16.804 11.4435 17.0565 11.696 17.2321 12C17.5 12.4641 17.5 13.0872 17.5 14.3333V16C17.5 16.9293 17.5 17.394 17.4231 17.7804C17.1075 19.3671 15.8671 20.6075 14.2804 20.9231C13.894 21 13.4293 21 12.5 21C11.5707 21 11.106 21 10.7196 20.9231C9.13288 20.6075 7.89249 19.3671 7.57686 17.7804C7.5 17.394 7.5 16.9293 7.5 16V14.3333Z" fill="#1A1A8D" stroke="#1A1A8D" stroke-width="2"/>
<path d="M9.5 9C9.5 8.06812 9.5 7.60218 9.65224 7.23463C9.85523 6.74458 10.2446 6.35523 10.7346 6.15224C11.1022 6 11.5681 6 12.5 6C13.4319 6 13.8978 6 14.2654 6.15224C14.7554 6.35523 15.1448 6.74458 15.3478 7.23463C15.5 7.60218 15.5 8.06812 15.5 9V11H9.5V9Z" fill="#1A1A8D" stroke="#1A1A8D" stroke-width="2"/>
<path d="M12.5 11V15" stroke="#1A1A8D" stroke-width="2"/>
<path d="M15.5 3L13.5 6" stroke="#1A1A8D" stroke-width="2"/>
<path d="M9.5 3L11.5 6" stroke="#1A1A8D" stroke-width="2"/>
<path d="M7.5 16H2.5" stroke="#1A1A8D" stroke-width="2"/>
<path d="M22.5 16H17.5" stroke="#1A1A8D" stroke-width="2"/>
<path d="M20.5 9V10C20.5 11.6569 19.1569 13 17.5 13V13" stroke="#1A1A8D" stroke-width="2"/>
<path d="M20.5 22V22C20.5 20.3431 19.1569 19 17.5 19V19" stroke="#1A1A8D" stroke-width="2"/>
<path d="M4.5 9V10C4.5 11.6569 5.84315 13 7.5 13V13" stroke="#1A1A8D" stroke-width="2"/>
<path d="M4.5 22V22C4.5 20.3431 5.84315 19 7.5 19V19" stroke="#1A1A8D" stroke-width="2"/>
</svg>
