<svg width="25" height="24" viewBox="0 0 25 24" fill="none" xmlns="http://www.w3.org/2000/svg">
<path fill-rule="evenodd" clip-rule="evenodd" d="M7.5 4.43245C7.5 4.27684 7.5 4.19903 7.4491 4.15423C7.39819 4.10944 7.32244 4.11915 7.17094 4.13857C6.04965 4.28229 5.26806 4.57508 4.67157 5.17157C3.5 6.34315 3.5 8.22876 3.5 12C3.5 15.7712 3.5 17.6569 4.67157 18.8284C5.84315 20 7.72876 20 11.5 20H13.5C17.2712 20 19.1569 20 20.3284 18.8284C21.5 17.6569 21.5 15.7712 21.5 12C21.5 8.22876 21.5 6.34315 20.3284 5.17157C19.7319 4.57508 18.9504 4.28229 17.8291 4.13857C17.6776 4.11915 17.6018 4.10944 17.5509 4.15424C17.5 4.19903 17.5 4.27684 17.5 4.43245L17.5 6.5C17.5 7.32843 16.8284 8 16 8C15.1716 8 14.5 7.32843 14.5 6.5L14.5 4.30005C14.5 4.15898 14.5 4.08844 14.4561 4.04451C14.4123 4.00059 14.3418 4.0005 14.2009 4.00031C13.9748 4 13.7412 4 13.5 4H11.5C11.2588 4 11.0252 4 10.7991 4.00031C10.6582 4.0005 10.5877 4.00059 10.5439 4.04452C10.5 4.08844 10.5 4.15898 10.5 4.30005L10.5 6.5C10.5 7.32843 9.82843 8 9.00001 8C8.17158 8 7.5 7.32843 7.5 6.5L7.5 4.43245Z" fill="#FFD400" fill-opacity="0.5"/>
<path d="M9 2.5L9 6.5" stroke="#1A1A8D" stroke-linecap="round"/>
<path d="M16 2.5L16 6.5" stroke="#1A1A8D" stroke-linecap="round"/>
<path d="M12.5 16L12.5 10" stroke="#1A1A8D" stroke-width="1.2" stroke-linecap="square"/>
<path d="M15.5 13L9.5 13" stroke="#1A1A8D" stroke-width="1.2" stroke-linecap="square"/>
</svg>
