<svg width="25" height="24" viewBox="0 0 25 24" fill="none" xmlns="http://www.w3.org/2000/svg">
<path d="M2.5 9C2.5 7.11438 2.5 6.17157 3.08579 5.58579C3.67157 5 4.61438 5 6.5 5H18.5C20.3856 5 21.3284 5 21.9142 5.58579C22.5 6.17157 22.5 7.11438 22.5 9C22.5 9.4714 22.5 9.70711 22.3536 9.85355C22.2071 10 21.9714 10 21.5 10H3.5C3.0286 10 2.79289 10 2.64645 9.85355C2.5 9.70711 2.5 9.4714 2.5 9Z" fill="#1A1A8D"/>
<path fill-rule="evenodd" clip-rule="evenodd" d="M3.08579 21.4142C2.5 20.8284 2.5 19.8856 2.5 18V13C2.5 12.5286 2.5 12.2929 2.64645 12.1464C2.79289 12 3.0286 12 3.5 12H21.5C21.9714 12 22.2071 12 22.3536 12.1464C22.5 12.2929 22.5 12.5286 22.5 13V18C22.5 19.8856 22.5 20.8284 21.9142 21.4142C21.3284 22 20.3856 22 18.5 22H6.5C4.61438 22 3.67157 22 3.08579 21.4142ZM8.5 16C7.94772 16 7.5 16.4477 7.5 17C7.5 17.5523 7.94772 18 8.5 18H16.5C17.0523 18 17.5 17.5523 17.5 17C17.5 16.4477 17.0523 16 16.5 16H8.5Z" fill="#1A1A8D"/>
<path d="M7.5 3L7.5 6" stroke="#1A1A8D" stroke-width="2" stroke-linecap="round"/>
<path d="M17.5 3L17.5 6" stroke="#1A1A8D" stroke-width="2" stroke-linecap="round"/>
</svg>
