<svg width="25" height="24" viewBox="0 0 25 24" fill="none" xmlns="http://www.w3.org/2000/svg">
<path d="M15 10.0003C15 9.20875 16.0528 8.99895 16.3321 9.73957C17.0077 11.5311 17.5 13.1337 17.5 14.0002C17.5 16.7616 15.2614 19.0002 12.5 19.0002C9.73858 19.0002 7.5 16.7616 7.5 14.0002C7.5 13.0693 8.06822 11.2887 8.82156 9.33698C9.79743 6.80879 10.2854 5.54469 10.8877 5.4766C11.0804 5.45482 11.2907 5.49399 11.4626 5.58371C12 5.86413 12 7.24285 12 10.0003C12 10.8287 12.6716 11.5003 13.5 11.5003C14.3284 11.5003 15 10.8287 15 10.0003Z" stroke="#1A1A8D"/>
<path d="M11.5 19L11.2372 18.343C10.7816 17.204 10.9737 15.9079 11.74 14.95V14.95C12.1296 14.463 12.8704 14.463 13.26 14.95V14.95C14.0263 15.9079 14.2184 17.204 13.7628 18.343L13.5 19" stroke="#1A1A8D"/>
</svg>
