<svg width="25" height="24" viewBox="0 0 25 24" fill="none" xmlns="http://www.w3.org/2000/svg">
<path fill-rule="evenodd" clip-rule="evenodd" d="M5.3541 8C4.33011 8 3.5 8.83011 3.5 9.8541V14.8571C3.5 16.8619 3.5 17.8643 3.95983 18.5961C4.19961 18.9777 4.52229 19.3004 4.9039 19.5402C5.63571 20 6.6381 20 8.64286 20H16.3571C18.3619 20 19.3643 20 20.0961 19.5402C20.4777 19.3004 20.8004 18.9777 21.0402 18.5961C21.5 17.8643 21.5 16.8619 21.5 14.8571V9.8541C21.5 8.83011 20.6699 8 19.6459 8C18.9436 8 18.3016 7.60322 17.9875 6.97508L17.1667 5.33333L17.1666 5.33329C17.0567 5.1134 17.0017 5.00345 16.9394 4.90782C16.6141 4.40882 16.0833 4.08078 15.4915 4.01299C15.3781 4 15.2552 4 15.0093 4H9.99071C9.74484 4 9.6219 4 9.50848 4.01299C8.91668 4.08078 8.3859 4.40882 8.06062 4.90782C7.99827 5.00346 7.94329 5.11342 7.83333 5.33333L7.01246 6.97508C6.69839 7.60322 6.05638 8 5.3541 8ZM14.5 13C14.5 14.1046 13.6046 15 12.5 15C11.3954 15 10.5 14.1046 10.5 13C10.5 11.8954 11.3954 11 12.5 11C13.6046 11 14.5 11.8954 14.5 13ZM16.5 13C16.5 15.2091 14.7091 17 12.5 17C10.2909 17 8.5 15.2091 8.5 13C8.5 10.7909 10.2909 9 12.5 9C14.7091 9 16.5 10.7909 16.5 13Z" fill="#1A1A8D"/>
</svg>
