<svg width="25" height="24" viewBox="0 0 25 24" fill="none" xmlns="http://www.w3.org/2000/svg">
<path fill-rule="evenodd" clip-rule="evenodd" d="M5.3541 8C4.33011 8 3.5 8.83011 3.5 9.8541V14.8571C3.5 16.8619 3.5 17.8643 3.95983 18.5961C4.19961 18.9777 4.52229 19.3004 4.9039 19.5402C5.63571 20 6.6381 20 8.64286 20H16.3571C18.3619 20 19.3643 20 20.0961 19.5402C20.4777 19.3004 20.8004 18.9777 21.0402 18.5961C21.5 17.8643 21.5 16.8619 21.5 14.8571V9.8541C21.5 8.83011 20.6699 8 19.6459 8C18.9436 8 18.3016 7.60322 17.9875 6.97508L17.1667 5.33333L17.1666 5.33329C17.0567 5.1134 17.0017 5.00345 16.9394 4.90782C16.6141 4.40882 16.0833 4.08078 15.4915 4.01299C15.3781 4 15.2552 4 15.0093 4H9.99071C9.74484 4 9.6219 4 9.50848 4.01299C8.91668 4.08078 8.3859 4.40882 8.06062 4.90782C7.99827 5.00346 7.94329 5.11342 7.83333 5.33333L7.01246 6.97508C6.69839 7.60322 6.05638 8 5.3541 8ZM12.5 17C14.7091 17 16.5 15.2091 16.5 13C16.5 10.7909 14.7091 9 12.5 9C10.2909 9 8.5 10.7909 8.5 13C8.5 15.2091 10.2909 17 12.5 17Z" fill="#FFD400" fill-opacity="0.5"/>
<path d="M3.5 9.8541C3.5 8.83011 4.33011 8 5.3541 8V8C6.05638 8 6.69839 7.60322 7.01246 6.97508L7.83333 5.33333C7.94329 5.11342 7.99827 5.00346 8.06062 4.90782C8.3859 4.40882 8.91668 4.08078 9.50848 4.01299C9.6219 4 9.74484 4 9.99071 4H15.0093C15.2552 4 15.3781 4 15.4915 4.01299C16.0833 4.08078 16.6141 4.40882 16.9394 4.90782C17.0017 5.00346 17.0567 5.11342 17.1667 5.33333L17.9875 6.97508C18.3016 7.60322 18.9436 8 19.6459 8V8C20.6699 8 21.5 8.83011 21.5 9.8541V14.8571C21.5 16.8619 21.5 17.8643 21.0402 18.5961C20.8004 18.9777 20.4777 19.3004 20.0961 19.5402C19.3643 20 18.3619 20 16.3571 20H8.64286C6.6381 20 5.63571 20 4.9039 19.5402C4.52229 19.3004 4.19961 18.9777 3.95983 18.5961C3.5 17.8643 3.5 16.8619 3.5 14.8571V9.8541Z" stroke="#1A1A8D" stroke-width="1.2"/>
<circle cx="12.5" cy="13" r="3.4" stroke="#1A1A8D" stroke-width="1.2"/>
</svg>
