<svg width="25" height="24" viewBox="0 0 25 24" fill="none" xmlns="http://www.w3.org/2000/svg">
<path d="M4.5 12C4.5 10.1144 4.5 9.17157 5.08579 8.58579C5.67157 8 6.61438 8 8.5 8H9.28377C9.38813 8 9.44031 8 9.47959 7.97169C9.51888 7.94337 9.53538 7.89387 9.56838 7.79487L10.0442 6.36754C10.2642 5.70753 10.3742 5.37752 10.636 5.18876C10.8979 5 11.2458 5 11.9415 5H15.0585C15.7542 5 16.1021 5 16.364 5.18876C16.6258 5.37752 16.7358 5.70753 16.9558 6.36754L17.4513 7.85404C17.4652 7.89558 17.4721 7.91634 17.4831 7.93295C17.5033 7.9633 17.5338 7.98528 17.5689 7.99479C17.5882 8 17.6101 8 17.6539 8C18.4415 8 18.8354 8 19.1524 8.1094C19.7335 8.30992 20.1901 8.76651 20.3906 9.3476C20.5 9.66463 20.5 10.0585 20.5 10.8461V14C20.5 15.8856 20.5 16.8284 19.9142 17.4142C19.3284 18 18.3856 18 16.5 18H8.5C6.61438 18 5.67157 18 5.08579 17.4142C4.5 16.8284 4.5 15.8856 4.5 14V12Z" fill="#FFD400" fill-opacity="0.5"/>
<path d="M15 6.5H12" stroke="#1A1A8D" stroke-linecap="round" stroke-linejoin="round"/>
<circle cx="13.5" cy="13" r="3" fill="#1A1A8D"/>
<rect x="4.5" y="6" width="3" height="1" rx="0.5" fill="#FFD400" fill-opacity="0.5"/>
</svg>
