<svg width="25" height="24" viewBox="0 0 25 24" fill="none" xmlns="http://www.w3.org/2000/svg">
<path fill-rule="evenodd" clip-rule="evenodd" d="M21.5 12C21.5 16.9706 17.4706 21 12.5 21C7.52944 21 3.5 16.9706 3.5 12C3.5 7.02944 7.52944 3 12.5 3C17.4706 3 21.5 7.02944 21.5 12ZM16.6716 14.7574C17.1951 13.967 17.5 13.0191 17.5 12C17.5 9.23858 15.2614 7 12.5 7C11.4809 7 10.533 7.30488 9.74261 7.8284L16.6716 14.7574ZM8.3284 9.24261L15.2574 16.1716C14.467 16.6951 13.5191 17 12.5 17C9.73858 17 7.5 14.7614 7.5 12C7.5 10.9809 7.80488 10.033 8.3284 9.24261ZM12.5 5C8.63401 5 5.5 8.13401 5.5 12C5.5 15.866 8.63401 19 12.5 19C16.366 19 19.5 15.866 19.5 12C19.5 8.13401 16.366 5 12.5 5Z" fill="#1A1A8D"/>
</svg>
