<svg width="25" height="24" viewBox="0 0 25 24" fill="none" xmlns="http://www.w3.org/2000/svg">
<path d="M20.5 12C20.5 8.22876 20.5 6.34315 19.3284 5.17157C18.1569 4 16.2712 4 12.5 4C8.72876 4 6.84315 4 5.67157 5.17157C4.5 6.34315 4.5 8.22876 4.5 12V18C4.5 18.9428 4.5 19.4142 4.79289 19.7071C5.08579 20 5.55719 20 6.5 20H12.5C16.2712 20 18.1569 20 19.3284 18.8284C20.5 17.6569 20.5 15.7712 20.5 12Z" fill="#FFD400" fill-opacity="0.5" stroke="#1A1A8D" stroke-width="1.2"/>
<path d="M9.5 12L15.5 12" stroke="#1A1A8D" stroke-width="1.2" stroke-linecap="round" stroke-linejoin="round"/>
<path d="M12.5 9L12.5 15" stroke="#1A1A8D" stroke-width="1.2" stroke-linecap="round" stroke-linejoin="round"/>
</svg>
