<svg width="25" height="24" viewBox="0 0 25 24" fill="none" xmlns="http://www.w3.org/2000/svg">
<path fill-rule="evenodd" clip-rule="evenodd" d="M19.8259 5.77772C20.5 6.78661 20.5 8.19108 20.5 11C20.5 13.8089 20.5 15.2134 19.8259 16.2223C19.534 16.659 19.159 17.034 18.7223 17.3259C17.8409 17.9148 16.6577 17.9892 14.5 17.9986V18L13.3944 20.2111C13.0259 20.9482 11.9741 20.9482 11.6056 20.2111L10.5 18V17.9986C8.3423 17.9892 7.15907 17.9148 6.27772 17.3259C5.84096 17.034 5.46596 16.659 5.17412 16.2223C4.5 15.2134 4.5 13.8089 4.5 11C4.5 8.19108 4.5 6.78661 5.17412 5.77772C5.46596 5.34096 5.84096 4.96596 6.27772 4.67412C7.28661 4 8.69108 4 11.5 4H13.5C16.3089 4 17.7134 4 18.7223 4.67412C19.159 4.96596 19.534 5.34096 19.8259 5.77772Z" fill="#FFD400" fill-opacity="0.5"/>
<path d="M19.8259 5.77772L19.327 6.11106L19.327 6.11106L19.8259 5.77772ZM19.8259 16.2223L19.327 15.8889L19.327 15.8889L19.8259 16.2223ZM18.7223 17.3259L18.3889 16.827L18.3889 16.827L18.7223 17.3259ZM14.5 17.9986L14.4974 17.3986C14.167 17.4001 13.9 17.6683 13.9 17.9986H14.5ZM14.5 18L15.0367 18.2683C15.0783 18.185 15.1 18.0931 15.1 18H14.5ZM10.5 18H9.9C9.9 18.0931 9.92169 18.185 9.96334 18.2683L10.5 18ZM10.5 17.9986H11.1C11.1 17.6683 10.833 17.4001 10.5026 17.3986L10.5 17.9986ZM6.27772 17.3259L6.61106 16.827L6.61106 16.827L6.27772 17.3259ZM5.17412 16.2223L5.673 15.8889L5.673 15.8889L5.17412 16.2223ZM5.17412 5.77772L5.673 6.11106L5.17412 5.77772ZM6.27772 4.67412L6.61106 5.173L6.27772 4.67412ZM18.7223 4.67412L18.3889 5.173L18.3889 5.173L18.7223 4.67412ZM21.1 11C21.1 9.60803 21.1007 8.51888 21.0127 7.65313C20.9236 6.77734 20.7387 6.06384 20.3248 5.44438L19.327 6.11106C19.5872 6.50049 19.7394 6.99367 19.8188 7.77457C19.8993 8.5655 19.9 9.58305 19.9 11H21.1ZM20.3248 16.5556C20.7387 15.9362 20.9236 15.2227 21.0127 14.3469C21.1007 13.4811 21.1 12.392 21.1 11H19.9C19.9 12.417 19.8993 13.4345 19.8188 14.2254C19.7394 15.0063 19.5872 15.4995 19.327 15.8889L20.3248 16.5556ZM19.0556 17.8248C19.5579 17.4892 19.9892 17.0579 20.3248 16.5556L19.327 15.8889C19.0789 16.2602 18.7602 16.5789 18.3889 16.827L19.0556 17.8248ZM14.5026 18.5986C15.5786 18.5939 16.4514 18.5735 17.1719 18.4739C17.9021 18.373 18.5146 18.1863 19.0556 17.8248L18.3889 16.827C18.0487 17.0544 17.6288 17.1993 17.0076 17.2852C16.3767 17.3724 15.5791 17.3939 14.4974 17.3986L14.5026 18.5986ZM15.1 18V17.9986H13.9V18H15.1ZM13.9311 20.4795L15.0367 18.2683L13.9633 17.7317L12.8578 19.9428L13.9311 20.4795ZM11.0689 20.4795C11.6586 21.6588 13.3414 21.6588 13.9311 20.4795L12.8578 19.9428C12.7104 20.2376 12.2896 20.2376 12.1422 19.9428L11.0689 20.4795ZM9.96334 18.2683L11.0689 20.4795L12.1422 19.9428L11.0367 17.7317L9.96334 18.2683ZM9.9 17.9986V18H11.1V17.9986H9.9ZM5.94438 17.8248C6.48544 18.1863 7.09793 18.373 7.82807 18.4739C8.54857 18.5735 9.42139 18.5939 10.4974 18.5986L10.5026 17.3986C9.42091 17.3939 8.62326 17.3724 7.99239 17.2852C7.37115 17.1993 6.95135 17.0544 6.61106 16.827L5.94438 17.8248ZM4.67524 16.5556C5.01085 17.0579 5.4421 17.4892 5.94438 17.8248L6.61106 16.827C6.23981 16.5789 5.92106 16.2602 5.673 15.8889L4.67524 16.5556ZM3.9 11C3.9 12.392 3.89927 13.4811 3.98735 14.3469C4.07644 15.2227 4.26133 15.9362 4.67524 16.5556L5.673 15.8889C5.4128 15.4995 5.26062 15.0063 5.18118 14.2254C5.10073 13.4345 5.1 12.417 5.1 11H3.9ZM4.67524 5.44438C4.26133 6.06384 4.07644 6.77734 3.98735 7.65313C3.89927 8.51888 3.9 9.60803 3.9 11H5.1C5.1 9.58305 5.10073 8.5655 5.18118 7.77457C5.26062 6.99367 5.4128 6.50049 5.673 6.11106L4.67524 5.44438ZM5.94438 4.17524C5.4421 4.51085 5.01085 4.9421 4.67524 5.44438L5.673 6.11106C5.92106 5.73981 6.23981 5.42106 6.61106 5.173L5.94438 4.17524ZM11.5 3.4C10.108 3.4 9.01888 3.39927 8.15313 3.48735C7.27734 3.57644 6.56384 3.76133 5.94438 4.17524L6.61106 5.173C7.00049 4.9128 7.49367 4.76062 8.27457 4.68118C9.0655 4.60073 10.0831 4.6 11.5 4.6V3.4ZM13.5 3.4H11.5V4.6H13.5V3.4ZM19.0556 4.17524C18.4362 3.76133 17.7227 3.57644 16.8469 3.48735C15.9811 3.39927 14.892 3.4 13.5 3.4V4.6C14.917 4.6 15.9345 4.60073 16.7254 4.68118C17.5063 4.76062 17.9995 4.9128 18.3889 5.173L19.0556 4.17524ZM20.3248 5.44438C19.9892 4.9421 19.5579 4.51085 19.0556 4.17524L18.3889 5.173C18.7602 5.42106 19.0789 5.73981 19.327 6.11106L20.3248 5.44438Z" fill="#1A1A8D"/>
<circle cx="16.5" cy="11" r="1" fill="#1A1A8D" stroke="#1A1A8D" stroke-width="0.2" stroke-linecap="round"/>
<circle cx="12.5" cy="11" r="1" fill="#1A1A8D" stroke="#1A1A8D" stroke-width="0.2" stroke-linecap="round"/>
<circle cx="8.5" cy="11" r="1" fill="#1A1A8D" stroke="#1A1A8D" stroke-width="0.2" stroke-linecap="round"/>
</svg>
