<svg width="25" height="24" viewBox="0 0 25 24" fill="none" xmlns="http://www.w3.org/2000/svg">
<path fill-rule="evenodd" clip-rule="evenodd" d="M20.5 11C20.5 8.19108 20.5 6.78661 19.8259 5.77772C19.534 5.34096 19.159 4.96596 18.7223 4.67412C17.7134 4 16.3089 4 13.5 4H11.5C8.69108 4 7.28661 4 6.27772 4.67412C5.84096 4.96596 5.46596 5.34096 5.17412 5.77772C4.5 6.78661 4.5 8.19108 4.5 11C4.5 13.8089 4.5 15.2134 5.17412 16.2223C5.46596 16.659 5.84096 17.034 6.27772 17.3259C7.15907 17.9148 8.3423 17.9892 10.5 17.9986V18L11.6056 20.2111C11.9741 20.9482 13.0259 20.9482 13.3944 20.2111L14.5 18V17.9986C16.6577 17.9892 17.8409 17.9148 18.7223 17.3259C19.159 17.034 19.534 16.659 19.8259 16.2223C20.5 15.2134 20.5 13.8089 20.5 11ZM8.5 12C9.05228 12 9.5 11.5523 9.5 11C9.5 10.4477 9.05228 10 8.5 10C7.94772 10 7.5 10.4477 7.5 11C7.5 11.5523 7.94772 12 8.5 12ZM13.5 11C13.5 11.5523 13.0523 12 12.5 12C11.9477 12 11.5 11.5523 11.5 11C11.5 10.4477 11.9477 10 12.5 10C13.0523 10 13.5 10.4477 13.5 11ZM17.5 11C17.5 11.5523 17.0523 12 16.5 12C15.9477 12 15.5 11.5523 15.5 11C15.5 10.4477 15.9477 10 16.5 10C17.0523 10 17.5 10.4477 17.5 11Z" fill="#1A1A8D"/>
</svg>
