<svg width="25" height="24" viewBox="0 0 25 24" fill="none" xmlns="http://www.w3.org/2000/svg">
<path fill-rule="evenodd" clip-rule="evenodd" d="M21.0433 6.7039C21.5 7.80653 21.5 9.20435 21.5 12C21.5 14.7956 21.5 16.1935 21.0433 17.2961C20.4343 18.7663 19.2663 19.9343 17.7961 20.5433C16.6935 21 15.2956 21 12.5 21H9.5C6.67157 21 5.25736 21 4.37868 20.1213C3.5 19.2426 3.5 17.8284 3.5 15V12C3.5 9.20435 3.5 7.80653 3.95672 6.7039C4.56569 5.23373 5.73373 4.06569 7.2039 3.45672C8.30653 3 9.70435 3 12.5 3C15.2956 3 16.6935 3 17.7961 3.45672C19.2663 4.06569 20.4343 5.23373 21.0433 6.7039ZM8.5 9.99966C8.5 9.44738 8.94772 8.99966 9.5 8.99966H15.5C16.0523 8.99966 16.5 9.44738 16.5 9.99966C16.5 10.5519 16.0523 10.9997 15.5 10.9997H9.5C8.94772 10.9997 8.5 10.5519 8.5 9.99966ZM8.5 13.9997C8.5 13.4474 8.94772 12.9997 9.5 12.9997H12.5C13.0523 12.9997 13.5 13.4474 13.5 13.9997C13.5 14.5519 13.0523 14.9997 12.5 14.9997H9.5C8.94772 14.9997 8.5 14.5519 8.5 13.9997Z" fill="#1A1A8D"/>
</svg>
