<svg width="25" height="24" viewBox="0 0 25 24" fill="none" xmlns="http://www.w3.org/2000/svg">
<path fill-rule="evenodd" clip-rule="evenodd" d="M14.2586 3.00598C13.7404 3 13.1591 3 12.5 3C9.70435 3 8.30653 3 7.2039 3.45672C5.73373 4.06569 4.56569 5.23373 3.95672 6.7039C3.5 7.80653 3.5 9.20435 3.5 12V15C3.5 17.8284 3.5 19.2426 4.37868 20.1213C5.25736 21 6.67157 21 9.5 21H12.5C15.2956 21 16.6935 21 17.7961 20.5433C19.2663 19.9343 20.4343 18.7663 21.0433 17.2961C21.5 16.1935 21.5 14.7956 21.5 12C21.5 11.3409 21.5 10.7596 21.494 10.2414C20.964 10.7133 20.2655 11 19.5 11C17.8431 11 16.5 9.65685 16.5 8C14.8431 8 13.5 6.65685 13.5 5C13.5 4.23453 13.7867 3.53602 14.2586 3.00598ZM9.5 8.99966C8.94772 8.99966 8.5 9.44738 8.5 9.99966C8.5 10.5519 8.94772 10.9997 9.5 10.9997H15.5C16.0523 10.9997 16.5 10.5519 16.5 9.99966C16.5 9.44738 16.0523 8.99966 15.5 8.99966H9.5ZM9.5 12.9997C8.94772 12.9997 8.5 13.4474 8.5 13.9997C8.5 14.5519 8.94772 14.9997 9.5 14.9997H12.5C13.0523 14.9997 13.5 14.5519 13.5 13.9997C13.5 13.4474 13.0523 12.9997 12.5 12.9997H9.5Z" fill="#1A1A8D"/>
<path d="M19.5 8L19.5 2M16.5 5H22.5" stroke="#1A1A8D" stroke-width="2" stroke-linecap="round" stroke-linejoin="round"/>
</svg>
