<svg width="25" height="24" viewBox="0 0 25 24" fill="none" xmlns="http://www.w3.org/2000/svg">
<path d="M20.5 12C20.5 9.19974 20.5 7.79961 19.955 6.73005C19.4757 5.78924 18.7108 5.02433 17.77 4.54497C16.7004 4 15.3003 4 12.5 4C9.69974 4 8.29961 4 7.23005 4.54497C6.28924 5.02433 5.52433 5.78924 5.04497 6.73005C4.5 7.79961 4.5 9.19974 4.5 12V18C4.5 18.9428 4.5 19.4142 4.79289 19.7071C5.08579 20 5.55719 20 6.5 20H12.5C15.3003 20 16.7004 20 17.77 19.455C18.7108 18.9757 19.4757 18.2108 19.955 17.27C20.5 16.2004 20.5 14.8003 20.5 12Z" fill="#FFD400" fill-opacity="0.5"/>
<path d="M9 10.5L16 10.5" stroke="#1A1A8D" stroke-linecap="round" stroke-linejoin="round"/>
<path d="M9 13.5L14 13.5" stroke="#1A1A8D" stroke-linecap="round" stroke-linejoin="round"/>
</svg>
