<svg width="25" height="24" viewBox="0 0 25 24" fill="none" xmlns="http://www.w3.org/2000/svg">
<path fill-rule="evenodd" clip-rule="evenodd" d="M12.5 3C7.52944 3 3.5 7.02944 3.5 12C3.5 16.9706 7.52944 21 12.5 21H17C18.3978 21 19.0967 21 19.6481 20.7716C20.3831 20.4672 20.9672 19.8831 21.2716 19.1481C21.5 18.5967 21.5 17.8978 21.5 16.5V12C21.5 7.02944 17.4706 3 12.5 3ZM12.5 16.0002C11.9477 16.0002 11.5 15.5525 11.5 15.0002V13H9.5C8.94772 13 8.5 12.5523 8.5 12C8.5 11.4477 8.94772 11 9.5 11H11.5V9.00024C11.5 8.44795 11.9477 8.00024 12.5 8.00024C13.0523 8.00024 13.5 8.44795 13.5 9.00024V11H15.5C16.0523 11 16.5 11.4477 16.5 12C16.5 12.5523 16.0523 13 15.5 13H13.5V15.0002C13.5 15.5525 13.0523 16.0002 12.5 16.0002Z" fill="#1A1A8D"/>
</svg>
