<svg width="25" height="24" viewBox="0 0 25 24" fill="none" xmlns="http://www.w3.org/2000/svg">
<path fill-rule="evenodd" clip-rule="evenodd" d="M19.8259 5.77772C20.5 6.78661 20.5 8.19108 20.5 11C20.5 13.8089 20.5 15.2134 19.8259 16.2223C19.534 16.659 19.159 17.034 18.7223 17.3259C17.8409 17.9148 16.6577 17.9892 14.5 17.9986V18L13.3944 20.2111C13.0259 20.9482 11.9741 20.9482 11.6056 20.2111L10.5 18V17.9986C8.3423 17.9892 7.15907 17.9148 6.27772 17.3259C5.84096 17.034 5.46596 16.659 5.17412 16.2223C4.5 15.2134 4.5 13.8089 4.5 11C4.5 8.19108 4.5 6.78661 5.17412 5.77772C5.46596 5.34096 5.84096 4.96596 6.27772 4.67412C7.28661 4 8.69108 4 11.5 4H13.5C16.3089 4 17.7134 4 18.7223 4.67412C19.159 4.96596 19.534 5.34096 19.8259 5.77772Z" fill="#FFD400" fill-opacity="0.5"/>
<path d="M9 9.5L16 9.5" stroke="#1A1A8D" stroke-linecap="round" stroke-linejoin="round"/>
<path d="M9 12.5L14 12.5" stroke="#1A1A8D" stroke-linecap="round" stroke-linejoin="round"/>
</svg>
