<svg width="25" height="24" viewBox="0 0 25 24" fill="none" xmlns="http://www.w3.org/2000/svg">
<path d="M4.5 12C4.5 9.19974 4.5 7.79961 5.04497 6.73005C5.52433 5.78924 6.28924 5.02433 7.23005 4.54497C8.29961 4 9.69974 4 12.5 4C15.3003 4 16.7004 4 17.77 4.54497C18.7108 5.02433 19.4757 5.78924 19.955 6.73005C20.5 7.79961 20.5 9.19974 20.5 12V18C20.5 18.9428 20.5 19.4142 20.2071 19.7071C19.9142 20 19.4428 20 18.5 20H12.5C9.69974 20 8.29961 20 7.23005 19.455C6.28924 18.9757 5.52433 18.2108 5.04497 17.27C4.5 16.2004 4.5 14.8003 4.5 12Z" fill="#FFD400" fill-opacity="0.5"/>
<path d="M12.5 9V15" stroke="#1A1A8D" stroke-linecap="round"/>
<path d="M9.5 12H15.5" stroke="#1A1A8D" stroke-linecap="round"/>
</svg>
