<svg width="25" height="24" viewBox="0 0 25 24" fill="none" xmlns="http://www.w3.org/2000/svg">
<path d="M19.8259 5.77772L19.4101 6.0555L19.4101 6.0555L19.8259 5.77772ZM19.8259 16.2223L19.4101 15.9445H19.4101L19.8259 16.2223ZM18.7223 17.3259L18.4445 16.9101V16.9101L18.7223 17.3259ZM14.5 17.9986L14.4978 17.4986C14.2225 17.4998 14 17.7233 14 17.9986H14.5ZM14.5 18L14.9472 18.2236C14.9819 18.1542 15 18.0776 15 18H14.5ZM10.5 18H10C10 18.0776 10.0181 18.1542 10.0528 18.2236L10.5 18ZM10.5 17.9986H11C11 17.7233 10.7775 17.4998 10.5022 17.4986L10.5 17.9986ZM6.27772 17.3259L6.5555 16.9101L6.5555 16.9101L6.27772 17.3259ZM5.17412 16.2223L5.58986 15.9445H5.58986L5.17412 16.2223ZM5.17412 5.77772L5.58986 6.0555L5.17412 5.77772ZM6.27772 4.67412L6.5555 5.08986L6.27772 4.67412ZM18.7223 4.67412L18.4445 5.08986V5.08986L18.7223 4.67412ZM21 11C21 9.60594 21.0006 8.52277 20.9132 7.66325C20.8249 6.79537 20.6427 6.10023 20.2416 5.49993L19.4101 6.0555C19.6832 6.4641 19.8381 6.97564 19.9183 7.76445C19.9994 8.56162 20 9.58513 20 11H21ZM20.2416 16.5001C20.6427 15.8998 20.8249 15.2046 20.9132 14.3368C21.0006 13.4772 21 12.3941 21 11H20C20 12.4149 19.9994 13.4384 19.9183 14.2355C19.8381 15.0244 19.6832 15.5359 19.4101 15.9445L20.2416 16.5001ZM19.0001 17.7416C19.4914 17.4133 19.9133 16.9914 20.2416 16.5001L19.4101 15.9445C19.1548 16.3267 18.8267 16.6548 18.4445 16.9101L19.0001 17.7416ZM14.5022 18.4986C15.5787 18.4939 16.4452 18.4734 17.1582 18.3749C17.8793 18.2752 18.4757 18.092 19.0001 17.7416L18.4445 16.9101C18.0875 17.1487 17.6516 17.2971 17.0213 17.3843C16.383 17.4725 15.579 17.4939 14.4978 17.4986L14.5022 18.4986ZM15 18V17.9986H14V18H15ZM13.8416 20.4348L14.9472 18.2236L14.0528 17.7764L12.9472 19.9875L13.8416 20.4348ZM11.1584 20.4348C11.7111 21.5403 13.2889 21.5403 13.8416 20.4348L12.9472 19.9875C12.763 20.3561 12.237 20.3561 12.0528 19.9875L11.1584 20.4348ZM10.0528 18.2236L11.1584 20.4348L12.0528 19.9875L10.9472 17.7764L10.0528 18.2236ZM10 17.9986V18H11V17.9986H10ZM5.99993 17.7416C6.52427 18.092 7.12069 18.2752 7.84176 18.3749C8.5548 18.4734 9.42135 18.4939 10.4978 18.4986L10.5022 17.4986C9.42095 17.4939 8.61704 17.4725 7.97869 17.3843C7.34838 17.2971 6.91252 17.1487 6.5555 16.9101L5.99993 17.7416ZM4.75839 16.5001C5.0867 16.9914 5.50858 17.4133 5.99993 17.7416L6.5555 16.9101C6.17334 16.6548 5.84521 16.3267 5.58986 15.9445L4.75839 16.5001ZM4 11C4 12.3941 3.9994 13.4772 4.08683 14.3368C4.17512 15.2046 4.35728 15.8998 4.75839 16.5001L5.58986 15.9445C5.31684 15.5359 5.16194 15.0244 5.0817 14.2355C5.0006 13.4384 5 12.4149 5 11H4ZM4.75839 5.49993C4.35728 6.10023 4.17512 6.79537 4.08683 7.66325C3.9994 8.52277 4 9.60594 4 11H5C5 9.58513 5.0006 8.56162 5.0817 7.76445C5.16194 6.97564 5.31684 6.4641 5.58986 6.0555L4.75839 5.49993ZM5.99993 4.25839C5.50858 4.5867 5.0867 5.00858 4.75839 5.49993L5.58986 6.0555C5.84521 5.67334 6.17334 5.34521 6.5555 5.08986L5.99993 4.25839ZM11.5 3.5C10.1059 3.5 9.02277 3.4994 8.16325 3.58683C7.29537 3.67512 6.60023 3.85728 5.99993 4.25839L6.5555 5.08986C6.9641 4.81684 7.47564 4.66194 8.26445 4.5817C9.06162 4.5006 10.0851 4.5 11.5 4.5V3.5ZM13.5 3.5H11.5V4.5H13.5V3.5ZM19.0001 4.25839C18.3998 3.85728 17.7046 3.67512 16.8368 3.58683C15.9772 3.4994 14.8941 3.5 13.5 3.5V4.5C14.9149 4.5 15.9384 4.5006 16.7355 4.5817C17.5244 4.66194 18.0359 4.81684 18.4445 5.08986L19.0001 4.25839ZM20.2416 5.49993C19.9133 5.00858 19.4914 4.5867 19.0001 4.25839L18.4445 5.08986C18.8267 5.34521 19.1548 5.67334 19.4101 6.0555L20.2416 5.49993Z" fill="#1A1A8D"/>
<circle cx="16.5" cy="11" r="1" fill="#1A1A8D"/>
<circle cx="12.5" cy="11" r="1" fill="#1A1A8D"/>
<circle cx="8.5" cy="11" r="1" fill="#1A1A8D"/>
</svg>
