<svg width="25" height="24" viewBox="0 0 25 24" fill="none" xmlns="http://www.w3.org/2000/svg">
<path d="M19.8259 5.77772L18.9944 6.33329V6.33329L19.8259 5.77772ZM19.8259 16.2223L18.9944 15.6667V15.6667L19.8259 16.2223ZM18.7223 17.3259L18.1667 16.4944H18.1667L18.7223 17.3259ZM14.5 17.9986L14.4956 16.9986C13.9451 17.001 13.5 17.4481 13.5 17.9986H14.5ZM14.5 18L15.3944 18.4472C15.4639 18.3084 15.5 18.1552 15.5 18H14.5ZM10.5 18H9.5C9.5 18.1552 9.53615 18.3084 9.60557 18.4472L10.5 18ZM10.5 17.9986H11.5C11.5 17.4481 11.0549 17.001 10.5044 16.9986L10.5 17.9986ZM6.27772 17.3259L6.83329 16.4944H6.83329L6.27772 17.3259ZM5.17412 16.2223L6.00559 15.6667L6.00559 15.6667L5.17412 16.2223ZM5.17412 5.77772L6.00559 6.33329L5.17412 5.77772ZM6.27772 4.67412L6.83329 5.50559L6.27772 4.67412ZM18.7223 4.67412L18.1667 5.50559L18.1667 5.50559L18.7223 4.67412ZM21.5 11C21.5 9.61635 21.5012 8.50334 21.4106 7.61264C21.3183 6.70523 21.1225 5.91829 20.6573 5.22215L18.9944 6.33329C19.2034 6.64604 19.3446 7.06578 19.4209 7.81505C19.4988 8.58104 19.5 9.57473 19.5 11H21.5ZM20.6573 16.7779C21.1225 16.0817 21.3183 15.2948 21.4106 14.3874C21.5012 13.4967 21.5 12.3836 21.5 11H19.5C19.5 12.4253 19.4988 13.419 19.4209 14.1849C19.3446 14.9342 19.2034 15.354 18.9944 15.6667L20.6573 16.7779ZM19.2779 18.1573C19.8238 17.7926 20.2926 17.3238 20.6573 16.7779L18.9944 15.6667C18.7755 15.9943 18.4943 16.2755 18.1667 16.4944L19.2779 18.1573ZM14.5044 18.9986C15.5785 18.9939 16.4763 18.9739 17.2267 18.8701C17.9931 18.7642 18.6699 18.5636 19.2779 18.1573L18.1667 16.4944C17.8934 16.6771 17.5378 16.8081 16.9528 16.889C16.3518 16.9721 15.5792 16.9939 14.4956 16.9986L14.5044 18.9986ZM15.5 18V17.9986H13.5V18H15.5ZM14.2889 20.6584L15.3944 18.4472L13.6056 17.5528L12.5 19.7639L14.2889 20.6584ZM10.7111 20.6584C11.4482 22.1325 13.5518 22.1325 14.2889 20.6584L12.5 19.7639L12.5 19.7639L10.7111 20.6584ZM9.60557 18.4472L10.7111 20.6584L12.5 19.7639L11.3944 17.5528L9.60557 18.4472ZM9.5 17.9986V18H11.5V17.9986H9.5ZM5.72215 18.1573C6.33014 18.5636 7.00685 18.7642 7.7733 18.8701C8.52368 18.9739 9.42154 18.9939 10.4956 18.9986L10.5044 16.9986C9.42075 16.9939 8.64815 16.9721 8.04716 16.889C7.46223 16.8081 7.10665 16.6771 6.83329 16.4944L5.72215 18.1573ZM4.34265 16.7779C4.70744 17.3238 5.1762 17.7926 5.72215 18.1573L6.83329 16.4944C6.50572 16.2755 6.22447 15.9943 6.00559 15.6667L4.34265 16.7779ZM3.5 11C3.5 12.3836 3.49879 13.4967 3.5894 14.3874C3.68171 15.2948 3.8775 16.0817 4.34265 16.7779L6.00559 15.6667C5.79662 15.354 5.65535 14.9342 5.57913 14.1849C5.50121 13.419 5.5 12.4253 5.5 11H3.5ZM4.34265 5.22215C3.8775 5.91829 3.68171 6.70523 3.5894 7.61264C3.49879 8.50334 3.5 9.61635 3.5 11H5.5C5.5 9.57473 5.50121 8.58104 5.57913 7.81505C5.65535 7.06578 5.79662 6.64604 6.00559 6.33329L4.34265 5.22215ZM5.72215 3.84265C5.1762 4.20744 4.70744 4.6762 4.34265 5.22215L6.00559 6.33329C6.22447 6.00572 6.50572 5.72447 6.83329 5.50559L5.72215 3.84265ZM11.5 3C10.1164 3 9.00334 2.99879 8.11264 3.0894C7.20523 3.18171 6.41829 3.3775 5.72215 3.84265L6.83329 5.50559C7.14604 5.29662 7.56578 5.15535 8.31505 5.07913C9.08104 5.00121 10.0747 5 11.5 5V3ZM13.5 3H11.5V5H13.5V3ZM19.2779 3.84265C18.5817 3.3775 17.7948 3.18171 16.8874 3.0894C15.9967 2.99879 14.8836 3 13.5 3V5C14.9253 5 15.919 5.00121 16.6849 5.07913C17.4342 5.15535 17.854 5.29662 18.1667 5.50559L19.2779 3.84265ZM20.6573 5.22215C20.2926 4.6762 19.8238 4.20744 19.2779 3.84265L18.1667 5.50559C18.4943 5.72447 18.7755 6.00572 18.9944 6.33329L20.6573 5.22215Z" fill="#1A1A8D"/>
<circle cx="16.5" cy="11" r="1" fill="#1A1A8D" stroke="#1A1A8D" stroke-linecap="round"/>
<circle cx="12.5" cy="11" r="1" fill="#1A1A8D" stroke="#1A1A8D" stroke-linecap="round"/>
<circle cx="8.5" cy="11" r="1" fill="#1A1A8D" stroke="#1A1A8D" stroke-linecap="round"/>
</svg>
