<svg width="25" height="24" viewBox="0 0 25 24" fill="none" xmlns="http://www.w3.org/2000/svg">
<path fill-rule="evenodd" clip-rule="evenodd" d="M12.5 3C7.52944 3 3.5 7.02944 3.5 12C3.5 16.9706 7.52944 21 12.5 21H17C18.3978 21 19.0967 21 19.6481 20.7716C20.3831 20.4672 20.9672 19.8831 21.2716 19.1481C21.5 18.5967 21.5 17.8978 21.5 16.5V12C21.5 7.02944 17.4706 3 12.5 3ZM8.5 11C8.5 10.4477 8.94772 10 9.5 10H15.5C16.0523 10 16.5 10.4477 16.5 11C16.5 11.5523 16.0523 12 15.5 12H9.5C8.94772 12 8.5 11.5523 8.5 11ZM11.5 15C11.5 14.4477 11.9477 14 12.5 14H15.5C16.0523 14 16.5 14.4477 16.5 15C16.5 15.5523 16.0523 16 15.5 16H12.5C11.9477 16 11.5 15.5523 11.5 15Z" fill="#1A1A8D"/>
</svg>
