<svg width="25" height="24" viewBox="0 0 25 24" fill="none" xmlns="http://www.w3.org/2000/svg">
<circle cx="12.5" cy="12" r="8" fill="#FFD400" fill-opacity="0.5"/>
<path d="M10 12L11.8939 13.8939C11.9525 13.9525 12.0475 13.9525 12.1061 13.8939L16 10" stroke="#1A1A8D" stroke-width="1.2"/>
<path d="M20 12C20 13.4834 19.5601 14.9334 18.736 16.1668C17.9119 17.4001 16.7406 18.3614 15.3701 18.9291C13.9997 19.4968 12.4917 19.6453 11.0368 19.3559C9.58197 19.0665 8.24559 18.3522 7.1967 17.3033C6.14781 16.2544 5.4335 14.918 5.14411 13.4632C4.85472 12.0083 5.00325 10.5003 5.5709 9.12987C6.13856 7.75943 7.09985 6.58809 8.33322 5.76398C9.56659 4.93987 11.0166 4.5 12.5 4.5" stroke="#1A1A8D" stroke-linecap="round"/>
</svg>
