<svg width="25" height="24" viewBox="0 0 25 24" fill="none" xmlns="http://www.w3.org/2000/svg">
<path d="M13.273 3.70613L19.2577 5.30204C19.6954 5.41878 20 5.81523 20 6.26828V12.2889C20 14.295 18.9974 16.1684 17.3282 17.2812L13.0547 20.1302C12.7188 20.3541 12.2812 20.3541 11.9453 20.1302L7.6718 17.2812C6.00261 16.1684 5 14.295 5 12.2889V6.26828C5 5.81523 5.30458 5.41878 5.74234 5.30204L11.727 3.70613C12.2335 3.57107 12.7665 3.57107 13.273 3.70613Z" stroke="#1A1A8D" stroke-linecap="round"/>
<path d="M10 11.5L11.8232 13.3232C11.9209 13.4209 12.0791 13.4209 12.1768 13.3232L15.5 10" stroke="#1A1A8D" stroke-linecap="round"/>
</svg>
