<svg width="25" height="24" viewBox="0 0 25 24" fill="none" xmlns="http://www.w3.org/2000/svg">
<path fill-rule="evenodd" clip-rule="evenodd" d="M15.5 17.75L17.3 16.4C19.3144 14.8892 20.5 12.5181 20.5 10V6C20.5 4.89543 19.6046 4 18.5 4H6.5C5.39543 4 4.5 4.89543 4.5 6V10C4.5 12.5181 5.68555 14.8892 7.7 16.4L9.5 17.75C11.2778 19.0833 13.7222 19.0833 15.5 17.75ZM10.5 10C10.5 10.5523 10.0523 11 9.5 11C8.94772 11 8.5 10.5523 8.5 10C8.5 9.44772 8.94772 9 9.5 9C10.0523 9 10.5 9.44772 10.5 10ZM13.5 10C13.5 10.5523 13.0523 11 12.5 11C11.9477 11 11.5 10.5523 11.5 10C11.5 9.44772 11.9477 9 12.5 9C13.0523 9 13.5 9.44772 13.5 10ZM15.5 11C16.0523 11 16.5 10.5523 16.5 10C16.5 9.44772 16.0523 9 15.5 9C14.9477 9 14.5 9.44772 14.5 10C14.5 10.5523 14.9477 11 15.5 11Z" fill="#1A1A8D"/>
</svg>
