<svg width="25" height="24" viewBox="0 0 25 24" fill="none" xmlns="http://www.w3.org/2000/svg">
<path d="M16.9874 17.7947L13.0812 20.5848C12.7335 20.8332 12.2665 20.8332 11.9188 20.5848L8.01257 17.7947C6.43579 16.6684 5.5 14.85 5.5 12.9123V9.15C5.5 9.06716 5.56716 9 5.65 9H19.35C19.4328 9 19.5 9.06716 19.5 9.15V12.9123C19.5 14.85 18.5642 16.6684 16.9874 17.7947Z" fill="#1A1A8D"/>
<path d="M16.0453 4.5194L18.8939 5.74025C19.2616 5.89783 19.5 6.25937 19.5 6.6594V7.85C19.5 7.93284 19.4328 8 19.35 8H5.65C5.56716 8 5.5 7.93284 5.5 7.85V6.6594C5.5 6.25937 5.7384 5.89783 6.10608 5.74025L8.95473 4.5194C11.2187 3.54914 13.7813 3.54914 16.0453 4.5194Z" fill="#FFD400" fill-opacity="0.5"/>
</svg>
