<svg width="25" height="24" viewBox="0 0 25 24" fill="none" xmlns="http://www.w3.org/2000/svg">
<path d="M19.0447 6.15207L13.1303 3.61734C12.7278 3.44484 12.2722 3.44484 11.8697 3.61734L5.95535 6.15207C5.29996 6.43295 4.90953 7.11362 4.99798 7.82116L5.61096 12.725C5.81853 14.3856 6.64916 15.9053 7.93478 16.9767L11.4757 19.9274C12.0691 20.4219 12.9309 20.4219 13.5243 19.9274L17.0652 16.9767C18.3508 15.9053 19.1815 14.3856 19.389 12.725L20.002 7.82116C20.0905 7.11362 19.7 6.43295 19.0447 6.15207Z" fill="#FFD400" fill-opacity="0.5" stroke="#1A1A8D" stroke-width="1.2" stroke-linecap="round"/>
<path d="M9.5 12L12.0687 14.5687C12.2918 14.7918 12.6633 14.7551 12.8383 14.4925L16.5 9" stroke="#1A1A8D" stroke-width="1.2" stroke-linecap="round"/>
</svg>
