<svg width="25" height="24" viewBox="0 0 25 24" fill="none" xmlns="http://www.w3.org/2000/svg">
<path fill-rule="evenodd" clip-rule="evenodd" d="M18.8939 5.74002L13.6818 3.50624C12.9271 3.18282 12.0729 3.18282 11.3182 3.50624L6.10608 5.74002C5.7384 5.8976 5.5 6.25914 5.5 6.65917V11.9121C5.5 13.8498 6.43579 15.6682 8.01257 16.7945L11.3375 19.1694C12.0329 19.6661 12.9671 19.6661 13.6625 19.1694L16.9874 16.7945C18.5642 15.6682 19.5 13.8498 19.5 11.9121V6.65917C19.5 6.25914 19.2616 5.8976 18.8939 5.74002ZM16.2809 9.62469C16.6259 9.19343 16.556 8.56414 16.1247 8.21913C15.6934 7.87412 15.0641 7.94404 14.7191 8.37531L11.4171 12.5029L10.2071 11.2929C9.81658 10.9024 9.18342 10.9024 8.79289 11.2929C8.40237 11.6834 8.40237 12.3166 8.79289 12.7071L10.3979 14.3121C11.03 14.9443 12.0714 14.8866 12.6298 14.1885L16.2809 9.62469Z" fill="#1A1A8D"/>
</svg>
