<svg width="25" height="24" viewBox="0 0 25 24" fill="none" xmlns="http://www.w3.org/2000/svg">
<path d="M19.2022 5.78441L13.2878 3.24968C12.7847 3.03406 12.2153 3.03406 11.7122 3.24968L5.79778 5.78441C4.97855 6.13551 4.49051 6.98635 4.60106 7.87077L5.21405 12.7747C5.4342 14.5359 6.31517 16.1477 7.6787 17.284L11.2196 20.2347C11.9613 20.8528 13.0387 20.8528 13.7804 20.2347L17.3213 17.284C18.6848 16.1477 19.5658 14.5359 19.786 12.7747L20.3989 7.87077C20.5095 6.98635 20.0215 6.13551 19.2022 5.78441Z" stroke="#1A1A8D" stroke-width="2" stroke-linecap="round"/>
<path d="M9.5 12L12.0687 14.5687C12.2918 14.7918 12.6633 14.7551 12.8383 14.4925L16.5 9" stroke="#1A1A8D" stroke-width="2" stroke-linecap="round"/>
</svg>
