<svg width="25" height="24" viewBox="0 0 25 24" fill="none" xmlns="http://www.w3.org/2000/svg">
<path d="M10.5 11L14.5 15L10.5 19" stroke="#1A1A8D" stroke-width="2"/>
<path d="M10.1706 6.15333C8.06156 6.4359 6.22985 7.09219 5.01677 7.99993C3.8037 8.90768 3.292 10.005 3.577 11.0874C3.862 12.1698 4.92426 13.1634 6.56589 13.8833C8.20751 14.6031 10.3165 15 12.5 15" stroke="#1A1A8D" stroke-width="2" stroke-linecap="round"/>
<path d="M20.2942 12.75C20.8852 12.2382 21.2687 11.6733 21.423 11.0874C21.5773 10.5015 21.4992 9.90613 21.1933 9.33531C20.8874 8.7645 20.3597 8.2294 19.6402 7.76057C18.9207 7.29174 18.0236 6.89836 17 6.60289" stroke="#1A1A8D" stroke-width="2" stroke-linecap="round"/>
</svg>
