<svg width="25" height="24" viewBox="0 0 25 24" fill="none" xmlns="http://www.w3.org/2000/svg">
<path d="M10.5 11L14.5 15L10.5 19" stroke="#1A1A8D"/>
<path d="M10.1706 6.15333C7.93622 6.45269 6.01814 7.17072 4.81444 8.15841C3.61074 9.1461 3.21387 10.3276 3.70619 11.4577C4.19851 12.5878 5.54221 13.5798 7.45844 14.2277C9.37466 14.8756 11.7162 15.1297 13.9972 14.9373" stroke="#1A1A8D" stroke-linecap="round"/>
<path d="M20.2942 12.75C20.9845 12.1522 21.3904 11.4831 21.4807 10.7943C21.571 10.1055 21.3432 9.41563 20.8149 8.77792C20.2866 8.14022 19.472 7.57183 18.4341 7.11672C17.3962 6.66161 16.1628 6.33198 14.8294 6.15333" stroke="#1A1A8D" stroke-linecap="round"/>
</svg>
