<svg width="25" height="24" viewBox="0 0 25 24" fill="none" xmlns="http://www.w3.org/2000/svg">
<path fill-rule="evenodd" clip-rule="evenodd" d="M21.5 12C21.5 16.9706 17.4706 21 12.5 21C7.52944 21 3.5 16.9706 3.5 12C3.5 7.02944 7.52944 3 12.5 3C17.4706 3 21.5 7.02944 21.5 12ZM7.08579 16L7.79289 15.2929L11.0858 12L7.79289 8.70711L7.08579 8L8.5 6.58579L9.20711 7.29289L12.5 10.5858L15.7929 7.29289L16.5 6.58579L17.9142 8L17.2071 8.70711L13.9142 12L17.2071 15.2929L17.9142 16L16.5 17.4142L15.7929 16.7071L12.5 13.4142L9.20711 16.7071L8.5 17.4142L7.08579 16Z" fill="#1A1A8D"/>
</svg>
