<svg width="25" height="24" viewBox="0 0 25 24" fill="none" xmlns="http://www.w3.org/2000/svg">
<path fill-rule="evenodd" clip-rule="evenodd" d="M21.5 12C21.5 16.9706 17.4706 21 12.5 21C7.52944 21 3.5 16.9706 3.5 12C3.5 7.02944 7.52944 3 12.5 3C17.4706 3 21.5 7.02944 21.5 12ZM7.79289 16.7071C7.40237 16.3166 7.40237 15.6834 7.79289 15.2929L11.0858 12L7.79289 8.70711C7.40237 8.31658 7.40237 7.68342 7.79289 7.29289C8.18342 6.90237 8.81658 6.90237 9.20711 7.29289L12.5 10.5858L15.7929 7.29289C16.1834 6.90237 16.8166 6.90237 17.2071 7.29289C17.5976 7.68342 17.5976 8.31658 17.2071 8.70711L13.9142 12L17.2071 15.2929C17.5976 15.6834 17.5976 16.3166 17.2071 16.7071C16.8166 17.0976 16.1834 17.0976 15.7929 16.7071L12.5 13.4142L9.20711 16.7071C8.81658 17.0976 8.18342 17.0976 7.79289 16.7071Z" fill="#1A1A8D"/>
</svg>
