<svg width="25" height="24" viewBox="0 0 25 24" fill="none" xmlns="http://www.w3.org/2000/svg">
<path fill-rule="evenodd" clip-rule="evenodd" d="M12.5 21C17.4706 21 21.5 16.9706 21.5 12C21.5 7.02944 17.4706 3 12.5 3C7.52944 3 3.5 7.02944 3.5 12C3.5 16.9706 7.52944 21 12.5 21ZM13.7929 14.7071C14.1834 15.0976 14.8166 15.0976 15.2071 14.7071C15.5976 14.3166 15.5976 13.6834 15.2071 13.2929L13.9142 12L15.2071 10.7071C15.5976 10.3166 15.5976 9.68342 15.2071 9.29289C14.8166 8.90237 14.1834 8.90237 13.7929 9.29289L12.5 10.5858L11.2071 9.29289C10.8166 8.90237 10.1834 8.90237 9.79289 9.29289C9.40237 9.68342 9.40237 10.3166 9.79289 10.7071L11.0858 12L9.79289 13.2929C9.40237 13.6834 9.40237 14.3166 9.79289 14.7071C10.1834 15.0976 10.8166 15.0976 11.2071 14.7071L12.5 13.4142L13.7929 14.7071ZM15.1788 5.53284C13.6826 4.91309 12.0178 4.83131 10.468 5.30142C8.91826 5.77153 7.57945 6.76445 6.67971 8.11101C5.77997 9.45756 5.37497 11.0744 5.53371 12.6861C5.69244 14.2978 6.4051 15.8046 7.55025 16.9497C7.94077 17.3403 8.57394 17.3403 8.96446 16.9497C9.35499 16.5592 9.35499 15.9261 8.96447 15.5355C8.1465 14.7176 7.63746 13.6413 7.52408 12.4901C7.41069 11.3389 7.69998 10.184 8.34265 9.22215C8.98532 8.26032 9.94161 7.55109 11.0486 7.2153C12.1555 6.8795 13.3447 6.93792 14.4134 7.3806C15.4821 7.82328 16.3643 8.62283 16.9096 9.64302C17.4549 10.6632 17.6296 11.8409 17.4039 12.9755C17.1783 14.11 16.5662 15.1312 15.672 15.8651C14.7778 16.5989 13.6568 17 12.5 17C11.9477 17 11.5 17.4477 11.5 18C11.5 18.5523 11.9477 19 12.5 19C14.1195 19 15.6889 18.4385 16.9408 17.4111C18.1926 16.3837 19.0496 14.954 19.3655 13.3656C19.6814 11.7773 19.4369 10.1285 18.6734 8.70022C17.91 7.27196 16.675 6.15259 15.1788 5.53284Z" fill="#1A1A8D"/>
</svg>
