<svg width="25" height="24" viewBox="0 0 25 24" fill="none" xmlns="http://www.w3.org/2000/svg">
<path d="M12.5 21C11.3181 21 10.1478 20.7672 9.05585 20.3149C7.96392 19.8626 6.97177 19.1997 6.13604 18.364C5.30031 17.5282 4.63738 16.5361 4.18508 15.4442C3.73279 14.3522 3.5 13.1819 3.5 12C3.5 10.8181 3.73279 9.64778 4.18508 8.55585C4.63738 7.46392 5.30031 6.47177 6.13604 5.63604C6.97177 4.80031 7.96392 4.13738 9.05585 3.68508C10.1478 3.23279 11.3181 3 12.5 3C13.6819 3 14.8522 3.23279 15.9442 3.68508C17.0361 4.13738 18.0282 4.80031 18.864 5.63604C19.6997 6.47177 20.3626 7.46392 20.8149 8.55585C21.2672 9.64778 21.5 10.8181 21.5 12C21.5 13.1819 21.2672 14.3522 20.8149 15.4442C20.3626 16.5361 19.6997 17.5282 18.864 18.364C18.0282 19.1997 17.0361 19.8626 15.9441 20.3149C14.8522 20.7672 13.6819 21 12.5 21L12.5 21Z" stroke="#1A1A8D" stroke-linecap="round"/>
<path d="M9.5 9L15.5 15" stroke="#1A1A8D" stroke-linecap="round"/>
<path d="M15.5 9L9.5 15" stroke="#1A1A8D" stroke-linecap="round"/>
</svg>
