<svg width="25" height="24" viewBox="0 0 25 24" fill="none" xmlns="http://www.w3.org/2000/svg">
<path d="M12.5 20.4C11.3969 20.4 10.3046 20.1827 9.28546 19.7606C8.26632 19.3384 7.34031 18.7197 6.5603 17.9397C5.78029 17.1597 5.16155 16.2337 4.73941 15.2145C4.31727 14.1954 4.1 13.1031 4.1 12C4.1 10.8969 4.31727 9.80459 4.73941 8.78546C5.16155 7.76632 5.78029 6.84031 6.5603 6.0603C7.34032 5.28029 8.26633 4.66155 9.28546 4.23941C10.3046 3.81727 11.3969 3.6 12.5 3.6C13.6031 3.6 14.6954 3.81727 15.7145 4.23941C16.7337 4.66155 17.6597 5.28029 18.4397 6.0603C19.2197 6.84032 19.8384 7.76633 20.2606 8.78546C20.6827 9.8046 20.9 10.8969 20.9 12C20.9 13.1031 20.6827 14.1954 20.2606 15.2145C19.8384 16.2337 19.2197 17.1597 18.4397 17.9397C17.6597 18.7197 16.7337 19.3384 15.7145 19.7606C14.6954 20.1827 13.6031 20.4 12.5 20.4L12.5 20.4Z" stroke="#FFD400" stroke-opacity="0.5" stroke-width="1.2"/>
<path d="M9.5 9L15.5 15" stroke="#1A1A8D" stroke-width="1.2" stroke-linecap="round"/>
<path d="M15.5 9L9.5 15" stroke="#1A1A8D" stroke-width="1.2" stroke-linecap="round"/>
</svg>
