<svg width="25" height="24" viewBox="0 0 25 24" fill="none" xmlns="http://www.w3.org/2000/svg">
<path fill-rule="evenodd" clip-rule="evenodd" d="M11.0278 8C12.1264 6.7725 13.723 6 15.5 6C18.8137 6 21.5 8.68629 21.5 12C21.5 15.3137 18.8137 18 15.5 18H8.5C5.73858 18 3.5 15.7614 3.5 13C3.5 10.2386 5.73858 8 8.5 8H11.0278Z" fill="#FFD400" fill-opacity="0.5"/>
<path d="M11.0278 8L11.4749 8.40015L11.296 8.6H11.0278V8ZM15.5 6.6C13.9008 6.6 12.4645 7.29444 11.4749 8.40015L10.5807 7.59985C11.7884 6.25056 13.5452 5.4 15.5 5.4V6.6ZM20.9 12C20.9 9.01766 18.4823 6.6 15.5 6.6V5.4C19.1451 5.4 22.1 8.35492 22.1 12H20.9ZM15.5 17.4C18.4823 17.4 20.9 14.9823 20.9 12H22.1C22.1 15.6451 19.1451 18.6 15.5 18.6V17.4ZM8.5 17.4H15.5V18.6H8.5V17.4ZM4.1 13C4.1 15.4301 6.06995 17.4 8.5 17.4V18.6C5.40721 18.6 2.9 16.0928 2.9 13H4.1ZM8.5 8.6C6.06995 8.6 4.1 10.5699 4.1 13H2.9C2.9 9.90721 5.40721 7.4 8.5 7.4V8.6ZM11.0278 8.6H8.5V7.4H11.0278V8.6Z" fill="#1A1A8D"/>
<path d="M16.8177 17.8535C17.9213 17.6051 18.9321 17.0498 19.7337 16.2516C20.5352 15.4534 21.0948 14.4449 21.3479 13.3424C21.601 12.2399 21.5373 11.0884 21.1641 10.0205C20.7909 8.95268 20.1234 8.01208 19.2387 7.30723C18.354 6.60238 17.288 6.16198 16.1638 6.03683C15.0396 5.91169 13.9029 6.10689 12.8848 6.59993C11.8667 7.09297 11.0088 7.86375 10.4099 8.82338C9.81102 9.78301 9.49561 10.8924 9.50005 12.0236" stroke="#1A1A8D" stroke-width="1.2"/>
</svg>
