<svg width="25" height="24" viewBox="0 0 25 24" fill="none" xmlns="http://www.w3.org/2000/svg">
<path d="M9.4902 19.9818L9.52737 20.4804L9.4902 19.9818ZM9.45302 19.4832C9.30356 19.4943 9.15249 19.5 9 19.5V20.5C9.17732 20.5 9.35319 20.4934 9.52737 20.4804L9.45302 19.4832ZM9 19.5C5.68629 19.5 3 16.8137 3 13.5H2C2 17.366 5.13401 20.5 9 20.5V19.5ZM3 13.5C3 10.1863 5.68629 7.5 9 7.5V6.5C5.13401 6.5 2 9.63401 2 13.5H3ZM9 7.5C11.4554 7.5 13.5673 8.97495 14.4962 11.0892L15.4117 10.687C14.3291 8.22264 11.8663 6.5 9 6.5V7.5ZM16.5 12.5C18.433 12.5 20 14.067 20 16H21C21 13.5147 18.9853 11.5 16.5 11.5V12.5ZM20 16C20 17.933 18.433 19.5 16.5 19.5V20.5C18.9853 20.5 21 18.4853 21 16H20ZM16.5 19.5H9.50911V20.5H16.5V19.5ZM9.50911 19.5C9.78021 19.5 10 19.7198 10 19.9909H9C9 20.2721 9.22795 20.5 9.50911 20.5V19.5ZM14.4962 11.0892C14.831 11.8514 15.5648 12.5 16.5 12.5V11.5C16.0592 11.5 15.6303 11.1846 15.4117 10.687L14.4962 11.0892ZM9.52737 20.4804C9.24312 20.5016 9 20.2768 9 19.9909H10C10 19.6944 9.74785 19.4612 9.45302 19.4832L9.52737 20.4804Z" fill="#1A1A8D"/>
<path d="M20.0355 13.5355C20.5388 13.0323 20.9288 12.4274 21.1795 11.7613C21.4302 11.0951 21.5358 10.3832 21.4893 9.67298C21.4427 8.96278 21.2451 8.2707 20.9096 7.64302C20.5741 7.01533 20.1085 6.4665 19.5438 6.03323C18.9792 5.59996 18.3285 5.29223 17.6354 5.13062C16.9422 4.969 16.2226 4.95722 15.5245 5.09607C14.8265 5.23492 14.1661 5.5212 13.5876 5.93577C13.0091 6.35033 12.5257 6.88363 12.1699 7.5" stroke="#1A1A8D"/>
</svg>
