<svg width="25" height="24" viewBox="0 0 25 24" fill="none" xmlns="http://www.w3.org/2000/svg">
<path fill-rule="evenodd" clip-rule="evenodd" d="M9.5 19.9909C9.5 19.9856 9.49549 19.9814 9.4902 19.9818C9.32838 19.9939 9.16491 20 9 20C5.41015 20 2.5 17.0899 2.5 13.5C2.5 9.91015 5.41015 7 9 7C11.6608 7 13.9482 8.59879 14.9539 10.8881C15.2306 11.518 15.812 12 16.5 12C18.7091 12 20.5 13.7909 20.5 16C20.5 18.2091 18.7091 20 16.5 20H9.50911C9.50408 20 9.5 19.9959 9.5 19.9909Z" fill="#1A1A8D"/>
<path fill-rule="evenodd" clip-rule="evenodd" d="M19.9604 11.7249C21.4471 11.1415 22.4998 9.69369 22.4998 8C22.4998 5.79086 20.7089 4 18.4998 4C16.3911 4 14.6635 5.63165 14.5107 7.70128C15.2758 8.42868 15.8968 9.30566 16.327 10.2848C16.3692 10.381 16.4277 10.4467 16.4719 10.4798C16.4887 10.4924 16.4997 10.4979 16.5051 10.5C17.8144 10.5013 19.0165 10.96 19.9604 11.7249ZM16.5092 10.5012C16.5092 10.5013 16.5083 10.5011 16.5063 10.5005C16.5082 10.5007 16.5091 10.5011 16.5092 10.5012Z" fill="#1A1A8D"/>
</svg>
