<svg width="25" height="24" viewBox="0 0 25 24" fill="none" xmlns="http://www.w3.org/2000/svg">
<path d="M11.0278 8L11.7729 8.66691L11.4748 9H11.0278V8ZM15.5 7C14.0193 7 12.6899 7.6424 11.7729 8.66691L10.2827 7.33309C11.563 5.9026 13.4267 5 15.5 5V7ZM20.5 12C20.5 9.23858 18.2614 7 15.5 7V5C19.366 5 22.5 8.13401 22.5 12H20.5ZM15.5 17C18.2614 17 20.5 14.7614 20.5 12H22.5C22.5 15.866 19.366 19 15.5 19V17ZM8.5 17H15.5V19H8.5V17ZM4.5 13C4.5 15.2091 6.29086 17 8.5 17V19C5.18629 19 2.5 16.3137 2.5 13H4.5ZM8.5 9C6.29086 9 4.5 10.7909 4.5 13H2.5C2.5 9.68629 5.18629 7 8.5 7V9ZM11.0278 9H8.5V7H11.0278V9Z" fill="#1A1A8D"/>
<path d="M16.8177 17.8535C17.9213 17.6051 18.9321 17.0498 19.7337 16.2516C20.5352 15.4534 21.0948 14.4449 21.3479 13.3424C21.601 12.2399 21.5373 11.0884 21.1641 10.0205C20.7909 8.95268 20.1234 8.01208 19.2387 7.30723C18.354 6.60238 17.288 6.16198 16.1638 6.03683C15.0396 5.91169 13.9029 6.10689 12.8848 6.59993C11.8667 7.09297 11.0088 7.86375 10.4099 8.82338C9.81102 9.78301 9.49561 10.8924 9.50005 12.0236" stroke="#1A1A8D" stroke-width="2"/>
</svg>
