<svg width="25" height="24" viewBox="0 0 25 24" fill="none" xmlns="http://www.w3.org/2000/svg">
<path d="M10.3027 9L10.7355 9.25036L10.5911 9.5H10.3027V9ZM15.5 6.5C13.4649 6.5 11.6872 7.6051 10.7355 9.25036L9.86989 8.74964C10.993 6.80809 13.0935 5.5 15.5 5.5V6.5ZM21 12C21 8.96243 18.5376 6.5 15.5 6.5V5.5C19.0899 5.5 22 8.41015 22 12H21ZM15.5 17.5C18.5376 17.5 21 15.0376 21 12H22C22 15.5899 19.0899 18.5 15.5 18.5V17.5ZM8 17.5H15.5V18.5H8V17.5ZM4 13.5C4 15.7091 5.79086 17.5 8 17.5V18.5C5.23857 18.5 3 16.2614 3 13.5H4ZM8 9.5C5.79086 9.5 4 11.2909 4 13.5H3C3 10.7386 5.23857 8.5 8 8.5V9.5ZM10.3027 9.5H8V8.5H10.3027V9.5Z" fill="#1A1A8D"/>
<path d="M16.8177 17.8535C17.9213 17.6051 18.9321 17.0498 19.7337 16.2516C20.5352 15.4534 21.0948 14.4449 21.3479 13.3424C21.601 12.2399 21.5373 11.0884 21.1641 10.0205C20.7909 8.95268 20.1234 8.01208 19.2387 7.30723C18.354 6.60238 17.288 6.16198 16.1638 6.03683C15.0396 5.91169 13.9029 6.10689 12.8848 6.59993C11.8667 7.09297 11.0088 7.86375 10.4099 8.82338C9.81102 9.78301 9.49561 10.8924 9.50005 12.0236" stroke="#1A1A8D"/>
</svg>
