<svg width="25" height="24" viewBox="0 0 25 24" fill="none" xmlns="http://www.w3.org/2000/svg">
<path fill-rule="evenodd" clip-rule="evenodd" d="M9.5 19.9909C9.5 19.9856 9.49549 19.9814 9.4902 19.9818C9.32838 19.9939 9.16491 20 9 20C5.41015 20 2.5 17.0899 2.5 13.5C2.5 9.91015 5.41015 7 9 7C11.6608 7 13.9482 8.59879 14.9539 10.8881C15.2306 11.518 15.812 12 16.5 12C18.7091 12 20.5 13.7909 20.5 16C20.5 18.2091 18.7091 20 16.5 20H9.50911C9.50408 20 9.5 19.9959 9.5 19.9909Z" fill="#FFD400" fill-opacity="0.5"/>
<path d="M9.4902 19.9818L9.53481 20.5801L9.4902 19.9818ZM9.44558 19.3835C9.29859 19.3944 9.15 19.4 9 19.4V20.6C9.17981 20.6 9.35816 20.5933 9.53481 20.5801L9.44558 19.3835ZM9 19.4C5.74152 19.4 3.1 16.7585 3.1 13.5H1.9C1.9 17.4212 5.07878 20.6 9 20.6V19.4ZM3.1 13.5C3.1 10.2415 5.74152 7.6 9 7.6V6.4C5.07878 6.4 1.9 9.57878 1.9 13.5H3.1ZM9 7.6C11.4143 7.6 13.4912 9.05018 14.4046 11.1295L15.5033 10.6468C14.4053 8.14741 11.9074 6.4 9 6.4V7.6ZM16.5 12.6C18.3778 12.6 19.9 14.1222 19.9 16H21.1C21.1 13.4595 19.0405 11.4 16.5 11.4V12.6ZM19.9 16C19.9 17.8778 18.3778 19.4 16.5 19.4V20.6C19.0405 20.6 21.1 18.5405 21.1 16H19.9ZM16.5 19.4H9.50911V20.6H16.5V19.4ZM9.50911 19.4C9.83544 19.4 10.1 19.6645 10.1 19.9909H8.9C8.9 20.3273 9.17272 20.6 9.50911 20.6V19.4ZM14.4046 11.1295C14.751 11.918 15.5154 12.6 16.5 12.6V11.4C16.1087 11.4 15.7102 11.1179 15.5033 10.6468L14.4046 11.1295ZM9.53481 20.5801C9.19265 20.6056 8.9 20.3351 8.9 19.9909H10.1C10.1 19.6361 9.79833 19.3572 9.44558 19.3835L9.53481 20.5801Z" fill="#1A1A8D"/>
<path d="M18.812 12.7787C19.4921 12.5426 20.0958 12.1273 20.5595 11.5768C21.0232 11.0262 21.3297 10.3606 21.4468 9.65037C21.5638 8.9401 21.487 8.21141 21.2245 7.54115C20.9619 6.87088 20.5234 6.28389 19.9551 5.84207C19.3868 5.40024 18.7098 5.11997 17.9955 5.0308C17.2812 4.94164 16.556 5.04689 15.8966 5.33544C15.2371 5.624 14.6677 6.08518 14.2484 6.67034C13.8292 7.25549 13.5756 7.94294 13.5145 8.66019" stroke="#1A1A8D" stroke-width="1.2"/>
</svg>
