<svg width="25" height="24" viewBox="0 0 25 24" fill="none" xmlns="http://www.w3.org/2000/svg">
<path d="M9.4902 19.9818L9.56455 20.979L9.4902 19.9818ZM9.41584 18.9846C9.27874 18.9948 9.14007 19 9 19V21C9.18974 21 9.37801 20.9929 9.56455 20.979L9.41584 18.9846ZM9 19C5.96243 19 3.5 16.5376 3.5 13.5H1.5C1.5 17.6421 4.85786 21 9 21V19ZM3.5 13.5C3.5 10.4624 5.96243 8 9 8V6C4.85786 6 1.5 9.35786 1.5 13.5H3.5ZM9 8C11.2499 8 13.1865 9.3511 14.0384 11.2903L15.8695 10.4859C14.71 7.84649 12.0717 6 9 6V8ZM16.5 13C18.1569 13 19.5 14.3431 19.5 16H21.5C21.5 13.2386 19.2614 11 16.5 11V13ZM19.5 16C19.5 17.6569 18.1569 19 16.5 19V21C19.2614 21 21.5 18.7614 21.5 16H19.5ZM16.5 19H9.50911V21H16.5V19ZM9.50911 19C10.0563 19 10.5 19.4436 10.5 19.9909H8.5C8.5 20.5482 8.95182 21 9.50911 21V19ZM14.0384 11.2903C14.4313 12.1847 15.3177 13 16.5 13V11C16.3064 11 16.03 10.8512 15.8695 10.4859L14.0384 11.2903ZM9.56455 20.979C8.99075 21.0218 8.5 20.568 8.5 19.9909H10.5C10.5 19.4031 10.0002 18.941 9.41584 18.9846L9.56455 20.979Z" fill="#1A1A8D"/>
<path d="M18.3785 12.9023C19.1142 12.7367 19.7881 12.3665 20.3224 11.8344C20.8568 11.3023 21.2299 10.6299 21.3986 9.89495C21.5673 9.15996 21.5248 8.39223 21.276 7.68034C21.0273 6.96845 20.5823 6.34139 19.9925 5.87149C19.4027 5.40159 18.692 5.10799 17.9425 5.02456C17.1931 4.94112 16.4352 5.07126 15.7565 5.39995C15.0778 5.72865 14.5059 6.2425 14.1066 6.88226C13.7073 7.52201 13.4971 8.26159 13.5 9.0157" stroke="#1A1A8D" stroke-width="2"/>
</svg>
