<svg width="25" height="24" viewBox="0 0 25 24" fill="none" xmlns="http://www.w3.org/2000/svg">
<path d="M9.5 13L9.14645 12.6464L9.5 12.2929L9.85355 12.6464L9.5 13ZM10 22C10 22.2761 9.77614 22.5 9.5 22.5C9.22386 22.5 9 22.2761 9 22L10 22ZM4.14645 17.6464L9.14645 12.6464L9.85355 13.3536L4.85355 18.3536L4.14645 17.6464ZM9.85355 12.6464L14.8536 17.6464L14.1464 18.3536L9.14645 13.3536L9.85355 12.6464ZM10 13L10 22L9 22L9 13L10 13Z" fill="#1A1A8D"/>
<path d="M15.5 11L15.1464 11.3536L15.5 11.7071L15.8536 11.3536L15.5 11ZM16 2C16 1.72386 15.7761 1.5 15.5 1.5C15.2239 1.5 15 1.72386 15 2L16 2ZM10.1464 6.35355L15.1464 11.3536L15.8536 10.6464L10.8536 5.64645L10.1464 6.35355ZM15.8536 11.3536L20.8536 6.35355L20.1464 5.64645L15.1464 10.6464L15.8536 11.3536ZM16 11L16 2L15 2L15 11L16 11Z" fill="#1A1A8D"/>
</svg>
