<svg width="25" height="24" viewBox="0 0 25 24" fill="none" xmlns="http://www.w3.org/2000/svg">
<path d="M9.5 13L8.79289 12.2929L9.5 11.5858L10.2071 12.2929L9.5 13ZM10.5 22C10.5 22.5523 10.0523 23 9.5 23C8.94772 23 8.5 22.5523 8.5 22L10.5 22ZM3.79289 17.2929L8.79289 12.2929L10.2071 13.7071L5.20711 18.7071L3.79289 17.2929ZM10.2071 12.2929L15.2071 17.2929L13.7929 18.7071L8.79289 13.7071L10.2071 12.2929ZM10.5 13L10.5 22L8.5 22L8.5 13L10.5 13Z" fill="#1A1A8D"/>
<path d="M15.5 11L14.7929 11.7071L15.5 12.4142L16.2071 11.7071L15.5 11ZM16.5 2C16.5 1.44772 16.0523 1 15.5 1C14.9477 1 14.5 1.44771 14.5 2L16.5 2ZM9.79289 6.70711L14.7929 11.7071L16.2071 10.2929L11.2071 5.29289L9.79289 6.70711ZM16.2071 11.7071L21.2071 6.70711L19.7929 5.29289L14.7929 10.2929L16.2071 11.7071ZM16.5 11L16.5 2L14.5 2L14.5 11L16.5 11Z" fill="#1A1A8D"/>
</svg>
