<svg width="25" height="24" viewBox="0 0 25 24" fill="none" xmlns="http://www.w3.org/2000/svg">
<path d="M5.32698 7.13803L5.77248 7.36502L5.32698 7.13803ZM5.7682 18.7318L6.12175 19.0854H6.12175L5.7682 18.7318ZM18.362 16.173L18.135 15.7275L18.362 16.173ZM19.673 14.862L19.2275 14.635L19.673 14.862ZM19.673 7.13803L19.2275 7.36502V7.36502L19.673 7.13803ZM18.362 5.82698L18.589 5.38148V5.38148L18.362 5.82698ZM6.63803 5.82698L6.86502 6.27248L6.63803 5.82698ZM7.70711 16.7929L8.06066 17.1464L7.70711 16.7929ZM5.5 10.3C5.5 9.45167 5.50039 8.84549 5.53921 8.37032C5.57756 7.90099 5.65089 7.60366 5.77248 7.36502L4.88148 6.91103C4.67609 7.31413 4.58593 7.75771 4.54253 8.28889C4.49961 8.81423 4.5 9.46817 4.5 10.3H5.5ZM5.5 11.5V10.3H4.5V11.5H5.5ZM4.5 11.5V16.5H5.5V11.5H4.5ZM4.5 16.5V18.4136H5.5V16.5H4.5ZM4.5 18.4136C4.5 19.26 5.52329 19.6838 6.12175 19.0854L5.41465 18.3782C5.41754 18.3753 5.42812 18.368 5.44323 18.3654C5.4556 18.3632 5.46421 18.3654 5.46913 18.3674C5.47406 18.3695 5.48164 18.374 5.48888 18.3843C5.49771 18.3968 5.5 18.4095 5.5 18.4136H4.5ZM6.12175 19.0854L8.06066 17.1464L7.35355 16.4393L5.41465 18.3782L6.12175 19.0854ZM15.2 16H8.41421V17H15.2V16ZM18.135 15.7275C17.8963 15.8491 17.599 15.9224 17.1297 15.9608C16.6545 15.9996 16.0483 16 15.2 16V17C16.0318 17 16.6858 17.0004 17.2111 16.9575C17.7423 16.9141 18.1859 16.8239 18.589 16.6185L18.135 15.7275ZM19.2275 14.635C18.9878 15.1054 18.6054 15.4878 18.135 15.7275L18.589 16.6185C19.2475 16.283 19.783 15.7475 20.1185 15.089L19.2275 14.635ZM19.5 11.7C19.5 12.5483 19.4996 13.1545 19.4608 13.6297C19.4224 14.099 19.3491 14.3963 19.2275 14.635L20.1185 15.089C20.3239 14.6859 20.4141 14.2423 20.4575 13.7111C20.5004 13.1858 20.5 12.5318 20.5 11.7H19.5ZM19.5 10.3V11.7H20.5V10.3H19.5ZM19.2275 7.36502C19.3491 7.60366 19.4224 7.90099 19.4608 8.37032C19.4996 8.84549 19.5 9.45167 19.5 10.3H20.5C20.5 9.46817 20.5004 8.81423 20.4575 8.28889C20.4141 7.75771 20.3239 7.31413 20.1185 6.91103L19.2275 7.36502ZM18.135 6.27248C18.6054 6.51217 18.9878 6.89462 19.2275 7.36502L20.1185 6.91103C19.783 6.25247 19.2475 5.71703 18.589 5.38148L18.135 6.27248ZM15.2 6C16.0483 6 16.6545 6.00039 17.1297 6.03921C17.599 6.07756 17.8963 6.15089 18.135 6.27248L18.589 5.38148C18.1859 5.17609 17.7423 5.08593 17.2111 5.04253C16.6858 4.99961 16.0318 5 15.2 5V6ZM9.8 6H15.2V5H9.8V6ZM6.86502 6.27248C7.10366 6.15089 7.40099 6.07756 7.87032 6.03921C8.34549 6.00039 8.95167 6 9.8 6V5C8.96817 5 8.31423 4.99961 7.78889 5.04253C7.25771 5.08593 6.81413 5.17609 6.41103 5.38148L6.86502 6.27248ZM5.77248 7.36502C6.01217 6.89462 6.39462 6.51217 6.86502 6.27248L6.41103 5.38148C5.75247 5.71703 5.21703 6.25247 4.88148 6.91103L5.77248 7.36502ZM8.06066 17.1464C8.15443 17.0527 8.28161 17 8.41421 17V16C8.01639 16 7.63486 16.158 7.35355 16.4393L8.06066 17.1464Z" fill="#1A1A8D"/>
<path d="M9 9.5L16 9.5" stroke="#1A1A8D" stroke-linecap="round" stroke-linejoin="round"/>
<path d="M9 12.5L14 12.5" stroke="#1A1A8D" stroke-linecap="round" stroke-linejoin="round"/>
</svg>
