<svg width="25" height="24" viewBox="0 0 25 24" fill="none" xmlns="http://www.w3.org/2000/svg">
<path fill-rule="evenodd" clip-rule="evenodd" d="M5.67157 6.17157C4.5 7.34315 4.5 9.22876 4.5 13V17V18.5858C4.5 19.4767 5.57714 19.9229 6.20711 19.2929L8.35355 17.1464C8.42581 17.0742 8.46194 17.0381 8.50788 17.019C8.55383 17 8.60492 17 8.70711 17H14.5C16.3638 17 17.2956 17 18.0307 16.6955C19.0108 16.2895 19.7895 15.5108 20.1955 14.5307C20.5 13.7956 20.5 12.8638 20.5 11C20.5 9.13623 20.5 8.20435 20.1955 7.46927C19.7895 6.48915 19.0108 5.71046 18.0307 5.30448C17.2956 5 16.3638 5 14.5 5H12.5C8.72876 5 6.84315 5 5.67157 6.17157Z" fill="#FFD400" fill-opacity="0.5"/>
<path d="M9 9.5L16 9.5" stroke="#1A1A8D" stroke-linecap="round" stroke-linejoin="round"/>
<path d="M9 12.5L14 12.5" stroke="#1A1A8D" stroke-linecap="round" stroke-linejoin="round"/>
</svg>
