<svg width="25" height="24" viewBox="0 0 25 24" fill="none" xmlns="http://www.w3.org/2000/svg">
<path d="M10.442 10.6872C10.4115 9.91075 10.4171 9.09875 10.4338 8.42186C11.0284 8.74586 11.7344 9.14694 12.3916 9.5616C12.8717 9.86449 13.309 10.1643 13.6522 10.4379C14.0222 10.733 14.1883 10.9248 14.2316 10.9999C14.275 11.0749 14.358 11.3147 14.4286 11.7827C14.494 12.2167 14.5349 12.7453 14.5572 13.3125C14.5877 14.089 14.582 14.901 14.5653 15.5779C13.9708 15.2539 13.2647 14.8528 12.6076 14.4381C12.1275 14.1352 11.6901 13.8355 11.347 13.5618C10.977 13.2667 10.8109 13.0749 10.7675 12.9999C10.7242 12.9248 10.6411 12.6851 10.5706 12.2171C10.5052 11.7831 10.4643 11.2544 10.442 10.6872Z" stroke="#1A1A8D" stroke-width="2"/>
<circle cx="12.5" cy="12" r="9" stroke="#1A1A8D" stroke-width="2"/>
</svg>
