<svg width="25" height="24" viewBox="0 0 25 24" fill="none" xmlns="http://www.w3.org/2000/svg">
<path fill-rule="evenodd" clip-rule="evenodd" d="M12.5 21C17.4706 21 21.5 16.9706 21.5 12C21.5 7.02944 17.4706 3 12.5 3C7.52944 3 3.5 7.02944 3.5 12C3.5 16.9706 7.52944 21 12.5 21ZM14.2321 11C13.7953 10.2436 11.8861 8.908 10.787 8.17921C10.4534 7.95799 10.0228 8.20658 10.0476 8.60611C10.1292 9.92231 10.3312 12.2436 10.7679 13C11.2047 13.7564 13.1139 15.092 14.213 15.8208C14.5466 16.042 14.9772 15.7934 14.9524 15.3939C14.8708 14.0777 14.6688 11.7564 14.2321 11Z" fill="#FFD400" fill-opacity="0.5"/>
<path d="M10.787 8.17921L11.1186 7.67916L10.787 8.17921ZM14.2321 11L14.7517 10.7V10.7L14.2321 11ZM10.0476 8.60611L9.44875 8.64325V8.64325L10.0476 8.60611ZM10.7679 13L10.2483 13.3L10.7679 13ZM14.213 15.8208L14.5446 15.3207H14.5446L14.213 15.8208ZM14.9524 15.3939L14.3536 15.431V15.431L14.9524 15.3939ZM20.9 12C20.9 16.6392 17.1392 20.4 12.5 20.4V21.6C17.8019 21.6 22.1 17.3019 22.1 12H20.9ZM12.5 3.6C17.1392 3.6 20.9 7.36081 20.9 12H22.1C22.1 6.69807 17.8019 2.4 12.5 2.4V3.6ZM4.1 12C4.1 7.36081 7.86081 3.6 12.5 3.6V2.4C7.19807 2.4 2.9 6.69807 2.9 12H4.1ZM12.5 20.4C7.86081 20.4 4.1 16.6392 4.1 12H2.9C2.9 17.3019 7.19807 21.6 12.5 21.6V20.4ZM10.4554 8.67926C10.9998 9.04022 11.7378 9.54692 12.39 10.0532C12.7164 10.3066 13.014 10.5542 13.2524 10.7791C13.5002 11.0128 13.6486 11.1893 13.7124 11.3L14.7517 10.7C14.5972 10.4325 14.3432 10.1584 14.0758 9.90617C13.799 9.64512 13.4687 9.37148 13.1258 9.10529C12.4395 8.57248 11.6733 8.04699 11.1186 7.67916L10.4554 8.67926ZM10.6464 8.56897C10.6473 8.58304 10.644 8.60632 10.6307 8.63037C10.6184 8.65253 10.6013 8.66888 10.5829 8.6795C10.5645 8.69011 10.5418 8.69676 10.5165 8.69631C10.489 8.69581 10.4672 8.68705 10.4554 8.67926L11.1186 7.67916C10.372 7.18409 9.3933 7.74915 9.44875 8.64325L10.6464 8.56897ZM11.2876 12.7C11.2237 12.5893 11.145 12.3726 11.0665 12.0411C10.9909 11.7222 10.9253 11.3407 10.869 10.9313C10.7567 10.1134 10.6869 9.22086 10.6464 8.56897L9.44875 8.64325C9.48994 9.30756 9.56196 10.2338 9.6802 11.0946C9.73927 11.5247 9.81109 11.9476 9.8988 12.3178C9.98353 12.6754 10.0939 13.0325 10.2483 13.3L11.2876 12.7ZM14.5446 15.3207C14.0002 14.9598 13.2622 14.4531 12.61 13.9468C12.2836 13.6934 11.986 13.4458 11.7476 13.2209C11.4998 12.9872 11.3514 12.8107 11.2876 12.7L10.2483 13.3C10.4028 13.5675 10.6568 13.8416 10.9242 14.0938C11.201 14.3549 11.5313 14.6285 11.8742 14.8947C12.5605 15.4275 13.3267 15.953 13.8814 16.3208L14.5446 15.3207ZM14.3536 15.431C14.3527 15.417 14.356 15.3937 14.3693 15.3696C14.3816 15.3475 14.3987 15.3311 14.4171 15.3205C14.4355 15.3099 14.4582 15.3032 14.4835 15.3037C14.511 15.3042 14.5328 15.3129 14.5446 15.3207L13.8814 16.3208C14.628 16.8159 15.6067 16.2509 15.5513 15.3568L14.3536 15.431ZM13.7124 11.3C13.7763 11.4107 13.855 11.6274 13.9335 11.9589C14.0091 12.2778 14.0747 12.6593 14.131 13.0687C14.2433 13.8866 14.3131 14.7791 14.3536 15.431L15.5513 15.3568C15.5101 14.6924 15.438 13.7662 15.3198 12.9054C15.2607 12.4753 15.1889 12.0524 15.1012 11.6822C15.0165 11.3246 14.9061 10.9675 14.7517 10.7L13.7124 11.3Z" fill="#1A1A8D"/>
</svg>
