<svg width="25" height="24" viewBox="0 0 25 24" fill="none" xmlns="http://www.w3.org/2000/svg">
<circle cx="12.5" cy="12" r="9.5" stroke="#1A1A8D"/>
<path d="M9.04333 8.60832L10.992 13.4801C10.9971 13.4928 11.0072 13.5029 11.0199 13.508L15.8917 15.4567C15.9325 15.473 15.973 15.4325 15.9567 15.3917L14.008 10.5199C14.0029 10.5072 13.9928 10.4971 13.9801 10.492L9.10832 8.54333C9.06751 8.527 9.027 8.56751 9.04333 8.60832Z" stroke="#1A1A8D" stroke-linecap="round"/>
<path d="M13.5 11L11.5 13" stroke="#1A1A8D" stroke-linecap="round"/>
<path d="M11 7.5V4.62071C11 4.57617 11.0539 4.55386 11.0854 4.58536L13.9146 7.41464C13.9461 7.44614 14 7.42383 14 7.37929V4.5" stroke="#1A1A8D" stroke-linecap="round"/>
<path d="M14 16.5H11.5811C11.2602 16.5 11 16.7602 11 17.0811V17.0811C11 17.3313 11.1601 17.5534 11.3974 17.6325L13.6026 18.3675C13.8399 18.4466 14 18.6687 14 18.9189V18.9189C14 19.2398 13.7398 19.5 13.4189 19.5H11" stroke="#1A1A8D" stroke-linecap="round"/>
</svg>
