<svg width="25" height="24" viewBox="0 0 25 24" fill="none" xmlns="http://www.w3.org/2000/svg">
<path fill-rule="evenodd" clip-rule="evenodd" d="M12.5 22C18.0228 22 22.5 17.5228 22.5 12C22.5 6.47715 18.0228 2 12.5 2C6.97715 2 2.5 6.47715 2.5 12C2.5 17.5228 6.97715 22 12.5 22ZM15.0981 10.4999C14.5241 9.50566 11.5229 7.85497 10.1666 7.14526C9.85019 6.97969 9.47741 7.19492 9.46259 7.55171C9.39909 9.08112 9.32799 12.5057 9.90199 13.4999C10.476 14.4941 13.4773 16.1448 14.8335 16.8545C15.1499 17.02 15.5227 16.8048 15.5375 16.448C15.601 14.9186 15.6721 11.4941 15.0981 10.4999Z" fill="#1A1A8D"/>
</svg>
