<svg width="25" height="24" viewBox="0 0 25 24" fill="none" xmlns="http://www.w3.org/2000/svg">
<path d="M15.5 3H9.5C7.29086 3 5.5 4.79086 5.5 7V15" stroke="#1A1A8D"/>
<path d="M9 11.5C9 10.3156 9.00074 9.46912 9.07435 8.81625C9.14681 8.17346 9.28457 7.78051 9.51662 7.4781C9.64962 7.30477 9.80477 7.14962 9.9781 7.01662C10.2805 6.78457 10.6735 6.64681 11.3163 6.57435C11.9691 6.50074 12.8156 6.5 14 6.5C15.1844 6.5 16.0309 6.50074 16.6837 6.57435C17.3265 6.64681 17.7195 6.78457 18.0219 7.01662C18.1952 7.14962 18.3504 7.30477 18.4834 7.4781C18.7154 7.78051 18.8532 8.17346 18.9257 8.81625C18.9993 9.46912 19 10.3156 19 11.5V15.5C19 16.6844 18.9993 17.5309 18.9257 18.1837C18.8532 18.8265 18.7154 19.2195 18.4834 19.5219C18.3504 19.6952 18.1952 19.8504 18.0219 19.9834C17.7195 20.2154 17.3265 20.3532 16.6837 20.4257C16.0309 20.4993 15.1844 20.5 14 20.5C12.8156 20.5 11.9691 20.4993 11.3163 20.4257C10.6735 20.3532 10.2805 20.2154 9.9781 19.9834C9.80477 19.8504 9.64962 19.6952 9.51662 19.5219C9.28457 19.2195 9.14681 18.8265 9.07435 18.1837C9.00074 17.5309 9 16.6844 9 15.5V11.5Z" stroke="#1A1A8D"/>
</svg>
