<svg width="25" height="24" viewBox="0 0 25 24" fill="none" xmlns="http://www.w3.org/2000/svg">
<path fill-rule="evenodd" clip-rule="evenodd" d="M2.50174 10H22.4983C22.4862 7.82497 22.3897 6.64706 21.6213 5.87868C20.7426 5 19.3284 5 16.5 5H8.5C5.67157 5 4.25736 5 3.37868 5.87868C2.6103 6.64706 2.51384 7.82497 2.50174 10ZM22.5 12H2.5V14C2.5 16.8284 2.5 18.2426 3.37868 19.1213C4.25736 20 5.67157 20 8.5 20H16.5C19.3284 20 20.7426 20 21.6213 19.1213C22.5 18.2426 22.5 16.8284 22.5 14V12ZM7.5 15C6.94772 15 6.5 15.4477 6.5 16C6.5 16.5523 6.94772 17 7.5 17H7.51C8.06228 17 8.51 16.5523 8.51 16C8.51 15.4477 8.06228 15 7.51 15H7.5Z" fill="#1A1A8D"/>
</svg>
