<svg width="25" height="24" viewBox="0 0 25 24" fill="none" xmlns="http://www.w3.org/2000/svg">
<path d="M4 9.398C4 8.37292 4 7.86038 4.20266 7.47025C4.37343 7.14149 4.64149 6.87343 4.97025 6.70266C5.36038 6.5 5.87292 6.5 6.898 6.5H18.102C19.1271 6.5 19.6396 6.5 20.0298 6.70266C20.3585 6.87343 20.6266 7.14149 20.7973 7.47025C21 7.86038 21 8.37292 21 9.398V15.602C21 16.6271 21 17.1396 20.7973 17.5298C20.6266 17.8585 20.3585 18.1266 20.0298 18.2973C19.6396 18.5 19.1271 18.5 18.102 18.5H6.898C5.87292 18.5 5.36038 18.5 4.97025 18.2973C4.64149 18.1266 4.37343 17.8585 4.20266 17.5298C4 17.1396 4 16.6271 4 15.602V9.398Z" stroke="#1A1A8D"/>
<path d="M4 10.5L21 10.5" stroke="#1A1A8D" stroke-linecap="round"/>
<circle cx="7" cy="15.5" r="0.5" fill="#1A1A8D"/>
</svg>
