<svg width="25" height="24" viewBox="0 0 25 24" fill="none" xmlns="http://www.w3.org/2000/svg">
<path d="M3.5 10C3.5 8.11438 3.5 7.17157 4.08579 6.58579C4.67157 6 5.61438 6 7.5 6H17.5C19.3856 6 20.3284 6 20.9142 6.58579C21.5 7.17157 21.5 8.11438 21.5 10V14C21.5 15.8856 21.5 16.8284 20.9142 17.4142C20.3284 18 19.3856 18 17.5 18H7.5C5.61438 18 4.67157 18 4.08579 17.4142C3.5 16.8284 3.5 15.8856 3.5 14V10Z" fill="#FFD400" fill-opacity="0.5"/>
<circle cx="6.5" cy="15" r="1" fill="#1A1A8D"/>
<rect x="3.5" y="9" width="18" height="2" fill="#1A1A8D"/>
</svg>
