<svg width="25" height="24" viewBox="0 0 25 24" fill="none" xmlns="http://www.w3.org/2000/svg">
<path fill-rule="evenodd" clip-rule="evenodd" d="M19.0202 10.1858C19.1217 10.0843 19.2879 10.0888 19.3804 10.1985C20.6903 11.752 21.4394 13.7084 21.4961 15.7497C21.4999 15.8877 21.3876 15.9997 21.2496 15.9997H16.7445C16.6064 15.9997 16.4953 15.8877 16.4867 15.7499C16.4411 15.022 16.1973 14.3234 15.7859 13.7283C15.7143 13.6246 15.7224 13.4836 15.8115 13.3945L19.0202 10.1858ZM18.3004 9.11854C18.4102 9.21105 18.4146 9.37726 18.3131 9.47875L15.1044 12.6875C15.0153 12.7766 14.8743 12.7847 14.7707 12.7131C14.3045 12.391 13.7748 12.1716 13.2174 12.0698C13.0935 12.0471 12.9996 11.9417 12.9996 11.8157V7.27788C12.9996 7.13435 13.1202 7.01997 13.2632 7.03214C15.1173 7.18996 16.8778 7.91914 18.3004 9.11854ZM11.9996 7.27788C11.9996 7.13435 11.8789 7.01997 11.7359 7.03214C9.88179 7.18996 8.12134 7.91914 6.69868 9.11855C6.58894 9.21107 6.58451 9.37727 6.686 9.47876L9.89475 12.6875C9.98383 12.7766 10.1248 12.7847 10.2284 12.7131C10.6946 12.391 11.2243 12.1716 11.7817 12.0698C11.9056 12.0471 11.9996 11.9417 11.9996 11.8157V7.27788ZM9.21318 13.7283C9.28481 13.6246 9.27667 13.4836 9.18759 13.3946L5.97887 10.1858C5.87738 10.0844 5.71118 10.0888 5.61866 10.1985C4.3088 11.7521 3.55969 13.7084 3.50302 15.7497C3.49919 15.8877 3.61148 15.9997 3.74956 15.9997H8.25461C8.39268 15.9997 8.5038 15.8877 8.51243 15.7499C8.55801 15.022 8.80183 14.3234 9.21318 13.7283Z" fill="#FFD400" fill-opacity="0.5"/>
<path fill-rule="evenodd" clip-rule="evenodd" d="M13 11.8157C13 11.9417 13.0939 12.0471 13.2179 12.0698C13.7753 12.1716 14.3049 12.391 14.7711 12.7131C14.8748 12.7847 15.0157 12.7766 15.1048 12.6875L18.3135 9.47875C18.415 9.37726 18.4106 9.21105 18.3009 9.11854C16.8782 7.91914 15.1178 7.18996 13.2637 7.03214C13.1207 7.01997 13 7.13435 13 7.27788V11.8157Z" fill="#1A1A8D"/>
</svg>
