<svg width="25" height="24" viewBox="0 0 25 24" fill="none" xmlns="http://www.w3.org/2000/svg">
<path d="M21.5 16C21.5 13.6131 20.5518 11.3239 18.864 9.63604C17.1761 7.94821 14.8869 7 12.5 7C10.1131 7 7.82387 7.94821 6.13604 9.63604C4.44821 11.3239 3.5 13.6131 3.5 16L8.50506 16C8.50506 14.9405 8.92595 13.9243 9.67515 13.1751C10.4243 12.426 11.4405 12.0051 12.5 12.0051C13.5595 12.0051 14.5757 12.426 15.3249 13.1751C16.074 13.9243 16.4949 14.9405 16.4949 16H21.5Z" stroke="#1A1A8D" stroke-width="2"/>
<path d="M12.5 7L12.5 12" stroke="#1A1A8D" stroke-width="2"/>
<path d="M18.8643 9.63574L15.8643 12.6357" stroke="#1A1A8D" stroke-width="2"/>
<path d="M6.13574 9.63574L9.49986 12.9999" stroke="#1A1A8D" stroke-width="2"/>
</svg>
