<svg width="25" height="24" viewBox="0 0 25 24" fill="none" xmlns="http://www.w3.org/2000/svg">
<path fill-rule="evenodd" clip-rule="evenodd" d="M21.4444 15.0018C21.5056 15.5506 21.0522 15.9998 20.4999 15.9998H17.4948C16.9425 15.9998 16.5071 15.5452 16.3703 15.0102C16.2351 14.4815 15.9926 13.9843 15.656 13.5505L19.2074 9.99904C20.4576 11.3963 21.2375 13.1465 21.4444 15.0018ZM18.5003 9.29195C16.9786 7.93065 15.0384 7.12702 12.9999 7.01367V12.0362C13.71 12.1258 14.3833 12.4047 14.9488 12.8434L18.5003 9.29195ZM10.051 12.8435C10.6164 12.4047 11.2898 12.1258 11.9999 12.0362V7.01367C9.96131 7.12702 8.0211 7.93066 6.49944 9.29196L10.051 12.8435ZM5.79232 9.99905C4.54219 11.3963 3.76231 13.1465 3.55536 15.0018C3.49413 15.5506 3.9476 15.9998 4.49988 15.9998H7.50494C8.05722 15.9998 8.49262 15.5452 8.62944 15.0102C8.76462 14.4815 9.00718 13.9843 9.34381 13.5505L5.79232 9.99905Z" fill="#1A1A8D"/>
</svg>
