<svg width="25" height="24" viewBox="0 0 25 24" fill="none" xmlns="http://www.w3.org/2000/svg">
<path d="M5.5 8C9.68741 10.991 15.3126 10.991 19.5 8V18C15.1624 20.4786 9.83755 20.4786 5.5 18V8Z" fill="#FFD400" fill-opacity="0.5"/>
<ellipse cx="12.5" cy="7" rx="7" ry="3" stroke="#1A1A8D" stroke-width="1.2"/>
<path d="M5.5 13C5.5 13 5.5 15.3431 5.5 17C5.5 18.6569 8.63401 20 12.5 20C16.366 20 19.5 18.6569 19.5 17C19.5 16.173 19.5 13 19.5 13" stroke="#1A1A8D" stroke-width="1.2" stroke-linecap="square"/>
<path d="M5.5 7C5.5 7 5.5 10.3431 5.5 12C5.5 13.6569 8.63401 15 12.5 15C16.366 15 19.5 13.6569 19.5 12C19.5 11.173 19.5 7 19.5 7" stroke="#1A1A8D" stroke-width="1.2"/>
</svg>
