<svg width="25" height="24" viewBox="0 0 25 24" fill="none" xmlns="http://www.w3.org/2000/svg">
<path fill-rule="evenodd" clip-rule="evenodd" d="M20.5 9.70443C20.0463 10.0634 19.5503 10.3678 19.0513 10.6173C17.2096 11.5381 14.8521 12 12.5 12C10.1479 12 7.79044 11.5381 5.94872 10.6173C5.44966 10.3678 4.95372 10.0634 4.5 9.70443V12C4.5 13.0575 5.33807 14.0759 6.84315 14.8284C8.34341 15.5786 10.3782 16 12.5 16C14.6218 16 16.6566 15.5786 18.1569 14.8284C19.6619 14.0759 20.5 13.0575 20.5 12V9.70443ZM20.5 15.7044C20.0463 16.0634 19.5503 16.3678 19.0513 16.6173C17.2096 17.5381 14.8521 18 12.5 18C10.1479 18 7.79044 17.5381 5.94872 16.6173C5.44966 16.3678 4.95372 16.0634 4.5 15.7044V18C4.5 20.2091 8.08172 22 12.5 22C16.9183 22 20.5 20.2091 20.5 18V15.7044ZM20.5 6C20.5 3.79086 16.9183 2 12.5 2C8.08172 2 4.5 3.79086 4.5 6C4.5 7.0575 5.33807 8.07589 6.84315 8.82843C8.34341 9.57856 10.3782 10 12.5 10C14.6218 10 16.6566 9.57856 18.1569 8.82843C19.6619 8.07589 20.5 7.0575 20.5 6Z" fill="#1A1A8D"/>
</svg>
