<svg width="25" height="24" viewBox="0 0 25 24" fill="none" xmlns="http://www.w3.org/2000/svg">
<ellipse cx="12.5" cy="6" rx="7" ry="3" stroke="#1A1A8D"/>
<path d="M19.5 18C19.5 18.394 19.3189 18.7841 18.9672 19.1481C18.6154 19.512 18.0998 19.8427 17.4497 20.1213C16.7997 20.3999 16.0281 20.6209 15.1788 20.7716C14.3295 20.9224 13.4193 21 12.5 21C11.5807 21 10.6705 20.9224 9.82122 20.7716C8.97194 20.6209 8.20026 20.3999 7.55025 20.1213C6.90024 19.8427 6.38463 19.512 6.03284 19.1481C5.68106 18.7841 5.5 18.394 5.5 18" stroke="#1A1A8D"/>
<path d="M19.5 6V18" stroke="#1A1A8D"/>
<path d="M5.5 6V18" stroke="#1A1A8D"/>
</svg>
