<svg width="25" height="24" viewBox="0 0 25 24" fill="none" xmlns="http://www.w3.org/2000/svg">
<path d="M2.5 9C2.5 7.11438 2.5 6.17157 3.08579 5.58579C3.67157 5 4.61438 5 6.5 5H18.5C20.3856 5 21.3284 5 21.9142 5.58579C22.5 6.17157 22.5 7.11438 22.5 9C22.5 9.4714 22.5 9.70711 22.3536 9.85355C22.2071 10 21.9714 10 21.5 10H3.5C3.0286 10 2.79289 10 2.64645 9.85355C2.5 9.70711 2.5 9.4714 2.5 9Z" fill="#1A1A8D"/>
<path fill-rule="evenodd" clip-rule="evenodd" d="M2.5 18C2.5 19.8856 2.5 20.8284 3.08579 21.4142C3.67157 22 4.61438 22 6.5 22H18.5C20.3856 22 21.3284 22 21.9142 21.4142C22.5 20.8284 22.5 19.8856 22.5 18V13C22.5 12.5286 22.5 12.2929 22.3536 12.1464C22.2071 12 21.9714 12 21.5 12H3.5C3.0286 12 2.79289 12 2.64645 12.1464C2.5 12.2929 2.5 12.5286 2.5 13V18ZM7.5 15C7.5 14.5286 7.5 14.2929 7.64645 14.1464C7.79289 14 8.0286 14 8.5 14H10.5C10.9714 14 11.2071 14 11.3536 14.1464C11.5 14.2929 11.5 14.5286 11.5 15C11.5 15.4714 11.5 15.7071 11.3536 15.8536C11.2071 16 10.9714 16 10.5 16H8.5C8.0286 16 7.79289 16 7.64645 15.8536C7.5 15.7071 7.5 15.4714 7.5 15ZM7.64645 18.1464C7.5 18.2929 7.5 18.5286 7.5 19C7.5 19.4714 7.5 19.7071 7.64645 19.8536C7.79289 20 8.0286 20 8.5 20H10.5C10.9714 20 11.2071 20 11.3536 19.8536C11.5 19.7071 11.5 19.4714 11.5 19C11.5 18.5286 11.5 18.2929 11.3536 18.1464C11.2071 18 10.9714 18 10.5 18H8.5C8.0286 18 7.79289 18 7.64645 18.1464ZM13.5 15C13.5 14.5286 13.5 14.2929 13.6464 14.1464C13.7929 14 14.0286 14 14.5 14H16.5C16.9714 14 17.2071 14 17.3536 14.1464C17.5 14.2929 17.5 14.5286 17.5 15C17.5 15.4714 17.5 15.7071 17.3536 15.8536C17.2071 16 16.9714 16 16.5 16H14.5C14.0286 16 13.7929 16 13.6464 15.8536C13.5 15.7071 13.5 15.4714 13.5 15ZM13.6464 18.1464C13.5 18.2929 13.5 18.5286 13.5 19C13.5 19.4714 13.5 19.7071 13.6464 19.8536C13.7929 20 14.0286 20 14.5 20H16.5C16.9714 20 17.2071 20 17.3536 19.8536C17.5 19.7071 17.5 19.4714 17.5 19C17.5 18.5286 17.5 18.2929 17.3536 18.1464C17.2071 18 16.9714 18 16.5 18H14.5C14.0286 18 13.7929 18 13.6464 18.1464Z" fill="#1A1A8D"/>
<path d="M7.5 3L7.5 6" stroke="#1A1A8D" stroke-width="2" stroke-linecap="round"/>
<path d="M17.5 3L17.5 6" stroke="#1A1A8D" stroke-width="2" stroke-linecap="round"/>
</svg>
