<svg width="25" height="24" viewBox="0 0 25 24" fill="none" xmlns="http://www.w3.org/2000/svg">
<path fill-rule="evenodd" clip-rule="evenodd" d="M7.5 4.01833C6.96047 4.04114 6.57192 4.09237 6.22883 4.20736C5.03947 4.60599 4.10599 5.53947 3.70736 6.72883C3.5 7.3475 3.5 8.11402 3.5 9.64706C3.5 9.74287 3.5 9.79078 3.51296 9.82945C3.53787 9.90378 3.59622 9.96213 3.67055 9.98704C3.70922 10 3.75713 10 3.85294 10H21.1471C21.2429 10 21.2908 10 21.3294 9.98704C21.4038 9.96213 21.4621 9.90378 21.487 9.82945C21.5 9.79078 21.5 9.74287 21.5 9.64706C21.5 8.11402 21.5 7.3475 21.2926 6.72883C20.894 5.53947 19.9605 4.60599 18.7712 4.20736C18.4281 4.09237 18.0395 4.04114 17.5 4.01833L17.5 6.5C17.5 7.32843 16.8284 8 16 8C15.1716 8 14.5 7.32843 14.5 6.5L14.5 4H10.5L10.5 6.5C10.5 7.32843 9.82843 8 9.00001 8C8.17158 8 7.5 7.32843 7.5 6.5L7.5 4.01833Z" fill="#1A1A8D"/>
<path d="M3.5 11.5C3.5 11.2643 3.5 11.1464 3.57322 11.0732C3.64645 11 3.7643 11 4 11H21C21.2357 11 21.3536 11 21.4268 11.0732C21.5 11.1464 21.5 11.2643 21.5 11.5V12C21.5 15.7712 21.5 17.6569 20.3284 18.8284C19.1569 20 17.2712 20 13.5 20H11.5C7.72876 20 5.84315 20 4.67157 18.8284C3.5 17.6569 3.5 15.7712 3.5 12V11.5Z" fill="#FFD400" fill-opacity="0.5"/>
<path d="M9 2.5L9 6.5" stroke="#1A1A8D" stroke-linecap="round"/>
<path d="M16 2.5L16 6.5" stroke="#1A1A8D" stroke-linecap="round"/>
</svg>
