<svg width="25" height="24" viewBox="0 0 25 24" fill="none" xmlns="http://www.w3.org/2000/svg">
<path d="M17.5038 17.9792L19.2155 8.56456C19.3322 7.9227 19.3906 7.60178 19.2282 7.51633C19.0659 7.43088 18.8344 7.66067 18.3714 8.12025L17.485 9L12.5 10L7.49621 9L6.63263 8.13478C6.16847 7.66974 5.93639 7.43722 5.77345 7.5225C5.6105 7.60778 5.66927 7.931 5.78681 8.57744L7.49621 17.9792C7.49868 17.9927 7.50522 18.0052 7.51497 18.015C10.2681 20.7681 14.7319 20.7681 17.485 18.015C17.4948 18.0052 17.5013 17.9927 17.5038 17.9792Z" fill="#FFD400" fill-opacity="0.5"/>
<ellipse cx="12.5" cy="7" rx="7" ry="3" stroke="#1A1A8D" stroke-width="1.2" stroke-linecap="round"/>
<path d="M5.5 7L7.49621 17.9792C7.49868 17.9927 7.50522 18.0052 7.51497 18.015V18.015C10.2681 20.7681 14.7319 20.7681 17.485 18.015V18.015C17.4948 18.0052 17.5013 17.9927 17.5038 17.9792L19.5 7" stroke="#1A1A8D" stroke-width="1.2" stroke-linecap="round"/>
</svg>
