<svg width="25" height="24" viewBox="0 0 25 24" fill="none" xmlns="http://www.w3.org/2000/svg">
<path d="M16.5 3L16.5 6M8.5 3L8.5 6" stroke="#1A1A8D" stroke-width="2" stroke-linecap="round"/>
<path fill-rule="evenodd" clip-rule="evenodd" d="M14.5 4H10.5L10.5 6C10.5 7.10457 9.60457 8 8.5 8C7.39543 8 6.5 7.10457 6.5 6L6.5 4.07612C5.52492 4.17203 4.86857 4.38879 4.37868 4.87868C3.5 5.75736 3.5 7.17157 3.5 10V15C3.5 17.8284 3.5 19.2426 4.37868 20.1213C5.25736 21 6.67157 21 9.5 21H15.5C18.3284 21 19.7426 21 20.6213 20.1213C21.5 19.2426 21.5 17.8284 21.5 15V10C21.5 7.17157 21.5 5.75736 20.6213 4.87868C20.1314 4.38879 19.4751 4.17203 18.5 4.07612L18.5 6C18.5 7.10457 17.6046 8 16.5 8C15.3954 8 14.5 7.10457 14.5 6L14.5 4ZM7.5 12C7.5 11.4477 7.94772 11 8.5 11L16.5 11C17.0523 11 17.5 11.4477 17.5 12C17.5 12.5523 17.0523 13 16.5 13L8.5 13C7.94772 13 7.5 12.5523 7.5 12ZM8.5 15C7.94772 15 7.5 15.4477 7.5 16C7.5 16.5523 7.94772 17 8.5 17L16.5 17C17.0523 17 17.5 16.5523 17.5 16C17.5 15.4477 17.0523 15 16.5 15L8.5 15Z" fill="#1A1A8D"/>
</svg>
