<svg width="25" height="24" viewBox="0 0 25 24" fill="none" xmlns="http://www.w3.org/2000/svg">
<path fill-rule="evenodd" clip-rule="evenodd" d="M8.5 5.30872C8.5 5.1649 8.5 5.09299 8.45455 5.04881C8.4091 5.00463 8.33786 5.00666 8.1954 5.01071C7.14243 5.04065 6.51726 5.15431 6.08579 5.58579C5.5 6.17157 5.5 7.11438 5.5 9V16C5.5 17.8856 5.5 18.8284 6.08579 19.4142C6.67157 20 7.61438 20 9.5 20H15.5C17.3856 20 18.3284 20 18.9142 19.4142C19.5 18.8284 19.5 17.8856 19.5 16V9C19.5 7.11438 19.5 6.17157 18.9142 5.58579C18.4827 5.15431 17.8576 5.04065 16.8046 5.01071C16.6621 5.00666 16.5909 5.00463 16.5455 5.04881C16.5 5.09299 16.5 5.1649 16.5 5.30872V6.5C16.5 7.32843 15.8284 8 15 8C14.1716 8 13.5 7.32843 13.5 6.5V5.3C13.5 5.15858 13.5 5.08787 13.4561 5.04393C13.4121 5 13.3414 5 13.2 5H11.8C11.6586 5 11.5879 5 11.5439 5.04393C11.5 5.08787 11.5 5.15858 11.5 5.3V6.5C11.5 7.32843 10.8284 8 10 8C9.17157 8 8.5 7.32843 8.5 6.5V5.30872Z" fill="#FFD400" fill-opacity="0.5"/>
<path d="M10 3.5V6.5" stroke="#1A1A8D" stroke-linecap="round"/>
<path d="M15 3.5V6.5" stroke="#1A1A8D" stroke-linecap="round"/>
<path d="M10 10.5L15 10.5" stroke="#1A1A8D" stroke-linecap="round"/>
<path d="M10 13.5L15 13.5" stroke="#1A1A8D" stroke-linecap="round"/>
<path d="M10 16.5L15 16.5" stroke="#1A1A8D" stroke-linecap="round"/>
</svg>
