<svg width="25" height="24" viewBox="0 0 25 24" fill="none" xmlns="http://www.w3.org/2000/svg">
<rect x="6.5" y="5" width="12" height="15" rx="2" fill="#FFD400" fill-opacity="0.5"/>
<path d="M10 9.5L15 9.5" stroke="#1A1A8D" stroke-linecap="round"/>
<path d="M10 12.5L15 12.5" stroke="#1A1A8D" stroke-linecap="round"/>
<path d="M10 15.5L15 15.5" stroke="#1A1A8D" stroke-linecap="round"/>
<path d="M8.5 4.86957C8.5 4.38932 8.88932 4 9.36957 4H15.6304C16.1107 4 16.5 4.38932 16.5 4.86957C16.5 4.9416 16.4416 5 16.3696 5H16C15.7239 5 15.5 5.22386 15.5 5.5V5.85C15.5 5.93284 15.4328 6 15.35 6H9.65C9.56716 6 9.5 5.93284 9.5 5.85V5.5C9.5 5.22386 9.27614 5 9 5H8.63043C8.5584 5 8.5 4.9416 8.5 4.86957Z" fill="#1A1A8D"/>
</svg>
