<svg width="25" height="24" viewBox="0 0 25 24" fill="none" xmlns="http://www.w3.org/2000/svg">
<path d="M4.5 8C4.5 7.02892 4.50212 6.40121 4.56431 5.9387C4.62262 5.50496 4.71677 5.36902 4.79289 5.29289C4.86902 5.21677 5.00496 5.12262 5.4387 5.06431C5.90121 5.00212 6.52892 5 7.5 5H17.5C18.4711 5 19.0988 5.00212 19.5613 5.06431C19.995 5.12262 20.131 5.21677 20.2071 5.29289C20.2832 5.36902 20.3774 5.50496 20.4357 5.9387C20.4979 6.40121 20.5 7.02892 20.5 8V16H4.5V8Z" stroke="#1A1A8D" stroke-width="2"/>
<path d="M4.16667 16C3.24619 16 2.5 16.7462 2.5 17.6667C2.5 18.9553 3.54467 20 4.83333 20H20.1667C21.4553 20 22.5 18.9553 22.5 17.6667C22.5 16.7462 21.7538 16 20.8333 16H4.16667Z" stroke="#1A1A8D" stroke-width="2"/>
</svg>
