<svg width="25" height="24" viewBox="0 0 25 24" fill="none" xmlns="http://www.w3.org/2000/svg">
<path fill-rule="evenodd" clip-rule="evenodd" d="M10.5 2C8.84315 2 7.5 3.34315 7.5 5V5.00068C6.42115 5.00539 5.82954 5.04261 5.38886 5.33706C5.17048 5.48298 4.98298 5.67048 4.83706 5.88886C4.5 6.39331 4.5 7.09554 4.5 8.5V18C4.5 19.8856 4.5 20.8284 5.08579 21.4142C5.67157 22 6.61438 22 8.5 22H16.5C18.3856 22 19.3284 22 19.9142 21.4142C20.5 20.8284 20.5 19.8856 20.5 18V8.5C20.5 7.09554 20.5 6.39331 20.1629 5.88886C20.017 5.67048 19.8295 5.48298 19.6111 5.33706C19.1705 5.04261 18.5789 5.00539 17.5 5.00068V5C17.5 3.34315 16.1569 2 14.5 2H10.5ZM10.5 5C10.5 4.44772 10.9477 4 11.5 4H13.5C14.0523 4 14.5 4.44772 14.5 5C14.5 5.55228 14.0523 6 13.5 6H11.5C10.9477 6 10.5 5.55228 10.5 5ZM9.5 11C8.94772 11 8.5 11.4477 8.5 12C8.5 12.5523 8.94772 13 9.5 13H15.5C16.0523 13 16.5 12.5523 16.5 12C16.5 11.4477 16.0523 11 15.5 11H9.5ZM9.5 15C8.94772 15 8.5 15.4477 8.5 16C8.5 16.5523 8.94772 17 9.5 17H13.5C14.0523 17 14.5 16.5523 14.5 16C14.5 15.4477 14.0523 15 13.5 15H9.5Z" fill="#1A1A8D"/>
</svg>
