<svg width="25" height="24" viewBox="0 0 25 24" fill="none" xmlns="http://www.w3.org/2000/svg">
<path d="M4.5 7.80985C4.5 7.05613 4.5 6.67926 4.60029 6.37461C4.79878 5.77169 5.27169 5.29878 5.87461 5.10029C6.17926 5 6.55613 5 7.30985 5C7.63404 5 7.79614 5 7.93364 5.04022C8.20521 5.11967 8.43042 5.31045 8.55343 5.56527C8.61571 5.69429 8.64236 5.85418 8.69566 6.17396L8.75 6.5C8.85527 7.13161 8.9079 7.44741 9.09795 7.66237C9.16164 7.73441 9.2354 7.79689 9.31694 7.84788C9.56021 8 9.88037 8 10.5207 8H14.4793C15.1196 8 15.4398 8 15.6831 7.84788C15.7646 7.79689 15.8384 7.73441 15.9021 7.66237C16.0921 7.44741 16.1447 7.13161 16.25 6.5L16.3043 6.17396C16.3576 5.85418 16.3843 5.69429 16.4466 5.56527C16.5696 5.31045 16.7948 5.11967 17.0664 5.04022C17.2039 5 17.366 5 17.6902 5C18.4439 5 18.8207 5 19.1254 5.10029C19.7283 5.29878 20.2012 5.77169 20.3997 6.37461C20.5 6.67926 20.5 7.05613 20.5 7.80985V17C20.5 18.8856 20.5 19.8284 19.9142 20.4142C19.3284 21 18.3856 21 16.5 21H8.5C6.61438 21 5.67157 21 5.08579 20.4142C4.5 19.8284 4.5 18.8856 4.5 17V7.80985Z" fill="#FFD400" fill-opacity="0.5"/>
<rect x="4.5" y="5" width="16" height="16" rx="2" stroke="#1A1A8D" stroke-width="1.2"/>
<path d="M16.5 2L16.5 6C16.5 6.94281 16.5 7.41421 16.2071 7.7071C15.9142 8 15.4428 8 14.5 8L10.5 8C9.55719 8 9.08579 8 8.79289 7.70711C8.5 7.41421 8.5 6.94281 8.5 6L8.5 2" stroke="#1A1A8D" stroke-width="1.2" stroke-linecap="round"/>
<path d="M9.5 14L15.5 14" stroke="#1A1A8D" stroke-width="1.2" stroke-linecap="round"/>
</svg>
