<svg width="25" height="24" viewBox="0 0 25 24" fill="none" xmlns="http://www.w3.org/2000/svg">
<path d="M5.37403 12.874L11.0858 18.5858C11.7525 19.2525 12.0858 19.5858 12.5 19.5858C12.9142 19.5858 13.2475 19.2525 13.9142 18.5858L19.626 12.874C20.0512 12.4488 20.2639 12.2361 20.3291 11.9597C20.3944 11.6832 20.2993 11.3979 20.1091 10.8274L19.4117 8.73509C18.9717 7.41505 18.7517 6.75503 18.2279 6.37752C17.7041 6 17.0084 6 15.617 6H9.38304C7.99159 6 7.29587 6 6.7721 6.37752C6.24832 6.75503 6.02832 7.41505 5.5883 8.73509L4.89088 10.8274C4.7007 11.3979 4.60561 11.6832 4.67087 11.9597C4.73614 12.2361 4.94877 12.4488 5.37403 12.874Z" stroke="#1A1A8D" stroke-linecap="round"/>
</svg>
