<svg width="25" height="24" viewBox="0 0 25 24" fill="none" xmlns="http://www.w3.org/2000/svg">
<path d="M6.24806 13.7481L11.0858 18.5858C11.7525 19.2525 12.0858 19.5858 12.5 19.5858C12.9142 19.5858 13.2475 19.2525 13.9142 18.5858L18.7519 13.7481C19.6025 12.8975 20.0277 12.4723 20.1583 11.9193C20.2888 11.3664 20.0986 10.7958 19.7182 9.65473L19.4117 8.73509C18.9717 7.41505 18.7517 6.75503 18.2279 6.37752C17.7041 6 17.0084 6 15.617 6H9.38304C7.99159 6 7.29587 6 6.7721 6.37752C6.24832 6.75503 6.02832 7.41505 5.5883 8.73509L5.28176 9.65473C4.90139 10.7958 4.71121 11.3664 4.84175 11.9193C4.97228 12.4723 5.39754 12.8975 6.24806 13.7481Z" fill="#1A1A8D"/>
</svg>
