<svg width="27" height="24" viewBox="0 0 27 24" fill="none" xmlns="http://www.w3.org/2000/svg">
<path d="M18.0479 7.26651C18.7473 6.41162 18.6213 5.15157 17.7664 4.45212C16.9116 3.75266 15.6515 3.87866 14.9521 4.73355L7.16615 14.2497L4.69997 12.4C3.81631 11.7373 2.56271 11.9164 1.89997 12.8C1.23723 13.6837 1.41631 14.9373 2.29997 15.6L5.53306 18.0248C6.81913 18.9894 8.63694 18.7688 9.65493 17.5246L18.0479 7.26651Z" stroke="#1A1A8D" stroke-width="2" stroke-linecap="round"/>
<mask id="path-2-outside-1_2_3453" maskUnits="userSpaceOnUse" x="9.36914" y="3" width="18" height="17" fill="black">
<rect fill="white" x="9.36914" y="3" width="18" height="17"/>
<path fill-rule="evenodd" clip-rule="evenodd" d="M12.3691 16.5761L13.1028 17.163C13.9586 17.8477 15.2061 17.716 15.9001 16.8678L24.2738 6.63327C24.6235 6.20582 24.5605 5.5758 24.133 5.22607C23.7056 4.87635 23.0756 4.93935 22.7259 5.36679L14.3522 15.6013L13.6357 15.0281L12.3691 16.5761Z"/>
</mask>
<path d="M13.1028 17.163L11.8534 18.7248L11.8534 18.7248L13.1028 17.163ZM12.3691 16.5761L10.8212 15.3096L9.54076 16.8747L11.1197 18.1379L12.3691 16.5761ZM15.9001 16.8678L14.3522 15.6013H14.3522L15.9001 16.8678ZM24.2738 6.63327L22.7259 5.36679V5.36679L24.2738 6.63327ZM24.133 5.22607L22.8666 6.77399H22.8666L24.133 5.22607ZM22.7259 5.36679L21.1779 4.10032L22.7259 5.36679ZM14.3522 15.6013L13.1028 17.163L14.6475 18.3988L15.9001 16.8678L14.3522 15.6013ZM13.6357 15.0281L14.8851 13.4664L13.3404 12.2306L12.0878 13.7616L13.6357 15.0281ZM14.3522 15.6013L13.6185 15.0144L11.1197 18.1379L11.8534 18.7248L14.3522 15.6013ZM14.3522 15.6013L14.3522 15.6013L11.8534 18.7248C13.565 20.0941 16.0599 19.8308 17.448 18.1342L14.3522 15.6013ZM22.7259 5.36679L14.3522 15.6013L17.448 18.1342L25.8217 7.89974L22.7259 5.36679ZM22.8666 6.77399C22.4391 6.42426 22.3761 5.79424 22.7259 5.36679L25.8217 7.89974C26.8709 6.61741 26.6819 4.72734 25.3995 3.67816L22.8666 6.77399ZM24.2738 6.63327C23.924 7.06071 23.294 7.12372 22.8666 6.77399L25.3995 3.67816C24.1172 2.62898 22.2271 2.81798 21.1779 4.10032L24.2738 6.63327ZM15.9001 16.8678L24.2738 6.63327L21.1779 4.10032L12.8043 14.3348L15.9001 16.8678ZM12.3863 16.5898L13.1028 17.163L15.6016 14.0396L14.8851 13.4664L12.3863 16.5898ZM12.0878 13.7616L10.8212 15.3096L13.9171 17.8426L15.1836 16.2946L12.0878 13.7616Z" fill="#1A1A8D" mask="url(#path-2-outside-1_2_3453)"/>
</svg>
