<svg width="25" height="24" viewBox="0 0 25 24" fill="none" xmlns="http://www.w3.org/2000/svg">
<path d="M8.5 13L12.7277 16.3821C13.1556 16.7245 13.7793 16.6586 14.1263 16.2345L22.5 6" stroke="#1A1A8D" stroke-linecap="round"/>
<path fill-rule="evenodd" clip-rule="evenodd" d="M11.3051 11.9167L15.887 6.31663C16.0619 6.10291 16.0304 5.7879 15.8166 5.61304C15.6029 5.43817 15.2879 5.46967 15.1131 5.6834L10.5369 11.2765L11.3051 11.9167ZM8.13882 15.7866L7.37057 15.1464L6.7201 15.9415C6.55043 16.1488 6.24746 16.1856 6.03312 16.0248L2.80003 13.6C2.57912 13.4343 2.26571 13.4791 2.10003 13.7C1.93434 13.9209 1.97912 14.2343 2.20003 14.4L5.43312 16.8248C6.07616 17.3071 6.98506 17.1968 7.49406 16.5747L8.13882 15.7866Z" fill="#1A1A8D"/>
</svg>
