<svg width="25" height="24" viewBox="0 0 25 24" fill="none" xmlns="http://www.w3.org/2000/svg">
<path d="M9.5 10L12.7581 12.4436C13.1766 12.7574 13.7662 12.6957 14.1107 12.3021L20.5 5" stroke="#1A1A8D" stroke-width="2" stroke-linecap="round"/>
<path d="M21.5 12C21.5 13.8805 20.911 15.7137 19.8156 17.2423C18.7203 18.7709 17.1736 19.9179 15.393 20.5224C13.6123 21.1268 11.687 21.1583 9.88744 20.6125C8.08792 20.0666 6.50459 18.9707 5.35982 17.4789C4.21505 15.987 3.56635 14.174 3.50482 12.2945C3.44329 10.415 3.97203 8.56344 5.01677 6.99987C6.06152 5.4363 7.56979 4.23925 9.32975 3.57685C11.0897 2.91444 13.013 2.81996 14.8294 3.30667" stroke="#1A1A8D" stroke-width="2" stroke-linecap="round"/>
</svg>
