<svg width="27" height="24" viewBox="0 0 27 24" fill="none" xmlns="http://www.w3.org/2000/svg">
<path d="M25.0479 7.26651C25.7473 6.41162 25.6213 5.15157 24.7664 4.45212C23.9116 3.75266 22.6515 3.87866 21.9521 4.73355L14.2047 14.2026L10.7494 11.4383C9.88684 10.7483 8.62825 10.8881 7.93823 11.7506C7.24821 12.6132 7.38806 13.8717 8.25058 14.5618L12.4782 17.9439C13.762 18.9709 15.6332 18.7734 16.6742 17.501L25.0479 7.26651Z" stroke="#1A1A8D" stroke-width="2" stroke-linecap="round"/>
<mask id="path-2-outside-1_2_3428" maskUnits="userSpaceOnUse" x="-0.5" y="3" width="21" height="17" fill="black">
<rect fill="white" x="-0.5" y="3" width="21" height="17"/>
<path fill-rule="evenodd" clip-rule="evenodd" d="M13.3226 11.4628L17.274 6.63327C17.6237 6.20582 17.5607 5.5758 17.1333 5.22607C16.7059 4.87635 16.0758 4.93935 15.7261 5.36679L11.7861 10.1824L13.3226 11.4628ZM8.88972 16.8807L7.35321 15.6003L7.33315 15.6248L4.10006 13.2C3.65823 12.8687 3.03143 12.9582 2.70006 13.4C2.36869 13.8419 2.45823 14.4687 2.90006 14.8L6.13315 17.2248C6.99053 17.8679 8.2024 17.7208 8.88106 16.8913L8.88972 16.8807Z"/>
</mask>
<path d="M17.274 6.63327L15.7261 5.36679V5.36679L17.274 6.63327ZM13.3226 11.4628L12.0422 12.9993L13.5925 14.2912L14.8705 12.7293L13.3226 11.4628ZM17.1333 5.22607L15.8668 6.77399H15.8668L17.1333 5.22607ZM15.7261 5.36679L17.274 6.63327L15.7261 5.36679ZM11.7861 10.1824L10.2381 8.91593L8.98302 10.45L10.5057 11.7188L11.7861 10.1824ZM8.88972 16.8807L10.4376 18.1472L11.6927 16.6132L10.1701 15.3443L8.88972 16.8807ZM7.35321 15.6003L8.63358 14.0639L7.08322 12.7719L5.80528 14.3339L7.35321 15.6003ZM7.33315 15.6248L6.13315 17.2248L7.66698 18.3752L8.88107 16.8913L7.33315 15.6248ZM4.10006 13.2L2.90006 14.8L2.90006 14.8L4.10006 13.2ZM2.70006 13.4L1.10006 12.2L2.70006 13.4ZM2.90006 14.8L4.10006 13.2L4.10006 13.2L2.90006 14.8ZM6.13315 17.2248L4.93315 18.8248L4.93315 18.8248L6.13315 17.2248ZM8.88106 16.8913L10.429 18.1578L10.429 18.1578L8.88106 16.8913ZM15.7261 5.36679L11.7746 10.1963L14.8705 12.7293L18.8219 7.89974L15.7261 5.36679ZM15.8668 6.77399C15.4394 6.42426 15.3764 5.79424 15.7261 5.36679L18.8219 7.89974C19.8711 6.61741 19.6821 4.72734 18.3998 3.67816L15.8668 6.77399ZM17.274 6.63327C16.9243 7.06071 16.2943 7.12372 15.8668 6.77399L18.3998 3.67816C17.1174 2.62898 15.2274 2.81798 14.1782 4.10032L17.274 6.63327ZM13.334 11.4489L17.274 6.63327L14.1782 4.10032L10.2381 8.91593L13.334 11.4489ZM10.5057 11.7188L12.0422 12.9993L14.6029 9.92638L13.0664 8.64596L10.5057 11.7188ZM10.1701 15.3443L8.63358 14.0639L6.07284 17.1368L7.60935 18.4172L10.1701 15.3443ZM8.88107 16.8913L8.90114 16.8668L5.80528 14.3339L5.78522 14.3584L8.88107 16.8913ZM2.90006 14.8L6.13315 17.2248L8.53315 14.0248L5.30006 11.6L2.90006 14.8ZM4.30006 14.6C3.96869 15.0419 3.34189 15.1314 2.90006 14.8L5.30006 11.6C3.97457 10.6059 2.09417 10.8745 1.10006 12.2L4.30006 14.6ZM4.10006 13.2C4.54189 13.5314 4.63143 14.1582 4.30006 14.6L1.10006 12.2C0.105947 13.5255 0.374575 15.4059 1.70006 16.4L4.10006 13.2ZM7.33315 15.6248L4.10006 13.2L1.70006 16.4L4.93315 18.8248L7.33315 15.6248ZM7.33315 15.6248H7.33315L4.93315 18.8248C6.64791 20.1109 9.07166 19.8167 10.429 18.1578L7.33315 15.6248ZM7.34179 15.6143L7.33314 15.6249L10.429 18.1578L10.4376 18.1472L7.34179 15.6143Z" fill="#1A1A8D" mask="url(#path-2-outside-1_2_3428)"/>
</svg>
