<svg width="25" height="24" viewBox="0 0 25 24" fill="none" xmlns="http://www.w3.org/2000/svg">
<path d="M8.5 13L12.7277 16.3821C13.1556 16.7245 13.7793 16.6586 14.1263 16.2345L22.5 6" stroke="#1A1A8D" stroke-width="2" stroke-linecap="round"/>
<path fill-rule="evenodd" clip-rule="evenodd" d="M11.6893 12.2368L16.274 6.63327C16.6237 6.20582 16.5607 5.5758 16.1333 5.22607C15.7059 4.87635 15.0758 4.93935 14.7261 5.36679L10.1528 10.9564L11.6893 12.2368ZM8.52298 16.1068L6.98647 14.8263L6.33315 15.6248L3.10006 13.2C2.65823 12.8687 2.03143 12.9582 1.70006 13.4C1.36869 13.8419 1.45823 14.4687 1.90006 14.8L5.13315 17.2248C5.99053 17.8679 7.2024 17.7208 7.88106 16.8913L8.52298 16.1068Z" fill="#1A1A8D"/>
</svg>
