<svg width="25" height="24" viewBox="0 0 25 24" fill="none" xmlns="http://www.w3.org/2000/svg">
<path d="M8.5 13L12.7277 16.3821C13.1556 16.7245 13.7793 16.6586 14.1263 16.2345L22.5 6" stroke="#1A1A8D" stroke-width="1.2" stroke-linecap="round"/>
<path fill-rule="evenodd" clip-rule="evenodd" d="M11.0657 12.3676L15.9648 6.37986C16.1746 6.1234 16.1368 5.74538 15.8804 5.53555C15.6239 5.32571 15.2459 5.36351 15.0361 5.61998L10.1438 11.5994L11.0657 12.3676ZM8.53268 15.4636L7.61077 14.6953L6.6431 15.878C6.50737 16.0439 6.26499 16.0733 6.09352 15.9447L2.86043 13.5199C2.59533 13.3211 2.21925 13.3748 2.02043 13.6399C1.8216 13.905 1.87533 14.2811 2.14043 14.4799L5.37352 16.9047C6.05942 17.4192 7.02892 17.3015 7.57185 16.6379L8.53268 15.4636Z" fill="#FFD400" fill-opacity="0.5"/>
</svg>
