<svg width="25" height="24" viewBox="0 0 25 24" fill="none" xmlns="http://www.w3.org/2000/svg">
<circle cx="12.5" cy="12" r="8" fill="#FFD400" fill-opacity="0.5"/>
<path d="M9 11L11.8939 13.8939C11.9525 13.9525 12.0475 13.9525 12.1061 13.8939L20 6" stroke="#1A1A8D" stroke-width="1.2"/>
<path d="M19.8578 10.5465C20.1899 12.2277 19.9363 13.9719 19.1391 15.4889C18.3419 17.0059 17.0493 18.2041 15.4763 18.8842C13.9033 19.5642 12.1449 19.6851 10.4937 19.2267C8.84247 18.7682 7.39803 17.7582 6.40077 16.3646C5.40351 14.9709 4.91358 13.2778 5.01251 11.567C5.11144 9.85619 5.79327 8.23085 6.94453 6.96147C8.09578 5.6921 9.64703 4.85527 11.3401 4.59024C13.0331 4.32521 14.7659 4.64797 16.25 5.50481" stroke="#1A1A8D" stroke-linecap="round"/>
</svg>
