<svg width="25" height="24" viewBox="0 0 25 24" fill="none" xmlns="http://www.w3.org/2000/svg">
<path fill-rule="evenodd" clip-rule="evenodd" d="M12.5 21C17.4706 21 21.5 16.9706 21.5 12C21.5 10.1666 20.9518 8.46124 20.0103 7.03891L12.855 14.9893C12.1624 15.7589 10.9968 15.8726 10.1684 15.2513L6.9 12.8C6.45817 12.4686 6.36863 11.8418 6.7 11.4C7.03137 10.9582 7.65817 10.8686 8.1 11.2L11.3684 13.6513L18.714 5.48955C17.0986 3.94717 14.9099 3 12.5 3C7.52944 3 3.5 7.02944 3.5 12C3.5 16.9706 7.52944 21 12.5 21Z" fill="#1A1A8D"/>
</svg>
