<svg width="25" height="24" viewBox="0 0 25 24" fill="none" xmlns="http://www.w3.org/2000/svg">
<path d="M14.5 20L13.7929 20.7071L14.5 21.4142L15.2071 20.7071L14.5 20ZM6.5 3C5.94771 3 5.5 3.44772 5.5 4C5.5 4.55229 5.94771 5 6.5 5L6.5 3ZM8.79289 15.7071L13.7929 20.7071L15.2071 19.2929L10.2071 14.2929L8.79289 15.7071ZM15.2071 20.7071L20.2071 15.7071L18.7929 14.2929L13.7929 19.2929L15.2071 20.7071ZM15.5 20L15.5 10L13.5 10L13.5 20L15.5 20ZM8.5 3L6.5 3L6.5 5L8.5 5L8.5 3ZM15.5 10C15.5 6.13401 12.366 3 8.5 3L8.5 5C11.2614 5 13.5 7.23858 13.5 10L15.5 10Z" fill="#1A1A8D"/>
</svg>
