<svg width="25" height="24" viewBox="0 0 25 24" fill="none" xmlns="http://www.w3.org/2000/svg">
<path d="M14.5 20L14.1464 20.3536L14.5 20.7071L14.8536 20.3536L14.5 20ZM6.5 3.5C6.22386 3.5 6 3.72386 6 4C6 4.27614 6.22386 4.5 6.5 4.5L6.5 3.5ZM9.14645 15.3536L14.1464 20.3536L14.8536 19.6464L9.85355 14.6464L9.14645 15.3536ZM14.8536 20.3536L19.8536 15.3536L19.1464 14.6464L14.1464 19.6464L14.8536 20.3536ZM15 20L15 10L14 10L14 20L15 20ZM8.5 3.5L6.5 3.5L6.5 4.5L8.5 4.5L8.5 3.5ZM15 10C15 6.41015 12.0899 3.5 8.5 3.5L8.5 4.5C11.5376 4.5 14 6.96243 14 10L15 10Z" fill="#1A1A8D"/>
</svg>
