<svg width="25" height="24" viewBox="0 0 25 24" fill="none" xmlns="http://www.w3.org/2000/svg">
<path fill-rule="evenodd" clip-rule="evenodd" d="M10 11.8775C9.50757 12.2721 9.11029 12.781 8.84839 13.3646L8.84352 13.3754C8.76605 13.548 8.70111 13.6928 8.64829 13.8038C8.60219 13.9008 8.53371 14.0417 8.44687 14.1632C8.32083 14.3396 8.15546 14.5347 7.914 14.691C7.67254 14.8472 7.42683 14.9182 7.21431 14.961C7.01342 15.0014 6.77177 15.0009 6.5642 15.0004H6.56419L6.5 15.0003C5.39543 15.0003 4.5 15.8958 4.5 17.0003C4.5 18.1049 5.39543 19.0003 6.5 19.0003H12.5H18.5C19.6046 19.0003 20.5 18.1049 20.5 17.0003C20.5 15.8958 19.6046 15.0003 18.5 15.0003L18.4358 15.0004H18.4358C18.2282 15.0009 17.9866 15.0014 17.7857 14.961C17.5732 14.9182 17.3275 14.8472 17.086 14.691C16.8445 14.5347 16.6792 14.3396 16.5531 14.1632C16.4663 14.0417 16.3978 13.9008 16.3517 13.8038C16.2989 13.6928 16.2339 13.548 16.1565 13.3754L16.1516 13.3646C15.8897 12.781 15.4924 12.2721 15 11.8775V9.54443C16.3201 10.1504 17.3818 11.2212 17.9763 12.5457C18.0599 12.732 18.1158 12.8563 18.1579 12.945C18.1683 12.9669 18.1767 12.9841 18.1835 12.9976L18.2032 12.9983C18.2668 13.0002 18.354 13.0003 18.5 13.0003C20.7091 13.0003 22.5 14.7912 22.5 17.0003C22.5 19.2095 20.7091 21.0003 18.5 21.0003H12.5H6.5C4.29086 21.0003 2.5 19.2095 2.5 17.0003C2.5 14.7912 4.29086 13.0003 6.5 13.0003C6.64598 13.0003 6.73318 13.0002 6.79677 12.9983L6.81654 12.9976C6.82326 12.9841 6.83167 12.9669 6.84206 12.945C6.88425 12.8563 6.94011 12.732 7.02373 12.5457C7.61818 11.2212 8.67993 10.1504 10 9.54443V11.8775ZM6.79756 13.034C6.79755 13.034 6.79761 13.0339 6.79774 13.0337L6.79777 13.0337L6.79756 13.034ZM18.2024 13.034C18.2024 13.034 18.2024 13.0339 18.2022 13.0337L18.2023 13.0337L18.2024 13.034Z" fill="#1A1A8D"/>
<path d="M12.5 3L11.7929 2.29289L12.5 1.58579L13.2071 2.29289L12.5 3ZM13.5 13C13.5 13.5523 13.0523 14 12.5 14C11.9477 14 11.5 13.5523 11.5 13L13.5 13ZM7.79289 6.29289L11.7929 2.29289L13.2071 3.70711L9.20711 7.70711L7.79289 6.29289ZM13.2071 2.29289L17.2071 6.29289L15.7929 7.70711L11.7929 3.70711L13.2071 2.29289ZM13.5 3L13.5 13L11.5 13L11.5 3L13.5 3Z" fill="#1A1A8D"/>
</svg>
