<svg width="25" height="24" viewBox="0 0 25 24" fill="none" xmlns="http://www.w3.org/2000/svg">
<path d="M5.73852 14.8117C6.13734 16.3002 7.01616 17.6154 8.23867 18.5535C9.46118 19.4915 10.9591 20 12.5 20C14.0409 20 15.5388 19.4915 16.7613 18.5535C17.9838 17.6154 18.8627 16.3002 19.2615 14.8117" stroke="#1A1A8D"/>
<path d="M12.5 4L12.1877 3.60957L12.5 3.35969L12.8123 3.60957L12.5 4ZM13 13C13 13.2761 12.7761 13.5 12.5 13.5C12.2239 13.5 12 13.2761 12 13L13 13ZM7.18765 7.60957L12.1877 3.60957L12.8123 4.39043L7.81235 8.39043L7.18765 7.60957ZM12.8123 3.60957L17.8123 7.60957L17.1877 8.39043L12.1877 4.39043L12.8123 3.60957ZM13 4L13 13L12 13L12 4L13 4Z" fill="#1A1A8D"/>
</svg>
