<svg width="25" height="24" viewBox="0 0 25 24" fill="none" xmlns="http://www.w3.org/2000/svg">
<path d="M5.73852 14.8117C6.13734 16.3002 7.01616 17.6154 8.23867 18.5535C9.46118 19.4915 10.9591 20 12.5 20C14.0409 20 15.5388 19.4915 16.7613 18.5535C17.9838 17.6154 18.8627 16.3002 19.2615 14.8117" stroke="#1A1A8D" stroke-width="1.2"/>
<path d="M12.5 4L12.1252 3.53148L12.5 3.23162L12.8748 3.53148L12.5 4ZM13.1 13C13.1 13.3314 12.8314 13.6 12.5 13.6C12.1686 13.6 11.9 13.3314 11.9 13L13.1 13ZM7.12518 7.53148L12.1252 3.53148L12.8748 4.46852L7.87482 8.46852L7.12518 7.53148ZM12.8748 3.53148L17.8748 7.53148L17.1252 8.46852L12.1252 4.46852L12.8748 3.53148ZM13.1 4L13.1 13L11.9 13L11.9 4L13.1 4Z" fill="#1A1A8D"/>
<circle cx="5" cy="5" r="5" transform="matrix(4.37114e-08 -1 -1 -4.37114e-08 17.5 20)" fill="#FFD400" fill-opacity="0.5"/>
<circle cx="5" cy="5" r="5.3" transform="matrix(4.37114e-08 -1 -1 -4.37114e-08 17.5 20)" stroke="#FFD400" stroke-opacity="0.5" stroke-width="0.6"/>
</svg>
