<svg width="25" height="24" viewBox="0 0 25 24" fill="none" xmlns="http://www.w3.org/2000/svg">
<path fill-rule="evenodd" clip-rule="evenodd" d="M15 10.6694V13.0007C15 14.3814 13.8807 15.5007 12.5 15.5007C11.1193 15.5007 10 14.3814 10 13.0007V10.6694C9.0939 11.1936 8.36755 11.9939 7.93606 12.9553C7.77282 13.319 7.69121 13.5009 7.63328 13.582C7.45652 13.8293 7.31502 13.9209 7.01699 13.9809C6.91931 14.0005 6.77954 14.0005 6.5 14.0005C4.84315 14.0005 3.5 15.3437 3.5 17.0005C3.5 18.6574 4.84315 20.0005 6.5 20.0005H12.5H18.5C20.1569 20.0005 21.5 18.6574 21.5 17.0005C21.5 15.3437 20.1569 14.0005 18.5 14.0005C18.2205 14.0005 18.0807 14.0005 17.983 13.9809C17.685 13.9209 17.5435 13.8293 17.3667 13.582C17.3088 13.5009 17.2272 13.319 17.0639 12.9553C16.6325 11.9939 15.9061 11.1936 15 10.6694Z" fill="#1A1A8D"/>
<path d="M12.5 3L11.7929 2.29289L12.5 1.58579L13.2071 2.29289L12.5 3ZM13.5 13C13.5 13.5523 13.0523 14 12.5 14C11.9477 14 11.5 13.5523 11.5 13L13.5 13ZM7.79289 6.29289L11.7929 2.29289L13.2071 3.70711L9.20711 7.70711L7.79289 6.29289ZM13.2071 2.29289L17.2071 6.29289L15.7929 7.70711L11.7929 3.70711L13.2071 2.29289ZM13.5 3L13.5 13L11.5 13L11.5 3L13.5 3Z" fill="#1A1A8D"/>
</svg>
