<svg width="25" height="24" viewBox="0 0 25 24" fill="none" xmlns="http://www.w3.org/2000/svg">
<path d="M12.5 16L11.7929 16.7071L12.5 17.4142L13.2071 16.7071L12.5 16ZM13.5 4C13.5 3.44772 13.0523 3 12.5 3C11.9477 3 11.5 3.44772 11.5 4L13.5 4ZM5.79289 10.7071L11.7929 16.7071L13.2071 15.2929L7.20711 9.29289L5.79289 10.7071ZM13.2071 16.7071L19.2071 10.7071L17.7929 9.29289L11.7929 15.2929L13.2071 16.7071ZM13.5 16L13.5 4L11.5 4L11.5 16L13.5 16Z" fill="#1A1A8D"/>
<path d="M5.5 21L19.5 21" stroke="#1A1A8D" stroke-width="2"/>
</svg>
