<svg width="25" height="24" viewBox="0 0 25 24" fill="none" xmlns="http://www.w3.org/2000/svg">
<mask id="path-1-outside-1_2_3764" maskUnits="userSpaceOnUse" x="2.5" y="9" width="20" height="12" fill="black">
<rect fill="white" x="2.5" y="9" width="20" height="12"/>
<path fill-rule="evenodd" clip-rule="evenodd" d="M6.5 20H12.5H18.5C20.1569 20 21.5 18.6569 21.5 17C21.5 15.3431 20.1569 14 18.5 14C18.2205 14 18.0807 14 17.983 13.9803C17.685 13.9204 17.5435 13.8288 17.3667 13.5814C17.3088 13.5004 17.2272 13.3185 17.0639 12.9548C16.2822 11.2131 14.5328 10 12.5 10C10.4672 10 8.71776 11.2131 7.93606 12.9548C7.77282 13.3185 7.69121 13.5004 7.63328 13.5814C7.45652 13.8288 7.31502 13.9204 7.01699 13.9803C6.91931 14 6.77954 14 6.5 14C4.84315 14 3.5 15.3431 3.5 17C3.5 18.6569 4.84315 20 6.5 20Z"/>
</mask>
<path fill-rule="evenodd" clip-rule="evenodd" d="M6.5 20H12.5H18.5C20.1569 20 21.5 18.6569 21.5 17C21.5 15.3431 20.1569 14 18.5 14C18.2205 14 18.0807 14 17.983 13.9803C17.685 13.9204 17.5435 13.8288 17.3667 13.5814C17.3088 13.5004 17.2272 13.3185 17.0639 12.9548C16.2822 11.2131 14.5328 10 12.5 10C10.4672 10 8.71776 11.2131 7.93606 12.9548C7.77282 13.3185 7.69121 13.5004 7.63328 13.5814C7.45652 13.8288 7.31502 13.9204 7.01699 13.9803C6.91931 14 6.77954 14 6.5 14C4.84315 14 3.5 15.3431 3.5 17C3.5 18.6569 4.84315 20 6.5 20Z" fill="#FFD400" fill-opacity="0.5"/>
<path d="M7.63328 13.5814L7.14512 13.2326L7.63328 13.5814ZM7.01699 13.9803L7.13538 14.5685L7.01699 13.9803ZM17.983 13.9803L17.8646 14.5685L17.983 13.9803ZM17.3667 13.5814L16.8786 13.9303L17.3667 13.5814ZM12.5 19.4H6.5V20.6H12.5V19.4ZM18.5 19.4H12.5V20.6H18.5V19.4ZM20.9 17C20.9 18.3255 19.8255 19.4 18.5 19.4V20.6C20.4882 20.6 22.1 18.9882 22.1 17H20.9ZM18.5 14.6C19.8255 14.6 20.9 15.6745 20.9 17H22.1C22.1 15.0118 20.4882 13.4 18.5 13.4V14.6ZM17.6113 12.7091C16.7364 10.7597 14.7776 9.4 12.5 9.4V10.6C14.2879 10.6 15.8281 11.6665 16.5165 13.2005L17.6113 12.7091ZM12.5 9.4C10.2224 9.4 8.26359 10.7597 7.38866 12.7091L8.48345 13.2005C9.17194 11.6665 10.7121 10.6 12.5 10.6V9.4ZM6.5 13.4C4.51177 13.4 2.9 15.0118 2.9 17H4.1C4.1 15.6745 5.17452 14.6 6.5 14.6V13.4ZM2.9 17C2.9 18.9882 4.51177 20.6 6.5 20.6V19.4C5.17452 19.4 4.1 18.3255 4.1 17H2.9ZM7.38866 12.7091C7.30584 12.8937 7.24784 13.0228 7.20331 13.1165C7.15409 13.22 7.13936 13.2406 7.14512 13.2326L8.12143 13.9303C8.18512 13.8412 8.24017 13.7303 8.28705 13.6317C8.33862 13.5233 8.40304 13.3797 8.48345 13.2005L7.38866 12.7091ZM6.5 14.6C6.74415 14.6 6.96312 14.6032 7.13538 14.5685L6.8986 13.3921C6.90013 13.3918 6.88107 13.3956 6.80874 13.3978C6.73775 13.3999 6.6435 13.4 6.5 13.4V14.6ZM7.14512 13.2326C7.07934 13.3246 7.05126 13.3431 7.04458 13.3475C7.0379 13.3518 7.00951 13.3698 6.8986 13.3921L7.13538 14.5685C7.3225 14.5309 7.51388 14.4731 7.69664 14.3548C7.87941 14.2365 8.01046 14.0856 8.12143 13.9303L7.14512 13.2326ZM18.5 13.4C18.3565 13.4 18.2623 13.3999 18.1913 13.3978C18.1189 13.3956 18.0999 13.3918 18.1014 13.3921L17.8646 14.5685C18.0369 14.6032 18.2559 14.6 18.5 14.6V13.4ZM16.5165 13.2005C16.597 13.3797 16.6614 13.5233 16.713 13.6317C16.7598 13.7303 16.8149 13.8412 16.8786 13.9303L17.8549 13.2326C17.8606 13.2406 17.8459 13.22 17.7967 13.1165C17.7522 13.0228 17.6942 12.8937 17.6113 12.7091L16.5165 13.2005ZM18.1014 13.3921C17.9905 13.3698 17.9621 13.3518 17.9554 13.3475C17.9487 13.3431 17.9207 13.3246 17.8549 13.2326L16.8786 13.9303C16.9895 14.0856 17.1206 14.2365 17.3034 14.3548C17.4861 14.4731 17.6775 14.5309 17.8646 14.5685L18.1014 13.3921Z" fill="#FFD400" fill-opacity="0.5" mask="url(#path-1-outside-1_2_3764)"/>
<path fill-rule="evenodd" clip-rule="evenodd" d="M10.0004 11.3793C9.34275 11.8341 8.81486 12.4635 8.48385 13.2011L8.48068 13.2081L8.48066 13.2082C8.40172 13.3841 8.33832 13.5253 8.28744 13.6323C8.24056 13.7309 8.18551 13.8418 8.12182 13.9309C8.01085 14.0862 7.8798 14.2371 7.69703 14.3554C7.51427 14.4737 7.32289 14.5315 7.13577 14.5691C6.97711 14.6011 6.77882 14.6009 6.55773 14.6006H6.55772L6.50039 14.6006C5.17491 14.6006 4.10039 15.6751 4.10039 17.0006C4.10039 18.3261 5.17491 19.4006 6.50039 19.4006H12.5004H18.5004C19.8259 19.4006 20.9004 18.3261 20.9004 17.0006C20.9004 15.6751 19.8259 14.6006 18.5004 14.6006L18.4431 14.6006H18.4431C18.222 14.6009 18.0237 14.6011 17.865 14.5691C17.6779 14.5315 17.4865 14.4737 17.3037 14.3554C17.121 14.2371 16.9899 14.0862 16.879 13.9309C16.8153 13.8418 16.7602 13.7309 16.7133 13.6323C16.6624 13.5253 16.599 13.3839 16.52 13.2079L16.5169 13.2011C16.1859 12.4635 15.658 11.8341 15.0004 11.3793V9.98828C16.155 10.5653 17.082 11.5294 17.6117 12.7097C17.6945 12.8943 17.7526 13.0234 17.7971 13.1171C17.8324 13.1914 17.85 13.223 17.8549 13.2319C17.8569 13.2354 17.8569 13.2354 17.8553 13.2332C17.9211 13.3252 17.9491 13.3437 17.9558 13.348C17.9625 13.3524 17.9909 13.3704 18.1018 13.3927C18.1017 13.3927 18.1017 13.3927 18.1018 13.3927C18.1035 13.393 18.1248 13.3964 18.1916 13.3984C18.2626 13.4005 18.3569 13.4006 18.5004 13.4006C20.4886 13.4006 22.1004 15.0124 22.1004 17.0006C22.1004 18.9888 20.4886 20.6006 18.5004 20.6006H12.5004H6.50039C4.51217 20.6006 2.90039 18.9888 2.90039 17.0006C2.90039 15.0124 4.51217 13.4006 6.50039 13.4006C6.64389 13.4006 6.73814 13.4005 6.80913 13.3984C6.87599 13.3964 6.89733 13.393 6.89897 13.3927C6.89911 13.3927 6.89911 13.3927 6.89899 13.3927C7.0099 13.3704 7.03829 13.3524 7.04497 13.348C7.05165 13.3437 7.07973 13.3252 7.14551 13.2332C7.14388 13.2354 7.14389 13.2354 7.14584 13.2319L7.14584 13.2319C7.1508 13.223 7.16837 13.1914 7.2037 13.1171C7.24823 13.0234 7.30623 12.8943 7.38905 12.7097C7.91878 11.5294 8.84582 10.5653 10.0004 9.98828V11.3793Z" fill="#1A1A8D"/>
<path d="M12.5 3L12.0757 2.57574L12.5 2.15147L12.9243 2.57574L12.5 3ZM13.1 13C13.1 13.3314 12.8314 13.6 12.5 13.6C12.1686 13.6 11.9 13.3314 11.9 13L13.1 13ZM8.07574 6.57574L12.0757 2.57574L12.9243 3.42426L8.92426 7.42426L8.07574 6.57574ZM12.9243 2.57574L16.9243 6.57574L16.0757 7.42426L12.0757 3.42426L12.9243 2.57574ZM13.1 3L13.1 13L11.9 13L11.9 3L13.1 3Z" fill="#1A1A8D"/>
</svg>
