<svg width="25" height="24" viewBox="0 0 25 24" fill="none" xmlns="http://www.w3.org/2000/svg">
<path d="M5.73852 14.8117C6.13734 16.3002 7.01616 17.6154 8.23867 18.5535C9.46118 19.4915 10.9591 20 12.5 20C14.0409 20 15.5388 19.4915 16.7613 18.5535C17.9838 17.6154 18.8627 16.3002 19.2615 14.8117" stroke="#1A1A8D" stroke-width="2"/>
<path d="M12.5 4L11.8753 3.21913L12.5 2.71937L13.1247 3.21913L12.5 4ZM13.5 13C13.5 13.5523 13.0523 14 12.5 14C11.9477 14 11.5 13.5523 11.5 13L13.5 13ZM6.87531 7.21913L11.8753 3.21913L13.1247 4.78087L8.1247 8.78087L6.87531 7.21913ZM13.1247 3.21913L18.1247 7.21913L16.8753 8.78087L11.8753 4.78087L13.1247 3.21913ZM13.5 4L13.5 13L11.5 13L11.5 4L13.5 4Z" fill="#1A1A8D"/>
</svg>
