<svg width="25" height="24" viewBox="0 0 25 24" fill="none" xmlns="http://www.w3.org/2000/svg">
<path fill-rule="evenodd" clip-rule="evenodd" d="M10 11.2581C9.30098 11.7259 8.7402 12.3845 8.39222 13.1599L8.38958 13.1658L8.38955 13.1658C8.31019 13.3427 8.24715 13.4831 8.19674 13.5892C8.14966 13.6882 8.09798 13.7915 8.04007 13.8725C7.93286 14.0225 7.8104 14.1624 7.6423 14.2712C7.47421 14.38 7.29642 14.4345 7.11565 14.4709C6.96738 14.5007 6.77958 14.5006 6.55357 14.5004L6.5 14.5003C5.11929 14.5003 4 15.6196 4 17.0003C4 18.3811 5.11929 19.5003 6.5 19.5003H12.5H18.5C19.8807 19.5003 21 18.3811 21 17.0003C21 15.6196 19.8807 14.5003 18.5 14.5003L18.4464 14.5004C18.2204 14.5006 18.0326 14.5007 17.8844 14.4709C17.7036 14.4345 17.5258 14.38 17.3577 14.2712C17.1896 14.1624 17.0671 14.0225 16.9599 13.8725C16.902 13.7915 16.8503 13.6882 16.8033 13.5892C16.7529 13.4831 16.6898 13.3427 16.6105 13.166L16.6078 13.1599C16.2598 12.3845 15.699 11.7259 15 11.2581V10.1001C16.1132 10.6692 17.0066 11.6064 17.5201 12.7504C17.6027 12.9345 17.6613 13.0649 17.7064 13.1598C17.7287 13.2067 17.7455 13.2402 17.7583 13.2641C17.7679 13.2819 17.773 13.29 17.7741 13.2918L17.7744 13.2922C17.8434 13.3886 17.8798 13.418 17.9011 13.4317C17.9224 13.4456 17.9644 13.4669 18.0817 13.4905C18.1172 13.4977 18.191 13.5003 18.5 13.5003C20.433 13.5003 22 15.0674 22 17.0003C22 18.9333 20.433 20.5003 18.5 20.5003H12.5H6.5C4.567 20.5003 3 18.9333 3 17.0003C3 15.0674 4.567 13.5003 6.5 13.5003C6.80904 13.5003 6.88281 13.4977 6.91833 13.4905C7.03559 13.4669 7.07756 13.4456 7.09892 13.4317C7.12018 13.418 7.15664 13.3886 7.22564 13.2922C7.22567 13.2922 7.22575 13.2921 7.22588 13.2918C7.22703 13.29 7.23213 13.2818 7.24168 13.2641C7.25451 13.2402 7.27129 13.2067 7.29362 13.1598C7.33874 13.0649 7.39728 12.9345 7.47989 12.7504C7.99336 11.6064 8.88683 10.6692 10 10.1001V11.2581Z" fill="#1A1A8D"/>
<path d="M12.5 3L12.1464 2.64645L12.5 2.29289L12.8536 2.64645L12.5 3ZM13 13C13 13.2761 12.7761 13.5 12.5 13.5C12.2239 13.5 12 13.2761 12 13L13 13ZM8.14645 6.64645L12.1464 2.64645L12.8536 3.35355L8.85355 7.35355L8.14645 6.64645ZM12.8536 2.64645L16.8536 6.64645L16.1464 7.35355L12.1464 3.35355L12.8536 2.64645ZM13 3L13 13L12 13L12 3L13 3Z" fill="#1A1A8D"/>
</svg>
