<svg width="25" height="24" viewBox="0 0 25 24" fill="none" xmlns="http://www.w3.org/2000/svg">
<path fill-rule="evenodd" clip-rule="evenodd" d="M7.58642 13.069L5.884 11.707C5.63517 12.4253 5.5 13.1966 5.5 13.9994C5.5 17.8654 8.63401 20.9994 12.5 20.9994C16.366 20.9994 19.5 17.8654 19.5 13.9995C19.5 13.1966 19.3648 12.4253 19.116 11.707L17.4136 13.069C17.4703 13.3705 17.5 13.6815 17.5 13.9995C17.5 16.7609 15.2614 18.9994 12.5 18.9994C9.73858 18.9994 7.5 16.7609 7.5 13.9994C7.5 13.6815 7.52968 13.3705 7.58642 13.069Z" fill="#1A1A8D"/>
<path d="M12.5 4L11.8753 3.21913L12.5 2.71937L13.1247 3.21913L12.5 4ZM13.5 13C13.5 13.5523 13.0523 14 12.5 14C11.9477 14 11.5 13.5523 11.5 13L13.5 13ZM6.87531 7.21913L11.8753 3.21913L13.1247 4.78087L8.1247 8.78087L6.87531 7.21913ZM13.1247 3.21913L18.1247 7.21913L16.8753 8.78087L11.8753 4.78087L13.1247 3.21913ZM13.5 4L13.5 13L11.5 13L11.5 4L13.5 4Z" fill="#1A1A8D"/>
</svg>
