<svg width="25" height="24" viewBox="0 0 25 24" fill="none" xmlns="http://www.w3.org/2000/svg">
<path fill-rule="evenodd" clip-rule="evenodd" d="M6.5 21H12.5H18.5C20.1569 21 21.5 19.6569 21.5 18C21.5 16.3431 20.1569 15 18.5 15C18.2205 15 18.0807 15 17.983 14.9803C17.685 14.9204 17.5435 14.8288 17.3667 14.5814C17.3088 14.5004 17.2272 14.3185 17.0639 13.9548C16.2822 12.2131 14.5328 11 12.5 11C10.4672 11 8.71776 12.2131 7.93606 13.9548C7.77282 14.3185 7.69121 14.5004 7.63328 14.5814C7.45652 14.8288 7.31502 14.9204 7.01699 14.9803C6.91931 15 6.77954 15 6.5 15C4.84315 15 3.5 16.3431 3.5 18C3.5 19.6569 4.84315 21 6.5 21Z" fill="#FFD400" fill-opacity="0.5"/>
<path d="M10 7.5L12.5 5M12.5 5L15 7.5M12.5 5L12.5 15" stroke="#1A1A8D" stroke-linecap="round"/>
</svg>
