<svg width="25" height="24" viewBox="0 0 25 24" fill="none" xmlns="http://www.w3.org/2000/svg">
<path d="M9.5 21H15.5" stroke="#1A1A8D" stroke-linecap="round"/>
<path d="M12.5 21V17" stroke="#1A1A8D" stroke-linecap="round"/>
<path d="M6 9.28571C6 8.99265 6.00316 8.92982 6.01254 8.88874C6.05527 8.70149 6.20149 8.55527 6.38874 8.51254C6.42982 8.50316 6.49265 8.5 6.78571 8.5H18.2143C18.5073 8.5 18.5702 8.50316 18.6113 8.51254C18.7985 8.55527 18.9447 8.70149 18.9875 8.88874C18.9968 8.92982 19 8.99265 19 9.28571V10C19 10.9447 18.9989 11.3687 18.9529 11.7179C18.628 14.1859 16.6859 16.128 14.2179 16.4529C13.8687 16.4989 13.4447 16.5 12.5 16.5C11.5553 16.5 11.1313 16.4989 10.7821 16.4529C8.31407 16.128 6.37198 14.1859 6.04705 11.7179C6.00108 11.3687 6 10.9447 6 10V9.28571Z" stroke="#1A1A8D" stroke-linecap="round"/>
<path d="M12.0192 11.8626C11.9434 12.1282 12.0971 12.4049 12.3626 12.4808C12.6282 12.5566 12.9049 12.4029 12.9808 12.1374L12.0192 11.8626ZM14.2305 5.9432L14.7113 6.08056L14.2305 5.9432ZM15.4108 4.63569L15.2251 4.17145V4.17145L15.4108 4.63569ZM14.5845 5.07626L14.9556 5.41129L14.5845 5.07626ZM12.9808 12.1374L14.7113 6.08056L13.7498 5.80584L12.0192 11.8626L12.9808 12.1374ZM15.5965 5.09993L19.6857 3.46424L19.3143 2.53576L15.2251 4.17145L15.5965 5.09993ZM14.7113 6.08056C14.8571 5.57018 14.8961 5.4772 14.9556 5.41129L14.2133 4.74122C13.9619 5.01979 13.8686 5.38994 13.7498 5.80584L14.7113 6.08056ZM15.2251 4.17145C14.8235 4.33209 14.4648 4.46266 14.2133 4.74122L14.9556 5.41129C15.0151 5.34538 15.1036 5.29706 15.5965 5.09993L15.2251 4.17145Z" fill="#1A1A8D"/>
</svg>
