<svg width="25" height="24" viewBox="0 0 25 24" fill="none" xmlns="http://www.w3.org/2000/svg">
<path d="M9.5 21H15.5" stroke="#1A1A8D" stroke-width="2" stroke-linecap="round"/>
<path d="M12.5 21V16" stroke="#1A1A8D" stroke-width="2" stroke-linecap="round"/>
<mask id="path-3-inside-1_2_1220" fill="white">
<path d="M5.5 9.28571C5.5 9.02012 5.5 8.88733 5.52507 8.77748C5.61055 8.40298 5.90298 8.11055 6.27748 8.02507C6.38733 8 6.52012 8 6.78571 8H18.2143C18.4799 8 18.6127 8 18.7225 8.02507C19.097 8.11055 19.3895 8.40298 19.4749 8.77748C19.5 8.88733 19.5 9.02012 19.5 9.28571V10C19.5 10.9288 19.5 11.3933 19.4487 11.7832C19.0942 14.4756 16.9756 16.5942 14.2832 16.9487C13.8933 17 13.4288 17 12.5 17C11.5712 17 11.1067 17 10.7168 16.9487C8.02444 16.5942 5.90579 14.4756 5.55133 11.7832C5.5 11.3933 5.5 10.9288 5.5 10V9.28571Z"/>
</mask>
<path d="M5.5 9.28571C5.5 9.02012 5.5 8.88733 5.52507 8.77748C5.61055 8.40298 5.90298 8.11055 6.27748 8.02507C6.38733 8 6.52012 8 6.78571 8H18.2143C18.4799 8 18.6127 8 18.7225 8.02507C19.097 8.11055 19.3895 8.40298 19.4749 8.77748C19.5 8.88733 19.5 9.02012 19.5 9.28571V10C19.5 10.9288 19.5 11.3933 19.4487 11.7832C19.0942 14.4756 16.9756 16.5942 14.2832 16.9487C13.8933 17 13.4288 17 12.5 17C11.5712 17 11.1067 17 10.7168 16.9487C8.02444 16.5942 5.90579 14.4756 5.55133 11.7832C5.5 11.3933 5.5 10.9288 5.5 10V9.28571Z" stroke="#1A1A8D" stroke-width="4" stroke-linecap="round" mask="url(#path-3-inside-1_2_1220)"/>
<path d="M11.5385 11.7253C11.3868 12.2563 11.6942 12.8098 12.2253 12.9615C12.7563 13.1132 13.3098 12.8058 13.4615 12.2747L11.5385 11.7253ZM14.2305 5.9432L15.192 6.21792L14.2305 5.9432ZM15.4108 4.63569L15.0394 3.70721L15.0394 3.70721L15.4108 4.63569ZM14.5845 5.07626L15.3268 5.74632L14.5845 5.07626ZM13.4615 12.2747L15.192 6.21792L13.269 5.66848L11.5385 11.7253L13.4615 12.2747ZM15.7822 5.56416L19.8714 3.92848L19.1286 2.07152L15.0394 3.70721L15.7822 5.56416ZM15.192 6.21792C15.2629 5.97002 15.2995 5.84514 15.3328 5.75786C15.3593 5.68854 15.3599 5.70964 15.3268 5.74632L13.8422 4.40619C13.4947 4.79109 13.3743 5.29982 13.269 5.66848L15.192 6.21792ZM15.0394 3.70721C14.6834 3.8496 14.1896 4.0213 13.8422 4.40619L15.3268 5.74632C15.2937 5.783 15.2726 5.78461 15.3389 5.75117C15.4223 5.70905 15.5428 5.65992 15.7822 5.56416L15.0394 3.70721Z" fill="#1A1A8D"/>
</svg>
