<svg width="25" height="24" viewBox="0 0 25 24" fill="none" xmlns="http://www.w3.org/2000/svg">
<path d="M21.5 12C21.5 10.1195 20.911 8.28625 19.8156 6.7577C18.7203 5.22915 17.1736 4.08209 15.393 3.47763C13.6123 2.87316 11.687 2.84166 9.88744 3.38754C8.08792 3.93341 6.50459 5.02925 5.35982 6.52115C4.21505 8.01304 3.56635 9.82604 3.50482 11.7055C3.44329 13.585 3.97203 15.4366 5.01677 17.0001C6.06152 18.5637 7.56979 19.7608 9.32975 20.4232C11.0897 21.0856 13.013 21.18 14.8294 20.6933" stroke="#1A1A8D" stroke-linecap="round"/>
<circle cx="12.5" cy="12" r="4" stroke="#1A1A8D"/>
<path d="M16.5 9V13.5C16.5 14.8807 17.6193 16 19 16V16C20.3807 16 21.5 14.8807 21.5 13.5V12" stroke="#1A1A8D" stroke-linecap="round"/>
</svg>
