<svg width="25" height="24" viewBox="0 0 25 24" fill="none" xmlns="http://www.w3.org/2000/svg">
<path fill-rule="evenodd" clip-rule="evenodd" d="M17.7038 10.7962L19.4998 9.00019C20.045 8.45494 20.3176 8.18231 20.4634 7.88822C20.7407 7.32866 20.7407 6.67171 20.4634 6.11215C20.3176 5.81806 20.045 5.54544 19.4998 5.00019C18.9545 4.45494 18.6819 4.18231 18.3878 4.03658C17.8282 3.75929 17.1713 3.75929 16.6117 4.03658C16.3176 4.18231 16.045 4.45494 15.4998 5.00019L13.6811 6.81884C14.645 8.46944 16.0311 9.845 17.7038 10.7962ZM12.2267 8.2733L5.35615 15.1438C4.93109 15.5689 4.71856 15.7814 4.57883 16.0425C4.43909 16.3036 4.38015 16.5983 4.26226 17.1878L3.64686 20.2648C3.58034 20.5974 3.54708 20.7637 3.64168 20.8583C3.73629 20.9529 3.9026 20.9196 4.23521 20.8531L7.31219 20.2377C7.90164 20.1198 8.19637 20.0609 8.45746 19.9211C8.71856 19.7814 8.93109 19.5689 9.35615 19.1438L16.2456 12.2544C14.6239 11.2388 13.2522 9.87646 12.2267 8.2733Z" fill="#1A1A8D"/>
</svg>
