<svg width="25" height="24" viewBox="0 0 25 24" fill="none" xmlns="http://www.w3.org/2000/svg">
<path d="M12.5 5L12.0757 4.57574L12.5 4.15147L12.9243 4.57574L12.5 5ZM13.1 14C13.1 14.3314 12.8314 14.6 12.5 14.6C12.1686 14.6 11.9 14.3314 11.9 14L13.1 14ZM7.07574 9.57574L12.0757 4.57574L12.9243 5.42426L7.92426 10.4243L7.07574 9.57574ZM12.9243 4.57574L17.9243 9.57574L17.0757 10.4243L12.0757 5.42426L12.9243 4.57574ZM13.1 5L13.1 14L11.9 14L11.9 5L13.1 5Z" fill="#1A1A8D"/>
<path d="M5.5 16L5.5 17C5.5 18.1046 6.39543 19 7.5 19L17.5 19C18.6046 19 19.5 18.1046 19.5 17V16" stroke="#1A1A8D" stroke-width="1.2"/>
<rect x="5.5" y="15" width="14" height="4" rx="2" fill="#FFD400" fill-opacity="0.5"/>
</svg>
