<svg width="25" height="24" viewBox="0 0 25 24" fill="none" xmlns="http://www.w3.org/2000/svg">
<path fill-rule="evenodd" clip-rule="evenodd" d="M3.47924 10.2709C4.86454 8.19808 7.76851 5 12.5 5C17.2314 5 20.1354 8.19808 21.5207 10.2709C21.9855 10.9665 22.218 11.3143 22.1968 11.9569C22.1757 12.5995 21.9088 12.9469 21.3752 13.6417C19.7861 15.7107 16.6129 19 12.5 19C8.38699 19 5.21384 15.7107 3.62471 13.6417C3.09106 12.9469 2.82424 12.5995 2.80308 11.9569C2.78193 11.3143 3.01436 10.9665 3.47924 10.2709ZM12.4999 16C14.7091 16 16.4999 14.2091 16.4999 12C16.4999 9.79086 14.7091 8 12.4999 8C10.2908 8 8.49995 9.79086 8.49995 12C8.49995 14.2091 10.2908 16 12.4999 16Z" fill="#1A1A8D"/>
</svg>
