<svg width="25" height="24" viewBox="0 0 25 24" fill="none" xmlns="http://www.w3.org/2000/svg">
<path fill-rule="evenodd" clip-rule="evenodd" d="M2.95548 11.1164C4.03103 9.23425 7.0557 5 12.4999 5C17.9442 5 20.9689 9.23425 22.0444 11.1164C22.2651 11.5025 22.3754 11.6956 22.3632 11.9836C22.3511 12.2716 22.2214 12.4598 21.962 12.8362C20.6817 14.6935 17.2061 19 12.4999 19C7.79383 19 4.31814 14.6935 3.03794 12.8362C2.77851 12.4598 2.6488 12.2716 2.63665 11.9836C2.6245 11.6956 2.73483 11.5025 2.95548 11.1164ZM12.4999 15C14.1568 15 15.4999 13.6569 15.4999 12C15.4999 10.3431 14.1568 9 12.4999 9C10.8431 9 9.49994 10.3431 9.49994 12C9.49994 13.6569 10.8431 15 12.4999 15Z" fill="#FFD400" fill-opacity="0.5"/>
<path d="M12.5 5C7.05576 5 4.03109 9.23425 2.95554 11.1164C2.73488 11.5025 2.62456 11.6956 2.6367 11.9836C2.64885 12.2716 2.77857 12.4598 3.03799 12.8362C4.3182 14.6935 7.79389 19 12.5 19C17.2061 19 20.6818 14.6935 21.962 12.8362C22.2214 12.4598 22.3511 12.2716 22.3633 11.9836C22.3754 11.6956 22.2651 11.5025 22.0445 11.1164C20.9689 9.23425 17.9442 5 12.5 5Z" stroke="#1A1A8D" stroke-width="1.2"/>
<circle cx="12.5" cy="12" r="3" stroke="#1A1A8D" stroke-width="1.2"/>
</svg>
