<svg width="25" height="24" viewBox="0 0 25 24" fill="none" xmlns="http://www.w3.org/2000/svg">
<path d="M5.5 5C5.5 3.89543 6.39543 3 7.5 3H12.25C12.3881 3 12.5 3.11193 12.5 3.25V8C12.5 9.10457 13.3954 10 14.5 10H19.25C19.3881 10 19.5 10.1119 19.5 10.25V19C19.5 20.1046 18.6046 21 17.5 21H7.5C6.39543 21 5.5 20.1046 5.5 19V5Z" fill="#FFD400" fill-opacity="0.5"/>
<path d="M13.5 8V3.60355C13.5 3.38083 13.7693 3.26929 13.9268 3.42678L19.0732 8.57322C19.2307 8.73071 19.1192 9 18.8964 9H14.5C13.9477 9 13.5 8.55228 13.5 8Z" fill="#1A1A8D"/>
<path d="M9 13.5L15 13.5" stroke="#1A1A8D" stroke-linecap="round"/>
<path d="M9 16.5L14 16.5" stroke="#1A1A8D" stroke-linecap="round"/>
</svg>
