<svg width="25" height="24" viewBox="0 0 25 24" fill="none" xmlns="http://www.w3.org/2000/svg">
<path fill-rule="evenodd" clip-rule="evenodd" d="M12.5 2C13.9992 2 15.2004 2 16.1773 2.07361C16.0629 2.3601 16 2.6727 16 3V3.5H15.5C14.1193 3.5 13 4.61929 13 6C13 7.38071 14.1193 8.5 15.5 8.5H16V9C16 10.3807 17.1193 11.5 18.5 11.5C19.3178 11.5 20.0439 11.1073 20.5 10.5002V14C20.5 17.7712 20.5 19.6569 19.3284 20.8284C18.1569 22 16.2712 22 12.5 22C8.72876 22 6.84315 22 5.67157 20.8284C4.5 19.6569 4.5 17.7712 4.5 14V10C4.5 6.22876 4.5 4.34315 5.67157 3.17157C6.84315 2 8.72876 2 12.5 2ZM8.5 11C7.94772 11 7.5 11.4477 7.5 12C7.5 12.5523 7.94772 13 8.5 13H12.5C13.0523 13 13.5 12.5523 13.5 12C13.5 11.4477 13.0523 11 12.5 11H8.5ZM8.5 14C7.94772 14 7.5 14.4477 7.5 15C7.5 15.5523 7.94772 16 8.5 16H14.5C15.0523 16 15.5 15.5523 15.5 15C15.5 14.4477 15.0523 14 14.5 14H8.5ZM8.5 17C7.94772 17 7.5 17.4477 7.5 18C7.5 18.5523 7.94772 19 8.5 19H12.5C13.0523 19 13.5 18.5523 13.5 18C13.5 17.4477 13.0523 17 12.5 17H8.5Z" fill="#1A1A8D"/>
<path d="M18.5 3L18.5 9" stroke="#1A1A8D" stroke-width="2" stroke-linecap="round"/>
<path d="M21.5 6L15.5 6" stroke="#1A1A8D" stroke-width="2" stroke-linecap="round"/>
</svg>
