<svg width="25" height="24" viewBox="0 0 25 24" fill="none" xmlns="http://www.w3.org/2000/svg">
<path d="M19.5 13V15C19.5 17.8284 19.5 19.2426 18.6213 20.1213C17.7426 21 16.3284 21 13.5 21H11.5C8.67157 21 7.25736 21 6.37868 20.1213C5.5 19.2426 5.5 17.8284 5.5 15V9C5.5 6.17157 5.5 4.75736 6.37868 3.87868C7.25736 3 8.67157 3 11.5 3H12.5" stroke="#1A1A8D" stroke-linecap="round"/>
<path d="M18.5 3L18.5 9" stroke="#1A1A8D" stroke-linecap="round"/>
<path d="M21.5 6L15.5 6" stroke="#1A1A8D" stroke-linecap="round"/>
<path d="M9.5 13L15.5 13" stroke="#1A1A8D" stroke-linecap="round"/>
<path d="M9.5 9L13.5 9" stroke="#1A1A8D" stroke-linecap="round"/>
<path d="M9.5 17L13.5 17" stroke="#1A1A8D" stroke-linecap="round"/>
</svg>
