<svg width="25" height="24" viewBox="0 0 25 24" fill="none" xmlns="http://www.w3.org/2000/svg">
<circle cx="18" cy="17.5" r="2.5" stroke="#1A1A8D" stroke-width="2"/>
<path d="M21.5 21L20 19.5" stroke="#1A1A8D" stroke-width="2" stroke-linecap="round"/>
<path fill-rule="evenodd" clip-rule="evenodd" d="M4.5 10C4.5 6.22876 4.5 4.34315 5.67157 3.17157C6.84315 2 8.72876 2 12.5 2C16.2712 2 18.1569 2 19.3284 3.17157C20.5 4.34315 20.5 6.22876 20.5 10V13.1689C19.7646 12.7435 18.9107 12.5 18 12.5C15.2386 12.5 13 14.7386 13 17.5C13 19.4428 14.1081 21.1269 15.7268 21.9546C14.837 22 13.7765 22 12.5 22C8.72876 22 6.84315 22 5.67157 20.8284C4.5 19.6569 4.5 17.7712 4.5 14V10ZM8.5 5C7.94772 5 7.5 5.44772 7.5 6C7.5 6.55228 7.94772 7 8.5 7H12.5C13.0523 7 13.5 6.55228 13.5 6C13.5 5.44772 13.0523 5 12.5 5H8.5ZM8.5 9C7.94772 9 7.5 9.44772 7.5 10C7.5 10.5523 7.94772 11 8.5 11H14.5C15.0523 11 15.5 10.5523 15.5 10C15.5 9.44772 15.0523 9 14.5 9L8.5 9ZM8.5 13C7.94772 13 7.5 13.4477 7.5 14C7.5 14.5523 7.94772 15 8.5 15H11.5C12.0523 15 12.5 14.5523 12.5 14C12.5 13.4477 12.0523 13 11.5 13H8.5Z" fill="#1A1A8D"/>
</svg>
