<svg width="25" height="24" viewBox="0 0 25 24" fill="none" xmlns="http://www.w3.org/2000/svg">
<path d="M10.1581 19.7806L10.4743 20.7293H10.4743L10.1581 19.7806ZM15.1581 18.114L15.4743 19.0627L15.4743 19.0626L15.1581 18.114ZM20.2071 7.29289L20.9142 8L20.2071 7.29289ZM15.7929 11.7071L15.0858 11L15.7929 11.7071ZM5.5 5H19.5V3H5.5V5ZM5.5 6.58579V5H3.5V6.58579H5.5ZM9.91421 11L5.5 6.58579L4.08579 8L8.49999 12.4142L9.91421 11ZM8.49999 12.4142V19.3063H10.5V12.4142H8.49999ZM8.49999 19.3063C8.49999 20.3301 9.50304 21.0531 10.4743 20.7293L9.84188 18.832C10.1656 18.724 10.5 18.965 10.5 19.3063H8.49999ZM10.4743 20.7293L15.4743 19.0627L14.8419 17.1653L9.84188 18.832L10.4743 20.7293ZM15.4743 19.0626C16.0868 18.8585 16.5 18.2853 16.5 17.6396H14.5C14.5 17.4244 14.6377 17.2333 14.8419 17.1653L15.4743 19.0626ZM16.5 17.6396V12.4142H14.5V17.6396H16.5ZM19.5 6.58579L15.0858 11L16.5 12.4142L20.9142 8L19.5 6.58579ZM19.5 5V6.58579H21.5V5H19.5ZM20.9142 8C21.2893 7.62493 21.5 7.11622 21.5 6.58579H19.5L20.9142 8ZM16.5 12.4142V12.4142L15.0858 11C14.7107 11.3751 14.5 11.8838 14.5 12.4142H16.5ZM8.49999 12.4142H10.5C10.5 11.8838 10.2893 11.3751 9.91421 11L8.49999 12.4142ZM3.5 6.58579C3.5 7.11622 3.71071 7.62493 4.08579 8L5.5 6.58579V6.58579H3.5ZM19.5 5H21.5C21.5 3.89543 20.6046 3 19.5 3V5ZM5.5 3C4.39543 3 3.5 3.89543 3.5 5H5.5V5V3Z" fill="#1A1A8D"/>
</svg>
