<svg width="25" height="24" viewBox="0 0 25 24" fill="none" xmlns="http://www.w3.org/2000/svg">
<path fill-rule="evenodd" clip-rule="evenodd" d="M20.5 5C20.5 4.44772 20.0523 4 19.5 4H5.5C4.94772 4 4.5 4.44772 4.5 5V6.58579C4.5 6.851 4.60536 7.10536 4.79289 7.29289L9.2071 11.7071C9.39464 11.8946 9.49999 12.149 9.49999 12.4142V19.3063C9.49999 19.6476 9.83434 19.8886 10.1581 19.7806L15.1581 18.114C15.3623 18.0459 15.5 17.8548 15.5 17.6396V12.4142C15.5 12.149 15.6054 11.8946 15.7929 11.7071L20.2071 7.29289C20.3946 7.10536 20.5 6.851 20.5 6.58579V5Z" fill="#FFD400" fill-opacity="0.5"/>
<path d="M10.1581 19.7806L10.3478 20.3498H10.3478L10.1581 19.7806ZM15.1581 18.114L15.3478 18.6832H15.3478L15.1581 18.114ZM20.2071 7.29289L20.6314 7.71716L20.2071 7.29289ZM15.7929 11.7071L15.3686 11.2828L15.7929 11.7071ZM5.5 4.6H19.5V3.4H5.5V4.6ZM5.1 6.58579V5H3.9V6.58579H5.1ZM9.63136 11.2828L5.21716 6.86863L4.36863 7.71716L8.78284 12.1314L9.63136 11.2828ZM8.89999 12.4142V19.3063H10.1V12.4142H8.89999ZM8.89999 19.3063C8.89999 20.0571 9.63556 20.5873 10.3478 20.3498L9.96837 19.2114C10.0331 19.1898 10.1 19.238 10.1 19.3063H8.89999ZM10.3478 20.3498L15.3478 18.6832L14.9684 17.5448L9.96837 19.2114L10.3478 20.3498ZM15.3478 18.6832C15.797 18.5335 16.1 18.1131 16.1 17.6396H14.9C14.9 17.5966 14.9275 17.5584 14.9684 17.5448L15.3478 18.6832ZM16.1 17.6396V12.4142H14.9V17.6396H16.1ZM19.7828 6.86863L15.3686 11.2828L16.2172 12.1314L20.6314 7.71716L19.7828 6.86863ZM19.9 5V6.58579H21.1V5H19.9ZM20.6314 7.71716C20.9314 7.4171 21.1 7.01013 21.1 6.58579H19.9C19.9 6.69187 19.8579 6.79361 19.7828 6.86863L20.6314 7.71716ZM16.1 12.4142C16.1 12.3081 16.1421 12.2064 16.2172 12.1314L15.3686 11.2828C15.0686 11.5829 14.9 11.9899 14.9 12.4142H16.1ZM8.78284 12.1314C8.85785 12.2064 8.89999 12.3081 8.89999 12.4142H10.1C10.1 11.9899 9.93142 11.5829 9.63136 11.2828L8.78284 12.1314ZM3.9 6.58579C3.9 7.01013 4.06857 7.4171 4.36863 7.71716L5.21716 6.86863C5.14214 6.79361 5.1 6.69187 5.1 6.58579H3.9ZM19.5 4.6C19.7209 4.6 19.9 4.77909 19.9 5H21.1C21.1 4.11634 20.3837 3.4 19.5 3.4V4.6ZM5.5 3.4C4.61634 3.4 3.9 4.11634 3.9 5H5.1C5.1 4.77909 5.27909 4.6 5.5 4.6V3.4Z" fill="#1A1A8D"/>
</svg>
