<svg width="25" height="24" viewBox="0 0 25 24" fill="none" xmlns="http://www.w3.org/2000/svg">
<path d="M10.1581 19.7806L10.3162 20.255H10.3162L10.1581 19.7806ZM15.1581 18.114L15.3162 18.5883H15.3162L15.1581 18.114ZM20.2071 7.29289L20.5607 7.64645L20.2071 7.29289ZM15.7929 11.7071L15.4393 11.3536L15.7929 11.7071ZM5.5 4.5H19.5V3.5H5.5V4.5ZM5 6.58579V5H4V6.58579H5ZM9.56065 11.3535L5.14645 6.93934L4.43934 7.64645L8.85355 12.0607L9.56065 11.3535ZM8.99999 12.4142V19.3063H9.99999V12.4142H8.99999ZM8.99999 19.3063C8.99999 19.9888 9.66869 20.4708 10.3162 20.255L9.99999 19.3063V19.3063H8.99999ZM10.3162 20.255L15.3162 18.5883L15 17.6396L9.99999 19.3063L10.3162 20.255ZM15.3162 18.5883C15.7246 18.4522 16 18.0701 16 17.6396H15L15.3162 18.5883ZM16 17.6396V12.4142H15V17.6396H16ZM19.8536 6.93934L15.4393 11.3536L16.1464 12.0607L20.5607 7.64645L19.8536 6.93934ZM20 5V6.58579H21V5H20ZM20.5607 7.64645C20.842 7.36514 21 6.98361 21 6.58579H20C20 6.71839 19.9473 6.84557 19.8536 6.93934L20.5607 7.64645ZM16 12.4142C16 12.2816 16.0527 12.1544 16.1464 12.0607L15.4393 11.3536C15.158 11.6349 15 12.0164 15 12.4142H16ZM8.85355 12.0607C8.94731 12.1544 8.99999 12.2816 8.99999 12.4142H9.99999C9.99999 12.0164 9.84196 11.6349 9.56065 11.3535L8.85355 12.0607ZM4 6.58579C4 6.98361 4.15804 7.36514 4.43934 7.64645L5.14645 6.93934C5.05268 6.84557 5 6.71839 5 6.58579H4ZM19.5 4.5C19.7761 4.5 20 4.72386 20 5H21C21 4.17157 20.3284 3.5 19.5 3.5V4.5ZM5.5 3.5C4.67157 3.5 4 4.17157 4 5H5C5 4.72386 5.22386 4.5 5.5 4.5V3.5Z" fill="#1A1A8D"/>
</svg>
