<svg width="25" height="24" viewBox="0 0 25 24" fill="none" xmlns="http://www.w3.org/2000/svg">
<path d="M10 10.0003C10 9.20875 8.94722 8.99895 8.66791 9.73957C7.99228 11.5311 7.5 13.1337 7.5 14.0002C7.5 16.7616 9.73858 19.0002 12.5 19.0002C15.2614 19.0002 17.5 16.7616 17.5 14.0002C17.5 13.0693 16.9318 11.2887 16.1784 9.33698C15.2026 6.80879 14.7146 5.54469 14.1123 5.4766C13.9196 5.45482 13.7093 5.49399 13.5374 5.58371C13 5.86413 13 7.24285 13 10.0003C13 10.8287 12.3284 11.5003 11.5 11.5003C10.6716 11.5003 10 10.8287 10 10.0003Z" stroke="#1A1A8D" stroke-width="2"/>
</svg>
