<svg width="25" height="24" viewBox="0 0 25 24" fill="none" xmlns="http://www.w3.org/2000/svg">
<path d="M18.5052 16.4883L18.0433 16.297L18.5052 16.4883ZM17.0962 18.597L17.4497 18.9506H17.4497L17.0962 18.597ZM14.9874 20.0061L14.7961 19.5441L14.7961 19.5441L14.9874 20.0061ZM10.0126 20.0061L10.2039 19.5441H10.2039L10.0126 20.0061ZM7.90381 18.597L8.25736 18.2435H8.25736L7.90381 18.597ZM6.49478 16.4883L6.03284 16.6796H6.03284L6.49478 16.4883ZM15.9072 6.58305L15.5664 6.21718L15.9072 6.58305ZM16.0914 6.58178L16.4321 6.21577L16.0914 6.58178ZM14.8536 7.48153L15.2629 7.19439L14.8536 7.48153ZM15.1027 7.48608L15.4998 7.78984L15.1027 7.48608ZM11.9202 4.54835L12.1837 4.97329L11.9202 4.54835ZM6.5 14.0009C6.5 11.3677 7.72635 9.22654 9.07201 7.6701C10.4174 6.11392 11.851 5.17954 12.1837 4.97329L11.6567 4.12341C11.2792 4.35751 9.75266 5.35385 8.31554 7.01607C6.87866 8.67802 5.5 11.043 5.5 14.0009H6.5ZM11.7775 4.95657C12.0755 5.17939 13.3113 6.15356 14.4443 7.76867L15.2629 7.19439C14.0479 5.46229 12.7233 4.41514 12.3764 4.15571L11.7775 4.95657ZM15.4998 7.78984C15.8371 7.34885 16.1197 7.06837 16.248 6.94893L15.5664 6.21718C15.4037 6.36871 15.0819 6.69025 14.7055 7.18232L15.4998 7.78984ZM15.7508 6.94778C16.1999 7.36576 18.5 9.71577 18.5 13.9999H19.5C19.5 9.32974 16.9885 6.73366 16.4321 6.21577L15.7508 6.94778ZM18.5 13.9999V14.0009H19.5V13.9999H18.5ZM18.5 14.0009C18.5 14.7888 18.3448 15.569 18.0433 16.297L18.9672 16.6796C19.3189 15.8304 19.5 14.9201 19.5 14.0009H18.5ZM18.0433 16.297C17.7417 17.0249 17.2998 17.6863 16.7426 18.2435L17.4497 18.9506C18.0998 18.3006 18.6154 17.5289 18.9672 16.6796L18.0433 16.297ZM16.7426 18.2435C16.1855 18.8006 15.5241 19.2426 14.7961 19.5441L15.1788 20.468C16.0281 20.1162 16.7997 19.6006 17.4497 18.9506L16.7426 18.2435ZM14.7961 19.5441C14.0681 19.8457 13.2879 20.0009 12.5 20.0009V21.0009C13.4193 21.0009 14.3295 20.8198 15.1788 20.468L14.7961 19.5441ZM12.5 20.0009C11.7121 20.0009 10.9319 19.8457 10.2039 19.5441L9.82122 20.468C10.6705 20.8198 11.5807 21.0009 12.5 21.0009V20.0009ZM10.2039 19.5441C9.47595 19.2426 8.81451 18.8006 8.25736 18.2435L7.55025 18.9506C8.20026 19.6006 8.97194 20.1162 9.82122 20.468L10.2039 19.5441ZM8.25736 18.2435C7.70021 17.6863 7.25825 17.0249 6.95672 16.297L6.03284 16.6796C6.38463 17.5289 6.90024 18.3006 7.55025 18.9506L8.25736 18.2435ZM6.95672 16.297C6.65519 15.569 6.5 14.7888 6.5 14.0009H5.5C5.5 14.9201 5.68106 15.8304 6.03284 16.6796L6.95672 16.297ZM16.248 6.94893C16.1154 7.07245 15.8961 7.083 15.7508 6.94778L16.4321 6.21577C16.1808 5.98189 15.805 5.99494 15.5664 6.21718L16.248 6.94893ZM14.4443 7.76867C14.7 8.13326 15.2335 8.13807 15.4998 7.78984L14.7055 7.18232C14.8456 6.99913 15.1265 6.99988 15.2629 7.19439L14.4443 7.76867ZM12.1837 4.97329C12.0526 5.05459 11.8896 5.04037 11.7775 4.95657L12.3764 4.15571C12.1705 4.0018 11.8873 3.9804 11.6567 4.12341L12.1837 4.97329Z" fill="#1A1A8D"/>
<path d="M15.9992 16.9218L15.4993 16.932L15.4993 16.9328L15.9992 16.9218ZM9.00006 17.0004L9.50006 17.0004L9.00006 17.0004ZM12.5859 11.5642L12.2838 11.9626L12.5859 11.5642ZM12.112 11.1658C11.8276 11.3815 10.9392 12.0883 10.1174 13.1C9.30364 14.1019 8.50001 15.4704 8.5 17.0004L9.5 17.0004C9.50001 15.8106 10.1347 14.6648 10.8936 13.7305C11.6446 12.806 12.4633 12.1545 12.7163 11.9626L12.112 11.1658ZM16.4991 16.9117C16.4685 15.4034 15.6658 14.0571 14.8587 13.0706C14.0438 12.0747 13.1698 11.3795 12.8881 11.1658L12.2838 11.9626C12.5342 12.1525 13.3397 12.7934 14.0847 13.7039C14.8376 14.624 15.4754 15.7547 15.4993 16.932L16.4991 16.9117ZM15.4993 16.9328C15.4998 16.9552 15.5001 16.9776 15.5001 17.0001H16.5001C16.5001 16.9703 16.4997 16.9405 16.4991 16.9109L15.4993 16.9328ZM15.5001 17.0001C15.5001 18.657 14.1569 20.0001 12.5001 20.0001V21.0001C14.7092 21.0001 16.5001 19.2093 16.5001 17.0001H15.5001ZM12.5001 20.0001C10.8433 20.0001 9.5002 18.6571 9.50006 17.0004L8.50006 17.0005C8.50025 19.2095 10.291 21.0001 12.5001 21.0001V20.0001ZM8.5 17.0004C8.5 17.2754 8.72274 17.5004 9.00003 17.5004V16.5004C9.27729 16.5004 9.5 16.7254 9.5 17.0004L8.5 17.0004ZM9.50006 17.0004C9.50004 16.7293 9.28124 16.5004 9.00003 16.5004V17.5004C8.71886 17.5004 8.50008 17.2715 8.50006 17.0005L9.50006 17.0004ZM12.7163 11.9626C12.5888 12.0593 12.4115 12.0594 12.2838 11.9626L12.8881 11.1658C12.6583 10.9915 12.3416 10.9917 12.112 11.1658L12.7163 11.9626Z" fill="#1A1A8D"/>
</svg>
