<svg width="25" height="24" viewBox="0 0 25 24" fill="none" xmlns="http://www.w3.org/2000/svg">
<path d="M12.4304 2.53932L12.1816 2.10558L12.4304 2.53932ZM12.5696 2.53932L12.8184 2.10558L12.5696 2.53932ZM12.1816 2.10558C11.8059 2.32103 10.1465 3.32559 8.57605 5.12675C7.0028 6.93111 5.5 9.55819 5.5 13.0002H6.5C6.5 9.86939 7.86269 7.46654 9.32978 5.78393C10.7997 4.09812 12.3554 3.15867 12.6791 2.97306L12.1816 2.10558ZM19.5 13.0002C19.5 9.55819 17.9972 6.93111 16.424 5.12675C14.8535 3.32559 13.1941 2.32103 12.8184 2.10558L12.3209 2.97306C12.6446 3.15867 14.2003 4.09812 15.6702 5.78394C17.1373 7.46654 18.5 9.86939 18.5 13.0002H19.5ZM18.5 13.0002C18.5 16.3139 15.8137 19.0002 12.5 19.0002V20.0002C16.366 20.0002 19.5 16.8662 19.5 13.0002H18.5ZM12.5 19.0002C9.18629 19.0002 6.5 16.3139 6.5 13.0002H5.5C5.5 16.8662 8.63401 20.0002 12.5 20.0002V19.0002ZM12.6791 2.97306C12.5688 3.03632 12.4312 3.03632 12.3209 2.97306L12.8184 2.10558C12.6206 1.99215 12.3794 1.99215 12.1816 2.10558L12.6791 2.97306Z" fill="#FFD400" fill-opacity="0.5"/>
<path d="M16 13.9738L15.5 13.975L15.5 13.9773L16 13.9738ZM9.00006 13.9997L8.50006 13.9997L9.00006 13.9997ZM12.5851 6.56443L12.2757 6.95725L12.5851 6.56443ZM12.1057 6.17156C11.5241 6.6295 8.50001 9.23659 8.5 13.9996L9.5 13.9996C9.50001 9.69169 12.2357 7.34195 12.7243 6.95722L12.1057 6.17156ZM16.5 13.9725C16.4885 9.2268 13.475 6.62881 12.8944 6.1716L12.2757 6.95725C12.7635 7.34135 15.4896 9.68291 15.5 13.975L16.5 13.9725ZM15.5 13.9773C15.5 13.9847 15.5001 13.992 15.5001 13.9994H16.5001C16.5001 13.9896 16.5 13.9799 16.5 13.9702L15.5 13.9773ZM15.5001 13.9994C15.5001 15.6562 14.1569 16.9994 12.5001 16.9994V17.9994C14.7092 17.9994 16.5001 16.2085 16.5001 13.9994H15.5001ZM12.5001 16.9994C10.8433 16.9994 9.5002 15.6564 9.50006 13.9997L8.50006 13.9997C8.50025 16.2087 10.291 17.9994 12.5001 17.9994V16.9994ZM8.5 13.9996C8.5 14.2595 8.7079 14.4997 9.00003 14.4997V13.4997C9.29213 13.4997 9.5 13.7398 9.5 13.9996L8.5 13.9996ZM9.50006 13.9997C9.50004 13.7286 9.28123 13.4997 9.00003 13.4997V14.4997C8.71886 14.4997 8.50008 14.2708 8.50006 13.9997L9.50006 13.9997ZM12.7243 6.95722C12.593 7.06063 12.4066 7.06033 12.2757 6.95725L12.8944 6.1716C12.6628 5.98922 12.3377 5.98884 12.1057 6.17156L12.7243 6.95722Z" fill="#1A1A8D"/>
<path d="M12.5 22V14" stroke="#1A1A8D"/>
<circle cx="12.5" cy="14" r="1" fill="#1A1A8D"/>
</svg>
