<svg width="25" height="24" viewBox="0 0 25 24" fill="none" xmlns="http://www.w3.org/2000/svg">
<path d="M19 12C19 15.5899 16.0899 18.5 12.5 18.5C8.91015 18.5 6 15.5899 6 12C6 6.36645 11.7303 2.93685 12.4302 2.53894C12.4741 2.51402 12.5259 2.51402 12.5698 2.53894C13.2697 2.93685 19 6.36645 19 12Z" stroke="#1A1A8D" stroke-linejoin="round"/>
<path d="M15.9992 11.9213L15.4993 11.9315L15.4993 11.9323L15.9992 11.9213ZM9.00006 11.9999L9.50006 11.9999L9.00006 11.9999ZM12.5859 6.56371L12.2838 6.96208L12.5859 6.56371ZM12.112 6.16534C11.8276 6.38106 10.9392 7.08778 10.1174 8.09951C9.30364 9.10142 8.50001 10.4699 8.5 11.9999L9.5 11.9999C9.50001 10.8101 10.1347 9.66432 10.8936 8.72999C11.6446 7.80549 12.4633 7.154 12.7163 6.96211L12.112 6.16534ZM16.4991 11.9112C16.4685 10.4029 15.6658 9.05658 14.8587 8.07015C14.0438 7.07419 13.1698 6.37902 12.8881 6.16533L12.2838 6.96208C12.5342 7.15202 13.3397 7.79287 14.0847 8.70341C14.8376 9.62351 15.4754 10.7542 15.4993 11.9315L16.4991 11.9112ZM15.4993 11.9323C15.4998 11.9547 15.5001 11.9771 15.5001 11.9996H16.5001C16.5001 11.9698 16.4997 11.9401 16.4991 11.9104L15.4993 11.9323ZM15.5001 11.9996C15.5001 13.6565 14.1569 14.9996 12.5001 14.9996V15.9996C14.7092 15.9996 16.5001 14.2088 16.5001 11.9996H15.5001ZM12.5001 14.9996C10.8433 14.9996 9.5002 13.6566 9.50006 11.9999L8.50006 12C8.50025 14.209 10.291 15.9996 12.5001 15.9996V14.9996ZM8.5 11.9999C8.5 12.2749 8.72274 12.4999 9.00003 12.4999V11.4999C9.27729 11.4999 9.5 11.7249 9.5 11.9999L8.5 11.9999ZM9.50006 11.9999C9.50004 11.7288 9.28124 11.4999 9.00003 11.4999V12.4999C8.71886 12.4999 8.50008 12.271 8.50006 12L9.50006 11.9999ZM12.7163 6.96211C12.5888 7.05878 12.4115 7.05894 12.2838 6.96208L12.8881 6.16533C12.6583 5.99101 12.3416 5.99121 12.112 6.16534L12.7163 6.96211Z" fill="#1A1A8D"/>
<path d="M12.5 21V12" stroke="#1A1A8D"/>
<circle cx="12.5" cy="12" r="1" fill="#1A1A8D"/>
</svg>
