<svg width="25" height="24" viewBox="0 0 25 24" fill="none" xmlns="http://www.w3.org/2000/svg">
<path fill-rule="evenodd" clip-rule="evenodd" d="M12.4304 2.53932C11.731 2.94038 6 6.42735 6 13.0002C6 16.4218 8.64378 19.226 12 19.4813V14.8662C11.7011 14.6933 11.5 14.3701 11.5 14C11.5 13.4477 11.9477 13 12.5 13C13.0523 13 13.5 13.4477 13.5 14C13.5 14.3701 13.2989 14.6933 13 14.8662V19.4813C16.3562 19.226 19 16.4218 19 13.0002C19 6.42735 13.269 2.94038 12.5696 2.53932C12.5259 2.51424 12.4741 2.51424 12.4304 2.53932Z" fill="#FFD400" fill-opacity="0.5"/>
<path d="M12.5 22.0001L12.5 19.5" stroke="#1A1A8D"/>
<path fill-rule="evenodd" clip-rule="evenodd" d="M9 14.0001L9.00003 14.0002L9.00006 14.0002C9.00021 15.7633 10.304 17.2218 12.0001 17.4644V14.8662C11.7012 14.6933 11.5001 14.3701 11.5001 14C11.5001 13.4477 11.9478 13 12.5001 13C13.0523 13 13.5001 13.4477 13.5001 14C13.5001 14.3701 13.299 14.6933 13.0001 14.8662V17.4644C14.6962 17.2218 16.0001 15.7631 16.0001 13.9999L16 13.9742C15.989 9.45534 13.1192 6.98557 12.5851 6.56492C12.5347 6.52526 12.4654 6.52522 12.415 6.56488C11.8799 6.98621 9.00001 9.46463 9 14.0001Z" fill="#1A1A8D"/>
</svg>
