<svg width="25" height="24" viewBox="0 0 25 24" fill="none" xmlns="http://www.w3.org/2000/svg">
<path d="M6.5 5.5V15H17.2929C17.8066 15 18.0635 15 18.1274 14.8457C18.1913 14.6913 18.0097 14.5097 17.6464 14.1464L13.7828 10.2828C13.6495 10.1495 13.5828 10.0828 13.5828 10C13.5828 9.91716 13.6495 9.85049 13.7828 9.71716L17.6464 5.85355C18.0097 5.49029 18.1913 5.30866 18.1274 5.15433C18.0635 5 17.8066 5 17.2929 5H7C6.7643 5 6.64645 5 6.57322 5.07322C6.5 5.14645 6.5 5.2643 6.5 5.5Z" fill="#FFD400" fill-opacity="0.5"/>
<path d="M6.5 15V5.5C6.5 5.2643 6.5 5.14645 6.57322 5.07322C6.64645 5 6.7643 5 7 5H17.2929C17.8066 5 18.0635 5 18.1274 5.15433C18.1913 5.30866 18.0097 5.49029 17.6464 5.85355L13.7828 9.71716C13.6495 9.85049 13.5828 9.91716 13.5828 10C13.5828 10.0828 13.6495 10.1495 13.7828 10.2828L17.6464 14.1464C18.0097 14.5097 18.1913 14.6913 18.1274 14.8457C18.0635 15 17.8066 15 17.2929 15H6.5ZM6.5 15V19" stroke="#1A1A8D" stroke-width="1.4" stroke-linecap="round"/>
</svg>
