<svg width="25" height="24" viewBox="0 0 25 24" fill="none" xmlns="http://www.w3.org/2000/svg">
<path d="M17.077 8.52566L7.15811 5.21937C6.8578 5.11927 6.70764 5.06921 6.60382 5.14405C6.5 5.21888 6.5 5.37716 6.5 5.69371V13L17.077 9.47434C17.6653 9.27824 17.9594 9.18019 17.9594 9C17.9594 8.81981 17.6653 8.72176 17.077 8.52566Z" fill="#FFD400" fill-opacity="0.5"/>
<path d="M6.5 13V5.69371C6.5 5.37716 6.5 5.21888 6.60382 5.14405C6.70764 5.06921 6.8578 5.11927 7.15811 5.21937L17.077 8.52566C17.6653 8.72176 17.9594 8.81981 17.9594 9C17.9594 9.18019 17.6653 9.27824 17.077 9.47434L6.5 13ZM6.5 13V18V19" stroke="#1A1A8D" stroke-width="1.4" stroke-linecap="round"/>
</svg>
