<svg width="25" height="24" viewBox="0 0 25 24" fill="none" xmlns="http://www.w3.org/2000/svg">
<path d="M12.5 3L11.7929 2.29289L12.5 1.58579L13.2071 2.29289L12.5 3ZM13.5 14C13.5 14.5523 13.0523 15 12.5 15C11.9477 15 11.5 14.5523 11.5 14L13.5 14ZM6.79289 7.29289L11.7929 2.29289L13.2071 3.70711L8.20711 8.70711L6.79289 7.29289ZM13.2071 2.29289L18.2071 7.29289L16.7929 8.70711L11.7929 3.70711L13.2071 2.29289ZM13.5 3L13.5 14L11.5 14L11.5 3L13.5 3Z" fill="#1A1A8D"/>
<path d="M12.5 21L11.7929 21.7071L12.5 22.4142L13.2071 21.7071L12.5 21ZM13.5 14C13.5 13.4477 13.0523 13 12.5 13C11.9477 13 11.5 13.4477 11.5 14L13.5 14ZM6.79289 16.7071L11.7929 21.7071L13.2071 20.2929L8.20711 15.2929L6.79289 16.7071ZM13.2071 21.7071L18.2071 16.7071L16.7929 15.2929L11.7929 20.2929L13.2071 21.7071ZM13.5 21L13.5 14L11.5 14L11.5 21L13.5 21Z" fill="#1A1A8D"/>
</svg>
