<svg width="25" height="24" viewBox="0 0 25 24" fill="none" xmlns="http://www.w3.org/2000/svg">
<path d="M12.5 3L12.1464 2.64645L12.5 2.29289L12.8536 2.64645L12.5 3ZM13 14C13 14.2761 12.7761 14.5 12.5 14.5C12.2239 14.5 12 14.2761 12 14L13 14ZM7.14645 7.64645L12.1464 2.64645L12.8536 3.35355L7.85355 8.35355L7.14645 7.64645ZM12.8536 2.64645L17.8536 7.64645L17.1464 8.35355L12.1464 3.35355L12.8536 2.64645ZM13 3L13 14L12 14L12 3L13 3Z" fill="#1A1A8D"/>
<path d="M12.5 21L12.1464 21.3536L12.5 21.7071L12.8536 21.3536L12.5 21ZM13 14C13 13.7239 12.7761 13.5 12.5 13.5C12.2239 13.5 12 13.7239 12 14L13 14ZM7.14645 16.3536L12.1464 21.3536L12.8536 20.6464L7.85355 15.6464L7.14645 16.3536ZM12.8536 21.3536L17.8536 16.3536L17.1464 15.6464L12.1464 20.6464L12.8536 21.3536ZM13 21L13 14L12 14L12 21L13 21Z" fill="#1A1A8D"/>
</svg>
