<svg width="25" height="24" viewBox="0 0 25 24" fill="none" xmlns="http://www.w3.org/2000/svg">
<path d="M4 15V6.9C4 6.05992 4 5.63988 4.16349 5.31901C4.3073 5.03677 4.53677 4.8073 4.81901 4.66349C5.13988 4.5 5.55992 4.5 6.4 4.5H8.97237C9.34808 4.5 9.53594 4.5 9.70646 4.55179C9.85741 4.59763 9.99785 4.6728 10.1197 4.77298C10.2574 4.88614 10.3616 5.04245 10.57 5.35507L11.43 6.64533C11.6384 6.95795 11.7426 7.11426 11.8803 7.22742C12.0022 7.3276 12.1426 7.40277 12.2935 7.44861C12.4641 7.5004 12.6519 7.5004 13.0276 7.5004H17.0004C17.465 7.5004 17.6973 7.5004 17.8879 7.55143C18.4058 7.69008 18.8103 8.09459 18.949 8.61248C19 8.80308 19 9.03539 19 9.5V9.5M11 13.5H17" stroke="#1A1A8D" stroke-linecap="round"/>
<path d="M5 18.5L17.2701 18.5004C17.8922 18.5004 18.2032 18.5004 18.4679 18.3963C18.7016 18.3044 18.9084 18.1553 19.0695 17.9626C19.252 17.7445 19.3503 17.4494 19.547 16.8593L20.9471 12.6592C21.3026 11.5927 21.4803 11.0595 21.3737 10.635C21.2804 10.2635 21.0485 9.94171 20.7255 9.7357C20.3566 9.50035 19.7945 9.50033 18.6703 9.5003L10.7299 9.50005C10.1078 9.50003 9.79681 9.50002 9.53216 9.60411C9.29846 9.69601 9.09157 9.84513 8.93047 10.0378C8.74804 10.2559 8.64968 10.551 8.45298 11.1411L6.2649 17.7057C6.10671 18.1803 5.66255 18.5004 5.16227 18.5004V18.5004C4.52037 18.5004 4 17.98 4 17.3381V14.5" stroke="#1A1A8D"/>
</svg>
