<svg width="25" height="24" viewBox="0 0 25 24" fill="none" xmlns="http://www.w3.org/2000/svg">
<path d="M5.5 13V9C5.5 7.11438 5.5 6.17157 6.08579 5.58579C6.67157 5 7.61438 5 9.5 5H9.84315C10.6606 5 11.0694 5 11.4369 5.15224C11.8045 5.30448 12.0935 5.59351 12.6716 6.17157L13.3284 6.82843C13.9065 7.40649 14.1955 7.69552 14.5631 7.84776C14.9306 8 15.3394 8 16.1569 8H17.5C19.3856 8 20.3284 8 20.9142 8.58579C21.5 9.17157 21.5 10.1144 21.5 12V15C21.5 16.8856 21.5 17.8284 20.9142 18.4142C20.3284 19 19.3856 19 17.5 19H11.5" stroke="#FFD400" stroke-opacity="0.5" stroke-width="1.2"/>
<path d="M4.5 16.5L7 19L12 14" stroke="#1A1A8D" stroke-width="1.2"/>
</svg>
