<svg width="25" height="24" viewBox="0 0 25 24" fill="none" xmlns="http://www.w3.org/2000/svg">
<path d="M3.5 7H19.5C20.6046 7 21.5 7.89543 21.5 9H3.5V7Z" fill="#1A1A8D"/>
<path d="M3.5 11H21.5V15.2C21.5 16.8802 21.5 17.7202 21.173 18.362C20.8854 18.9265 20.4265 19.3854 19.862 19.673C19.2202 20 18.3802 20 16.7 20H8.3C6.61984 20 5.77976 20 5.13803 19.673C4.57354 19.3854 4.1146 18.9265 3.82698 18.362C3.5 17.7202 3.5 16.8802 3.5 15.2V11Z" fill="#1A1A8D"/>
<path d="M3.5 7C3.5 6.06812 3.5 5.60218 3.65224 5.23463C3.85523 4.74458 4.24458 4.35523 4.73463 4.15224C5.10218 4 5.56812 4 6.5 4H8.84315C9.66065 4 10.0694 4 10.4369 4.15224C10.8045 4.30448 11.0935 4.59351 11.6716 5.17157L13.5 7H3.5Z" fill="#1A1A8D"/>
</svg>
