<svg width="25" height="24" viewBox="0 0 25 24" fill="none" xmlns="http://www.w3.org/2000/svg">
<path d="M4.5 8C4.5 6.11438 4.5 5.17157 5.08579 4.58579C5.67157 4 6.61438 4 8.5 4H8.84315C9.66065 4 10.0694 4 10.4369 4.15224C10.8045 4.30448 11.0935 4.59351 11.6716 5.17157L12.3284 5.82843C12.9065 6.40649 13.1955 6.69552 13.5631 6.84776C13.9306 7 14.3394 7 15.1569 7H16.5C18.3856 7 19.3284 7 19.9142 7.58579C20.5 8.17157 20.5 9.11438 20.5 11V15C20.5 16.8856 20.5 17.8284 19.9142 18.4142C19.3284 19 18.3856 19 16.5 19H8.5C6.61438 19 5.67157 19 5.08579 18.4142C4.5 17.8284 4.5 16.8856 4.5 15V8Z" stroke="#1A1A8D" stroke-width="2"/>
<path d="M5.5 11H19.5" stroke="#1A1A8D" stroke-width="2" stroke-miterlimit="1.41421"/>
</svg>
