<svg width="25" height="24" viewBox="0 0 25 24" fill="none" xmlns="http://www.w3.org/2000/svg">
<path d="M9.5 13.5H12M12 13.5H14.5M12 13.5V16M12 13.5V11" stroke="#1A1A8D"/>
<path d="M7.5 5.5H6.5C5.67157 5.5 5 6.17157 5 7V8" stroke="#1A1A8D"/>
<path d="M7.5 19.5H6.5C5.67157 19.5 5 18.8284 5 18V17" stroke="#1A1A8D"/>
<path d="M17.5 19.5H18.5C19.3284 19.5 20 18.8284 20 18V17" stroke="#1A1A8D"/>
<path d="M20 11L20 10C20 9.17157 19.3284 8.5 18.5 8.5L17.5 8.5" stroke="#1A1A8D"/>
<path d="M15.5 8.5H14.6213C14.2235 8.5 13.842 8.34196 13.5607 8.06066L13 7.5" stroke="#1A1A8D"/>
<path d="M12 6.5L11.4393 5.93934C11.158 5.65804 10.7765 5.5 10.3787 5.5H9.5" stroke="#1A1A8D"/>
<rect x="19.5" y="13" width="1" height="2" fill="#1A1A8D"/>
<rect x="4.5" y="13" width="1" height="2" fill="#1A1A8D"/>
<rect x="4.5" y="9" width="1" height="2" fill="#1A1A8D"/>
<rect x="13.5" y="19" width="2" height="1" fill="#1A1A8D"/>
<rect x="9.5" y="19" width="2" height="1" fill="#1A1A8D"/>
</svg>
