<svg width="25" height="24" viewBox="0 0 25 24" fill="none" xmlns="http://www.w3.org/2000/svg">
<path d="M5 11.5H20" stroke="#1A1A8D" stroke-miterlimit="1.41421"/>
<path d="M5 6.9C5 6.05992 5 5.63988 5.16349 5.31901C5.3073 5.03677 5.53677 4.8073 5.81901 4.66349C6.13988 4.5 6.55992 4.5 7.4 4.5H9.97237C10.3481 4.5 10.5359 4.5 10.7065 4.55179C10.8574 4.59763 10.9978 4.6728 11.1197 4.77298C11.2574 4.88614 11.3616 5.04245 11.57 5.35507L12.43 6.64533C12.6384 6.95795 12.7426 7.11426 12.8803 7.22742C13.0022 7.3276 13.1426 7.40277 13.2935 7.44861C13.4641 7.5004 13.6519 7.5004 14.0276 7.5004H17.6C18.4401 7.5004 18.8601 7.5004 19.181 7.66389C19.4632 7.8077 19.6927 8.03717 19.8365 8.31942C20 8.64028 20 9.06032 20 9.9004V16.1004C20 16.9405 20 17.3605 19.8365 17.6814C19.6927 17.9636 19.4632 18.1931 19.181 18.3369C18.8601 18.5004 18.4401 18.5004 17.6 18.5004H7.4C6.55992 18.5004 6.13988 18.5004 5.81901 18.3369C5.53677 18.1931 5.3073 17.9636 5.16349 17.6814C5 17.3605 5 16.9405 5 16.1004V6.9Z" stroke="#1A1A8D"/>
</svg>
