<svg width="25" height="24" viewBox="0 0 25 24" fill="none" xmlns="http://www.w3.org/2000/svg">
<path d="M5 6.89951C5 6.05943 5 5.63939 5.16349 5.31853C5.3073 5.03628 5.53677 4.80681 5.81901 4.663C6.13988 4.49951 6.55992 4.49951 7.4 4.49951H9.97237C10.3481 4.49951 10.5359 4.49951 10.7065 4.5513C10.8574 4.59715 10.9978 4.67231 11.1197 4.77249C11.2574 4.88565 11.3616 5.04196 11.57 5.35459L12.43 6.64484C12.6384 6.95746 12.7426 7.11377 12.8803 7.22693C13.0022 7.32711 13.1426 7.40228 13.2935 7.44813C13.4641 7.49991 13.6519 7.49991 14.0276 7.49991H17.6C18.4401 7.49991 18.8601 7.49991 19.181 7.6634C19.4632 7.80721 19.6927 8.03668 19.8365 8.31893C20 8.63979 20 9.05983 20 9.89991V16.0999C20 16.94 20 17.36 19.8365 17.6809C19.6927 17.9631 19.4632 18.1926 19.181 18.3364C18.8601 18.4999 18.4401 18.4999 17.6 18.4999H7.4C6.55992 18.4999 6.13988 18.4999 5.81901 18.3364C5.53677 18.1926 5.3073 17.9631 5.16349 17.6809C5 17.36 5 16.94 5 16.0999V6.89951Z" stroke="#1A1A8D"/>
</svg>
