<svg width="25" height="24" viewBox="0 0 25 24" fill="none" xmlns="http://www.w3.org/2000/svg">
<path d="M20 12V12C20 10.5955 20 9.89331 19.6629 9.38886C19.517 9.17048 19.3295 8.98298 19.1111 8.83706C18.6067 8.5 17.9045 8.5 16.5 8.5H14.6569C13.8394 8.5 13.4306 8.5 13.0631 8.34776C12.6955 8.19552 12.4065 7.90649 11.8284 7.32843L11.1716 6.67157C10.5935 6.09351 10.3045 5.80448 9.93694 5.65224C9.5694 5.5 9.16065 5.5 8.34315 5.5H8C6.11438 5.5 5.17157 5.5 4.58579 6.08579C4 6.67157 4 7.61438 4 9.5V14.5C4 16.3856 4 17.3284 4.58579 17.9142C5.17157 18.5 6.11438 18.5 8 18.5H12.5" stroke="#1A1A8D"/>
<circle cx="17" cy="16.5" r="2.5" stroke="#1A1A8D"/>
<path d="M20 19.5L21.5 21" stroke="#1A1A8D" stroke-linecap="round"/>
</svg>
