<svg width="25" height="24" viewBox="0 0 25 24" fill="none" xmlns="http://www.w3.org/2000/svg">
<path d="M14.6159 8.32009C14.7109 8.43409 14.8516 8.5 15 8.5H17.3C17.8683 8.5 18.2645 8.50039 18.5729 8.52559C18.8755 8.55031 19.0493 8.5964 19.181 8.66349C19.4632 8.8073 19.6927 9.03677 19.8365 9.31901C19.9036 9.45069 19.9497 9.62454 19.9744 9.92712C19.9996 10.2355 20 10.6317 20 11.2V13.8C20 14.3683 19.9996 14.7645 19.9744 15.0729C19.9497 15.3755 19.9036 15.5493 19.8365 15.681C19.6927 15.9632 19.4632 16.1927 19.181 16.3365C19.0493 16.4036 18.8755 16.4497 18.5729 16.4744C18.2645 16.4996 17.8683 16.5 17.3 16.5H9.7C9.1317 16.5 8.73554 16.4996 8.42712 16.4744C8.12454 16.4497 7.95069 16.4036 7.81901 16.3365C7.53677 16.1927 7.3073 15.9632 7.16349 15.681C7.0964 15.5493 7.05031 15.3755 7.02559 15.0729C7.00039 14.7645 7 14.3683 7 13.8V8.2C7 7.6317 7.00039 7.23554 7.02559 6.92712C7.05031 6.62454 7.0964 6.45069 7.16349 6.31901C7.3073 6.03677 7.53677 5.8073 7.81901 5.66349C7.95069 5.5964 8.12454 5.55031 8.42712 5.52559C8.73554 5.50039 9.1317 5.5 9.7 5.5H11.0012C11.5792 5.5 11.7764 5.50402 11.953 5.55151C12.1226 5.59714 12.2829 5.67222 12.4265 5.77332C12.576 5.87852 12.7054 6.02748 13.0754 6.4715L14.6159 8.32009Z" stroke="#1A1A8D" stroke-linejoin="round"/>
<path d="M17.5 16V17.6C17.5 18.4401 17.5 18.8601 17.3365 19.181C17.1927 19.4632 16.9632 19.6927 16.681 19.8365C16.3601 20 15.9401 20 15.1 20H5.9C5.05992 20 4.63988 20 4.31901 19.8365C4.03677 19.6927 3.8073 19.4632 3.66349 19.181C3.5 18.8601 3.5 18.4401 3.5 17.6V10.4C3.5 9.55992 3.5 9.13988 3.66349 8.81901C3.8073 8.53677 4.03677 8.3073 4.31901 8.16349C4.63988 8 5.05992 8 5.9 8H7.5" stroke="#1A1A8D" stroke-linejoin="round"/>
</svg>
