<svg width="25" height="24" viewBox="0 0 25 24" fill="none" xmlns="http://www.w3.org/2000/svg">
<path d="M3.5 7C3.5 5.11438 3.5 4.17157 4.08579 3.58579C4.67157 3 5.61438 3 7.5 3H17.5C19.3856 3 20.3284 3 20.9142 3.58579C21.5 4.17157 21.5 5.11438 21.5 7V17C21.5 18.8856 21.5 19.8284 20.9142 20.4142C20.3284 21 19.3856 21 17.5 21H7.5C5.61438 21 4.67157 21 4.08579 20.4142C3.5 19.8284 3.5 18.8856 3.5 17V7Z" stroke="#1A1A8D" stroke-width="2"/>
<path fill-rule="evenodd" clip-rule="evenodd" d="M18.5 10H13.1569C12.3394 10 11.9306 10 11.5631 9.84776C11.1955 9.69552 10.9065 9.40649 10.3284 8.82843L10.3284 8.82843L9.67157 8.17157C9.09351 7.59351 8.80448 7.30448 8.43694 7.15224C8.0694 7 7.66065 7 6.84315 7H3.5V17C3.5 18.8856 3.5 19.8284 4.08579 20.4142C4.67157 21 5.61438 21 7.5 21H17.5C19.3856 21 20.3284 21 20.9142 20.4142C21.5 19.8284 21.5 18.8856 21.5 17V7C21.5 7.93188 21.5 8.39782 21.3478 8.76537C21.1448 9.25542 20.7554 9.64477 20.2654 9.84776C19.8978 10 19.4319 10 18.5 10ZM7.5 15C6.94772 15 6.5 15.4477 6.5 16C6.5 16.5523 6.94772 17 7.5 17H15.5C16.0523 17 16.5 16.5523 16.5 16C16.5 15.4477 16.0523 15 15.5 15H7.5Z" fill="#1A1A8D"/>
</svg>
