<svg width="25" height="24" viewBox="0 0 25 24" fill="none" xmlns="http://www.w3.org/2000/svg">
<path d="M3 15.1C3 14.5399 3 14.2599 3.10899 14.046C3.20487 13.8578 3.35785 13.7049 3.54601 13.609C3.75992 13.5 4.03995 13.5 4.6 13.5H4.83707C5.08173 13.5 5.20406 13.5 5.31917 13.5276C5.42123 13.5522 5.5188 13.5926 5.60829 13.6474C5.70922 13.7093 5.7957 13.7958 5.96867 13.9689L6.03126 14.0315C6.20425 14.2045 6.29074 14.2911 6.39169 14.3529C6.4812 14.4078 6.57878 14.4482 6.68086 14.4727C6.79599 14.5004 6.91834 14.5004 7.16304 14.5003L8.39982 14.5002C8.95993 14.5001 9.23998 14.5001 9.45392 14.6091C9.6421 14.7049 9.7951 14.8579 9.89099 15.0461C10 15.26 10 15.5401 10 16.1002V17.9C10 18.4601 10 18.7401 9.89101 18.954C9.79513 19.1422 9.64215 19.2951 9.45399 19.391C9.24008 19.5 8.96005 19.5 8.4 19.5H4.6C4.03995 19.5 3.75992 19.5 3.54601 19.391C3.35785 19.2951 3.20487 19.1422 3.10899 18.954C3 18.7401 3 18.4601 3 17.9V15.1Z" stroke="#1A1A8D"/>
<path d="M15 15.1C15 14.5399 15 14.2599 15.109 14.046C15.2049 13.8578 15.3578 13.7049 15.546 13.609C15.7599 13.5 16.0399 13.5 16.6 13.5H16.8371C17.0817 13.5 17.2041 13.5 17.3192 13.5276C17.4212 13.5522 17.5188 13.5926 17.6083 13.6474C17.7092 13.7093 17.7957 13.7958 17.9687 13.9689L18.0313 14.0315C18.2042 14.2045 18.2907 14.2911 18.3917 14.3529C18.4812 14.4078 18.5788 14.4482 18.6809 14.4727C18.796 14.5004 18.9183 14.5004 19.163 14.5003L20.3998 14.5002C20.9599 14.5001 21.24 14.5001 21.4539 14.6091C21.6421 14.7049 21.7951 14.8579 21.891 15.0461C22 15.26 22 15.5401 22 16.1002V17.9C22 18.4601 22 18.7401 21.891 18.954C21.7951 19.1422 21.6422 19.2951 21.454 19.391C21.2401 19.5 20.9601 19.5 20.4 19.5H16.6C16.0399 19.5 15.7599 19.5 15.546 19.391C15.3578 19.2951 15.2049 19.1422 15.109 18.954C15 18.7401 15 18.4601 15 17.9V15.1Z" stroke="#1A1A8D"/>
<path d="M4 12.5V10.1C4 9.53995 4 9.25992 4.10899 9.04601C4.20487 8.85785 4.35785 8.70487 4.54601 8.60899C4.75992 8.5 5.03995 8.5 5.6 8.5H7.5M7.5 8.5L6 7M7.5 8.5L6 10" stroke="#1A1A8D"/>
<path d="M21 12.5V10.1C21 9.53995 21 9.25992 20.891 9.04601C20.7951 8.85785 20.6422 8.70487 20.454 8.60899C20.2401 8.5 19.9601 8.5 19.4 8.5H17.5M17.5 8.5L19 7M17.5 8.5L19 10" stroke="#1A1A8D"/>
<path d="M9 6.1C9 5.53995 9 5.25992 9.10899 5.04601C9.20487 4.85785 9.35785 4.70487 9.54601 4.60899C9.75992 4.5 10.0399 4.5 10.6 4.5H10.8371C11.0817 4.5 11.2041 4.5 11.3192 4.52764C11.4212 4.55215 11.5188 4.59258 11.6083 4.64743C11.7092 4.70931 11.7957 4.79582 11.9687 4.96886L12.0313 5.03147C12.2042 5.20453 12.2907 5.29106 12.3917 5.35294C12.4812 5.4078 12.5788 5.44822 12.6809 5.47273C12.796 5.50037 12.9183 5.50035 13.163 5.50033L14.3998 5.50018C14.9599 5.50012 15.24 5.50009 15.4539 5.60907C15.6421 5.70494 15.7951 5.85792 15.891 6.04609C16 6.26002 16 6.54007 16 7.10018V8.9C16 9.46005 16 9.74008 15.891 9.95399C15.7951 10.1422 15.6422 10.2951 15.454 10.391C15.2401 10.5 14.9601 10.5 14.4 10.5H10.6C10.0399 10.5 9.75992 10.5 9.54601 10.391C9.35785 10.2951 9.20487 10.1422 9.10899 9.95399C9 9.74008 9 9.46005 9 8.9V6.1Z" stroke="#1A1A8D"/>
</svg>
