<svg width="25" height="24" viewBox="0 0 25 24" fill="none" xmlns="http://www.w3.org/2000/svg">
<path d="M4.5 13C4.5 11.1144 4.5 10.1716 5.08579 9.58579C5.67157 9 6.61438 9 8.5 9H8.84315C9.66065 9 10.0694 9 10.4369 9.15224C10.8045 9.30448 11.0935 9.59351 11.6716 10.1716L12.3284 10.8284C12.9065 11.4065 13.1955 11.6955 13.5631 11.8478C13.9306 12 14.3394 12 15.1569 12H16.5C18.3856 12 19.3284 12 19.9142 12.5858C20.5 13.1716 20.5 14.1144 20.5 16V16C20.5 17.8856 20.5 18.8284 19.9142 19.4142C19.3284 20 18.3856 20 16.5 20H8.5C6.61438 20 5.67157 20 5.08579 19.4142C4.5 18.8284 4.5 17.8856 4.5 16V13Z" stroke="#1A1A8D" stroke-width="2"/>
<path d="M18.5 12V8C18.5 6.11438 18.5 5.17157 17.9142 4.58579C17.3284 4 16.3856 4 14.5 4H10.5C8.61438 4 7.67157 4 7.08579 4.58579C6.5 5.17157 6.5 6.11438 6.5 8V9" stroke="#1A1A8D" stroke-width="2"/>
</svg>
