<svg width="25" height="24" viewBox="0 0 25 24" fill="none" xmlns="http://www.w3.org/2000/svg">
<path d="M16.5391 6.38411C16.6531 6.52091 16.8219 6.6 17 6.6H19.3C19.87 6.6 20.2613 6.60047 20.5647 6.62526C20.8611 6.64947 21.0204 6.69388 21.1356 6.75259C21.399 6.88681 21.6132 7.10099 21.7474 7.36441C21.8061 7.47964 21.8505 7.63886 21.8747 7.93526C21.8995 8.23867 21.9 8.63005 21.9 9.2V11.8C21.9 12.37 21.8995 12.7613 21.8747 13.0647C21.8505 13.3611 21.8061 13.5204 21.7474 13.6356C21.6132 13.899 21.399 14.1132 21.1356 14.2474C21.0204 14.3061 20.8611 14.3505 20.5647 14.3747C20.2613 14.3995 19.87 14.4 19.3 14.4H11.7C11.13 14.4 10.7387 14.3995 10.4353 14.3747C10.1389 14.3505 9.97964 14.3061 9.86441 14.2474C9.60099 14.1132 9.38681 13.899 9.25259 13.6356C9.19388 13.5204 9.14947 13.3611 9.12526 13.0647C9.10047 12.7613 9.1 12.37 9.1 11.8V6.2C9.1 5.63005 9.10047 5.23867 9.12526 4.93526C9.14947 4.63886 9.19388 4.47964 9.25259 4.36441C9.38681 4.10099 9.60099 3.88681 9.86441 3.75259C9.97964 3.69388 10.1389 3.64947 10.4353 3.62526C10.7387 3.60047 11.13 3.6 11.7 3.6H13.0012C13.5846 3.6 13.7662 3.60482 13.927 3.64807C14.0853 3.69067 14.2349 3.76074 14.369 3.8551C14.5051 3.95091 14.6251 4.08734 14.9986 4.53552L16.5391 6.38411Z" stroke="#1A1A8D" stroke-width="1.2" stroke-linejoin="round"/>
<path d="M6.5 7H5.5C4.39543 7 3.5 7.89543 3.5 9V10" stroke="#FFD400" stroke-opacity="0.5" stroke-width="1.2" stroke-miterlimit="1.41421"/>
<path d="M6.5 20H5.5C4.39543 20 3.5 19.1046 3.5 18V17" stroke="#FFD400" stroke-opacity="0.5" stroke-width="1.2" stroke-miterlimit="1.41421"/>
<path d="M13.5 20H14.5C15.6046 20 16.5 19.1046 16.5 18V17" stroke="#FFD400" stroke-opacity="0.5" stroke-width="1.2" stroke-miterlimit="1.41421"/>
<path d="M11.5 20H8.5" stroke="#FFD400" stroke-opacity="0.5" stroke-width="1.2" stroke-miterlimit="1.41421"/>
<path d="M3.5 12L3.5 15" stroke="#FFD400" stroke-opacity="0.5" stroke-width="1.2" stroke-miterlimit="1.41421"/>
</svg>
