<svg width="25" height="24" viewBox="0 0 25 24" fill="none" xmlns="http://www.w3.org/2000/svg">
<path d="M8.5 7H3.5V19C3.5 20.1046 4.39543 21 5.5 21H19.5C20.6046 21 21.5 20.1046 21.5 19V10L20.5 11H11.5L8.5 7Z" fill="#FFD400" fill-opacity="0.5"/>
<path d="M3.5 7.8C3.5 6.11984 3.5 5.27976 3.82698 4.63803C4.1146 4.07354 4.57354 3.6146 5.13803 3.32698C5.77976 3 6.61984 3 8.3 3H16.7C18.3802 3 19.2202 3 19.862 3.32698C20.4265 3.6146 20.8854 4.07354 21.173 4.63803C21.5 5.27976 21.5 6.11984 21.5 7.8V16.2C21.5 17.8802 21.5 18.7202 21.173 19.362C20.8854 19.9265 20.4265 20.3854 19.862 20.673C19.2202 21 18.3802 21 16.7 21H8.3C6.61984 21 5.77976 21 5.13803 20.673C4.57354 20.3854 4.1146 19.9265 3.82698 19.362C3.5 18.7202 3.5 17.8802 3.5 16.2V7.8Z" stroke="#1A1A8D" stroke-width="1.2"/>
<path d="M3.5 7H6.5C7.48142 7 7.97214 7 8.39443 7.21115C8.81672 7.42229 9.11115 7.81486 9.7 8.6L10.3 9.4C10.8889 10.1851 11.1833 10.5777 11.6056 10.7889C12.0279 11 12.5186 11 13.5 11H18.5C19.4319 11 19.8978 11 20.2654 10.8478C20.7554 10.6448 21.1448 10.2554 21.3478 9.76537C21.5 9.39782 21.5 8.93188 21.5 8V8" stroke="#1A1A8D" stroke-width="1.2"/>
<path d="M7.5 16H15.5" stroke="#1A1A8D" stroke-width="1.2" stroke-linecap="round"/>
</svg>
