<svg width="25" height="24" viewBox="0 0 25 24" fill="none" xmlns="http://www.w3.org/2000/svg">
<path d="M16.6159 6.32009C16.7109 6.43409 16.8516 6.5 17 6.5H19.3C19.8683 6.5 20.2645 6.50039 20.5729 6.52559C20.8755 6.55031 21.0493 6.5964 21.181 6.66349C21.4632 6.8073 21.6927 7.03677 21.8365 7.31901C21.9036 7.45069 21.9497 7.62454 21.9744 7.92712C21.9996 8.23554 22 8.6317 22 9.2V11.8C22 12.3683 21.9996 12.7645 21.9744 13.0729C21.9497 13.3755 21.9036 13.5493 21.8365 13.681C21.6927 13.9632 21.4632 14.1927 21.181 14.3365C21.0493 14.4036 20.8755 14.4497 20.5729 14.4744C20.2645 14.4996 19.8683 14.5 19.3 14.5H11.7C11.1317 14.5 10.7355 14.4996 10.4271 14.4744C10.1245 14.4497 9.95069 14.4036 9.81901 14.3365C9.53677 14.1927 9.3073 13.9632 9.16349 13.681C9.0964 13.5493 9.05031 13.3755 9.02559 13.0729C9.00039 12.7645 9 12.3683 9 11.8V6.2C9 5.6317 9.00039 5.23554 9.02559 4.92712C9.05031 4.62454 9.0964 4.45069 9.16349 4.31901C9.3073 4.03677 9.53677 3.8073 9.81901 3.66349C9.95069 3.5964 10.1245 3.55031 10.4271 3.52559C10.7355 3.50039 11.1317 3.5 11.7 3.5H13.0012C13.5792 3.5 13.7764 3.50402 13.953 3.55151C14.1226 3.59714 14.2829 3.67222 14.4265 3.77332C14.576 3.87852 14.7054 4.02748 15.0754 4.4715L16.6159 6.32009Z" stroke="#1A1A8D" stroke-linejoin="round"/>
<path d="M6.5 7H5.5C4.39543 7 3.5 7.89543 3.5 9V10" stroke="#1A1A8D" stroke-miterlimit="1.41421"/>
<path d="M6.5 20H5.5C4.39543 20 3.5 19.1046 3.5 18V17" stroke="#1A1A8D" stroke-miterlimit="1.41421"/>
<path d="M13.5 20H14.5C15.6046 20 16.5 19.1046 16.5 18V17" stroke="#1A1A8D" stroke-miterlimit="1.41421"/>
<path d="M11.5 20H8.5" stroke="#1A1A8D" stroke-miterlimit="1.41421"/>
<path d="M3.5 12L3.5 15" stroke="#1A1A8D" stroke-miterlimit="1.41421"/>
</svg>
