<svg width="25" height="24" viewBox="0 0 25 24" fill="none" xmlns="http://www.w3.org/2000/svg">
<path d="M8.5 7C8.5 6.05719 8.5 5.58579 8.79289 5.29289C9.08579 5 9.55719 5 10.5 5H12.2639C12.8653 5 13.166 5 13.4077 5.14935C13.6493 5.2987 13.7838 5.56766 14.0528 6.10557L15 8H18.5C19.4428 8 19.9142 8 20.2071 8.29289C20.5 8.58579 20.5 9.05719 20.5 10V13C20.5 13.9428 20.5 14.4142 20.2071 14.7071C19.9142 15 19.4428 15 18.5 15H10.5C9.55719 15 9.08579 15 8.79289 14.7071C8.5 14.4142 8.5 13.9428 8.5 13V7Z" stroke="#1A1A8D" stroke-width="2" stroke-linejoin="round"/>
<path d="M17.5 15V17.4C17.5 17.9601 17.5 18.2401 17.391 18.454C17.2951 18.6422 17.1422 18.7951 16.954 18.891C16.7401 19 16.4601 19 15.9 19H6.1C5.53995 19 5.25992 19 5.04601 18.891C4.85785 18.7951 4.70487 18.6422 4.60899 18.454C4.5 18.2401 4.5 17.9601 4.5 17.4V9.6C4.5 9.03995 4.5 8.75992 4.60899 8.54601C4.70487 8.35785 4.85785 8.20487 5.04601 8.10899C5.25992 8 5.53995 8 6.1 8H8.5" stroke="#1A1A8D" stroke-width="2" stroke-linejoin="round"/>
</svg>
