<svg width="25" height="24" viewBox="0 0 25 24" fill="none" xmlns="http://www.w3.org/2000/svg">
<path d="M5.1 9C5.1 8.04023 5.10127 7.38076 5.16787 6.8854C5.23215 6.40731 5.34722 6.17288 5.51005 6.01005C5.67288 5.84722 5.90731 5.73215 6.3854 5.66787C6.88076 5.60127 7.54023 5.6 8.5 5.6H8.84315C9.7096 5.6 9.97569 5.61062 10.2073 5.70657C10.439 5.80252 10.6346 5.98316 11.2473 6.59584L11.9042 7.25269C11.9296 7.27813 11.9547 7.30325 11.9795 7.32805C12.4837 7.83293 12.8536 8.20332 13.3334 8.40209C13.8133 8.60086 14.3368 8.60051 15.0503 8.60005C15.0854 8.60002 15.1209 8.6 15.1569 8.6H16.5C17.4598 8.6 18.1192 8.60127 18.6146 8.66787C19.0927 8.73215 19.3271 8.84722 19.4899 9.01005C19.6528 9.17288 19.7678 9.40731 19.8321 9.88541C19.8987 10.3808 19.9 11.0402 19.9 12V15C19.9 15.9598 19.8987 16.6192 19.8321 17.1146C19.7678 17.5927 19.6528 17.8271 19.4899 17.9899C19.3271 18.1528 19.0927 18.2678 18.6146 18.3321C18.1192 18.3987 17.4598 18.4 16.5 18.4H8.5C7.54023 18.4 6.88076 18.3987 6.38541 18.3321C5.90731 18.2678 5.67288 18.1528 5.51005 17.9899C5.34722 17.8271 5.23215 17.5927 5.16787 17.1146C5.10127 16.6192 5.1 15.9598 5.1 15V9Z" fill="#FFD400" fill-opacity="0.5" stroke="#1A1A8D" stroke-width="1.2"/>
</svg>
