<svg width="25" height="24" viewBox="0 0 25 24" fill="none" xmlns="http://www.w3.org/2000/svg">
<path d="M19.5 14V12C19.5 10.1144 19.5 9.17157 18.9142 8.58579C18.3284 8 17.3856 8 15.5 8H14.1569C13.3394 8 12.9306 8 12.5631 7.84776C12.1955 7.69552 11.9065 7.40649 11.3284 6.82843L10.6716 6.17157C10.0935 5.59351 9.80448 5.30448 9.43694 5.15224C9.0694 5 8.66065 5 7.84315 5H7.5C5.61438 5 4.67157 5 4.08579 5.58579C3.5 6.17157 3.5 7.11438 3.5 9V15C3.5 16.8856 3.5 17.8284 4.08579 18.4142C4.67157 19 5.61438 19 7.5 19H14.5" stroke="#1A1A8D" stroke-width="2"/>
<path d="M16.5 19H19.5M19.5 19H22.5M19.5 19V22M19.5 19V16" stroke="#1A1A8D" stroke-width="2"/>
</svg>
