<svg width="25" height="24" viewBox="0 0 25 24" fill="none" xmlns="http://www.w3.org/2000/svg">
<path d="M3.5 8H16.7C18.3802 8 19.2202 8 19.862 8.32698C20.4265 8.6146 20.8854 9.07354 21.173 9.63803C21.5 10.2798 21.5 11.1198 21.5 12.8V14.2C21.5 15.8802 21.5 16.7202 21.173 17.362C20.8854 17.9265 20.4265 18.3854 19.862 18.673C19.2202 19 18.3802 19 16.7 19H8.3C6.61984 19 5.77976 19 5.13803 18.673C4.57354 18.3854 4.1146 17.9265 3.82698 17.362C3.5 16.7202 3.5 15.8802 3.5 14.2V8Z" fill="#1A1A8D"/>
<path d="M3.5 8C3.5 7.06812 3.5 6.60218 3.65224 6.23463C3.85523 5.74458 4.24458 5.35523 4.73463 5.15224C5.10218 5 5.56812 5 6.5 5H8.84315C9.66065 5 10.0694 5 10.4369 5.15224C10.8045 5.30448 11.0935 5.59351 11.6716 6.17157L13.5 8H3.5Z" fill="#1A1A8D"/>
</svg>
