<svg width="25" height="24" viewBox="0 0 25 24" fill="none" xmlns="http://www.w3.org/2000/svg">
<path d="M4.5 9C4.5 7.11438 4.5 6.17157 5.08579 5.58579C5.67157 5 6.61438 5 8.5 5H8.84315C9.66065 5 10.0694 5 10.4369 5.15224C10.8045 5.30448 11.0935 5.59351 11.6716 6.17157L12.3284 6.82843C12.9065 7.40649 13.1955 7.69552 13.5631 7.84776C13.9306 8 14.3394 8 15.1569 8H16.5C18.3856 8 19.3284 8 19.9142 8.58579C20.5 9.17157 20.5 10.1144 20.5 12V15C20.5 16.8856 20.5 17.8284 19.9142 18.4142C19.3284 19 18.3856 19 16.5 19H8.5C6.61438 19 5.67157 19 5.08579 18.4142C4.5 17.8284 4.5 16.8856 4.5 15V9Z" stroke="#1A1A8D" stroke-width="2"/>
</svg>
