<svg width="25" height="24" viewBox="0 0 25 24" fill="none" xmlns="http://www.w3.org/2000/svg">
<path d="M3.5 8C3.5 7.06812 3.5 6.60218 3.65224 6.23463C3.85523 5.74458 4.24458 5.35523 4.73463 5.15224C5.10218 5 5.56812 5 6.5 5H8.84315C9.66065 5 10.0694 5 10.4369 5.15224C10.8045 5.30448 11.0935 5.59351 11.6716 6.17157L13.5 8V11H3.5V8Z" fill="#FFD400" fill-opacity="0.5"/>
<path d="M3.5 11.2C3.5 10.0799 3.5 9.51984 3.71799 9.09202C3.90973 8.71569 4.21569 8.40973 4.59202 8.21799C5.01984 8 5.5799 8 6.7 8H18.3C19.4201 8 19.9802 8 20.408 8.21799C20.7843 8.40973 21.0903 8.71569 21.282 9.09202C21.5 9.51984 21.5 10.0799 21.5 11.2V15.8C21.5 16.9201 21.5 17.4802 21.282 17.908C21.0903 18.2843 20.7843 18.5903 20.408 18.782C19.9802 19 19.4201 19 18.3 19H6.7C5.5799 19 5.01984 19 4.59202 18.782C4.21569 18.5903 3.90973 18.2843 3.71799 17.908C3.5 17.4802 3.5 16.9201 3.5 15.8V11.2Z" fill="#1A1A8D"/>
</svg>
