<svg width="25" height="24" viewBox="0 0 25 24" fill="none" xmlns="http://www.w3.org/2000/svg">
<path d="M20.5 12V12C20.5 10.1144 20.5 9.17157 19.9142 8.58579C19.3284 8 18.3856 8 16.5 8H15.1569C14.3394 8 13.9306 8 13.5631 7.84776C13.1955 7.69552 12.9065 7.40649 12.3284 6.82843L11.6716 6.17157C11.0935 5.59351 10.8045 5.30448 10.4369 5.15224C10.0694 5 9.66065 5 8.84315 5H8.5C6.61438 5 5.67157 5 5.08579 5.58579C4.5 6.17157 4.5 7.11438 4.5 9V15C4.5 16.8856 4.5 17.8284 5.08579 18.4142C5.67157 19 6.61438 19 8.5 19H11.5" stroke="#1A1A8D" stroke-width="2"/>
<circle cx="17" cy="16.5" r="2.5" stroke="#1A1A8D" stroke-width="2"/>
<path d="M20 19.5L21.5 21" stroke="#1A1A8D" stroke-width="2" stroke-linecap="round"/>
</svg>
