<svg width="25" height="24" viewBox="0 0 25 24" fill="none" xmlns="http://www.w3.org/2000/svg">
<path d="M13.5 19.5H14C15.1046 19.5 16 18.6046 16 17.5V17" stroke="#FFD400" stroke-opacity="0.5" stroke-miterlimit="1.41421"/>
<path d="M6.5 19.5H6C4.89543 19.5 4 18.6046 4 17.5V17" stroke="#FFD400" stroke-opacity="0.5" stroke-miterlimit="1.41421"/>
<path d="M6.5 7.5H6C4.89543 7.5 4 8.39543 4 9.5V10" stroke="#FFD400" stroke-opacity="0.5" stroke-miterlimit="1.41421"/>
<path d="M11.5 19.5H8.5" stroke="#FFD400" stroke-opacity="0.5" stroke-miterlimit="1.41421"/>
<path d="M4 12L4 15" stroke="#FFD400" stroke-opacity="0.5" stroke-miterlimit="1.41421"/>
<path d="M8.5 6.2C8.5 5.0799 8.5 4.51984 8.71799 4.09202C8.90973 3.71569 9.21569 3.40973 9.59202 3.21799C10.0198 3 10.5799 3 11.7 3H13.0012C13.5521 3 13.8276 3 14.0829 3.06868C14.309 3.12953 14.5228 3.22963 14.7143 3.36443C14.9305 3.51656 15.1068 3.72818 15.4595 4.15141L17 6H19.3C20.4201 6 20.9802 6 21.408 6.21799C21.7843 6.40973 22.0903 6.71569 22.282 7.09202C22.5 7.51984 22.5 8.0799 22.5 9.2V11.8C22.5 12.9201 22.5 13.4802 22.282 13.908C22.0903 14.2843 21.7843 14.5903 21.408 14.782C20.9802 15 20.4201 15 19.3 15H11.7C10.5799 15 10.0198 15 9.59202 14.782C9.21569 14.5903 8.90973 14.2843 8.71799 13.908C8.5 13.4802 8.5 12.9201 8.5 11.8V6.2Z" fill="#1A1A8D"/>
</svg>
