<svg width="25" height="24" viewBox="0 0 25 24" fill="none" xmlns="http://www.w3.org/2000/svg">
<path d="M4 9.9C4 9.05992 4 8.63988 4.16349 8.31901C4.3073 8.03677 4.53677 7.8073 4.81901 7.66349C5.13988 7.5 5.55992 7.5 6.4 7.5H8.81332C9.24409 7.5 9.45947 7.5 9.64963 7.56559C9.81778 7.62359 9.97094 7.71825 10.098 7.84272C10.2417 7.98347 10.338 8.17612 10.5307 8.56142L11.4693 10.439C11.662 10.8243 11.7583 11.0169 11.902 11.1577C12.0291 11.2821 12.1822 11.3768 12.3504 11.4348C12.5405 11.5004 12.7559 11.5004 13.1867 11.5004H18.6C19.4401 11.5004 19.8601 11.5004 20.181 11.6639C20.4632 11.8077 20.6927 12.0372 20.8365 12.3194C21 12.6403 21 13.0603 21 13.9004V18.1004C21 18.9405 21 19.3605 20.8365 19.6814C20.6927 19.9636 20.4632 20.1931 20.181 20.3369C19.8601 20.5004 19.4401 20.5004 18.6 20.5004H6.4C5.55992 20.5004 5.13988 20.5004 4.81901 20.3369C4.53677 20.1931 4.3073 19.9636 4.16349 19.6814C4 19.3605 4 18.9405 4 18.1004V9.9Z" stroke="#1A1A8D"/>
<path d="M18 11V5.9C18 5.05992 18 4.63988 17.8365 4.31901C17.6927 4.03677 17.4632 3.8073 17.181 3.66349C16.8601 3.5 16.4401 3.5 15.6 3.5H9.4C8.55992 3.5 8.13988 3.5 7.81901 3.66349C7.53677 3.8073 7.3073 4.03677 7.16349 4.31901C7 4.63988 7 5.05992 7 5.9V8" stroke="#1A1A8D"/>
</svg>
