<svg width="25" height="24" viewBox="0 0 25 24" fill="none" xmlns="http://www.w3.org/2000/svg">
<path d="M8 4.5V6.9C8 7.46005 8 7.74008 8.10899 7.95399C8.20487 8.14215 8.35785 8.29513 8.54601 8.39101C8.75992 8.5 9.03995 8.5 9.6 8.5H11.5" stroke="#1A1A8D"/>
<path d="M8 4.5V14.9C8 15.4601 8 15.7401 8.10899 15.954C8.20487 16.1422 8.35785 16.2951 8.54601 16.391C8.75992 16.5 9.03995 16.5 9.6 16.5H11.5" stroke="#1A1A8D"/>
<path d="M14 7.1C14 6.53995 14 6.25992 14.109 6.04601C14.2049 5.85785 14.3578 5.70487 14.546 5.60899C14.7599 5.5 15.0399 5.5 15.6 5.5H15.8371C16.0817 5.5 16.2041 5.5 16.3192 5.52764C16.4212 5.55215 16.5188 5.59258 16.6083 5.64743C16.7092 5.70931 16.7957 5.79582 16.9687 5.96886L17.0312 6.03144C17.2042 6.20451 17.2907 6.29105 17.3917 6.35293C17.4812 6.40779 17.5788 6.44821 17.6809 6.47272C17.796 6.50035 17.9184 6.50033 18.1631 6.50029L18.3997 6.50026C18.9599 6.50017 19.2399 6.50012 19.4539 6.6091C19.6421 6.70497 19.7951 6.85795 19.891 7.04613C20 7.26006 20 7.54012 20 8.10026V8.9C20 9.46005 20 9.74008 19.891 9.95399C19.7951 10.1422 19.6422 10.2951 19.454 10.391C19.2401 10.5 18.9601 10.5 18.4 10.5H15.6C15.0399 10.5 14.7599 10.5 14.546 10.391C14.3578 10.2951 14.2049 10.1422 14.109 9.95399C14 9.74008 14 9.46005 14 8.9V7.1Z" stroke="#1A1A8D"/>
<path d="M14 15.1C14 14.5399 14 14.2599 14.109 14.046C14.2049 13.8578 14.3578 13.7049 14.546 13.609C14.7599 13.5 15.0399 13.5 15.6 13.5H15.8371C16.0817 13.5 16.2041 13.5 16.3192 13.5276C16.4212 13.5522 16.5188 13.5926 16.6083 13.6474C16.7092 13.7093 16.7957 13.7958 16.9687 13.9689L17.0312 14.0314C17.2042 14.2045 17.2907 14.291 17.3917 14.3529C17.4812 14.4078 17.5788 14.4482 17.6809 14.4727C17.796 14.5004 17.9184 14.5003 18.1631 14.5003L18.3997 14.5003C18.9599 14.5002 19.2399 14.5001 19.4539 14.6091C19.6421 14.705 19.7951 14.858 19.891 15.0461C20 15.2601 20 15.5401 20 16.1003V16.9C20 17.4601 20 17.7401 19.891 17.954C19.7951 18.1422 19.6422 18.2951 19.454 18.391C19.2401 18.5 18.9601 18.5 18.4 18.5H15.6C15.0399 18.5 14.7599 18.5 14.546 18.391C14.3578 18.2951 14.2049 18.1422 14.109 17.954C14 17.7401 14 17.4601 14 16.9V15.1Z" stroke="#1A1A8D"/>
</svg>
