<svg width="25" height="24" viewBox="0 0 25 24" fill="none" xmlns="http://www.w3.org/2000/svg">
<path d="M4 7.5C4 6.09987 4 5.3998 4.27248 4.86502C4.51217 4.39462 4.89462 4.01217 5.36502 3.77248C5.8998 3.5 6.59987 3.5 8 3.5H17C18.4001 3.5 19.1002 3.5 19.635 3.77248C20.1054 4.01217 20.4878 4.39462 20.7275 4.86502C21 5.3998 21 6.09987 21 7.5V16.5C21 17.9001 21 18.6002 20.7275 19.135C20.4878 19.6054 20.1054 19.9878 19.635 20.2275C19.1002 20.5 18.4001 20.5 17 20.5H8C6.59987 20.5 5.8998 20.5 5.36502 20.2275C4.89462 19.9878 4.51217 19.6054 4.27248 19.135C4 18.6002 4 17.9001 4 16.5V7.5Z" stroke="#1A1A8D"/>
<path d="M4 8.5H6.76393C7.73426 8.5 8.21942 8.5 8.62999 8.69724C8.75717 8.75834 8.87753 8.83272 8.98906 8.91915C9.34909 9.19817 9.56606 9.63211 10 10.5V10.5C10.4339 11.3679 10.6509 11.8018 11.0109 12.0808C11.1225 12.1673 11.2428 12.2417 11.37 12.3028C11.7806 12.5 12.2657 12.5 13.2361 12.5H18C18.9319 12.5 19.3978 12.5 19.7654 12.3478C20.2554 12.1448 20.6448 11.7554 20.8478 11.2654C21 10.8978 21 10.4319 21 9.5V9.5" stroke="#1A1A8D"/>
<path d="M7.5 16H15.5" stroke="#1A1A8D" stroke-linecap="round"/>
</svg>
