<svg width="25" height="24" viewBox="0 0 25 24" fill="none" xmlns="http://www.w3.org/2000/svg">
<path d="M3.5 7C3.5 5.11438 3.5 4.17157 4.08579 3.58579C4.67157 3 5.61438 3 7.5 3H17.5C19.3856 3 20.3284 3 20.9142 3.58579C21.5 4.17157 21.5 5.11438 21.5 7V17C21.5 18.8856 21.5 19.8284 20.9142 20.4142C20.3284 21 19.3856 21 17.5 21H7.5C5.61438 21 4.67157 21 4.08579 20.4142C3.5 19.8284 3.5 18.8856 3.5 17V7Z" stroke="#1A1A8D" stroke-width="2"/>
<path d="M3.5 7H6.5C7.48142 7 7.97214 7 8.39443 7.21115C8.81672 7.42229 9.11115 7.81486 9.7 8.6L10.3 9.4C10.8889 10.1851 11.1833 10.5777 11.6056 10.7889C12.0279 11 12.5186 11 13.5 11H18.5C19.4319 11 19.8978 11 20.2654 10.8478C20.7554 10.6448 21.1448 10.2554 21.3478 9.76537C21.5 9.39782 21.5 8.93188 21.5 8V8" stroke="#1A1A8D" stroke-width="2"/>
<path d="M7.5 16H15.5" stroke="#1A1A8D" stroke-width="2" stroke-linecap="round"/>
</svg>
