<svg width="25" height="24" viewBox="0 0 25 24" fill="none" xmlns="http://www.w3.org/2000/svg">
<path d="M15.5391 7.38411C15.6531 7.52091 15.8219 7.6 16 7.6H18.3C18.87 7.6 19.2613 7.60047 19.5647 7.62526C19.8611 7.64947 20.0204 7.69388 20.1356 7.75259C20.399 7.88681 20.6132 8.10099 20.7474 8.36441C20.8061 8.47964 20.8505 8.63886 20.8747 8.93526C20.8995 9.23867 20.9 9.63005 20.9 10.2V12.8C20.9 13.37 20.8995 13.7613 20.8747 14.0647C20.8505 14.3611 20.8061 14.5204 20.7474 14.6356C20.6132 14.899 20.399 15.1132 20.1356 15.2474C20.0204 15.3061 19.8611 15.3505 19.5647 15.3747C19.2613 15.3995 18.87 15.4 18.3 15.4H10.7C10.13 15.4 9.73867 15.3995 9.43526 15.3747C9.13886 15.3505 8.97964 15.3061 8.86441 15.2474C8.60099 15.1132 8.38681 14.899 8.25259 14.6356C8.19388 14.5204 8.14947 14.3611 8.12526 14.0647C8.10047 13.7613 8.1 13.37 8.1 12.8V7.2C8.1 6.63005 8.10047 6.23867 8.12526 5.93526C8.14947 5.63886 8.19388 5.47964 8.25259 5.36441C8.38681 5.10099 8.60099 4.88681 8.86441 4.75259C8.97964 4.69388 9.13886 4.64947 9.43526 4.62526C9.73867 4.60047 10.13 4.6 10.7 4.6H12.0012C12.5846 4.6 12.7662 4.60482 12.927 4.64807C13.0853 4.69067 13.2349 4.76074 13.369 4.8551C13.5051 4.95091 13.6251 5.08734 13.9986 5.53552L15.5391 7.38411Z" stroke="#1A1A8D" stroke-width="1.2" stroke-linejoin="round"/>
<path d="M17.5 15V16.8C17.5 17.9201 17.5 18.4802 17.282 18.908C17.0903 19.2843 16.7843 19.5903 16.408 19.782C15.9802 20 15.4201 20 14.3 20H6.7C5.57989 20 5.01984 20 4.59202 19.782C4.21569 19.5903 3.90973 19.2843 3.71799 18.908C3.5 18.4802 3.5 17.9201 3.5 16.8V11.2C3.5 10.0799 3.5 9.51984 3.71799 9.09202C3.90973 8.71569 4.21569 8.40973 4.59202 8.21799C5.01984 8 5.57989 8 6.7 8H8.5" stroke="#FFD400" stroke-opacity="0.5" stroke-width="1.2" stroke-linejoin="round"/>
</svg>
