<svg width="25" height="24" viewBox="0 0 25 24" fill="none" xmlns="http://www.w3.org/2000/svg">
<path d="M15 5.5C15 4.55719 15 4.08579 15.2929 3.79289C15.5858 3.5 16.0572 3.5 17 3.5H20C20.9428 3.5 21.4142 3.5 21.7071 3.79289C22 4.08579 22 4.55719 22 5.5V18.5C22 19.4428 22 19.9142 21.7071 20.2071C21.4142 20.5 20.9428 20.5 20 20.5H17C16.0572 20.5 15.5858 20.5 15.2929 20.2071C15 19.9142 15 19.4428 15 18.5V5.5Z" stroke="#1A1A8D"/>
<path d="M17 17C17 16.7643 17 16.6464 17.0732 16.5732C17.1464 16.5 17.2643 16.5 17.5 16.5H19.5C19.7357 16.5 19.8536 16.5 19.9268 16.5732C20 16.6464 20 16.7643 20 17V18C20 18.2357 20 18.3536 19.9268 18.4268C19.8536 18.5 19.7357 18.5 19.5 18.5H17.5C17.2643 18.5 17.1464 18.5 17.0732 18.4268C17 18.3536 17 18.2357 17 18V17Z" stroke="#1A1A8D"/>
<path d="M17 6.5H20" stroke="#1A1A8D" stroke-linecap="round"/>
<path d="M17 9.5H20" stroke="#1A1A8D" stroke-linecap="round"/>
<path d="M15 14.5H22" stroke="#1A1A8D" stroke-linecap="round"/>
<path d="M19 3.5H11C10.0572 3.5 9.58579 3.5 9.29289 3.79289C9 4.08579 9 4.55719 9 5.5V18.5C9 19.4428 9 19.9142 9.29289 20.2071C9.58579 20.5 10.0572 20.5 11 20.5H19" stroke="#1A1A8D" stroke-linecap="round"/>
<path d="M13.5 16.5H11.5C11.2643 16.5 11.1464 16.5 11.0732 16.5732C11 16.6464 11 16.7643 11 17V18C11 18.2357 11 18.3536 11.0732 18.4268C11.1464 18.5 11.2643 18.5 11.5 18.5H13.5" stroke="#1A1A8D"/>
<path d="M11 6C10.7239 6 10.5 6.22386 10.5 6.5C10.5 6.77614 10.7239 7 11 7V6ZM11 7H13.5V6H11V7Z" fill="#1A1A8D"/>
<path d="M11 9C10.7239 9 10.5 9.22386 10.5 9.5C10.5 9.77614 10.7239 10 11 10V9ZM11 10H13.5V9H11V10Z" fill="#1A1A8D"/>
<path d="M9 14.5H13.5" stroke="#1A1A8D"/>
<path d="M13 3.5H5C4.05719 3.5 3.58579 3.5 3.29289 3.79289C3 4.08579 3 4.55719 3 5.5V18.5C3 19.4428 3 19.9142 3.29289 20.2071C3.58579 20.5 4.05719 20.5 5 20.5H13" stroke="#1A1A8D" stroke-linecap="round"/>
<path d="M7.5 16.5H5.5C5.2643 16.5 5.14645 16.5 5.07322 16.5732C5 16.6464 5 16.7643 5 17V18C5 18.2357 5 18.3536 5.07322 18.4268C5.14645 18.5 5.2643 18.5 5.5 18.5H7.5" stroke="#1A1A8D"/>
<path d="M5 6C4.72386 6 4.5 6.22386 4.5 6.5C4.5 6.77614 4.72386 7 5 7V6ZM5 7H7.5V6H5V7Z" fill="#1A1A8D"/>
<path d="M5 9C4.72386 9 4.5 9.22386 4.5 9.5C4.5 9.77614 4.72386 10 5 10V9ZM5 10H7.5V9H5V10Z" fill="#1A1A8D"/>
<path d="M3 14.5H7.5" stroke="#1A1A8D"/>
</svg>
