<svg width="25" height="24" viewBox="0 0 25 24" fill="none" xmlns="http://www.w3.org/2000/svg">
<rect x="2.5" y="2" width="20" height="9" rx="2" fill="#FFD400" fill-opacity="0.5"/>
<path fill-rule="evenodd" clip-rule="evenodd" d="M19.5 10H12.1569C11.3394 10 10.9306 10 10.5631 9.84776C10.1955 9.69552 9.90649 9.40649 9.32843 8.82843L9.32843 8.82843L8.53553 8.03553C8.09249 7.59249 7.87096 7.37096 7.60204 7.22962C7.49433 7.17301 7.38167 7.12635 7.26548 7.09022C6.97538 7 6.6621 7 6.03553 7C4.5972 7 3.87804 7 3.36576 7.35273C3.1649 7.49103 2.99103 7.6649 2.85273 7.86576C2.5 8.37804 2.5 9.0972 2.5 10.5355V18C2.5 19.8856 2.5 20.8284 3.08579 21.4142C3.67157 22 4.61438 22 6.5 22H18.5C20.3856 22 21.3284 22 21.9142 21.4142C22.5 20.8284 22.5 19.8856 22.5 18V7C22.5 7.93188 22.5 8.39782 22.3478 8.76537C22.1448 9.25542 21.7554 9.64477 21.2654 9.84776C20.8978 10 20.4319 10 19.5 10ZM6.5 14C5.94772 14 5.5 14.4477 5.5 15C5.5 15.5523 5.94772 16 6.5 16H14.5C15.0523 16 15.5 15.5523 15.5 15C15.5 14.4477 15.0523 14 14.5 14H6.5Z" fill="#1A1A8D"/>
</svg>
