<svg width="25" height="24" viewBox="0 0 25 24" fill="none" xmlns="http://www.w3.org/2000/svg">
<path d="M19 11V7.5C19 5.61438 19 4.67157 18.4142 4.08579C17.8284 3.5 16.8856 3.5 15 3.5H10C8.11438 3.5 7.17157 3.5 6.58579 4.08579C6 4.67157 6 5.61438 6 7.5V8" stroke="#FFD400" stroke-opacity="0.5" stroke-width="1.2"/>
<path d="M13.0757 10.4243C13.1883 10.5368 13.3409 10.6 13.5 10.6H18.3C18.87 10.6 19.2613 10.6005 19.5647 10.6253C19.8611 10.6495 20.0204 10.6939 20.1356 10.7526C20.399 10.8868 20.6132 11.101 20.7474 11.3644L21.2508 11.1079L20.7474 11.3644C20.8061 11.4796 20.8505 11.6389 20.8747 11.9353C20.8995 12.2387 20.9 12.63 20.9 13.2V17.8C20.9 18.37 20.8995 18.7613 20.8747 19.0647C20.8505 19.3611 20.8061 19.5204 20.7474 19.6356C20.6132 19.899 20.399 20.1132 20.1356 20.2474C20.0204 20.3061 19.8611 20.3505 19.5647 20.3747C19.2613 20.3995 18.87 20.4 18.3 20.4H6.7C6.13005 20.4 5.73867 20.3995 5.43526 20.3747C5.13886 20.3505 4.97964 20.3061 4.86441 20.2474C4.60099 20.1132 4.38681 19.899 4.25259 19.6356C4.19388 19.5204 4.14947 19.3611 4.12526 19.0647C4.10047 18.7613 4.1 18.37 4.1 17.8V10.2C4.1 9.63005 4.10047 9.23867 4.12526 8.93526C4.14947 8.63886 4.19388 8.47964 4.25259 8.36441C4.38681 8.10099 4.60099 7.88681 4.86441 7.75259C4.97964 7.69388 5.13886 7.64947 5.43526 7.62526C5.73867 7.60047 6.13005 7.6 6.7 7.6H9.17452C9.69226 7.6 9.85334 7.60386 9.9984 7.63868C10.1412 7.67298 10.2778 7.72954 10.4031 7.8063C10.5303 7.88425 10.6469 7.99542 11.013 8.36152L13.0757 10.4243Z" stroke="#1A1A8D" stroke-width="1.2" stroke-linejoin="round"/>
</svg>
