<svg width="25" height="24" viewBox="0 0 25 24" fill="none" xmlns="http://www.w3.org/2000/svg">
<path d="M9.5 6C9.5 5.05719 9.5 4.58579 9.79289 4.29289C10.0858 4 10.5572 4 11.5 4H13.2639C13.8653 4 14.166 4 14.4077 4.14935C14.6493 4.2987 14.7838 4.56766 15.0528 5.10557L16 7H19.5C20.4428 7 20.9142 7 21.2071 7.29289C21.5 7.58579 21.5 8.05719 21.5 9V12C21.5 12.9428 21.5 13.4142 21.2071 13.7071C20.9142 14 20.4428 14 19.5 14H11.5C10.5572 14 10.0858 14 9.79289 13.7071C9.5 13.4142 9.5 12.9428 9.5 12V6Z" stroke="#1A1A8D" stroke-width="2" stroke-linejoin="round"/>
<path d="M6.5 7H5.5C4.39543 7 3.5 7.89543 3.5 9V10" stroke="#1A1A8D" stroke-width="2" stroke-miterlimit="1.41421"/>
<path d="M6.5 20H5.5C4.39543 20 3.5 19.1046 3.5 18V17" stroke="#1A1A8D" stroke-width="2" stroke-miterlimit="1.41421"/>
<path d="M13.5 20H14.5C15.6046 20 16.5 19.1046 16.5 18V17" stroke="#1A1A8D" stroke-width="2" stroke-miterlimit="1.41421"/>
<path d="M11.5 20H8.5" stroke="#1A1A8D" stroke-width="2" stroke-miterlimit="1.41421"/>
<path d="M3.5 12L3.5 15" stroke="#1A1A8D" stroke-width="2" stroke-miterlimit="1.41421"/>
</svg>
