<svg width="25" height="24" viewBox="0 0 25 24" fill="none" xmlns="http://www.w3.org/2000/svg">
<path d="M3.5 11.2C3.5 10.0799 3.5 9.51984 3.71799 9.09202C3.90973 8.71569 4.21569 8.40973 4.59202 8.21799C5.01984 8 5.5799 8 6.7 8H8.0012C8.55213 8 8.82759 8 9.08285 8.06868C9.30903 8.12953 9.52275 8.22963 9.71429 8.36443C9.93047 8.51656 10.1068 8.72818 10.4595 9.15141L12 11H14.3C15.4201 11 15.9802 11 16.408 11.218C16.7843 11.4097 17.0903 11.7157 17.282 12.092C17.5 12.5198 17.5 13.0799 17.5 14.2V16.8C17.5 17.9201 17.5 18.4802 17.282 18.908C17.0903 19.2843 16.7843 19.5903 16.408 19.782C15.9802 20 15.4201 20 14.3 20H9.9C7.65979 20 6.53969 20 5.68404 19.564C4.93139 19.1805 4.31947 18.5686 3.93597 17.816C3.5 16.9603 3.5 15.8402 3.5 13.6V11.2Z" fill="#1A1A8D"/>
<path d="M7.5 7.2C7.5 6.0799 7.5 5.51984 7.71799 5.09202C7.90973 4.71569 8.21569 4.40973 8.59202 4.21799C9.01984 4 9.5799 4 10.7 4H12.0012C12.5521 4 12.8276 4 13.0829 4.06868C13.309 4.12953 13.5228 4.22963 13.7143 4.36443C13.9305 4.51656 14.1068 4.72818 14.4595 5.15141L16 7H18.3C19.4201 7 19.9802 7 20.408 7.21799C20.7843 7.40973 21.0903 7.71569 21.282 8.09202C21.5 8.51984 21.5 9.0799 21.5 10.2V12.8C21.5 13.9201 21.5 14.4802 21.282 14.908C21.0903 15.2843 20.7843 15.5903 20.408 15.782C19.9802 16 19.4201 16 18.3 16H10.7C9.5799 16 9.01984 16 8.59202 15.782C8.21569 15.5903 7.90973 15.2843 7.71799 14.908C7.5 14.4802 7.5 13.9201 7.5 12.8V7.2Z" fill="#1A1A8D"/>
<path d="M6.5 7V15C6.5 16.1046 7.39543 17 8.5 17H20.5" stroke="#9999CC" stroke-width="2"/>
</svg>
