<svg width="25" height="24" viewBox="0 0 25 24" fill="none" xmlns="http://www.w3.org/2000/svg">
<rect x="6.5" y="3" width="12" height="10" rx="2" fill="#FFD400" fill-opacity="0.5"/>
<path d="M3.5 10H18.3C19.4201 10 19.9802 10 20.408 10.218C20.7843 10.4097 21.0903 10.7157 21.282 11.092C21.5 11.5198 21.5 12.0799 21.5 13.2V17.8C21.5 18.9201 21.5 19.4802 21.282 19.908C21.0903 20.2843 20.7843 20.5903 20.408 20.782C19.9802 21 19.4201 21 18.3 21H6.7C5.5799 21 5.01984 21 4.59202 20.782C4.21569 20.5903 3.90973 20.2843 3.71799 19.908C3.5 19.4802 3.5 18.9201 3.5 17.8V10Z" fill="#1A1A8D"/>
<path d="M3.5 10C3.5 9.06812 3.5 8.60218 3.65224 8.23463C3.85523 7.74458 4.24458 7.35523 4.73463 7.15224C5.10218 7 5.56812 7 6.5 7H8.84315C9.66065 7 10.0694 7 10.4369 7.15224C10.8045 7.30448 11.0935 7.59351 11.6716 8.17157L13.5 10H3.5Z" fill="#1A1A8D"/>
</svg>
