<svg width="25" height="24" viewBox="0 0 25 24" fill="none" xmlns="http://www.w3.org/2000/svg">
<path d="M4.5 11.2C4.5 10.0799 4.5 9.51984 4.71799 9.09202C4.90973 8.71569 5.21569 8.40973 5.59202 8.21799C6.01984 8 6.5799 8 7.7 8H9.0012C9.55213 8 9.82759 8 10.0829 8.06868C10.309 8.12953 10.5228 8.22963 10.7143 8.36443C10.9305 8.51656 11.1068 8.72818 11.4595 9.15141L13 11H15.3C16.4201 11 16.9802 11 17.408 11.218C17.7843 11.4097 18.0903 11.7157 18.282 12.092C18.5 12.5198 18.5 13.0799 18.5 14.2V16.8C18.5 17.9201 18.5 18.4802 18.282 18.908C18.0903 19.2843 17.7843 19.5903 17.408 19.782C16.9802 20 16.4201 20 15.3 20H7.7C6.5799 20 6.01984 20 5.59202 19.782C5.21569 19.5903 4.90973 19.2843 4.71799 18.908C4.5 18.4802 4.5 17.9201 4.5 16.8V11.2Z" fill="#FFD400" fill-opacity="0.5"/>
<path d="M7.5 8.2C7.5 7.0799 7.5 6.51984 7.71799 6.09202C7.90973 5.71569 8.21569 5.40973 8.59202 5.21799C9.01984 5 9.5799 5 10.7 5H12.0012C12.5521 5 12.8276 5 13.0829 5.06868C13.309 5.12953 13.5228 5.22963 13.7143 5.36443C13.9305 5.51656 14.1068 5.72818 14.4595 6.15141L16 8H18.3C19.4201 8 19.9802 8 20.408 8.21799C20.7843 8.40973 21.0903 8.71569 21.282 9.09202C21.5 9.51984 21.5 10.0799 21.5 11.2V13.8C21.5 14.9201 21.5 15.4802 21.282 15.908C21.0903 16.2843 20.7843 16.5903 20.408 16.782C19.9802 17 19.4201 17 18.3 17H10.7C9.5799 17 9.01984 17 8.59202 16.782C8.21569 16.5903 7.90973 16.2843 7.71799 15.908C7.5 15.4802 7.5 14.9201 7.5 13.8V8.2Z" fill="#1A1A8D"/>
</svg>
