<svg width="25" height="24" viewBox="0 0 25 24" fill="none" xmlns="http://www.w3.org/2000/svg">
<path d="M15 18.5004H6.4C5.55992 18.5004 5.13988 18.5004 4.81901 18.3369C4.53677 18.1931 4.3073 17.9636 4.16349 17.6814C4 17.3605 4 16.9405 4 16.1004V6.9C4 6.05992 4 5.63988 4.16349 5.31901C4.3073 5.03677 4.53677 4.8073 4.81901 4.66349C5.13988 4.5 5.55992 4.5 6.4 4.5H8.97237C9.34808 4.5 9.53594 4.5 9.70646 4.55179C9.85741 4.59763 9.99785 4.6728 10.1197 4.77298C10.2574 4.88614 10.3616 5.04245 10.57 5.35507L11.43 6.64533C11.6384 6.95795 11.7426 7.11426 11.8803 7.22742C12.0022 7.3276 12.1426 7.40277 12.2935 7.44861C12.4641 7.5004 12.6519 7.5004 13.0276 7.5004H17.0004C17.465 7.5004 17.6973 7.5004 17.8879 7.55143C18.4058 7.69008 18.8103 8.09459 18.949 8.61248C19 8.80308 19 9.03539 19 9.5V9.5M10 13.5H17" stroke="#1A1A8D" stroke-linecap="round"/>
<path d="M6.45298 11.1411C6.64969 10.551 6.74804 10.2559 6.93047 10.0378C7.09157 9.84512 7.29845 9.69601 7.53216 9.6041C7.7968 9.50002 8.10783 9.50003 8.7299 9.50005L18.6703 9.50031C19.7945 9.50034 20.3566 9.50036 20.7255 9.7357C21.0485 9.94171 21.2804 10.2635 21.3737 10.635C21.4803 11.0595 21.3025 11.5928 20.947 12.6593L19.547 16.8593C19.3503 17.4495 19.252 17.7445 19.0695 17.9627C18.9084 18.1553 18.7016 18.3044 18.4679 18.3963C18.2032 18.5004 17.8922 18.5004 17.2702 18.5004H7.32977C6.20557 18.5004 5.64347 18.5004 5.27449 18.2651C4.9515 18.0591 4.71958 17.7373 4.62628 17.3657C4.51969 16.9413 4.69744 16.408 5.05293 15.3415L6.45298 11.1411Z" stroke="#1A1A8D"/>
</svg>
