<svg width="25" height="24" viewBox="0 0 25 24" fill="none" xmlns="http://www.w3.org/2000/svg">
<path d="M6.5 7C6.5 5.11438 6.5 4.17157 7.08579 3.58579C7.67157 3 8.61438 3 10.5 3H14.5C16.3856 3 17.3284 3 17.9142 3.58579C18.5 4.17157 18.5 5.11438 18.5 7V9C18.5 10.8856 18.5 11.8284 17.9142 12.4142C17.3284 13 16.3856 13 14.5 13H10.5C8.61438 13 7.67157 13 7.08579 12.4142C6.5 11.8284 6.5 10.8856 6.5 9V7Z" fill="#1A1A8D"/>
<path d="M5.5 8H10.6716C11.202 8 11.7107 8.21071 12.0858 8.58579L13.9142 10.4142C14.2893 10.7893 14.798 11 15.3284 11H22" stroke="#9999CC" stroke-width="2"/>
<path d="M3.5 12H18.3C19.4201 12 19.9802 12 20.408 12.218C20.7843 12.4097 21.0903 12.7157 21.282 13.092C21.5 13.5198 21.5 14.0799 21.5 15.2V17.8C21.5 18.9201 21.5 19.4802 21.282 19.908C21.0903 20.2843 20.7843 20.5903 20.408 20.782C19.9802 21 19.4201 21 18.3 21H6.7C5.5799 21 5.01984 21 4.59202 20.782C4.21569 20.5903 3.90973 20.2843 3.71799 19.908C3.5 19.4802 3.5 18.9201 3.5 17.8V12Z" fill="#1A1A8D"/>
<path d="M3.5 12C3.5 11.0681 3.5 10.6022 3.65224 10.2346C3.85523 9.74458 4.24458 9.35523 4.73463 9.15224C5.10218 9 5.56812 9 6.5 9H8.84315C9.66065 9 10.0694 9 10.4369 9.15224C10.8045 9.30448 11.0935 9.59351 11.6716 10.1716L13.5 12H3.5Z" fill="#1A1A8D"/>
</svg>
