<svg width="25" height="24" viewBox="0 0 25 24" fill="none" xmlns="http://www.w3.org/2000/svg">
<path fill-rule="evenodd" clip-rule="evenodd" d="M4.08579 2.58579C3.5 3.17157 3.5 4.11438 3.5 6V16C3.5 18.8284 3.5 20.2426 4.37868 21.1213C5.01998 21.7626 5.94655 21.9359 7.5 21.9827V19C7.5 18.4477 7.94772 18 8.5 18C9.05228 18 9.5 18.4477 9.5 19L9.5 22H15.5V19C15.5 18.4477 15.9477 18 16.5 18C17.0523 18 17.5 18.4477 17.5 19L17.5 21.9827C19.0534 21.9359 19.98 21.7626 20.6213 21.1213C21.5 20.2426 21.5 18.8284 21.5 16V6C21.5 4.11438 21.5 3.17157 20.9142 2.58579C20.3284 2 19.3856 2 17.5 2H7.5C5.61438 2 4.67157 2 4.08579 2.58579ZM8.5 8C7.94772 8 7.5 8.44772 7.5 9C7.5 9.55228 7.94772 10 8.5 10H16.5C17.0523 10 17.5 9.55228 17.5 9C17.5 8.44772 17.0523 8 16.5 8H8.5ZM8.5 14L16.5 14C17.0523 14 17.5 13.5523 17.5 13C17.5 12.4477 17.0523 12 16.5 12L8.5 12C7.94772 12 7.5 12.4477 7.5 13C7.5 13.5523 7.94772 14 8.5 14Z" fill="#1A1A8D"/>
</svg>
