<svg width="25" height="24" viewBox="0 0 25 24" fill="none" xmlns="http://www.w3.org/2000/svg">
<path fill-rule="evenodd" clip-rule="evenodd" d="M5.79289 5.29289C5.5 5.58579 5.5 6.05719 5.5 7V17C5.5 18.8856 5.5 19.8284 6.08579 20.4142C6.41238 20.7408 6.84994 20.8853 7.5 20.9493V19.5C7.5 18.6716 8.17157 18 9 18C9.82843 18 10.5 18.6716 10.5 19.5V21H14.5V19.5C14.5 18.6716 15.1716 18 16 18C16.8284 18 17.5 18.6716 17.5 19.5V20.9493C18.1501 20.8853 18.5876 20.7408 18.9142 20.4142C19.5 19.8284 19.5 18.8856 19.5 17V7C19.5 6.05719 19.5 5.58579 19.2071 5.29289C18.9142 5 18.4428 5 17.5 5H7.5C6.55719 5 6.08579 5 5.79289 5.29289Z" fill="#FFD400" fill-opacity="0.5"/>
<path d="M9 9.5L16 9.5" stroke="#1A1A8D" stroke-linecap="round"/>
<path d="M9 12.5L13 12.5" stroke="#1A1A8D" stroke-linecap="round"/>
<path d="M9 15.5L15 15.5" stroke="#1A1A8D" stroke-linecap="round"/>
<path d="M16.5 19.5C16.5 19.2239 16.2761 19 16 19C15.7239 19 15.5 19.2239 15.5 19.5H16.5ZM15.5 19.5V21H16.5V19.5H15.5Z" fill="#1A1A8D"/>
<path d="M9.5 19.5C9.5 19.2239 9.27614 19 9 19C8.72386 19 8.5 19.2239 8.5 19.5H9.5ZM8.5 19.5V21H9.5V19.5H8.5Z" fill="#1A1A8D"/>
</svg>
