<svg width="25" height="24" viewBox="0 0 25 24" fill="none" xmlns="http://www.w3.org/2000/svg">
<path d="M8.5 3V4C8.5 5.88562 8.5 6.82843 7.91421 7.41421C7.32843 8 6.38562 8 4.5 8H3.5" stroke="#1A1A8D" stroke-width="2" stroke-linejoin="round"/>
<path d="M16.5 3V4C16.5 5.88562 16.5 6.82843 17.0858 7.41421C17.6716 8 18.6144 8 20.5 8H21.5" stroke="#1A1A8D" stroke-width="2" stroke-linejoin="round"/>
<path d="M8.5 21V20C8.5 18.1144 8.5 17.1716 7.91421 16.5858C7.32843 16 6.38562 16 4.5 16H3.5" stroke="#1A1A8D" stroke-width="2" stroke-linejoin="round"/>
<path d="M16.5 21V20C16.5 18.1144 16.5 17.1716 17.0858 16.5858C17.6716 16 18.6144 16 20.5 16H21.5" stroke="#1A1A8D" stroke-width="2" stroke-linejoin="round"/>
</svg>
