<svg width="25" height="24" viewBox="0 0 25 24" fill="none" xmlns="http://www.w3.org/2000/svg">
<path d="M8.5 3H6.5C5.08579 3 4.37868 3 3.93934 3.43934C3.5 3.87868 3.5 4.58579 3.5 6V8" stroke="#1A1A8D" stroke-width="2" stroke-linecap="round"/>
<path d="M8.5 21H6.5C5.08579 21 4.37868 21 3.93934 20.5607C3.5 20.1213 3.5 19.4142 3.5 18V16" stroke="#1A1A8D" stroke-width="2" stroke-linecap="round"/>
<path d="M16.5 3H18.5C19.9142 3 20.6213 3 21.0607 3.43934C21.5 3.87868 21.5 4.58579 21.5 6V8" stroke="#1A1A8D" stroke-width="2" stroke-linecap="round"/>
<path d="M16.5 21H18.5C19.9142 21 20.6213 21 21.0607 20.5607C21.5 20.1213 21.5 19.4142 21.5 18V16" stroke="#1A1A8D" stroke-width="2" stroke-linecap="round"/>
</svg>
