<svg width="25" height="24" viewBox="0 0 25 24" fill="none" xmlns="http://www.w3.org/2000/svg">
<path d="M4.5 5V4.5H4V5H4.5ZM12.6464 13.8536C12.8417 14.0488 13.1583 14.0488 13.3536 13.8536C13.5488 13.6583 13.5488 13.3417 13.3536 13.1464L12.6464 13.8536ZM5 11V5H4V11H5ZM4.5 5.5H10.5V4.5H4.5V5.5ZM4.14645 5.35355L12.6464 13.8536L13.3536 13.1464L4.85355 4.64645L4.14645 5.35355Z" fill="#1A1A8D"/>
<path d="M21.5 13H16.5C14.6144 13 13.6716 13 13.0858 13.5858C12.5 14.1716 12.5 15.1144 12.5 17V19" stroke="#1A1A8D" stroke-linecap="round"/>
</svg>
