<svg width="25" height="24" viewBox="0 0 25 24" fill="none" xmlns="http://www.w3.org/2000/svg">
<path d="M9.5 4H7.5C6.08579 4 5.37868 4 4.93934 4.43934C4.5 4.87868 4.5 5.58579 4.5 7V9" stroke="#1A1A8D" stroke-linecap="round"/>
<path d="M9.5 20H7.5C6.08579 20 5.37868 20 4.93934 19.5607C4.5 19.1213 4.5 18.4142 4.5 17V15" stroke="#1A1A8D" stroke-linecap="round"/>
<path d="M15.5 4H17.5C18.9142 4 19.6213 4 20.0607 4.43934C20.5 4.87868 20.5 5.58579 20.5 7V9" stroke="#1A1A8D" stroke-linecap="round"/>
<path d="M15.5 20H17.5C18.9142 20 19.6213 20 20.0607 19.5607C20.5 19.1213 20.5 18.4142 20.5 17V15" stroke="#1A1A8D" stroke-linecap="round"/>
</svg>
