<svg width="25" height="24" viewBox="0 0 25 24" fill="none" xmlns="http://www.w3.org/2000/svg">
<rect x="3.5" y="5" width="18" height="14" rx="1.5" stroke="#1A1A8D" stroke-width="2" stroke-linecap="round"/>
<path d="M7.5 9V8H6.5V9H7.5ZM10.7929 13.7071C11.1834 14.0976 11.8166 14.0976 12.2071 13.7071C12.5976 13.3166 12.5976 12.6834 12.2071 12.2929L10.7929 13.7071ZM8.5 13V9H6.5V13H8.5ZM7.5 10H11.5V8H7.5V10ZM6.79289 9.70711L10.7929 13.7071L12.2071 12.2929L8.20711 8.29289L6.79289 9.70711Z" fill="#1A1A8D"/>
<path d="M17.5 15V16H18.5V15H17.5ZM14.2071 10.2929C13.8166 9.90237 13.1834 9.90237 12.7929 10.2929C12.4024 10.6834 12.4024 11.3166 12.7929 11.7071L14.2071 10.2929ZM16.5 11V15H18.5V11H16.5ZM17.5 14H13.5V16H17.5V14ZM18.2071 14.2929L14.2071 10.2929L12.7929 11.7071L16.7929 15.7071L18.2071 14.2929Z" fill="#1A1A8D"/>
</svg>
