<svg width="25" height="24" viewBox="0 0 25 24" fill="none" xmlns="http://www.w3.org/2000/svg">
<path d="M20.5 20V20.5H21V20H20.5ZM15.8536 14.6464C15.6583 14.4512 15.3417 14.4512 15.1464 14.6464C14.9512 14.8417 14.9512 15.1583 15.1464 15.3536L15.8536 14.6464ZM20 14V20H21V14H20ZM20.5 19.5H14.5V20.5H20.5V19.5ZM20.8536 19.6464L15.8536 14.6464L15.1464 15.3536L20.1464 20.3536L20.8536 19.6464Z" fill="#1A1A8D"/>
<path d="M4.5 20H4V20.5H4.5V20ZM9.85355 15.3536C10.0488 15.1583 10.0488 14.8417 9.85355 14.6464C9.65829 14.4512 9.34171 14.4512 9.14645 14.6464L9.85355 15.3536ZM4 14V20H5V14H4ZM4.5 20.5H10.5V19.5H4.5V20.5ZM4.85355 20.3536L9.85355 15.3536L9.14645 14.6464L4.14645 19.6464L4.85355 20.3536Z" fill="#1A1A8D"/>
<path d="M20.5 4H21V3.5H20.5V4ZM15.1464 8.64645C14.9512 8.84171 14.9512 9.15829 15.1464 9.35355C15.3417 9.54882 15.6583 9.54882 15.8536 9.35355L15.1464 8.64645ZM21 10V4H20V10H21ZM20.5 3.5H14.5V4.5H20.5V3.5ZM20.1464 3.64645L15.1464 8.64645L15.8536 9.35355L20.8536 4.35355L20.1464 3.64645Z" fill="#1A1A8D"/>
<path d="M4.5 4V3.5H4V4H4.5ZM9.14645 9.35355C9.34171 9.54882 9.65829 9.54882 9.85355 9.35355C10.0488 9.15829 10.0488 8.84171 9.85355 8.64645L9.14645 9.35355ZM5 10V4H4V10H5ZM4.5 4.5H10.5V3.5H4.5V4.5ZM4.14645 4.35355L9.14645 9.35355L9.85355 8.64645L4.85355 3.64645L4.14645 4.35355Z" fill="#1A1A8D"/>
</svg>
