<svg width="25" height="24" viewBox="0 0 25 24" fill="none" xmlns="http://www.w3.org/2000/svg">
<rect x="3.5" y="5" width="18" height="14" rx="1.5" stroke="#1A1A8D" stroke-linecap="round"/>
<path d="M6.5 8V7.5H6V8H6.5ZM10.1464 12.3536C10.3417 12.5488 10.6583 12.5488 10.8536 12.3536C11.0488 12.1583 11.0488 11.8417 10.8536 11.6464L10.1464 12.3536ZM7 12V8H6V12H7ZM6.5 8.5H10.5V7.5H6.5V8.5ZM6.14645 8.35355L10.1464 12.3536L10.8536 11.6464L6.85355 7.64645L6.14645 8.35355Z" fill="#1A1A8D"/>
<path d="M18.5 16V16.5H19V16H18.5ZM14.8536 11.6464C14.6583 11.4512 14.3417 11.4512 14.1464 11.6464C13.9512 11.8417 13.9512 12.1583 14.1464 12.3536L14.8536 11.6464ZM18 12V16H19V12H18ZM18.5 15.5H14.5V16.5H18.5V15.5ZM18.8536 15.6464L14.8536 11.6464L14.1464 12.3536L18.1464 16.3536L18.8536 15.6464Z" fill="#1A1A8D"/>
</svg>
