<svg width="25" height="24" viewBox="0 0 25 24" fill="none" xmlns="http://www.w3.org/2000/svg">
<path d="M4.5 4V3.5H4V4H4.5ZM12.1464 12.3536C12.3417 12.5488 12.6583 12.5488 12.8536 12.3536C13.0488 12.1583 13.0488 11.8417 12.8536 11.6464L12.1464 12.3536ZM5 10V4H4V10H5ZM4.5 4.5H10.5V3.5H4.5V4.5ZM4.14645 4.35355L12.1464 12.3536L12.8536 11.6464L4.85355 3.64645L4.14645 4.35355Z" fill="#1A1A8D"/>
<path d="M4.5 20V20.5H4V20H4.5ZM12.1464 11.6464C12.3417 11.4512 12.6583 11.4512 12.8536 11.6464C13.0488 11.8417 13.0488 12.1583 12.8536 12.3536L12.1464 11.6464ZM5 14V20H4V14H5ZM4.5 19.5H10.5V20.5H4.5V19.5ZM4.14645 19.6464L12.1464 11.6464L12.8536 12.3536L4.85355 20.3536L4.14645 19.6464Z" fill="#1A1A8D"/>
<path d="M20.5 4V3.5H21V4H20.5ZM12.8536 12.3536C12.6583 12.5488 12.3417 12.5488 12.1464 12.3536C11.9512 12.1583 11.9512 11.8417 12.1464 11.6464L12.8536 12.3536ZM20 10V4H21V10H20ZM20.5 4.5H14.5V3.5H20.5V4.5ZM20.8536 4.35355L12.8536 12.3536L12.1464 11.6464L20.1464 3.64645L20.8536 4.35355Z" fill="#1A1A8D"/>
<path d="M20.5 20V20.5H21V20H20.5ZM12.8536 11.6464C12.6583 11.4512 12.3417 11.4512 12.1464 11.6464C11.9512 11.8417 11.9512 12.1583 12.1464 12.3536L12.8536 11.6464ZM20 14V20H21V14H20ZM20.5 19.5H14.5V20.5H20.5V19.5ZM20.8536 19.6464L12.8536 11.6464L12.1464 12.3536L20.1464 20.3536L20.8536 19.6464Z" fill="#1A1A8D"/>
</svg>
