<svg width="25" height="24" viewBox="0 0 25 24" fill="none" xmlns="http://www.w3.org/2000/svg">
<path d="M4.5 5V4H3.5V5H4.5ZM11.7929 13.7071C12.1834 14.0976 12.8166 14.0976 13.2071 13.7071C13.5976 13.3166 13.5976 12.6834 13.2071 12.2929L11.7929 13.7071ZM5.5 11V5H3.5V11H5.5ZM4.5 6H10.5V4H4.5V6ZM3.79289 5.70711L11.7929 13.7071L13.2071 12.2929L5.20711 4.29289L3.79289 5.70711Z" fill="#1A1A8D"/>
<path d="M21.5 13H16.5C14.6144 13 13.6716 13 13.0858 13.5858C12.5 14.1716 12.5 15.1144 12.5 17V19" stroke="#1A1A8D" stroke-width="2" stroke-linecap="round"/>
</svg>
