<svg width="25" height="24" viewBox="0 0 25 24" fill="none" xmlns="http://www.w3.org/2000/svg">
<path d="M20.5 20V21H21.5V20H20.5ZM16.2071 14.2929C15.8166 13.9024 15.1834 13.9024 14.7929 14.2929C14.4024 14.6834 14.4024 15.3166 14.7929 15.7071L16.2071 14.2929ZM19.5 14V20H21.5V14H19.5ZM20.5 19H14.5V21H20.5V19ZM21.2071 19.2929L16.2071 14.2929L14.7929 15.7071L19.7929 20.7071L21.2071 19.2929Z" fill="#1A1A8D"/>
<path d="M4.5 20H3.5V21H4.5V20ZM10.2071 15.7071C10.5976 15.3166 10.5976 14.6834 10.2071 14.2929C9.81658 13.9024 9.18342 13.9024 8.79289 14.2929L10.2071 15.7071ZM3.5 14V20H5.5V14H3.5ZM4.5 21H10.5V19H4.5V21ZM5.20711 20.7071L10.2071 15.7071L8.79289 14.2929L3.79289 19.2929L5.20711 20.7071Z" fill="#1A1A8D"/>
<path d="M20.5 4H21.5V3H20.5V4ZM14.7929 8.29289C14.4024 8.68342 14.4024 9.31658 14.7929 9.70711C15.1834 10.0976 15.8166 10.0976 16.2071 9.70711L14.7929 8.29289ZM21.5 10V4H19.5V10H21.5ZM20.5 3H14.5V5H20.5V3ZM19.7929 3.29289L14.7929 8.29289L16.2071 9.70711L21.2071 4.70711L19.7929 3.29289Z" fill="#1A1A8D"/>
<path d="M4.5 4V3H3.5V4H4.5ZM8.79289 9.70711C9.18342 10.0976 9.81658 10.0976 10.2071 9.70711C10.5976 9.31658 10.5976 8.68342 10.2071 8.29289L8.79289 9.70711ZM5.5 10V4H3.5V10H5.5ZM4.5 5H10.5V3H4.5V5ZM3.79289 4.70711L8.79289 9.70711L10.2071 8.29289L5.20711 3.29289L3.79289 4.70711Z" fill="#1A1A8D"/>
</svg>
