<svg width="25" height="24" viewBox="0 0 25 24" fill="none" xmlns="http://www.w3.org/2000/svg">
<path d="M4.5 4V3H3.5V4H4.5ZM11.7929 12.7071C12.1834 13.0976 12.8166 13.0976 13.2071 12.7071C13.5976 12.3166 13.5976 11.6834 13.2071 11.2929L11.7929 12.7071ZM5.5 10V4H3.5V10H5.5ZM4.5 5H10.5V3H4.5V5ZM3.79289 4.70711L11.7929 12.7071L13.2071 11.2929L5.20711 3.29289L3.79289 4.70711Z" fill="#1A1A8D"/>
<path d="M4.5 20V21H3.5V20H4.5ZM11.7929 11.2929C12.1834 10.9024 12.8166 10.9024 13.2071 11.2929C13.5976 11.6834 13.5976 12.3166 13.2071 12.7071L11.7929 11.2929ZM5.5 14V20H3.5V14H5.5ZM4.5 19H10.5V21H4.5V19ZM3.79289 19.2929L11.7929 11.2929L13.2071 12.7071L5.20711 20.7071L3.79289 19.2929Z" fill="#1A1A8D"/>
<path d="M20.5 4V3H21.5V4H20.5ZM13.2071 12.7071C12.8166 13.0976 12.1834 13.0976 11.7929 12.7071C11.4024 12.3166 11.4024 11.6834 11.7929 11.2929L13.2071 12.7071ZM19.5 10V4H21.5V10H19.5ZM20.5 5H14.5V3H20.5V5ZM21.2071 4.70711L13.2071 12.7071L11.7929 11.2929L19.7929 3.29289L21.2071 4.70711Z" fill="#1A1A8D"/>
<path d="M20.5 20V21H21.5V20H20.5ZM13.2071 11.2929C12.8166 10.9024 12.1834 10.9024 11.7929 11.2929C11.4024 11.6834 11.4024 12.3166 11.7929 12.7071L13.2071 11.2929ZM19.5 14V20H21.5V14H19.5ZM20.5 19H14.5V21H20.5V19ZM21.2071 19.2929L13.2071 11.2929L11.7929 12.7071L19.7929 20.7071L21.2071 19.2929Z" fill="#1A1A8D"/>
</svg>
