<svg width="25" height="24" viewBox="0 0 25 24" fill="none" xmlns="http://www.w3.org/2000/svg">
<rect x="13.5" y="14" width="2" height="2" rx="1" fill="#1A1A8D"/>
<path d="M10.5 14H6.5" stroke="#1A1A8D" stroke-linecap="round"/>
<path d="M8.5 12L8.5 16" stroke="#1A1A8D" stroke-linecap="round"/>
<rect x="16.5" y="12" width="2" height="2" rx="1" fill="#1A1A8D"/>
<path d="M14.5 8V8C14.5 7.58326 14.5 7.37488 14.4655 7.19144C14.3455 6.5546 13.9245 6.01534 13.3358 5.74455C13.1662 5.66654 12.964 5.616 12.5597 5.51493L12.5 5.5C12.0388 5.3847 11.8082 5.32706 11.6171 5.233C11.0686 4.96315 10.6737 4.45731 10.5449 3.85979C10.5 3.65151 10.5 3.41382 10.5 2.93845V2" stroke="#1A1A8D" stroke-linecap="round"/>
<path d="M3.5 14C3.5 11.4412 3.5 10.1618 4.11994 9.28042C4.27954 9.05351 4.46572 8.85041 4.67372 8.6763C5.48164 8 6.65442 8 9 8H16C18.3456 8 19.5184 8 20.3263 8.6763C20.5343 8.85041 20.7205 9.05351 20.8801 9.28042C21.5 10.1618 21.5 11.4412 21.5 14C21.5 16.5588 21.5 17.8382 20.8801 18.7196C20.7205 18.9465 20.5343 19.1496 20.3263 19.3237C19.5184 20 18.3456 20 16 20H9C6.65442 20 5.48164 20 4.67372 19.3237C4.46572 19.1496 4.27954 18.9465 4.11994 18.7196C3.5 17.8382 3.5 16.5588 3.5 14Z" stroke="#1A1A8D"/>
</svg>
