<svg width="25" height="24" viewBox="0 0 25 24" fill="none" xmlns="http://www.w3.org/2000/svg">
<path fill-rule="evenodd" clip-rule="evenodd" d="M11.5 8H5.5C4.55719 8 4.08579 8 3.79289 8.29289C3.5 8.58579 3.5 9.05719 3.5 10V11C3.5 11.9428 3.5 12.4142 3.79289 12.7071C4.08579 13 4.55719 13 5.5 13H6.5H11.5V8ZM6.5 15V19C6.5 19.9428 6.5 20.4142 6.79289 20.7071C7.08579 21 7.55719 21 8.5 21H11.5V15H6.5ZM13.5 21H16.5C17.4428 21 17.9142 21 18.2071 20.7071C18.5 20.4142 18.5 19.9428 18.5 19V15H13.5V21ZM18.5 13H19.5C20.4428 13 20.9142 13 21.2071 12.7071C21.5 12.4142 21.5 11.9428 21.5 11V10C21.5 9.05719 21.5 8.58579 21.2071 8.29289C20.9142 8 20.4428 8 19.5 8H13.5V13H18.5Z" fill="#1A1A8D"/>
<path d="M19.5 4.63246V4.45035C19.5 3.24487 18.319 2.39366 17.1754 2.77487C15.7448 3.25174 14.4449 4.05514 13.3786 5.12144L12.5 6V7H16.1754C16.3904 7 16.604 6.96534 16.8079 6.89737L18.2026 6.43246C18.9774 6.1742 19.5 5.44914 19.5 4.63246Z" fill="#1A1A8D"/>
<path d="M5.5 4.63246V4.45035C5.5 3.24487 6.68099 2.39366 7.8246 2.77487C9.25521 3.25174 10.5551 4.05514 11.6214 5.12144L12.5 6V7H8.82456C8.60959 7 8.39603 6.96534 8.1921 6.89737L6.79737 6.43246C6.02259 6.1742 5.5 5.44914 5.5 4.63246Z" fill="#1A1A8D"/>
</svg>
