<svg width="25" height="24" viewBox="0 0 25 24" fill="none" xmlns="http://www.w3.org/2000/svg">
<path d="M5.5 8H19.5V16C19.5 17.8856 19.5 18.8284 18.9142 19.4142C18.3284 20 17.3856 20 15.5 20H9.5C7.61438 20 6.67157 20 6.08579 19.4142C5.5 18.8284 5.5 17.8856 5.5 16V8Z" fill="#FFD400" fill-opacity="0.5"/>
<path d="M12.5 8L12.2608 5.84709C12.1123 4.51089 10.9672 3.5 9.62282 3.5V3.5C8.18381 3.5 7 4.66655 7 6.10555V6.10555C7 6.97673 7.43539 7.79026 8.16025 8.2735L10 9.5" stroke="#1A1A8D" stroke-linecap="round"/>
<path d="M12.5 8L12.7392 5.84709C12.8877 4.51089 14.0328 3.5 15.3772 3.5V3.5C16.8162 3.5 18 4.66655 18 6.10555V6.10555C18 6.97673 17.5646 7.79026 16.8397 8.2735L15 9.5" stroke="#1A1A8D" stroke-linecap="round"/>
<rect x="4.5" y="8" width="16" height="3" rx="1" fill="#1A1A8D"/>
<path d="M12.5 11V15" stroke="#1A1A8D" stroke-linecap="round"/>
</svg>
