<svg width="25" height="24" viewBox="0 0 25 24" fill="none" xmlns="http://www.w3.org/2000/svg">
<path d="M3.5 10C3.5 9.05719 3.5 8.58579 3.79289 8.29289C4.08579 8 4.55719 8 5.5 8H19.5C20.4428 8 20.9142 8 21.2071 8.29289C21.5 8.58579 21.5 9.05719 21.5 10V11.5C21.5 11.9659 21.5 12.1989 21.4239 12.3827C21.3224 12.6277 21.1277 12.8224 20.8827 12.9239C20.6989 13 20.4659 13 20 13V13C19.5341 13 19.3011 13 19.1173 13.0761C18.8723 13.1776 18.6776 13.3723 18.5761 13.6173C18.5 13.8011 18.5 14.0341 18.5 14.5V18C18.5 18.9428 18.5 19.4142 18.2071 19.7071C17.9142 20 17.4428 20 16.5 20H8.5C7.55719 20 7.08579 20 6.79289 19.7071C6.5 19.4142 6.5 18.9428 6.5 18V14.5C6.5 14.0341 6.5 13.8011 6.42388 13.6173C6.32239 13.3723 6.12771 13.1776 5.88268 13.0761C5.69891 13 5.46594 13 5 13V13C4.53406 13 4.30109 13 4.11732 12.9239C3.87229 12.8224 3.67761 12.6277 3.57612 12.3827C3.5 12.1989 3.5 11.9659 3.5 11.5V10Z" stroke="#1A1A8D"/>
<path d="M5.5 13H19.5" stroke="#1A1A8D" stroke-linecap="round"/>
<path d="M12.5 7L12.5 20" stroke="#1A1A8D" stroke-linecap="round"/>
<path d="M12.5 7L11.6214 6.12144C10.5551 5.05514 9.25521 4.25174 7.8246 3.77487V3.77487C6.68099 3.39366 5.5 4.24487 5.5 5.45035V5.63246C5.5 6.44914 6.02259 7.1742 6.79737 7.43246L8.5 8" stroke="#1A1A8D" stroke-linecap="round"/>
<path d="M12.5 7L13.3786 6.12144C14.4449 5.05514 15.7448 4.25174 17.1754 3.77487V3.77487C18.319 3.39366 19.5 4.24487 19.5 5.45035V5.63246C19.5 6.44914 18.9774 7.1742 18.2026 7.43246L16.5 8" stroke="#1A1A8D" stroke-linecap="round"/>
</svg>
