<svg width="25" height="24" viewBox="0 0 25 24" fill="none" xmlns="http://www.w3.org/2000/svg">
<circle cx="12.5" cy="12" r="3" fill="#1A1A8D"/>
<path fill-rule="evenodd" clip-rule="evenodd" d="M12.5004 2.3999C12.8318 2.3999 13.1004 2.66853 13.1004 2.9999V4.9999C13.1004 5.00838 13.1002 5.01682 13.0999 5.02521C16.4876 5.31254 19.1877 8.01266 19.4751 11.4004L19.487 11.4001L19.5004 11.3999H21.5004C21.8318 11.3999 22.1004 11.6685 22.1004 11.9999C22.1004 12.3313 21.8318 12.5999 21.5004 12.5999H19.5004L19.4852 12.5997L19.4751 12.5994C19.1877 15.9871 16.4876 18.6873 13.0999 18.9746C13.1 18.9779 13.1001 18.9813 13.1002 18.9847C13.1003 18.9897 13.1004 18.9948 13.1004 18.9999V20.9999C13.1004 21.3313 12.8318 21.5999 12.5004 21.5999C12.169 21.5999 11.9004 21.3313 11.9004 20.9999V18.9999C11.9004 18.9954 11.9004 18.991 11.9005 18.9865C11.9006 18.9825 11.9008 18.9786 11.9009 18.9746C8.51314 18.6873 5.81303 15.9871 5.5257 12.5994C5.51731 12.5997 5.50887 12.5999 5.50039 12.5999H3.50039C3.16902 12.5999 2.90039 12.3313 2.90039 11.9999C2.90039 11.6685 3.16902 11.3999 3.50039 11.3999H5.50039C5.50887 11.3999 5.51731 11.4001 5.5257 11.4004C5.81303 8.01266 8.51314 5.31254 11.9009 5.02521C11.9006 5.01682 11.9004 5.00838 11.9004 4.9999V2.9999C11.9004 2.66853 12.169 2.3999 12.5004 2.3999ZM12.5004 17.9999C15.8141 17.9999 18.5004 15.3136 18.5004 11.9999C18.5004 8.68619 15.8141 5.9999 12.5004 5.9999C9.18668 5.9999 6.50039 8.68619 6.50039 11.9999C6.50039 15.3136 9.18668 17.9999 12.5004 17.9999Z" fill="#FFD400" fill-opacity="0.5"/>
</svg>
