<svg width="25" height="24" viewBox="0 0 25 24" fill="none" xmlns="http://www.w3.org/2000/svg">
<path fill-rule="evenodd" clip-rule="evenodd" d="M12.5 19C16.366 19 19.5 15.866 19.5 12C19.5 8.13401 16.366 5 12.5 5C8.63401 5 5.5 8.13401 5.5 12C5.5 15.866 8.63401 19 12.5 19ZM12.5 15C14.1569 15 15.5 13.6569 15.5 12C15.5 10.3431 14.1569 9 12.5 9C10.8431 9 9.5 10.3431 9.5 12C9.5 13.6569 10.8431 15 12.5 15Z" fill="#FFD400" fill-opacity="0.5"/>
<path d="M18.9 12C18.9 15.5346 16.0346 18.4 12.5 18.4V19.6C16.6974 19.6 20.1 16.1974 20.1 12H18.9ZM12.5 5.6C16.0346 5.6 18.9 8.46538 18.9 12H20.1C20.1 7.80264 16.6974 4.4 12.5 4.4V5.6ZM6.1 12C6.1 8.46538 8.96538 5.6 12.5 5.6V4.4C8.30264 4.4 4.9 7.80264 4.9 12H6.1ZM12.5 18.4C8.96538 18.4 6.1 15.5346 6.1 12H4.9C4.9 16.1974 8.30264 19.6 12.5 19.6V18.4ZM14.9 12C14.9 13.3255 13.8255 14.4 12.5 14.4V15.6C14.4882 15.6 16.1 13.9882 16.1 12H14.9ZM12.5 9.6C13.8255 9.6 14.9 10.6745 14.9 12H16.1C16.1 10.0118 14.4882 8.4 12.5 8.4V9.6ZM10.1 12C10.1 10.6745 11.1745 9.6 12.5 9.6V8.4C10.5118 8.4 8.9 10.0118 8.9 12H10.1ZM12.5 14.4C11.1745 14.4 10.1 13.3255 10.1 12H8.9C8.9 13.9882 10.5118 15.6 12.5 15.6V14.4Z" fill="#1A1A8D"/>
<path d="M12.5 5V3" stroke="#1A1A8D" stroke-width="1.2" stroke-linecap="round"/>
<path d="M19.5 12L21.5 12" stroke="#1A1A8D" stroke-width="1.2" stroke-linecap="round"/>
<path d="M12.5 21L12.5 19" stroke="#1A1A8D" stroke-width="1.2" stroke-linecap="round"/>
<path d="M3.5 12H5.5" stroke="#1A1A8D" stroke-width="1.2" stroke-linecap="round"/>
</svg>
