<svg width="25" height="24" viewBox="0 0 25 24" fill="none" xmlns="http://www.w3.org/2000/svg">
<path fill-rule="evenodd" clip-rule="evenodd" d="M12.5 19C16.366 19 19.5 15.866 19.5 12C19.5 8.13401 16.366 5 12.5 5C8.63401 5 5.5 8.13401 5.5 12C5.5 15.866 8.63401 19 12.5 19ZM12.5 15C14.1569 15 15.5 13.6569 15.5 12C15.5 10.3431 14.1569 9 12.5 9C10.8431 9 9.5 10.3431 9.5 12C9.5 13.6569 10.8431 15 12.5 15Z" fill="#1A1A8D"/>
<path d="M12.5 5V3" stroke="#1A1A8D" stroke-width="2" stroke-linecap="round"/>
<path d="M19.5 12L21.5 12" stroke="#1A1A8D" stroke-width="2" stroke-linecap="round"/>
<path d="M12.5 21L12.5 19" stroke="#1A1A8D" stroke-width="2" stroke-linecap="round"/>
<path d="M3.5 12H5.5" stroke="#1A1A8D" stroke-width="2" stroke-linecap="round"/>
</svg>
