<svg width="24" height="24" viewBox="0 0 24 24" fill="none" xmlns="http://www.w3.org/2000/svg">
<path d="M11.4631 19.5861C11.7581 19.5097 11.9355 19.2051 11.8266 18.9205C11.4218 17.862 10.7144 16.9314 9.78142 16.2399C8.69659 15.4358 7.3674 15 6 15C4.6326 15 3.30341 15.4358 2.21858 16.2399C1.28563 16.9314 0.578244 17.862 0.173356 18.9205C0.0644827 19.2051 0.241905 19.5097 0.536921 19.586C4.11994 20.5134 7.88006 20.5134 11.4631 19.5861Z" fill="#1A1A8D"/>
<path d="M23.4631 16.5861C23.7581 16.5097 23.9355 16.2051 23.8266 15.9205C23.4218 14.862 22.7144 13.9314 21.7814 13.2399C20.6966 12.4358 19.3674 12 18 12C16.6326 12 15.3034 12.4358 14.2186 13.2399C13.2856 13.9314 12.5782 14.862 12.1734 15.9205C12.0645 16.2051 12.2419 16.5097 12.5369 16.586C16.1199 17.5134 19.8801 17.5134 23.4631 16.5861Z" fill="#1A1A8D"/>
<circle cx="6.5" cy="10.5" r="3" fill="#1A1A8D" stroke="#1A1A8D" stroke-width="2" stroke-linecap="round"/>
<circle cx="18" cy="7.5" r="3" fill="#1A1A8D" stroke="#1A1A8D" stroke-width="2" stroke-linecap="round"/>
</svg>
