<svg width="25" height="24" viewBox="0 0 25 24" fill="none" xmlns="http://www.w3.org/2000/svg">
<path d="M9.5 6C9.5 6.39397 9.5776 6.78407 9.72836 7.14805C9.87913 7.51203 10.1001 7.84274 10.3787 8.12132C10.6573 8.3999 10.988 8.62087 11.352 8.77164C11.7159 8.9224 12.106 9 12.5 9C12.894 9 13.2841 8.9224 13.6481 8.77164C14.012 8.62087 14.3427 8.3999 14.6213 8.12132C14.8999 7.84274 15.1209 7.51203 15.2716 7.14805C15.4224 6.78407 15.5 6.39396 15.5 6C15.5 5.60603 15.4224 5.21593 15.2716 4.85195C15.1209 4.48797 14.8999 4.15725 14.6213 3.87868C14.3427 3.6001 14.012 3.37912 13.648 3.22836C13.2841 3.0776 12.894 3 12.5 3C12.106 3 11.7159 3.0776 11.3519 3.22836C10.988 3.37913 10.6573 3.6001 10.3787 3.87868C10.1001 4.15726 9.87912 4.48797 9.72836 4.85195C9.5776 5.21593 9.5 5.60604 9.5 6L9.5 6Z" stroke="#1A1A8D"/>
<path d="M4.93806 13.9015C4.59687 14.0985 4.29783 14.3607 4.058 14.6733C3.81817 14.9858 3.64225 15.3426 3.54028 15.7231C3.43831 16.1037 3.4123 16.5006 3.46372 16.8912C3.51515 17.2818 3.643 17.6584 3.83998 17.9996C4.03696 18.3408 4.29922 18.6398 4.61177 18.8796C4.92433 19.1195 5.28106 19.2954 5.6616 19.3974C6.04214 19.4993 6.43904 19.5253 6.82964 19.4739C7.22023 19.4225 7.59687 19.2946 7.93806 19.0977C8.27924 18.9007 8.57829 18.6384 8.81812 18.3259C9.05795 18.0133 9.23387 17.6566 9.33583 17.276C9.4378 16.8955 9.46381 16.4986 9.41239 16.108C9.36097 15.7174 9.23312 15.3408 9.03613 14.9996C8.83915 14.6584 8.57689 14.3594 8.26434 14.1195C7.95179 13.8797 7.59505 13.7038 7.21451 13.6018C6.83397 13.4998 6.43707 13.4738 6.04648 13.5252C5.65588 13.5767 5.27924 13.7045 4.93806 13.9015L4.93806 13.9015Z" stroke="#1A1A8D"/>
<path d="M20.0619 13.9015C20.4031 14.0985 20.7022 14.3607 20.942 14.6733C21.1818 14.9859 21.3578 15.3426 21.4597 15.7231C21.5617 16.1037 21.5877 16.5006 21.5363 16.8912C21.4849 17.2818 21.357 17.6584 21.16 17.9996C20.963 18.3408 20.7008 18.6398 20.3882 18.8796C20.0757 19.1195 19.7189 19.2954 19.3384 19.3974C18.9579 19.4993 18.561 19.5253 18.1704 19.4739C17.7798 19.4225 17.4031 19.2946 17.0619 19.0977C16.7208 18.9007 16.4217 18.6384 16.1819 18.3259C15.9421 18.0133 15.7661 17.6566 15.6642 17.276C15.5622 16.8955 15.5362 16.4986 15.5876 16.108C15.639 15.7174 15.7669 15.3408 15.9639 14.9996C16.1609 14.6584 16.4231 14.3594 16.7357 14.1195C17.0482 13.8797 17.4049 13.7038 17.7855 13.6018C18.166 13.4998 18.5629 13.4738 18.9535 13.5252C19.3441 13.5767 19.7208 13.7045 20.0619 13.9015L20.0619 13.9015Z" stroke="#1A1A8D"/>
<path fill-rule="evenodd" clip-rule="evenodd" d="M9.50254 6.12533C9.5008 6.08372 9.49993 6.04203 9.49993 6.0003C9.49993 5.65294 9.56026 5.30857 9.67787 4.98247C9.53301 5.03346 9.3894 5.08843 9.24719 5.14733C8.21592 5.5745 7.27889 6.2006 6.48959 6.9899C5.70029 7.7792 5.07419 8.71623 4.64702 9.7475C4.21986 10.7788 4 11.8841 4 13.0003C4 13.5265 4.04885 14.0502 4.14523 14.5648C4.36884 14.2999 4.63691 14.0755 4.93774 13.9018C4.97388 13.8809 5.01042 13.8609 5.04733 13.8415C5.01586 13.5628 5 13.2819 5 13.0003C5 12.0154 5.19399 11.0401 5.5709 10.1302C5.94781 9.22024 6.50026 8.39345 7.1967 7.69701C7.86051 7.03319 8.64275 6.5002 9.50254 6.12533ZM15.4973 6.12528C16.3572 6.50014 17.1395 7.03315 17.8033 7.697C18.4997 8.39344 19.0522 9.22023 19.4291 10.1302C19.806 11.0401 20 12.0154 20 13.0003C20 13.282 19.9841 13.5628 19.9527 13.8416C19.9895 13.8609 20.026 13.881 20.0621 13.9018C20.363 14.0755 20.6311 14.3 20.8547 14.565C20.9511 14.0503 21 13.5265 21 13.0003C21 11.8841 20.7801 10.7788 20.353 9.74749C19.9258 8.71622 19.2997 7.77919 18.5104 6.98989C17.7211 6.2006 16.7841 5.57449 15.7528 5.14733C15.6105 5.0884 15.4669 5.03342 15.322 4.98242C15.4396 5.30854 15.4999 5.65292 15.4999 6.0003C15.4999 6.04201 15.4991 6.08368 15.4973 6.12528ZM18.033 19.4529C17.6916 19.3917 17.3631 19.2717 17.0621 19.098C17.0261 19.0772 16.9906 19.0556 16.9555 19.0334C16.4665 19.3945 15.9343 19.6957 15.3701 19.9294C14.4602 20.3063 13.4849 20.5003 12.5 20.5003C11.5151 20.5003 10.5398 20.3063 9.62988 19.9294C9.06568 19.6957 8.53345 19.3945 8.04443 19.0334C8.00935 19.0556 7.97378 19.0772 7.93775 19.098C7.63681 19.2717 7.30829 19.3917 6.96694 19.4528C7.64728 20.0362 8.41668 20.5093 9.24719 20.8533C10.2785 21.2804 11.3838 21.5003 12.5 21.5003C13.6162 21.5003 14.7215 21.2804 15.7528 20.8533C16.5833 20.5093 17.3527 20.0362 18.033 19.4529Z" fill="#1A1A8D"/>
</svg>
