<svg width="25" height="24" viewBox="0 0 25 24" fill="none" xmlns="http://www.w3.org/2000/svg">
<path d="M12.2956 20.4471C11.9537 19.1713 11.2004 18.0439 10.1526 17.2399C9.1047 16.4358 7.82081 16 6.5 16C5.1792 16 3.8953 16.4358 2.84743 17.2399C1.79957 18.0439 1.0463 19.1713 0.704445 20.4471" stroke="#1A1A8D" stroke-linecap="round"/>
<path d="M23.7956 17.4471C23.4537 16.1713 22.7004 15.0439 21.6526 14.2399C20.6047 13.4358 19.3208 13 18 13C16.6792 13 15.3953 13.4358 14.3474 14.2399C13.2996 15.0439 12.5463 16.1713 12.2044 17.4471" stroke="#1A1A8D" stroke-linecap="round"/>
<circle cx="6.5" cy="10.5" r="3" stroke="#1A1A8D" stroke-linecap="round"/>
<circle cx="18" cy="7.5" r="3" stroke="#1A1A8D" stroke-linecap="round"/>
</svg>
