<svg width="25" height="24" viewBox="0 0 25 24" fill="none" xmlns="http://www.w3.org/2000/svg">
<path d="M7.3874 5.17157C7.96546 4.59351 8.25449 4.30448 8.62203 4.15224C8.98957 4 9.39832 4 10.2158 4H14.826C15.6517 4 16.0646 4 16.4351 4.15505C16.8056 4.31011 17.0954 4.60419 17.675 5.19234L19.349 6.89105C19.9171 7.46745 20.2011 7.75566 20.3505 8.12024C20.5 8.48482 20.5 8.88945 20.5 9.69871V14.3431C20.5 15.1606 20.5 15.5694 20.3478 15.9369C20.1955 16.3045 19.9065 16.5935 19.3284 17.1716L17.6716 18.8284C17.0935 19.4065 16.8045 19.6955 16.4369 19.8478C16.0694 20 15.6606 20 14.8431 20H10.1987C9.38945 20 8.98482 20 8.62024 19.8505C8.25566 19.7011 7.96745 19.4171 7.39105 18.849L5.69235 17.175C5.10419 16.5954 4.81011 16.3056 4.65505 15.9351C4.5 15.5646 4.5 15.1517 4.5 14.326V9.71583C4.5 8.89832 4.5 8.48957 4.65224 8.12203C4.80448 7.75449 5.09351 7.46546 5.67157 6.8874L7.3874 5.17157Z" fill="#FFD400" fill-opacity="0.5" stroke="#1A1A8D" stroke-width="1.2"/>
<path d="M8.5 11L8.92229 11.2111C11.1745 12.3373 13.8255 12.3373 16.0777 11.2111L16.5 11" stroke="#1A1A8D" stroke-width="1.2" stroke-linecap="round"/>
<path d="M12.5 12.5V14" stroke="#1A1A8D" stroke-width="1.2" stroke-linecap="round"/>
<path d="M9.5 12L9 13" stroke="#1A1A8D" stroke-width="1.2" stroke-linecap="round"/>
<path d="M15.5 12L16 13" stroke="#1A1A8D" stroke-width="1.2" stroke-linecap="round"/>
</svg>
