<svg width="25" height="24" viewBox="0 0 25 24" fill="none" xmlns="http://www.w3.org/2000/svg">
<path fill-rule="evenodd" clip-rule="evenodd" d="M7.3874 5.17157L7.3874 5.17157L5.67157 6.8874C5.09351 7.46546 4.80448 7.75449 4.65224 8.12203C4.5 8.48957 4.5 8.89832 4.5 9.71583V14.326C4.5 15.1517 4.5 15.5646 4.65505 15.9351C4.81011 16.3056 5.10419 16.5954 5.69235 17.175L7.39105 18.849C7.96745 19.4171 8.25566 19.7011 8.62024 19.8505C8.98482 20 9.38945 20 10.1987 20H14.8431C15.6606 20 16.0694 20 16.4369 19.8478C16.8045 19.6955 17.0935 19.4065 17.6716 18.8284L19.3284 17.1716C19.9065 16.5935 20.1955 16.3045 20.3478 15.9369C20.5 15.5694 20.5 15.1606 20.5 14.3431V9.69871C20.5 8.88945 20.5 8.48482 20.3505 8.12024C20.2011 7.75566 19.9171 7.46745 19.349 6.89105L17.675 5.19234C17.0954 4.60419 16.8056 4.31011 16.4351 4.15505C16.0646 4 15.6517 4 14.826 4H10.2158C9.39832 4 8.98957 4 8.62203 4.15224C8.25449 4.30448 7.96546 4.59351 7.3874 5.17157ZM8.94721 10.1056C8.45324 9.85858 7.85256 10.0588 7.60557 10.5528C7.35858 11.0468 7.55881 11.6474 8.05279 11.8944L8.35836 12.0472L8.10557 12.5528C7.85858 13.0468 8.05881 13.6474 8.55279 13.8944C9.04676 14.1414 9.64744 13.9412 9.89443 13.4472L10.235 12.7661C10.6518 12.8745 11.0746 12.9525 11.5 13V14C11.5 14.5523 11.9477 15 12.5 15C13.0523 15 13.5 14.5523 13.5 14V13C13.9254 12.9525 14.3482 12.8745 14.765 12.7661L15.1056 13.4472C15.3526 13.9412 15.9532 14.1414 16.4472 13.8944C16.9412 13.6474 17.1414 13.0468 16.8944 12.5528L16.6416 12.0472L16.9472 11.8944C17.4412 11.6474 17.6414 11.0468 17.3944 10.5528C17.1474 10.0588 16.5468 9.85858 16.0528 10.1056L15.6305 10.3167C13.6598 11.3021 11.3402 11.3021 9.36951 10.3167L8.94721 10.1056Z" fill="#1A1A8D"/>
</svg>
