<svg width="25" height="24" viewBox="0 0 25 24" fill="none" xmlns="http://www.w3.org/2000/svg">
<path d="M6 10V17.5C6 18.4428 6 18.9142 6.29289 19.2071C6.58579 19.5 7.05719 19.5 8 19.5H17C17.9428 19.5 18.4142 19.5 18.7071 19.2071C19 18.9142 19 18.4428 19 17.5V10" stroke="#FFD400" stroke-opacity="0.5"/>
<path d="M21 11.5L13.0767 5.90707C12.731 5.66303 12.269 5.66303 11.9233 5.90707L4 11.5" stroke="#1A1A8D" stroke-linecap="round"/>
<path d="M15 19V15C15 13.8954 14.1046 13 13 13H12C10.8954 13 10 13.8954 10 15V19" stroke="#1A1A8D" stroke-linejoin="round"/>
<path d="M18 9V5.5" stroke="#1A1A8D" stroke-linecap="round"/>
</svg>
