<svg width="25" height="24" viewBox="0 0 25 24" fill="none" xmlns="http://www.w3.org/2000/svg">
<path d="M4.5 8L3.79289 7.29289L3.08579 8L3.79289 8.70711L4.5 8ZM19.5 10C19.5 10.5523 19.9477 11 20.5 11C21.0523 11 21.5 10.5523 21.5 10H19.5ZM7.79289 3.29289L3.79289 7.29289L5.20711 8.70711L9.20711 4.70711L7.79289 3.29289ZM3.79289 8.70711L7.79289 12.7071L9.20711 11.2929L5.20711 7.29289L3.79289 8.70711ZM4.5 9H18.5V7H4.5V9ZM18.5 9C19.0523 9 19.5 9.44772 19.5 10H21.5C21.5 8.34315 20.1569 7 18.5 7V9Z" fill="#1A1A8D"/>
<path d="M20.5 16L21.2071 15.2929L21.9142 16L21.2071 16.7071L20.5 16ZM5.5 16L5.5 17L5.5 17L5.5 16ZM2.5 14C2.5 13.4477 2.94772 13 3.5 13C4.05228 13 4.5 13.4477 4.5 14L2.5 14ZM17.2071 11.2929L21.2071 15.2929L19.7929 16.7071L15.7929 12.7071L17.2071 11.2929ZM21.2071 16.7071L17.2071 20.7071L15.7929 19.2929L19.7929 15.2929L21.2071 16.7071ZM20.5 17L5.5 17L5.5 15L20.5 15L20.5 17ZM5.5 17C3.84315 17 2.5 15.6569 2.5 14L4.5 14C4.5 14.5523 4.94772 15 5.5 15L5.5 17Z" fill="#1A1A8D"/>
</svg>
