<svg width="25" height="24" viewBox="0 0 25 24" fill="none" xmlns="http://www.w3.org/2000/svg">
<path d="M2.5 8L2.14645 7.64645L1.79289 8L2.14645 8.35355L2.5 8ZM12.5 8.5C12.7761 8.5 13 8.27614 13 8C13 7.72386 12.7761 7.5 12.5 7.5V8.5ZM6.14645 3.64645L2.14645 7.64645L2.85355 8.35355L6.85355 4.35355L6.14645 3.64645ZM2.14645 8.35355L6.14645 12.3536L6.85355 11.6464L2.85355 7.64645L2.14645 8.35355ZM2.5 8.5H12.5V7.5H2.5V8.5Z" fill="#1A1A8D"/>
<path d="M22.5 16L22.8536 15.6464L23.2071 16L22.8536 16.3536L22.5 16ZM3.5 16.5C3.22386 16.5 3 16.2761 3 16C3 15.7239 3.22386 15.5 3.5 15.5L3.5 16.5ZM18.8536 11.6464L22.8536 15.6464L22.1464 16.3536L18.1464 12.3536L18.8536 11.6464ZM22.8536 16.3536L18.8536 20.3536L18.1464 19.6464L22.1464 15.6464L22.8536 16.3536ZM22.5 16.5L3.5 16.5L3.5 15.5L22.5 15.5L22.5 16.5Z" fill="#1A1A8D"/>
</svg>
