<svg width="25" height="24" viewBox="0 0 25 24" fill="none" xmlns="http://www.w3.org/2000/svg">
<path d="M2.5 8L1.79289 7.29289L1.08579 8L1.79289 8.70711L2.5 8ZM21.5 9C22.0523 9 22.5 8.55228 22.5 8C22.5 7.44772 22.0523 7 21.5 7V9ZM5.79289 3.29289L1.79289 7.29289L3.20711 8.70711L7.20711 4.70711L5.79289 3.29289ZM1.79289 8.70711L5.79289 12.7071L7.20711 11.2929L3.20711 7.29289L1.79289 8.70711ZM2.5 9H21.5V7H2.5V9Z" fill="#1A1A8D"/>
<path d="M22.5 16L23.2071 15.2929L23.9142 16L23.2071 16.7071L22.5 16ZM13.5 17C12.9477 17 12.5 16.5523 12.5 16C12.5 15.4477 12.9477 15 13.5 15L13.5 17ZM19.2071 11.2929L23.2071 15.2929L21.7929 16.7071L17.7929 12.7071L19.2071 11.2929ZM23.2071 16.7071L19.2071 20.7071L17.7929 19.2929L21.7929 15.2929L23.2071 16.7071ZM22.5 17L13.5 17L13.5 15L22.5 15L22.5 17Z" fill="#1A1A8D"/>
</svg>
