<svg width="25" height="24" viewBox="0 0 25 24" fill="none" xmlns="http://www.w3.org/2000/svg">
<path d="M22.5 8L23.2071 7.29289L23.9142 8L23.2071 8.70711L22.5 8ZM12.5 9C11.9477 9 11.5 8.55228 11.5 8C11.5 7.44772 11.9477 7 12.5 7V9ZM19.2071 3.29289L23.2071 7.29289L21.7929 8.70711L17.7929 4.70711L19.2071 3.29289ZM23.2071 8.70711L19.2071 12.7071L17.7929 11.2929L21.7929 7.29289L23.2071 8.70711ZM22.5 9H12.5V7H22.5V9Z" fill="#1A1A8D"/>
<path d="M2.5 16L1.79289 15.2929L1.08579 16L1.79289 16.7071L2.5 16ZM21.5 17C22.0523 17 22.5 16.5523 22.5 16C22.5 15.4477 22.0523 15 21.5 15L21.5 17ZM5.79289 11.2929L1.79289 15.2929L3.20711 16.7071L7.20711 12.7071L5.79289 11.2929ZM1.79289 16.7071L5.79289 20.7071L7.20711 19.2929L3.20711 15.2929L1.79289 16.7071ZM2.5 17L21.5 17L21.5 15L2.5 15L2.5 17Z" fill="#1A1A8D"/>
</svg>
