<svg width="25" height="24" viewBox="0 0 25 24" fill="none" xmlns="http://www.w3.org/2000/svg">
<path d="M4.5 8L4.14645 7.64645L3.79289 8L4.14645 8.35355L4.5 8ZM20 10C20 10.2761 20.2239 10.5 20.5 10.5C20.7761 10.5 21 10.2761 21 10H20ZM8.14645 3.64645L4.14645 7.64645L4.85355 8.35355L8.85355 4.35355L8.14645 3.64645ZM4.14645 8.35355L8.14645 12.3536L8.85355 11.6464L4.85355 7.64645L4.14645 8.35355ZM4.5 8.5H18.5V7.5H4.5V8.5ZM18.5 8.5C19.3284 8.5 20 9.17157 20 10H21C21 8.61929 19.8807 7.5 18.5 7.5V8.5Z" fill="#1A1A8D"/>
<path d="M20.5 16L20.8536 15.6464L21.2071 16L20.8536 16.3536L20.5 16ZM5.5 16L5.5 16.5L5.5 16.5L5.5 16ZM3 14C3 13.7239 3.22386 13.5 3.5 13.5C3.77614 13.5 4 13.7239 4 14L3 14ZM16.8536 11.6464L20.8536 15.6464L20.1464 16.3536L16.1464 12.3536L16.8536 11.6464ZM20.8536 16.3536L16.8536 20.3536L16.1464 19.6464L20.1464 15.6464L20.8536 16.3536ZM20.5 16.5L5.5 16.5L5.5 15.5L20.5 15.5L20.5 16.5ZM5.5 16.5C4.11929 16.5 3 15.3807 3 14L4 14C4 14.8284 4.67157 15.5 5.5 15.5L5.5 16.5Z" fill="#1A1A8D"/>
</svg>
