<svg width="25" height="24" viewBox="0 0 25 24" fill="none" xmlns="http://www.w3.org/2000/svg">
<path d="M2.5 8L2.14645 7.64645L1.79289 8L2.14645 8.35355L2.5 8ZM21.5 8.5C21.7761 8.5 22 8.27614 22 8C22 7.72386 21.7761 7.5 21.5 7.5V8.5ZM6.14645 3.64645L2.14645 7.64645L2.85355 8.35355L6.85355 4.35355L6.14645 3.64645ZM2.14645 8.35355L6.14645 12.3536L6.85355 11.6464L2.85355 7.64645L2.14645 8.35355ZM2.5 8.5H21.5V7.5H2.5V8.5Z" fill="#1A1A8D"/>
<path d="M22.5 16L22.8536 15.6464L23.2071 16L22.8536 16.3536L22.5 16ZM13.5 16.5C13.2239 16.5 13 16.2761 13 16C13 15.7239 13.2239 15.5 13.5 15.5L13.5 16.5ZM18.8536 11.6464L22.8536 15.6464L22.1464 16.3536L18.1464 12.3536L18.8536 11.6464ZM22.8536 16.3536L18.8536 20.3536L18.1464 19.6464L22.1464 15.6464L22.8536 16.3536ZM22.5 16.5L13.5 16.5L13.5 15.5L22.5 15.5L22.5 16.5Z" fill="#1A1A8D"/>
</svg>
