<svg width="25" height="24" viewBox="0 0 25 24" fill="none" xmlns="http://www.w3.org/2000/svg">
<path d="M22.5 8L22.8536 7.64645L23.2071 8L22.8536 8.35355L22.5 8ZM3.5 8.5C3.22386 8.5 3 8.27614 3 8C3 7.72386 3.22386 7.5 3.5 7.5V8.5ZM18.8536 3.64645L22.8536 7.64645L22.1464 8.35355L18.1464 4.35355L18.8536 3.64645ZM22.8536 8.35355L18.8536 12.3536L18.1464 11.6464L22.1464 7.64645L22.8536 8.35355ZM22.5 8.5H3.5V7.5H22.5V8.5Z" fill="#1A1A8D"/>
<path d="M2.5 16L2.14645 15.6464L1.79289 16L2.14645 16.3536L2.5 16ZM11.5 16.5C11.7761 16.5 12 16.2761 12 16C12 15.7239 11.7761 15.5 11.5 15.5L11.5 16.5ZM6.14645 11.6464L2.14645 15.6464L2.85355 16.3536L6.85355 12.3536L6.14645 11.6464ZM2.14645 16.3536L6.14645 20.3536L6.85355 19.6464L2.85355 15.6464L2.14645 16.3536ZM2.5 16.5L11.5 16.5L11.5 15.5L2.5 15.5L2.5 16.5Z" fill="#1A1A8D"/>
</svg>
