<svg width="25" height="24" viewBox="0 0 25 24" fill="none" xmlns="http://www.w3.org/2000/svg">
<path d="M22.5 8L22.8536 7.64645L23.2071 8L22.8536 8.35355L22.5 8ZM12.5 8.5C12.2239 8.5 12 8.27614 12 8C12 7.72386 12.2239 7.5 12.5 7.5V8.5ZM18.8536 3.64645L22.8536 7.64645L22.1464 8.35355L18.1464 4.35355L18.8536 3.64645ZM22.8536 8.35355L18.8536 12.3536L18.1464 11.6464L22.1464 7.64645L22.8536 8.35355ZM22.5 8.5H12.5V7.5H22.5V8.5Z" fill="#1A1A8D"/>
<path d="M2.5 16L2.14645 15.6464L1.79289 16L2.14645 16.3536L2.5 16ZM21.5 16.5C21.7761 16.5 22 16.2761 22 16C22 15.7239 21.7761 15.5 21.5 15.5L21.5 16.5ZM6.14645 11.6464L2.14645 15.6464L2.85355 16.3536L6.85355 12.3536L6.14645 11.6464ZM2.14645 16.3536L6.14645 20.3536L6.85355 19.6464L2.85355 15.6464L2.14645 16.3536ZM2.5 16.5L21.5 16.5L21.5 15.5L2.5 15.5L2.5 16.5Z" fill="#1A1A8D"/>
</svg>
