<svg width="25" height="24" viewBox="0 0 25 24" fill="none" xmlns="http://www.w3.org/2000/svg">
<path d="M20.5 14.5714C20.5 18.7526 16.8364 22 12.5 22C8.16359 22 4.5 18.7526 4.5 14.5714C4.5 12 5.80472 9.45232 7.21637 7.42349C8.6468 5.36767 10.2918 3.69743 11.1777 2.85537M20.5 14.5714L11.1777 2.85537M20.5 14.5714C20.5 12 19.1953 9.45232 17.7836 7.42349C16.3532 5.36767 14.7082 3.69743 13.8223 2.85537C13.0778 2.14778 11.9222 2.14778 11.1777 2.85537M20.5 14.5714L11.1777 2.85537" stroke="#1A1A8D" stroke-width="2"/>
<path d="M12.5 18C11.9747 18 11.4546 17.8965 10.9693 17.6955C10.484 17.4945 10.043 17.1999 9.67157 16.8284C9.30014 16.457 9.0055 16.016 8.80448 15.5307C8.60346 15.0454 8.5 14.5253 8.5 14" stroke="#1A1A8D" stroke-width="2" stroke-linecap="round"/>
</svg>
