<svg width="25" height="24" viewBox="0 0 25 24" fill="none" xmlns="http://www.w3.org/2000/svg">
<path d="M12.5 21.5C16.6012 21.5 20 18.4372 20 14.5714C20 12.1555 18.7672 9.71249 17.3732 7.70906C15.9698 5.69214 14.3515 4.04821 13.4778 3.21778C12.9263 2.69364 12.0737 2.69364 11.5222 3.21779C10.6485 4.04821 9.03016 5.69214 7.6268 7.70906C6.23282 9.71249 5 12.1555 5 14.5714C5 18.4372 8.3988 21.5 12.5 21.5Z" stroke="#1A1A8D"/>
<path d="M12.5 18C11.9747 18 11.4546 17.8965 10.9693 17.6955C10.484 17.4945 10.043 17.1999 9.67157 16.8284C9.30014 16.457 9.0055 16.016 8.80448 15.5307C8.60346 15.0454 8.5 14.5253 8.5 14" stroke="#1A1A8D" stroke-linecap="round"/>
</svg>
