<svg width="25" height="24" viewBox="0 0 25 24" fill="none" xmlns="http://www.w3.org/2000/svg">
<path d="M3.5 11C3.5 7.22876 3.5 5.34315 4.67157 4.17157C5.84315 3 7.72876 3 11.5 3H13.5C17.2712 3 19.1569 3 20.3284 4.17157C21.5 5.34315 21.5 7.22876 21.5 11V13C21.5 16.7712 21.5 18.6569 20.3284 19.8284C19.1569 21 17.2712 21 13.5 21H11.5C7.72876 21 5.84315 21 4.67157 19.8284C3.5 18.6569 3.5 16.7712 3.5 13V11Z" stroke="#1A1A8D" stroke-width="2"/>
<path fill-rule="evenodd" clip-rule="evenodd" d="M19.4997 13.5854L19.4794 13.5651C19.0898 13.1754 18.7537 12.8393 18.4536 12.5864C18.1367 12.3193 17.7917 12.0845 17.3665 11.9562C16.8014 11.7857 16.1986 11.7857 15.6335 11.9562C15.2083 12.0845 14.8633 12.3193 14.5464 12.5864C14.2463 12.8393 13.9102 13.1754 13.5206 13.5651L13.4921 13.5936C13.1852 13.9004 13.0046 14.0795 12.8645 14.1954L12.8443 14.2118L12.8317 14.1891C12.7447 14.0295 12.6435 13.7961 12.4726 13.3972L12.4191 13.2726L12.3971 13.2211L12.397 13.221C12.0411 12.3904 11.7422 11.693 11.4464 11.1673C11.1416 10.6257 10.7618 10.1178 10.1698 9.82106C9.67604 9.57352 9.1235 9.46711 8.57311 9.51356C7.91323 9.56924 7.37197 9.89977 6.88783 10.2894C6.48249 10.6157 6.02754 11.0598 5.5 11.5859V12.9999C5.5 13.5166 5.5003 13.9848 5.50308 14.411L6.617 13.2971C7.30615 12.6079 7.76639 12.1497 8.14186 11.8475C8.51276 11.5489 8.67233 11.5123 8.74128 11.5065C8.92475 11.491 9.10893 11.5265 9.27352 11.609C9.33539 11.64 9.46994 11.7333 9.70344 12.1482C9.93981 12.5682 10.1969 13.1646 10.5809 14.0605L10.6343 14.1851L10.6506 14.2232C10.7995 14.5707 10.9378 14.8936 11.0759 15.1468C11.2206 15.412 11.4308 15.7299 11.7847 15.9489C12.202 16.2072 12.6997 16.3031 13.1831 16.2182C13.593 16.1463 13.9062 15.9292 14.1391 15.7367C14.3613 15.5529 14.6096 15.3045 14.8769 15.0371L14.877 15.0371L14.9063 15.0078C15.3325 14.5816 15.6083 14.307 15.8353 14.1157C16.0526 13.9325 16.1552 13.8878 16.2112 13.8709C16.3995 13.8141 16.6005 13.8141 16.7888 13.8709C16.8448 13.8878 16.9474 13.9325 17.1647 14.1157C17.3917 14.307 17.6675 14.5816 18.0937 15.0078L19.4441 16.3582C19.4902 15.6404 19.4983 14.7479 19.4997 13.5854Z" fill="#1A1A8D"/>
<circle cx="17" cy="7.5" r="1.5" fill="#1A1A8D"/>
</svg>
