<svg width="25" height="24" viewBox="0 0 25 24" fill="none" xmlns="http://www.w3.org/2000/svg">
<circle cx="17.5" cy="6" r="2" fill="#1A1A8D"/>
<path d="M11.5534 12.7913L10.8848 11.2311C10.5901 10.5435 10.4427 10.1997 10.2571 9.97631C9.69057 9.29437 8.74265 9.06683 7.92826 9.41728C7.66152 9.53206 7.37416 9.77154 6.79943 10.2505L6.79943 10.2505C6.0352 10.8873 5.65308 11.2058 5.33206 11.5571C4.37336 12.6065 3.75682 13.9228 3.56442 15.3311C3.5 15.8027 3.5 16.311 3.5 17.3276C3.5 17.9476 3.5 18.2575 3.56524 18.5067C3.74831 19.2057 4.29426 19.7517 4.99334 19.9348C5.24247 20 5.54572 20 6.15221 20H17.7654C18.4488 20 18.7905 20 19.069 19.9174C19.7176 19.7249 20.2249 19.2176 20.4174 18.569C20.5 18.2905 20.5 17.9488 20.5 17.2654C20.5 16.6671 20.5 16.3679 20.4585 16.0819C20.3627 15.4228 20.104 14.7981 19.7056 14.2643C19.5328 14.0328 19.3212 13.8212 18.8981 13.3981L18.6877 13.1877C17.9664 12.4664 17.6057 12.1057 17.1968 11.9537C16.7473 11.7867 16.2527 11.7867 15.8032 11.9537C15.3943 12.1057 15.0336 12.4664 14.3123 13.1877L14.1992 13.3008C13.6138 13.8862 13.3212 14.1788 13.0102 14.2334C12.7685 14.2758 12.5197 14.2279 12.311 14.0988C12.0425 13.9326 11.8795 13.5522 11.5534 12.7913L11.5534 12.7913Z" stroke="#1A1A8D"/>
</svg>
