<svg width="25" height="24" viewBox="0 0 25 24" fill="none" xmlns="http://www.w3.org/2000/svg">
<mask id="mask0_2_3150" style="mask-type:alpha" maskUnits="userSpaceOnUse" x="3" y="3" width="19" height="18">
<path d="M3.5 11C3.5 7.22876 3.5 5.34315 4.67157 4.17157C5.84315 3 7.72876 3 11.5 3H13.5C17.2712 3 19.1569 3 20.3284 4.17157C21.5 5.34315 21.5 7.22876 21.5 11V13C21.5 16.7712 21.5 18.6569 20.3284 19.8284C19.1569 21 17.2712 21 13.5 21H11.5C7.72876 21 5.84315 21 4.67157 19.8284C3.5 18.6569 3.5 16.7712 3.5 13V11Z" fill="black"/>
</mask>
<g mask="url(#mask0_2_3150)">
<path d="M13.1887 14.5694L11.6918 12.9365C10.4224 11.5517 9.78772 10.8593 8.96257 10.8217C8.13742 10.7842 7.44243 11.416 6.05245 12.6796L4.13072 14.4266C3.83204 14.6981 3.6827 14.8339 3.59823 15.0102C3.58945 15.0285 3.58124 15.047 3.57359 15.0658C3.5 15.2469 3.5 15.4487 3.5 15.8524C3.5 19.5206 3.5 21.3546 4.58333 22.5089C4.69186 22.6246 4.80718 22.7337 4.92866 22.8356C6.14128 23.8533 7.97254 23.7515 11.6351 23.5481L14.947 23.3641C17.5575 23.219 18.8627 23.1465 19.7979 22.4901C20.2385 22.1809 20.6122 21.7859 20.8965 21.3288C21.5 20.3586 21.5 19.0514 21.5 16.4369V16.2426C21.5 15.8352 21.5 15.6314 21.4616 15.4382C21.4103 15.1806 21.3089 14.9357 21.1629 14.7173C21.0535 14.5535 20.9094 14.4094 20.6213 14.1213C19.9624 13.4624 19.6329 13.1329 19.2654 12.9807C18.7753 12.7777 18.2247 12.7777 17.7346 12.9807C17.3671 13.1329 17.0376 13.4624 16.3787 14.1213L15.8722 14.6278C15.2797 15.2203 14.9834 15.5166 14.6241 15.5501C14.548 15.5572 14.4713 15.5555 14.3956 15.5451C14.0381 15.4961 13.7549 15.1872 13.1887 14.5694L13.1887 14.5694Z" fill="#FFD400" fill-opacity="0.5"/>
</g>
<circle cx="16.5" cy="9" r="2" fill="#1A1A8D"/>
</svg>
