<svg width="25" height="24" viewBox="0 0 25 24" fill="none" xmlns="http://www.w3.org/2000/svg">
<path fill-rule="evenodd" clip-rule="evenodd" d="M4.67157 4.17157C3.5 5.34315 3.5 7.22876 3.5 11V13C3.5 13.165 3.5 13.3264 3.5001 13.4842L5.23385 11.9982L5.26277 11.9734C6.0916 11.2629 6.75232 10.6966 7.31891 10.3285C7.89961 9.95134 8.4626 9.72703 9.08499 9.81521C9.23012 9.83578 9.37315 9.86906 9.51245 9.91469C10.1098 10.1104 10.5159 10.5602 10.8704 11.155C11.2163 11.7354 11.5591 12.5352 11.9891 13.5386L11.9891 13.5386L12.0041 13.5737C12.2182 14.0731 12.3601 14.4016 12.4946 14.6282C12.6241 14.8462 12.7017 14.8901 12.7483 14.9069C12.775 14.9165 12.8023 14.9238 12.8302 14.9288C12.8783 14.9374 12.9678 14.9382 13.1909 14.8125C13.4223 14.682 13.7115 14.4664 14.149 14.1383L14.1693 14.123C14.6297 13.7777 15.0047 13.4964 15.334 13.2972C15.6771 13.0897 16.0065 12.948 16.3827 12.9093C16.4569 12.9016 16.5315 12.8973 16.6061 12.8964C16.9837 12.8915 17.3264 12.9935 17.6898 13.1594C18.0383 13.3185 18.4408 13.5533 18.9347 13.8414L18.9567 13.8542L21.4855 15.3293C21.5 14.6442 21.5 13.8726 21.5 13V11C21.5 7.22876 21.5 5.34315 20.3284 4.17157C19.1569 3 17.2712 3 13.5 3H11.5C7.72876 3 5.84315 3 4.67157 4.17157ZM21.4413 16.4613L18.4528 14.718C17.9317 14.414 17.5722 14.205 17.2746 14.0692C16.9869 13.9378 16.796 13.894 16.619 13.8963C16.5743 13.8969 16.5295 13.8995 16.485 13.904L16.4338 13.4067L16.485 13.904C16.3094 13.9221 16.1242 13.9879 15.8516 14.1528C15.57 14.3232 15.2346 14.574 14.749 14.9383L14.722 14.9585L14.722 14.9585C14.3188 15.2609 13.9773 15.5171 13.682 15.6835C13.3719 15.8584 13.0345 15.981 12.6547 15.9133C12.5712 15.8984 12.489 15.8764 12.4092 15.8476C12.047 15.7171 11.816 15.444 11.6348 15.1388C11.4625 14.8487 11.2954 14.4586 11.0983 13.9986L11.0983 13.9986L11.085 13.9676C10.6365 12.9212 10.3191 12.1833 10.0114 11.667C9.70829 11.1583 9.46329 10.9509 9.20118 10.865C9.1176 10.8376 9.03178 10.8177 8.9447 10.8053C8.67161 10.7666 8.36019 10.8446 7.86364 11.1672C7.35956 11.4946 6.74899 12.0166 5.88464 12.7574L3.50609 14.7962C3.53516 17.4031 3.70295 18.8598 4.67157 19.8284C5.84315 21 7.72876 21 11.5 21H13.5C17.2712 21 19.1569 21 20.3284 19.8284C21.068 19.0888 21.3407 18.0647 21.4413 16.4613Z" fill="#FFD400" fill-opacity="0.5"/>
<circle cx="16.5" cy="8" r="2" fill="#1A1A8D"/>
</svg>
