<svg width="25" height="24" viewBox="0 0 25 24" fill="none" xmlns="http://www.w3.org/2000/svg">
<path fill-rule="evenodd" clip-rule="evenodd" d="M3.67157 3.17138C2.5 4.34296 2.5 6.22857 2.5 9.99981V13.9998C2.5 17.771 2.5 19.6567 3.67157 20.8282C4.84315 21.9998 6.72876 21.9998 10.5 21.9998H14.5H14.5C18.2712 21.9998 20.1569 21.9998 21.3284 20.8282C22.5 19.6567 22.5 17.7711 22.5 13.9998V13.9998V9.99981C22.5 7.16047 22.5 5.38999 22 4.18837V16.9998C21.0396 16.9998 20.1185 16.6183 19.4393 15.9392L18.6877 15.1875C17.9664 14.4662 17.6057 14.1055 17.1968 13.9535C16.7473 13.7865 16.2527 13.7865 15.8032 13.9535C15.3943 14.1055 15.0336 14.4662 14.3123 15.1875L14.1992 15.3006C13.6138 15.886 13.3212 16.1786 13.0102 16.2332C12.7685 16.2756 12.5197 16.2277 12.311 16.0986C12.0425 15.9324 11.8795 15.552 11.5534 14.7911L11.5 14.6665C10.7504 12.9173 10.3755 12.0427 9.72167 11.7149C9.39249 11.5499 9.02413 11.479 8.6572 11.5099C7.92836 11.5715 7.25554 12.2443 5.90989 13.5899L4 15.4998V2.88721C3.8844 2.97331 3.77519 3.06776 3.67157 3.17138Z" fill="#1A1A8D"/>
<path d="M3.5 10C3.5 8.08611 3.50212 6.75129 3.63753 5.74416C3.76907 4.76579 4.00966 4.2477 4.37868 3.87868C4.7477 3.50966 5.26579 3.26907 6.24416 3.13753C7.25129 3.00212 8.58611 3 10.5 3H14.5C16.4139 3 17.7487 3.00212 18.7558 3.13753C19.7342 3.26907 20.2523 3.50966 20.6213 3.87868C20.9903 4.2477 21.2309 4.76579 21.3625 5.74416C21.4979 6.75129 21.5 8.08611 21.5 10V14C21.5 15.9139 21.4979 17.2487 21.3625 18.2558C21.2309 19.2342 20.9903 19.7523 20.6213 20.1213C20.2523 20.4903 19.7342 20.7309 18.7558 20.8625C17.7487 20.9979 16.4139 21 14.5 21H10.5C8.58611 21 7.25129 20.9979 6.24416 20.8625C5.26579 20.7309 4.7477 20.4903 4.37868 20.1213C4.00966 19.7523 3.76907 19.2342 3.63753 18.2558C3.50212 17.2487 3.5 15.9139 3.5 14V10Z" stroke="#1A1A8D" stroke-width="2"/>
<circle cx="15.5" cy="9" r="2" fill="#1A1A8D"/>
</svg>
