<svg width="25" height="24" viewBox="0 0 25 24" fill="none" xmlns="http://www.w3.org/2000/svg">
<path d="M4 18L6.46062 15.3157C7.7357 13.9247 8.37325 13.2292 9.14911 13.1621C9.33911 13.1457 9.5305 13.1565 9.71743 13.1943C10.4808 13.3485 11.0357 14.1116 12.1456 15.6377L12.5206 16.1534C12.7408 16.4562 12.851 16.6076 12.9698 16.6973C13.2999 16.9463 13.7491 16.9665 14.1002 16.7482C14.2267 16.6695 14.3499 16.5287 14.5965 16.2469V16.2469C15.1309 15.6361 15.3982 15.3307 15.6661 15.1694C16.4118 14.7206 17.3622 14.8056 18.0165 15.3796C18.2515 15.5859 18.4603 15.9339 18.8779 16.6298L20 18.5" stroke="#1A1A8D"/>
<path d="M7 8.5V5" stroke="#1A1A8D" stroke-linecap="round"/>
<path d="M18 8.5V5" stroke="#1A1A8D" stroke-linecap="round"/>
<path d="M3 17V7M22 7V17" stroke="#1A1A8D" stroke-linecap="round"/>
<path d="M18.0074 4.96298C19.6476 5.27007 20.8747 5.70633 21.5117 6.20882C22.1488 6.71132 22.1628 7.25408 21.5518 7.75881C20.9409 8.26354 19.7364 8.70415 18.1123 9.0171C16.4882 9.33004 14.5283 9.49914 12.5154 9.5C10.5024 9.50085 8.5405 9.33343 6.91253 9.02187C5.28457 8.71031 4.07474 8.27073 3.45756 7.76652C2.84037 7.26231 2.84774 6.71955 3.47859 6.21651C4.10943 5.71347 5.33116 5.27617 6.96753 4.96768" stroke="#1A1A8D" stroke-linecap="round"/>
<path d="M22 17C22 17.663 20.9991 18.2989 19.2175 18.7678C17.4359 19.2366 15.0196 19.5 12.5 19.5C9.98044 19.5 7.56408 19.2366 5.78249 18.7678C4.00089 18.2989 3 17.663 3 17" stroke="#1A1A8D"/>
</svg>
