<svg width="25" height="24" viewBox="0 0 25 24" fill="none" xmlns="http://www.w3.org/2000/svg">
<circle cx="17.5" cy="6" r="2" fill="#1A1A8D"/>
<path d="M5.72641 11.1447L4.21963 12.4003C3.86576 12.6952 3.68882 12.8426 3.59441 13.0442C3.5 13.2458 3.5 13.4761 3.5 13.9367V16C3.5 17.8856 3.5 18.8284 4.08579 19.4142C4.67157 20 5.61438 20 7.5 20H16.5C18.3856 20 19.3284 20 19.9142 19.4142C20.5 18.8284 20.5 17.8856 20.5 16V15.8284C20.5 15.4197 20.5 15.2153 20.4239 15.0315C20.3478 14.8478 20.2032 14.7032 19.9142 14.4142L19.9142 14.4142L18.8008 13.3008C17.9728 12.4728 17.5588 12.0588 17.0777 11.9137C16.7009 11.8 16.2991 11.8 15.9223 11.9137C15.4412 12.0588 15.0272 12.4728 14.1992 13.3008C13.6138 13.8862 13.3212 14.1788 13.0102 14.2334C12.7685 14.2758 12.5197 14.2279 12.311 14.0988C12.0425 13.9326 11.8795 13.5522 11.5534 12.7913L11.435 12.515C10.6361 10.6509 10.2367 9.71888 9.48531 9.40712C9.29066 9.32635 9.08447 9.27686 8.87436 9.26047C8.06336 9.1972 7.28438 9.84635 5.72641 11.1447Z" fill="#1A1A8D" stroke="#1A1A8D" stroke-width="2"/>
</svg>
