<svg width="25" height="24" viewBox="0 0 25 24" fill="none" xmlns="http://www.w3.org/2000/svg">
<path d="M3.5 11C3.5 7.22876 3.5 5.34315 4.67157 4.17157C5.84315 3 7.72876 3 11.5 3H13.5C17.2712 3 19.1569 3 20.3284 4.17157C21.5 5.34315 21.5 7.22876 21.5 11V13C21.5 16.7712 21.5 18.6569 20.3284 19.8284C19.1569 21 17.2712 21 13.5 21H11.5C7.72876 21 5.84315 21 4.67157 19.8284C3.5 18.6569 3.5 16.7712 3.5 13V11Z" stroke="#1A1A8D"/>
<path fill-rule="evenodd" clip-rule="evenodd" d="M19.4976 14.2904L19.1544 13.9471L19.1385 13.9313C18.738 13.5307 18.4149 13.2077 18.1314 12.9687C17.8394 12.7226 17.555 12.5353 17.2221 12.4349C16.7512 12.2928 16.2488 12.2928 15.7779 12.4349C15.445 12.5353 15.1606 12.7226 14.8686 12.9687C14.5851 13.2077 14.262 13.5307 13.8615 13.9313L13.8456 13.9471C13.5459 14.2469 13.3458 14.4462 13.1832 14.5807C13.0218 14.7142 12.952 14.7359 12.9237 14.7408C12.8029 14.762 12.6785 14.7381 12.5742 14.6735C12.5498 14.6584 12.493 14.6123 12.3928 14.4285C12.2917 14.2432 12.18 13.9838 12.013 13.5942L11.9596 13.4696L11.9475 13.4414L11.9475 13.4414C11.5829 12.5907 11.2931 11.9144 11.0107 11.4126C10.7237 10.9026 10.4052 10.4984 9.94575 10.268C9.53426 10.0618 9.07382 9.97308 8.61515 10.0118C8.103 10.055 7.65716 10.3121 7.20134 10.6789C6.75273 11.04 6.23245 11.5603 5.57799 12.2148L5.57798 12.2148L5.55634 12.2364L5.5 12.2928V12.9999C5.5 13.2462 5.50007 13.4816 5.50044 13.7065L6.26344 12.9435C6.94443 12.2626 7.42686 11.7811 7.82835 11.458C8.22756 11.1366 8.48255 11.0265 8.69924 11.0082C8.97444 10.985 9.25071 11.0382 9.4976 11.162C9.692 11.2594 9.88786 11.4564 10.1392 11.903C10.3919 12.3521 10.6611 12.9783 11.0404 13.8635L11.0938 13.9881L11.1034 14.0105L11.1034 14.0105C11.2583 14.3719 11.3884 14.6754 11.5149 14.9073C11.6448 15.1455 11.8038 15.3727 12.0479 15.5238C12.3608 15.7175 12.7341 15.7894 13.0966 15.7258C13.3794 15.6761 13.6114 15.5242 13.8204 15.3513C14.024 15.183 14.2575 14.9495 14.5355 14.6714L14.5527 14.6542C14.9728 14.2341 15.266 13.9416 15.513 13.7334C15.7553 13.5292 15.9185 13.437 16.0667 13.3922C16.3493 13.307 16.6507 13.307 16.9333 13.3922C17.0815 13.437 17.2447 13.5292 17.487 13.7334C17.734 13.9416 18.0272 14.2341 18.4473 14.6542L19.4755 15.6825C19.4887 15.2721 19.4948 14.812 19.4976 14.2904Z" fill="#1A1A8D"/>
<circle cx="17" cy="7.5" r="1.5" fill="#1A1A8D"/>
</svg>
