<svg width="25" height="24" viewBox="0 0 25 24" fill="none" xmlns="http://www.w3.org/2000/svg">
<mask id="mask0_2_3119" style="mask-type:alpha" maskUnits="userSpaceOnUse" x="3" y="3" width="19" height="18">
<path d="M3.5 11C3.5 7.22876 3.5 5.34315 4.67157 4.17157C5.84315 3 7.72876 3 11.5 3H13.5C17.2712 3 19.1569 3 20.3284 4.17157C21.5 5.34315 21.5 7.22876 21.5 11V13C21.5 16.7712 21.5 18.6569 20.3284 19.8284C19.1569 21 17.2712 21 13.5 21H11.5C7.72876 21 5.84315 21 4.67157 19.8284C3.5 18.6569 3.5 16.7712 3.5 13V11Z" fill="#273B4A"/>
</mask>
<g mask="url(#mask0_2_3119)">
<path d="M5.90989 12.5901L5.75713 12.7429C4.77646 13.7235 4.28613 14.2139 3.99264 14.8158C3.89066 15.025 3.80712 15.2427 3.74299 15.4664C3.55843 16.1102 3.59488 16.8027 3.66777 18.1877L4 24.5H21.5V19.7573C21.5 18.3059 21.5 17.5802 21.2614 16.9207C21.1962 16.7404 21.1181 16.565 21.0277 16.3959C20.6971 15.7774 20.1577 15.2919 19.0789 14.321L18.8643 14.1279C17.9682 13.3214 17.5202 12.9182 17.0078 12.8039C16.6864 12.7322 16.3523 12.741 16.0352 12.8295C15.5295 12.9705 15.1033 13.3967 14.2508 14.2492C13.6184 14.8816 13.3023 15.1977 12.9625 15.2406C12.7519 15.2672 12.5383 15.226 12.3526 15.1231C12.0531 14.9572 11.8742 14.5399 11.5166 13.7053C10.7559 11.9304 10.3755 11.0429 9.72167 10.7151C9.39249 10.5501 9.02413 10.4792 8.6572 10.5101C7.92836 10.5716 7.25554 11.2445 5.90989 12.5901L5.90989 12.5901Z" fill="#FFD400" fill-opacity="0.5" stroke="#1A1A8D"/>
</g>
<path d="M3.5 11C3.5 7.22876 3.5 5.34315 4.67157 4.17157C5.84315 3 7.72876 3 11.5 3H13.5C17.2712 3 19.1569 3 20.3284 4.17157C21.5 5.34315 21.5 7.22876 21.5 11V13C21.5 16.7712 21.5 18.6569 20.3284 19.8284C19.1569 21 17.2712 21 13.5 21H11.5C7.72876 21 5.84315 21 4.67157 19.8284C3.5 18.6569 3.5 16.7712 3.5 13V11Z" stroke="#1A1A8D" stroke-width="1.2"/>
<circle cx="17" cy="7.5" r="1.5" fill="#1A1A8D"/>
</svg>
