<svg width="25" height="24" viewBox="0 0 25 24" fill="none" xmlns="http://www.w3.org/2000/svg">
<path d="M21.5 11V13C21.5 16.7712 21.5 18.6569 20.3284 19.8284C19.1569 21 17.2712 21 13.5 21H11.5C7.72876 21 5.84315 21 4.67157 19.8284C3.5 18.6569 3.5 16.7712 3.5 13V11C3.5 7.22876 3.5 5.34315 4.67157 4.17157C5.84315 3 7.72876 3 11.5 3H12.5" stroke="#1A1A8D" stroke-width="2"/>
<path fill-rule="evenodd" clip-rule="evenodd" d="M19.4997 13.5855L19.2569 13.3427L19.2422 13.328C19.1785 13.2643 19.1249 13.2107 19.0777 13.1673C17.6476 11.8533 15.3649 12.2237 14.4237 13.9225C14.3926 13.9786 14.3588 14.0464 14.3185 14.127L14.3185 14.127L14.3092 14.1456L14.281 14.2017L14.2791 14.2055L14.2763 14.2023L14.2354 14.1547L9.25927 8.34923C8.89985 7.9299 8.26855 7.88134 7.84923 8.24076C7.4299 8.60018 7.38134 9.23148 7.74076 9.65081L12.7168 15.4562L12.7257 15.4665C12.7545 15.5002 12.7884 15.5398 12.8193 15.5728C13.746 16.5624 15.3679 16.3627 16.0269 15.1779C16.0489 15.1384 16.0722 15.0918 16.092 15.0521L16.092 15.0521L16.0981 15.04C16.1528 14.9305 16.1657 14.9053 16.1732 14.8917C16.4869 14.3255 17.2478 14.202 17.7245 14.64C17.736 14.6505 17.7561 14.6703 17.8427 14.7569L19.4442 16.3584C19.4902 15.6405 19.4984 14.7481 19.4997 13.5855Z" fill="#1A1A8D"/>
<path d="M21.5 3V2H22.5V3H21.5ZM17.1247 7.78087C16.6934 8.12588 16.0641 8.05596 15.7191 7.62469C15.3741 7.19343 15.444 6.56414 15.8753 6.21913L17.1247 7.78087ZM20.5 8V3H22.5V8H20.5ZM21.5 4H16.5V2H21.5V4ZM22.1247 3.78087L17.1247 7.78087L15.8753 6.21913L20.8753 2.21913L22.1247 3.78087Z" fill="#1A1A8D"/>
</svg>
