<svg width="25" height="24" viewBox="0 0 25 24" fill="none" xmlns="http://www.w3.org/2000/svg">
<mask id="mask0_2_3131" style="mask-type:alpha" maskUnits="userSpaceOnUse" x="3" y="3" width="19" height="18">
<path d="M3.5 11C3.5 7.22876 3.5 5.34315 4.67157 4.17157C5.84315 3 7.72876 3 11.5 3H13.5C17.2712 3 19.1569 3 20.3284 4.17157C21.5 5.34315 21.5 7.22876 21.5 11V13C21.5 16.7712 21.5 18.6569 20.3284 19.8284C19.1569 21 17.2712 21 13.5 21H11.5C7.72876 21 5.84315 21 4.67157 19.8284C3.5 18.6569 3.5 16.7712 3.5 13V11Z" fill="black"/>
</mask>
<g mask="url(#mask0_2_3131)">
<path d="M13.3982 14.788L4.80976 5.34073C4.61247 5.12372 4.3328 5 4.03951 5C2.72574 5 1.74039 3.79807 1.99804 2.5098L2.39709 0.514565C2.74766 -1.23828 4.28671 -2.5 6.07426 -2.5H14.7922C18.6528 -2.5 20.5831 -2.5 21.7606 -1.29194C22.938 -0.0838838 22.8886 1.84576 22.7896 5.70506L22.5 17L18.6773 13.8144C18.4625 13.6354 18.3551 13.546 18.2631 13.4851C17.335 12.871 16.0841 13.1327 15.4799 14.0673C15.42 14.1599 15.3575 14.2849 15.2325 14.535C15.1616 14.6769 15.1261 14.7478 15.0934 14.7974C14.7609 15.3023 14.0599 15.399 13.6032 15.003C13.5583 14.9641 13.5049 14.9054 13.3982 14.788L13.3982 14.788Z" fill="#FFD400" fill-opacity="0.5" stroke="#1A1A8D" stroke-width="1.2" stroke-linecap="round"/>
</g>
<path d="M3.5 13V11C3.5 7.22876 3.5 5.34315 4.67157 4.17157C5.84315 3 7.72876 3 11.5 3H13.5C17.2712 3 19.1569 3 20.3284 4.17157C21.5 5.34315 21.5 7.22876 21.5 11V13C21.5 16.7712 21.5 18.6569 20.3284 19.8284C19.1569 21 17.2712 21 13.5 21H12.5" stroke="#1A1A8D" stroke-width="1.2"/>
<circle cx="17" cy="7.5" r="1.5" fill="#1A1A8D"/>
<path d="M8.5 16V15.4H9.1V16H8.5ZM3.87482 20.4685C3.61606 20.6755 3.23848 20.6336 3.03148 20.3748C2.82447 20.1161 2.86643 19.7385 3.12518 19.5315L3.87482 20.4685ZM7.9 21V16H9.1V21H7.9ZM8.5 16.6H3.5V15.4H8.5V16.6ZM8.87482 16.4685L3.87482 20.4685L3.12518 19.5315L8.12518 15.5315L8.87482 16.4685Z" fill="#1A1A8D"/>
</svg>
