<svg width="25" height="24" viewBox="0 0 25 24" fill="none" xmlns="http://www.w3.org/2000/svg">
<mask id="mask0_2_3125" style="mask-type:alpha" maskUnits="userSpaceOnUse" x="3" y="3" width="19" height="18">
<path d="M3.5 11C3.5 7.22876 3.5 5.34315 4.67157 4.17157C5.84315 3 7.72876 3 11.5 3H13.5C17.2712 3 19.1569 3 20.3284 4.17157C21.5 5.34315 21.5 7.22876 21.5 11V13C21.5 16.7712 21.5 18.6569 20.3284 19.8284C19.1569 21 17.2712 21 13.5 21H11.5C7.72876 21 5.84315 21 4.67157 19.8284C3.5 18.6569 3.5 16.7712 3.5 13V11Z" fill="black"/>
</mask>
<g mask="url(#mask0_2_3125)">
<path d="M13.5165 14.9271L11.3526 12.5665C10.4097 11.5378 9.93822 11.0235 9.35264 10.8784C9.09633 10.8149 8.82999 10.8028 8.56897 10.8427C7.97262 10.934 7.45636 11.4033 6.42383 12.342C5.36247 13.3068 4.83179 13.7893 4.37472 13.7316C4.18096 13.7071 3.9986 13.6264 3.85016 13.4995C3.5 13.2001 3.5 12.4829 3.5 11.0486V7.56789C3.5 3.98379 3.5 2.19174 4.59419 1.03508C5.68837 -0.121576 7.47766 -0.220981 11.0562 -0.419791L13.0562 -0.530903C17.0172 -0.750957 18.9977 -0.860985 20.2489 0.322575C21.5 1.50614 21.5 3.48968 21.5 7.45678V13.9062C21.5 14.4708 21.5 14.7531 21.4455 14.9114C21.25 15.4793 20.6015 15.7479 20.0617 15.4846C19.9112 15.4112 19.7116 15.2116 19.3123 14.8123C18.9423 14.4423 18.7572 14.2572 18.5697 14.1385C17.9165 13.7251 17.0835 13.7251 16.4303 14.1385C16.2428 14.2572 16.0577 14.4423 15.6877 14.8123L15.5292 14.9708C15.2599 15.2401 15.1253 15.3747 14.9823 15.447C14.6851 15.5971 14.3326 15.5894 14.0422 15.4265C13.9025 15.3482 13.7738 15.2078 13.5165 14.9271L13.5165 14.9271Z" fill="#FFD400" fill-opacity="0.5"/>
</g>
<path d="M8.5 16V15.4H9.1V16H8.5ZM2.92426 22.4243C2.68995 22.6586 2.31005 22.6586 2.07574 22.4243C1.84142 22.1899 1.84142 21.8101 2.07574 21.5757L2.92426 22.4243ZM7.9 21V16H9.1V21H7.9ZM8.5 16.6H3.5V15.4H8.5V16.6ZM8.92426 16.4243L2.92426 22.4243L2.07574 21.5757L8.07574 15.5757L8.92426 16.4243Z" fill="#1A1A8D"/>
<circle cx="16.5" cy="8" r="2" fill="#1A1A8D"/>
</svg>
