<svg width="25" height="24" viewBox="0 0 25 24" fill="none" xmlns="http://www.w3.org/2000/svg">
<path d="M21.5 11V13C21.5 16.7712 21.5 18.6569 20.3284 19.8284C19.1569 21 17.2712 21 13.5 21H11.5C7.72876 21 5.84315 21 4.67157 19.8284C3.5 18.6569 3.5 16.7712 3.5 13V11C3.5 7.22876 3.5 5.34315 4.67157 4.17157C5.84315 3 7.72876 3 11.5 3H12.5" stroke="#1A1A8D"/>
<path fill-rule="evenodd" clip-rule="evenodd" d="M19.4976 14.2905L18.9033 13.6962L18.8931 13.686L18.893 13.6859C18.8245 13.6174 18.7785 13.5713 18.7394 13.5355C17.5477 12.4404 15.6454 12.7491 14.8611 14.1648C14.8354 14.2112 14.8062 14.2695 14.7629 14.3563L14.7564 14.3692C14.727 14.428 14.72 14.4417 14.7161 14.4488C14.5513 14.745 14.1458 14.7949 13.9142 14.5475C13.9087 14.5416 13.8985 14.53 13.8557 14.48L8.87964 8.67461C8.69993 8.46495 8.38428 8.44067 8.17461 8.62038C7.96495 8.80009 7.94067 9.11574 8.12038 9.3254L13.0965 15.1308L13.1038 15.1394L13.1038 15.1394C13.1352 15.176 13.1614 15.2067 13.1843 15.231C13.8793 15.9732 15.0957 15.8234 15.59 14.9349C15.6062 14.9057 15.6242 14.8696 15.6458 14.8264L15.6508 14.8164C15.703 14.7121 15.7218 14.6747 15.7358 14.6494C16.2064 13.8 17.3478 13.6148 18.0628 14.2718C18.0841 14.2914 18.1138 14.3209 18.1962 14.4033L19.4756 15.6827C19.4887 15.2723 19.4948 14.8121 19.4976 14.2905Z" fill="#1A1A8D"/>
<path d="M21.5 3V2.5H22V3H21.5ZM16.8123 7.39043C16.5967 7.56294 16.2821 7.52798 16.1096 7.31235C15.9371 7.09672 15.972 6.78207 16.1877 6.60957L16.8123 7.39043ZM21 8V3H22V8H21ZM21.5 3.5H16.5V2.5H21.5V3.5ZM21.8123 3.39043L16.8123 7.39043L16.1877 6.60957L21.1877 2.60957L21.8123 3.39043Z" fill="#1A1A8D"/>
</svg>
