<svg width="25" height="24" viewBox="0 0 25 24" fill="none" xmlns="http://www.w3.org/2000/svg">
<mask id="mask0_2_3144" style="mask-type:alpha" maskUnits="userSpaceOnUse" x="3" y="3" width="19" height="18">
<path d="M3.5 11C3.5 7.22876 3.5 5.34315 4.67157 4.17157C5.84315 3 7.72876 3 11.5 3H13.5C17.2712 3 19.1569 3 20.3284 4.17157C21.5 5.34315 21.5 7.22876 21.5 11V13C21.5 16.7712 21.5 18.6569 20.3284 19.8284C19.1569 21 17.2712 21 13.5 21H11.5C7.72876 21 5.84315 21 4.67157 19.8284C3.5 18.6569 3.5 16.7712 3.5 13V11Z" fill="black"/>
</mask>
<g mask="url(#mask0_2_3144)">
<path d="M13.3982 14.788L4.86551 5.40206C4.63272 5.14599 4.3027 5 3.95663 5C2.59987 5 1.5 6.09987 1.5 7.45663V15.501C1.5 19.2722 1.5 21.1578 2.67157 22.3294C3.84315 23.501 5.72876 23.501 9.5 23.501H17.5344C18.0375 23.501 18.2891 23.501 18.5085 23.4767C20.1448 23.2955 21.5029 22.1303 21.9308 20.5406C21.9882 20.3274 22.0264 20.0788 22.1029 19.5816L22.1029 19.5815C22.1548 19.2444 22.1807 19.0758 22.1923 18.9161C22.2777 17.7424 21.8419 16.5907 21.001 15.7675C20.8866 15.6555 20.7556 15.5463 20.4936 15.328L20.4935 15.3279L18.6773 13.8144C18.4625 13.6354 18.3551 13.546 18.2631 13.4851C17.335 12.871 16.0841 13.1327 15.4799 14.0673C15.42 14.1599 15.3575 14.2849 15.2325 14.5349L15.2325 14.535L15.2325 14.535C15.1616 14.6769 15.1261 14.7478 15.0934 14.7974C14.7609 15.3023 14.0599 15.399 13.6032 15.003C13.5583 14.9641 13.5049 14.9054 13.3982 14.788L13.3982 14.788Z" fill="#FFD400" fill-opacity="0.5" stroke="#1A1A8D" stroke-width="1.2" stroke-linecap="round"/>
</g>
<path d="M21.5 11V13C21.5 16.7712 21.5 18.6569 20.3284 19.8284C19.1569 21 17.2712 21 13.5 21H11.5C7.72876 21 5.84315 21 4.67157 19.8284C3.5 18.6569 3.5 16.7712 3.5 13V11C3.5 7.22876 3.5 5.34315 4.67157 4.17157C5.84315 3 7.72876 3 11.5 3H12.5" stroke="#1A1A8D" stroke-width="1.2"/>
<path d="M21.5 3V2.4H22.1V3H21.5ZM16.8748 7.46852C16.6161 7.67553 16.2385 7.63357 16.0315 7.37482C15.8245 7.11606 15.8664 6.73848 16.1252 6.53148L16.8748 7.46852ZM20.9 8V3H22.1V8H20.9ZM21.5 3.6H16.5V2.4H21.5V3.6ZM21.8748 3.46852L16.8748 7.46852L16.1252 6.53148L21.1252 2.53148L21.8748 3.46852Z" fill="#1A1A8D"/>
</svg>
