<svg width="25" height="24" viewBox="0 0 25 24" fill="none" xmlns="http://www.w3.org/2000/svg">
<path fill-rule="evenodd" clip-rule="evenodd" d="M2.5186 7.49526C2.5 8.22343 2.5 9.0521 2.5 9.99985V11.9999H10.5971C10.2643 11.8432 9.90022 11.7399 9.51534 11.7014L7.5 11.4999H7.49999C6.18663 11.3685 5.52995 11.3028 4.99718 11.0869C3.86574 10.6282 3.00574 9.67787 2.6619 8.50641C2.5787 8.22293 2.53826 7.91083 2.5186 7.49526ZM22.3742 5.77441L22 16.9999C21.0396 16.9999 20.1185 16.6183 19.4393 15.9392L18.3123 14.8122C17.9423 14.4421 17.7572 14.2571 17.5697 14.1384C16.9165 13.7249 16.0835 13.7249 15.4303 14.1384C15.2428 14.2571 15.0577 14.4421 14.6877 14.8122L13.9145 15.5853C13.3925 16.1073 12.5 15.7376 12.5 14.9994V21.9999H14.5C18.2712 21.9999 20.1569 21.9999 21.3284 20.8283C22.5 19.6567 22.5 17.7711 22.5 13.9999V9.99985C22.5 8.20729 22.5 6.84075 22.3742 5.77441Z" fill="#1A1A8D"/>
<path d="M3.5 10C3.5 8.08611 3.50212 6.75129 3.63753 5.74416C3.76907 4.76579 4.00966 4.2477 4.37868 3.87868C4.7477 3.50966 5.26579 3.26907 6.24416 3.13753C7.25129 3.00212 8.58611 3 10.5 3H14.5C16.4139 3 17.7487 3.00212 18.7558 3.13753C19.7342 3.26907 20.2523 3.50966 20.6213 3.87868L21.3112 3.18882L20.6213 3.87868C20.9903 4.2477 21.2309 4.76579 21.3625 5.74416C21.4979 6.75129 21.5 8.08611 21.5 10V14C21.5 15.9139 21.4979 17.2487 21.3625 18.2558C21.2309 19.2342 20.9903 19.7523 20.6213 20.1213C20.2523 20.4903 19.7342 20.7309 18.7558 20.8625C17.7487 20.9979 16.4139 21 14.5 21H13.5V14C13.5 13.9818 13.5 13.9637 13.5 13.9456C13.5001 13.5215 13.5002 13.1094 13.4545 12.7695C13.403 12.3863 13.2774 11.949 12.9142 11.5858C12.551 11.2226 12.1137 11.097 11.7305 11.0455C11.3906 10.9998 10.9785 10.9999 10.5544 11C10.5363 11 10.5182 11 10.5 11H3.5V10Z" stroke="#1A1A8D" stroke-width="2"/>
<circle cx="16.5" cy="8" r="2" fill="#1A1A8D"/>
<path d="M8.5 16V15H9.5V16H8.5ZM4.12469 20.7809C3.69343 21.1259 3.06414 21.056 2.71913 20.6247C2.37412 20.1934 2.44404 19.5641 2.87531 19.2191L4.12469 20.7809ZM7.5 21V16H9.5V21H7.5ZM8.5 17H3.5V15H8.5V17ZM9.1247 16.7809L4.12469 20.7809L2.87531 19.2191L7.8753 15.2191L9.1247 16.7809Z" fill="#1A1A8D"/>
</svg>
