<svg width="25" height="24" viewBox="0 0 25 24" fill="none" xmlns="http://www.w3.org/2000/svg">
<path fill-rule="evenodd" clip-rule="evenodd" d="M4 15.5002L5.90989 13.5903C7.25553 12.2447 7.92836 11.5719 8.6572 11.5104C9.02413 11.4794 9.39249 11.5503 9.72167 11.7153C10.3755 12.0431 10.7504 12.9177 11.5 14.6669L11.5534 14.7915C11.8795 15.5524 12.0425 15.9328 12.311 16.099C12.5197 16.2281 12.7685 16.276 13.0102 16.2336C13.3212 16.179 13.6138 15.8864 14.1992 15.301L14.3123 15.1879C15.0336 14.4666 15.3943 14.1059 15.8032 13.9539C16.2527 13.7869 16.7473 13.7869 17.1968 13.9539C17.6057 14.1059 17.9664 14.4666 18.6877 15.1879L19.4393 15.9396C19.9762 16.4764 20.6641 16.8272 21.4032 16.9507C21.2778 18.278 20.9898 19.167 20.3284 19.8283C19.1569 20.9999 17.2712 20.9999 13.5 20.9999H11.5C7.72876 20.9999 5.84315 20.9999 4.67157 19.8283C3.5 18.6568 3.5 16.7712 3.5 12.9999V10.9999C3.5 8.16057 3.5 6.3901 4 5.18848V15.5002Z" fill="#1A1A8D"/>
<path d="M12.5 3H11.5C7.72876 3 5.84315 3 4.67157 4.17157C3.5 5.34315 3.5 7.22876 3.5 11V13C3.5 16.7712 3.5 18.6569 4.67157 19.8284C5.84315 21 7.72876 21 11.5 21H13.5C17.2712 21 19.1569 21 20.3284 19.8284C21.5 18.6569 21.5 16.7712 21.5 13V12" stroke="#1A1A8D" stroke-width="2"/>
<path d="M21.5 3V2H22.5V3H21.5ZM17.1247 7.78087C16.6934 8.12588 16.0641 8.05596 15.7191 7.62469C15.3741 7.19343 15.444 6.56414 15.8753 6.21913L17.1247 7.78087ZM20.5 8V3H22.5V8H20.5ZM21.5 4H16.5V2H21.5V4ZM22.1247 3.78087L17.1247 7.78087L15.8753 6.21913L20.8753 2.21913L22.1247 3.78087Z" fill="#1A1A8D"/>
</svg>
