<svg width="25" height="24" viewBox="0 0 25 24" fill="none" xmlns="http://www.w3.org/2000/svg">
<rect x="5.5" y="15" width="14" height="4" rx="2" fill="#FFD400" fill-opacity="0.5"/>
<path d="M12.5 14L12.0757 14.4243L12.5 14.8485L12.9243 14.4243L12.5 14ZM13.1 5C13.1 4.66863 12.8314 4.4 12.5 4.4C12.1686 4.4 11.9 4.66863 11.9 5L13.1 5ZM7.07574 9.42426L12.0757 14.4243L12.9243 13.5757L7.92426 8.57574L7.07574 9.42426ZM12.9243 14.4243L17.9243 9.42426L17.0757 8.57574L12.0757 13.5757L12.9243 14.4243ZM13.1 14L13.1 5L11.9 5L11.9 14L13.1 14Z" fill="#1A1A8D"/>
<path d="M5.5 16L5.5 17C5.5 18.1046 6.39543 19 7.5 19L17.5 19C18.6046 19 19.5 18.1046 19.5 17V16" stroke="#1A1A8D" stroke-width="1.2"/>
</svg>
