<svg width="25" height="24" viewBox="0 0 25 24" fill="none" xmlns="http://www.w3.org/2000/svg">
<path d="M12.5 14L12.1464 14.3536L12.5 14.7071L12.8536 14.3536L12.5 14ZM13 5C13 4.72386 12.7761 4.5 12.5 4.5C12.2239 4.5 12 4.72386 12 5L13 5ZM7.14645 9.35355L12.1464 14.3536L12.8536 13.6464L7.85355 8.64645L7.14645 9.35355ZM12.8536 14.3536L17.8536 9.35355L17.1464 8.64645L12.1464 13.6464L12.8536 14.3536ZM13 14L13 5L12 5L12 14L13 14Z" fill="#1A1A8D"/>
<path d="M5.5 16L5.5 17C5.5 18.1046 6.39543 19 7.5 19L17.5 19C18.6046 19 19.5 18.1046 19.5 17V16" stroke="#1A1A8D"/>
</svg>
