<svg width="25" height="24" viewBox="0 0 25 24" fill="none" xmlns="http://www.w3.org/2000/svg">
<path d="M3.5 9V15C3.5 17.8284 3.5 19.2426 4.37868 20.1213C5.25736 21 6.67157 21 9.5 21H15.5C18.3284 21 19.7426 21 20.6213 20.1213C21.5 19.2426 21.5 17.8284 21.5 15V9C21.5 6.17157 21.5 4.75736 20.6213 3.87868C19.7426 3 18.3284 3 15.5 3H9.5" stroke="#1A1A8D" stroke-width="2" stroke-linecap="round"/>
<path d="M15.5 15V16H16.5V15H15.5ZM8.20711 6.29289C7.81658 5.90237 7.18342 5.90237 6.79289 6.29289C6.40237 6.68342 6.40237 7.31658 6.79289 7.70711L8.20711 6.29289ZM14.5 8V15H16.5V8H14.5ZM15.5 14H8.5V16H15.5V14ZM16.2071 14.2929L8.20711 6.29289L6.79289 7.70711L14.7929 15.7071L16.2071 14.2929Z" fill="#1A1A8D"/>
</svg>
