<svg width="25" height="24" viewBox="0 0 25 24" fill="none" xmlns="http://www.w3.org/2000/svg">
<path d="M3.5 9V15C3.5 17.8284 3.5 19.2426 4.37868 20.1213C5.25736 21 6.67157 21 9.5 21H15.5C18.3284 21 19.7426 21 20.6213 20.1213C21.5 19.2426 21.5 17.8284 21.5 15V9C21.5 6.17157 21.5 4.75736 20.6213 3.87868C19.7426 3 18.3284 3 15.5 3H9.5" stroke="#1A1A8D" stroke-linecap="round"/>
<path d="M15.5 15V15.5H16V15H15.5ZM7.85355 6.64645C7.65829 6.45118 7.34171 6.45118 7.14645 6.64645C6.95118 6.84171 6.95118 7.15829 7.14645 7.35355L7.85355 6.64645ZM15 8V15H16V8H15ZM15.5 14.5H8.5V15.5H15.5V14.5ZM15.8536 14.6464L7.85355 6.64645L7.14645 7.35355L15.1464 15.3536L15.8536 14.6464Z" fill="#1A1A8D"/>
</svg>
