<svg width="25" height="24" viewBox="0 0 25 24" fill="none" xmlns="http://www.w3.org/2000/svg">
<path d="M14.2365 21.8481C15.5297 21.62 16.7654 21.1395 17.873 20.4339C18.9806 19.7283 19.9383 18.8115 20.6915 17.7358C21.4448 16.66 21.9787 15.4465 22.263 14.1644C22.5472 12.8823 22.5761 11.5568 22.3481 10.2635C22.12 8.97025 21.6395 7.73456 20.9339 6.627C20.2283 5.51945 19.3115 4.56171 18.2358 3.80848C17.16 3.05525 15.9465 2.52127 14.6644 2.23704C13.3823 1.95281 12.0568 1.92388 10.7635 2.15192C9.47025 2.37996 8.23456 2.86049 7.127 3.56609C6.01945 4.27168 5.06171 5.18851 4.30848 6.26424C3.55525 7.33996 3.02127 8.55352 2.73704 9.83561C2.45281 11.1177 2.42388 12.4432 2.65192 13.7365C2.87996 15.0298 3.36049 16.2654 4.06609 17.373C4.77168 18.4806 5.68851 19.4383 6.76424 20.1915C7.83996 20.9448 9.05352 21.4787 10.3356 21.763C11.6177 22.0472 12.9432 22.0761 14.2365 21.8481L14.2365 21.8481Z" stroke="#1A1A8D" stroke-width="2"/>
<path d="M12.5 12L12.5 18" stroke="#1A1A8D" stroke-width="2" stroke-linecap="square"/>
<path d="M12.5 7L12.5 6" stroke="#1A1A8D" stroke-width="2" stroke-linecap="square"/>
</svg>
