<svg width="25" height="24" viewBox="0 0 25 24" fill="none" xmlns="http://www.w3.org/2000/svg">
<path fill-rule="evenodd" clip-rule="evenodd" d="M3.5 11C3.5 7.22876 3.5 5.34315 4.67157 4.17157C5.84315 3 7.72876 3 11.5 3H13.5C17.2712 3 19.1569 3 20.3284 4.17157C21.5 5.34315 21.5 7.22876 21.5 11V13C21.5 16.7712 21.5 18.6569 20.3284 19.8284C19.1569 21 17.2712 21 13.5 21H11.5C7.72876 21 5.84315 21 4.67157 19.8284C3.5 18.6569 3.5 16.7712 3.5 13V11ZM18.5 7.5C18.5 8.32843 17.8284 9 17 9C16.1716 9 15.5 8.32843 15.5 7.5C15.5 6.67157 16.1716 6 17 6C17.8284 6 18.5 6.67157 18.5 7.5ZM14.5 13C14.5 14.1046 13.6046 15 12.5 15C11.3954 15 10.5 14.1046 10.5 13C10.5 11.8954 11.3954 11 12.5 11C13.6046 11 14.5 11.8954 14.5 13ZM16.5 13C16.5 15.2091 14.7091 17 12.5 17C10.2909 17 8.5 15.2091 8.5 13C8.5 10.7909 10.2909 9 12.5 9C14.7091 9 16.5 10.7909 16.5 13Z" fill="#1A1A8D"/>
</svg>
