<svg width="25" height="24" viewBox="0 0 25 24" fill="none" xmlns="http://www.w3.org/2000/svg">
<path fill-rule="evenodd" clip-rule="evenodd" d="M4.67157 4.17157C3.5 5.34315 3.5 7.22876 3.5 11V13C3.5 16.7712 3.5 18.6569 4.67157 19.8284C5.84315 21 7.72876 21 11.5 21H13.5C17.2712 21 19.1569 21 20.3284 19.8284C21.5 18.6569 21.5 16.7712 21.5 13V11C21.5 7.22876 21.5 5.34315 20.3284 4.17157C19.1569 3 17.2712 3 13.5 3H11.5C7.72876 3 5.84315 3 4.67157 4.17157ZM12.5 16C14.7091 16 16.5 14.2091 16.5 12C16.5 9.79086 14.7091 8 12.5 8C10.2909 8 8.5 9.79086 8.5 12C8.5 14.2091 10.2909 16 12.5 16Z" fill="#FFD400" fill-opacity="0.5"/>
<path d="M3.5 11C3.5 7.22876 3.5 5.34315 4.67157 4.17157C5.84315 3 7.72876 3 11.5 3H13.5C17.2712 3 19.1569 3 20.3284 4.17157C21.5 5.34315 21.5 7.22876 21.5 11V13C21.5 16.7712 21.5 18.6569 20.3284 19.8284C19.1569 21 17.2712 21 13.5 21H11.5C7.72876 21 5.84315 21 4.67157 19.8284C3.5 18.6569 3.5 16.7712 3.5 13V11Z" stroke="#1A1A8D" stroke-width="1.2"/>
<circle cx="17" cy="7.5" r="1.5" fill="#1A1A8D"/>
<circle cx="12.5" cy="12" r="3.4" stroke="#1A1A8D" stroke-width="1.2"/>
</svg>
