<svg width="25" height="24" viewBox="0 0 25 24" fill="none" xmlns="http://www.w3.org/2000/svg">
<path d="M6.5 7C6.5 6.44772 6.94772 6 7.5 6H15.5C17.1569 6 18.5 7.34315 18.5 9V17C18.5 17.5523 18.0523 18 17.5 18H7.5C6.94772 18 6.5 17.5523 6.5 17V7Z" stroke="#1A1A8D" stroke-width="2"/>
<path d="M9.5 6V2" stroke="#1A1A8D" stroke-width="2"/>
<path d="M9.5 22V18" stroke="#1A1A8D" stroke-width="2"/>
<path d="M15.5 22V18" stroke="#1A1A8D" stroke-width="2"/>
<path d="M22.5 15L18.5 15" stroke="#1A1A8D" stroke-width="2"/>
<path d="M6.5 15L2.5 15" stroke="#1A1A8D" stroke-width="2"/>
<path d="M6.5 9L2.5 9" stroke="#1A1A8D" stroke-width="2"/>
<path d="M15.5 3C16.2879 3 17.0681 3.15519 17.7961 3.45672C18.5241 3.75825 19.1855 4.20021 19.7426 4.75736C20.2998 5.31451 20.7417 5.97595 21.0433 6.7039C21.3448 7.43185 21.5 8.21207 21.5 9" stroke="#1A1A8D" stroke-width="2"/>
</svg>
