<svg width="25" height="24" viewBox="0 0 25 24" fill="none" xmlns="http://www.w3.org/2000/svg">
<path d="M6.1 7C6.1 6.2268 6.7268 5.6 7.5 5.6H15.5C17.3778 5.6 18.9 7.12223 18.9 9V17C18.9 17.7732 18.2732 18.4 17.5 18.4H7.5C6.7268 18.4 6.1 17.7732 6.1 17V7Z" fill="#FFD400" fill-opacity="0.5" stroke="#1A1A8D" stroke-width="1.2"/>
<path d="M9.5 6V2" stroke="#1A1A8D" stroke-width="1.2"/>
<path d="M9.5 22V18" stroke="#1A1A8D" stroke-width="1.2"/>
<path d="M15.5 22V18" stroke="#1A1A8D" stroke-width="1.2"/>
<path d="M22.5 15L18.5 15" stroke="#1A1A8D" stroke-width="1.2"/>
<path d="M6.5 15L2.5 15" stroke="#1A1A8D" stroke-width="1.2"/>
<path d="M6.5 9L2.5 9" stroke="#1A1A8D" stroke-width="1.2"/>
<path d="M15.5 2.6C16.3405 2.6 17.1727 2.76554 17.9492 3.08717C18.7257 3.4088 19.4312 3.88022 20.0255 4.47452C20.6198 5.06881 21.0912 5.77434 21.4128 6.55083C21.7345 7.32731 21.9 8.15954 21.9 9" stroke="#1A1A8D" stroke-width="1.2"/>
</svg>
