<svg width="25" height="24" viewBox="0 0 25 24" fill="none" xmlns="http://www.w3.org/2000/svg">
<path d="M6 7C6 6.17157 6.67157 5.5 7.5 5.5H15.5C17.433 5.5 19 7.067 19 9V17C19 17.8284 18.3284 18.5 17.5 18.5H7.5C6.67157 18.5 6 17.8284 6 17V7Z" stroke="#1A1A8D"/>
<path d="M9.5 6V2" stroke="#1A1A8D"/>
<path d="M9.5 22V18" stroke="#1A1A8D"/>
<path d="M15.5 22V18" stroke="#1A1A8D"/>
<path d="M22.5 15L18.5 15" stroke="#1A1A8D"/>
<path d="M6.5 15L2.5 15" stroke="#1A1A8D"/>
<path d="M6.5 9L2.5 9" stroke="#1A1A8D"/>
<path d="M15.5 3V3C17.3638 3 18.2956 3 19.0307 3.30448C20.0108 3.71046 20.7895 4.48915 21.1955 5.46927C21.5 6.20435 21.5 7.13623 21.5 9V9" stroke="#1A1A8D"/>
</svg>
