<svg width="25" height="24" viewBox="0 0 25 24" fill="none" xmlns="http://www.w3.org/2000/svg">
<path d="M14.5 19H16.5C17.6046 19 18.5 18.1046 18.5 17V14.5616C18.5 13.6438 19.1246 12.8439 20.0149 12.6213L21.5299 12.2425C21.7823 12.1794 21.7823 11.8206 21.5299 11.7575L20.0149 11.3787C19.1246 11.1561 18.5 10.3562 18.5 9.43845V5H14.5" stroke="#1A1A8D" stroke-width="2"/>
<path d="M10.5 5H8.5C7.39543 5 6.5 5.89543 6.5 7V9.43845C6.5 10.3562 5.87541 11.1561 4.98507 11.3787L3.47014 11.7575C3.21765 11.8206 3.21765 12.1794 3.47014 12.2425L4.98507 12.6213C5.87541 12.8439 6.5 13.6438 6.5 14.5616V19H10.5" stroke="#1A1A8D" stroke-width="2"/>
</svg>
