<svg width="25" height="24" viewBox="0 0 25 24" fill="none" xmlns="http://www.w3.org/2000/svg">
<circle cx="8.5" cy="15" r="3" fill="#1A1A8D" stroke="#1A1A8D" stroke-width="2"/>
<path d="M18.7071 6.20711C19.0976 5.81658 19.0976 5.18342 18.7071 4.79289C18.3166 4.40237 17.6834 4.40237 17.2929 4.79289L18.7071 6.20711ZM18.7929 9.70711L19.5 10.4142L20.9142 9L20.2071 8.29289L18.7929 9.70711ZM16.7929 9.70711L17.5 10.4142L18.9142 9L18.2071 8.29289L16.7929 9.70711ZM9.79289 12.2929C9.40237 12.6834 9.40237 13.3166 9.79289 13.7071C10.1834 14.0976 10.8166 14.0976 11.2071 13.7071L9.79289 12.2929ZM16.2929 11.2071L17 11.9142L18.4142 10.5L17.7071 9.79289L16.2929 11.2071ZM17.7071 7.20711L18.7071 6.20711L17.2929 4.79289L16.2929 5.79289L17.7071 7.20711ZM16.2929 7.20711L18.7929 9.70711L20.2071 8.29289L17.7071 5.79289L16.2929 7.20711ZM16.7071 8.20711L17.7071 7.20711L16.2929 5.79289L15.2929 6.79289L16.7071 8.20711ZM15.2929 8.20711L16.7929 9.70711L18.2071 8.29289L16.7071 6.79289L15.2929 8.20711ZM11.2071 13.7071L15.7071 9.20711L14.2929 7.79289L9.79289 12.2929L11.2071 13.7071ZM15.7071 9.20711L16.7071 8.20711L15.2929 6.79289L14.2929 7.79289L15.7071 9.20711ZM14.2929 9.20711L16.2929 11.2071L17.7071 9.79289L15.7071 7.79289L14.2929 9.20711Z" fill="#1A1A8D"/>
</svg>
