<svg width="25" height="24" viewBox="0 0 25 24" fill="none" xmlns="http://www.w3.org/2000/svg">
<path d="M3.5 11C3.5 7.22876 3.5 5.34315 4.67157 4.17157C5.84315 3 7.72876 3 11.5 3H13.5C17.2712 3 19.1569 3 20.3284 4.17157C21.5 5.34315 21.5 7.22876 21.5 11V13C21.5 16.7712 21.5 18.6569 20.3284 19.8284C19.1569 21 17.2712 21 13.5 21H11.5C7.72876 21 5.84315 21 4.67157 19.8284C3.5 18.6569 3.5 16.7712 3.5 13V11Z" fill="#FFD400" fill-opacity="0.5"/>
<circle cx="9" cy="11.5" r="2" stroke="#1A1A8D"/>
<path d="M11 11.5H16M18 13.5V11.65C18 11.5672 17.9328 11.5 17.85 11.5H16M16 11.5V13.5" stroke="#1A1A8D" stroke-linecap="round"/>
</svg>
