<svg width="25" height="24" viewBox="0 0 25 24" fill="none" xmlns="http://www.w3.org/2000/svg">
<path d="M19.3964 10H8.5V14H14H15.2324C15.3996 14 15.5557 13.9164 15.6484 13.7774L16.084 13.124C16.2819 12.8272 16.7181 12.8272 16.916 13.124L17.292 13.688C17.3909 13.8364 17.6091 13.8364 17.708 13.688L18.084 13.124C18.2819 12.8272 18.7181 12.8272 18.916 13.124L19.3308 13.7463C19.4184 13.8775 19.6041 13.8959 19.7156 13.7844L21.3232 12.1768C21.4209 12.0791 21.4209 11.9209 21.3232 11.8232L19.5732 10.0732C19.5263 10.0263 19.4628 10 19.3964 10Z" fill="#FFD400" fill-opacity="0.5"/>
<rect x="10.5" y="11" width="6" height="1" rx="0.5" fill="#1A1A8D"/>
<path fill-rule="evenodd" clip-rule="evenodd" d="M4.08579 8.58579C3.5 9.17157 3.5 10.1144 3.5 12C3.5 13.8856 3.5 14.8284 4.08579 15.4142C4.67157 16 5.61438 16 7.5 16C9.38562 16 10.3284 16 10.9142 15.4142C11.5 14.8284 11.5 13.8856 11.5 12C11.5 10.1144 11.5 9.17157 10.9142 8.58579C10.3284 8 9.38562 8 7.5 8C5.61438 8 4.67157 8 4.08579 8.58579ZM6.5 10C5.94772 10 5.5 10.4477 5.5 11C5.5 11.5523 5.94772 12 6.5 12C7.05228 12 7.5 11.5523 7.5 11C7.5 10.4477 7.05228 10 6.5 10Z" fill="#1A1A8D"/>
</svg>
