<svg width="25" height="24" viewBox="0 0 25 24" fill="none" xmlns="http://www.w3.org/2000/svg">
<path d="M4 7.5C4 6.09987 4 5.3998 4.27248 4.86502C4.51217 4.39462 4.89462 4.01217 5.36502 3.77248C5.8998 3.5 6.59987 3.5 8 3.5H17C18.4001 3.5 19.1002 3.5 19.635 3.77248C20.1054 4.01217 20.4878 4.39462 20.7275 4.86502C21 5.3998 21 6.09987 21 7.5V16.5C21 17.9001 21 18.6002 20.7275 19.135C20.4878 19.6054 20.1054 19.9878 19.635 20.2275C19.1002 20.5 18.4001 20.5 17 20.5H8C6.59987 20.5 5.8998 20.5 5.36502 20.2275C4.89462 19.9878 4.51217 19.6054 4.27248 19.135C4 18.6002 4 17.9001 4 16.5V7.5Z" stroke="#1A1A8D"/>
<circle cx="9" cy="11.5" r="2" stroke="#1A1A8D"/>
<path d="M11 11.5H16M18 13.5V11.65C18 11.5672 17.9328 11.5 17.85 11.5H16M16 11.5V13.5" stroke="#1A1A8D" stroke-linecap="round"/>
</svg>
