<svg width="25" height="24" viewBox="0 0 25 24" fill="none" xmlns="http://www.w3.org/2000/svg">
<path fill-rule="evenodd" clip-rule="evenodd" d="M3.79289 6.29289C3.5 6.58579 3.5 7.05719 3.5 8V16C3.5 16.9428 3.5 17.4142 3.79289 17.7071C4.08579 18 4.55719 18 5.5 18H15.3593C16.4072 18 16.9312 18 17.3733 17.7633C17.8155 17.5267 18.1062 17.0907 18.6875 16.2188L20.0208 14.2188C20.7378 13.1433 21.0963 12.6056 21.0963 12C21.0963 11.3944 20.7378 10.8567 20.0208 9.7812L18.6875 7.7812C18.1062 6.90927 17.8155 6.4733 17.3733 6.23665C16.9312 6 16.4072 6 15.3593 6H5.5C4.55719 6 4.08579 6 3.79289 6.29289ZM15.5 14C16.6046 14 17.5 13.1046 17.5 12C17.5 10.8954 16.6046 10 15.5 10C14.3954 10 13.5 10.8954 13.5 12C13.5 13.1046 14.3954 14 15.5 14Z" fill="#1A1A8D"/>
</svg>
