<svg width="25" height="24" viewBox="0 0 25 24" fill="none" xmlns="http://www.w3.org/2000/svg">
<path d="M3.5 8C3.5 7.05719 3.5 6.58579 3.79289 6.29289C4.08579 6 4.55719 6 5.5 6H16.4296C16.9536 6 17.2156 6 17.4367 6.11833C17.6578 6.23665 17.8031 6.45463 18.0937 6.8906L20.7604 10.8906C21.1189 11.4283 21.2981 11.6972 21.2981 12C21.2981 12.3028 21.1189 12.5717 20.7604 13.1094L18.0937 17.1094C17.8031 17.5454 17.6578 17.7633 17.4367 17.8817C17.2156 18 16.9536 18 16.4296 18H5.5C4.55719 18 4.08579 18 3.79289 17.7071C3.5 17.4142 3.5 16.9428 3.5 16V8Z" stroke="#1A1A8D"/>
<circle cx="15.5" cy="12" r="1" fill="#1A1A8D" stroke="#1A1A8D"/>
</svg>
