<svg width="25" height="24" viewBox="0 0 25 24" fill="none" xmlns="http://www.w3.org/2000/svg">
<path fill-rule="evenodd" clip-rule="evenodd" d="M15.3562 15.6858L15.3562 15.6858C15.3219 15.769 15.2885 15.8525 15.2562 15.9363C13.4685 16.5341 11.5314 16.534 9.74375 15.9362C9.71144 15.8524 9.67811 15.7689 9.64377 15.6858C9.54854 15.4554 9.50093 15.3401 9.41839 15.2337C9.33585 15.1273 9.19186 15.0193 8.90387 14.8033C7.44433 13.7089 6.5 11.9647 6.5 10C6.5 6.68629 9.18629 4 12.5 4C15.8137 4 18.5 6.68629 18.5 10C18.5 11.9647 17.5557 13.7089 16.0961 14.8033L16.0961 14.8034C15.8081 15.0193 15.6641 15.1273 15.5816 15.2337C15.4991 15.3401 15.4515 15.4554 15.3562 15.6858ZM10.3502 18.1664C10.4369 18.6932 10.4863 19.227 10.4975 19.7639C10.5006 19.9086 10.5817 20.0409 10.7111 20.1056C11.8373 20.6686 13.1627 20.6686 14.2889 20.1056C14.4183 20.0409 14.4994 19.9086 14.5025 19.7639C14.5137 19.227 14.5631 18.6933 14.6498 18.1665C13.2318 18.4573 11.7682 18.4573 10.3502 18.1664Z" fill="#1A1A8D"/>
</svg>
