<svg width="25" height="24" viewBox="0 0 25 24" fill="none" xmlns="http://www.w3.org/2000/svg">
<path d="M11.5 13V9.75C11.5 9.05964 10.9404 8.5 10.25 8.5V8.5C9.55964 8.5 9 9.05964 9 9.75V9.75C9 10.4404 9.55964 11 10.25 11H14.75C15.4404 11 16 10.4404 16 9.75V9.75C16 9.05964 15.4404 8.5 14.75 8.5V8.5C14.0596 8.5 13.5 9.05964 13.5 9.75V13" stroke="#FFD400" stroke-opacity="0.5" stroke-linecap="round"/>
<circle cx="12.5" cy="9" r="6.5" stroke="#FFD400" stroke-opacity="0.5"/>
<mask id="path-3-inside-1_2_2151" fill="white">
<path fill-rule="evenodd" clip-rule="evenodd" d="M15.5 15.5C15.5 15.3968 15.5558 15.3004 15.6479 15.2539C17.9329 14.1015 19.5 11.7338 19.5 9C19.5 5.13401 16.366 2 12.5 2C8.63401 2 5.5 5.13401 5.5 9C5.5 11.7338 7.06713 14.1015 9.35205 15.2539C9.44419 15.3004 9.5 15.3968 9.5 15.5V18.5C9.5 19.8807 10.6193 21 12 21H13C14.3807 21 15.5 19.8807 15.5 18.5V15.5Z"/>
</mask>
<path d="M9.35205 15.2539L8.90174 16.1468L9.35205 15.2539ZM15.6479 15.2539L15.1976 14.3611L15.6479 15.2539ZM18.5 9C18.5 11.3418 17.1586 13.3721 15.1976 14.3611L16.0983 16.1468C18.7071 14.831 20.5 12.1258 20.5 9H18.5ZM12.5 3C15.8137 3 18.5 5.68629 18.5 9H20.5C20.5 4.58172 16.9183 1 12.5 1V3ZM6.5 9C6.5 5.68629 9.18629 3 12.5 3V1C8.08172 1 4.5 4.58172 4.5 9H6.5ZM9.80237 14.3611C7.84141 13.3721 6.5 11.3418 6.5 9H4.5C4.5 12.1258 6.29285 14.831 8.90174 16.1468L9.80237 14.3611ZM10.5 18.5V15.5H8.5V18.5H10.5ZM12 20C11.1716 20 10.5 19.3284 10.5 18.5H8.5C8.5 20.433 10.067 22 12 22V20ZM13 20H12V22H13V20ZM14.5 18.5C14.5 19.3284 13.8284 20 13 20V22C14.933 22 16.5 20.433 16.5 18.5H14.5ZM14.5 15.5V18.5H16.5V15.5H14.5ZM8.90174 16.1468C8.6359 16.0127 8.5 15.7503 8.5 15.5H10.5C10.5 15.0433 10.2525 14.5881 9.80237 14.3611L8.90174 16.1468ZM15.1976 14.3611C14.7475 14.5881 14.5 15.0433 14.5 15.5H16.5C16.5 15.7503 16.3641 16.0127 16.0983 16.1468L15.1976 14.3611Z" fill="#1A1A8D" mask="url(#path-3-inside-1_2_2151)"/>
</svg>
