<svg width="25" height="24" viewBox="0 0 25 24" fill="none" xmlns="http://www.w3.org/2000/svg">
<circle cx="12.5" cy="9" r="7" fill="#FFD400" fill-opacity="0.5"/>
<path d="M11.5 14V9.75C11.5 9.05964 10.9404 8.5 10.25 8.5V8.5C9.55964 8.5 9 9.05964 9 9.75V9.75C9 10.4404 9.55964 11 10.25 11H14.75C15.4404 11 16 10.4404 16 9.75V9.75C16 9.05964 15.4404 8.5 14.75 8.5V8.5C14.0596 8.5 13.5 9.05964 13.5 9.75V14" stroke="#1A1A8D" stroke-linecap="round"/>
<path fill-rule="evenodd" clip-rule="evenodd" d="M15.5 16.5637C15.5 16.4535 15.385 16.3807 15.284 16.4246C14.4307 16.7948 13.4893 17 12.5 17C11.5107 17 10.5693 16.7948 9.71605 16.4246C9.61496 16.3807 9.5 16.4535 9.5 16.5637V18.5C9.5 19.8808 10.6193 21 12 21H13C14.3807 21 15.5 19.8808 15.5 18.5V16.5637Z" fill="#1A1A8D"/>
</svg>
