<svg width="25" height="24" viewBox="0 0 25 24" fill="none" xmlns="http://www.w3.org/2000/svg">
<path d="M14.2889 20.1056L14.0652 19.6584L14.0652 19.6584L14.2889 20.1056ZM14.5025 19.7639L14.0026 19.7535L14.5025 19.7639ZM10.4975 19.7639L9.99764 19.7744L10.4975 19.7639ZM10.7111 20.1056L10.9348 19.6584L10.9348 19.6584L10.7111 20.1056ZM9.64377 15.6858L9.18167 15.8768L9.64377 15.6858ZM9.41839 15.2337L9.02328 15.5401L9.41839 15.2337ZM15.5816 15.2337L15.9767 15.5401L15.5816 15.2337ZM18 10C18 11.8007 17.1352 13.3992 15.7962 14.4033L16.3961 15.2034C17.9761 14.0185 19 12.1288 19 10H18ZM12.5 4.5C15.5376 4.5 18 6.96243 18 10H19C19 6.41015 16.0899 3.5 12.5 3.5V4.5ZM7 10C7 6.96243 9.46243 4.5 12.5 4.5V3.5C8.91015 3.5 6 6.41015 6 10H7ZM9.20383 14.4033C7.8648 13.3992 7 11.8007 7 10H6C6 12.1288 7.02387 14.0185 8.6039 15.2034L9.20383 14.4033ZM10.9974 19.7535C10.9668 18.2874 10.6631 16.8435 10.1059 15.4949L9.18167 15.8768C9.6917 17.1111 9.9696 18.4325 9.99764 19.7744L10.9974 19.7535ZM14.0652 19.6584C13.0799 20.151 11.9201 20.151 10.9348 19.6584L10.4875 20.5528C11.7544 21.1862 13.2456 21.1862 14.5125 20.5528L14.0652 19.6584ZM14.8941 15.4949C14.3369 16.8435 14.0332 18.2874 14.0026 19.7535L15.0024 19.7744C15.0304 18.4325 15.3083 17.1111 15.8183 15.8768L14.8941 15.4949ZM14.5125 20.5528C14.8131 20.4025 14.9956 20.0987 15.0024 19.7744L14.0026 19.7535C14.0033 19.7185 14.0234 19.6793 14.0652 19.6584L14.5125 20.5528ZM9.99764 19.7744C10.0044 20.0987 10.1869 20.4025 10.4875 20.5528L10.9348 19.6584C10.9766 19.6793 10.9967 19.7185 10.9974 19.7535L9.99764 19.7744ZM8.6039 15.2034C8.92245 15.4422 8.99305 15.5011 9.02328 15.5401L9.81351 14.9273C9.67866 14.7534 9.46127 14.5964 9.20383 14.4033L8.6039 15.2034ZM10.1059 15.4949C10.0191 15.2849 9.94612 15.0983 9.81351 14.9273L9.02328 15.5401C9.05574 15.582 9.07799 15.6259 9.18167 15.8768L10.1059 15.4949ZM15.7962 14.4033C15.5387 14.5964 15.3213 14.7534 15.1865 14.9273L15.9767 15.5401C16.0069 15.5011 16.0775 15.4422 16.3961 15.2034L15.7962 14.4033ZM15.8183 15.8768C15.922 15.6259 15.9443 15.582 15.9767 15.5401L15.1865 14.9273C15.0539 15.0983 14.9809 15.2849 14.8941 15.4949L15.8183 15.8768Z" fill="#1A1A8D"/>
<path d="M15 16.5V16.5C13.3951 17.1419 11.6049 17.1419 10 16.5V16.5" stroke="#1A1A8D"/>
</svg>
