<svg width="25" height="24" viewBox="0 0 25 24" fill="none" xmlns="http://www.w3.org/2000/svg">
<path d="M12.5 4L5.5 7L12.5 10L19.5 7L12.5 4Z" fill="#FFD400" fill-opacity="0.5" stroke="#1A1A8D" stroke-width="1.2" stroke-linejoin="round"/>
<path fill-rule="evenodd" clip-rule="evenodd" d="M11.3336 9.50001L12.5 9.99988L13.6664 9.5L19.5 12.0001L12.5 15.0001L5.5 12.0001L11.3336 9.50001Z" fill="#FFD400" fill-opacity="0.5"/>
<path d="M11.3336 9.50001L11.57 8.94852C11.419 8.88384 11.2482 8.88384 11.0973 8.94852L11.3336 9.50001ZM12.5 9.99988L12.2636 10.5514C12.4146 10.6161 12.5854 10.6161 12.7363 10.5514L12.5 9.99988ZM13.6664 9.5L13.9027 8.94851C13.7518 8.88383 13.5809 8.88383 13.43 8.94851L13.6664 9.5ZM19.5 12.0001L19.7364 12.5516C19.957 12.4571 20.1 12.2401 20.1 12.0001C20.1 11.7601 19.957 11.5432 19.7364 11.4486L19.5 12.0001ZM12.5 15.0001L12.2636 15.5516C12.4146 15.6163 12.5854 15.6163 12.7364 15.5516L12.5 15.0001ZM5.5 12.0001L5.26365 11.4486C5.04304 11.5432 4.9 11.7601 4.9 12.0001C4.9 12.2401 5.04304 12.4571 5.26365 12.5516L5.5 12.0001ZM11.0973 10.0515L12.2636 10.5514L12.7363 9.44839L11.57 8.94852L11.0973 10.0515ZM12.7363 10.5514L13.9027 10.0515L13.43 8.94851L12.2636 9.44839L12.7363 10.5514ZM19.7364 11.4486L13.9027 8.94851L13.43 10.0515L19.2636 12.5516L19.7364 11.4486ZM12.7364 15.5516L19.7364 12.5516L19.2636 11.4486L12.2636 14.4486L12.7364 15.5516ZM5.26365 12.5516L12.2636 15.5516L12.7364 14.4486L5.73635 11.4486L5.26365 12.5516ZM11.0973 8.94852L5.26365 11.4486L5.73635 12.5516L11.57 10.0515L11.0973 8.94852Z" fill="#1A1A8D"/>
<path fill-rule="evenodd" clip-rule="evenodd" d="M11.3333 14.5L12.5 15L13.6667 14.5L19.5 17L12.5 20L5.5 17L11.3333 14.5Z" fill="#FFD400" fill-opacity="0.5"/>
<path d="M11.3333 14.5L11.5697 13.9485C11.4188 13.8838 11.2479 13.8838 11.097 13.9485L11.3333 14.5ZM12.5 15L12.2636 15.5515C12.4146 15.6162 12.5854 15.6162 12.7364 15.5515L12.5 15ZM13.6667 14.5L13.903 13.9485C13.7521 13.8838 13.5812 13.8838 13.4303 13.9485L13.6667 14.5ZM19.5 17L19.7364 17.5515C19.957 17.4569 20.1 17.24 20.1 17C20.1 16.76 19.957 16.5431 19.7364 16.4485L19.5 17ZM12.5 20L12.2636 20.5515C12.4146 20.6162 12.5854 20.6162 12.7364 20.5515L12.5 20ZM5.5 17L5.26365 16.4485C5.04304 16.5431 4.9 16.76 4.9 17C4.9 17.24 5.04304 17.4569 5.26365 17.5515L5.5 17ZM11.097 15.0515L12.2636 15.5515L12.7364 14.4485L11.5697 13.9485L11.097 15.0515ZM12.7364 15.5515L13.903 15.0515L13.4303 13.9485L12.2636 14.4485L12.7364 15.5515ZM19.7364 16.4485L13.903 13.9485L13.4303 15.0515L19.2636 17.5515L19.7364 16.4485ZM12.7364 20.5515L19.7364 17.5515L19.2636 16.4485L12.2636 19.4485L12.7364 20.5515ZM5.26365 17.5515L12.2636 20.5515L12.7364 19.4485L5.73635 16.4485L5.26365 17.5515ZM11.097 13.9485L5.26365 16.4485L5.73635 17.5515L11.5697 15.0515L11.097 13.9485Z" fill="#1A1A8D"/>
</svg>
