<svg width="25" height="24" viewBox="0 0 25 24" fill="none" xmlns="http://www.w3.org/2000/svg">
<path d="M11.6056 3.44721L6.28885 6.10557C5.50831 6.49585 5.11803 6.69098 5.11803 7C5.11803 7.30902 5.50831 7.50415 6.28885 7.89443L11.6056 10.5528C12.0445 10.7722 12.2639 10.882 12.5 10.882C12.7361 10.882 12.9555 10.7722 13.3944 10.5528L18.7111 7.89443C19.4917 7.50415 19.882 7.30902 19.882 7C19.882 6.69098 19.4917 6.49585 18.7111 6.10557L13.3944 3.44721C12.9555 3.22776 12.7361 3.11803 12.5 3.11803C12.2639 3.11803 12.0445 3.22776 11.6056 3.44721Z" fill="#1A1A8D"/>
<path fill-rule="evenodd" clip-rule="evenodd" d="M7.52217 10.4893C8.12603 10.8135 8.83716 11.169 9.65554 11.5782L10.7113 12.1061C11.5891 12.545 12.028 12.7644 12.5001 12.7644C12.9723 12.7644 13.4112 12.545 14.289 12.1061L15.3447 11.5782C16.1631 11.169 16.8742 10.8135 17.4781 10.4893L18.7113 11.1059C19.4918 11.4961 19.8821 11.6913 19.8821 12.0003C19.8821 12.3093 19.4918 12.5044 18.7113 12.8947L13.3946 15.5531C12.9557 15.7725 12.7362 15.8822 12.5001 15.8822C12.2641 15.8822 12.0446 15.7725 11.6057 15.5531L11.6057 15.5531L6.28898 12.8947C5.50844 12.5044 5.11816 12.3093 5.11816 12.0003C5.11816 11.6913 5.50844 11.4961 6.28898 11.1059L7.52217 10.4893Z" fill="#1A1A8D"/>
<path fill-rule="evenodd" clip-rule="evenodd" d="M7.52169 15.4893C8.12567 15.8135 8.83696 16.1692 9.65557 16.5785L10.7113 17.1063C11.5891 17.5452 12.028 17.7647 12.5001 17.7647C12.9723 17.7647 13.4112 17.5452 14.289 17.1063L15.3447 16.5785C16.1633 16.1692 16.8746 15.8135 17.4786 15.4893L18.7113 16.1056C19.4918 16.4959 19.8821 16.691 19.8821 17C19.8821 17.3091 19.4918 17.5042 18.7113 17.8945L13.3946 20.5528C12.9557 20.7723 12.7362 20.882 12.5001 20.882C12.2641 20.882 12.0446 20.7723 11.6057 20.5528L11.6057 20.5528L6.28898 17.8945C5.50844 17.5042 5.11816 17.3091 5.11816 17C5.11816 16.691 5.50844 16.4959 6.28898 16.1056L7.52169 15.4893Z" fill="#1A1A8D"/>
</svg>
