<svg width="25" height="24" viewBox="0 0 25 24" fill="none" xmlns="http://www.w3.org/2000/svg">
<path d="M12.5 4L5.5 7L12.5 10L19.5 7L12.5 4Z" stroke="#1A1A8D" stroke-width="2" stroke-linejoin="round"/>
<path fill-rule="evenodd" clip-rule="evenodd" d="M7.52545 10.0439L5.10608 11.0808C4.7384 11.2384 4.5 11.5999 4.5 12C4.5 12.4 4.7384 12.7615 5.10608 12.9191L12.1061 15.9191C12.3576 16.0269 12.6424 16.0269 12.8939 15.9191L19.8939 12.9191C20.2616 12.7615 20.5 12.4 20.5 12C20.5 11.5999 20.2616 11.2384 19.8939 11.0808L17.4746 10.0439L14.936 11.1319L16.9614 12L12.5 13.912L8.03859 12L10.064 11.1319L7.52545 10.0439Z" fill="#1A1A8D"/>
<path fill-rule="evenodd" clip-rule="evenodd" d="M7.52545 15.0439L5.10608 16.0808C4.7384 16.2384 4.5 16.5999 4.5 17C4.5 17.4 4.7384 17.7615 5.10608 17.9191L12.1061 20.9191C12.3576 21.0269 12.6424 21.0269 12.8939 20.9191L19.8939 17.9191C20.2616 17.7615 20.5 17.4 20.5 17C20.5 16.5999 20.2616 16.2384 19.8939 16.0808L17.4746 15.0439L14.936 16.1319L16.9614 17L12.5 18.912L8.03859 17L10.064 16.1319L7.52545 15.0439Z" fill="#1A1A8D"/>
</svg>
