<svg width="25" height="24" viewBox="0 0 25 24" fill="none" xmlns="http://www.w3.org/2000/svg">
<path d="M10.0556 13.3232L9.93584 13.3123C8.40803 13.1735 7.64412 13.104 7.40146 12.5814C7.15881 12.0588 7.59869 11.4304 8.47846 10.1736L12.0612 5.05544C12.6424 4.22517 12.933 3.81003 13.1836 3.89831C13.4342 3.98658 13.4005 4.4922 13.3331 5.50343L13.1299 8.55194C13.0685 9.47214 13.0379 9.93224 13.3023 10.2419C13.5667 10.5515 14.0259 10.5933 14.9444 10.6768L15.0642 10.6877C16.592 10.8265 17.3559 10.896 17.5985 11.4186C17.8412 11.9412 17.4013 12.5696 16.5215 13.8264L12.9388 18.9446C12.3576 19.7748 12.067 20.19 11.8164 20.1017C11.5658 20.0134 11.5995 19.5078 11.6669 18.4966L11.8701 15.4481C11.9315 14.5279 11.9621 14.0678 11.6977 13.7581C11.4333 13.4485 10.9741 13.4067 10.0556 13.3232Z" stroke="#1A1A8D"/>
<path d="M19 4L17.5 6H19.5L18 8" stroke="#FFD400" stroke-opacity="0.5" stroke-linecap="round" stroke-linejoin="round"/>
<path d="M7 16L5.5 18H7.5L6 20" stroke="#FFD400" stroke-opacity="0.5" stroke-linecap="round" stroke-linejoin="round"/>
</svg>
