<svg width="25" height="24" viewBox="0 0 25 24" fill="none" xmlns="http://www.w3.org/2000/svg">
<path d="M10.6299 14.3H12V18.7299L12 18.762C12 19.18 12 19.5357 12.0274 19.7907C12.0412 19.9191 12.066 20.0698 12.1263 20.2046C12.1916 20.3507 12.33 20.5404 12.5887 20.5974C12.8474 20.6544 13.0527 20.5403 13.1733 20.4352C13.2846 20.3382 13.3704 20.2119 13.4369 20.1012C13.569 19.8813 13.7184 19.5585 13.894 19.1791L13.9075 19.15L16.6388 13.2503L16.6559 13.2134C16.9372 12.6058 17.172 12.0988 17.2935 11.6859C17.42 11.2564 17.4625 10.8046 17.199 10.3923C16.9356 9.97997 16.5077 9.82878 16.0649 9.7631C15.6391 9.69995 15.0803 9.69997 14.4108 9.7L14.3701 9.7H13V5.27013L13 5.23804C13 4.82003 13 4.4643 12.9726 4.20926C12.9588 4.08088 12.934 3.93022 12.8737 3.79539C12.8084 3.64932 12.67 3.4596 12.4113 3.40262C12.1526 3.34563 11.9473 3.45966 11.8267 3.56479C11.7154 3.66183 11.6296 3.78811 11.5631 3.89881C11.431 4.11873 11.2816 4.44155 11.106 4.82089L11.0925 4.85L8.3612 10.7497L8.3441 10.7866C8.0628 11.3942 7.82804 11.9012 7.70647 12.3141C7.58003 12.7436 7.53747 13.1954 7.80095 13.6077C8.06444 14.02 8.49231 14.1712 8.93515 14.2369C9.36092 14.3 9.91965 14.3 10.5892 14.3L10.6299 14.3Z" stroke="#1A1A8D"/>
</svg>
