<svg width="25" height="24" viewBox="0 0 25 24" fill="none" xmlns="http://www.w3.org/2000/svg">
<path d="M12 13.8H10.6299C9.22143 13.8 8.51721 13.8 8.22228 13.3385C7.92735 12.8769 8.22321 12.2379 8.81493 10.9597L11.5463 5.06006C11.9205 4.25182 12.1075 3.8477 12.3038 3.89091C12.5 3.93413 12.5 4.37946 12.5 5.27013V9.7C12.5 9.9357 12.5 10.0536 12.5732 10.1268C12.6464 10.2 12.7643 10.2 13 10.2H14.3701C15.7786 10.2 16.4828 10.2 16.7777 10.6615C17.0726 11.1231 16.7768 11.7621 16.1851 13.0402L13.4537 18.9399C13.0795 19.7482 12.8925 20.1523 12.6962 20.1091C12.5 20.0659 12.5 19.6205 12.5 18.7299V14.3C12.5 14.0643 12.5 13.9464 12.4268 13.8732C12.3536 13.8 12.2357 13.8 12 13.8Z" fill="#1A1A8D"/>
</svg>
