<svg width="25" height="24" viewBox="0 0 25 24" fill="none" xmlns="http://www.w3.org/2000/svg">
<path d="M10.9154 18.9231L11.3804 16.5981C11.4357 16.3214 11.4634 16.183 11.3884 16.0915C11.3134 16 11.1723 16 10.8901 16H9.3831C8.99157 16 8.7958 16 8.724 15.8732C8.65219 15.7463 8.75291 15.5785 8.95435 15.2428L11.0457 11.7572C11.2471 11.4215 11.3478 11.2537 11.276 11.1268C11.2042 11 11.0084 11 10.6169 11H8.2215C7.89372 11 7.72984 11 7.65527 10.8924C7.5807 10.7848 7.63825 10.6313 7.75334 10.3244L10.3783 3.32444C10.4372 3.1675 10.4666 3.08904 10.5309 3.04452C10.5951 3 10.6789 3 10.8465 3H15.6169C16.0084 3 16.2042 3 16.276 3.12683C16.3478 3.25365 16.2471 3.42152 16.0457 3.75725L13.9543 7.24275C13.7529 7.57848 13.6522 7.74635 13.724 7.87317C13.7958 8 13.9916 8 14.3831 8H15.5C15.9363 8 16.1545 8 16.2236 8.1382C16.2927 8.27639 16.1618 8.45093 15.9 8.8L14.1 11.2C13.8382 11.5491 13.7073 11.7236 13.7764 11.8618C13.8455 12 14.0637 12 14.5 12H16.4777C16.9225 12 17.1449 12 17.2134 12.1402C17.282 12.2803 17.1454 12.4559 16.8724 12.807L11.8003 19.3281C11.2859 19.9895 11.0287 20.3202 10.8488 20.2379C10.6689 20.1556 10.7511 19.7447 10.9154 18.9231Z" fill="#1A1A8D"/>
</svg>
