<svg width="25" height="24" viewBox="0 0 25 24" fill="none" xmlns="http://www.w3.org/2000/svg">
<path fill-rule="evenodd" clip-rule="evenodd" d="M12.5 21C17.4706 21 21.5 16.9706 21.5 12C21.5 7.02944 17.4706 3 12.5 3C7.52944 3 3.5 7.02944 3.5 12C3.5 16.9706 7.52944 21 12.5 21ZM10.9367 13.8H12C12.2357 13.8 12.3536 13.8 12.4268 13.8732C12.5 13.9464 12.5 14.0643 12.5 14.3V17.1079C12.5 17.8669 12.5 18.2465 12.6861 18.2956C12.8723 18.3448 13.0597 18.0148 13.4347 17.3549L13.4347 17.3549L15.8023 13.188C16.5576 11.8587 16.9352 11.194 16.646 10.697C16.3567 10.2 15.5923 10.2 14.0633 10.2H13C12.7643 10.2 12.6464 10.2 12.5732 10.1268C12.5 10.0536 12.5 9.9357 12.5 9.7V6.89213C12.5 6.13307 12.5 5.75355 12.3139 5.70436C12.1277 5.65517 11.9403 5.98515 11.5653 6.64511L11.5653 6.64512L9.19774 10.812C8.44244 12.1413 8.06479 12.806 8.35403 13.303C8.64327 13.8 9.40773 13.8 10.9367 13.8Z" fill="#FFD400" fill-opacity="0.5"/>
<path d="M12 13.8H10.9367C9.40773 13.8 8.64327 13.8 8.35403 13.303C8.06479 12.806 8.44244 12.1413 9.19774 10.812L11.5653 6.64512C11.9403 5.98516 12.1277 5.65517 12.3139 5.70436C12.5 5.75354 12.5 6.13307 12.5 6.89213V9.7C12.5 9.9357 12.5 10.0536 12.5732 10.1268C12.6464 10.2 12.7643 10.2 13 10.2H14.0633C15.5923 10.2 16.3567 10.2 16.646 10.697C16.9352 11.194 16.5576 11.8587 15.8023 13.188L13.4347 17.3549C13.0597 18.0148 12.8723 18.3448 12.6861 18.2956C12.5 18.2465 12.5 17.8669 12.5 17.1079V14.3C12.5 14.0643 12.5 13.9464 12.4268 13.8732C12.3536 13.8 12.2357 13.8 12 13.8Z" stroke="#1A1A8D" stroke-width="1.2"/>
<circle cx="12.5" cy="12" r="9" stroke="#1A1A8D" stroke-width="1.2"/>
</svg>
