<svg width="25" height="24" viewBox="0 0 25 24" fill="none" xmlns="http://www.w3.org/2000/svg">
<path d="M11.1456 18.6327L11.8278 16.1316C11.9069 15.8415 11.9464 15.6965 11.8714 15.5983C11.7963 15.5 11.646 15.5 11.3454 15.5H9.40212C9.00324 15.5 8.80379 15.5 8.7324 15.3712C8.66101 15.2424 8.76671 15.0733 8.97812 14.735L10.5219 12.265C10.7333 11.9267 10.839 11.7576 10.7676 11.6288C10.6962 11.5 10.4968 11.5 10.0979 11.5H7.69371C7.37716 11.5 7.21888 11.5 7.14405 11.3962C7.06921 11.2924 7.11927 11.1422 7.21937 10.8419L9.88604 2.84189C9.94104 2.67688 9.96854 2.59438 10.034 2.54719C10.0995 2.5 10.1864 2.5 10.3604 2.5H16.1169C16.5084 2.5 16.7042 2.5 16.776 2.62683C16.8478 2.75365 16.7471 2.92152 16.5457 3.25725L14.4543 6.74275C14.2529 7.07848 14.1522 7.24635 14.224 7.37317C14.2958 7.5 14.4916 7.5 14.8831 7.5H16C16.4363 7.5 16.6545 7.5 16.7236 7.6382C16.7927 7.77639 16.6618 7.95093 16.4 8.3L14.6 10.7C14.3382 11.0491 14.2073 11.2236 14.2764 11.3618C14.3455 11.5 14.5637 11.5 15 11.5H16.9682C17.4166 11.5 17.6408 11.5 17.7091 11.641C17.7774 11.782 17.6385 11.9579 17.3607 12.3098L12.0204 19.0741C11.4293 19.8229 11.1337 20.1973 10.9514 20.1053C10.7691 20.0134 10.8946 19.5531 11.1456 18.6327Z" stroke="#1A1A8D"/>
</svg>
