<svg width="25" height="24" viewBox="0 0 25 24" fill="none" xmlns="http://www.w3.org/2000/svg">
<path fill-rule="evenodd" clip-rule="evenodd" d="M12.5 22C18.0228 22 22.5 17.5228 22.5 12C22.5 6.47715 18.0228 2 12.5 2C6.97715 2 2.5 6.47715 2.5 12C2.5 17.5228 6.97715 22 12.5 22ZM10.6299 13.8H12C12.2357 13.8 12.3536 13.8 12.4268 13.8732C12.5 13.9464 12.5 14.0643 12.5 14.3V18.7299C12.5 19.6205 12.5 20.0659 12.6962 20.1091C12.8925 20.1523 13.0795 19.7482 13.4537 18.9399L16.1851 13.0402C16.7768 11.7621 17.0726 11.1231 16.7777 10.6615C16.4828 10.2 15.7786 10.2 14.3701 10.2H13C12.7643 10.2 12.6464 10.2 12.5732 10.1268C12.5 10.0536 12.5 9.9357 12.5 9.7V5.27013C12.5 4.37946 12.5 3.93413 12.3038 3.89091C12.1075 3.8477 11.9205 4.25182 11.5463 5.06006L8.81493 10.9597C8.22321 12.2379 7.92735 12.8769 8.22228 13.3385C8.51721 13.8 9.22143 13.8 10.6299 13.8Z" fill="#1A1A8D"/>
</svg>
