<svg width="25" height="24" viewBox="0 0 25 24" fill="none" xmlns="http://www.w3.org/2000/svg">
<path d="M9.5 15L9.5 18C9.5 18.9428 9.5 19.4142 9.20711 19.7071C8.91421 20 8.44281 20 7.5 20L6.5 20C5.55719 20 5.08579 20 4.79289 19.7071C4.5 19.4142 4.5 18.9428 4.5 18L4.5 17C4.5 16.0572 4.5 15.5858 4.79289 15.2929C5.08579 15 5.55719 15 6.5 15L9.5 15Z" fill="#FFD400" fill-opacity="0.5" stroke="#1A1A8D" stroke-width="1.2"/>
<path d="M15.5 9L15.5 6C15.5 5.05719 15.5 4.58579 15.7929 4.29289C16.0858 4 16.5572 4 17.5 4L18.5 4C19.4428 4 19.9142 4 20.2071 4.29289C20.5 4.58579 20.5 5.05719 20.5 6L20.5 7C20.5 7.94281 20.5 8.41421 20.2071 8.70711C19.9142 9 19.4428 9 18.5 9L15.5 9Z" fill="#FFD400" fill-opacity="0.5" stroke="#1A1A8D" stroke-width="1.2"/>
<path d="M15.5 9L9.5 15" stroke="#1A1A8D" stroke-width="1.2"/>
</svg>
