<svg width="25" height="24" viewBox="0 0 25 24" fill="none" xmlns="http://www.w3.org/2000/svg">
<path fill-rule="evenodd" clip-rule="evenodd" d="M5.37157 9.99464L3.83219 8.6263C3.6258 8.44284 3.30976 8.46143 3.1263 8.66782C2.94284 8.87421 2.96143 9.19025 3.16782 9.37371L4.61705 10.6619C4.87441 10.4333 5.12579 10.2106 5.37157 9.99464ZM8.42571 13.9682C8.75546 14.2298 9.06828 14.4637 9.36885 14.6691C10.4411 15.4019 11.4102 15.8102 12.5 15.8102C13.5898 15.8102 14.5589 15.4019 15.6312 14.6691C16.6856 13.9485 17.8907 12.8772 19.4485 11.4925L19.4485 11.4925L19.4758 11.4683L21.8322 9.37371C22.0386 9.19025 22.0572 8.87421 21.8737 8.66782C21.6903 8.46143 21.3742 8.44284 21.1678 8.6263L18.8115 10.7208C17.2207 12.1349 16.0625 13.1631 15.0669 13.8435C14.0831 14.5159 13.3112 14.8102 12.5 14.8102C11.6888 14.8102 10.9169 14.5159 9.9331 13.8435C9.69629 13.6817 9.45028 13.5001 9.19144 13.2984C8.953 13.5045 8.69872 13.7273 8.42571 13.9682Z" fill="#1A1A8D"/>
<path fill-rule="evenodd" clip-rule="evenodd" d="M16.5743 10.0314C16.2446 9.7699 15.9317 9.53599 15.6312 9.33057C14.5589 8.59774 13.5898 8.18945 12.5 8.18945C11.4102 8.18945 10.4411 8.59774 9.36885 9.33057C8.31445 10.0512 7.10925 11.1225 5.55149 12.5072L5.52418 12.5314L3.16782 14.626C2.96143 14.8094 2.94284 15.1255 3.1263 15.3319C3.30976 15.5383 3.6258 15.5568 3.83219 15.3734L6.18855 13.2788C7.77931 11.8648 8.93752 10.8366 9.9331 10.1562C10.9169 9.48378 11.6888 9.18945 12.5 9.18945C13.3112 9.18945 14.0831 9.48378 15.0669 10.1562C15.3037 10.318 15.5497 10.4995 15.8086 10.7012C16.047 10.4952 16.3013 10.2724 16.5743 10.0314ZM20.383 13.3378C20.1256 13.5664 19.8742 13.7891 19.6284 14.005L21.1678 15.3734C21.3742 15.5568 21.6903 15.5383 21.8737 15.3319C22.0572 15.1255 22.0386 14.8094 21.8322 14.626L20.383 13.3378Z" fill="#1A1A8D"/>
</svg>
