<svg width="25" height="24" viewBox="0 0 25 24" fill="none" xmlns="http://www.w3.org/2000/svg">
<path fill-rule="evenodd" clip-rule="evenodd" d="M5.75105 9.66298L4.16437 8.2526C3.75159 7.88568 3.11952 7.92286 2.7526 8.33565C2.38568 8.74843 2.42286 9.3805 2.83565 9.74742L4.24073 10.9964L4.30945 10.9353C4.81159 10.4889 5.29121 10.0625 5.75105 9.66298ZM8.04554 14.3046C8.40943 14.5953 8.75488 14.8551 9.08673 15.0819C10.2032 15.845 11.271 16.3102 12.5 16.3102C13.7291 16.3102 14.7968 15.845 15.9133 15.0819C16.9941 14.3432 18.2193 13.2542 19.7559 11.8883L19.7559 11.8883L19.808 11.842L22.1644 9.74742C22.5772 9.3805 22.6143 8.74843 22.2474 8.33565C21.8805 7.92286 21.2484 7.88568 20.8356 8.2526L18.4793 10.3471C16.8786 11.7699 15.7479 12.7725 14.7848 13.4307C13.8452 14.0729 13.172 14.3102 12.5 14.3102C11.8281 14.3102 11.1549 14.0729 10.2152 13.4307C10.0116 13.2916 9.80058 13.1371 9.57916 12.9664C9.1334 13.3441 8.62999 13.7864 8.04554 14.3046Z" fill="#1A1A8D"/>
<path fill-rule="evenodd" clip-rule="evenodd" d="M16.9545 9.69511C16.5906 9.40439 16.2451 9.14457 15.9133 8.91777C14.7968 8.15472 13.7291 7.68945 12.5 7.68945C11.271 7.68945 10.2032 8.15472 9.08673 8.91777C8.00587 9.65646 6.78075 10.7455 5.24408 12.1114L5.19201 12.1577L2.83565 14.2523C2.42286 14.6192 2.38568 15.2513 2.7526 15.664C3.11952 16.0768 3.75159 16.114 4.16437 15.7471L6.52074 13.6525C8.12139 12.2297 9.25214 11.2272 10.2152 10.569C11.1549 9.9268 11.8281 9.68945 12.5 9.68945C13.172 9.68945 13.8452 9.9268 14.7848 10.569C14.9884 10.7081 15.1994 10.8626 15.4209 11.0333C15.8666 10.6556 16.37 10.2132 16.9545 9.69511ZM20.7593 13.0033L20.6906 13.0644L20.6905 13.0644C20.1884 13.5108 19.7088 13.9372 19.249 14.3367L20.8356 15.7471C21.2484 16.114 21.8805 16.0768 22.2474 15.664C22.6143 15.2513 22.5772 14.6192 22.1644 14.2523L20.7593 13.0033Z" fill="#1A1A8D"/>
</svg>
