<svg width="25" height="24" viewBox="0 0 25 24" fill="none" xmlns="http://www.w3.org/2000/svg">
<path d="M5.73852 14.8117C6.13734 16.3002 7.01616 17.6154 8.23867 18.5535C9.46118 19.4915 10.9591 20 12.5 20C14.0409 20 15.5388 19.4915 16.7613 18.5535C17.9838 17.6154 18.8627 16.3002 19.2615 14.8117" stroke="#1A1A8D" stroke-width="2"/>
<path d="M12.5 13L11.8753 13.7809L12.5 14.2806L13.1247 13.7809L12.5 13ZM13.5 4C13.5 3.44772 13.0523 3 12.5 3C11.9477 3 11.5 3.44771 11.5 4L13.5 4ZM6.87531 9.78087L11.8753 13.7809L13.1247 12.2191L8.1247 8.21913L6.87531 9.78087ZM13.1247 13.7809L18.1247 9.78087L16.8753 8.21913L11.8753 12.2191L13.1247 13.7809ZM13.5 13L13.5 4L11.5 4L11.5 13L13.5 13Z" fill="#1A1A8D"/>
</svg>
