<svg width="25" height="24" viewBox="0 0 25 24" fill="none" xmlns="http://www.w3.org/2000/svg">
<circle cx="5" cy="5" r="5" transform="matrix(4.37114e-08 -1 -1 -4.37114e-08 17.5 20)" fill="#FFD400" fill-opacity="0.5"/>
<circle cx="5" cy="5" r="5.3" transform="matrix(4.37114e-08 -1 -1 -4.37114e-08 17.5 20)" stroke="#FFD400" stroke-opacity="0.5" stroke-width="0.6"/>
<path d="M5.73852 14.8117C6.13734 16.3002 7.01616 17.6154 8.23867 18.5535C9.46118 19.4915 10.9591 20 12.5 20C14.0409 20 15.5388 19.4915 16.7613 18.5535C17.9838 17.6154 18.8627 16.3002 19.2615 14.8117" stroke="#1A1A8D" stroke-width="1.2"/>
<path d="M12.5 13L12.1252 13.4685L12.5 13.7684L12.8748 13.4685L12.5 13ZM13.1 4C13.1 3.66863 12.8314 3.4 12.5 3.4C12.1686 3.4 11.9 3.66863 11.9 4L13.1 4ZM7.12518 9.46852L12.1252 13.4685L12.8748 12.5315L7.87482 8.53148L7.12518 9.46852ZM12.8748 13.4685L17.8748 9.46852L17.1252 8.53148L12.1252 12.5315L12.8748 13.4685ZM13.1 13L13.1 4L11.9 4L11.9 13L13.1 13Z" fill="#1A1A8D"/>
</svg>
