<svg width="25" height="24" viewBox="0 0 25 24" fill="none" xmlns="http://www.w3.org/2000/svg">
<path d="M3 4.5H22" stroke="#1A1A8D" stroke-linecap="round"/>
<path d="M6 4.5H19V15.8373C19 16.0818 19 16.2041 18.9724 16.3192C18.9479 16.4213 18.9075 16.5188 18.8526 16.6083C18.7908 16.7092 18.7043 16.7957 18.5314 16.9686L16.4686 19.0314C16.2957 19.2043 16.2092 19.2908 16.1083 19.3526C16.0188 19.4075 15.9213 19.4479 15.8192 19.4724C15.7041 19.5 15.5818 19.5 15.3373 19.5H8.4C7.55992 19.5 7.13988 19.5 6.81901 19.3365C6.53677 19.1927 6.3073 18.9632 6.16349 18.681C6 18.3601 6 17.9401 6 17.1V4.5Z" stroke="#1A1A8D" stroke-linecap="round"/>
<path d="M12.5 13.5V8" stroke="#1A1A8D" stroke-linecap="round"/>
<path d="M10 9.5L12.4063 7.57496C12.4611 7.53114 12.5389 7.53114 12.5937 7.57496L15 9.5" stroke="#1A1A8D" stroke-linecap="round"/>
<path d="M19 15.5H16.6C16.0399 15.5 15.7599 15.5 15.546 15.609C15.3578 15.7049 15.2049 15.8578 15.109 16.046C15 16.2599 15 16.5399 15 17.1V19.5" stroke="#1A1A8D"/>
</svg>
