<svg width="25" height="24" viewBox="0 0 25 24" fill="none" xmlns="http://www.w3.org/2000/svg">
<path d="M3.5 3H21.5" stroke="#1A1A8D" stroke-width="2" stroke-linecap="round"/>
<path d="M5.5 3H19.5V17.9006C19.5 17.9373 19.5 17.9556 19.4959 17.9729C19.4922 17.9882 19.4861 18.0028 19.4779 18.0162C19.4686 18.0314 19.4556 18.0444 19.4297 18.0703L16.5703 20.9297C16.5444 20.9556 16.5314 20.9686 16.5162 20.9779C16.5028 20.9861 16.4882 20.9922 16.4729 20.9959C16.4556 21 16.4373 21 16.4006 21H8.7C7.57989 21 7.01984 21 6.59202 20.782C6.21569 20.5903 5.90973 20.2843 5.71799 19.908C5.5 19.4802 5.5 18.9201 5.5 17.8V3Z" stroke="#1A1A8D" stroke-width="2" stroke-linecap="round"/>
<path d="M14.5 21V16.15C14.5 16.0672 14.5672 16 14.65 16H19.5" stroke="#1A1A8D" stroke-width="2" stroke-linecap="round"/>
<path d="M12.5 13V7" stroke="#1A1A8D" stroke-width="2" stroke-linecap="round"/>
<path d="M9.5 10L12.3939 7.10607C12.4525 7.04749 12.5475 7.04749 12.6061 7.10607L15.5 10" stroke="#1A1A8D" stroke-width="2" stroke-linecap="round"/>
</svg>
