<svg width="25" height="24" viewBox="0 0 25 24" fill="none" xmlns="http://www.w3.org/2000/svg">
<path d="M5.73852 14.8117C6.13734 16.3002 7.01616 17.6154 8.23867 18.5535C9.46118 19.4915 10.9591 20 12.5 20C14.0409 20 15.5388 19.4915 16.7613 18.5535C17.9838 17.6154 18.8627 16.3002 19.2615 14.8117" stroke="#1A1A8D"/>
<path d="M12.5 13L12.1877 13.3904L12.5 13.6403L12.8123 13.3904L12.5 13ZM13 4C13 3.72386 12.7761 3.5 12.5 3.5C12.2239 3.5 12 3.72386 12 4L13 4ZM7.18765 9.39043L12.1877 13.3904L12.8123 12.6096L7.81235 8.60957L7.18765 9.39043ZM12.8123 13.3904L17.8123 9.39043L17.1877 8.60957L12.1877 12.6096L12.8123 13.3904ZM13 13L13 4L12 4L12 13L13 13Z" fill="#1A1A8D"/>
</svg>
