<svg width="25" height="24" viewBox="0 0 25 24" fill="none" xmlns="http://www.w3.org/2000/svg">
<path fill-rule="evenodd" clip-rule="evenodd" d="M7.58642 13.069L5.884 11.707C5.63517 12.4253 5.5 13.1966 5.5 13.9994C5.5 17.8654 8.63401 20.9994 12.5 20.9994C16.366 20.9994 19.5 17.8654 19.5 13.9995C19.5 13.1966 19.3648 12.4253 19.116 11.707L17.4136 13.069C17.4703 13.3705 17.5 13.6815 17.5 13.9995C17.5 16.7609 15.2614 18.9994 12.5 18.9994C9.73858 18.9994 7.5 16.7609 7.5 13.9994C7.5 13.6815 7.52968 13.3705 7.58642 13.069Z" fill="#1A1A8D"/>
<path d="M12.5 13L11.8753 13.7809L12.5 14.2806L13.1247 13.7809L12.5 13ZM13.5 4C13.5 3.44772 13.0523 3 12.5 3C11.9477 3 11.5 3.44771 11.5 4L13.5 4ZM6.87531 9.78087L11.8753 13.7809L13.1247 12.2191L8.1247 8.21913L6.87531 9.78087ZM13.1247 13.7809L18.1247 9.78087L16.8753 8.21913L11.8753 12.2191L13.1247 13.7809ZM13.5 13L13.5 4L11.5 4L11.5 13L13.5 13Z" fill="#1A1A8D"/>
</svg>
