<svg width="25" height="24" viewBox="0 0 25 24" fill="none" xmlns="http://www.w3.org/2000/svg">
<path d="M3 4.5H22" stroke="#1A1A8D" stroke-linecap="round"/>
<path d="M5 4.5H20V17.1C20 17.9401 20 18.3601 19.8365 18.681C19.6927 18.9632 19.4632 19.1927 19.181 19.3365C18.8601 19.5 18.4401 19.5 17.6 19.5H7.4C6.55992 19.5 6.13988 19.5 5.81901 19.3365C5.53677 19.1927 5.3073 18.9632 5.16349 18.681C5 18.3601 5 17.9401 5 17.1V4.5Z" stroke="#1A1A8D" stroke-linecap="round"/>
<path d="M12.5 15.5V10" stroke="#1A1A8D" stroke-linecap="round"/>
<path d="M10 11.5L12.4063 9.57496C12.4611 9.53114 12.5389 9.53114 12.5937 9.57496L15 11.5" stroke="#1A1A8D" stroke-linecap="round"/>
</svg>
