<svg width="25" height="24" viewBox="0 0 25 24" fill="none" xmlns="http://www.w3.org/2000/svg">
<path d="M3.5 4H21.5" stroke="#1A1A8D" stroke-width="2" stroke-linecap="round"/>
<path d="M5.5 4H19.5V15.8C19.5 16.9201 19.5 17.4802 19.282 17.908C19.0903 18.2843 18.7843 18.5903 18.408 18.782C17.9802 19 17.4201 19 16.3 19H8.7C7.57989 19 7.01984 19 6.59202 18.782C6.21569 18.5903 5.90973 18.2843 5.71799 17.908C5.5 17.4802 5.5 16.9201 5.5 15.8V4Z" stroke="#1A1A8D" stroke-width="2" stroke-linecap="round"/>
<path d="M12.5 15V9" stroke="#1A1A8D" stroke-width="2" stroke-linecap="round"/>
<path d="M9.5 12L12.3939 9.10607C12.4525 9.04749 12.5475 9.04749 12.6061 9.10607L15.5 12" stroke="#1A1A8D" stroke-width="2" stroke-linecap="round"/>
</svg>
