<svg width="25" height="24" viewBox="0 0 25 24" fill="none" xmlns="http://www.w3.org/2000/svg">
<path d="M4.5 12C4.5 11.0572 4.5 10.5858 4.79289 10.2929C5.08579 10 5.55719 10 6.5 10H18.5C19.4428 10 19.9142 10 20.2071 10.2929C20.5 10.5858 20.5 11.0572 20.5 12V18.0375C20.5 18.4185 20.5 18.6091 20.4711 18.7772C20.3575 19.4381 19.9203 19.9981 19.3067 20.2685C19.1506 20.3374 18.9658 20.3836 18.5961 20.476C17.3589 20.7853 16.7403 20.9399 16.1215 21.0539C13.7273 21.4947 11.2727 21.4947 8.87847 21.0539C8.25968 20.9399 7.64108 20.7853 6.40388 20.476C6.03423 20.3836 5.84941 20.3374 5.69329 20.2685C5.0797 19.9981 4.64248 19.4381 4.5289 18.7772C4.5 18.6091 4.5 18.4185 4.5 18.0375V12Z" fill="#FFD400" fill-opacity="0.5"/>
<path d="M17 10V9C17 6.51472 14.9853 4.5 12.5 4.5V4.5C10.0147 4.5 8 6.51472 8 9V10" stroke="#1A1A8D"/>
<circle cx="12.5" cy="15" r="2" fill="#1A1A8D"/>
<path d="M12.5 16V18.5" stroke="#1A1A8D" stroke-linecap="round"/>
</svg>
