<svg width="25" height="24" viewBox="0 0 25 24" fill="none" xmlns="http://www.w3.org/2000/svg">
<path d="M20 15.2219V6.22812C20 5.89359 19.648 5.67602 19.3488 5.82562L16.1566 7.42172C16.0559 7.47207 15.9399 7.48284 15.8317 7.45191L9.16831 5.54809C9.06005 5.51716 8.94414 5.52793 8.84344 5.57828L5.24875 7.37562C5.0963 7.45185 5 7.60767 5 7.77812V16.7719C5 17.1064 5.35204 17.324 5.65125 17.1744L8.84344 15.5783C8.94414 15.5279 9.06005 15.5172 9.16831 15.5481L15.8317 17.4519C15.9399 17.4828 16.0559 17.4721 16.1566 17.4217L19.7512 15.6244C19.9037 15.5482 20 15.3923 20 15.2219Z" stroke="#1A1A8D"/>
<path d="M16 17.5V7.5" stroke="#1A1A8D"/>
<path d="M9 15.5V5.5" stroke="#1A1A8D"/>
</svg>
