<svg width="25" height="24" viewBox="0 0 25 24" fill="none" xmlns="http://www.w3.org/2000/svg">
<path d="M4.5 10.4721C4.5 9.26932 4.5 8.66791 4.7987 8.18461C5.0974 7.7013 5.63531 7.43234 6.71115 6.89443L10.7111 4.89443C11.589 4.45552 12.0279 4.23607 12.5 4.23607C12.9721 4.23607 13.411 4.45552 14.2889 4.89443L18.2889 6.89443C19.3647 7.43234 19.9026 7.7013 20.2013 8.18461C20.5 8.66791 20.5 9.26932 20.5 10.4721V16C20.5 17.8856 20.5 18.8284 19.9142 19.4142C19.3284 20 18.3856 20 16.5 20H8.5C6.61438 20 5.67157 20 5.08579 19.4142C4.5 18.8284 4.5 17.8856 4.5 16V10.4721Z" stroke="#1A1A8D" stroke-width="1.2"/>
<path d="M6.91421 13.4142L4.5 11V18C4.5 19.1046 5.39543 20 6.5 20H18.5C19.6046 20 20.5 19.1046 20.5 18V11L18.0858 13.4142C17.7107 13.7893 17.202 14 16.6716 14H8.32843C7.79799 14 7.28929 13.7893 6.91421 13.4142Z" fill="#FFD400" fill-opacity="0.5" stroke="#1A1A8D" stroke-width="1.2" stroke-linecap="round"/>
</svg>
