<svg width="25" height="24" viewBox="0 0 25 24" fill="none" xmlns="http://www.w3.org/2000/svg">
<path d="M4.5 16V10.2427C4.5 10.1312 4.61735 10.0587 4.71708 10.1085L11.1584 13.3292C12.0029 13.7515 12.9971 13.7515 13.8416 13.3292L20.2829 10.1085C20.3827 10.0587 20.5 10.1312 20.5 10.2427V16C20.5 17.1046 19.6046 18 18.5 18H6.5C5.39543 18 4.5 17.1046 4.5 16Z" fill="#1A1A8D"/>
<path d="M4.5 8V8.90729C4.5 8.96411 4.5321 9.01605 4.58292 9.04146L11.1584 12.3292C12.0029 12.7515 12.9971 12.7515 13.8416 12.3292L20.4171 9.04146C20.4679 9.01605 20.5 8.96411 20.5 8.9073V8C20.5 6.89543 19.6046 6 18.5 6H6.5C5.39543 6 4.5 6.89543 4.5 8Z" fill="#FFD400" fill-opacity="0.5"/>
</svg>
