<svg width="25" height="24" viewBox="0 0 25 24" fill="none" xmlns="http://www.w3.org/2000/svg">
<path fill-rule="evenodd" clip-rule="evenodd" d="M3.50034 10.4146C3.5 10.5689 3.5 10.7302 3.5 10.8991V14.9998C3.5 17.8283 3.5 19.2425 4.37868 20.1212C5.25736 20.9998 6.67157 20.9998 9.5 20.9998H15.5C18.3284 20.9998 19.7426 20.9998 20.6213 20.1212C21.5 19.2425 21.5 17.8283 21.5 14.9998V10.8991C21.5 10.7302 21.5 10.5689 21.4997 10.4146L19.7929 12.1213C19.2303 12.6839 18.4672 13 17.6716 13H7.32843C6.53278 13 5.76972 12.6839 5.20711 12.1213L3.50034 10.4146ZM3.73713 7.82292L6.62132 10.7071C6.80886 10.8946 7.06321 11 7.32843 11H17.6716C17.9368 11 18.1911 10.8946 18.3787 10.7071L21.2629 7.82292C21.1991 7.63977 21.1182 7.47274 21.0155 7.31472C20.531 6.56916 19.6662 6.18484 17.9368 5.41621L17.9368 5.41621L14.1246 3.72187C13.3245 3.36627 12.9244 3.18848 12.5 3.18848C12.0756 3.18848 11.6755 3.36627 10.8754 3.72187L7.06317 5.41621C5.33375 6.18484 4.46905 6.56915 3.98452 7.31472C3.88183 7.47274 3.80091 7.63977 3.73713 7.82292Z" fill="#1A1A8D"/>
</svg>
