<svg width="25" height="24" viewBox="0 0 25 24" fill="none" xmlns="http://www.w3.org/2000/svg">
<path d="M4.5 11.4721C4.5 10.2693 4.5 9.66791 4.7987 9.18461C5.0974 8.7013 5.63531 8.43234 6.71115 7.89443L10.7111 5.89443C11.589 5.45552 12.0279 5.23607 12.5 5.23607C12.9721 5.23607 13.411 5.45552 14.2889 5.89443L18.2889 7.89443C19.3647 8.43234 19.9026 8.7013 20.2013 9.18461C20.5 9.66791 20.5 10.2693 20.5 11.4721V15C20.5 16.8856 20.5 17.8284 19.9142 18.4142C19.3284 19 18.3856 19 16.5 19H8.5C6.61438 19 5.67157 19 5.08579 18.4142C4.5 17.8284 4.5 16.8856 4.5 15V11.4721Z" fill="#FFD400" fill-opacity="0.5"/>
<path d="M4.5 17V10.2427C4.5 10.1312 4.61735 10.0587 4.71708 10.1085L11.1584 13.3292C12.0029 13.7515 12.9971 13.7515 13.8416 13.3292L20.2829 10.1085C20.3827 10.0587 20.5 10.1312 20.5 10.2427V17C20.5 18.1046 19.6046 19 18.5 19H6.5C5.39543 19 4.5 18.1046 4.5 17Z" fill="#1A1A8D"/>
</svg>
