<svg width="25" height="24" viewBox="0 0 25 24" fill="none" xmlns="http://www.w3.org/2000/svg">
<path fill-rule="evenodd" clip-rule="evenodd" d="M3.5132 9.15129C3.5 9.69022 3.5 10.3021 3.5 11V13C3.5 15.8284 3.5 17.2426 4.37868 18.1213C5.25736 19 6.67157 19 9.5 19H15.5C18.3284 19 19.7426 19 20.6213 18.1213C21.5 17.2426 21.5 15.8284 21.5 13V11C21.5 10.3021 21.5 9.69022 21.4868 9.15129L13.4713 13.6044C12.8672 13.9399 12.1328 13.9399 11.5287 13.6044L3.5132 9.15129ZM3.74297 7.02971C3.82584 7.05052 3.9074 7.08237 3.98564 7.12584L12.5 11.856L21.0144 7.12584C21.0926 7.08237 21.1742 7.05052 21.257 7.02971C21.1271 6.55619 20.9276 6.18491 20.6213 5.87868C19.7426 5 18.3284 5 15.5 5H9.5C6.67157 5 5.25736 5 4.37868 5.87868C4.07245 6.18491 3.87294 6.55619 3.74297 7.02971Z" fill="#1A1A8D"/>
</svg>
