<svg width="25" height="24" viewBox="0 0 25 24" fill="none" xmlns="http://www.w3.org/2000/svg">
<path d="M12.5 22V19" stroke="#1A1A8D" stroke-width="2" stroke-linecap="round" stroke-linejoin="round"/>
<path fill-rule="evenodd" clip-rule="evenodd" d="M6.58296 8H9.5C10.0523 8 10.5 8.44772 10.5 9C10.5 9.55228 10.0523 10 9.5 10H6.5V12H9.5C10.0523 12 10.5 12.4477 10.5 13C10.5 13.5523 10.0523 14 9.5 14H6.58296C7.05904 16.8377 9.527 19 12.5 19C15.473 19 17.941 16.8377 18.417 14H16.5C15.9477 14 15.5 13.5523 15.5 13C15.5 12.4477 15.9477 12 16.5 12H18.5V10H16.5C15.9477 10 15.5 9.55228 15.5 9C15.5 8.44772 15.9477 8 16.5 8H18.417C17.941 5.16229 15.473 3 12.5 3C9.527 3 7.05904 5.16229 6.58296 8Z" fill="#1A1A8D"/>
</svg>
