<svg width="25" height="24" viewBox="0 0 25 24" fill="none" xmlns="http://www.w3.org/2000/svg">
<path d="M7.37868 2.87868C6.86902 3.38834 6.67027 4.01669 6.58214 4.67221C6.4999 5.28387 6.49995 6.04768 6.5 6.93417C6.5 6.95604 6.5 6.97798 6.5 7V17L6.5 17.0658C6.49995 17.9523 6.4999 18.7161 6.58214 19.3278C6.67027 19.9833 6.86902 20.6117 7.37868 21.1213C7.88834 21.631 8.51669 21.8297 9.17221 21.9179C9.78387 22.0001 10.5477 22.0001 11.4342 22L11.5 22H13.5L13.5658 22C14.4523 22.0001 15.2161 22.0001 15.8278 21.9179C16.4833 21.8297 17.1117 21.631 17.6213 21.1213C18.131 20.6117 18.3297 19.9833 18.4179 19.3278C18.5001 18.7161 18.5001 17.9523 18.5 17.0658L18.5 17V7L18.5 6.93417C18.5001 6.04768 18.5001 5.28387 18.4179 4.67221C18.3297 4.01669 18.131 3.38834 17.6213 2.87868C17.1117 2.36902 16.4833 2.17027 15.8278 2.08214C15.2161 1.9999 14.4523 1.99995 13.5658 2C13.544 2 13.522 2 13.5 2H11.5C11.478 2 11.456 2 11.4342 2C10.5477 1.99995 9.78387 1.9999 9.17221 2.08214C8.51669 2.17027 7.88834 2.36902 7.37868 2.87868Z" stroke="#1A1A8D" stroke-width="2"/>
<path d="M7.5 16H17.5" stroke="#1A1A8D" stroke-width="2"/>
</svg>
