<svg width="25" height="24" viewBox="0 0 25 24" fill="none" xmlns="http://www.w3.org/2000/svg">
<path fill-rule="evenodd" clip-rule="evenodd" d="M4.08579 6.58579C3.5 7.17157 3.5 8.11438 3.5 10V14C3.5 15.8856 3.5 16.8284 4.08579 17.4142C4.67157 18 5.61438 18 7.5 18H17.5C19.3856 18 20.3284 18 20.9142 17.4142C21.5 16.8284 21.5 15.8856 21.5 14V10C21.5 8.11438 21.5 7.17157 20.9142 6.58579C20.3284 6 19.3856 6 17.5 6H7.5C5.61438 6 4.67157 6 4.08579 6.58579ZM12.5 15C14.1569 15 15.5 13.6569 15.5 12C15.5 10.3431 14.1569 9 12.5 9C10.8431 9 9.5 10.3431 9.5 12C9.5 13.6569 10.8431 15 12.5 15Z" fill="#FFD400" fill-opacity="0.5"/>
<rect x="3.5" y="6" width="18" height="12" rx="2" stroke="#1A1A8D" stroke-width="1.2"/>
<path d="M6.5 9H8.5" stroke="#1A1A8D" stroke-width="1.2" stroke-linecap="round"/>
<path d="M16.5 15H18.5" stroke="#1A1A8D" stroke-width="1.2" stroke-linecap="round"/>
<circle cx="12.5" cy="12" r="2.4" stroke="#1A1A8D" stroke-width="1.2"/>
</svg>
