<svg width="25" height="24" viewBox="0 0 25 24" fill="none" xmlns="http://www.w3.org/2000/svg">
<path fill-rule="evenodd" clip-rule="evenodd" d="M3.08579 5.58579C2.5 6.17157 2.5 7.11438 2.5 9V15C2.5 16.8856 2.5 17.8284 3.08579 18.4142C3.67157 19 4.61438 19 6.5 19H18.5C20.3856 19 21.3284 19 21.9142 18.4142C22.5 17.8284 22.5 16.8856 22.5 15V9C22.5 7.11438 22.5 6.17157 21.9142 5.58579C21.3284 5 20.3856 5 18.5 5H6.5C4.61438 5 3.67157 5 3.08579 5.58579ZM5.5 7C4.94772 7 4.5 7.44772 4.5 8C4.5 8.55228 4.94772 9 5.5 9H7.5C8.05228 9 8.5 8.55228 8.5 8C8.5 7.44772 8.05228 7 7.5 7H5.5ZM16.5 16C16.5 15.4477 16.9477 15 17.5 15H19.5C20.0523 15 20.5 15.4477 20.5 16C20.5 16.5523 20.0523 17 19.5 17H17.5C16.9477 17 16.5 16.5523 16.5 16ZM13.5 12C13.5 12.5523 13.0523 13 12.5 13C11.9477 13 11.5 12.5523 11.5 12C11.5 11.4477 11.9477 11 12.5 11C13.0523 11 13.5 11.4477 13.5 12ZM15.5 12C15.5 13.6569 14.1569 15 12.5 15C10.8431 15 9.5 13.6569 9.5 12C9.5 10.3431 10.8431 9 12.5 9C14.1569 9 15.5 10.3431 15.5 12Z" fill="#1A1A8D"/>
</svg>
