<svg width="25" height="24" viewBox="0 0 25 24" fill="none" xmlns="http://www.w3.org/2000/svg">
<path fill-rule="evenodd" clip-rule="evenodd" d="M15.5 4C15.792 4 15.938 4 16.0781 4.04183C16.692 4.22522 16.9775 4.93111 16.6637 5.48976C16.5921 5.61719 16.3744 5.82779 15.9389 6.249C14.435 7.70352 13.5 9.74257 13.5 12C13.5 14.2574 14.435 16.2965 15.9389 17.751C16.3744 18.1722 16.5921 18.3828 16.6637 18.5102C16.9775 19.0689 16.692 19.7748 16.0781 19.9582C15.938 20 15.792 20 15.5 20C11.0817 20 7.5 16.4183 7.5 12C7.5 7.58172 11.0817 4 15.5 4Z" fill="#FFD400" fill-opacity="0.5"/>
<path d="M16.6637 18.5102L17.1868 18.2164L16.6637 18.5102ZM16.0781 19.9582L15.9063 19.3833L16.0781 19.9582ZM15.9389 6.249L16.356 6.68028L15.9389 6.249ZM16.6637 5.48976L17.1868 5.78362L16.6637 5.48976ZM16.0781 4.04183L15.9063 4.61673L16.0781 4.04183ZM14.1 12C14.1 9.91178 14.9642 8.02644 16.356 6.68028L15.5217 5.81772C13.9058 7.38061 12.9 9.57336 12.9 12H14.1ZM16.356 17.3197C14.9642 15.9736 14.1 14.0882 14.1 12H12.9C12.9 14.4266 13.9058 16.6194 15.5217 18.1823L16.356 17.3197ZM15.5 19.4C11.4131 19.4 8.1 16.0869 8.1 12H6.9C6.9 16.7496 10.7504 20.6 15.5 20.6V19.4ZM8.1 12C8.1 7.91309 11.4131 4.6 15.5 4.6V3.4C10.7504 3.4 6.9 7.25035 6.9 12H8.1ZM15.5217 18.1823C15.7425 18.3958 15.8977 18.546 16.0075 18.659C16.1296 18.7846 16.1482 18.8177 16.1406 18.8041L17.1868 18.2164C17.1076 18.0754 16.9816 17.9395 16.868 17.8226C16.7422 17.6931 16.5708 17.5274 16.356 17.3197L15.5217 18.1823ZM15.5 20.6C15.7584 20.6 16.0066 20.6057 16.2498 20.5331L15.9063 19.3833C15.8694 19.3943 15.8256 19.4 15.5 19.4V20.6ZM16.1406 18.8041C16.2661 19.0275 16.1518 19.3099 15.9063 19.3833L16.2498 20.5331C17.2322 20.2396 17.689 19.1103 17.1868 18.2164L16.1406 18.8041ZM16.356 6.68028C16.5708 6.47258 16.7422 6.3069 16.868 6.17739C16.9816 6.06054 17.1076 5.92461 17.1868 5.78362L16.1406 5.1959C16.1482 5.18234 16.1296 5.21543 16.0075 5.34104C15.8977 5.45399 15.7425 5.60422 15.5217 5.81772L16.356 6.68028ZM15.5 4.6C15.8256 4.6 15.8694 4.6057 15.9063 4.61673L16.2498 3.46693C16.0066 3.3943 15.7584 3.4 15.5 3.4V4.6ZM17.1868 5.78362C17.689 4.88968 17.2322 3.76038 16.2498 3.46693L15.9063 4.61673C16.1518 4.69006 16.2661 4.97253 16.1406 5.1959L17.1868 5.78362Z" fill="#1A1A8D"/>
</svg>
