<svg width="25" height="24" viewBox="0 0 25 24" fill="none" xmlns="http://www.w3.org/2000/svg">
<path fill-rule="evenodd" clip-rule="evenodd" d="M12.4404 5.21305C12.3464 5.14888 12.3861 5 12.5 5C16.366 5 19.5 8.13401 19.5 12C19.5 15.866 16.366 19 12.5 19C12.3098 19 12.1213 18.9924 11.9349 18.9775C10.8421 18.8902 10.2957 18.8466 10.2155 18.4863C10.1352 18.1259 10.7439 17.7791 11.9611 17.0853C14.0748 15.8806 15.5 13.6065 15.5 10.9995C15.5 8.59477 14.2875 6.47328 12.4404 5.21305Z" fill="#FFD400" fill-opacity="0.5"/>
<path d="M11.9611 17.0853L12.2582 17.6066L11.9611 17.0853ZM10.2155 18.4863L10.8011 18.3558L10.2155 18.4863ZM12.4404 5.21305L12.7786 4.71743L12.4404 5.21305ZM18.9 12C18.9 8.46538 16.0346 5.6 12.5 5.6V4.4C16.6974 4.4 20.1 7.80264 20.1 12H18.9ZM12.5 18.4C16.0346 18.4 18.9 15.5346 18.9 12H20.1C20.1 16.1974 16.6974 19.6 12.5 19.6V18.4ZM11.9827 18.3794C12.1532 18.393 12.3257 18.4 12.5 18.4V19.6C12.2938 19.6 12.0894 19.5918 11.8871 19.5756L11.9827 18.3794ZM11.664 16.564C13.5981 15.4617 14.9 13.3822 14.9 10.9995H16.1C16.1 13.8307 14.5516 16.2995 12.2582 17.6066L11.664 16.564ZM14.9 10.9995C14.9 8.80143 13.7925 6.8619 12.1023 5.70868L12.7786 4.71743C14.7824 6.08465 16.1 8.38811 16.1 10.9995H14.9ZM11.8871 19.5756C11.3628 19.5337 10.8966 19.4982 10.5576 19.4182C10.2359 19.3423 9.75107 19.161 9.62985 18.6167L10.8011 18.3558C10.7602 18.1718 10.5887 18.1926 10.8334 18.2503C11.0609 18.304 11.4142 18.334 11.9827 18.3794L11.8871 19.5756ZM12.2582 17.6066C11.6341 17.9623 11.2172 18.2012 10.9594 18.3926C10.8303 18.4884 10.7861 18.5405 10.7773 18.5534C10.7758 18.5555 10.7897 18.5361 10.7996 18.4967C10.8104 18.4534 10.8118 18.4037 10.8011 18.3558L9.62985 18.6167C9.56406 18.3213 9.65754 18.0635 9.78915 17.8725C9.90988 17.6973 10.0789 17.5517 10.2441 17.4291C10.5748 17.1835 11.0709 16.9021 11.664 16.564L12.2582 17.6066ZM12.5 5.6C12.7473 5.6 12.9212 5.42224 12.9708 5.24126C13.0188 5.06647 12.9655 4.84498 12.7786 4.71743L12.1023 5.70868C11.8213 5.51696 11.7408 5.18893 11.8136 4.92366C11.8881 4.6522 12.1388 4.4 12.5 4.4V5.6Z" fill="#1A1A8D"/>
<path d="M5.9 10.2L5.9 10.2C6.00137 10.5041 6.05206 10.6562 6.10276 10.7225C6.30288 10.9843 6.69712 10.9843 6.89724 10.7225C6.94794 10.6562 6.99863 10.5041 7.1 10.2L7.1 10.2C7.18177 9.95468 7.22266 9.83201 7.27555 9.72099C7.47291 9.30672 7.80672 8.97291 8.22099 8.77555C8.33201 8.72266 8.45468 8.68177 8.7 8.6L8.7 8.6C9.00412 8.49863 9.15618 8.44794 9.2225 8.39724C9.48431 8.19712 9.48431 7.80288 9.2225 7.60276C9.15618 7.55206 9.00412 7.50137 8.7 7.4L8.7 7.4C8.45468 7.31822 8.33201 7.27734 8.22099 7.22445C7.80672 7.02709 7.47291 6.69329 7.27555 6.27901C7.22266 6.16799 7.18177 6.04532 7.1 5.8C6.99863 5.49588 6.94794 5.34382 6.89724 5.2775C6.69712 5.01569 6.30288 5.01569 6.10276 5.2775C6.05206 5.34382 6.00137 5.49588 5.9 5.8C5.81823 6.04532 5.77734 6.16799 5.72445 6.27901C5.52709 6.69329 5.19329 7.02709 4.77901 7.22445C4.66799 7.27734 4.54532 7.31823 4.3 7.4C3.99588 7.50137 3.84382 7.55206 3.7775 7.60276C3.51569 7.80288 3.51569 8.19712 3.7775 8.39724C3.84382 8.44794 3.99588 8.49863 4.3 8.6C4.54532 8.68177 4.66799 8.72266 4.77901 8.77555C5.19329 8.97291 5.52709 9.30672 5.72445 9.72099C5.77734 9.83201 5.81822 9.95468 5.9 10.2Z" fill="#FFD400" fill-opacity="0.5" stroke="#1A1A8D" stroke-width="1.2"/>
</svg>
