<svg width="25" height="24" viewBox="0 0 25 24" fill="none" xmlns="http://www.w3.org/2000/svg">
<path d="M16.6637 18.5102L17.0996 18.2654L16.6637 18.5102ZM16.0781 19.9582L15.9349 19.4791L16.0781 19.9582ZM15.9389 6.249L16.2865 6.6084L15.9389 6.249ZM16.6637 5.48976L17.0996 5.73464L16.6637 5.48976ZM16.0781 4.04183L15.9349 4.52092L16.0781 4.04183ZM14 12C14 9.88358 14.876 7.97262 16.2865 6.6084L15.5913 5.8896C13.994 7.43443 13 9.60156 13 12H14ZM16.2865 17.3916C14.876 16.0274 14 14.1164 14 12H13C13 14.3984 13.994 16.5656 15.5913 18.1104L16.2865 17.3916ZM15.5 19.5C11.3579 19.5 8 16.1421 8 12H7C7 16.6944 10.8056 20.5 15.5 20.5V19.5ZM8 12C8 7.85786 11.3579 4.5 15.5 4.5V3.5C10.8056 3.5 7 7.30558 7 12H8ZM15.5913 18.1104C15.8115 18.3234 15.9681 18.4749 16.0792 18.5893C16.2006 18.7141 16.2282 18.7558 16.2278 18.7551L17.0996 18.2654C17.0277 18.1372 16.9106 18.0099 16.7963 17.8923C16.6718 17.7642 16.5017 17.5998 16.2865 17.3916L15.5913 18.1104ZM15.5 20.5C15.764 20.5 15.9952 20.5048 16.2212 20.4373L15.9349 19.4791C15.8808 19.4952 15.82 19.5 15.5 19.5V20.5ZM16.2278 18.7551C16.3846 19.0344 16.2418 19.3874 15.9349 19.4791L16.2212 20.4373C17.1422 20.1621 17.5704 19.1034 17.0996 18.2654L16.2278 18.7551ZM16.2865 6.6084C16.5017 6.40021 16.6718 6.23583 16.7963 6.10769C16.9106 5.99011 17.0277 5.86275 17.0996 5.73464L16.2278 5.24488C16.2282 5.2442 16.2006 5.28585 16.0792 5.41074C15.9681 5.52507 15.8115 5.67658 15.5913 5.8896L16.2865 6.6084ZM15.5 4.5C15.82 4.5 15.8808 4.50475 15.9349 4.52092L16.2212 3.56275C15.9952 3.49525 15.764 3.5 15.5 3.5V4.5ZM17.0996 5.73464C17.5704 4.89659 17.1422 3.83785 16.2212 3.56275L15.9349 4.52092C16.2418 4.61259 16.3846 4.96563 16.2278 5.24488L17.0996 5.73464Z" fill="#1A1A8D"/>
</svg>
