<svg width="25" height="24" viewBox="0 0 25 24" fill="none" xmlns="http://www.w3.org/2000/svg">
<path d="M16.6637 18.5102L17.5356 18.0205L16.6637 18.5102ZM16.0781 19.9582L15.7918 19L16.0781 19.9582ZM15.9389 6.249L16.6341 6.9678L15.9389 6.249ZM16.6637 5.48976L17.5356 5.97952L16.6637 5.48976ZM16.0781 4.04183L15.7918 5L16.0781 4.04183ZM14.5 12C14.5 10.0246 15.317 8.24172 16.6341 6.9678L15.2437 5.5302C13.5531 7.16533 12.5 9.46056 12.5 12H14.5ZM16.6341 17.0322C15.317 15.7583 14.5 13.9754 14.5 12H12.5C12.5 14.5394 13.5531 16.8347 15.2437 18.4698L16.6341 17.0322ZM15.5 19C11.634 19 8.5 15.866 8.5 12H6.5C6.5 16.9706 10.5294 21 15.5 21V19ZM8.5 12C8.5 8.13401 11.634 5 15.5 5V3C10.5294 3 6.5 7.02944 6.5 12H8.5ZM15.2437 18.4698C15.4664 18.6852 15.6162 18.8303 15.7206 18.9377C15.7719 18.9905 15.8012 19.0229 15.8168 19.0415C15.8356 19.0638 15.8179 19.0463 15.7918 19L17.5356 18.0205C17.4274 17.828 17.2656 17.6578 17.1549 17.5438C17.0236 17.4088 16.8468 17.238 16.6341 17.0322L15.2437 18.4698ZM15.5 21C15.7361 21 16.0523 21.0095 16.3643 20.9163L15.7918 19C15.8199 18.9916 15.8307 18.994 15.7883 18.9964C15.7332 18.9996 15.6569 19 15.5 19V21ZM15.7918 19L16.3643 20.9163C17.5923 20.5495 18.1633 19.1379 17.5356 18.0205L15.7918 19ZM16.6341 6.9678C16.8468 6.76203 17.0236 6.59121 17.1549 6.45617C17.2656 6.34225 17.4274 6.17203 17.5356 5.97952L15.7918 5C15.8179 4.95369 15.8356 4.93623 15.8168 4.95852C15.8012 4.97707 15.7719 5.0095 15.7206 5.06226C15.6162 5.16969 15.4664 5.31477 15.2437 5.5302L16.6341 6.9678ZM15.5 5C15.6569 5 15.7332 5.00038 15.7883 5.00356C15.8307 5.00601 15.8199 5.00838 15.7918 5L16.3643 3.08366C16.0523 2.9905 15.7361 3 15.5 3V5ZM17.5356 5.97952C18.1633 4.86207 17.5923 3.45049 16.3643 3.08366L15.7918 5L17.5356 5.97952Z" fill="#1A1A8D"/>
</svg>
