<svg width="25" height="24" viewBox="0 0 25 24" fill="none" xmlns="http://www.w3.org/2000/svg">
<path d="M11.9611 17.0853L12.4563 17.9541L11.9611 17.0853ZM10.2155 18.4863L11.1916 18.2689L10.2155 18.4863ZM12.4404 5.21305L13.004 4.38701L12.4404 5.21305ZM18.5 12C18.5 8.68629 15.8137 6 12.5 6V4C16.9183 4 20.5 7.58172 20.5 12H18.5ZM12.5 18C15.8137 18 18.5 15.3137 18.5 12H20.5C20.5 16.4183 16.9183 20 12.5 20V18ZM12.0145 17.9807C12.1745 17.9935 12.3364 18 12.5 18V20C12.2832 20 12.0681 19.9913 11.8553 19.9743L12.0145 17.9807ZM11.4659 16.2165C13.2803 15.1824 14.5 13.2328 14.5 10.9995H16.5C16.5 13.9802 14.8694 16.5788 12.4563 17.9541L11.4659 16.2165ZM14.5 10.9995C14.5 8.9392 13.4625 7.12098 11.8768 6.0391L13.004 4.38701C15.1124 5.82557 16.5 8.25033 16.5 10.9995H14.5ZM11.8553 19.9743C11.3456 19.9336 10.8418 19.8963 10.4657 19.8075C10.1183 19.7255 9.41471 19.4907 9.23941 18.7037L11.1916 18.2689C11.1526 18.0937 11.0446 17.9588 10.9407 17.8855C10.8688 17.8349 10.8362 17.84 10.9253 17.861C11.0055 17.88 11.1296 17.8997 11.3226 17.9202C11.5128 17.9405 11.7373 17.9585 12.0145 17.9807L11.8553 19.9743ZM12.4563 17.9541C11.8218 18.3157 11.4313 18.5404 11.1978 18.7137C11.0808 18.8007 11.0782 18.8216 11.1067 18.7803C11.1532 18.7127 11.2477 18.5209 11.1916 18.2689L9.23941 18.7037C9.14314 18.2714 9.28362 17.9012 9.45978 17.6455C9.61779 17.4162 9.82843 17.2395 10.0056 17.1079C10.3607 16.8443 10.8831 16.5487 11.4659 16.2165L12.4563 17.9541ZM12.5 6C12.9502 6 13.2655 5.67892 13.3566 5.34712C13.4448 5.02566 13.347 4.62098 13.004 4.38701L11.8768 6.0391C11.4398 5.74095 11.3148 5.22975 11.4279 4.8178C11.5438 4.39552 11.936 4 12.5 4V6Z" fill="#1A1A8D"/>
<path d="M5.9 10.2L5.9 10.2C6.00137 10.5041 6.05206 10.6562 6.10276 10.7225C6.30288 10.9843 6.69712 10.9843 6.89724 10.7225C6.94794 10.6562 6.99863 10.5041 7.1 10.2L7.1 10.2C7.18177 9.95468 7.22266 9.83201 7.27555 9.72099C7.47291 9.30672 7.80672 8.97291 8.22099 8.77555C8.33201 8.72266 8.45468 8.68177 8.7 8.6L8.7 8.6C9.00412 8.49863 9.15618 8.44794 9.2225 8.39724C9.48431 8.19712 9.48431 7.80288 9.2225 7.60276C9.15618 7.55206 9.00412 7.50137 8.7 7.4L8.7 7.4C8.45468 7.31822 8.33201 7.27734 8.22099 7.22445C7.80672 7.02709 7.47291 6.69329 7.27555 6.27901C7.22266 6.16799 7.18177 6.04532 7.1 5.8C6.99863 5.49588 6.94794 5.34382 6.89724 5.2775C6.69712 5.01569 6.30288 5.01569 6.10276 5.2775C6.05206 5.34382 6.00137 5.49588 5.9 5.8C5.81823 6.04532 5.77734 6.16799 5.72445 6.27901C5.52709 6.69329 5.19329 7.02709 4.77901 7.22445C4.66799 7.27734 4.54532 7.31823 4.3 7.4C3.99588 7.50137 3.84382 7.55206 3.7775 7.60276C3.51569 7.80288 3.51569 8.19712 3.7775 8.39724C3.84382 8.44794 3.99588 8.49863 4.3 8.6C4.54532 8.68177 4.66799 8.72266 4.77901 8.77555C5.19329 8.97291 5.52709 9.30672 5.72445 9.72099C5.77734 9.83201 5.81822 9.95468 5.9 10.2Z" stroke="#1A1A8D" stroke-width="2"/>
</svg>
