<svg width="25" height="24" viewBox="0 0 25 24" fill="none" xmlns="http://www.w3.org/2000/svg">
<path fill-rule="evenodd" clip-rule="evenodd" d="M15.5 4C15.792 4 15.938 4 16.0781 4.04183C16.692 4.22522 16.9775 4.93111 16.6637 5.48976C16.5921 5.61719 16.3744 5.82779 15.9389 6.249C14.435 7.70352 13.5 9.74257 13.5 12C13.5 14.2574 14.435 16.2965 15.9389 17.751C16.3744 18.1722 16.5921 18.3828 16.6637 18.5102C16.9775 19.0689 16.692 19.7748 16.0781 19.9582C15.938 20 15.792 20 15.5 20C11.0817 20 7.5 16.4183 7.5 12C7.5 7.58172 11.0817 4 15.5 4Z" fill="#1A1A8D"/>
</svg>
