<svg width="25" height="24" viewBox="0 0 25 24" fill="none" xmlns="http://www.w3.org/2000/svg">
<path d="M13.9611 18.0853L14.2087 18.5197L13.9611 18.0853ZM12.2155 19.4863L12.7035 19.3776L12.2155 19.4863ZM14.4404 6.21305L14.7222 5.80003L14.4404 6.21305ZM21 13C21 9.41015 18.0899 6.5 14.5 6.5V5.5C18.6421 5.5 22 8.85786 22 13H21ZM14.5 19.5C18.0899 19.5 21 16.5899 21 13H22C22 17.1421 18.6421 20.5 14.5 20.5V19.5ZM13.9747 19.4791C14.1479 19.4929 14.3231 19.5 14.5 19.5V20.5C14.2965 20.5 14.0947 20.4919 13.8951 20.4759L13.9747 19.4791ZM13.7135 17.6509C15.6776 16.5315 17 14.4196 17 11.9995H18C18 14.7933 16.4721 17.2297 14.2087 18.5197L13.7135 17.6509ZM17 11.9995C17 9.76698 15.875 7.79713 14.1586 6.62607L14.7222 5.80003C16.6999 7.14942 18 9.42255 18 11.9995H17ZM13.8951 20.4759C13.3671 20.4338 12.9103 20.3987 12.5806 20.3209C12.2653 20.2464 11.8352 20.0786 11.7275 19.595L12.7035 19.3776C12.6761 19.2543 12.5593 19.2884 12.8104 19.3476C13.0472 19.4036 13.41 19.434 13.9747 19.4791L13.8951 20.4759ZM14.2087 18.5197C13.5872 18.874 13.1637 19.1164 12.8998 19.3123C12.7677 19.4104 12.7131 19.4702 12.6949 19.4966C12.6858 19.5098 12.7216 19.4586 12.7035 19.3776L11.7275 19.595C11.6693 19.3338 11.751 19.1041 11.8715 18.9292C11.9829 18.7675 12.1415 18.6298 12.3037 18.5094C12.6284 18.2683 13.1178 17.9904 13.7135 17.6509L14.2087 18.5197ZM14.5 6.5C14.6966 6.5 14.8351 6.35807 14.8744 6.21479C14.9123 6.07668 14.8702 5.90097 14.7222 5.80003L14.1586 6.62607C13.9166 6.46096 13.8473 6.17873 13.9101 5.95013C13.9742 5.71637 14.1895 5.5 14.5 5.5V6.5Z" fill="#1A1A8D"/>
<path d="M7.9 11.2L7.9 11.2C8.00137 11.5041 8.05206 11.6562 8.10276 11.7225C8.30288 11.9843 8.69712 11.9843 8.89724 11.7225C8.94794 11.6562 8.99863 11.5041 9.1 11.2L9.1 11.2C9.18177 10.9547 9.22266 10.832 9.27555 10.721C9.47291 10.3067 9.80672 9.97291 10.221 9.77555C10.332 9.72266 10.4547 9.68177 10.7 9.6L10.7 9.6C11.0041 9.49863 11.1562 9.44794 11.2225 9.39724C11.4843 9.19712 11.4843 8.80288 11.2225 8.60276C11.1562 8.55206 11.0041 8.50137 10.7 8.4L10.7 8.4C10.4547 8.31822 10.332 8.27734 10.221 8.22445C9.80672 8.02709 9.47291 7.69329 9.27555 7.27901C9.22266 7.16799 9.18177 7.04532 9.1 6.8C8.99863 6.49588 8.94794 6.34382 8.89724 6.2775C8.69712 6.01569 8.30288 6.01569 8.10276 6.2775C8.05206 6.34382 8.00137 6.49588 7.9 6.8C7.81823 7.04532 7.77734 7.16799 7.72445 7.27901C7.52709 7.69329 7.19329 8.02709 6.77901 8.22445C6.66799 8.27734 6.54532 8.31823 6.3 8.4C5.99588 8.50137 5.84382 8.55206 5.7775 8.60276C5.51569 8.80288 5.51569 9.19712 5.7775 9.39724C5.84382 9.44794 5.99588 9.49863 6.3 9.6C6.54532 9.68177 6.66799 9.72266 6.77901 9.77555C7.19329 9.97291 7.52709 10.3067 7.72445 10.721C7.77734 10.832 7.81822 10.9547 7.9 11.2Z" stroke="#1A1A8D"/>
</svg>
