<svg width="25" height="24" viewBox="0 0 25 24" fill="none" xmlns="http://www.w3.org/2000/svg">
<path d="M12.1247 5.00988C12.2489 5.00332 12.374 5 12.4998 5C16.3658 5 19.4998 8.13401 19.4998 12C19.4998 15.866 16.3658 19 12.4998 19C11.1729 19 9.93231 18.6308 8.875 17.9896C12.5666 17.7946 15.4998 14.7396 15.4998 10.9995C15.4998 8.46034 14.1479 6.23697 12.1247 5.00988Z" fill="#1A1A8D"/>
<path d="M5.9 10.2L5.9 10.2C6.00137 10.5041 6.05206 10.6562 6.10276 10.7225C6.30288 10.9843 6.69712 10.9843 6.89724 10.7225C6.94794 10.6562 6.99863 10.5041 7.1 10.2L7.1 10.2C7.18177 9.95468 7.22266 9.83201 7.27555 9.72099C7.47291 9.30672 7.80672 8.97291 8.22099 8.77555C8.33201 8.72266 8.45468 8.68177 8.7 8.6L8.7 8.6C9.00412 8.49863 9.15618 8.44794 9.2225 8.39724C9.48431 8.19712 9.48431 7.80288 9.2225 7.60276C9.15618 7.55206 9.00412 7.50137 8.7 7.4L8.7 7.4C8.45468 7.31822 8.33201 7.27734 8.22099 7.22445C7.80672 7.02709 7.47291 6.69329 7.27555 6.27901C7.22266 6.16799 7.18177 6.04532 7.1 5.8C6.99863 5.49588 6.94794 5.34382 6.89724 5.2775C6.69712 5.01569 6.30288 5.01569 6.10276 5.2775C6.05206 5.34382 6.00137 5.49588 5.9 5.8C5.81823 6.04532 5.77734 6.16799 5.72445 6.27901C5.52709 6.69329 5.19329 7.02709 4.77901 7.22445C4.66799 7.27734 4.54532 7.31823 4.3 7.4C3.99588 7.50137 3.84382 7.55206 3.7775 7.60276C3.51569 7.80288 3.51569 8.19712 3.7775 8.39724C3.84382 8.44794 3.99588 8.49863 4.3 8.6C4.54532 8.68177 4.66799 8.72266 4.77901 8.77555C5.19329 8.97291 5.52709 9.30672 5.72445 9.72099C5.77734 9.83201 5.81822 9.95468 5.9 10.2Z" fill="#1A1A8D"/>
</svg>
