<svg width="25" height="24" viewBox="0 0 25 24" fill="none" xmlns="http://www.w3.org/2000/svg">
<path d="M5.5 10.8C5.5 8.18126 5.5 6.87188 6.08944 5.91001C6.41926 5.37178 6.87178 4.91926 7.41001 4.58944C8.37188 4 9.68126 4 12.3 4H12.7C15.3187 4 16.6281 4 17.59 4.58944C18.1282 4.91926 18.5807 5.37178 18.9106 5.91001C19.5 6.87188 19.5 8.18126 19.5 10.8V14C19.5 14.9288 19.5 15.3933 19.4487 15.7832C19.0942 18.4756 16.9756 20.5942 14.2832 20.9487C13.8933 21 13.4288 21 12.5 21V21C11.5712 21 11.1067 21 10.7168 20.9487C8.02444 20.5942 5.90579 18.4756 5.55133 15.7832C5.5 15.3933 5.5 14.9288 5.5 14V10.8Z" stroke="#1A1A8D" stroke-linejoin="round"/>
<path d="M12.5 4V9" stroke="#1A1A8D" stroke-linecap="round" stroke-linejoin="round"/>
</svg>
