<svg width="25" height="24" viewBox="0 0 25 24" fill="none" xmlns="http://www.w3.org/2000/svg">
<path d="M12.5 3L13.1247 2.21913L12.5 1.71938L11.8753 2.21913L12.5 3ZM11.5 9C11.5 9.55228 11.9477 10 12.5 10C13.0523 10 13.5 9.55228 13.5 9H11.5ZM17.1247 5.41913L13.1247 2.21913L11.8753 3.78087L15.8753 6.98087L17.1247 5.41913ZM11.8753 2.21913L7.8753 5.41913L9.1247 6.98087L13.1247 3.78087L11.8753 2.21913ZM11.5 3V9H13.5V3H11.5Z" fill="#1A1A8D"/>
<path d="M21.5 12L22.2809 12.6247L22.7806 12L22.2809 11.3753L21.5 12ZM15.5 11C14.9477 11 14.5 11.4477 14.5 12C14.5 12.5523 14.9477 13 15.5 13L15.5 11ZM19.0809 16.6247L22.2809 12.6247L20.7191 11.3753L17.5191 15.3753L19.0809 16.6247ZM22.2809 11.3753L19.0809 7.3753L17.5191 8.62469L20.7191 12.6247L22.2809 11.3753ZM21.5 11L15.5 11L15.5 13L21.5 13L21.5 11Z" fill="#1A1A8D"/>
<path d="M12.5 21L13.1247 21.7809L12.5 22.2806L11.8753 21.7809L12.5 21ZM11.5 15C11.5 14.4477 11.9477 14 12.5 14C13.0523 14 13.5 14.4477 13.5 15H11.5ZM17.1247 18.5809L13.1247 21.7809L11.8753 20.2191L15.8753 17.0191L17.1247 18.5809ZM11.8753 21.7809L7.8753 18.5809L9.1247 17.0191L13.1247 20.2191L11.8753 21.7809ZM11.5 21V15H13.5V21H11.5Z" fill="#1A1A8D"/>
<path d="M3.5 12L2.71913 12.6247L2.21937 12L2.71913 11.3753L3.5 12ZM9.5 11C10.0523 11 10.5 11.4477 10.5 12C10.5 12.5523 10.0523 13 9.5 13L9.5 11ZM5.91913 16.6247L2.71913 12.6247L4.28087 11.3753L7.48087 15.3753L5.91913 16.6247ZM2.71913 11.3753L5.91913 7.37531L7.48087 8.6247L4.28087 12.6247L2.71913 11.3753ZM3.5 11L9.5 11L9.5 13L3.5 13L3.5 11Z" fill="#1A1A8D"/>
</svg>
