<svg width="25" height="24" viewBox="0 0 25 24" fill="none" xmlns="http://www.w3.org/2000/svg">
<path d="M12.5 3L12.8648 2.65803L12.5 2.26894L12.1352 2.65803L12.5 3ZM12 9C12 9.27614 12.2239 9.5 12.5 9.5C12.7761 9.5 13 9.27614 13 9H12ZM15.8648 5.85803L12.8648 2.65803L12.1352 3.34197L15.1352 6.54197L15.8648 5.85803ZM12.1352 2.65803L9.13523 5.85803L9.86477 6.54197L12.8648 3.34197L12.1352 2.65803ZM12 3V9H13V3H12Z" fill="#1A1A8D"/>
<path d="M21.5 12L21.842 12.3648L22.2311 12L21.842 11.6352L21.5 12ZM15.5 11.5C15.2239 11.5 15 11.7239 15 12C15 12.2761 15.2239 12.5 15.5 12.5L15.5 11.5ZM18.642 15.3648L21.842 12.3648L21.158 11.6352L17.958 14.6352L18.642 15.3648ZM21.842 11.6352L18.642 8.63523L17.958 9.36477L21.158 12.3648L21.842 11.6352ZM21.5 11.5L15.5 11.5L15.5 12.5L21.5 12.5L21.5 11.5Z" fill="#1A1A8D"/>
<path d="M12.5 21L12.8648 21.342L12.5 21.7311L12.1352 21.342L12.5 21ZM12 15C12 14.7239 12.2239 14.5 12.5 14.5C12.7761 14.5 13 14.7239 13 15H12ZM15.8648 18.142L12.8648 21.342L12.1352 20.658L15.1352 17.458L15.8648 18.142ZM12.1352 21.342L9.13523 18.142L9.86477 17.458L12.8648 20.658L12.1352 21.342ZM12 21V15H13V21H12Z" fill="#1A1A8D"/>
<path d="M3.5 12L3.15803 12.3648L2.76894 12L3.15803 11.6352L3.5 12ZM9.5 11.5C9.77614 11.5 10 11.7239 10 12C10 12.2761 9.77614 12.5 9.5 12.5L9.5 11.5ZM6.35803 15.3648L3.15803 12.3648L3.84197 11.6352L7.04197 14.6352L6.35803 15.3648ZM3.15803 11.6352L6.35803 8.63523L7.04197 9.36477L3.84197 12.3648L3.15803 11.6352ZM3.5 11.5L9.5 11.5L9.5 12.5L3.5 12.5L3.5 11.5Z" fill="#1A1A8D"/>
</svg>
