<svg width="25" height="24" viewBox="0 0 25 24" fill="none" xmlns="http://www.w3.org/2000/svg">
<path d="M12.5 3L12.8123 2.60957L12.5 2.35969L12.1877 2.60957L12.5 3ZM12 9C12 9.27614 12.2239 9.5 12.5 9.5C12.7761 9.5 13 9.27614 13 9H12ZM16.8123 5.80957L12.8123 2.60957L12.1877 3.39043L16.1877 6.59043L16.8123 5.80957ZM12.1877 2.60957L8.18765 5.80957L8.81235 6.59043L12.8123 3.39043L12.1877 2.60957ZM12 3V9H13V3H12Z" fill="#1A1A8D"/>
<path d="M21.5 12L21.8904 12.3123L22.1403 12L21.8904 11.6877L21.5 12ZM15.5 11.5C15.2239 11.5 15 11.7239 15 12C15 12.2761 15.2239 12.5 15.5 12.5L15.5 11.5ZM18.6904 16.3123L21.8904 12.3123L21.1096 11.6877L17.9096 15.6877L18.6904 16.3123ZM21.8904 11.6877L18.6904 7.68765L17.9096 8.31235L21.1096 12.3123L21.8904 11.6877ZM21.5 11.5L15.5 11.5L15.5 12.5L21.5 12.5L21.5 11.5Z" fill="#1A1A8D"/>
<path d="M12.5 21L12.8123 21.3904L12.5 21.6403L12.1877 21.3904L12.5 21ZM12 15C12 14.7239 12.2239 14.5 12.5 14.5C12.7761 14.5 13 14.7239 13 15H12ZM16.8123 18.1904L12.8123 21.3904L12.1877 20.6096L16.1877 17.4096L16.8123 18.1904ZM12.1877 21.3904L8.18765 18.1904L8.81235 17.4096L12.8123 20.6096L12.1877 21.3904ZM12 21V15H13V21H12Z" fill="#1A1A8D"/>
<path d="M3.5 12L3.10957 12.3123L2.85969 12L3.10957 11.6877L3.5 12ZM9.5 11.5C9.77614 11.5 10 11.7239 10 12C10 12.2761 9.77614 12.5 9.5 12.5L9.5 11.5ZM6.30956 16.3123L3.10957 12.3123L3.89043 11.6877L7.09043 15.6877L6.30956 16.3123ZM3.10957 11.6877L6.30957 7.68765L7.09043 8.31235L3.89043 12.3123L3.10957 11.6877ZM3.5 11.5L9.5 11.5L9.5 12.5L3.5 12.5L3.5 11.5Z" fill="#1A1A8D"/>
</svg>
