<svg width="25" height="24" viewBox="0 0 25 24" fill="none" xmlns="http://www.w3.org/2000/svg">
<path d="M12.5 3L13.2295 2.31606L12.5 1.53789L11.7705 2.31606L12.5 3ZM11.5 9C11.5 9.55228 11.9477 10 12.5 10C13.0523 10 13.5 9.55228 13.5 9H11.5ZM16.2295 5.51606L13.2295 2.31606L11.7705 3.68394L14.7705 6.88394L16.2295 5.51606ZM11.7705 2.31606L8.77046 5.51606L10.2295 6.88394L13.2295 3.68394L11.7705 2.31606ZM11.5 3V9H13.5V3H11.5Z" fill="#1A1A8D"/>
<path d="M21.5 12L22.1839 12.7295L22.9621 12L22.1839 11.2705L21.5 12ZM15.5 11C14.9477 11 14.5 11.4477 14.5 12C14.5 12.5523 14.9477 13 15.5 13L15.5 11ZM18.9839 15.7295L22.1839 12.7295L20.8161 11.2705L17.6161 14.2705L18.9839 15.7295ZM22.1839 11.2705L18.9839 8.27046L17.6161 9.72954L20.8161 12.7295L22.1839 11.2705ZM21.5 11L15.5 11L15.5 13L21.5 13L21.5 11Z" fill="#1A1A8D"/>
<path d="M12.5 21L13.2295 21.6839L12.5 22.4621L11.7705 21.6839L12.5 21ZM11.5 15C11.5 14.4477 11.9477 14 12.5 14C13.0523 14 13.5 14.4477 13.5 15H11.5ZM16.2295 18.4839L13.2295 21.6839L11.7705 20.3161L14.7705 17.1161L16.2295 18.4839ZM11.7705 21.6839L8.77046 18.4839L10.2295 17.1161L13.2295 20.3161L11.7705 21.6839ZM11.5 21V15H13.5V21H11.5Z" fill="#1A1A8D"/>
<path d="M3.5 12L2.81606 12.7295L2.03789 12L2.81606 11.2705L3.5 12ZM9.5 11C10.0523 11 10.5 11.4477 10.5 12C10.5 12.5523 10.0523 13 9.5 13L9.5 11ZM6.01606 15.7295L2.81606 12.7295L4.18394 11.2705L7.38394 14.2705L6.01606 15.7295ZM2.81606 11.2705L6.01606 8.27046L7.38394 9.72954L4.18394 12.7295L2.81606 11.2705ZM3.5 11L9.5 11L9.5 13L3.5 13L3.5 11Z" fill="#1A1A8D"/>
</svg>
