<svg width="25" height="24" viewBox="0 0 25 24" fill="none" xmlns="http://www.w3.org/2000/svg">
<path fill-rule="evenodd" clip-rule="evenodd" d="M19.5 15.9505V14H16.7525C16.518 14 16.4008 14 16.302 14.0098C15.354 14.1041 14.6041 14.854 14.5098 15.802C14.5 15.9008 14.5 16.018 14.5 16.2525C14.5 16.5322 14.5 16.6721 14.5124 16.7831C14.6332 17.8609 15.5909 18.646 16.6714 18.553C16.7827 18.5435 16.9199 18.516 17.1942 18.4612L17.4903 18.4019C17.8708 18.3258 18.061 18.2878 18.2215 18.2257C18.8765 17.9724 19.3506 17.394 19.4706 16.7021C19.5 16.5325 19.5 16.3385 19.5 15.9505ZM9.5 17.9505V16H6.75245C6.518 16 6.40078 16 6.30205 16.0098C5.35403 16.1041 4.60411 16.854 4.50982 17.802C4.5 17.9008 4.5 18.018 4.5 18.2525C4.5 18.5322 4.5 18.6721 4.51244 18.7831C4.63321 19.8609 5.5909 20.646 6.67139 20.553C6.78267 20.5435 6.91994 20.516 7.19419 20.4612L7.49029 20.4019C7.87076 20.3258 8.06099 20.2878 8.2215 20.2257C8.8765 19.9724 9.35063 19.394 9.4706 18.7021C9.5 18.5325 9.5 18.3385 9.5 17.9505Z" fill="#1A1A8D"/>
<path d="M9.5 16V11M9.5 16V17.9505M9.5 16H6.75245M19.5 14V9M19.5 14V15.9505M19.5 14H16.7525M19.5 9L9.5 11M19.5 9V8.87922M9.5 11V9.27922M9.5 9.27922C9.5 7.70946 9.5 6.92459 9.95332 6.37163C10.4066 5.81867 11.1763 5.66475 12.7155 5.35689M9.5 9.27922V9.27922C9.5 7.70946 9.5 6.92459 9.95332 6.37163C9.95332 6.37163 9.95332 6.37163 9.95332 6.37163C10.4066 5.81867 11.1763 5.66475 12.7155 5.35689V5.35689M9.5 9.27922V17.9505M12.7155 5.35689L14.7155 4.95689M14.7155 4.95689C16.9291 4.51417 18.036 4.29281 18.768 4.89292C19.5 5.49304 19.5 6.62176 19.5 8.87922M14.7155 4.95689V4.95689C16.9291 4.51417 18.036 4.29281 18.768 4.89292C19.5 5.49304 19.5 6.62176 19.5 8.87922V8.87922M19.5 15.9505C19.5 16.3385 19.5 16.5325 19.4706 16.7021C19.3506 17.394 18.8765 17.9724 18.2215 18.2257C18.061 18.2878 17.8708 18.3258 17.4903 18.4019M19.5 15.9505V15.9505C19.5 16.3385 19.5 16.5325 19.4706 16.702C19.3506 17.394 18.8765 17.9724 18.2215 18.2257C18.061 18.2878 17.8708 18.3258 17.4903 18.4019V18.4019M17.4903 18.4019L17.1942 18.4612M17.1942 18.4612C16.9199 18.516 16.7827 18.5435 16.6714 18.553C15.5909 18.646 14.6332 17.8609 14.5124 16.7831C14.5 16.6721 14.5 16.5322 14.5 16.2525M17.1942 18.4612V18.4612C16.9199 18.516 16.7827 18.5435 16.6714 18.553C15.5909 18.646 14.6332 17.8609 14.5124 16.7831C14.5 16.6721 14.5 16.5322 14.5 16.2525V16.2525M14.5 16.2525C14.5 16.018 14.5 15.9008 14.5098 15.802C14.6041 14.854 15.354 14.1041 16.302 14.0098C16.4008 14 16.518 14 16.7525 14M14.5 16.2525V16.2525C14.5 16.018 14.5 15.9008 14.5098 15.8021C14.6041 14.854 15.354 14.1041 16.3021 14.0098C16.4008 14 16.518 14 16.7525 14V14M9.5 17.9505C9.5 18.3385 9.5 18.5325 9.4706 18.7021C9.35063 19.394 8.8765 19.9724 8.2215 20.2257C8.06099 20.2878 7.87076 20.3258 7.49029 20.4019M9.5 17.9505V17.9505C9.5 18.3385 9.5 18.5325 9.4706 18.7021C9.35063 19.394 8.8765 19.9724 8.2215 20.2257C8.06099 20.2878 7.87075 20.3258 7.49029 20.4019V20.4019M7.49029 20.4019L7.19419 20.4612M7.19419 20.4612C6.91994 20.516 6.78267 20.5435 6.67139 20.553C5.5909 20.646 4.63321 19.8609 4.51244 18.7831C4.5 18.6721 4.5 18.5322 4.5 18.2525M7.19419 20.4612V20.4612C6.91986 20.516 6.78269 20.5435 6.67139 20.553C5.5909 20.646 4.63321 19.8608 4.51244 18.7831C4.5 18.6721 4.5 18.5322 4.5 18.2525V18.2525M4.5 18.2525C4.5 18.018 4.5 17.9008 4.50982 17.802C4.60411 16.854 5.35403 16.1041 6.30205 16.0098C6.40078 16 6.518 16 6.75245 16M4.5 18.2525V18.2525C4.5 18.018 4.5 17.9008 4.50982 17.8021C4.60411 16.854 5.35403 16.1041 6.30205 16.0098C6.40078 16 6.51801 16 6.75245 16V16" stroke="#1A1A8D" stroke-width="2"/>
</svg>
