<svg width="25" height="24" viewBox="0 0 25 24" fill="none" xmlns="http://www.w3.org/2000/svg">
<path d="M9.5 16H6.75245C6.518 16 6.40078 16 6.30205 16.0098C5.35403 16.1041 4.60411 16.854 4.50982 17.802C4.5 17.9008 4.5 18.018 4.5 18.2525V18.2525C4.5 18.5322 4.5 18.6721 4.51244 18.7831C4.63321 19.8608 5.5909 20.646 6.67139 20.553C6.78269 20.5435 6.91986 20.516 7.19419 20.4612L7.49029 20.4019C7.87076 20.3258 8.06099 20.2878 8.2215 20.2257C8.8765 19.9724 9.35063 19.394 9.4706 18.7021C9.5 18.5325 9.5 18.3385 9.5 17.9505V9.27922C9.5 7.70946 9.5 6.92459 9.95332 6.37163C10.4066 5.81867 11.1763 5.66475 12.7155 5.35689L14.7155 4.95689C16.9291 4.51417 18.036 4.29281 18.768 4.89292C19.5 5.49304 19.5 6.62176 19.5 8.87922V9M19.5 14V15.9505C19.5 16.3385 19.5 16.5325 19.4706 16.7021C19.3506 17.394 18.8765 17.9724 18.2215 18.2257C18.061 18.2878 17.8708 18.3258 17.4903 18.4019L17.1942 18.4612C16.9199 18.516 16.7827 18.5435 16.6714 18.553C15.5909 18.646 14.6332 17.8608 14.5124 16.7831C14.5 16.6721 14.5 16.5322 14.5 16.2525V16.2525C14.5 16.018 14.5 15.9008 14.5098 15.802C14.6041 14.854 15.354 14.1041 16.302 14.0098C16.4008 14 16.518 14 16.7525 14H19.5ZM19.5 14V9M19.5 9L9.5 11" stroke="#1A1A8D"/>
</svg>
