<svg width="25" height="24" viewBox="0 0 25 24" fill="none" xmlns="http://www.w3.org/2000/svg">
<path fill-rule="evenodd" clip-rule="evenodd" d="M4.50174 9H20.4983C20.4862 6.82497 20.3897 5.64706 19.6213 4.87868C18.7426 4 17.3284 4 14.5 4H10.5C7.67157 4 6.25736 4 5.37868 4.87868C4.6103 5.64706 4.51384 6.82497 4.50174 9ZM20.5 11H4.5V14C4.5 16.8284 4.5 18.2426 5.37868 19.1213C6.25736 20 7.67157 20 10.5 20H14.5C17.3284 20 18.7426 20 19.6213 19.1213C20.5 18.2426 20.5 16.8284 20.5 14V11Z" fill="#1A1A8D"/>
</svg>
