<svg width="25" height="24" viewBox="0 0 25 24" fill="none" xmlns="http://www.w3.org/2000/svg">
<path d="M5.5 8L10.5 16" stroke="#1A1A8D" stroke-width="2" stroke-linecap="round"/>
<path d="M19.2224 20.5C20.7145 17.9157 21.5 14.9841 21.5 12C21.5 9.01588 20.7145 6.08433 19.2224 3.5" stroke="#1A1A8D" stroke-width="2" stroke-linecap="round"/>
<path d="M14.8923 18C15.9455 16.1758 16.5 14.1064 16.5 12C16.5 9.89356 15.9455 7.82423 14.8923 6" stroke="#1A1A8D" stroke-width="2" stroke-linecap="round"/>
<path d="M10.4282 16C11.1303 14.7838 11.5 13.4043 11.5 12C11.5 10.5957 11.1303 9.21615 10.4282 8" stroke="#1A1A8D" stroke-width="2" stroke-linecap="round"/>
<path d="M5.5718 16C4.86965 14.7838 4.5 13.4043 4.5 12C4.5 10.5957 4.86965 9.21615 5.5718 8" stroke="#1A1A8D" stroke-width="2" stroke-linecap="round"/>
</svg>
