<svg width="25" height="24" viewBox="0 0 25 24" fill="none" xmlns="http://www.w3.org/2000/svg">
<path fill-rule="evenodd" clip-rule="evenodd" d="M22.5 12C22.5 17.5228 18.0228 22 12.5 22C6.97715 22 2.5 17.5228 2.5 12C2.5 6.47715 6.97715 2 12.5 2C18.0228 2 22.5 6.47715 22.5 12ZM9.16859 7.93767C9.14917 7.75318 9.04474 7.58024 8.8718 7.48038C8.76596 7.41928 8.64923 7.39408 8.53574 7.40102C8.41551 7.39374 8.29193 7.42249 8.182 7.4912C8.00792 7.6 7.9089 7.78346 7.9005 7.97413C7.24423 9.21292 6.9 10.5949 6.9 12C6.9 13.5096 7.29737 14.9926 8.05218 16.3C8.21787 16.587 8.58482 16.6853 8.8718 16.5196C9.15877 16.3539 9.2571 15.987 9.09141 15.7C8.44193 14.5751 8.1 13.299 8.1 12C8.1 11.0746 8.27352 10.1609 8.60815 9.30511L12.8314 16.0623C12.8508 16.2468 12.9553 16.4198 13.1282 16.5196C13.234 16.5807 13.3508 16.6059 13.4643 16.599C13.5845 16.6063 13.7081 16.5775 13.818 16.5088C13.9921 16.4 14.0911 16.2165 14.0995 16.0259C14.7558 14.7871 15.1 13.4051 15.1 12C15.1 10.4904 14.7026 9.00737 13.9478 7.7C13.7821 7.41302 13.4152 7.3147 13.1282 7.48038C12.8412 7.64607 12.7429 8.01302 12.9086 8.3C13.5581 9.42494 13.9 10.701 13.9 12C13.9 12.9254 13.7265 13.8391 13.3919 14.6949L9.16859 7.93767ZM16.5067 6.8C16.341 6.51302 16.4393 6.14607 16.7263 5.98038C17.0133 5.8147 17.3802 5.91302 17.5459 6.2C18.564 7.96342 19.1 9.96377 19.1 12C19.1 14.0362 18.564 16.0366 17.5459 17.8C17.3802 18.087 17.0133 18.1853 16.7263 18.0196C16.4393 17.8539 16.341 17.487 16.5067 17.2C17.4195 15.619 17.9 13.8256 17.9 12C17.9 10.1744 17.4195 8.381 16.5067 6.8Z" fill="#1A1A8D"/>
</svg>
