<svg width="25" height="24" viewBox="0 0 25 24" fill="none" xmlns="http://www.w3.org/2000/svg">
<path d="M6.5 8L11.5 16" stroke="#1A1A8D" stroke-linecap="round"/>
<path d="M18.2224 20.5C19.7145 17.9157 20.5 14.9841 20.5 12C20.5 9.01588 19.7145 6.08433 18.2224 3.5" stroke="#1A1A8D" stroke-linecap="round"/>
<path d="M14.8923 18C15.9455 16.1758 16.5 14.1064 16.5 12C16.5 9.89356 15.9455 7.82423 14.8923 6" stroke="#1A1A8D" stroke-linecap="round"/>
<path d="M11.4282 16C12.1303 14.7838 12.5 13.4043 12.5 12C12.5 10.5957 12.1303 9.21615 11.4282 8" stroke="#1A1A8D" stroke-linecap="round"/>
<path d="M6.5718 16C5.86965 14.7838 5.5 13.4043 5.5 12C5.5 10.5957 5.86965 9.21615 6.5718 8" stroke="#1A1A8D" stroke-linecap="round"/>
</svg>
