<svg width="25" height="24" viewBox="0 0 25 24" fill="none" xmlns="http://www.w3.org/2000/svg">
<path fill-rule="evenodd" clip-rule="evenodd" d="M7.5508 6H9.50005C10.6046 6 11.5 6.89543 11.5 8C11.5 9.10457 10.6046 10 9.50005 10H7.50005V11H9.50005C10.6046 11 11.5 11.8954 11.5 13C11.5 14.1046 10.6046 15 9.50005 15H7.50005V16H9.50005C10.6046 16 11.5 16.8954 11.5 18C11.5 19.1046 10.6046 20 9.50005 20H7.79248C7.86869 20.1568 7.96475 20.2931 8.08584 20.4142C8.67162 21 9.61443 21 11.5 21H16.5C18.3857 21 19.3285 21 19.9143 20.4142C20.5 19.8284 20.5 18.8856 20.5 17V8C20.5 6.11438 20.5 5.17157 19.9143 4.58579C19.3285 4 18.3857 4 16.5 4H11.5C9.61443 4 8.67162 4 8.08584 4.58579C7.75924 4.91238 7.61474 5.34994 7.5508 6ZM16.5 11C15.9477 11 15.5 10.5523 15.5 10V8C15.5 7.44772 15.9477 7 16.5 7C17.0523 7 17.5 7.44772 17.5 8V10C17.5 10.5523 17.0523 11 16.5 11ZM5.5 7C4.94772 7 4.5 7.44772 4.5 8C4.5 8.55228 4.94772 9 5.5 9H9.5C10.0523 9 10.5 8.55228 10.5 8C10.5 7.44772 10.0523 7 9.5 7H5.5ZM5.5 12C4.94772 12 4.5 12.4477 4.5 13C4.5 13.5523 4.94772 14 5.5 14H9.5C10.0523 14 10.5 13.5523 10.5 13C10.5 12.4477 10.0523 12 9.5 12H5.5ZM5.5 17C4.94772 17 4.5 17.4477 4.5 18C4.5 18.5523 4.94772 19 5.5 19H9.5C10.0523 19 10.5 18.5523 10.5 18C10.5 17.4477 10.0523 17 9.5 17H5.5Z" fill="#1A1A8D"/>
</svg>
