<svg width="25" height="24" viewBox="0 0 25 24" fill="none" xmlns="http://www.w3.org/2000/svg">
<path d="M4 7.5H8" stroke="#1A1A8D" stroke-linecap="round"/>
<path d="M4 15.5H8" stroke="#1A1A8D" stroke-linecap="round"/>
<path d="M4 11.5H8" stroke="#1A1A8D" stroke-linecap="round"/>
<path fill-rule="evenodd" clip-rule="evenodd" d="M5.51071 5.6954C5.50666 5.83786 5.50463 5.9091 5.54881 5.95455C5.59299 6 5.6649 6 5.80872 6H8C8.82843 6 9.5 6.67157 9.5 7.5C9.5 8.32843 8.82843 9 8 9H5.8C5.65858 9 5.58787 9 5.54393 9.04393C5.5 9.08787 5.5 9.15858 5.5 9.3V9.7C5.5 9.84142 5.5 9.91213 5.54393 9.95607C5.58787 10 5.65858 10 5.8 10H8C8.82843 10 9.5 10.6716 9.5 11.5C9.5 12.3284 8.82843 13 8 13H5.8C5.65858 13 5.58787 13 5.54393 13.0439C5.5 13.0879 5.5 13.1586 5.5 13.3V13.7C5.5 13.8414 5.5 13.9121 5.54393 13.9561C5.58787 14 5.65858 14 5.8 14H8C8.82843 14 9.5 14.6716 9.5 15.5C9.5 16.3284 8.82843 17 8 17H5.8C5.65852 17 5.58777 17 5.54383 17.044C5.49989 17.088 5.49996 17.1588 5.5001 17.3005C5.50175 18.9875 5.53198 19.8604 6.08579 20.4142C6.67157 21 7.61438 21 9.5 21H15.5C17.3856 21 18.3284 21 18.9142 20.4142C19.5 19.8284 19.5 18.8856 19.5 17V7C19.5 5.11438 19.5 4.17157 18.9142 3.58579C18.3284 3 17.3856 3 15.5 3H9.5C7.61438 3 6.67157 3 6.08579 3.58579C5.65431 4.01726 5.54065 4.64243 5.51071 5.6954Z" fill="#FFD400" fill-opacity="0.5"/>
<path d="M16 10.5V7.5" stroke="#1A1A8D" stroke-linecap="round"/>
</svg>
