<svg width="25" height="24" viewBox="0 0 25 24" fill="none" xmlns="http://www.w3.org/2000/svg">
<path d="M18.5 8L13.5 11L11.5 9H7.5M18.5 8L21.5 11M18.5 8L14.5 15H3.5V9H7.5M7.5 9V4M7.5 4H4.5M7.5 4H10.5" stroke="#1A1A8D" stroke-width="2" stroke-linejoin="round"/>
<path d="M3.5 21L5 19.5C5.07965 19.4203 5.11948 19.3805 5.15474 19.3485C5.91756 18.6551 7.08244 18.6551 7.84526 19.3485C7.88052 19.3805 7.92035 19.4203 8 19.5L8.14853 19.6485C8.89493 20.3949 10.1051 20.3949 10.8515 19.6485L11.2252 19.2748C11.8847 18.6153 12.9827 18.724 13.5 19.5V19.5C14.0173 20.276 15.1153 20.3847 15.7748 19.7252L16.1485 19.3515C16.8949 18.6051 18.1051 18.6051 18.8515 19.3515L20.5 21" stroke="#1A1A8D" stroke-width="2" stroke-linejoin="round"/>
</svg>
