<svg width="25" height="24" viewBox="0 0 25 24" fill="none" xmlns="http://www.w3.org/2000/svg">
<path fill-rule="evenodd" clip-rule="evenodd" d="M12.5 21C17.4706 21 21.5 16.9706 21.5 12C21.5 7.02944 17.4706 3 12.5 3C7.52944 3 3.5 7.02944 3.5 12C3.5 16.9706 7.52944 21 12.5 21ZM12.5 5C13.0523 5 13.5 5.44772 13.5 6V9C13.5 9.55228 13.0523 10 12.5 10C11.9477 10 11.5 9.55229 11.5 9V6C11.5 5.44772 11.9477 5 12.5 5ZM16.0355 7.05025C16.4261 6.65973 17.0592 6.65973 17.4497 7.05025C18.4287 8.02922 19.0954 9.2765 19.3655 10.6344C19.6356 11.9922 19.497 13.3997 18.9672 14.6788C18.4373 15.9579 17.5401 17.0511 16.389 17.8203C15.2378 18.5895 13.8845 19 12.5 19C11.1155 19 9.76215 18.5895 8.61101 17.8203C7.45986 17.0511 6.56265 15.9579 6.03284 14.6788C5.50303 13.3997 5.3644 11.9922 5.6345 10.6344C5.9046 9.2765 6.57128 8.02922 7.55025 7.05025C7.94077 6.65973 8.57394 6.65973 8.96446 7.05025C9.35499 7.44078 9.35499 8.07394 8.96446 8.46447C8.2652 9.16373 7.789 10.0546 7.59607 11.0245C7.40314 11.9945 7.50216 12.9998 7.8806 13.9134C8.25904 14.827 8.8999 15.6079 9.72215 16.1573C10.5444 16.7068 11.5111 17 12.5 17C13.4889 17 14.4556 16.7068 15.2778 16.1573C16.1001 15.6079 16.741 14.827 17.1194 13.9134C17.4978 12.9998 17.5968 11.9945 17.4039 11.0245C17.211 10.0546 16.7348 9.16373 16.0355 8.46447C15.645 8.07394 15.645 7.44078 16.0355 7.05025Z" fill="#1A1A8D"/>
</svg>
