<svg width="25" height="24" viewBox="0 0 25 24" fill="none" xmlns="http://www.w3.org/2000/svg">
<path fill-rule="evenodd" clip-rule="evenodd" d="M11 6.57556C11 6.39574 11 6.30583 10.938 6.26092C10.876 6.216 10.7935 6.24306 10.6285 6.29719C8.23122 7.0835 6.5 9.33935 6.5 11.9995C6.5 15.3133 9.18629 17.9995 12.5 17.9995C15.8137 17.9995 18.5 15.3133 18.5 11.9995C18.5 9.33935 16.7688 7.0835 14.3715 6.29719C14.2065 6.24306 14.124 6.216 14.062 6.26092C14 6.30583 14 6.39574 14 6.57556V8.99959C14 9.82802 13.3284 10.4996 12.5 10.4996C11.6716 10.4996 11 9.82802 11 8.99959V6.57556Z" fill="#FFD400" fill-opacity="0.5"/>
<path d="M12.5 9L12.5 4" stroke="#1A1A8D" stroke-linecap="round"/>
<path d="M18.5104 5.98959C19.6992 7.17834 20.5087 8.69289 20.8367 10.3417C21.1646 11.9906 20.9963 13.6996 20.353 15.2528C19.7096 16.806 18.6202 18.1335 17.2223 19.0675C15.8245 20.0015 14.1811 20.5 12.5 20.5C10.8189 20.5 9.17547 20.0015 7.77765 19.0675C6.37984 18.1335 5.29037 16.806 4.64702 15.2528C4.00368 13.6996 3.83535 11.9906 4.16332 10.3417C4.4913 8.69289 5.30085 7.17834 6.48959 5.98959" stroke="#1A1A8D" stroke-linecap="round"/>
</svg>
