<svg width="25" height="24" viewBox="0 0 25 24" fill="none" xmlns="http://www.w3.org/2000/svg">
<path fill-rule="evenodd" clip-rule="evenodd" d="M6.08579 4.58579C5.5 5.17157 5.5 6.11438 5.5 8V17C5.5 18.8856 5.5 19.8284 6.08579 20.4142C6.67157 21 7.61438 21 9.5 21H15.5C17.3856 21 18.3284 21 18.9142 20.4142C19.5 19.8284 19.5 18.8856 19.5 17V8C19.5 6.11438 19.5 5.17157 18.9142 4.58579C18.3284 4 17.3856 4 15.5 4H9.5C7.61438 4 6.67157 4 6.08579 4.58579ZM9.5 8C8.94772 8 8.5 8.44772 8.5 9C8.5 9.55228 8.94772 10 9.5 10H15.5C16.0523 10 16.5 9.55228 16.5 9C16.5 8.44772 16.0523 8 15.5 8H9.5ZM9.5 12C8.94772 12 8.5 12.4477 8.5 13C8.5 13.5523 8.94772 14 9.5 14H15.5C16.0523 14 16.5 13.5523 16.5 13C16.5 12.4477 16.0523 12 15.5 12H9.5ZM9.5 16C8.94772 16 8.5 16.4477 8.5 17C8.5 17.5523 8.94772 18 9.5 18H13.5C14.0523 18 14.5 17.5523 14.5 17C14.5 16.4477 14.0523 16 13.5 16H9.5Z" fill="#1A1A8D"/>
</svg>
