<svg width="25" height="24" viewBox="0 0 25 24" fill="none" xmlns="http://www.w3.org/2000/svg">
<path d="M21.5 3V2H22.5V3H21.5ZM12.2071 13.7071C11.8166 14.0976 11.1834 14.0976 10.7929 13.7071C10.4024 13.3166 10.4024 12.6834 10.7929 12.2929L12.2071 13.7071ZM20.5 11V3H22.5V11H20.5ZM21.5 4H13.5V2H21.5V4ZM22.2071 3.70711L12.2071 13.7071L10.7929 12.2929L20.7929 2.29289L22.2071 3.70711Z" fill="#1A1A8D"/>
<path d="M20.5 15V15C20.5 16.8692 20.5 17.8038 20.0981 18.5C19.8348 18.9561 19.4561 19.3348 19 19.5981C18.3038 20 17.3692 20 15.5 20H10.5C7.67157 20 6.25736 20 5.37868 19.1213C4.5 18.2426 4.5 16.8284 4.5 14V9C4.5 7.13077 4.5 6.19615 4.90192 5.5C5.16523 5.04394 5.54394 4.66523 6 4.40192C6.69615 4 7.63077 4 9.5 4V4" stroke="#1A1A8D" stroke-width="2" stroke-linecap="round"/>
</svg>
