<svg width="25" height="24" viewBox="0 0 25 24" fill="none" xmlns="http://www.w3.org/2000/svg">
<path d="M3.5 3V2.5H3V3H3.5ZM13.1464 13.3536C13.3417 13.5488 13.6583 13.5488 13.8536 13.3536C14.0488 13.1583 14.0488 12.8417 13.8536 12.6464L13.1464 13.3536ZM4 11V3H3V11H4ZM3.5 3.5H11.5V2.5H3.5V3.5ZM3.14645 3.35355L13.1464 13.3536L13.8536 12.6464L3.85355 2.64645L3.14645 3.35355Z" fill="#1A1A8D"/>
<path d="M4.5 15V15C4.5 16.8692 4.5 17.8038 4.90192 18.5C5.16523 18.9561 5.54394 19.3348 6 19.5981C6.69615 20 7.63077 20 9.5 20H14.5C17.3284 20 18.7426 20 19.6213 19.1213C20.5 18.2426 20.5 16.8284 20.5 14V9C20.5 7.13077 20.5 6.19615 20.0981 5.5C19.8348 5.04394 19.4561 4.66523 19 4.40192C18.3038 4 17.3692 4 15.5 4V4" stroke="#1A1A8D" stroke-linecap="round"/>
</svg>
