<svg width="25" height="24" viewBox="0 0 25 24" fill="none" xmlns="http://www.w3.org/2000/svg">
<path d="M15.5 5.70501L15.5 9L15.5 21L12.5 20L9.5 21L6.5 20L3.5 21L3.5 6.48612C3.5 5.09488 3.5 4.39927 3.83103 3.89795C3.9798 3.67265 4.17264 3.4798 4.39794 3.33103C4.89926 3.00001 5.59488 3.00001 6.98611 3.00001L15.5995 3.00001C16.4684 3.00001 16.8096 4.12695 16.0866 4.60893C15.7201 4.85325 15.5 5.26456 15.5 5.70501Z" fill="#FFD400" fill-opacity="0.5"/>
<path d="M18.5 3.00001V3.00001C20.1569 3.00001 21.5 4.34315 21.5 6.00001L21.5 8.14286C21.5 8.47698 21.5 8.64405 21.4234 8.76602C21.3834 8.82962 21.3296 8.8834 21.266 8.92336C21.144 9 20.977 9 20.6429 9L15.5 9M18.5 3.00001V3.00001C16.8431 3.00001 15.5 4.34315 15.5 6.00001L15.5 9M18.5 3.00001L7.5 3.00001C5.61438 3.00001 4.67157 3.00001 4.08579 3.58579C3.5 4.17158 3.5 5.11439 3.5 7.00001L3.5 21L6.5 20L9.5 21L12.5 20L15.5 21L15.5 9" stroke="#1A1A8D" stroke-width="1.2"/>
<path d="M7.5 7L11.5 7" stroke="#1A1A8D" stroke-width="1.2" stroke-linecap="round"/>
<path d="M8.5 11H7.5" stroke="#1A1A8D" stroke-width="1.2" stroke-linecap="round"/>
<path d="M7.5 15L10.5 15" stroke="#1A1A8D" stroke-width="1.2" stroke-linecap="round"/>
</svg>
