<svg width="25" height="24" viewBox="0 0 25 24" fill="none" xmlns="http://www.w3.org/2000/svg">
<path d="M15.5 8.21111L15.5 9L15.5 20.0657C15.5 20.477 15.5 20.6826 15.368 20.7533C15.2359 20.824 15.0648 20.7099 14.7226 20.4818L12.7773 19.1849C12.6429 19.0953 12.5757 19.0505 12.5 19.0505C12.4243 19.0505 12.3571 19.0953 12.2226 19.1849L9.77735 20.8151C9.64291 20.9047 9.57569 20.9495 9.5 20.9495C9.42431 20.9495 9.35709 20.9047 9.22265 20.8151L6.77735 19.1849C6.64291 19.0953 6.57569 19.0505 6.5 19.0505C6.42431 19.0505 6.35709 19.0953 6.22265 19.1849L4.27735 20.4818C3.93516 20.7099 3.76407 20.824 3.63204 20.7533C3.5 20.6826 3.5 20.477 3.5 20.0657L3.5 7.00001C3.5 5.11439 3.5 4.17158 4.08579 3.58579C4.67157 3.00001 5.61438 3.00001 7.5 3.00001L18.5 3.00001L18.1718 3.2188C16.8639 4.09073 16.21 4.5267 15.855 5.18998C15.5 5.85326 15.5 6.63921 15.5 8.21111Z" fill="#FFD400" fill-opacity="0.5"/>
<path d="M15.5 6C15.5 4.34315 16.8431 3 18.5 3C20.1569 3 21.5 4.34315 21.5 6V8C21.5 8.55228 21.0523 9 20.5 9H16C15.7239 9 15.5 8.77614 15.5 8.5V6Z" fill="#1A1A8D"/>
<path d="M6 9.5L13 9.5" stroke="#1A1A8D" stroke-linecap="round"/>
<path d="M6 12.5L10 12.5" stroke="#1A1A8D" stroke-linecap="round"/>
<path d="M6 15.5L12 15.5" stroke="#1A1A8D" stroke-linecap="round"/>
</svg>
