<svg width="25" height="24" viewBox="0 0 25 24" fill="none" xmlns="http://www.w3.org/2000/svg">
<path fill-rule="evenodd" clip-rule="evenodd" d="M2.5 21V7C2.5 5.11438 2.5 4.17157 3.08579 3.58579C3.67157 3 4.61438 3 6.5 3H16.5C17.3317 3 17.9778 3 18.5037 3.02706C16.2519 3.2741 14.5 5.18245 14.5 7.5V11.0002L14.4012 20.9671L11.5 20L8.5 21L5.5 20L2.5 21ZM21.5 11L16.5 11V7.5C16.5 6.11929 17.6193 5 19 5C20.3807 5 21.5 6.11929 21.5 7.5V11ZM4.5 7C4.5 6.44772 4.94772 6 5.5 6H11.5C12.0523 6 12.5 6.44772 12.5 7C12.5 7.55228 12.0523 8 11.5 8H5.5C4.94772 8 4.5 7.55228 4.5 7ZM4.5 11C4.5 10.4477 4.94772 10 5.5 10H7.5C8.05228 10 8.5 10.4477 8.5 11C8.5 11.5523 8.05228 12 7.5 12H5.5C4.94772 12 4.5 11.5523 4.5 11ZM4.5 15C4.5 14.4477 4.94772 14 5.5 14H9.5C10.0523 14 10.5 14.4477 10.5 15C10.5 15.5523 10.0523 16 9.5 16H5.5C4.94772 16 4.5 15.5523 4.5 15Z" fill="#1A1A8D"/>
</svg>
