<svg width="25" height="24" viewBox="0 0 25 24" fill="none" xmlns="http://www.w3.org/2000/svg">
<path d="M18.2071 13.7071L20.8552 16.3552C21.2113 16.7113 21.2113 17.2887 20.8552 17.6448C18.93 19.57 15.8821 19.7866 13.704 18.153L12.1286 16.9714C10.385 15.6638 8.83622 14.115 7.52857 12.3714L6.34701 10.796C4.71341 8.61788 4.93001 5.56999 6.85523 3.64477C7.21133 3.28867 7.78867 3.28867 8.14477 3.64477L10.7929 6.29289C11.1834 6.68342 11.1834 7.31658 10.7929 7.70711L9.77175 8.72825C9.60946 8.89054 9.56923 9.13846 9.67187 9.34373C10.8585 11.7171 12.7829 13.6415 15.1563 14.8281C15.3615 14.9308 15.6095 14.8905 15.7717 14.7283L16.7929 13.7071C17.1834 13.3166 17.8166 13.3166 18.2071 13.7071Z" fill="#FFD400" fill-opacity="0.5"/>
<path fill-rule="evenodd" clip-rule="evenodd" d="M20.8548 17.645C21.2109 17.2889 21.2109 16.7116 20.8548 16.3555L18.2066 13.7073C18.2066 13.7073 18.2065 13.7072 18.2065 13.7072C17.8159 13.3168 17.1829 13.3169 16.7924 13.7073L15.9995 14.5002L19.9044 18.405C20.2425 18.1916 20.5616 17.9381 20.8548 17.645ZM6.09473 4.59542L9.99954 8.50023L10.7924 7.70734C11.183 7.31681 11.183 6.68365 10.7924 6.29313L8.14431 3.645C7.78821 3.28891 7.21087 3.28891 6.85477 3.645C6.56165 3.93813 6.30813 4.25728 6.09473 4.59542Z" fill="#1A1A8D"/>
</svg>
