<svg width="25" height="24" viewBox="0 0 25 24" fill="none" xmlns="http://www.w3.org/2000/svg">
<path d="M7.17962 3.32038L7.79289 2.70711C8.18342 2.31658 8.81658 2.31658 9.20711 2.70711L11.7929 5.29289C12.1834 5.68342 12.1834 6.31658 11.7929 6.70711L10.0005 8.49952C9.7016 8.7984 9.6275 9.255 9.81653 9.63307C10.9093 11.8186 12.6814 13.5907 14.8669 14.6835C15.245 14.8725 15.7016 14.7984 16.0005 14.4995L17.7929 12.7071C18.1834 12.3166 18.8166 12.3166 19.2071 12.7071L21.7929 15.2929C22.1834 15.6834 22.1834 16.3166 21.7929 16.7071L21.1796 17.3204C19.0683 19.4317 15.7257 19.6693 13.337 17.8777L12.1286 16.9714C10.385 15.6638 8.83622 14.115 7.52857 12.3714L6.62226 11.163C4.83072 8.7743 5.06827 5.43173 7.17962 3.32038Z" fill="#1A1A8D"/>
</svg>
