<svg width="25" height="24" viewBox="0 0 25 24" fill="none" xmlns="http://www.w3.org/2000/svg">
<path d="M12.898 19.804L13.3585 20.6917L13.3585 20.6917L12.898 19.804ZM12.102 19.804L11.6415 20.6917L11.6415 20.6917L12.102 19.804ZM18.5 11C18.5 13.1458 17.4079 14.9159 16.045 16.2906C14.683 17.6644 13.1342 18.555 12.4376 18.9163L13.3585 20.6917C14.1448 20.2838 15.897 19.2805 17.4653 17.6987C19.0326 16.1178 20.5 13.8706 20.5 11H18.5ZM12.5 5C15.8137 5 18.5 7.68629 18.5 11H20.5C20.5 6.58172 16.9183 3 12.5 3V5ZM6.5 11C6.5 7.68629 9.18629 5 12.5 5V3C8.08172 3 4.5 6.58172 4.5 11H6.5ZM12.5624 18.9163C11.8658 18.555 10.317 17.6644 8.95503 16.2906C7.59211 14.9159 6.5 13.1458 6.5 11H4.5C4.5 13.8706 5.96741 16.1178 7.53474 17.6987C9.10299 19.2805 10.8552 20.2838 11.6415 20.6917L12.5624 18.9163ZM12.4376 18.9163C12.4514 18.9091 12.4733 18.9023 12.5 18.9023C12.5267 18.9023 12.5486 18.9091 12.5624 18.9163L11.6415 20.6917C12.1831 20.9726 12.8169 20.9726 13.3585 20.6917L12.4376 18.9163ZM14.5 11C14.5 12.1046 13.6046 13 12.5 13V15C14.7091 15 16.5 13.2091 16.5 11H14.5ZM12.5 9C13.6046 9 14.5 9.89543 14.5 11H16.5C16.5 8.79086 14.7091 7 12.5 7V9ZM10.5 11C10.5 9.89543 11.3954 9 12.5 9V7C10.2909 7 8.5 8.79086 8.5 11H10.5ZM12.5 13C11.3954 13 10.5 12.1046 10.5 11H8.5C8.5 13.2091 10.2909 15 12.5 15V13Z" fill="#1A1A8D"/>
</svg>
