<svg width="25" height="24" viewBox="0 0 25 24" fill="none" xmlns="http://www.w3.org/2000/svg">
<path fill-rule="evenodd" clip-rule="evenodd" d="M12.898 17.804C14.381 17.0348 19.5 14.0163 19.5 9C19.5 5.13401 16.366 2 12.5 2C8.63401 2 5.5 5.13401 5.5 9C5.5 14.0163 10.619 17.0348 12.102 17.804C12.3548 17.9351 12.6452 17.9351 12.898 17.804ZM12.5 12C14.1569 12 15.5 10.6569 15.5 9C15.5 7.34315 14.1569 6 12.5 6C10.8431 6 9.5 7.34315 9.5 9C9.5 10.6569 10.8431 12 12.5 12Z" fill="#FFD400" fill-opacity="0.5"/>
<path d="M12.898 17.804L13.1743 18.3366V18.3366L12.898 17.804ZM12.102 17.804L11.8257 18.3366L11.8257 18.3366L12.102 17.804ZM18.9 9C18.9 11.2907 17.7328 13.1563 16.329 14.5722C14.9258 15.9876 13.3363 16.9007 12.6218 17.2713L13.1743 18.3366C13.9427 17.938 15.6542 16.9573 17.1812 15.4171C18.7077 13.8774 20.1 11.7256 20.1 9H18.9ZM12.5 2.6C16.0346 2.6 18.9 5.46538 18.9 9H20.1C20.1 4.80264 16.6974 1.4 12.5 1.4V2.6ZM6.1 9C6.1 5.46538 8.96538 2.6 12.5 2.6V1.4C8.30264 1.4 4.9 4.80264 4.9 9H6.1ZM12.3782 17.2713C11.6637 16.9007 10.0742 15.9876 8.67097 14.5722C7.26717 13.1563 6.1 11.2907 6.1 9H4.9C4.9 11.7256 6.29235 13.8774 7.81879 15.4171C9.3458 16.9573 11.0573 17.938 11.8257 18.3366L12.3782 17.2713ZM12.6218 17.2713C12.5421 17.3127 12.4579 17.3127 12.3782 17.2713L11.8257 18.3366C12.2518 18.5576 12.7482 18.5576 13.1743 18.3366L12.6218 17.2713ZM14.9 9C14.9 10.3255 13.8255 11.4 12.5 11.4V12.6C14.4882 12.6 16.1 10.9882 16.1 9H14.9ZM12.5 6.6C13.8255 6.6 14.9 7.67452 14.9 9H16.1C16.1 7.01178 14.4882 5.4 12.5 5.4V6.6ZM10.1 9C10.1 7.67452 11.1745 6.6 12.5 6.6V5.4C10.5118 5.4 8.9 7.01178 8.9 9H10.1ZM12.5 11.4C11.1745 11.4 10.1 10.3255 10.1 9H8.9C8.9 10.9882 10.5118 12.6 12.5 12.6V11.4Z" fill="#1A1A8D"/>
<path d="M20.2942 17.5C21.0841 17.9561 21.5 18.4734 21.5 19C21.5 19.5266 21.0841 20.0439 20.2942 20.5C19.5043 20.9561 18.3682 21.3348 17 21.5981C15.6318 21.8614 14.0798 22 12.5 22C10.9202 22 9.36817 21.8614 8 21.5981C6.63183 21.3348 5.49569 20.9561 4.70577 20.5C3.91586 20.0439 3.5 19.5266 3.5 19C3.5 18.4734 3.91586 17.9561 4.70577 17.5" stroke="#1A1A8D" stroke-width="1.2" stroke-linecap="round"/>
</svg>
