<svg width="25" height="24" viewBox="0 0 25 24" fill="none" xmlns="http://www.w3.org/2000/svg">
<path d="M19.8612 17C20.6072 17.4561 21 17.9734 21 18.5C21 19.0266 20.6072 19.5439 19.8612 20C19.1152 20.4561 18.0422 20.8348 16.75 21.0981C15.4578 21.3614 13.9921 21.5 12.5 21.5C11.0079 21.5 9.54216 21.3614 8.25 21.0981C6.95784 20.8348 5.88482 20.4561 5.13878 20C4.39275 19.5439 4 19.0266 4 18.5C4 17.9734 4.39275 17.4561 5.13878 17" stroke="#1A1A8D" stroke-linecap="round"/>
<path d="M20 10C20 15.018 14.5117 18.4027 12.9249 19.2764C12.6568 19.424 12.3432 19.424 12.0751 19.2764C10.4883 18.4027 5 15.018 5 10C5 5.5 8.63401 2.5 12.5 2.5C16.5 2.5 20 5.5 20 10Z" stroke="#1A1A8D"/>
<circle cx="12.5" cy="10" r="3.5" stroke="#1A1A8D"/>
</svg>
