<svg width="25" height="24" viewBox="0 0 25 24" fill="none" xmlns="http://www.w3.org/2000/svg">
<path d="M12.898 17.804L13.3585 18.6917L13.3585 18.6917L12.898 17.804ZM12.102 17.804L11.6415 18.6917L11.6415 18.6917L12.102 17.804ZM18.5 9C18.5 11.1458 17.4079 12.9159 16.045 14.2906C14.683 15.6644 13.1342 16.555 12.4376 16.9163L13.3585 18.6917C14.1448 18.2838 15.897 17.2805 17.4653 15.6987C19.0326 14.1178 20.5 11.8706 20.5 9H18.5ZM12.5 3C15.8137 3 18.5 5.68629 18.5 9H20.5C20.5 4.58172 16.9183 1 12.5 1V3ZM6.5 9C6.5 5.68629 9.18629 3 12.5 3V1C8.08172 1 4.5 4.58172 4.5 9H6.5ZM12.5624 16.9163C11.8658 16.555 10.317 15.6644 8.95503 14.2906C7.59211 12.9159 6.5 11.1458 6.5 9H4.5C4.5 11.8706 5.96741 14.1178 7.53474 15.6987C9.10299 17.2805 10.8552 18.2838 11.6415 18.6917L12.5624 16.9163ZM12.4376 16.9163C12.4514 16.9091 12.4733 16.9023 12.5 16.9023C12.5267 16.9023 12.5486 16.9091 12.5624 16.9163L11.6415 18.6917C12.1831 18.9726 12.8169 18.9726 13.3585 18.6917L12.4376 16.9163ZM14.5 9C14.5 10.1046 13.6046 11 12.5 11V13C14.7091 13 16.5 11.2091 16.5 9H14.5ZM12.5 7C13.6046 7 14.5 7.89543 14.5 9H16.5C16.5 6.79086 14.7091 5 12.5 5V7ZM10.5 9C10.5 7.89543 11.3954 7 12.5 7V5C10.2909 5 8.5 6.79086 8.5 9H10.5ZM12.5 11C11.3954 11 10.5 10.1046 10.5 9H8.5C8.5 11.2091 10.2909 13 12.5 13V11Z" fill="#1A1A8D"/>
<path d="M20.2942 17.5C21.0841 17.9561 21.5 18.4734 21.5 19C21.5 19.5266 21.0841 20.0439 20.2942 20.5C19.5043 20.9561 18.3682 21.3348 17 21.5981C15.6318 21.8614 14.0798 22 12.5 22C10.9202 22 9.36817 21.8614 8 21.5981C6.63183 21.3348 5.49569 20.9561 4.70577 20.5C3.91586 20.0439 3.5 19.5266 3.5 19C3.5 18.4734 3.91586 17.9561 4.70577 17.5" stroke="#1A1A8D" stroke-width="2" stroke-linecap="round"/>
</svg>
