<svg width="25" height="24" viewBox="0 0 25 24" fill="none" xmlns="http://www.w3.org/2000/svg">
<path fill-rule="evenodd" clip-rule="evenodd" d="M12.898 19.804C14.381 19.0348 19.5 16.0163 19.5 11C19.5 7.13401 16.366 4 12.5 4C8.63401 4 5.5 7.13401 5.5 11C5.5 16.0163 10.619 19.0348 12.102 19.804C12.3548 19.9351 12.6452 19.9351 12.898 19.804ZM12.5 14C14.1569 14 15.5 12.6569 15.5 11C15.5 9.34315 14.1569 8 12.5 8C10.8431 8 9.5 9.34315 9.5 11C9.5 12.6569 10.8431 14 12.5 14Z" fill="#FFD400" fill-opacity="0.5"/>
<path d="M12.898 19.804L13.1743 20.3366V20.3366L12.898 19.804ZM12.102 19.804L11.8257 20.3366L11.8257 20.3366L12.102 19.804ZM18.9 11C18.9 13.2907 17.7328 15.1563 16.329 16.5722C14.9258 17.9876 13.3363 18.9007 12.6218 19.2713L13.1743 20.3366C13.9427 19.938 15.6542 18.9573 17.1812 17.4171C18.7077 15.8774 20.1 13.7256 20.1 11H18.9ZM12.5 4.6C16.0346 4.6 18.9 7.46538 18.9 11H20.1C20.1 6.80264 16.6974 3.4 12.5 3.4V4.6ZM6.1 11C6.1 7.46538 8.96538 4.6 12.5 4.6V3.4C8.30264 3.4 4.9 6.80264 4.9 11H6.1ZM12.3782 19.2713C11.6637 18.9007 10.0742 17.9876 8.67097 16.5722C7.26717 15.1563 6.1 13.2907 6.1 11H4.9C4.9 13.7256 6.29235 15.8774 7.81879 17.4171C9.3458 18.9573 11.0573 19.938 11.8257 20.3366L12.3782 19.2713ZM12.6218 19.2713C12.5421 19.3127 12.4579 19.3127 12.3782 19.2713L11.8257 20.3366C12.2518 20.5576 12.7482 20.5576 13.1743 20.3366L12.6218 19.2713ZM14.9 11C14.9 12.3255 13.8255 13.4 12.5 13.4V14.6C14.4882 14.6 16.1 12.9882 16.1 11H14.9ZM12.5 8.6C13.8255 8.6 14.9 9.67452 14.9 11H16.1C16.1 9.01178 14.4882 7.4 12.5 7.4V8.6ZM10.1 11C10.1 9.67452 11.1745 8.6 12.5 8.6V7.4C10.5118 7.4 8.9 9.01178 8.9 11H10.1ZM12.5 13.4C11.1745 13.4 10.1 12.3255 10.1 11H8.9C8.9 12.9882 10.5118 14.6 12.5 14.6V13.4Z" fill="#1A1A8D"/>
</svg>
