<svg width="25" height="24" viewBox="0 0 25 24" fill="none" xmlns="http://www.w3.org/2000/svg">
<path d="M19.8612 18C20.6072 18.4561 21 18.9734 21 19.5C21 20.0266 20.6072 20.5439 19.8612 21C19.1152 21.4561 18.0422 21.8348 16.75 22.0981C15.4578 22.3614 13.9921 22.5 12.5 22.5C11.0079 22.5 9.54216 22.3614 8.25 22.0981C6.95784 21.8348 5.88482 21.4561 5.13878 21C4.39275 20.5439 4 20.0266 4 19.5C4 18.9734 4.39275 18.4561 5.13878 18" stroke="#FFD400" stroke-opacity="0.5" stroke-linecap="round"/>
<path d="M19.5 10C19.5 15.0163 14.381 18.0348 12.898 18.804C12.6452 18.9351 12.3548 18.9351 12.102 18.804C10.619 18.0348 5.5 15.0163 5.5 10C5.5 6.13401 8.63401 3 12.5 3C16.366 3 19.5 6.13401 19.5 10Z" fill="#FFD400" fill-opacity="0.5"/>
<circle cx="12.5" cy="10" r="3" fill="#1A1A8D"/>
</svg>
