<svg width="25" height="24" viewBox="0 0 25 24" fill="none" xmlns="http://www.w3.org/2000/svg">
<path d="M8.5 4.46105C8.5 4.03164 8.5 3.81694 8.56485 3.64576C8.66633 3.37785 8.87785 3.16633 9.14576 3.06485C9.31694 3 9.53164 3 9.96105 3H15.039C15.4684 3 15.6831 3 15.8542 3.06485C16.1222 3.16633 16.3337 3.37785 16.4352 3.64576C16.5 3.81694 16.5 4.03164 16.5 4.46105V4.67946C16.5 5.56941 16.5 6.01438 16.5475 6.44837C16.6552 7.43179 16.9443 8.38671 17.4002 9.26468C17.6014 9.65214 17.8483 10.0224 18.3419 10.7629L19.3797 12.3196C19.9257 13.1385 19.4956 14.2511 18.5407 14.4898C14.5746 15.4813 10.4254 15.4813 6.45927 14.4898C5.50445 14.2511 5.07432 13.1385 5.62026 12.3196L6.65809 10.7629C7.15175 10.0224 7.39858 9.65214 7.59978 9.26468C8.05571 8.38671 8.34483 7.43179 8.45249 6.44837C8.5 6.01438 8.5 5.56941 8.5 4.67946V4.46105Z" fill="#1A1A8D"/>
<path d="M12.5 20L12.5 13.5" stroke="#1A1A8D" stroke-width="2" stroke-linecap="round"/>
<path d="M6.5 20H18.5" stroke="#1A1A8D" stroke-width="2"/>
</svg>
