<svg width="25" height="24" viewBox="0 0 25 24" fill="none" xmlns="http://www.w3.org/2000/svg">
<path d="M8.5 4.46105C8.5 4.03164 8.5 3.81694 8.56485 3.64576C8.66633 3.37785 8.87785 3.16633 9.14576 3.06485C9.31694 3 9.53164 3 9.96105 3H15.039C15.4684 3 15.6831 3 15.8542 3.06485C16.1222 3.16633 16.3337 3.37785 16.4352 3.64576C16.5 3.81694 16.5 4.03164 16.5 4.46105V4.46105C16.5 5.56756 16.5 6.12082 16.5734 6.65886C16.6878 7.49795 16.9348 8.31355 17.305 9.07519C17.5424 9.56357 17.8493 10.0239 18.4631 10.9446L19.8617 13.0426C20.1728 13.5092 19.9277 14.1431 19.3837 14.2791V14.2791C14.8641 15.409 10.1359 15.409 5.61634 14.2791V14.2791C5.07231 14.1431 4.82723 13.5092 5.13829 13.0426L6.53694 10.9446C7.15073 10.0239 7.45762 9.56357 7.69501 9.07519C8.06524 8.31355 8.31218 7.49795 8.42662 6.65886C8.5 6.12082 8.5 5.56756 8.5 4.46105V4.46105Z" stroke="#1A1A8D" stroke-width="2"/>
<path d="M12.5 20L12.5 16" stroke="#1A1A8D" stroke-width="2" stroke-linecap="round"/>
<path d="M6.5 20H18.5" stroke="#1A1A8D" stroke-width="2"/>
</svg>
