<svg width="25" height="24" viewBox="0 0 25 24" fill="none" xmlns="http://www.w3.org/2000/svg">
<path fill-rule="evenodd" clip-rule="evenodd" d="M6.31738 16.2456C6.61416 16.6778 6.95685 17.0799 7.3411 17.4441C8.39315 18.4412 9.71162 19.1121 11.137 19.3756C12.5624 19.6392 14.0336 19.484 15.3726 18.9289C16.7116 18.3738 17.8611 17.4426 18.682 16.2479C19.5028 15.0532 19.9599 13.6462 19.9979 12.1971C20.0359 10.7481 19.6531 9.31913 18.896 8.08306C18.1388 6.84699 17.0397 5.85682 15.7316 5.23233C14.8965 4.83363 13.999 4.5949 13.0851 4.52344L13.3623 5.55801C14.0312 5.64749 14.6855 5.84104 15.3008 6.13477C16.4345 6.67599 17.3871 7.53414 18.0433 8.6054C18.6994 9.67666 19.0311 10.9151 18.9982 12.1709C18.9653 13.4268 18.5692 14.6461 17.8578 15.6816C17.1464 16.717 16.1501 17.524 14.9896 18.0051C13.8292 18.4862 12.5541 18.6207 11.3188 18.3923C10.0835 18.1639 8.9408 17.5825 8.02902 16.7183C7.7832 16.4853 7.557 16.2344 7.35195 15.9683L6.31738 16.2456Z" fill="#1A1A8D"/>
<path d="M6.41239 4.06647C7.18924 3.47037 8.04796 2.99272 8.96042 2.64739C9.37978 2.48868 9.58946 2.40932 9.78694 2.51053C9.98442 2.61174 10.0465 2.84338 10.1706 3.30667L12.2412 11.0341C12.3632 11.4894 12.4242 11.7171 12.3206 11.8964C12.2171 12.0758 11.9894 12.1368 11.5341 12.2588L3.80667 14.3294C3.34338 14.4535 3.11174 14.5156 2.92535 14.3952C2.73896 14.2747 2.70284 14.0535 2.63061 13.6109C2.47344 12.6481 2.45774 11.6656 2.58555 10.6947C2.75696 9.39275 3.18314 8.13728 3.83975 7C4.49636 5.86272 5.37054 4.8659 6.41239 4.06647Z" stroke="#1A1A8D"/>
</svg>
