<svg width="25" height="24" viewBox="0 0 25 24" fill="none" xmlns="http://www.w3.org/2000/svg">
<path fill-rule="evenodd" clip-rule="evenodd" d="M5.80664 16.3818C6.14501 16.8987 6.54379 17.3772 6.99667 17.8065C8.11887 18.8701 9.52523 19.5858 11.0456 19.8668C12.566 20.1479 14.1353 19.9824 15.5636 19.3903C16.9919 18.7982 18.218 17.8049 19.0936 16.5305C19.9692 15.2562 20.4567 13.7554 20.4972 12.2098C20.5378 10.6641 20.1295 9.13989 19.3219 7.82142C18.5143 6.50295 17.3419 5.44677 15.9466 4.78065C15.0023 4.32984 13.9832 4.07076 12.9479 4.0127L13.5031 6.08459C14.0482 6.17703 14.5808 6.34484 15.0849 6.58552C16.1314 7.08511 17.0107 7.87725 17.6164 8.8661C18.2221 9.85496 18.5283 10.9981 18.4979 12.1574C18.4675 13.3166 18.1019 14.4422 17.4452 15.3979C16.7885 16.3537 15.8689 17.0987 14.7977 17.5428C13.7265 17.9868 12.5495 18.111 11.4092 17.9002C10.2689 17.6894 9.21415 17.1526 8.3725 16.3549C8.19677 16.1883 8.03189 16.0119 7.87854 15.8267L5.80664 16.3818Z" fill="#1A1A8D"/>
<path d="M6.41239 4.06647C7.18924 3.47037 8.04796 2.99272 8.96042 2.64739C9.37978 2.48868 9.58946 2.40932 9.78694 2.51053C9.98442 2.61174 10.0465 2.84338 10.1706 3.30667L12.2412 11.0341C12.3632 11.4894 12.4242 11.7171 12.3206 11.8964C12.2171 12.0758 11.9894 12.1368 11.5341 12.2588L3.80667 14.3294C3.34338 14.4535 3.11174 14.5156 2.92535 14.3952C2.73896 14.2747 2.70284 14.0535 2.63061 13.6109C2.47344 12.6481 2.45774 11.6656 2.58555 10.6947C2.75696 9.39275 3.18314 8.13728 3.83975 7C4.49636 5.86272 5.37054 4.8659 6.41239 4.06647Z" stroke="#1A1A8D" stroke-width="2"/>
</svg>
