<svg width="25" height="24" viewBox="0 0 25 24" fill="none" xmlns="http://www.w3.org/2000/svg">
<path fill-rule="evenodd" clip-rule="evenodd" d="M6.46521 15.1696C5.91311 15.3175 5.63706 15.3915 5.54741 15.6343C5.45775 15.877 5.60644 16.0937 5.90381 16.527C6.22056 16.9885 6.58637 17.4178 6.99659 17.8066C8.11878 18.8702 9.52515 19.5858 11.0455 19.8669C12.5659 20.148 14.1352 19.9825 15.5635 19.3904C16.9918 18.7983 18.2179 17.805 19.0935 16.5306C19.9691 15.2563 20.4566 13.7555 20.4972 12.2099C20.5377 10.6642 20.1294 9.13998 19.3218 7.82151C18.5142 6.50304 17.3418 5.44685 15.9465 4.78073C15.0554 4.35535 14.0979 4.10069 13.1229 4.02452C12.5989 3.98359 12.3369 3.96313 12.1715 4.16216C12.0061 4.36118 12.08 4.63725 12.228 5.18939L13.8711 11.3217L13.8737 11.3311C13.8861 11.3761 13.9278 11.5279 13.9472 11.6786C13.9739 11.8859 13.9906 12.2935 13.7451 12.7186C13.4997 13.1438 13.1384 13.3331 12.9455 13.4137C12.8053 13.4722 12.653 13.512 12.6078 13.5237L12.5983 13.5262L6.46521 15.1696Z" fill="#FFD400" fill-opacity="0.5"/>
<path d="M10.1706 3.30667C10.0465 2.84338 9.98442 2.61174 9.78694 2.51053C9.58946 2.40932 9.37978 2.48868 8.96042 2.64739C8.04796 2.99272 7.18924 3.47037 6.41239 4.06647C5.37054 4.8659 4.49636 5.86272 3.83975 7C3.18314 8.13728 2.75696 9.39275 2.58555 10.6947C2.45774 11.6656 2.47344 12.6481 2.63061 13.6109C2.70284 14.0535 2.73896 14.2747 2.92535 14.3952C3.11174 14.5156 3.34338 14.4535 3.80667 14.3294L11.5341 12.2588C11.9894 12.1368 12.2171 12.0758 12.3206 11.8964C12.4242 11.7171 12.3632 11.4894 12.2412 11.0341L10.1706 3.30667Z" fill="#1A1A8D"/>
</svg>
