<svg width="25" height="24" viewBox="0 0 25 24" fill="none" xmlns="http://www.w3.org/2000/svg">
<path d="M4.5 10C4.5 8.11438 4.5 7.17157 5.08579 6.58579C5.67157 6 6.61438 6 8.5 6H16.5C18.3856 6 19.3284 6 19.9142 6.58579C20.5 7.17157 20.5 8.11438 20.5 10V12C20.5 12.9428 20.5 13.4142 20.2071 13.7071C19.9142 14 19.4428 14 18.5 14H17.8C17.6586 14 17.5879 14 17.5439 13.9561C17.5 13.9121 17.5 13.8414 17.5 13.7V13C17.5 12.0572 17.5 11.5858 17.2071 11.2929C16.9142 11 16.4428 11 15.5 11H9.5C8.55719 11 8.08579 11 7.79289 11.2929C7.5 11.5858 7.5 12.0572 7.5 13V13.7C7.5 13.8414 7.5 13.9121 7.45607 13.9561C7.41213 14 7.34142 14 7.2 14H5.5C5.0286 14 4.79289 14 4.64645 13.8536C4.5 13.7071 4.5 13.4714 4.5 13V10Z" fill="#1A1A8D"/>
<path d="M7.5 20.2615L7.5 13C7.5 12.0572 7.5 11.5858 7.79289 11.2929C8.08579 11 8.55719 11 9.5 11L15.5 11C16.4428 11 16.9142 11 17.2071 11.2929C17.5 11.5858 17.5 12.0572 17.5 13L17.5 20.2615C17.5 20.5961 17.5 20.7634 17.3902 20.8378C17.2803 20.9121 17.125 20.85 16.8143 20.7257L15.1857 20.0743C15.094 20.0376 15.0481 20.0193 15 20.0193C14.9519 20.0193 14.906 20.0376 14.8143 20.0743L12.6857 20.9257C12.594 20.9624 12.5481 20.9807 12.5 20.9807C12.4519 20.9807 12.406 20.9624 12.3143 20.9257L10.1857 20.0743C10.094 20.0376 10.0481 20.0193 10 20.0193C9.95185 20.0193 9.906 20.0376 9.8143 20.0743L8.1857 20.7257C7.87502 20.85 7.71969 20.9121 7.60984 20.8378C7.5 20.7634 7.5 20.5961 7.5 20.2615Z" fill="#FFD400" fill-opacity="0.5"/>
<path d="M10 14.5L14 14.5" stroke="#1A1A8D" stroke-linecap="round"/>
<path d="M10 17.5L15 17.5" stroke="#1A1A8D" stroke-linecap="round"/>
<path d="M7.5 4.73913C7.5 4.04725 7.5 3.70131 7.66382 3.45155C7.73899 3.33693 7.83693 3.23899 7.95155 3.16382C8.20131 3 8.54725 3 9.23913 3H15.7609C16.4528 3 16.7987 3 17.0485 3.16382C17.1631 3.23899 17.261 3.33693 17.3362 3.45155C17.5 3.70131 17.5 4.04725 17.5 4.73913C17.5 4.84291 17.5 4.8948 17.4754 4.93227C17.4642 4.94946 17.4495 4.96415 17.4323 4.97543C17.3948 5 17.3429 5 17.2391 5H7.76087C7.65709 5 7.6052 5 7.56773 4.97543C7.55054 4.96415 7.53585 4.94946 7.52457 4.93227C7.5 4.8948 7.5 4.84291 7.5 4.73913Z" fill="#1A1A8D"/>
</svg>
