<svg width="25" height="24" viewBox="0 0 25 24" fill="none" xmlns="http://www.w3.org/2000/svg">
<path fill-rule="evenodd" clip-rule="evenodd" d="M21.5 12C21.5 16.9706 17.4706 21 12.5 21C7.52944 21 3.5 16.9706 3.5 12C3.5 7.02944 7.52944 3 12.5 3C17.4706 3 21.5 7.02944 21.5 12ZM13.5 18C13.5 18.5523 13.0523 19 12.5 19C11.9477 19 11.5 18.5523 11.5 18C11.5 17.4477 11.9477 17 12.5 17C13.0523 17 13.5 17.4477 13.5 18ZM12.5 5C10.2909 5 8.5 6.79086 8.5 9H10.5C10.5 7.89543 11.3954 7 12.5 7H12.5943C13.6468 7 14.5 7.85321 14.5 8.90569V9.41886C14.5 9.93267 14.1712 10.3888 13.6838 10.5513C12.3796 10.986 11.5 12.2065 11.5 13.5811V16H13.5V13.5811C13.5 13.0673 13.8288 12.6112 14.3162 12.4487C15.6204 12.014 16.5 10.7935 16.5 9.41886V8.90569C16.5 6.74864 14.7514 5 12.5943 5H12.5Z" fill="#1A1A8D"/>
</svg>
