<svg width="25" height="24" viewBox="0 0 25 24" fill="none" xmlns="http://www.w3.org/2000/svg">
<path d="M7.93606 5.95481L7.47989 5.75007L7.93606 5.95481ZM17.0639 5.95481L16.6078 6.15954L17.0639 5.95481ZM12.5 12.5H6.5V13.5H12.5V12.5ZM18.5 12.5H12.5V13.5H18.5V12.5ZM21 10C21 11.3807 19.8807 12.5 18.5 12.5V13.5C20.433 13.5 22 11.933 22 10H21ZM18.5 7.5C19.8807 7.5 21 8.61929 21 10H22C22 8.067 20.433 6.5 18.5 6.5V7.5ZM17.5201 5.75007C16.6607 3.83526 14.7368 2.5 12.5 2.5V3.5C14.3287 3.5 15.9038 4.59089 16.6078 6.15954L17.5201 5.75007ZM12.5 2.5C10.2632 2.5 8.33928 3.83526 7.47989 5.75007L8.39222 6.15954C9.09624 4.59089 10.6713 3.5 12.5 3.5V2.5ZM6.5 6.5C4.567 6.5 3 8.067 3 10H4C4 8.61929 5.11929 7.5 6.5 7.5V6.5ZM3 10C3 11.933 4.567 13.5 6.5 13.5V12.5C5.11929 12.5 4 11.3807 4 10H3ZM7.47989 5.75007C7.27146 6.21449 6.88469 6.5 6.5 6.5V7.5C7.39538 7.5 8.07652 6.86297 8.39222 6.15954L7.47989 5.75007ZM18.5 6.5C18.1153 6.5 17.7285 6.21449 17.5201 5.75007L16.6078 6.15954C16.9235 6.86297 17.6046 7.5 18.5 7.5V6.5Z" fill="#1A1A8D"/>
<path d="M12.5 19V17" stroke="#1A1A8D" stroke-linecap="round"/>
<path d="M17.5 20V17" stroke="#1A1A8D" stroke-linecap="round"/>
<path d="M7.5 21V17" stroke="#1A1A8D" stroke-linecap="round"/>
</svg>
