<svg width="25" height="24" viewBox="0 0 25 24" fill="none" xmlns="http://www.w3.org/2000/svg">
<path d="M7.93606 5.95481L7.02373 5.54534L7.93606 5.95481ZM17.0639 5.95481L16.1516 6.36427L17.0639 5.95481ZM12.5 12H6.5V14H12.5V12ZM18.5 12H12.5V14H18.5V12ZM20.5 10C20.5 11.1046 19.6046 12 18.5 12V14C20.7091 14 22.5 12.2091 22.5 10H20.5ZM18.5 8C19.6046 8 20.5 8.89543 20.5 10H22.5C22.5 7.79086 20.7091 6 18.5 6V8ZM17.9763 5.54534C17.0392 3.45744 14.9409 2 12.5 2V4C14.1247 4 15.5253 4.96871 16.1516 6.36427L17.9763 5.54534ZM12.5 2C10.0591 2 7.9608 3.45744 7.02373 5.54534L8.84839 6.36427C9.47472 4.96871 10.8753 4 12.5 4V2ZM6.5 6C4.29086 6 2.5 7.79086 2.5 10H4.5C4.5 8.89543 5.39543 8 6.5 8V6ZM2.5 10C2.5 12.2091 4.29086 14 6.5 14V12C5.39543 12 4.5 11.1046 4.5 10H2.5ZM7.02373 5.54534C6.86893 5.89026 6.62934 6 6.5 6V8C7.65073 8 8.47904 7.1872 8.84839 6.36427L7.02373 5.54534ZM18.5 6C18.3707 6 18.1311 5.89026 17.9763 5.54534L16.1516 6.36427C16.521 7.1872 17.3493 8 18.5 8V6Z" fill="#1A1A8D"/>
<path d="M12.5 19V17" stroke="#1A1A8D" stroke-width="2" stroke-linecap="round"/>
<path d="M17.5 20V17" stroke="#1A1A8D" stroke-width="2" stroke-linecap="round"/>
<path d="M7.5 21V17" stroke="#1A1A8D" stroke-width="2" stroke-linecap="round"/>
</svg>
