<svg width="25" height="24" viewBox="0 0 25 24" fill="none" xmlns="http://www.w3.org/2000/svg">
<path fill-rule="evenodd" clip-rule="evenodd" d="M6.5 13H12.5H18.5C20.1569 13 21.5 11.6569 21.5 10C21.5 8.34315 20.1569 7 18.5 7C17.86 7 17.326 6.53873 17.0639 5.95481C16.2822 4.21307 14.5328 3 12.5 3C10.4672 3 8.71776 4.21308 7.93606 5.95481C7.67399 6.53873 7.14004 7 6.5 7C4.84315 7 3.5 8.34315 3.5 10C3.5 11.6569 4.84315 13 6.5 13Z" fill="#FFD400" fill-opacity="0.5"/>
<path d="M7.93606 5.95481L7.38866 5.70913L7.93606 5.95481ZM17.0639 5.95481L16.5165 6.20048L17.0639 5.95481ZM12.5 12.4H6.5V13.6H12.5V12.4ZM18.5 12.4H12.5V13.6H18.5V12.4ZM20.9 10C20.9 11.3255 19.8255 12.4 18.5 12.4V13.6C20.4882 13.6 22.1 11.9882 22.1 10H20.9ZM18.5 7.6C19.8255 7.6 20.9 8.67452 20.9 10H22.1C22.1 8.01178 20.4882 6.4 18.5 6.4V7.6ZM17.6113 5.70913C16.7364 3.75969 14.7776 2.4 12.5 2.4V3.6C14.2879 3.6 15.8281 4.66646 16.5165 6.20048L17.6113 5.70913ZM12.5 2.4C10.2224 2.4 8.26359 3.75969 7.38866 5.70913L8.48345 6.20048C9.17194 4.66646 10.7121 3.6 12.5 3.6V2.4ZM6.5 6.4C4.51177 6.4 2.9 8.01178 2.9 10H4.1C4.1 8.67452 5.17452 7.6 6.5 7.6V6.4ZM2.9 10C2.9 11.9882 4.51177 13.6 6.5 13.6V12.4C5.17452 12.4 4.1 11.3255 4.1 10H2.9ZM7.38866 5.70913C7.19095 6.14965 6.83362 6.4 6.5 6.4V7.6C7.44645 7.6 8.15702 6.92781 8.48345 6.20048L7.38866 5.70913ZM18.5 6.4C18.1664 6.4 17.809 6.14965 17.6113 5.70913L16.5165 6.20048C16.843 6.92781 17.5535 7.6 18.5 7.6V6.4Z" fill="#1A1A8D"/>
<path d="M12.5 18V16" stroke="#1A1A8D" stroke-width="1.2" stroke-linecap="round"/>
<path d="M17.5 19V16" stroke="#1A1A8D" stroke-width="1.2" stroke-linecap="round"/>
<path d="M7.5 20V16" stroke="#1A1A8D" stroke-width="1.2" stroke-linecap="round"/>
</svg>
