<svg width="25" height="24" viewBox="0 0 25 24" fill="none" xmlns="http://www.w3.org/2000/svg">
<path d="M15.5 15V14H14.5V15H15.5ZM20.7929 21.7071C21.1834 22.0976 21.8166 22.0976 22.2071 21.7071C22.5976 21.3166 22.5976 20.6834 22.2071 20.2929L20.7929 21.7071ZM15.5 9H14.5V10H15.5V9ZM22.2071 3.70711C22.5976 3.31658 22.5976 2.68342 22.2071 2.29289C21.8166 1.90237 21.1834 1.90237 20.7929 2.29289L22.2071 3.70711ZM9.5 15H10.5V14H9.5V15ZM2.79289 20.2929C2.40237 20.6834 2.40237 21.3166 2.79289 21.7071C3.18342 22.0976 3.81658 22.0976 4.20711 21.7071L2.79289 20.2929ZM9.5 9V10H10.5V9H9.5ZM4.20711 2.29289C3.81658 1.90237 3.18342 1.90237 2.79289 2.29289C2.40237 2.68342 2.40237 3.31658 2.79289 3.70711L4.20711 2.29289ZM16.5 20V15H14.5V20H16.5ZM15.5 16H20.5V14H15.5V16ZM14.7929 15.7071L20.7929 21.7071L22.2071 20.2929L16.2071 14.2929L14.7929 15.7071ZM14.5 4V9H16.5V4H14.5ZM15.5 10H20.5V8H15.5V10ZM16.2071 9.70711L22.2071 3.70711L20.7929 2.29289L14.7929 8.29289L16.2071 9.70711ZM10.5 20V15H8.5V20H10.5ZM9.5 14H4.5V16H9.5V14ZM8.79289 14.2929L2.79289 20.2929L4.20711 21.7071L10.2071 15.7071L8.79289 14.2929ZM8.5 4V9H10.5V4H8.5ZM9.5 8H4.5V10H9.5V8ZM10.2071 8.29289L4.20711 2.29289L2.79289 3.70711L8.79289 9.70711L10.2071 8.29289Z" fill="#1A1A8D"/>
</svg>
