<svg width="25" height="24" viewBox="0 0 25 24" fill="none" xmlns="http://www.w3.org/2000/svg">
<path d="M15.5 15V14.5H15V15H15.5ZM21.1464 21.3536C21.3417 21.5488 21.6583 21.5488 21.8536 21.3536C22.0488 21.1583 22.0488 20.8417 21.8536 20.6464L21.1464 21.3536ZM15.5 9H15V9.5H15.5V9ZM21.8536 3.35355C22.0488 3.15829 22.0488 2.84171 21.8536 2.64645C21.6583 2.45118 21.3417 2.45118 21.1464 2.64645L21.8536 3.35355ZM9.5 15H10V14.5H9.5V15ZM3.14645 20.6464C2.95118 20.8417 2.95118 21.1583 3.14645 21.3536C3.34171 21.5488 3.65829 21.5488 3.85355 21.3536L3.14645 20.6464ZM9.5 9V9.5H10V9H9.5ZM3.85355 2.64645C3.65829 2.45118 3.34171 2.45118 3.14645 2.64645C2.95118 2.84171 2.95118 3.15829 3.14645 3.35355L3.85355 2.64645ZM16 20V15H15V20H16ZM15.5 15.5H20.5V14.5H15.5V15.5ZM15.1464 15.3536L21.1464 21.3536L21.8536 20.6464L15.8536 14.6464L15.1464 15.3536ZM15 4V9H16V4H15ZM15.5 9.5H20.5V8.5H15.5V9.5ZM15.8536 9.35355L21.8536 3.35355L21.1464 2.64645L15.1464 8.64645L15.8536 9.35355ZM10 20V15H9V20H10ZM9.5 14.5H4.5V15.5H9.5V14.5ZM9.14645 14.6464L3.14645 20.6464L3.85355 21.3536L9.85355 15.3536L9.14645 14.6464ZM9 4V9H10V4H9ZM9.5 8.5H4.5V9.5H9.5V8.5ZM9.85355 8.64645L3.85355 2.64645L3.14645 3.35355L9.14645 9.35355L9.85355 8.64645Z" fill="#1A1A8D"/>
</svg>
