<svg width="25" height="24" viewBox="0 0 25 24" fill="none" xmlns="http://www.w3.org/2000/svg">
<path d="M14.5 15L10.5 19L14.5 23" stroke="#1A1A8D"/>
<path d="M18.5622 8.5C19.2138 9.62862 19.5374 10.9167 19.4966 12.2193C19.4557 13.5219 19.0521 14.7872 18.3311 15.8728C17.61 16.9584 16.6003 17.8212 15.4155 18.364C14.2307 18.9067 12.9179 19.108 11.6249 18.9451" stroke="#1A1A8D" stroke-linecap="round"/>
<path d="M10.5 9L14.5 5L10.5 1" stroke="#1A1A8D"/>
<path d="M6.43782 15.5C5.77676 14.355 5.45347 13.0462 5.5054 11.7251C5.55733 10.404 5.98234 9.12457 6.73124 8.03498C7.48013 6.9454 8.52229 6.09019 9.73708 5.56834C10.9519 5.04649 12.2896 4.87934 13.5955 5.08625" stroke="#1A1A8D" stroke-linecap="round"/>
</svg>
