<svg width="25" height="24" viewBox="0 0 25 24" fill="none" xmlns="http://www.w3.org/2000/svg">
<path d="M16.5 20L15.7929 20.7071L16.5 21.4142L17.2071 20.7071L16.5 20ZM4.5 15C4.5 15.5523 4.94772 16 5.5 16C6.05228 16 6.5 15.5523 6.5 15L4.5 15ZM10.7929 15.7071L15.7929 20.7071L17.2071 19.2929L12.2071 14.2929L10.7929 15.7071ZM17.2071 20.7071L22.2071 15.7071L20.7929 14.2929L15.7929 19.2929L17.2071 20.7071ZM17.5 20L17.5 9.5L15.5 9.5L15.5 20L17.5 20ZM4.5 9.5L4.5 15L6.5 15L6.5 9.5L4.5 9.5ZM11 3C7.41015 3 4.5 5.91015 4.5 9.5L6.5 9.5C6.5 7.01472 8.51472 5 11 5L11 3ZM17.5 9.5C17.5 5.91015 14.5899 3 11 3L11 5C13.4853 5 15.5 7.01472 15.5 9.5L17.5 9.5Z" fill="#1A1A8D"/>
</svg>
