<svg width="25" height="24" viewBox="0 0 25 24" fill="none" xmlns="http://www.w3.org/2000/svg">
<path d="M8.5 4L9.20711 3.29289L8.5 2.58579L7.79289 3.29289L8.5 4ZM20.5 9C20.5 8.44772 20.0523 8 19.5 8C18.9477 8 18.5 8.44772 18.5 9L20.5 9ZM14.2071 8.29289L9.20711 3.29289L7.79289 4.70711L12.7929 9.70711L14.2071 8.29289ZM7.79289 3.29289L2.79289 8.29289L4.20711 9.70711L9.20711 4.70711L7.79289 3.29289ZM7.5 4L7.5 14.5L9.5 14.5L9.5 4L7.5 4ZM20.5 14.5L20.5 9L18.5 9L18.5 14.5L20.5 14.5ZM14 21C17.5899 21 20.5 18.0898 20.5 14.5L18.5 14.5C18.5 16.9853 16.4853 19 14 19L14 21ZM7.5 14.5C7.5 18.0899 10.4101 21 14 21L14 19C11.5147 19 9.5 16.9853 9.5 14.5L7.5 14.5Z" fill="#1A1A8D"/>
</svg>
