<svg width="25" height="24" viewBox="0 0 25 24" fill="none" xmlns="http://www.w3.org/2000/svg">
<path d="M4.5 8L3.79289 8.70711L3.08579 8L3.79289 7.29289L4.5 8ZM9.5 20C8.94772 20 8.5 19.5523 8.5 19C8.5 18.4477 8.94772 18 9.5 18L9.5 20ZM8.79289 13.7071L3.79289 8.70711L5.20711 7.29289L10.2071 12.2929L8.79289 13.7071ZM3.79289 7.29289L8.79289 2.29289L10.2071 3.70711L5.20711 8.70711L3.79289 7.29289ZM4.5 7L15 7L15 9L4.5 9L4.5 7ZM15 20L9.5 20L9.5 18L15 18L15 20ZM21.5 13.5C21.5 17.0898 18.5898 20 15 20L15 18C17.4853 18 19.5 15.9853 19.5 13.5L21.5 13.5ZM15 7C18.5899 7 21.5 9.91015 21.5 13.5L19.5 13.5C19.5 11.0147 17.4853 9 15 9L15 7Z" fill="#1A1A8D"/>
</svg>
