<svg width="25" height="24" viewBox="0 0 25 24" fill="none" xmlns="http://www.w3.org/2000/svg">
<path d="M8.5 4L8.85355 3.64645L8.5 3.29289L8.14645 3.64645L8.5 4ZM20 9C20 8.72386 19.7761 8.5 19.5 8.5C19.2239 8.5 19 8.72386 19 9L20 9ZM13.8536 8.64645L8.85355 3.64645L8.14645 4.35355L13.1464 9.35355L13.8536 8.64645ZM8.14645 3.64645L3.14645 8.64645L3.85355 9.35355L8.85355 4.35355L8.14645 3.64645ZM8 4L8 14.5L9 14.5L9 4L8 4ZM20 14.5L20 9L19 9L19 14.5L20 14.5ZM14 20.5C17.3137 20.5 20 17.8137 20 14.5L19 14.5C19 17.2614 16.7614 19.5 14 19.5L14 20.5ZM8 14.5C8 17.8137 10.6863 20.5 14 20.5L14 19.5C11.2386 19.5 9 17.2614 9 14.5L8 14.5Z" fill="#1A1A8D"/>
</svg>
