<svg width="25" height="24" viewBox="0 0 25 24" fill="none" xmlns="http://www.w3.org/2000/svg">
<path d="M20.5 8L20.8536 8.35355L21.2071 8L20.8536 7.64645L20.5 8ZM15.5 19.5C15.7761 19.5 16 19.2761 16 19C16 18.7239 15.7761 18.5 15.5 18.5L15.5 19.5ZM15.8536 13.3536L20.8536 8.35355L20.1464 7.64645L15.1464 12.6464L15.8536 13.3536ZM20.8536 7.64645L15.8536 2.64645L15.1464 3.35355L20.1464 8.35355L20.8536 7.64645ZM20.5 7.5L10 7.5L10 8.5L20.5 8.5L20.5 7.5ZM10 19.5L15.5 19.5L15.5 18.5L10 18.5L10 19.5ZM4 13.5C4 16.8137 6.68629 19.5 10 19.5L10 18.5C7.23858 18.5 5 16.2614 5 13.5L4 13.5ZM10 7.5C6.68629 7.5 4 10.1863 4 13.5L5 13.5C5 10.7386 7.23858 8.5 10 8.5L10 7.5Z" fill="#1A1A8D"/>
</svg>
