<svg width="25" height="24" viewBox="0 0 25 24" fill="none" xmlns="http://www.w3.org/2000/svg">
<path d="M20.5 8L21.2071 8.70711L21.9142 8L21.2071 7.29289L20.5 8ZM15.5 20C16.0523 20 16.5 19.5523 16.5 19C16.5 18.4477 16.0523 18 15.5 18L15.5 20ZM16.2071 13.7071L21.2071 8.70711L19.7929 7.29289L14.7929 12.2929L16.2071 13.7071ZM21.2071 7.29289L16.2071 2.29289L14.7929 3.70711L19.7929 8.70711L21.2071 7.29289ZM20.5 7L10 7L10 9L20.5 9L20.5 7ZM10 20L15.5 20L15.5 18L10 18L10 20ZM3.5 13.5C3.5 17.0898 6.41015 20 10 20L10 18C7.51472 18 5.5 15.9853 5.5 13.5L3.5 13.5ZM10 7C6.41015 7 3.5 9.91015 3.5 13.5L5.5 13.5C5.5 11.0147 7.51472 9 10 9L10 7Z" fill="#1A1A8D"/>
</svg>
