<svg width="25" height="24" viewBox="0 0 25 24" fill="none" xmlns="http://www.w3.org/2000/svg">
<path d="M16.5 20L16.1464 20.3536L16.5 20.7071L16.8536 20.3536L16.5 20ZM5 15C5 15.2761 5.22386 15.5 5.5 15.5C5.77614 15.5 6 15.2761 6 15L5 15ZM11.1464 15.3536L16.1464 20.3536L16.8536 19.6464L11.8536 14.6464L11.1464 15.3536ZM16.8536 20.3536L21.8536 15.3536L21.1464 14.6464L16.1464 19.6464L16.8536 20.3536ZM17 20L17 9.5L16 9.5L16 20L17 20ZM5 9.5L5 15L6 15L6 9.5L5 9.5ZM11 3.5C7.68629 3.5 5 6.18629 5 9.5L6 9.5C6 6.73858 8.23858 4.5 11 4.5L11 3.5ZM17 9.5C17 6.18629 14.3137 3.5 11 3.5L11 4.5C13.7614 4.5 16 6.73858 16 9.5L17 9.5Z" fill="#1A1A8D"/>
</svg>
