<svg width="25" height="24" viewBox="0 0 25 24" fill="none" xmlns="http://www.w3.org/2000/svg">
<path d="M4.5 8L4.14645 8.35355L3.79289 8L4.14645 7.64645L4.5 8ZM9.5 19.5C9.22386 19.5 9 19.2761 9 19C9 18.7239 9.22386 18.5 9.5 18.5L9.5 19.5ZM9.14645 13.3536L4.14645 8.35355L4.85355 7.64645L9.85355 12.6464L9.14645 13.3536ZM4.14645 7.64645L9.14645 2.64645L9.85355 3.35355L4.85355 8.35355L4.14645 7.64645ZM4.5 7.5L15 7.5L15 8.5L4.5 8.5L4.5 7.5ZM15 19.5L9.5 19.5L9.5 18.5L15 18.5L15 19.5ZM21 13.5C21 16.8137 18.3137 19.5 15 19.5L15 18.5C17.7614 18.5 20 16.2614 20 13.5L21 13.5ZM15 7.5C18.3137 7.5 21 10.1863 21 13.5L20 13.5C20 10.7386 17.7614 8.5 15 8.5L15 7.5Z" fill="#1A1A8D"/>
</svg>
