<svg width="25" height="24" viewBox="0 0 25 24" fill="none" xmlns="http://www.w3.org/2000/svg">
<path d="M18.5 20L18.1464 20.3536L18.5 20.7071L18.8536 20.3536L18.5 20ZM13.5 4.5C13.2239 4.5 13 4.72386 13 5C13 5.27614 13.2239 5.5 13.5 5.5L13.5 4.5ZM14.1464 16.3536L18.1464 20.3536L18.8536 19.6464L14.8536 15.6464L14.1464 16.3536ZM18.8536 20.3536L22.8536 16.3536L22.1464 15.6464L18.1464 19.6464L18.8536 20.3536ZM19 20L19 9L18 9L18 20L19 20ZM14.5 4.5L13.5 4.5L13.5 5.5L14.5 5.5L14.5 4.5ZM19 9C19 6.51472 16.9853 4.5 14.5 4.5L14.5 5.5C16.433 5.5 18 7.067 18 9L19 9Z" fill="#1A1A8D"/>
<path d="M6.5 4L6.85355 3.64645L6.5 3.29289L6.14645 3.64645L6.5 4ZM11.5 19.5C11.7761 19.5 12 19.2761 12 19C12 18.7239 11.7761 18.5 11.5 18.5L11.5 19.5ZM10.8536 7.64645L6.85355 3.64645L6.14645 4.35355L10.1464 8.35355L10.8536 7.64645ZM6.14645 3.64645L2.14645 7.64645L2.85355 8.35355L6.85355 4.35355L6.14645 3.64645ZM6 4L6 15L7 15L7 4L6 4ZM10.5 19.5L11.5 19.5L11.5 18.5L10.5 18.5L10.5 19.5ZM6 15C6 17.4853 8.01472 19.5 10.5 19.5L10.5 18.5C8.567 18.5 7 16.933 7 15L6 15Z" fill="#1A1A8D"/>
</svg>
