<svg width="25" height="24" viewBox="0 0 25 24" fill="none" xmlns="http://www.w3.org/2000/svg">
<path d="M18.5 20L17.7929 20.7071L18.5 21.4142L19.2071 20.7071L18.5 20ZM13.5 4C12.9477 4 12.5 4.44771 12.5 5C12.5 5.55229 12.9477 6 13.5 6L13.5 4ZM13.7929 16.7071L17.7929 20.7071L19.2071 19.2929L15.2071 15.2929L13.7929 16.7071ZM19.2071 20.7071L23.2071 16.7071L21.7929 15.2929L17.7929 19.2929L19.2071 20.7071ZM19.5 20L19.5 9L17.5 9L17.5 20L19.5 20ZM14.5 4L13.5 4L13.5 6L14.5 6L14.5 4ZM19.5 9C19.5 6.23858 17.2614 4 14.5 4L14.5 6C16.1569 6 17.5 7.34315 17.5 9L19.5 9Z" fill="#1A1A8D"/>
<path d="M6.5 4L7.20711 3.29289L6.5 2.58579L5.79289 3.29289L6.5 4ZM11.5 20C12.0523 20 12.5 19.5523 12.5 19C12.5 18.4477 12.0523 18 11.5 18L11.5 20ZM11.2071 7.29289L7.20711 3.29289L5.79289 4.70711L9.79289 8.70711L11.2071 7.29289ZM5.79289 3.29289L1.79289 7.29289L3.20711 8.70711L7.20711 4.70711L5.79289 3.29289ZM5.5 4L5.5 15L7.5 15L7.5 4L5.5 4ZM10.5 20L11.5 20L11.5 18L10.5 18L10.5 20ZM5.5 15C5.5 17.7614 7.73858 20 10.5 20L10.5 18C8.84315 18 7.5 16.6569 7.5 15L5.5 15Z" fill="#1A1A8D"/>
</svg>
