<svg width="25" height="24" viewBox="0 0 25 24" fill="none" xmlns="http://www.w3.org/2000/svg">
<path d="M20.5 10L21.2071 10.7071L21.9142 10L21.2071 9.29289L20.5 10ZM3.5 18C3.5 18.5523 3.94772 19 4.5 19C5.05229 19 5.5 18.5523 5.5 18L3.5 18ZM16.2071 15.7071L21.2071 10.7071L19.7929 9.29289L14.7929 14.2929L16.2071 15.7071ZM21.2071 9.29289L16.2071 4.29289L14.7929 5.70711L19.7929 10.7071L21.2071 9.29289ZM20.5 9L10.5 9L10.5 11L20.5 11L20.5 9ZM3.5 16L3.5 18L5.5 18L5.5 16L3.5 16ZM10.5 9C6.63401 9 3.5 12.134 3.5 16L5.5 16C5.5 13.2386 7.73858 11 10.5 11L10.5 9Z" fill="#1A1A8D"/>
</svg>
