<svg width="25" height="24" viewBox="0 0 25 24" fill="none" xmlns="http://www.w3.org/2000/svg">
<path d="M20.5 10L20.8536 10.3536L21.2071 10L20.8536 9.64645L20.5 10ZM4 18C4 18.2761 4.22386 18.5 4.5 18.5C4.77614 18.5 5 18.2761 5 18L4 18ZM15.8536 15.3536L20.8536 10.3536L20.1464 9.64645L15.1464 14.6464L15.8536 15.3536ZM20.8536 9.64645L15.8536 4.64645L15.1464 5.35355L20.1464 10.3536L20.8536 9.64645ZM20.5 9.5L10.5 9.5L10.5 10.5L20.5 10.5L20.5 9.5ZM4 16L4 18L5 18L5 16L4 16ZM10.5 9.5C6.91015 9.5 4 12.4101 4 16L5 16C5 12.9624 7.46243 10.5 10.5 10.5L10.5 9.5Z" fill="#1A1A8D"/>
</svg>
