<svg width="25" height="24" viewBox="0 0 25 24" fill="none" xmlns="http://www.w3.org/2000/svg">
<path d="M12.5 6.5V6.5C10.443 6.5 8.65002 7.89994 8.15113 9.8955L7.42289 12.8085C7.15078 13.8969 6.48274 14.8448 5.54923 15.4672V15.4672C5.08513 15.7766 5.30417 16.5 5.86195 16.5H19.1381C19.6958 16.5 19.9149 15.7766 19.4508 15.4672V15.4672C18.5173 14.8448 17.8492 13.8969 17.5771 12.8085L16.8489 9.8955C16.35 7.89994 14.557 6.5 12.5 6.5V6.5ZM12.5 6.5V3" stroke="#FFD400" stroke-opacity="0.5" stroke-linecap="round"/>
<path d="M10.0852 18.647C10.2276 19.1786 10.5415 19.6484 10.9781 19.9834C11.4147 20.3184 11.9497 20.5 12.5 20.5C13.0503 20.5 13.5853 20.3184 14.0219 19.9834C14.4585 19.6484 14.7724 19.1786 14.9148 18.647" stroke="#1A1A8D" stroke-linecap="round"/>
</svg>
