<svg width="25" height="24" viewBox="0 0 25 24" fill="none" xmlns="http://www.w3.org/2000/svg">
<path d="M7.8424 12.9456C8.22187 10.6688 10.1918 9 12.5 9V9C14.8082 9 16.7781 10.6688 17.1576 12.9456L17.2605 13.5631C17.4163 14.4976 17.8601 15.3601 18.53 16.03V16.03C18.888 16.388 18.6345 17 18.1283 17H6.87174C6.36553 17 6.11202 16.388 6.46997 16.03V16.03C7.13988 15.3601 7.58373 14.4976 7.73948 13.5631L7.8424 12.9456Z" stroke="#1A1A8D"/>
<path d="M11.5 9L12.5 3" stroke="#1A1A8D" stroke-linecap="round"/>
<path d="M13.5 9L12.5 3" stroke="#1A1A8D" stroke-linecap="round"/>
<path d="M10.5681 20.6294C10.6821 20.7357 10.9332 20.8297 11.2825 20.8967C11.6318 20.9637 12.0597 21 12.5 21C12.9403 21 13.3682 20.9637 13.7175 20.8967C14.0668 20.8297 14.3179 20.7357 14.4319 20.6294" stroke="#1A1A8D" stroke-linecap="round"/>
</svg>
