<svg width="25" height="24" viewBox="0 0 25 24" fill="none" xmlns="http://www.w3.org/2000/svg">
<path d="M7.58384 9.89367C8.12063 7.61232 10.1563 6 12.5 6C14.8437 6 16.8794 7.61232 17.4162 9.89367L18.0601 12.6304C18.3456 13.8438 19.0178 14.9315 19.9755 15.7296C20.4917 16.1598 20.1875 17 19.5155 17H5.48449C4.81249 17 4.50828 16.1598 5.02452 15.7296C5.98215 14.9315 6.65439 13.8438 6.9399 12.6304L7.58384 9.89367Z" fill="#FFD400" fill-opacity="0.5"/>
<path d="M13 2C13 1.72386 12.7761 1.5 12.5 1.5C12.2239 1.5 12 1.72386 12 2H13ZM13 5V2H12V5H13Z" fill="#1A1A8D"/>
<path d="M14.85 18C14.9328 18 15.0007 18.0673 14.993 18.1498C14.9484 18.6254 14.6923 19.0746 14.2678 19.4142C13.7989 19.7893 13.163 20 12.5 20C11.837 20 11.2011 19.7893 10.7322 19.4142C10.3077 19.0746 10.0516 18.6254 10.007 18.1498C9.99928 18.0673 10.0672 18 10.15 18L12.5 18L14.85 18Z" fill="#1A1A8D"/>
</svg>
