<svg width="25" height="24" viewBox="0 0 25 24" fill="none" xmlns="http://www.w3.org/2000/svg">
<path d="M7.40111 11.8461C8.05156 9.56955 10.1324 8 12.5 8C14.8677 8 16.9484 9.56954 17.5989 11.8461L18.1571 13.7998C18.3843 14.5951 18.7336 15.3504 19.1924 16.0386L19.3012 16.2018C19.4408 16.4111 19.5105 16.5158 19.545 16.5932C19.8105 17.1894 19.443 17.8759 18.7997 17.9857C18.7162 18 18.5904 18 18.3388 18H6.66116C6.40958 18 6.28379 18 6.20027 17.9857C5.55697 17.8759 5.18952 17.1894 5.455 16.5932C5.48947 16.5158 5.55924 16.4111 5.69879 16.2018L5.80758 16.0386C6.26642 15.3504 6.61569 14.5951 6.84293 13.7998L7.40111 11.8461Z" fill="#1A1A8D"/>
<path d="M11.5 9L12.5 3" stroke="#1A1A8D" stroke-width="2" stroke-linecap="round"/>
<path d="M13.5 9L12.5 3" stroke="#1A1A8D" stroke-width="2" stroke-linecap="round"/>
<path d="M13 21H12" stroke="#1A1A8D" stroke-width="2" stroke-linecap="round"/>
</svg>
