<svg width="25" height="24" viewBox="0 0 25 24" fill="none" xmlns="http://www.w3.org/2000/svg">
<circle cx="12.5" cy="12" r="10" stroke="#1A1A8D" stroke-width="2" stroke-linecap="round"/>
<path d="M8.82429 16.2726C9.24217 16.1822 9.8005 16.1149 10.428 16.0696C11.0633 16.0237 11.7773 16 12.5 16C13.2227 16 13.9367 16.0237 14.572 16.0696C15.1995 16.1149 15.7578 16.1822 16.1757 16.2726" stroke="#1A1A8D" stroke-width="2" stroke-linecap="round"/>
<mask id="path-3-outside-1_2_5079" maskUnits="userSpaceOnUse" x="7.5" y="9" width="4" height="3" fill="black">
<rect fill="white" x="7.5" y="9" width="4" height="3"/>
<path d="M10 10C10.2403 10 10.3604 10 10.4331 10.1225C10.5057 10.2449 10.463 10.3231 10.3776 10.4794C10.3323 10.5623 10.2751 10.6391 10.2071 10.7071C10.0196 10.8946 9.76522 11 9.5 11C9.23478 11 8.98043 10.8946 8.79289 10.7071C8.7249 10.6391 8.66771 10.5623 8.62242 10.4794C8.53701 10.3231 8.4943 10.2449 8.56694 10.1225C8.63958 10 8.75972 10 9 10L9.5 10H10Z"/>
</mask>
<path d="M10 10C10.2403 10 10.3604 10 10.4331 10.1225C10.5057 10.2449 10.463 10.3231 10.3776 10.4794C10.3323 10.5623 10.2751 10.6391 10.2071 10.7071C10.0196 10.8946 9.76522 11 9.5 11C9.23478 11 8.98043 10.8946 8.79289 10.7071C8.7249 10.6391 8.66771 10.5623 8.62242 10.4794C8.53701 10.3231 8.4943 10.2449 8.56694 10.1225C8.63958 10 8.75972 10 9 10L9.5 10H10Z" fill="#1A1A8D"/>
<path d="M10 10C10.2403 10 10.3604 10 10.4331 10.1225C10.5057 10.2449 10.463 10.3231 10.3776 10.4794C10.3323 10.5623 10.2751 10.6391 10.2071 10.7071C10.0196 10.8946 9.76522 11 9.5 11C9.23478 11 8.98043 10.8946 8.79289 10.7071C8.7249 10.6391 8.66771 10.5623 8.62242 10.4794C8.53701 10.3231 8.4943 10.2449 8.56694 10.1225C8.63958 10 8.75972 10 9 10L9.5 10H10Z" stroke="#1A1A8D" stroke-linecap="round" mask="url(#path-3-outside-1_2_5079)"/>
<mask id="path-4-outside-2_2_5079" maskUnits="userSpaceOnUse" x="13.5" y="9" width="4" height="3" fill="black">
<rect fill="white" x="13.5" y="9" width="4" height="3"/>
<path d="M16 10C16.2403 10 16.3604 10 16.4331 10.1225C16.5057 10.2449 16.463 10.3231 16.3776 10.4794C16.3323 10.5623 16.2751 10.6391 16.2071 10.7071C16.0196 10.8946 15.7652 11 15.5 11C15.2348 11 14.9804 10.8946 14.7929 10.7071C14.7249 10.6391 14.6677 10.5623 14.6224 10.4794C14.537 10.3231 14.4943 10.2449 14.5669 10.1225C14.6396 10 14.7597 10 15 10L15.5 10H16Z"/>
</mask>
<path d="M16 10C16.2403 10 16.3604 10 16.4331 10.1225C16.5057 10.2449 16.463 10.3231 16.3776 10.4794C16.3323 10.5623 16.2751 10.6391 16.2071 10.7071C16.0196 10.8946 15.7652 11 15.5 11C15.2348 11 14.9804 10.8946 14.7929 10.7071C14.7249 10.6391 14.6677 10.5623 14.6224 10.4794C14.537 10.3231 14.4943 10.2449 14.5669 10.1225C14.6396 10 14.7597 10 15 10L15.5 10H16Z" fill="#1A1A8D"/>
<path d="M16 10C16.2403 10 16.3604 10 16.4331 10.1225C16.5057 10.2449 16.463 10.3231 16.3776 10.4794C16.3323 10.5623 16.2751 10.6391 16.2071 10.7071C16.0196 10.8946 15.7652 11 15.5 11C15.2348 11 14.9804 10.8946 14.7929 10.7071C14.7249 10.6391 14.6677 10.5623 14.6224 10.4794C14.537 10.3231 14.4943 10.2449 14.5669 10.1225C14.6396 10 14.7597 10 15 10L15.5 10H16Z" stroke="#1A1A8D" stroke-linecap="round" mask="url(#path-4-outside-2_2_5079)"/>
</svg>
