<svg width="25" height="24" viewBox="0 0 25 24" fill="none" xmlns="http://www.w3.org/2000/svg">
<circle cx="12.5" cy="12" r="9.5" stroke="#1A1A8D" stroke-linecap="round"/>
<path d="M8.9301 16.7613C9.31457 16.6781 9.84621 16.6129 10.464 16.5683C11.0857 16.5234 11.7876 16.5 12.5 16.5C13.2124 16.5 13.9143 16.5234 14.536 16.5683C15.1538 16.6129 15.6854 16.6781 16.0699 16.7613" stroke="#1A1A8D" stroke-linecap="round"/>
<path d="M10 10C10.2403 10 10.3604 10 10.4331 10.1225C10.5057 10.2449 10.463 10.3231 10.3776 10.4794C10.3323 10.5623 10.2751 10.6391 10.2071 10.7071C10.0196 10.8946 9.76522 11 9.5 11C9.23478 11 8.98043 10.8946 8.79289 10.7071C8.7249 10.6391 8.66771 10.5623 8.62242 10.4794C8.53701 10.3231 8.4943 10.2449 8.56694 10.1225C8.63958 10 8.75972 10 9 10L9.5 10H10Z" fill="#1A1A8D" stroke="#1A1A8D" stroke-linecap="round"/>
<path d="M16 10C16.2403 10 16.3604 10 16.4331 10.1225C16.5057 10.2449 16.463 10.3231 16.3776 10.4794C16.3323 10.5623 16.2751 10.6391 16.2071 10.7071C16.0196 10.8946 15.7652 11 15.5 11C15.2348 11 14.9804 10.8946 14.7929 10.7071C14.7249 10.6391 14.6677 10.5623 14.6224 10.4794C14.537 10.3231 14.4943 10.2449 14.5669 10.1225C14.6396 10 14.7597 10 15 10L15.5 10H16Z" fill="#1A1A8D" stroke="#1A1A8D" stroke-linecap="round"/>
</svg>
