<svg width="25" height="24" viewBox="0 0 25 24" fill="none" xmlns="http://www.w3.org/2000/svg">
<circle cx="12.5" cy="12" r="9.5" stroke="#1A1A8D" stroke-linecap="round"/>
<path d="M8.70857 16.622C9.13044 16.2567 9.70751 15.9763 10.3613 15.7876C11.0191 15.5977 11.756 15.5 12.5 15.5C13.244 15.5 13.9809 15.5977 14.6387 15.7876C15.2925 15.9763 15.8696 16.2567 16.2914 16.622" stroke="#1A1A8D" stroke-linecap="round"/>
<path d="M10 9C10.2403 9 10.3604 9 10.4331 9.12245C10.5057 9.2449 10.463 9.32308 10.3776 9.47943C10.3323 9.56233 10.2751 9.63911 10.2071 9.70711C10.0196 9.89464 9.76522 10 9.5 10C9.23478 10 8.98043 9.89464 8.79289 9.70711C8.7249 9.63911 8.66771 9.56233 8.62242 9.47944C8.53701 9.32308 8.4943 9.2449 8.56694 9.12245C8.63958 9 8.75972 9 9 9L9.5 9H10Z" fill="#1A1A8D" stroke="#1A1A8D" stroke-linecap="round"/>
<path d="M16 9C16.2403 9 16.3604 9 16.4331 9.12245C16.5057 9.2449 16.463 9.32308 16.3776 9.47943C16.3323 9.56233 16.2751 9.63911 16.2071 9.70711C16.0196 9.89464 15.7652 10 15.5 10C15.2348 10 14.9804 9.89464 14.7929 9.70711C14.7249 9.63911 14.6677 9.56233 14.6224 9.47944C14.537 9.32308 14.4943 9.2449 14.5669 9.12245C14.6396 9 14.7597 9 15 9L15.5 9H16Z" fill="#1A1A8D" stroke="#1A1A8D" stroke-linecap="round"/>
</svg>
