<svg width="25" height="24" viewBox="0 0 25 24" fill="none" xmlns="http://www.w3.org/2000/svg">
<path fill-rule="evenodd" clip-rule="evenodd" d="M3.5 9C3.5 6.17157 3.5 4.75736 4.37868 3.87868C5.25736 3 6.67157 3 9.5 3H15.8431C16.6606 3 17.0694 3 17.4369 3.15224C17.8045 3.30448 18.0935 3.59351 18.6716 4.17157L20.3284 5.82843C20.9065 6.40649 21.1955 6.69552 21.3478 7.06306C21.5 7.4306 21.5 7.83935 21.5 8.65685V15C21.5 17.8284 21.5 19.2426 20.6213 20.1213C19.98 20.7626 19.0534 20.9359 17.5 20.9827V18L17.5 17.9384C17.5001 17.2843 17.5001 16.6965 17.4362 16.2208C17.3663 15.7015 17.2042 15.1687 16.7678 14.7322C16.3313 14.2958 15.7985 14.1337 15.2792 14.0638C14.8034 13.9999 14.2157 13.9999 13.5616 14L13.5 14H10.5L10.4384 14C9.78427 13.9999 9.19655 13.9999 8.72084 14.0638C8.20149 14.1337 7.66867 14.2958 7.23223 14.7322C6.79579 15.1687 6.63366 15.7015 6.56383 16.2208C6.49988 16.6965 6.49993 17.2843 6.5 17.9384L6.5 18V20.9239C5.52491 20.828 4.86857 20.6112 4.37868 20.1213C3.5 19.2426 3.5 17.8284 3.5 15V9ZM15.5 18V21H9.5C9.14496 21 8.81221 21 8.5 20.9983V18C8.5 17.2646 8.50212 16.8137 8.546 16.4873C8.58457 16.2005 8.63942 16.1526 8.64592 16.1469L8.64645 16.1464L8.64692 16.1459C8.6526 16.1394 8.70049 16.0846 8.98734 16.046C9.31369 16.0021 9.76462 16 10.5 16H13.5C14.2354 16 14.6863 16.0021 15.0127 16.046C15.2995 16.0846 15.3474 16.1394 15.3531 16.1459L15.3536 16.1464L15.3541 16.1469C15.3606 16.1526 15.4154 16.2005 15.454 16.4873C15.4979 16.8137 15.5 17.2646 15.5 18ZM7.5 7C6.94772 7 6.5 7.44772 6.5 8C6.5 8.55228 6.94772 9 7.5 9H12.5C13.0523 9 13.5 8.55228 13.5 8C13.5 7.44772 13.0523 7 12.5 7H7.5Z" fill="#1A1A8D"/>
</svg>
