<svg width="25" height="24" viewBox="0 0 25 24" fill="none" xmlns="http://www.w3.org/2000/svg">
<path fill-rule="evenodd" clip-rule="evenodd" d="M4.37868 3.87868C3.5 4.75736 3.5 6.17157 3.5 9V15C3.5 17.8284 3.5 19.2426 4.37868 20.1213C5.02055 20.7632 5.94818 20.9362 7.5041 20.9828C7.5 20.687 7.5 20.3607 7.5 20V19C7.5 17.1144 7.5 16.1716 8.08579 15.5858C8.67157 15 9.61438 15 11.5 15H12.5C14.3856 15 15.3284 15 15.9142 15.5858C16.5 16.1716 16.5 17.1144 16.5 19V20C16.5 20.367 16.5 20.6984 16.4957 20.9983C18.6735 20.9863 19.8524 20.8902 20.6213 20.1213C21.5 19.2426 21.5 17.8284 21.5 15V7.82843C21.5 7.41968 21.5 7.2153 21.4239 7.03153C21.3478 6.84776 21.2032 6.70325 20.9142 6.41423L20.9142 6.41421L18.0858 3.58579C17.7968 3.29676 17.6522 3.15224 17.4685 3.07612C17.2847 3 17.0803 3 16.6716 3H9.5C6.67157 3 5.25736 3 4.37868 3.87868Z" fill="#FFD400" fill-opacity="0.5"/>
<path d="M16.5 21V19C16.5 17.1144 16.5 16.1716 15.9142 15.5858C15.3284 15 14.3856 15 12.5 15H11.5C9.61438 15 8.67157 15 8.08579 15.5858C7.5 16.1716 7.5 17.1144 7.5 19V21" stroke="#1A1A8D" stroke-width="1.2"/>
<path d="M7.5 8H12.5" stroke="#1A1A8D" stroke-width="1.2" stroke-linecap="round"/>
<path d="M3.5 9C3.5 6.17157 3.5 4.75736 4.37868 3.87868C5.25736 3 6.67157 3 9.5 3H16.6716C17.0803 3 17.2847 3 17.4685 3.07612C17.6522 3.15224 17.7968 3.29676 18.0858 3.58579L20.9142 6.41421C21.2032 6.70324 21.3478 6.84776 21.4239 7.03153C21.5 7.2153 21.5 7.41968 21.5 7.82843V15C21.5 17.8284 21.5 19.2426 20.6213 20.1213C19.7426 21 18.3284 21 15.5 21H9.5C6.67157 21 5.25736 21 4.37868 20.1213C3.5 19.2426 3.5 17.8284 3.5 15V9Z" stroke="#1A1A8D" stroke-width="1.2"/>
</svg>
