<svg width="25" height="24" viewBox="0 0 25 24" fill="none" xmlns="http://www.w3.org/2000/svg">
<path d="M21.5 10L21.5 9C21.5 8.07003 21.5 7.60504 21.3978 7.22354C21.1204 6.18827 20.3117 5.37962 19.2765 5.10222C18.895 5 18.43 5 17.5 5" stroke="#1A1A8D" stroke-width="2" stroke-linejoin="round"/>
<path d="M3.5 10L3.5 9C3.5 8.07003 3.5 7.60504 3.60222 7.22354C3.87962 6.18827 4.68827 5.37962 5.72354 5.10222C6.10504 5 6.57003 5 7.5 5" stroke="#1A1A8D" stroke-width="2" stroke-linejoin="round"/>
<path d="M21.5 14L21.5 15C21.5 15.93 21.5 16.395 21.3978 16.7765C21.1204 17.8117 20.3117 18.6204 19.2765 18.8978C18.895 19 18.43 19 17.5 19" stroke="#1A1A8D" stroke-width="2" stroke-linejoin="round"/>
<path d="M3.5 14L3.5 15C3.5 15.93 3.5 16.395 3.60222 16.7765C3.87962 17.8117 4.68827 18.6204 5.72354 18.8978C6.10504 19 6.57003 19 7.5 19" stroke="#1A1A8D" stroke-width="2" stroke-linejoin="round"/>
<path d="M12.5 15L12.5 9" stroke="#1A1A8D" stroke-width="2" stroke-linecap="round" stroke-linejoin="round"/>
<path d="M8.5 14L8.5 10" stroke="#1A1A8D" stroke-width="2" stroke-linecap="round" stroke-linejoin="round"/>
<path d="M16.5 14L16.5 10" stroke="#1A1A8D" stroke-width="2" stroke-linecap="round" stroke-linejoin="round"/>
</svg>
