<svg width="25" height="24" viewBox="0 0 25 24" fill="none" xmlns="http://www.w3.org/2000/svg">
<path d="M20.5 10L20.5 9C20.5 8.07003 20.5 7.60504 20.3978 7.22354C20.1204 6.18827 19.3117 5.37962 18.2765 5.10222C17.895 5 17.43 5 16.5 5" stroke="#1A1A8D" stroke-linejoin="round"/>
<path d="M20.5 14L20.5 15C20.5 15.93 20.5 16.395 20.3978 16.7765C20.1204 17.8117 19.3117 18.6204 18.2765 18.8978C17.895 19 17.43 19 16.5 19" stroke="#1A1A8D" stroke-linejoin="round"/>
<path d="M10.5 19L9.5 19C7.63077 19 6.69615 19 6 18.5981C5.54394 18.3348 5.16523 17.9561 4.90192 17.5C4.5 16.8038 4.5 15.8692 4.5 14" stroke="#1A1A8D" stroke-linejoin="round"/>
<path d="M10.5 5L9.5 5C7.63077 5 6.69615 5 6 5.40192C5.54394 5.66523 5.16523 6.04394 4.90192 6.5C4.5 7.19615 4.5 8.13077 4.5 10" stroke="#1A1A8D" stroke-linejoin="round"/>
<path d="M10.5 21L10.5 3" stroke="#1A1A8D" stroke-linecap="round" stroke-linejoin="round"/>
</svg>
