<svg width="25" height="24" viewBox="0 0 25 24" fill="none" xmlns="http://www.w3.org/2000/svg">
<path d="M9.5 3H8.5C7.57003 3 7.10504 3 6.72354 3.10222C5.68827 3.37962 4.87962 4.18827 4.60222 5.22354C4.5 5.60504 4.5 6.07003 4.5 7" stroke="#1A1A8D" stroke-linejoin="round"/>
<path d="M15.5 3H16.5C17.43 3 17.895 3 18.2765 3.10222C19.3117 3.37962 20.1204 4.18827 20.3978 5.22354C20.5 5.60504 20.5 6.07003 20.5 7" stroke="#1A1A8D" stroke-linejoin="round"/>
<path d="M20.5 15V16C20.5 17.8692 20.5 18.8038 20.0981 19.5C19.8348 19.9561 19.4561 20.3348 19 20.5981C18.3038 21 17.3692 21 15.5 21" stroke="#1A1A8D" stroke-linejoin="round"/>
<path d="M4.5 15V16C4.5 17.8692 4.5 18.8038 4.90192 19.5C5.16523 19.9561 5.54394 20.3348 6 20.5981C6.69615 21 7.63077 21 9.5 21" stroke="#1A1A8D" stroke-linejoin="round"/>
<path d="M3.5 15L21.5 15" stroke="#1A1A8D" stroke-linecap="round" stroke-linejoin="round"/>
<path d="M7.5 11L7.5 15L17.5 15L17.5 11C17.5 10.0572 17.5 9.58579 17.2071 9.29289C16.9142 9 16.4428 9 15.5 9L9.5 9C8.55719 9 8.08579 9 7.79289 9.29289C7.5 9.58579 7.5 10.0572 7.5 11Z" stroke="#1A1A8D" stroke-linecap="round" stroke-linejoin="round"/>
</svg>
