<svg width="25" height="24" viewBox="0 0 25 24" fill="none" xmlns="http://www.w3.org/2000/svg">
<path fill-rule="evenodd" clip-rule="evenodd" d="M12.5 19C16.366 19 19.5 15.866 19.5 12C19.5 8.13401 16.366 5 12.5 5C8.63401 5 5.5 8.13401 5.5 12C5.5 15.866 8.63401 19 12.5 19ZM10.5866 7.3806C11.1932 7.12933 11.8434 7 12.5 7C12.7761 7 13 6.77614 13 6.5C13 6.22386 12.7761 6 12.5 6C11.7121 6 10.9319 6.15519 10.2039 6.45672C9.47595 6.75825 8.81451 7.20021 8.25736 7.75736C7.70021 8.31451 7.25825 8.97595 6.95672 9.7039C6.65519 10.4319 6.5 11.2121 6.5 12C6.5 12.2761 6.72386 12.5 7 12.5C7.27614 12.5 7.5 12.2761 7.5 12C7.5 11.3434 7.62933 10.6932 7.8806 10.0866C8.13188 9.47996 8.50017 8.92876 8.96447 8.46447C9.42876 8.00017 9.97995 7.63188 10.5866 7.3806Z" fill="#FFD400" fill-opacity="0.5"/>
<path d="M21 20.5L17.5 17" stroke="#1A1A8D" stroke-linecap="round"/>
<circle cx="11.5" cy="11" r="8.5" stroke="#1A1A8D"/>
</svg>
