<svg width="25" height="24" viewBox="0 0 25 24" fill="none" xmlns="http://www.w3.org/2000/svg">
<path fill-rule="evenodd" clip-rule="evenodd" d="M11.5 17C14.8137 17 17.5 14.3137 17.5 11C17.5 7.68629 14.8137 5 11.5 5C8.18629 5 5.5 7.68629 5.5 11C5.5 14.3137 8.18629 17 11.5 17ZM10.3519 8.22836C10.7159 8.0776 11.106 8 11.5 8C11.7761 8 12 7.77614 12 7.5C12 7.22386 11.7761 7 11.5 7C10.9747 7 10.4546 7.10346 9.96927 7.30448C9.48396 7.5055 9.04301 7.80014 8.67157 8.17157C8.30014 8.54301 8.0055 8.98396 7.80448 9.46927C7.60346 9.95457 7.5 10.4747 7.5 11C7.5 11.2761 7.72386 11.5 8 11.5C8.27614 11.5 8.5 11.2761 8.5 11C8.5 10.606 8.5776 10.2159 8.72836 9.85195C8.87913 9.48797 9.1001 9.15726 9.37868 8.87868C9.65726 8.6001 9.98797 8.37913 10.3519 8.22836Z" fill="#1A1A8D"/>
<path fill-rule="evenodd" clip-rule="evenodd" d="M18.4283 15.0001C18.5664 14.7609 18.4844 14.4551 18.2453 14.3171C18.0061 14.179 17.7003 14.2609 17.5623 14.5001C16.9479 15.5642 16.0642 16.4479 15.0001 17.0623C14.7609 17.2003 14.679 17.5061 14.8171 17.7453C14.9551 17.9844 15.2609 18.0664 15.5001 17.9283C15.9625 17.6613 16.3951 17.3498 16.7923 16.9994L19.6465 19.8536C19.8418 20.0489 20.1584 20.0489 20.3536 19.8536C20.5489 19.6584 20.5489 19.3418 20.3536 19.1465L17.4994 16.2923C17.8498 15.8951 18.1613 15.4625 18.4283 15.0001Z" fill="#FFD400" fill-opacity="0.5"/>
</svg>
