<svg width="25" height="24" viewBox="0 0 25 24" fill="none" xmlns="http://www.w3.org/2000/svg">
<path d="M6.1921 13.8974L7.60263 14.3675L7.60264 14.3675C8.5337 14.6779 8.99923 14.8331 9.33307 15.1669C9.66692 15.5008 9.8221 15.9663 10.1325 16.8974L10.1325 16.8974L10.6026 18.3079C11.387 20.6611 11.7792 21.8377 12.5 21.8377C13.2208 21.8377 13.613 20.6611 14.3974 18.3079L14.3974 18.3079L17.2351 9.79473C17.787 8.13894 18.063 7.31105 17.626 6.87403C17.189 6.43702 16.3611 6.71298 14.7053 7.26491L6.1921 10.1026C3.83889 10.887 2.66228 11.2792 2.66228 12C2.66228 12.7208 3.83888 13.113 6.19209 13.8974L6.1921 13.8974Z" fill="#FFD400" fill-opacity="0.5"/>
<path d="M6.1921 13.8974L7.60263 14.3675L7.60264 14.3675C8.5337 14.6779 8.99923 14.8331 9.33307 15.1669C9.66692 15.5008 9.8221 15.9663 10.1325 16.8974L10.1325 16.8974L10.6026 18.3079C11.387 20.6611 11.7792 21.8377 12.5 21.8377C13.2208 21.8377 13.613 20.6611 14.3974 18.3079L14.3974 18.3079L17.2351 9.79473C17.787 8.13894 18.063 7.31105 17.626 6.87403C17.189 6.43702 16.3611 6.71298 14.7053 7.26491L6.1921 10.1026C3.83889 10.887 2.66228 11.2792 2.66228 12C2.66228 12.7208 3.83888 13.113 6.19209 13.8974L6.1921 13.8974Z" fill="#FFD400" fill-opacity="0.5"/>
<path d="M8.02566 15.8419L5.96399 15.1547C5.67123 15.0571 5.34982 15.1001 5.09306 15.2713L4.00471 15.9969C3.42684 16.3821 3.58067 17.2702 4.25444 17.4386L6.20896 17.9272C6.3881 17.972 6.52798 18.1119 6.57276 18.291L7.06139 20.2456C7.22983 20.9193 8.1179 21.0732 8.50314 20.4953L9.2287 19.4069C9.39988 19.1502 9.44292 18.8288 9.34534 18.536L8.65811 16.4743C8.55858 16.1757 8.32426 15.9414 8.02566 15.8419Z" fill="#1A1A8D"/>
</svg>
