<svg width="25" height="24" viewBox="0 0 25 24" fill="none" xmlns="http://www.w3.org/2000/svg">
<path d="M16.5655 10.1841L12.6768 8.38929C10.5221 7.39479 9.44469 6.89755 8.95127 7.40663C8.45785 7.9157 8.98935 8.9787 10.0523 11.1047C10.2721 11.5442 10.382 11.7639 10.382 12C10.382 12.2361 10.2721 12.4558 10.0523 12.8953C8.98935 15.0213 8.45785 16.0843 8.95127 16.5934C9.44469 17.1025 10.5221 16.6052 12.6768 15.6107L16.5655 13.8159C18.2643 13.0319 19.1137 12.6398 19.1137 12C19.1137 11.3602 18.2643 10.9681 16.5655 10.1841Z" fill="#FFD400" fill-opacity="0.5"/>
<path d="M9.39459 11.6838L8.67359 9.52078C8.56547 9.19642 8.29914 8.94978 7.96744 8.86686L6.18744 8.42186C5.52437 8.25609 4.97221 8.94442 5.27787 9.55575L6.3882 11.7764C6.45858 11.9172 6.45858 12.0828 6.3882 12.2236L5.27787 14.4443C4.97221 15.0556 5.52437 15.7439 6.18744 15.5781L7.96744 15.1331C8.29914 15.0502 8.56547 14.8036 8.67359 14.4792L9.39459 12.3162C9.46301 12.111 9.46301 11.889 9.39459 11.6838Z" fill="#1A1A8D"/>
</svg>
