<svg width="25" height="24" viewBox="0 0 25 24" fill="none" xmlns="http://www.w3.org/2000/svg">
<path fill-rule="evenodd" clip-rule="evenodd" d="M16.7118 7.1905C16.2881 7.26588 15.709 7.45752 14.865 7.73887L8.37402 9.90253C7.55195 10.1765 6.9538 10.3761 6.51933 10.5456C6.06788 10.7218 5.86979 10.8383 5.78684 10.918C5.17262 11.5083 5.17262 12.4909 5.78684 13.0812C5.86979 13.1609 6.06788 13.2775 6.51933 13.4536C6.9538 13.6231 7.55195 13.8227 8.37402 14.0967C8.38708 14.1011 8.39997 14.1053 8.41268 14.1096C8.70466 14.2068 8.90621 14.274 9.08924 14.3708C9.53297 14.6054 9.89578 14.9683 10.1305 15.412C10.2272 15.595 10.2944 15.7966 10.3916 16.0885C10.3959 16.1013 10.4002 16.1142 10.4045 16.1272C10.6786 16.9493 10.8781 17.5474 11.0476 17.9819C11.2238 18.4334 11.3403 18.6314 11.4201 18.7144C12.0103 19.3286 12.9929 19.3286 13.5832 18.7144C13.6629 18.6314 13.7795 18.4334 13.9556 17.9819C14.1251 17.5474 14.3247 16.9493 14.5987 16.1272L16.7624 9.63623C17.0437 8.7922 17.2353 8.21313 17.3107 7.78939C17.3868 7.36202 17.3118 7.26493 17.274 7.2272C17.2363 7.18947 17.1392 7.11448 16.7118 7.1905ZM16.5367 6.20596C17.0465 6.11527 17.5819 6.12081 17.9811 6.52009C18.3804 6.91938 18.386 7.45474 18.2953 7.96453C18.2055 8.46929 17.9891 9.11842 17.7247 9.91157L17.711 9.95246L15.5474 16.4434L15.5424 16.4583C15.2744 17.2625 15.067 17.8846 14.8872 18.3454C14.713 18.792 14.5371 19.1649 14.3042 19.4073C13.3205 20.431 11.6827 20.431 10.699 19.4073C10.4661 19.1649 10.2903 18.792 10.116 18.3454C9.93624 17.8846 9.72887 17.2625 9.46081 16.4583L9.45585 16.4434C9.3408 16.0983 9.29981 15.9804 9.24646 15.8795C9.10566 15.6133 8.88797 15.3956 8.62174 15.2548C8.52086 15.2014 8.40294 15.1604 8.05779 15.0454L8.04289 15.0404C7.23871 14.7724 6.6166 14.565 6.15585 14.3852C5.70924 14.211 5.3363 14.0351 5.09395 13.8022C4.07025 12.8185 4.07025 11.1807 5.09395 10.197C5.3363 9.96412 5.70924 9.78826 6.15585 9.61401C6.61661 9.43424 7.23874 9.22686 8.04295 8.95879L8.05779 8.95384L14.5488 6.79018L14.5896 6.77657C15.3828 6.51216 16.0319 6.29575 16.5367 6.20596Z" fill="#1A1A8D"/>
</svg>
