<svg width="25" height="24" viewBox="0 0 25 24" fill="none" xmlns="http://www.w3.org/2000/svg">
<path fill-rule="evenodd" clip-rule="evenodd" d="M8.44015 14.6473L6.19291 13.8982L6.1929 13.8982L6.19289 13.8982C3.83969 13.1138 2.66309 12.7216 2.66309 12.0008C2.66309 11.2801 3.83969 10.8879 6.19291 10.1035L14.7061 7.26574C16.3619 6.71381 17.1898 6.43784 17.6268 6.87486C18.0638 7.31188 17.7878 8.13977 17.2359 9.79556L14.3982 18.3087L14.3982 18.3087C13.6138 20.6619 13.2216 21.8386 12.5008 21.8386C11.78 21.8386 11.3878 20.6619 10.6034 18.3087L9.85436 16.0615L14.2079 11.7079C14.5984 11.3174 14.5984 10.6842 14.2079 10.2937C13.8174 9.9032 13.1842 9.9032 12.7937 10.2937L8.44015 14.6473Z" fill="#1A1A8D"/>
</svg>
