<svg width="25" height="24" viewBox="0 0 25 24" fill="none" xmlns="http://www.w3.org/2000/svg">
<path d="M14.7053 7.26491L8.21429 9.42857L8.21428 9.42857C6.58082 9.97306 5.76409 10.2453 5.43878 10.5579C4.61982 11.3449 4.61982 12.6551 5.43878 13.4421C5.76409 13.7547 6.58082 14.0269 8.21428 14.5714L8.21429 14.5714C8.54339 14.6811 8.70793 14.736 8.85387 14.8132C9.20886 15.0009 9.49911 15.2911 9.68684 15.6461C9.76402 15.7921 9.81887 15.9566 9.92857 16.2857C10.4731 17.9192 10.7453 18.7359 11.0579 19.0612C11.8449 19.8802 13.1551 19.8802 13.9421 19.0612C14.2547 18.7359 14.5269 17.9192 15.0714 16.2857L15.0714 16.2857L17.2351 9.79473C17.787 8.13894 18.063 7.31105 17.626 6.87403C17.189 6.43702 16.3611 6.71298 14.7053 7.26491Z" fill="#FFD400" fill-opacity="0.5" stroke="#1A1A8D"/>
</svg>
