<svg width="25" height="24" viewBox="0 0 25 24" fill="none" xmlns="http://www.w3.org/2000/svg">
<path d="M7.49811 10.2467L7.93298 11.0077C8.20983 11.4922 8.34825 11.7344 8.34825 12C8.34825 12.2656 8.20983 12.5078 7.93299 12.9923L7.93298 12.9923L7.49811 13.7533C6.25981 15.9203 5.64066 17.0039 6.12348 17.5412C6.6063 18.0785 7.74961 17.5783 10.0362 16.5779L16.3119 13.8323C18.1074 13.0468 19.0051 12.654 19.0051 12C19.0051 11.346 18.1074 10.9532 16.3119 10.1677L10.0362 7.4221C7.74962 6.42171 6.6063 5.92151 6.12348 6.45883C5.64066 6.99615 6.25981 8.07966 7.49811 10.2467Z" stroke="#1A1A8D"/>
</svg>
