<svg width="25" height="24" viewBox="0 0 25 24" fill="none" xmlns="http://www.w3.org/2000/svg">
<path fill-rule="evenodd" clip-rule="evenodd" d="M16.7994 7.68352C16.4205 7.75092 15.8833 7.92722 15.0231 8.21395L8.53213 10.3776C7.70474 10.6534 7.12098 10.8483 6.70107 11.0122C6.4934 11.0932 6.34877 11.1579 6.2482 11.211C6.16301 11.2559 6.13239 11.2807 6.13057 11.2819C5.72471 11.6748 5.72471 12.3259 6.13057 12.7188C6.13239 12.72 6.16301 12.7448 6.2482 12.7897C6.34877 12.8428 6.4934 12.9075 6.70107 12.9886C7.12097 13.1524 7.70474 13.3473 8.53213 13.6231C8.55113 13.6294 8.56996 13.6357 8.58864 13.6419C8.86202 13.7328 9.10203 13.8127 9.32299 13.9295C9.85547 14.2111 10.2908 14.6465 10.5724 15.179C10.6893 15.3999 10.7691 15.64 10.8601 15.9134C10.8663 15.932 10.8725 15.9509 10.8789 15.9698C11.1547 16.7972 11.3496 17.381 11.5134 17.8009C11.5944 18.0086 11.6592 18.1532 11.7122 18.2538C11.7572 18.339 11.7819 18.3696 11.7832 18.3714C12.1761 18.7773 12.8271 18.7773 13.22 18.3714C13.2213 18.3696 13.2461 18.339 13.291 18.2538C13.3441 18.1532 13.4088 18.0086 13.4898 17.8009C13.6537 17.381 13.8486 16.7972 14.1244 15.9698L16.288 9.47886C16.5747 8.61869 16.7511 8.08146 16.8185 7.70256C16.8199 7.69467 16.8212 7.68699 16.8224 7.67953C16.815 7.68078 16.8073 7.68211 16.7994 7.68352ZM17.0584 7.6604C17.0582 7.66058 17.0549 7.66032 17.0491 7.65905C17.0557 7.65959 17.0586 7.66022 17.0584 7.6604ZM16.8429 7.45282C16.8417 7.44708 16.8414 7.44379 16.8416 7.44359C16.8418 7.44338 16.8424 7.44624 16.8429 7.45282ZM16.4491 5.71443C17.0001 5.61641 17.7546 5.58722 18.3347 6.16728C18.9147 6.74734 18.8856 7.50185 18.7875 8.05284C18.6912 8.59427 18.4648 9.27339 18.2093 10.0397L18.1854 10.1113L16.0217 16.6023L16.0123 16.6305C15.748 17.4233 15.5374 18.0553 15.353 18.5279C15.1797 18.9721 14.9742 19.4324 14.6647 19.7545C13.4843 20.9829 11.519 20.9829 10.3385 19.7545C10.029 19.4324 9.82352 18.9721 9.65021 18.5279C9.46584 18.0553 9.25521 17.4234 8.99095 16.6306L8.9815 16.6023C8.8611 16.2411 8.83399 16.1698 8.80447 16.114C8.7106 15.9365 8.56548 15.7914 8.38798 15.6975C8.33217 15.668 8.26088 15.6409 7.89967 15.5205L7.87134 15.511C7.07856 15.2468 6.44665 15.0361 5.97411 14.8518C5.52992 14.6785 5.06955 14.473 4.7475 14.1635C3.51906 12.983 3.51906 11.0177 4.7475 9.83722C5.06955 9.52775 5.52992 9.32226 5.97411 9.14895C6.44667 8.96457 7.07861 8.75393 7.87143 8.48966L7.89968 8.48024L14.3907 6.31658C14.4146 6.3086 14.4385 6.30064 14.4623 6.29271C15.2286 6.03719 15.9077 5.81075 16.4491 5.71443Z" fill="#1A1A8D"/>
</svg>
