<svg width="25" height="24" viewBox="0 0 25 24" fill="none" xmlns="http://www.w3.org/2000/svg">
<path d="M18.4792 7.50058C18.499 7.73832 18.509 7.85719 18.5704 7.92116C18.6318 7.98513 18.7542 8.00036 18.999 8.03082C20.9726 8.27643 22.5 9.95985 22.5 12C22.5 14.2091 20.7091 16 18.5 16H18C17.7643 16 17.6464 16 17.5732 15.9268C17.5 15.8536 17.5 15.7357 17.5 15.5V14C17.5 12.1144 17.5 11.1716 16.9142 10.5858C16.3284 10 15.3856 10 13.5 10H11.5C9.61438 10 8.67157 10 8.08579 10.5858C7.5 11.1716 7.5 12.1144 7.5 14V15.5C7.5 15.7357 7.5 15.8536 7.42678 15.9268C7.35355 16 7.2357 16 7 16H6.5C4.29086 16 2.5 14.2091 2.5 12C2.5 9.95985 4.02736 8.27643 6.00099 8.03082C6.24578 8.00036 6.36817 7.98513 6.4296 7.92116C6.49103 7.85719 6.50096 7.73832 6.52082 7.50058C6.53959 7.27582 6.57107 7.05175 6.61529 6.82946C6.79484 5.92682 7.17962 5.07758 7.73988 4.34743C8.30014 3.61729 9.02085 3.02581 9.84627 2.61876C10.6717 2.21171 11.5797 2 12.5 2C13.4203 2 14.3283 2.21171 15.1537 2.61876C15.9791 3.02581 16.6999 3.61729 17.2601 4.34743C17.8204 5.07757 18.2052 5.92682 18.3847 6.82946C18.4289 7.05175 18.4604 7.27582 18.4792 7.50058Z" fill="#1A1A8D"/>
<path fill-rule="evenodd" clip-rule="evenodd" d="M9.08579 11.5858C8.5 12.1716 8.5 13.1144 8.5 15V17C8.5 18.8856 8.5 19.8284 9.08579 20.4142C9.67157 21 10.6144 21 12.5 21C14.3856 21 15.3284 21 15.9142 20.4142C16.5 19.8284 16.5 18.8856 16.5 17V15C16.5 13.1144 16.5 12.1716 15.9142 11.5858C15.3284 11 14.3856 11 12.5 11C10.6144 11 9.67157 11 9.08579 11.5858ZM12 15C11.4477 15 11 15.4477 11 16C11 16.5523 11.4477 17 12 17H13C13.5523 17 14 16.5523 14 16C14 15.4477 13.5523 15 13 15H12Z" fill="#1A1A8D"/>
</svg>
