<svg width="25" height="24" viewBox="0 0 25 24" fill="none" xmlns="http://www.w3.org/2000/svg">
<path d="M7.59607 8.02455L8.57686 8.21964V8.21964L7.59607 8.02455ZM10.2886 4.51564L10.7308 5.41251L10.7308 5.41251L10.2886 4.51564ZM14.7114 4.51564L14.2692 5.41251L14.2692 5.41251L14.7114 4.51564ZM16.4668 5.95619L15.6734 6.56495L15.6734 6.56495L16.4668 5.95619ZM17.4039 8.02455L18.3847 7.82946V7.82946L17.4039 8.02455ZM7.52498 8.50083L6.52997 8.401L7.52498 8.50083ZM8.42388 15.3827L9.34776 15.7654L8.42388 15.3827ZM7.88268 15.9239L8.26537 16.8478L7.88268 15.9239ZM17.1173 15.9239L17.5 15L17.1173 15.9239ZM16.5761 15.3827L17.5 15L16.5761 15.3827ZM17.475 8.50083L18.47 8.401L17.475 8.50083ZM18 10C19.3807 10 20.5 11.1193 20.5 12.5H22.5C22.5 10.0147 20.4853 8 18 8V10ZM20.5 12.5C20.5 13.8807 19.3807 15 18 15V17C20.4853 17 22.5 14.9853 22.5 12.5H20.5ZM17.5 14.5V12.0556H15.5V14.5H17.5ZM17.5 12.0556C17.5 10.951 16.6046 10.0556 15.5 10.0556V12.0556V12.0556H17.5ZM15.5 10.0556H9.5V12.0556H15.5V10.0556ZM9.5 10.0556C8.39543 10.0556 7.5 10.951 7.5 12.0556H9.5V10.0556ZM7.5 12.0556V14.5H9.5V12.0556H7.5ZM7 15C5.61929 15 4.5 13.8807 4.5 12.5H2.5C2.5 14.9853 4.51472 17 7 17V15ZM4.5 12.5C4.5 11.1193 5.61929 10 7 10V8C4.51472 8 2.5 10.0147 2.5 12.5H4.5ZM6.61529 7.82946C6.57761 8.0189 6.54917 8.20964 6.52997 8.401L8.51998 8.60067C8.53278 8.4731 8.55174 8.34594 8.57686 8.21964L6.61529 7.82946ZM7.73988 5.34743C7.17962 6.07757 6.79483 6.92682 6.61529 7.82946L8.57686 8.21964C8.69656 7.61788 8.95308 7.05172 9.32659 6.56495L7.73988 5.34743ZM9.84627 3.61876C9.02085 4.02581 8.30014 4.61729 7.73988 5.34743L9.32659 6.56495C9.70009 6.07819 10.1806 5.68388 10.7308 5.41251L9.84627 3.61876ZM12.5 3C11.5797 3 10.6717 3.21171 9.84627 3.61876L10.7308 5.41251C11.2811 5.14114 11.8864 5 12.5 5V3ZM15.1537 3.61876C14.3283 3.21171 13.4203 3 12.5 3V5C13.1136 5 13.7189 5.14114 14.2692 5.41251L15.1537 3.61876ZM17.2601 5.34743C16.6999 4.61729 15.9791 4.02581 15.1537 3.61876L14.2692 5.41251C14.8194 5.68388 15.2999 6.07819 15.6734 6.56495L17.2601 5.34743ZM18.3847 7.82946C18.2052 6.92682 17.8204 6.07757 17.2601 5.34743L15.6734 6.56495C16.0469 7.05172 16.3034 7.61788 16.4231 8.21964L18.3847 7.82946ZM18.47 8.401C18.4508 8.20964 18.4224 8.0189 18.3847 7.82946L16.4231 8.21964C16.4483 8.34594 16.4672 8.4731 16.48 8.60067L18.47 8.401ZM7 10C7.85073 10 8.44746 9.32346 8.51998 8.60067L6.52997 8.401C6.54736 8.22773 6.70155 8 7 8V10ZM7.5 14.5C7.5 14.7467 7.49946 14.8816 7.4928 14.9791C7.48676 15.0676 7.47918 15.0503 7.5 15L9.34776 15.7654C9.4447 15.5313 9.47518 15.3056 9.48817 15.1152C9.50054 14.9338 9.5 14.7193 9.5 14.5H7.5ZM7 17C7.21929 17 7.43384 17.0005 7.61523 16.9882C7.8056 16.9752 8.03132 16.9447 8.26537 16.8478L7.5 15C7.55027 14.9792 7.56763 14.9868 7.47908 14.9928C7.38156 14.9995 7.24665 15 7 15V17ZM7.5 15L8.26537 16.8478C8.75542 16.6448 9.14477 16.2554 9.34776 15.7654L7.5 15ZM18 15C17.7533 15 17.6184 14.9995 17.5209 14.9928C17.4324 14.9868 17.4497 14.9792 17.5 15L16.7346 16.8478C16.9687 16.9447 17.1944 16.9752 17.3848 16.9882C17.5662 17.0005 17.7807 17 18 17V15ZM15.5 14.5C15.5 14.7193 15.4995 14.9338 15.5118 15.1152C15.5248 15.3056 15.5553 15.5313 15.6522 15.7654L17.5 15C17.5208 15.0503 17.5132 15.0676 17.5072 14.9791C17.5005 14.8816 17.5 14.7467 17.5 14.5H15.5ZM17.5 15L15.6522 15.7654C15.8552 16.2554 16.2446 16.6448 16.7346 16.8478L17.5 15ZM18 8C18.2984 8 18.4526 8.22773 18.47 8.401L16.48 8.60067C16.5525 9.32346 17.1493 10 18 10V8Z" fill="#1A1A8D"/>
<rect x="8.5" y="11" width="8" height="10" rx="2" stroke="#1A1A8D" stroke-width="2"/>
<path d="M12 16H13" stroke="#1A1A8D" stroke-width="2" stroke-linecap="round"/>
</svg>
