<svg width="25" height="24" viewBox="0 0 25 24" fill="none" xmlns="http://www.w3.org/2000/svg">
<path fill-rule="evenodd" clip-rule="evenodd" d="M17.475 8.50083C17.5026 8.7756 17.7239 9 18 9C19.933 9 21.5 10.567 21.5 12.5C21.5 14.433 19.933 16 18 16C17.5341 16 17.3011 16 17.1173 15.9239C16.8723 15.8224 16.6776 15.6277 16.5761 15.3827C16.5 15.1989 16.5 14.9659 16.5 14.5V13.0556C16.5 11.951 15.6046 11.0556 14.5 11.0556H10.5C9.39543 11.0556 8.5 11.951 8.5 13.0556V14.5C8.5 14.9659 8.5 15.1989 8.42388 15.3827C8.32239 15.6277 8.12771 15.8224 7.88268 15.9239C7.69891 16 7.46594 16 7 16C5.067 16 3.5 14.433 3.5 12.5C3.5 10.567 5.067 9 7 9C7.27614 9 7.49741 8.7756 7.52498 8.50083C7.54098 8.34137 7.56467 8.18242 7.59607 8.02455C7.7457 7.27235 8.06635 6.56465 8.53323 5.95619C9.00012 5.34774 9.60071 4.85484 10.2886 4.51564C10.9764 4.17643 11.7331 4 12.5 4C13.2669 4 14.0236 4.17643 14.7114 4.51564C15.3993 4.85484 15.9999 5.34774 16.4668 5.95619C16.9336 6.56465 17.2543 7.27235 17.4039 8.02455C17.4353 8.18242 17.459 8.34137 17.475 8.50083Z" fill="#FFD400" fill-opacity="0.5"/>
<path d="M7.59607 8.02455L8.18454 8.1416L8.18455 8.1416L7.59607 8.02455ZM10.2886 4.51564L10.5539 5.05376V5.05376L10.2886 4.51564ZM14.7114 4.51564L14.4461 5.05376V5.05376L14.7114 4.51564ZM16.4668 5.95619L15.9908 6.32145V6.32145L16.4668 5.95619ZM17.4039 8.02455L17.9924 7.90749V7.90749L17.4039 8.02455ZM7.52498 8.50083L6.92798 8.44093L7.52498 8.50083ZM8.42388 15.3827L8.97821 15.6123L8.42388 15.3827ZM7.88268 15.9239L8.11229 16.4782L7.88268 15.9239ZM17.1173 15.9239L17.3469 15.3696L17.1173 15.9239ZM16.5761 15.3827L17.1304 15.1531L16.5761 15.3827ZM17.475 8.50083L18.072 8.44093L17.475 8.50083ZM18 9.6C19.6016 9.6 20.9 10.8984 20.9 12.5H22.1C22.1 10.2356 20.2644 8.4 18 8.4V9.6ZM20.9 12.5C20.9 14.1016 19.6016 15.4 18 15.4V16.6C20.2644 16.6 22.1 14.7644 22.1 12.5H20.9ZM17.1 14.5V13.0556H15.9V14.5H17.1ZM17.1 13.0556C17.1 11.6196 15.9359 10.4556 14.5 10.4556V11.6556C15.2732 11.6556 15.9 12.2824 15.9 13.0556H17.1ZM14.5 10.4556H10.5V11.6556H14.5V10.4556ZM10.5 10.4556C9.06406 10.4556 7.9 11.6196 7.9 13.0556H9.1C9.1 12.2824 9.7268 11.6556 10.5 11.6556V10.4556ZM7.9 13.0556V14.5H9.1V13.0556H7.9ZM7 15.4C5.39837 15.4 4.1 14.1016 4.1 12.5H2.9C2.9 14.7644 4.73563 16.6 7 16.6V15.4ZM4.1 12.5C4.1 10.8984 5.39837 9.6 7 9.6V8.4C4.73563 8.4 2.9 10.2356 2.9 12.5H4.1ZM7.0076 7.90749C6.97243 8.08431 6.9459 8.26233 6.92798 8.44093L8.12198 8.56073C8.13606 8.42041 8.15691 8.28053 8.18454 8.1416L7.0076 7.90749ZM8.05722 5.59094C7.53431 6.2724 7.17518 7.06503 7.0076 7.90749L8.18455 8.1416C8.31621 7.47967 8.59839 6.85689 9.00925 6.32145L8.05722 5.59094ZM10.0232 3.97751C9.2528 4.35743 8.58013 4.90947 8.05722 5.59094L9.00925 6.32145C9.4201 5.78601 9.94863 5.35226 10.5539 5.05376L10.0232 3.97751ZM12.5 3.4C11.641 3.4 10.7936 3.5976 10.0232 3.97751L10.5539 5.05376C11.1592 4.75526 11.8251 4.6 12.5 4.6V3.4ZM14.9768 3.97751C14.2064 3.5976 13.359 3.4 12.5 3.4V4.6C13.1749 4.6 13.8408 4.75526 14.4461 5.05376L14.9768 3.97751ZM16.9428 5.59094C16.4199 4.90947 15.7472 4.35743 14.9768 3.97751L14.4461 5.05376C15.0514 5.35226 15.5799 5.78601 15.9908 6.32145L16.9428 5.59094ZM17.9924 7.90749C17.8248 7.06503 17.4657 6.2724 16.9428 5.59094L15.9908 6.32145C16.4016 6.85689 16.6838 7.47967 16.8155 8.1416L17.9924 7.90749ZM18.072 8.44093C18.0541 8.26233 18.0276 8.08431 17.9924 7.90749L16.8155 8.1416C16.8431 8.28053 16.8639 8.42041 16.878 8.56073L18.072 8.44093ZM7 9.6C7.6209 9.6 8.06744 9.10432 8.12198 8.56073L6.92798 8.44093C6.92842 8.43651 6.93029 8.4302 6.93804 8.42269C6.94245 8.41841 6.94996 8.41267 6.96131 8.40788C6.97319 8.40286 6.98678 8.4 7 8.4V9.6ZM7.9 14.5C7.9 14.7412 7.89967 14.892 7.89188 15.0063C7.88445 15.1152 7.87228 15.1465 7.86955 15.1531L8.97821 15.6123C9.0516 15.4351 9.07749 15.258 9.08909 15.088C9.10033 14.9234 9.1 14.7248 9.1 14.5H7.9ZM7 16.6C7.22476 16.6 7.42338 16.6003 7.588 16.5891C7.758 16.5775 7.93511 16.5516 8.11229 16.4782L7.65307 15.3696C7.64648 15.3723 7.61522 15.3844 7.50631 15.3919C7.39202 15.3997 7.24118 15.4 7 15.4V16.6ZM7.86955 15.1531C7.82895 15.2511 7.75108 15.329 7.65307 15.3696L8.11229 16.4782C8.50434 16.3158 8.81582 16.0043 8.97821 15.6123L7.86955 15.1531ZM18 15.4C17.7588 15.4 17.608 15.3997 17.4937 15.3919C17.3848 15.3844 17.3535 15.3723 17.3469 15.3696L16.8877 16.4782C17.0649 16.5516 17.242 16.5775 17.412 16.5891C17.5766 16.6003 17.7752 16.6 18 16.6V15.4ZM15.9 14.5C15.9 14.7248 15.8997 14.9234 15.9109 15.088C15.9225 15.258 15.9484 15.4351 16.0218 15.6123L17.1304 15.1531C17.1277 15.1465 17.1156 15.1152 17.1081 15.0063C17.1003 14.892 17.1 14.7412 17.1 14.5H15.9ZM17.3469 15.3696C17.2489 15.329 17.171 15.2511 17.1304 15.1531L16.0218 15.6123C16.1842 16.0043 16.4957 16.3158 16.8877 16.4782L17.3469 15.3696ZM18 8.4C18.0132 8.4 18.0268 8.40286 18.0387 8.40788C18.05 8.41267 18.0575 8.41841 18.062 8.42269C18.0697 8.4302 18.0716 8.43651 18.072 8.44093L16.878 8.56073C16.9326 9.10432 17.3791 9.6 18 9.6V8.4Z" fill="#1A1A8D"/>
<rect x="8.5" y="11" width="8" height="10" rx="2" stroke="#1A1A8D" stroke-width="1.2"/>
<path d="M12 16H13" stroke="#1A1A8D" stroke-width="1.2" stroke-linecap="round"/>
</svg>
