<svg width="25" height="24" viewBox="0 0 25 24" fill="none" xmlns="http://www.w3.org/2000/svg">
<path d="M7.59607 8.02455L8.08647 8.12209L7.59607 8.02455ZM10.2886 4.51564L10.5097 4.96407V4.96407L10.2886 4.51564ZM14.7114 4.51564L14.4903 4.96407L14.4903 4.96407L14.7114 4.51564ZM16.4668 5.95619L16.0701 6.26057V6.26057L16.4668 5.95619ZM17.4039 8.02455L17.8943 7.927V7.927L17.4039 8.02455ZM7.52498 8.50083L7.02748 8.45092L7.52498 8.50083ZM8.42388 15.3827L8.88582 15.574L8.42388 15.3827ZM7.88268 15.9239L8.07403 16.3858L7.88268 15.9239ZM17.1173 15.9239L17.3087 15.4619L17.1173 15.9239ZM16.5761 15.3827L17.0381 15.1913L16.5761 15.3827ZM17.475 8.50083L17.9725 8.45092L17.475 8.50083ZM18 9.5C19.6569 9.5 21 10.8431 21 12.5H22C22 10.2909 20.2091 8.5 18 8.5V9.5ZM21 12.5C21 14.1569 19.6569 15.5 18 15.5V16.5C20.2091 16.5 22 14.7091 22 12.5H21ZM17 14.5V12.0556H16V14.5H17ZM17 12.0556C17 11.2271 16.3284 10.5556 15.5 10.5556V11.5556C15.7761 11.5556 16 11.7794 16 12.0556H17ZM15.5 10.5556H9.5V11.5556H15.5V10.5556ZM9.5 10.5556C8.67157 10.5556 8 11.2271 8 12.0556H9C9 11.7794 9.22386 11.5556 9.5 11.5556V10.5556ZM8 12.0556V14.5H9V12.0556H8ZM7 15.5C5.34315 15.5 4 14.1569 4 12.5H3C3 14.7091 4.79086 16.5 7 16.5V15.5ZM4 12.5C4 10.8431 5.34315 9.5 7 9.5V8.5C4.79086 8.5 3 10.2909 3 12.5H4ZM7.10568 7.927C7.07114 8.10066 7.04508 8.27551 7.02748 8.45092L8.02248 8.55075C8.03688 8.40723 8.0582 8.26418 8.08647 8.12209L7.10568 7.927ZM8.13656 5.65181C7.62299 6.32111 7.27027 7.09958 7.10568 7.927L8.08647 8.12209C8.22113 7.44511 8.50972 6.80818 8.92991 6.26057L8.13656 5.65181ZM10.0674 4.0672C9.31078 4.44033 8.65013 4.98251 8.13656 5.65181L8.92991 6.26057C9.3501 5.71297 9.89064 5.26936 10.5097 4.96407L10.0674 4.0672ZM12.5 3.5C11.6564 3.5 10.824 3.69407 10.0674 4.0672L10.5097 4.96407C11.1288 4.65879 11.8098 4.5 12.5 4.5V3.5ZM14.9326 4.0672C14.176 3.69407 13.3436 3.5 12.5 3.5V4.5C13.1902 4.5 13.8712 4.65879 14.4903 4.96407L14.9326 4.0672ZM16.8634 5.65181C16.3499 4.98251 15.6892 4.44033 14.9326 4.0672L14.4903 4.96407C15.1094 5.26936 15.6499 5.71297 16.0701 6.26057L16.8634 5.65181ZM17.8943 7.927C17.7297 7.09958 17.377 6.32111 16.8634 5.65181L16.0701 6.26057C16.4903 6.80818 16.7789 7.44511 16.9135 8.12209L17.8943 7.927ZM17.9725 8.45092C17.9549 8.27551 17.9289 8.10066 17.8943 7.927L16.9135 8.12209C16.9418 8.26418 16.9631 8.40723 16.9775 8.55075L17.9725 8.45092ZM7 9.5C7.56344 9.5 7.97244 9.04953 8.02248 8.55075L7.02748 8.45092C7.02555 8.47013 7.01674 8.48567 7.00765 8.49449C7.00356 8.49845 7.00074 8.49977 7.0002 8.5C7.0001 8.50005 7.00049 8.5 7 8.5V9.5ZM8 14.5C8 14.7398 7.99973 14.8946 7.99164 15.0131C7.98387 15.1271 7.97056 15.1705 7.96194 15.1913L8.88582 15.574C8.95332 15.4111 8.97807 15.2461 8.98933 15.0812C9.00027 14.9208 9 14.7261 9 14.5H8ZM7 16.5C7.22613 16.5 7.42077 16.5003 7.58119 16.4893C7.74611 16.4781 7.91106 16.4533 8.07403 16.3858L7.69134 15.4619C7.67053 15.4706 7.62712 15.4839 7.51312 15.4916C7.39463 15.4997 7.23981 15.5 7 15.5V16.5ZM7.96194 15.1913C7.91119 15.3139 7.81386 15.4112 7.69134 15.4619L8.07403 16.3858C8.44157 16.2336 8.73358 15.9416 8.88582 15.574L7.96194 15.1913ZM18 15.5C17.7602 15.5 17.6054 15.4997 17.4869 15.4916C17.3729 15.4839 17.3295 15.4706 17.3087 15.4619L16.926 16.3858C17.0889 16.4533 17.2539 16.4781 17.4188 16.4893C17.5792 16.5003 17.7739 16.5 18 16.5V15.5ZM16 14.5C16 14.7261 15.9997 14.9208 16.0107 15.0812C16.0219 15.2461 16.0467 15.4111 16.1142 15.574L17.0381 15.1913C17.0294 15.1705 17.0161 15.1271 17.0084 15.0131C17.0003 14.8946 17 14.7398 17 14.5H16ZM17.3087 15.4619C17.1861 15.4112 17.0888 15.3139 17.0381 15.1913L16.1142 15.574C16.2664 15.9416 16.5584 16.2336 16.926 16.3858L17.3087 15.4619ZM18 8.5C17.9995 8.5 17.9999 8.50005 17.9998 8.5C17.9993 8.49977 17.9964 8.49845 17.9924 8.49449C17.9833 8.48567 17.9745 8.47013 17.9725 8.45092L16.9775 8.55075C17.0276 9.04953 17.4366 9.5 18 9.5V8.5Z" fill="#1A1A8D"/>
<rect x="8.5" y="11" width="8" height="10" rx="2" stroke="#1A1A8D"/>
<path d="M12 16H13" stroke="#1A1A8D" stroke-linecap="round"/>
</svg>
