<svg width="25" height="24" viewBox="0 0 25 24" fill="none" xmlns="http://www.w3.org/2000/svg">
<path fill-rule="evenodd" clip-rule="evenodd" d="M14.4838 2.54161C14.5711 2.71093 14.5928 2.92777 14.6361 3.36144C14.7182 4.1823 14.7593 4.59274 14.9311 4.81793C15.149 5.10358 15.5034 5.25038 15.8595 5.20248C16.1402 5.16472 16.4594 4.90352 17.0979 4.38113C17.4352 4.10515 17.6038 3.96716 17.7853 3.90918C18.0158 3.83555 18.2652 3.84798 18.4872 3.94419C18.662 4.01994 18.8161 4.17402 19.1243 4.4822L20.0178 5.37567C20.3259 5.68385 20.48 5.83794 20.5558 6.01275C20.652 6.23478 20.6644 6.48415 20.5908 6.71464C20.5328 6.89612 20.3948 7.06478 20.1188 7.4021C19.5964 8.0406 19.3352 8.35984 19.2975 8.64056C19.2496 8.99662 19.3964 9.35102 19.682 9.56893C19.9072 9.74072 20.3176 9.78176 21.1385 9.86385C21.5722 9.90722 21.7891 9.92891 21.9584 10.0162C22.1734 10.1272 22.341 10.3123 22.4299 10.5373C22.5 10.7145 22.5 10.9324 22.5 11.3682V12.6319C22.5 13.0676 22.5 13.2855 22.43 13.4626C22.341 13.6877 22.1734 13.8729 21.9583 13.9838C21.789 14.0711 21.5722 14.0928 21.1386 14.1361L21.1386 14.1361C20.318 14.2182 19.9077 14.2592 19.6825 14.4309C19.3967 14.6489 19.2499 15.0034 19.2979 15.3596C19.3357 15.6402 19.5968 15.9593 20.119 16.5976C20.3949 16.9348 20.5328 17.1034 20.5908 17.2848C20.6645 17.5154 20.652 17.7648 20.5558 17.9869C20.48 18.1617 20.326 18.3157 20.0179 18.6238L19.1243 19.5174C18.8162 19.8255 18.6621 19.9796 18.4873 20.0554C18.2652 20.1516 18.0159 20.164 17.7854 20.0904C17.6039 20.0324 17.4352 19.8944 17.0979 19.6184L17.0979 19.6184C16.4594 19.096 16.1402 18.8348 15.8595 18.7971C15.5034 18.7492 15.149 18.896 14.9311 19.1816C14.7593 19.4068 14.7183 19.8173 14.6362 20.6383C14.5928 21.0722 14.5711 21.2891 14.4837 21.4585C14.3728 21.6735 14.1877 21.8409 13.9628 21.9299C13.7856 22 13.5676 22 13.1316 22H11.8682C11.4324 22 11.2145 22 11.0373 21.9299C10.8123 21.841 10.6272 21.6734 10.5162 21.4584C10.4289 21.2891 10.4072 21.0722 10.3639 20.6385C10.2818 19.8176 10.2407 19.4072 10.0689 19.182C9.85101 18.8964 9.49663 18.7496 9.14057 18.7975C8.85985 18.8352 8.54059 19.0964 7.90208 19.6189L7.90206 19.6189C7.56473 19.8949 7.39607 20.0329 7.21458 20.0908C6.9841 20.1645 6.73474 20.152 6.51272 20.0558C6.3379 19.9801 6.1838 19.826 5.87561 19.5178L4.98217 18.6243C4.67398 18.3162 4.51988 18.1621 4.44414 17.9873C4.34794 17.7652 4.3355 17.5159 4.40913 17.2854C4.46711 17.1039 4.60511 16.9352 4.8811 16.5979C5.40351 15.9594 5.66471 15.6402 5.70247 15.3594C5.75037 15.0034 5.60357 14.649 5.31792 14.4311C5.09273 14.2593 4.6823 14.2182 3.86143 14.1361C3.42776 14.0928 3.21093 14.0711 3.04161 13.9838C2.82656 13.8728 2.65902 13.6877 2.57005 13.4627C2.5 13.2855 2.5 13.0676 2.5 12.6318V11.3683C2.5 10.9324 2.5 10.7144 2.57008 10.5372C2.65905 10.3123 2.82654 10.1272 3.04152 10.0163C3.21088 9.92891 3.42777 9.90722 3.86155 9.86384H3.86155H3.86156C4.68264 9.78173 5.09319 9.74068 5.31842 9.56881C5.60395 9.35092 5.7507 8.99664 5.70287 8.64066C5.66514 8.35987 5.40385 8.04052 4.88128 7.40182C4.60516 7.06435 4.46711 6.89561 4.40914 6.71405C4.33557 6.48364 4.348 6.23438 4.44413 6.01243C4.51988 5.83754 4.67403 5.68339 4.98233 5.37509L5.87565 4.48177L5.87566 4.48177C6.18385 4.17357 6.33795 4.01947 6.51277 3.94373C6.73478 3.84753 6.98414 3.8351 7.21463 3.90872C7.39612 3.9667 7.56481 4.10472 7.9022 4.38076C8.54061 4.9031 8.85982 5.16427 9.14044 5.20207C9.49661 5.25003 9.85113 5.10319 10.0691 4.81742C10.2408 4.59227 10.2818 4.18195 10.3639 3.36131C10.4072 2.92776 10.4289 2.71098 10.5162 2.5417C10.6271 2.32658 10.8123 2.15898 11.0374 2.07001C11.2145 2 11.4324 2 11.8681 2H13.1318C13.5676 2 13.7855 2 13.9627 2.07005C14.1877 2.15902 14.3728 2.32656 14.4838 2.54161ZM12.5 16C14.7091 16 16.5 14.2091 16.5 12C16.5 9.79086 14.7091 8 12.5 8C10.2909 8 8.5 9.79086 8.5 12C8.5 14.2091 10.2909 16 12.5 16Z" fill="#1A1A8D"/>
</svg>
