<svg width="25" height="24" viewBox="0 0 25 24" fill="none" xmlns="http://www.w3.org/2000/svg">
<path fill-rule="evenodd" clip-rule="evenodd" d="M14.4838 2.54161C14.5711 2.71093 14.5928 2.92777 14.6361 3.36144C14.7182 4.1823 14.7593 4.59274 14.9311 4.81793C15.149 5.10358 15.5034 5.25038 15.8595 5.20248C16.1402 5.16472 16.4594 4.90352 17.0979 4.38113C17.4352 4.10515 17.6038 3.96716 17.7853 3.90918C18.0158 3.83555 18.2652 3.84798 18.4872 3.94419C18.662 4.01994 18.8161 4.17402 19.1243 4.4822L20.0178 5.37567C20.3259 5.68385 20.48 5.83794 20.5558 6.01275C20.652 6.23478 20.6644 6.48415 20.5908 6.71464C20.5328 6.89612 20.3948 7.06478 20.1188 7.4021C19.5964 8.0406 19.3352 8.35984 19.2975 8.64056C19.2496 8.99662 19.3964 9.35102 19.682 9.56893C19.9072 9.74072 20.3176 9.78176 21.1385 9.86385C21.5722 9.90722 21.7891 9.92891 21.9584 10.0162C22.1734 10.1272 22.341 10.3123 22.4299 10.5373C22.5 10.7145 22.5 10.9324 22.5 11.3682V12.6319C22.5 13.0676 22.5 13.2855 22.43 13.4626C22.341 13.6877 22.1734 13.8729 21.9583 13.9838C21.789 14.0711 21.5722 14.0928 21.1386 14.1361L21.1386 14.1361C20.318 14.2182 19.9077 14.2592 19.6825 14.4309C19.3967 14.6489 19.2499 15.0034 19.2979 15.3596C19.3357 15.6402 19.5968 15.9593 20.119 16.5976C20.3949 16.9348 20.5328 17.1034 20.5908 17.2848C20.6645 17.5154 20.652 17.7648 20.5558 17.9869C20.48 18.1617 20.326 18.3157 20.0179 18.6238L19.1243 19.5174C18.8162 19.8255 18.6621 19.9796 18.4873 20.0554C18.2652 20.1516 18.0159 20.164 17.7854 20.0904C17.6039 20.0324 17.4352 19.8944 17.0979 19.6184L17.0979 19.6184C16.4594 19.096 16.1402 18.8348 15.8595 18.7971C15.5034 18.7492 15.149 18.896 14.9311 19.1816C14.7593 19.4068 14.7183 19.8173 14.6362 20.6383C14.5928 21.0722 14.5711 21.2891 14.4837 21.4585C14.3728 21.6735 14.1877 21.8409 13.9628 21.9299C13.7856 22 13.5676 22 13.1316 22H11.8682C11.4324 22 11.2145 22 11.0373 21.9299C10.8123 21.841 10.6272 21.6734 10.5162 21.4584C10.4289 21.2891 10.4072 21.0722 10.3639 20.6385C10.2818 19.8176 10.2407 19.4072 10.0689 19.182C9.85101 18.8964 9.49663 18.7496 9.14057 18.7975C8.85985 18.8352 8.54059 19.0964 7.90208 19.6189L7.90206 19.6189C7.56473 19.8949 7.39607 20.0329 7.21458 20.0908C6.9841 20.1645 6.73474 20.152 6.51272 20.0558C6.3379 19.9801 6.1838 19.826 5.87561 19.5178L4.98217 18.6243C4.67398 18.3162 4.51988 18.1621 4.44414 17.9873C4.34794 17.7652 4.3355 17.5159 4.40913 17.2854C4.46711 17.1039 4.60511 16.9352 4.8811 16.5979C5.40351 15.9594 5.66471 15.6402 5.70247 15.3594C5.75037 15.0034 5.60357 14.649 5.31792 14.4311C5.09273 14.2593 4.6823 14.2182 3.86143 14.1361C3.42776 14.0928 3.21093 14.0711 3.04161 13.9838C2.82656 13.8728 2.65902 13.6877 2.57005 13.4627C2.5 13.2855 2.5 13.0676 2.5 12.6318V11.3683C2.5 10.9324 2.5 10.7144 2.57008 10.5372C2.65905 10.3123 2.82654 10.1272 3.04152 10.0163C3.21088 9.92891 3.42777 9.90722 3.86155 9.86384H3.86155H3.86156C4.68264 9.78173 5.09319 9.74068 5.31842 9.56881C5.60395 9.35092 5.7507 8.99664 5.70287 8.64066C5.66514 8.35987 5.40385 8.04052 4.88128 7.40182C4.60516 7.06435 4.46711 6.89561 4.40914 6.71405C4.33557 6.48364 4.348 6.23438 4.44413 6.01243C4.51988 5.83754 4.67403 5.68339 4.98233 5.37509L5.87565 4.48177L5.87566 4.48177C6.18385 4.17357 6.33795 4.01947 6.51277 3.94373C6.73478 3.84753 6.98414 3.8351 7.21463 3.90872C7.39612 3.9667 7.56481 4.10472 7.9022 4.38076C8.54061 4.9031 8.85982 5.16427 9.14044 5.20207C9.49661 5.25003 9.85113 5.10319 10.0691 4.81742C10.2408 4.59227 10.2818 4.18195 10.3639 3.36131C10.4072 2.92776 10.4289 2.71098 10.5162 2.5417C10.6271 2.32658 10.8123 2.15898 11.0374 2.07001C11.2145 2 11.4324 2 11.8681 2H13.1318C13.5676 2 13.7855 2 13.9627 2.07005C14.1877 2.15902 14.3728 2.32656 14.4838 2.54161ZM12.5 16C14.7091 16 16.5 14.2091 16.5 12C16.5 9.79086 14.7091 8 12.5 8C10.2909 8 8.5 9.79086 8.5 12C8.5 14.2091 10.2909 16 12.5 16Z" fill="#FFD400" fill-opacity="0.5"/>
<path d="M14.6361 3.36144L15.2332 3.30174L14.6361 3.36144ZM14.4838 2.54161L13.9505 2.81664V2.81664L14.4838 2.54161ZM14.9311 4.81793L15.4081 4.45401L15.4081 4.45401L14.9311 4.81793ZM15.8595 5.20248L15.7795 4.60783L15.7795 4.60783L15.8595 5.20248ZM17.0979 4.38113L17.4778 4.8455L17.4778 4.8455L17.0979 4.38113ZM17.7853 3.90918L17.9679 4.48073L17.7853 3.90918ZM18.4872 3.94419L18.7258 3.39365L18.7258 3.39365L18.4872 3.94419ZM19.1243 4.4822L18.7 4.90646L18.7 4.90646L19.1243 4.4822ZM20.0178 5.37567L20.442 4.9514L20.442 4.9514L20.0178 5.37567ZM20.5558 6.01275L21.1063 5.7742V5.7742L20.5558 6.01275ZM20.5908 6.71464L21.1623 6.89723V6.89722L20.5908 6.71464ZM20.1188 7.4021L19.6545 7.02216V7.02216L20.1188 7.4021ZM19.2975 8.64056L18.7028 8.56057V8.56057L19.2975 8.64056ZM19.682 9.56893L19.3181 10.046L19.3181 10.046L19.682 9.56893ZM21.1385 9.86385L21.1982 9.26683L21.1385 9.86385ZM21.9584 10.0162L22.2334 9.483L22.2334 9.483L21.9584 10.0162ZM22.4299 10.5373L22.9879 10.3167V10.3167L22.4299 10.5373ZM22.43 13.4626L21.872 13.2421L21.872 13.2421L22.43 13.4626ZM21.9583 13.9838L22.2333 14.5171H22.2333L21.9583 13.9838ZM21.1386 14.1361L21.0789 13.5391L21.0594 13.5411L21.04 13.5443L21.1386 14.1361ZM21.1386 14.1361L21.1983 14.7332L21.2179 14.7312L21.2372 14.728L21.1386 14.1361ZM19.6825 14.4309L19.3187 13.9538H19.3187L19.6825 14.4309ZM19.2979 15.3596L18.7032 15.4397V15.4397L19.2979 15.3596ZM20.119 16.5976L19.6546 16.9775L20.119 16.5976ZM20.5908 17.2848L20.0193 17.4674V17.4674L20.5908 17.2848ZM20.5558 17.9869L20.0053 17.7483L20.0053 17.7483L20.5558 17.9869ZM20.0179 18.6238L20.4422 19.048H20.4422L20.0179 18.6238ZM19.1243 19.5174L18.7001 19.0931L18.7001 19.0931L19.1243 19.5174ZM18.4873 20.0554L18.7258 20.6059L18.7258 20.6059L18.4873 20.0554ZM17.7854 20.0904L17.6028 20.6619H17.6028L17.7854 20.0904ZM17.0979 19.6184L17.4779 19.154L17.4727 19.1499L17.0979 19.6184ZM17.0979 19.6184L16.7179 20.0828L16.7231 20.0869L17.0979 19.6184ZM15.8595 18.7971L15.9395 18.2024H15.9395L15.8595 18.7971ZM14.9311 19.1816L15.4081 19.5455L15.4081 19.5455L14.9311 19.1816ZM14.6362 20.6383L14.0391 20.5786L14.6362 20.6383ZM14.4837 21.4585L13.9505 21.1834L13.9505 21.1834L14.4837 21.4585ZM13.9628 21.9299L13.7421 21.372H13.7421L13.9628 21.9299ZM11.0373 21.9299L11.2579 21.372L11.0373 21.9299ZM10.5162 21.4584L11.0495 21.1834L11.0495 21.1834L10.5162 21.4584ZM10.3639 20.6385L9.76683 20.6983L10.3639 20.6385ZM10.0689 19.182L9.59189 19.5459L9.59189 19.5459L10.0689 19.182ZM9.14057 18.7975L9.06059 18.2028H9.06059L9.14057 18.7975ZM7.90208 19.6189L7.52213 19.1545L7.51263 19.1623L7.50346 19.1704L7.90208 19.6189ZM7.90206 19.6189L8.282 20.0832L8.29151 20.0755L8.30068 20.0673L7.90206 19.6189ZM7.21458 20.0908L7.39716 20.6624V20.6624L7.21458 20.0908ZM6.51272 20.0558L6.27418 20.6064H6.27418L6.51272 20.0558ZM5.87561 19.5178L6.29987 19.0935H6.29987L5.87561 19.5178ZM4.98217 18.6243L4.5579 19.0486L4.5579 19.0486L4.98217 18.6243ZM4.44414 17.9873L4.99468 17.7487L4.44414 17.9873ZM4.40913 17.2854L4.98068 17.468H4.98068L4.40913 17.2854ZM4.8811 16.5979L5.34548 16.9778H5.34548L4.8811 16.5979ZM5.70247 15.3594L6.29712 15.4394V15.4394L5.70247 15.3594ZM5.31792 14.4311L5.68184 13.954L5.68184 13.954L5.31792 14.4311ZM3.86143 14.1361L3.80173 14.7332H3.80173L3.86143 14.1361ZM3.04161 13.9838L3.31664 13.4505H3.31664L3.04161 13.9838ZM2.57005 13.4627L2.01208 13.6833H2.01208L2.57005 13.4627ZM2.57008 10.5372L2.01213 10.3166L2.01213 10.3166L2.57008 10.5372ZM3.04152 10.0163L2.76644 9.48306L2.76644 9.48306L3.04152 10.0163ZM3.86155 9.86384V9.26384H3.83162L3.80185 9.26682L3.86155 9.86384ZM3.86156 9.86384V10.4638H3.89148L3.92126 10.4609L3.86156 9.86384ZM5.31842 9.56881L4.95443 9.09182L4.95443 9.09182L5.31842 9.56881ZM5.70287 8.64066L6.29752 8.56076V8.56076L5.70287 8.64066ZM4.88128 7.40182L5.34565 7.02188L5.34565 7.02188L4.88128 7.40182ZM4.40914 6.71405L4.98071 6.53155L4.40914 6.71405ZM4.44413 6.01243L3.89356 5.77396L3.89356 5.77396L4.44413 6.01243ZM4.98233 5.37509L5.4066 5.79935L5.4066 5.79935L4.98233 5.37509ZM5.87565 4.48177L5.45139 4.0575V4.0575L5.87565 4.48177ZM6.51277 3.94373L6.27423 3.39318H6.27423L6.51277 3.94373ZM7.21463 3.90872L7.3972 3.33717L7.21463 3.90872ZM7.9022 4.38076L8.28214 3.91639L8.28214 3.91639L7.9022 4.38076ZM9.14044 5.20207L9.22052 4.60743L9.14044 5.20207ZM10.0691 4.81742L9.59197 4.45358V4.45358L10.0691 4.81742ZM10.3639 3.36131L10.9609 3.42101V3.42101L10.3639 3.36131ZM10.5162 2.5417L9.98291 2.26673L9.98291 2.26673L10.5162 2.5417ZM11.0374 2.07001L11.258 2.628L11.258 2.628L11.0374 2.07001ZM13.9627 2.07005L14.1833 1.51208L14.1833 1.51208L13.9627 2.07005ZM15.2332 3.30174C15.2123 3.09283 15.194 2.90695 15.1682 2.75304C15.1413 2.59322 15.1007 2.42874 15.017 2.26658L13.9505 2.81664C13.9542 2.8238 13.968 2.85239 13.9847 2.95175C14.0024 3.057 14.0166 3.19638 14.0391 3.42114L15.2332 3.30174ZM15.4081 4.45401C15.4117 4.45873 15.3783 4.41718 15.3405 4.20679C15.3037 4.00215 15.2752 3.72224 15.2332 3.30174L14.0391 3.42114C14.0792 3.8215 14.1123 4.15725 14.1594 4.41933C14.2056 4.67567 14.2786 4.95193 14.454 5.18184L15.4081 4.45401ZM15.7795 4.60783C15.637 4.627 15.4953 4.56828 15.4081 4.45401L14.454 5.18184C14.8027 5.63889 15.3697 5.87376 15.9394 5.79712L15.7795 4.60783ZM16.7179 3.91676C16.3909 4.18436 16.1728 4.36217 16.0021 4.48084C15.8265 4.60283 15.7736 4.60863 15.7795 4.60783L15.9394 5.79712C16.226 5.75857 16.473 5.61488 16.6869 5.46624C16.9056 5.31427 17.1664 5.10029 17.4778 4.8455L16.7179 3.91676ZM17.6027 3.33764C17.4289 3.39316 17.2839 3.48071 17.1519 3.57474C17.0248 3.6653 16.8804 3.78381 16.7179 3.91676L17.4778 4.8455C17.6526 4.70247 17.7613 4.61399 17.8482 4.55206C17.9302 4.49361 17.9602 4.48318 17.9679 4.48073L17.6027 3.33764ZM18.7258 3.39365C18.3705 3.23972 17.9715 3.21982 17.6027 3.33764L17.9679 4.48073C18.0601 4.45127 18.1599 4.45625 18.2487 4.49473L18.7258 3.39365ZM19.5486 4.05794C19.4001 3.90948 19.2683 3.7772 19.1508 3.67444C19.0288 3.56775 18.8932 3.4662 18.7258 3.39365L18.2487 4.49473C18.2561 4.49793 18.2849 4.5113 18.3607 4.57763C18.441 4.6479 18.5403 4.74674 18.7 4.90646L19.5486 4.05794ZM20.442 4.9514L19.5486 4.05793L18.7 4.90646L19.5935 5.79993L20.442 4.9514ZM21.1063 5.7742C21.0338 5.60678 20.9322 5.47115 20.8255 5.34918C20.7228 5.23171 20.5905 5.09986 20.442 4.9514L19.5935 5.79993C19.7532 5.95966 19.8521 6.05894 19.9223 6.13927C19.9887 6.2151 20.002 6.24391 20.0052 6.25131L21.1063 5.7742ZM21.1623 6.89722C21.2801 6.52844 21.2602 6.12944 21.1063 5.7742L20.0052 6.2513C20.0437 6.34011 20.0487 6.43986 20.0192 6.53206L21.1623 6.89722ZM20.5832 7.78205C20.7161 7.61955 20.8347 7.47519 20.9252 7.34809C21.0193 7.21611 21.1068 7.07103 21.1623 6.89723L20.0192 6.53206C20.0168 6.53973 20.0064 6.56973 19.9479 6.65178C19.886 6.7387 19.7975 6.84733 19.6545 7.02216L20.5832 7.78205ZM19.8921 8.72054C19.8913 8.72642 19.8971 8.67345 20.0191 8.49791C20.1378 8.32716 20.3156 8.10912 20.5832 7.78204L19.6545 7.02216C19.3997 7.33357 19.1857 7.59441 19.0337 7.81308C18.8851 8.02697 18.7414 8.27398 18.7028 8.56057L19.8921 8.72054ZM20.0459 9.09189C19.9317 9.00473 19.8729 8.86297 19.8921 8.72054L18.7028 8.56057C18.6262 9.13028 18.8611 9.6973 19.3181 10.046L20.0459 9.09189ZM21.1982 9.26683C20.7777 9.22478 20.4978 9.19634 20.2931 9.15951C20.0828 9.12165 20.0412 9.08829 20.0459 9.09189L19.3181 10.046C19.548 10.2214 19.8243 10.2944 20.0806 10.3405C20.3427 10.3877 20.6785 10.4208 21.0788 10.4609L21.1982 9.26683ZM22.2334 9.483C22.0713 9.39935 21.9068 9.35868 21.747 9.33184C21.593 9.306 21.4072 9.28772 21.1982 9.26683L21.0788 10.4609C21.3036 10.4834 21.443 10.4976 21.5483 10.5153C21.6476 10.532 21.6762 10.5458 21.6834 10.5495L22.2334 9.483ZM22.9879 10.3167C22.8456 9.95666 22.5775 9.66046 22.2334 9.483L21.6834 10.5495C21.7694 10.5939 21.8364 10.6679 21.872 10.7579L22.9879 10.3167ZM23.1 11.3682C23.1 11.1583 23.1003 10.9715 23.0899 10.8158C23.0791 10.6541 23.055 10.4864 22.9879 10.3167L21.872 10.7579C21.8749 10.7654 21.8859 10.7952 21.8926 10.8957C21.8997 11.0022 21.9 11.1423 21.9 11.3682H23.1ZM23.1 12.6319V11.3682H21.9V12.6319H23.1ZM22.988 13.6832C23.055 13.5135 23.0791 13.3459 23.0899 13.1842C23.1003 13.0285 23.1 12.8418 23.1 12.6319H21.9C21.9 12.8577 21.8997 12.9978 21.8926 13.1042C21.8859 13.2047 21.875 13.2346 21.872 13.2421L22.988 13.6832ZM22.2333 14.5171C22.5775 14.3396 22.8456 14.0433 22.988 13.6832L21.872 13.2421C21.8364 13.3321 21.7694 13.4062 21.6833 13.4505L22.2333 14.5171ZM21.1983 14.7332C21.4072 14.7123 21.593 14.694 21.7469 14.6682C21.9067 14.6413 22.0712 14.6007 22.2333 14.5171L21.6833 13.4505C21.6762 13.4542 21.6476 13.468 21.5482 13.4847C21.443 13.5024 21.3037 13.5166 21.0789 13.5391L21.1983 14.7332ZM21.2372 14.728L21.2373 14.728L21.04 13.5443L21.04 13.5443L21.2372 14.728ZM20.0464 14.908C20.0416 14.9116 20.0832 14.8783 20.2935 14.8404C20.4981 14.8036 20.7779 14.7752 21.1983 14.7332L21.0789 13.5391C20.6787 13.5791 20.343 13.6123 20.081 13.6594C19.8248 13.7055 19.5486 13.7785 19.3187 13.9538L20.0464 14.908ZM19.8925 15.2795C19.8733 15.137 19.932 14.9952 20.0464 14.908L19.3187 13.9538C18.8614 14.3025 18.6265 14.8698 18.7032 15.4397L19.8925 15.2795ZM20.5834 16.2176C20.3158 15.8907 20.1381 15.6727 20.0195 15.502C19.8975 15.3266 19.8917 15.2736 19.8925 15.2795L18.7032 15.4397C18.7418 15.7262 18.8855 15.9731 19.0341 16.1869C19.186 16.4055 19.3999 16.6662 19.6546 16.9775L20.5834 16.2176ZM21.1623 17.1021C21.1068 16.9284 21.0193 16.7834 20.9253 16.6514C20.8347 16.5244 20.7163 16.3801 20.5834 16.2176L19.6546 16.9775C19.7976 17.1523 19.886 17.2609 19.9479 17.3478C20.0064 17.4298 20.0168 17.4598 20.0193 17.4674L21.1623 17.1021ZM21.1063 18.2256C21.2603 17.8702 21.2802 17.471 21.1623 17.1021L20.0193 17.4674C20.0487 17.5597 20.0438 17.6595 20.0053 17.7483L21.1063 18.2256ZM20.4422 19.048C20.5906 18.8996 20.7228 18.7678 20.8256 18.6504C20.9322 18.5285 21.0337 18.3929 21.1063 18.2256L20.0053 17.7483C20.0021 17.7557 19.9887 17.7845 19.9224 17.8603C19.8521 17.9406 19.7533 18.0398 19.5937 18.1995L20.4422 19.048ZM19.5486 19.9416L20.4422 19.048L19.5937 18.1995L18.7001 19.0931L19.5486 19.9416ZM18.7258 20.6059C18.8932 20.5334 19.0289 20.4318 19.1508 20.3251C19.2683 20.2224 19.4001 20.0901 19.5486 19.9416L18.7001 19.0931C18.5403 19.2528 18.4411 19.3517 18.3607 19.4219C18.2849 19.4883 18.2561 19.5016 18.2487 19.5048L18.7258 20.6059ZM17.6028 20.6619C17.9716 20.7797 18.3706 20.7598 18.7258 20.6059L18.2487 19.5048C18.1599 19.5433 18.0601 19.5483 17.9679 19.5188L17.6028 20.6619ZM16.718 20.0828C16.8805 20.2157 17.0248 20.3343 17.1519 20.4248C17.2839 20.5188 17.429 20.6064 17.6028 20.6619L17.9679 19.5188C17.9603 19.5164 17.9303 19.5059 17.8482 19.4475C17.7613 19.3856 17.6527 19.2971 17.4779 19.1541L16.718 20.0828ZM16.7231 20.0869L16.7231 20.0869L17.4727 19.1499L17.4727 19.1499L16.7231 20.0869ZM15.7795 19.3917C15.7736 19.3909 15.8266 19.3967 16.0021 19.5187C16.1729 19.6374 16.3909 19.8152 16.718 20.0828L17.4778 19.154C17.1664 18.8993 16.9056 18.6853 16.687 18.5333C16.4731 18.3847 16.2261 18.241 15.9395 18.2024L15.7795 19.3917ZM15.4081 19.5455C15.4953 19.4313 15.6371 19.3726 15.7795 19.3917L15.9395 18.2024C15.3698 18.1258 14.8027 18.3607 14.4541 18.8177L15.4081 19.5455ZM15.2332 20.698C15.2752 20.2775 15.3037 19.9975 15.3405 19.7928C15.3784 19.5824 15.4118 19.5408 15.4081 19.5455L14.4541 18.8177C14.2787 19.0476 14.2056 19.3239 14.1595 19.5803C14.1123 19.8424 14.0792 20.1782 14.0391 20.5786L15.2332 20.698ZM15.0169 21.7336C15.1006 21.5714 15.1413 21.4068 15.1682 21.247C15.194 21.093 15.2123 20.907 15.2332 20.698L14.0391 20.5786C14.0167 20.8035 14.0024 20.9429 13.9847 21.0482C13.968 21.1476 13.9542 21.1762 13.9505 21.1834L15.0169 21.7336ZM14.1835 22.4879C14.5434 22.3455 14.8395 22.0775 15.0169 21.7336L13.9505 21.1834C13.9061 21.2694 13.8321 21.3364 13.7421 21.372L14.1835 22.4879ZM13.1316 22.6C13.3416 22.6 13.5285 22.6003 13.6842 22.5899C13.846 22.5791 14.0138 22.555 14.1835 22.4879L13.7421 21.372C13.7346 21.3749 13.7048 21.3859 13.6043 21.3926C13.4977 21.3997 13.3576 21.4 13.1316 21.4V22.6ZM11.8682 22.6H13.1316V21.4H11.8682V22.6ZM10.8167 22.4879C10.9864 22.555 11.1541 22.5791 11.3158 22.5899C11.4715 22.6003 11.6583 22.6 11.8682 22.6V21.4C11.6423 21.4 11.5022 21.3997 11.3957 21.3926C11.2952 21.3859 11.2654 21.3749 11.2579 21.372L10.8167 22.4879ZM9.98299 21.7334C10.1605 22.0775 10.4567 22.3456 10.8167 22.4879L11.2579 21.372C11.1679 21.3364 11.0939 21.2694 11.0495 21.1834L9.98299 21.7334ZM9.76683 20.6983C9.78772 20.9072 9.806 21.0931 9.83184 21.247C9.85868 21.4068 9.89935 21.5713 9.98299 21.7334L11.0495 21.1834C11.0458 21.1762 11.032 21.1476 11.0153 21.0483C10.9976 20.943 10.9834 20.8036 10.9609 20.5788L9.76683 20.6983ZM9.59189 19.5459C9.58829 19.5412 9.62165 19.5828 9.65951 19.7932C9.69634 19.9978 9.72478 20.2777 9.76683 20.6983L10.9609 20.5788C10.9208 20.1785 10.8877 19.8427 10.8405 19.5806C10.7944 19.3243 10.7213 19.048 10.5459 18.8181L9.59189 19.5459ZM9.22055 19.3921C9.36297 19.373 9.50472 19.4317 9.59189 19.5459L10.5459 18.8181C10.1973 18.3611 9.63028 18.1262 9.06059 18.2028L9.22055 19.3921ZM8.28202 20.0832C8.60911 19.8156 8.82715 19.6378 8.99791 19.5191C9.17345 19.3971 9.22643 19.3913 9.22055 19.3921L9.06059 18.2028C8.77399 18.2414 8.52698 18.3851 8.31308 18.5337C8.0944 18.6857 7.83356 18.8997 7.52213 19.1545L8.28202 20.0832ZM8.30068 20.0673L8.30069 20.0673L7.50346 19.1704L7.50344 19.1704L8.30068 20.0673ZM7.39716 20.6624C7.57097 20.6069 7.71605 20.5193 7.84803 20.4253C7.97514 20.3347 8.11951 20.2162 8.282 20.0832L7.52212 19.1545C7.34729 19.2975 7.23866 19.386 7.15173 19.4479C7.06968 19.5064 7.03968 19.5168 7.03201 19.5193L7.39716 20.6624ZM6.27418 20.6064C6.62941 20.7603 7.02838 20.7802 7.39716 20.6624L7.03201 19.5193C6.93981 19.5487 6.84007 19.5438 6.75126 19.5053L6.27418 20.6064ZM5.45134 19.9421C5.59981 20.0905 5.73166 20.2228 5.84913 20.3256C5.97111 20.4323 6.10675 20.5338 6.27418 20.6064L6.75126 19.5053C6.74387 19.5021 6.71506 19.4887 6.63923 19.4224C6.5589 19.3521 6.45961 19.2533 6.29987 19.0935L5.45134 19.9421ZM4.5579 19.0486L5.45134 19.9421L6.29987 19.0935L5.40643 18.2001L4.5579 19.0486ZM3.8936 18.2258C3.96614 18.3932 4.06769 18.5289 4.17439 18.6508C4.27715 18.7683 4.40944 18.9002 4.5579 19.0486L5.40643 18.2001C5.2467 18.0404 5.14785 17.9411 5.07758 17.8607C5.01125 17.7849 4.99788 17.7561 4.99468 17.7487L3.8936 18.2258ZM3.83759 17.1028C3.71978 17.4716 3.73968 17.8706 3.8936 18.2258L4.99468 17.7487C4.9562 17.6599 4.95123 17.5602 4.98068 17.468L3.83759 17.1028ZM4.41673 16.218C4.28378 16.3804 4.16526 16.5248 4.0747 16.6519C3.98067 16.7839 3.89311 16.929 3.83759 17.1028L4.98068 17.468C4.98313 17.4603 4.99356 17.4303 5.05202 17.3482C5.11395 17.2613 5.20243 17.1527 5.34548 16.9778L4.41673 16.218ZM5.10783 15.2795C5.10862 15.2736 5.10283 15.3265 4.98083 15.5021C4.86216 15.6728 4.68434 15.8909 4.41673 16.218L5.34548 16.9778C5.60027 16.6664 5.81426 16.4056 5.96623 16.1869C6.11488 15.973 6.25856 15.726 6.29712 15.4394L5.10783 15.2795ZM4.95401 14.9081C5.06827 14.9953 5.12699 15.137 5.10783 15.2795L6.29712 15.4394C6.37375 14.8697 6.13888 14.3027 5.68184 13.954L4.95401 14.9081ZM3.80173 14.7332C4.22223 14.7752 4.50214 14.8037 4.70679 14.8405C4.91717 14.8783 4.95872 14.9117 4.95401 14.9081L5.68184 13.954C5.45193 13.7786 5.17567 13.7056 4.91932 13.6594C4.65724 13.6123 4.3215 13.5792 3.92113 13.5391L3.80173 14.7332ZM2.76658 14.517C2.92874 14.6007 3.09322 14.6413 3.25304 14.6682C3.40695 14.694 3.59282 14.7123 3.80173 14.7332L3.92113 13.5391C3.69637 13.5166 3.557 13.5024 3.45174 13.4847C3.35239 13.468 3.3238 13.4542 3.31664 13.4505L2.76658 14.517ZM2.01208 13.6833C2.15442 14.0433 2.42249 14.3395 2.76658 14.517L3.31664 13.4505C3.23062 13.4061 3.16361 13.3321 3.12802 13.2421L2.01208 13.6833ZM1.9 12.6318C1.9 12.8417 1.89969 13.0285 1.91009 13.1842C1.92089 13.3459 1.94499 13.5136 2.01208 13.6833L3.12802 13.2421C3.12506 13.2346 3.11414 13.2048 3.10742 13.1042C3.10031 12.9978 3.1 12.8577 3.1 12.6318H1.9ZM1.9 11.3683V12.6318H3.1V11.3683H1.9ZM2.01213 10.3166C1.94501 10.4863 1.9209 10.654 1.91009 10.8158C1.89969 10.9715 1.9 11.1583 1.9 11.3683H3.1C3.1 11.1424 3.10031 11.0023 3.10743 10.8957C3.11414 10.7952 3.12507 10.7654 3.12803 10.7579L2.01213 10.3166ZM2.76644 9.48306C2.42247 9.66051 2.15448 9.95663 2.01213 10.3166L3.12803 10.7579C3.16362 10.6679 3.23062 10.5939 3.31661 10.5495L2.76644 9.48306ZM3.80185 9.26682C3.59289 9.28772 3.40696 9.306 3.25301 9.33185C3.09316 9.35869 2.92863 9.39938 2.76644 9.48306L3.31661 10.5495C3.32377 10.5458 3.35237 10.532 3.45174 10.5153C3.55702 10.4976 3.69643 10.4833 3.92125 10.4609L3.80185 9.26682ZM3.86155 9.26384H3.86155V10.4638H3.86155V9.26384ZM3.86156 9.26384H3.86155V10.4638H3.86156V9.26384ZM4.95443 9.09182C4.95915 9.08823 4.91759 9.1216 4.70716 9.15948C4.50245 9.19632 4.22247 9.22476 3.80186 9.26682L3.92126 10.4609C4.32173 10.4208 4.65756 10.3877 4.91971 10.3405C5.17613 10.2944 5.45246 10.2213 5.6824 10.0458L4.95443 9.09182ZM5.10821 8.72057C5.12734 8.86296 5.06864 9.00467 4.95443 9.09182L5.6824 10.0458C6.13926 9.69717 6.37405 9.13032 6.29752 8.56076L5.10821 8.72057ZM4.4169 7.78176C4.6846 8.10895 4.86248 8.32705 4.98118 8.49786C5.10322 8.67346 5.109 8.72645 5.10821 8.72057L6.29752 8.56076C6.259 8.27408 6.11528 8.027 5.96659 7.81305C5.81458 7.59431 5.60053 7.33339 5.34565 7.02188L4.4169 7.78176ZM3.83757 6.89655C3.89309 7.07044 3.98067 7.21557 4.07473 7.34761C4.16533 7.47477 4.28389 7.6192 4.4169 7.78176L5.34565 7.02188C5.20255 6.84697 5.11403 6.73829 5.05207 6.65133C4.99359 6.56924 4.98316 6.53922 4.98071 6.53155L3.83757 6.89655ZM3.89356 5.77396C3.73975 6.12907 3.71985 6.5279 3.83757 6.89655L4.98071 6.53155C4.95128 6.43939 4.95625 6.33968 4.9947 6.2509L3.89356 5.77396ZM4.55807 4.95082C4.40956 5.09934 4.27721 5.23124 4.17442 5.34875C4.06769 5.47077 3.9661 5.60647 3.89356 5.77396L4.9947 6.2509C4.99791 6.24351 5.01127 6.21468 5.07763 6.13883C5.14792 6.05847 5.24681 5.95914 5.4066 5.79935L4.55807 4.95082ZM5.45139 4.0575L4.55807 4.95082L5.4066 5.79935L6.29992 4.90603L5.45139 4.0575ZM5.45139 4.0575L5.45139 4.0575L6.29992 4.90603L6.29992 4.90603L5.45139 4.0575ZM6.27423 3.39318C6.1068 3.46573 5.97115 3.56728 5.84918 3.67398C5.73171 3.77675 5.59985 3.90904 5.45139 4.0575L6.29992 4.90603C6.45965 4.7463 6.55894 4.64745 6.63928 4.57717C6.7151 4.51084 6.74392 4.49747 6.75131 4.49427L6.27423 3.39318ZM7.3972 3.33717C7.02843 3.21937 6.62945 3.23927 6.27423 3.39318L6.75131 4.49427C6.84011 4.45579 6.93986 4.45082 7.03205 4.48027L7.3972 3.33717ZM8.28214 3.91639C8.11961 3.78341 7.97523 3.66488 7.84811 3.57431C7.71611 3.48027 7.57103 3.3927 7.3972 3.33717L7.03205 4.48027C7.03972 4.48272 7.06972 4.49315 7.15179 4.55163C7.23874 4.61357 7.34739 4.70207 7.52225 4.84514L8.28214 3.91639ZM9.22052 4.60743C9.22641 4.60823 9.17345 4.60243 8.99792 4.48043C8.82719 4.36177 8.60918 4.18397 8.28214 3.91639L7.52225 4.84514C7.83363 5.0999 8.09443 5.31385 8.31306 5.46581C8.5269 5.61443 8.77385 5.75811 9.06036 5.7967L9.22052 4.60743ZM9.59197 4.45358C9.5048 4.56788 9.36299 4.62662 9.22052 4.60743L9.06036 5.7967C9.63024 5.87345 10.1975 5.63849 10.5462 5.18126L9.59197 4.45358ZM9.76685 3.3016C9.72481 3.72199 9.69638 4.00182 9.65957 4.20642C9.62172 4.41674 9.58838 4.45829 9.59197 4.45358L10.5462 5.18126C10.7215 4.95139 10.7945 4.6752 10.8406 4.41892C10.8877 4.15691 10.9209 3.82126 10.9609 3.42101L9.76685 3.3016ZM9.98291 2.26673C9.89931 2.42885 9.85866 2.59329 9.83184 2.75306C9.806 2.90693 9.78773 3.09276 9.76685 3.3016L10.9609 3.42101C10.9834 3.19631 10.9976 3.05697 11.0153 2.95175C11.0319 2.85242 11.0458 2.82384 11.0495 2.81668L9.98291 2.26673ZM10.8169 1.51201C10.4567 1.65437 10.1604 1.92252 9.98291 2.26673L11.0495 2.81668C11.0938 2.73063 11.1679 2.66359 11.258 2.628L10.8169 1.51201ZM11.8681 1.4C11.6582 1.4 11.4715 1.39969 11.3158 1.41008C11.1542 1.42088 10.9865 1.44497 10.8169 1.51201L11.258 2.628C11.2654 2.62504 11.2953 2.61413 11.3958 2.60742C11.5022 2.60031 11.6423 2.6 11.8681 2.6V1.4ZM13.1318 1.4H11.8681V2.6H13.1318V1.4ZM14.1833 1.51208C14.0136 1.44499 13.8459 1.42089 13.6842 1.41009C13.5285 1.39969 13.3417 1.4 13.1318 1.4V2.6C13.3577 2.6 13.4978 2.60031 13.6043 2.60742C13.7048 2.61414 13.7346 2.62506 13.7421 2.62802L14.1833 1.51208ZM15.017 2.26658C14.8395 1.92249 14.5433 1.65443 14.1833 1.51208L13.7421 2.62802C13.8321 2.66361 13.9061 2.73062 13.9505 2.81664L15.017 2.26658ZM15.9 12C15.9 13.8778 14.3778 15.4 12.5 15.4V16.6C15.0405 16.6 17.1 14.5405 17.1 12H15.9ZM12.5 8.6C14.3778 8.6 15.9 10.1222 15.9 12H17.1C17.1 9.45949 15.0405 7.4 12.5 7.4V8.6ZM9.1 12C9.1 10.1222 10.6222 8.6 12.5 8.6V7.4C9.95949 7.4 7.9 9.45949 7.9 12H9.1ZM12.5 15.4C10.6222 15.4 9.1 13.8778 9.1 12H7.9C7.9 14.5405 9.95949 16.6 12.5 16.6V15.4Z" fill="#1A1A8D"/>
</svg>
