<svg width="25" height="24" viewBox="0 0 25 24" fill="none" xmlns="http://www.w3.org/2000/svg">
<path fill-rule="evenodd" clip-rule="evenodd" d="M12.5 1.48438C11.8425 1.48438 11.2706 1.90595 10.1267 2.74911L8.40576 4.01757C8.22555 4.1504 8.13545 4.21681 8.03871 4.27266C7.94198 4.32851 7.83941 4.37334 7.63427 4.46299L5.6753 5.31911C4.37315 5.88818 3.72208 6.17272 3.39336 6.74208C3.06464 7.31144 3.14376 8.01756 3.302 9.42979L3.54006 11.5544C3.56499 11.7768 3.57745 11.8881 3.57745 11.9998C3.57745 12.1115 3.56499 12.2227 3.54006 12.4452L3.302 14.5698C3.14376 15.982 3.06464 16.6881 3.39336 17.2575C3.72208 17.8269 4.37315 18.1114 5.6753 18.6805L7.63427 19.5366C7.83941 19.6262 7.94198 19.6711 8.03871 19.7269C8.13544 19.7828 8.22554 19.8492 8.40573 19.982L8.40576 19.982L10.1267 21.2505C11.2706 22.0936 11.8425 22.5152 12.5 22.5152C13.1574 22.5152 13.7294 22.0936 14.8733 21.2505L16.5942 19.982L16.5942 19.982C16.7744 19.8492 16.8645 19.7828 16.9612 19.7269C17.058 19.6711 17.1605 19.6262 17.3657 19.5366L19.3246 18.6805C20.6268 18.1114 21.2779 17.8269 21.6066 17.2575C21.9353 16.6881 21.8562 15.982 21.6979 14.5698L21.4599 12.4452L21.4599 12.4451C21.4349 12.2227 21.4225 12.1115 21.4225 11.9998C21.4225 11.8881 21.4349 11.7769 21.4599 11.5545L21.4599 11.5544L21.6979 9.42979C21.8562 8.01756 21.9353 7.31144 21.6066 6.74208C21.2779 6.17272 20.6268 5.88819 19.3246 5.31911L17.3657 4.46299L17.3657 4.46298C17.1605 4.37334 17.058 4.32851 16.9612 4.27266C16.8645 4.21681 16.7744 4.1504 16.5942 4.01757L14.8733 2.74911C13.7294 1.90595 13.1574 1.48438 12.5 1.48438ZM12.5 15.9998C14.7091 15.9998 16.5 14.2089 16.5 11.9998C16.5 9.79065 14.7091 7.99979 12.5 7.99979C10.2908 7.99979 8.49997 9.79065 8.49997 11.9998C8.49997 14.2089 10.2908 15.9998 12.5 15.9998Z" fill="#1A1A8D"/>
</svg>
