<svg width="25" height="24" viewBox="0 0 25 24" fill="none" xmlns="http://www.w3.org/2000/svg">
<path d="M3.58168 13.9445C3.05298 12.9941 2.78862 12.5188 2.78862 12C2.78862 11.4812 3.05298 11.0059 3.58169 10.0555L4.93094 7.63L6.35685 5.24876C6.9156 4.31567 7.19498 3.84912 7.64431 3.5897C8.09364 3.33028 8.63737 3.3216 9.72483 3.30426L12.5 3.26L15.2752 3.30426C16.3626 3.3216 16.9064 3.33028 17.3557 3.5897C17.805 3.84912 18.0844 4.31567 18.6431 5.24876L20.0691 7.63L21.4183 10.0555C21.947 11.0059 22.2114 11.4812 22.2114 12C22.2114 12.5188 21.947 12.9941 21.4183 13.9445L20.0691 16.37L18.6431 18.7512C18.0844 19.6843 17.805 20.1509 17.3557 20.4103C16.9064 20.6697 16.3626 20.6784 15.2752 20.6957L12.5 20.74L9.72483 20.6957C8.63737 20.6784 8.09364 20.6697 7.64431 20.4103C7.19498 20.1509 6.9156 19.6843 6.35685 18.7512L4.93094 16.37L3.58168 13.9445Z" stroke="#1A1A8D"/>
<circle cx="12.5" cy="12" r="3" stroke="#1A1A8D"/>
</svg>
