<svg width="25" height="24" viewBox="0 0 25 24" fill="none" xmlns="http://www.w3.org/2000/svg">
<path d="M14.6361 3.36144L15.6312 3.26194L14.6361 3.36144ZM14.4838 2.54161L13.595 3V3L14.4838 2.54161ZM14.9311 4.81793L15.7261 4.21141L15.7261 4.21141L14.9311 4.81793ZM15.8595 5.20248L15.7261 4.21141L15.8595 5.20248ZM17.0979 4.38113L17.7311 5.15509L17.7311 5.15509L17.0979 4.38113ZM17.7853 3.90918L18.0896 4.86175L17.7853 3.90918ZM18.4872 3.94419L18.8848 3.02663L18.8848 3.02663L18.4872 3.94419ZM19.1243 4.4822L18.4172 5.1893L18.4172 5.18931L19.1243 4.4822ZM20.0178 5.37567L20.7249 4.66856L20.7249 4.66856L20.0178 5.37567ZM20.5558 6.01275L21.4733 5.61517L21.4733 5.61516L20.5558 6.01275ZM20.5908 6.71464L21.5434 7.01895L21.5434 7.01894L20.5908 6.71464ZM20.1188 7.4021L19.3449 6.76886L19.3449 6.76886L20.1188 7.4021ZM19.2975 8.64056L18.3064 8.50724L18.3064 8.50725L19.2975 8.64056ZM19.682 9.56893L19.0755 10.364L19.0755 10.364L19.682 9.56893ZM21.1385 9.86385L21.238 8.86882L21.1385 9.86385ZM21.9584 10.0162L22.4168 9.1275L22.4168 9.1275L21.9584 10.0162ZM22.4299 10.5373L23.3599 10.1696L23.3599 10.1696L22.4299 10.5373ZM22.43 13.4626L21.5 13.095L21.5 13.095L22.43 13.4626ZM21.9583 13.9838L22.4166 14.8726L22.4166 14.8726L21.9583 13.9838ZM21.1386 14.1361L21.0391 13.1411L21.0065 13.1444L20.9742 13.1497L21.1386 14.1361ZM21.1386 14.1361L21.2381 15.1312L21.2707 15.1279L21.303 15.1225L21.1386 14.1361ZM19.6825 14.4309L19.0762 13.6357L19.0762 13.6357L19.6825 14.4309ZM19.2979 15.3596L18.3068 15.4931V15.4931L19.2979 15.3596ZM20.119 16.5976L19.345 17.2308H19.345L20.119 16.5976ZM20.5908 17.2848L19.6383 17.5892V17.5892L20.5908 17.2848ZM20.5558 17.9869L19.6383 17.5892L19.6383 17.5892L20.5558 17.9869ZM20.0179 18.6238L20.725 19.3309H20.725L20.0179 18.6238ZM19.1243 19.5174L18.4172 18.8102L18.4172 18.8103L19.1243 19.5174ZM18.4873 20.0554L18.8849 20.9729L18.8849 20.9729L18.4873 20.0554ZM17.7854 20.0904L17.481 21.0429L17.481 21.0429L17.7854 20.0904ZM17.0979 19.6184L17.7312 18.8444L17.7226 18.8376L17.0979 19.6184ZM17.0979 19.6184L16.4646 20.3924L16.4732 20.3993L17.0979 19.6184ZM15.8595 18.7971L15.9928 17.806H15.9928L15.8595 18.7971ZM14.9311 19.1816L15.7262 19.7882L15.7262 19.7881L14.9311 19.1816ZM14.6362 20.6383L13.6411 20.5388V20.5388L14.6362 20.6383ZM14.4837 21.4585L13.595 21L13.595 21L14.4837 21.4585ZM13.9628 21.9299L13.595 21L13.595 21L13.9628 21.9299ZM11.0373 21.9299L11.405 21L11.0373 21.9299ZM10.5162 21.4584L11.405 21H11.405L10.5162 21.4584ZM10.3639 20.6385L9.36882 20.7381V20.7381L10.3639 20.6385ZM10.0689 19.182L9.27387 19.7885L9.27387 19.7885L10.0689 19.182ZM9.14057 18.7975L9.00728 17.8064H9.00727L9.14057 18.7975ZM7.90208 19.6189L7.26884 18.8449L7.253 18.8579L7.23771 18.8714L7.90208 19.6189ZM7.90206 19.6189L8.5353 20.3928L8.55113 20.3799L8.56643 20.3663L7.90206 19.6189ZM7.21458 20.0908L7.51887 21.0434H7.51887L7.21458 20.0908ZM6.51272 20.0558L6.11515 20.9734H6.11515L6.51272 20.0558ZM5.87561 19.5178L6.58271 18.8107H6.58271L5.87561 19.5178ZM4.98217 18.6243L4.27506 19.3315L4.27506 19.3315L4.98217 18.6243ZM4.44414 17.9873L5.36171 17.5897L5.36171 17.5897L4.44414 17.9873ZM4.40913 17.2854L5.36171 17.5897L5.36171 17.5897L4.40913 17.2854ZM4.8811 16.5979L5.65506 17.2311H5.65506L4.8811 16.5979ZM5.70247 15.3594L6.69355 15.4928L5.70247 15.3594ZM5.31792 14.4311L5.92445 13.636L5.92445 13.636L5.31792 14.4311ZM3.86143 14.1361L3.76193 15.1312H3.76193L3.86143 14.1361ZM3.04161 13.9838L3.5 13.095H3.5L3.04161 13.9838ZM2.57005 13.4627L1.64009 13.8304L1.64009 13.8304L2.57005 13.4627ZM2.57008 10.5372L1.64017 10.1694L1.64017 10.1694L2.57008 10.5372ZM3.04152 10.0163L2.58305 9.12757L2.58305 9.12757L3.04152 10.0163ZM3.86155 9.86384V8.86384H3.81167L3.76205 8.86881L3.86155 9.86384ZM3.86156 9.86384V10.8638H3.91143L3.96106 10.8589L3.86156 9.86384ZM5.31842 9.56881L4.71178 8.77383L4.71177 8.77383L5.31842 9.56881ZM5.70287 8.64066L6.69396 8.50749L6.69396 8.50749L5.70287 8.64066ZM4.88128 7.40182L5.65523 6.76858H5.65523L4.88128 7.40182ZM4.40914 6.71405L5.36175 6.40988L5.36175 6.40988L4.40914 6.71405ZM4.44413 6.01243L3.52651 5.61498L3.52651 5.61498L4.44413 6.01243ZM4.98233 5.37509L5.68944 6.0822H5.68944L4.98233 5.37509ZM5.87565 4.48177L5.16855 3.77466V3.77466L5.87565 4.48177ZM6.51277 3.94373L6.1152 3.02615L6.1152 3.02616L6.51277 3.94373ZM7.21463 3.90872L7.51892 2.95614V2.95614L7.21463 3.90872ZM7.9022 4.38076L8.53543 3.60681V3.60681L7.9022 4.38076ZM9.14044 5.20207L9.27391 4.21101L9.14044 5.20207ZM10.0691 4.81742L9.27391 4.21101L9.27391 4.21101L10.0691 4.81742ZM10.3639 3.36131L11.3589 3.46081V3.46081L10.3639 3.36131ZM10.5162 2.5417L9.62739 2.08341L9.62739 2.08341L10.5162 2.5417ZM11.0374 2.07001L11.405 3L11.405 3L11.0374 2.07001ZM13.9627 2.07005L14.3304 1.1401V1.1401L13.9627 2.07005ZM15.6312 3.26194C15.6108 3.05831 15.5912 2.85693 15.5626 2.6868C15.5324 2.50684 15.4828 2.29705 15.3725 2.08322L13.595 3C13.5721 2.95549 13.5769 2.93878 13.5902 3.01798C13.6052 3.10701 13.6181 3.23089 13.6411 3.46094L15.6312 3.26194ZM15.7261 4.21141C15.7894 4.29433 15.7693 4.33101 15.7342 4.13595C15.7008 3.95045 15.6739 3.68915 15.6312 3.26194L13.6411 3.46094C13.6805 3.85459 13.7152 4.20895 13.7658 4.49017C13.8147 4.76184 13.9009 5.11633 14.136 5.42445L15.7261 4.21141ZM15.7261 4.21141L15.7261 4.21141L14.136 5.42444C14.5718 5.99575 15.2806 6.28935 15.9928 6.19355L15.7261 4.21141ZM16.4646 3.60717C16.1323 3.87905 15.9286 4.04481 15.7738 4.15238C15.6111 4.26548 15.6228 4.22531 15.7261 4.21141L15.9928 6.19355C16.3768 6.14188 16.6885 5.95223 16.9152 5.7947C17.1498 5.63163 17.4249 5.4056 17.7311 5.15509L16.4646 3.60717ZM17.481 2.95661C17.2518 3.02983 17.0684 3.14308 16.9198 3.24897C16.7793 3.34907 16.623 3.47759 16.4646 3.60717L17.7311 5.15509C17.91 5.00869 18.0068 4.93022 18.0803 4.87784C18.1457 4.83124 18.1373 4.84651 18.0896 4.86175L17.481 2.95661ZM18.8848 3.02663C18.4408 2.83421 17.942 2.80934 17.481 2.95661L18.0896 4.86175L18.0896 4.86175L18.8848 3.02663ZM19.8314 3.77509C19.6867 3.6304 19.544 3.48696 19.4142 3.37338C19.2768 3.25323 19.1056 3.12228 18.8848 3.02663L18.0896 4.86175C18.0437 4.84184 18.0369 4.82581 18.0973 4.87869C18.1653 4.93813 18.2537 5.02583 18.4172 5.1893L19.8314 3.77509ZM20.7249 4.66856L19.8314 3.77509L18.4172 5.18931L19.3107 6.08277L20.7249 4.66856ZM21.4733 5.61516C21.3777 5.39441 21.2467 5.22316 21.1266 5.08581C21.013 4.95597 20.8696 4.81326 20.7249 4.66856L19.3106 6.08277C19.4741 6.24626 19.5618 6.33469 19.6213 6.40264C19.6742 6.46308 19.6581 6.45629 19.6382 6.41034L21.4733 5.61516ZM21.5434 7.01894C21.6906 6.55797 21.6658 6.05922 21.4733 5.61517L19.6382 6.41034L19.6382 6.41034L21.5434 7.01894ZM20.8928 8.03534C21.0224 7.87696 21.1509 7.72069 21.251 7.58019C21.3569 7.43156 21.4701 7.24814 21.5434 7.01895L19.6382 6.41033C19.6535 6.36263 19.6687 6.35427 19.6221 6.41968C19.5697 6.4932 19.4913 6.58992 19.3449 6.76886L20.8928 8.03534ZM20.2885 8.77387C20.2746 8.87723 20.2345 8.88894 20.3476 8.72619C20.4551 8.57141 20.6209 8.36764 20.8928 8.03534L19.3449 6.76886C19.0943 7.07506 18.8683 7.35016 18.7052 7.58481C18.5477 7.81148 18.3581 8.12317 18.3064 8.50724L20.2885 8.77387ZM20.2885 8.77387V8.77386L18.3064 8.50725C18.2106 9.21938 18.5042 9.92816 19.0755 10.364L20.2885 8.77387ZM21.238 8.86882C20.8108 8.82609 20.5495 8.79922 20.364 8.76584C20.1689 8.73073 20.2056 8.7106 20.2885 8.77387L19.0755 10.364C19.3836 10.599 19.7381 10.6853 20.0098 10.7342C20.291 10.7848 20.6454 10.8195 21.039 10.8589L21.238 8.86882ZM22.4168 9.1275C22.203 9.01721 21.9932 8.96759 21.8132 8.93737C21.6431 8.9088 21.4417 8.88918 21.238 8.86882L21.039 10.8589C21.2691 10.8819 21.393 10.8948 21.482 10.9098C21.5612 10.9231 21.5445 10.9279 21.5 10.905L22.4168 9.1275ZM23.3599 10.1696C23.182 9.71957 22.8469 9.34933 22.4168 9.1275L21.5 10.905L21.5 10.905L23.3599 10.1696ZM23.5 11.3682C23.5 11.1636 23.5005 10.9613 23.489 10.7891C23.4769 10.607 23.4484 10.3933 23.3599 10.1696L21.5 10.905C21.4816 10.8584 21.4881 10.8423 21.4935 10.9224C21.4995 11.0125 21.5 11.137 21.5 11.3682H23.5ZM23.5 12.6319V11.3682H21.5V12.6319H23.5ZM23.36 13.8302C23.4484 13.6065 23.4769 13.3929 23.489 13.2108C23.5005 13.0388 23.5 12.8365 23.5 12.6319H21.5C21.5 12.863 21.4995 12.9875 21.4935 13.0776C21.4881 13.1577 21.4816 13.1416 21.5 13.095L23.36 13.8302ZM22.4166 14.8726C22.8469 14.6507 23.182 14.2804 23.36 13.8302L21.5 13.095V13.095L22.4166 14.8726ZM21.2381 15.1312C21.4417 15.1108 21.6431 15.0912 21.8132 15.0626C21.9931 15.0324 22.2028 14.9828 22.4166 14.8726L21.5 13.095C21.5445 13.0721 21.5612 13.077 21.482 13.0902C21.393 13.1052 21.2691 13.1181 21.0391 13.1411L21.2381 15.1312ZM21.303 15.1225L21.303 15.1225L20.9742 13.1497L20.9742 13.1497L21.303 15.1225ZM20.2889 15.2261C20.206 15.2893 20.1693 15.2692 20.3644 15.2341C20.5498 15.2007 20.811 15.1739 21.2381 15.1312L21.0391 13.1411C20.6456 13.1805 20.2913 13.2151 20.0102 13.2657C19.7386 13.3146 19.3842 13.4008 19.0762 13.6357L20.2889 15.2261ZM20.2889 15.2261L20.2889 15.2261L19.0762 13.6357C18.5046 14.0716 18.2108 14.7807 18.3068 15.4931L20.2889 15.2261ZM20.8929 15.9643C20.6212 15.6322 20.4555 15.4285 20.3479 15.2738C20.2348 15.1111 20.275 15.1228 20.2889 15.2261L18.3068 15.4931C18.3585 15.877 18.5481 16.1886 18.7056 16.4152C18.8686 16.6497 19.0946 16.9247 19.345 17.2308L20.8929 15.9643ZM21.5433 16.9803C21.4701 16.7513 21.3569 16.5679 21.251 16.4193C21.151 16.2789 21.0225 16.1227 20.8929 15.9643L19.345 17.2308C19.4914 17.4097 19.5698 17.5064 19.6222 17.5799C19.6688 17.6453 19.6535 17.6369 19.6383 17.5892L21.5433 16.9803ZM21.4733 18.3846C21.6658 17.9404 21.6907 17.4415 21.5433 16.9803L19.6383 17.5892L19.6383 17.5892L21.4733 18.3846ZM20.725 19.3309C20.8697 19.1862 21.0131 19.0436 21.1266 18.9138C21.2467 18.7765 21.3776 18.6053 21.4733 18.3846L19.6383 17.5892C19.6582 17.5433 19.6742 17.5365 19.6213 17.5969C19.5619 17.6648 19.4742 17.7532 19.3108 17.9167L20.725 19.3309ZM19.8314 20.2245L20.725 19.3309L19.3108 17.9167L18.4172 18.8102L19.8314 20.2245ZM18.8849 20.9729C19.1056 20.8773 19.2769 20.7463 19.4142 20.6262C19.544 20.5126 19.6867 20.3692 19.8314 20.2245L18.4172 18.8103C18.2537 18.9737 18.1653 19.0614 18.0974 19.1209C18.0369 19.1737 18.0437 19.1577 18.0897 19.1378L18.8849 20.9729ZM17.481 21.0429C17.942 21.1902 18.4408 21.1653 18.8849 20.9729L18.0897 19.1378H18.0897L17.481 21.0429ZM16.4647 20.3924C16.6231 20.522 16.7793 20.6505 16.9198 20.7506C17.0684 20.8565 17.2519 20.9697 17.481 21.0429L18.0897 19.1378C18.1374 19.153 18.1457 19.1683 18.0803 19.1217C18.0068 19.0693 17.9101 18.9909 17.7312 18.8445L16.4647 20.3924ZM16.4732 20.3993L16.4732 20.3993L17.7226 18.8376L17.7226 18.8375L16.4732 20.3993ZM15.7262 19.7881C15.6228 19.7742 15.6111 19.7341 15.7738 19.8472C15.9286 19.9547 16.1324 20.1205 16.4647 20.3924L17.7311 18.8445C17.425 18.5939 17.1499 18.3679 16.9152 18.2048C16.6886 18.0473 16.3769 17.8577 15.9928 17.806L15.7262 19.7881ZM15.7262 19.7881H15.7262L15.9928 17.806C15.2807 17.7102 14.5719 18.0038 14.136 18.5751L15.7262 19.7881ZM15.6312 20.7378C15.6739 20.3105 15.7008 20.0492 15.7342 19.8636C15.7693 19.6685 15.7894 19.7052 15.7262 19.7882L14.136 18.5751C13.901 18.8832 13.8147 19.2378 13.7658 19.5094C13.7152 19.7907 13.6805 20.1451 13.6411 20.5388L15.6312 20.7378ZM15.3724 21.917C15.4828 21.7031 15.5324 21.4932 15.5626 21.3132C15.5912 21.143 15.6108 20.9415 15.6312 20.7378L13.6411 20.5388C13.6181 20.769 13.6052 20.8929 13.5902 20.982C13.5769 21.0612 13.572 21.0445 13.595 21L15.3724 21.917ZM14.3306 22.8598C14.7805 22.6819 15.1506 22.3469 15.3724 21.917L13.595 21L13.595 21L14.3306 22.8598ZM13.1316 23C13.3363 23 13.5387 23.0005 13.7109 22.989C13.893 22.9768 14.1068 22.9483 14.3306 22.8598L13.595 21C13.6416 20.9816 13.6577 20.9881 13.5776 20.9935C13.4875 20.9995 13.3629 21 13.1316 21V23ZM11.8682 23H13.1316V21H11.8682V23ZM10.6696 22.8599C10.8933 22.9484 11.107 22.9769 11.2891 22.989C11.4613 23.0005 11.6636 23 11.8682 23V21C11.637 21 11.5125 20.9995 11.4224 20.9935C11.3423 20.9881 11.3584 20.9816 11.405 21L10.6696 22.8599ZM9.6275 21.9168C9.84933 22.3469 10.2196 22.682 10.6696 22.8599L11.405 21L9.6275 21.9168ZM9.36882 20.7381C9.38918 20.9417 9.4088 21.1431 9.43737 21.3132C9.46759 21.4932 9.51721 21.703 9.6275 21.9168L11.405 21C11.4279 21.0445 11.4231 21.0612 11.4098 20.982C11.3948 20.893 11.3819 20.7691 11.3589 20.539L9.36882 20.7381ZM9.27387 19.7885C9.2106 19.7056 9.23073 19.6689 9.26584 19.864C9.29922 20.0495 9.32609 20.3108 9.36882 20.7381L11.3589 20.539C11.3195 20.1454 11.2848 19.791 11.2342 19.5098C11.1853 19.2381 11.099 18.8836 10.864 18.5755L9.27387 19.7885ZM9.27387 19.7885L10.864 18.5755C10.4282 18.0042 9.71939 17.7106 9.00728 17.8064L9.27387 19.7885ZM8.53531 20.3928C8.86763 20.1209 9.0714 19.9551 9.22619 19.8476C9.38895 19.7345 9.37724 19.7746 9.27387 19.7885L9.00727 17.8064C8.62318 17.858 8.31149 18.0477 8.08481 18.2052C7.85015 18.3683 7.57504 18.5944 7.26884 18.8449L8.53531 20.3928ZM8.56643 20.3663L8.56644 20.3663L7.23771 18.8714L7.2377 18.8715L8.56643 20.3663ZM7.51887 21.0434C7.74807 20.9702 7.9315 20.8569 8.08013 20.751C8.22064 20.6509 8.37691 20.5224 8.5353 20.3928L7.26883 18.8449C7.08988 18.9913 6.99316 19.0698 6.91963 19.1222C6.85422 19.1688 6.86258 19.1535 6.91029 19.1383L7.51887 21.0434ZM6.11515 20.9734C6.55919 21.1658 7.05791 21.1907 7.51887 21.0434L6.91029 19.1383L6.91029 19.1383L6.11515 20.9734ZM5.1685 20.2249C5.31321 20.3696 5.45592 20.513 5.58577 20.6266C5.72313 20.7468 5.89438 20.8777 6.11515 20.9734L6.91029 19.1383C6.95624 19.1582 6.96304 19.1742 6.90259 19.1213C6.83464 19.0619 6.7462 18.9742 6.58271 18.8107L5.1685 20.2249ZM4.27506 19.3315L5.1685 20.2249L6.58271 18.8107L5.68927 17.9172L4.27506 19.3315ZM3.52657 18.3848C3.62223 18.6056 3.75318 18.7768 3.87333 18.9142C3.98692 19.044 4.13036 19.1868 4.27506 19.3315L5.68928 17.9172C5.52579 17.7538 5.43809 17.6653 5.37864 17.5974C5.32577 17.5369 5.3418 17.5437 5.36171 17.5897L3.52657 18.3848ZM3.45656 16.9811C3.3093 17.4421 3.33417 17.9408 3.52657 18.3848L5.36171 17.5897V17.5897L3.45656 16.9811ZM4.10715 15.9647C3.97756 16.123 3.84903 16.2793 3.74892 16.4198C3.64303 16.5684 3.52977 16.7519 3.45656 16.9811L5.36171 17.5897C5.34647 17.6374 5.33119 17.6457 5.37779 17.5803C5.43018 17.5068 5.50865 17.4101 5.65506 17.2311L4.10715 15.9647ZM4.7114 15.2261C4.7253 15.1228 4.76548 15.1111 4.65237 15.2738C4.5448 15.4286 4.37903 15.6324 4.10715 15.9647L5.65506 17.2311C5.90558 16.9249 6.13162 16.6498 6.29469 16.4152C6.45222 16.1885 6.64188 15.8768 6.69355 15.4928L4.7114 15.2261ZM4.7114 15.2261L4.7114 15.2261L6.69355 15.4928C6.78934 14.7806 6.49575 14.0718 5.92445 13.636L4.7114 15.2261ZM3.76193 15.1312C4.18915 15.1739 4.45044 15.2008 4.63595 15.2342C4.83101 15.2693 4.79432 15.2894 4.7114 15.2261L5.92445 13.636C5.61633 13.4009 5.26184 13.3147 4.99017 13.2658C4.70894 13.2152 4.35458 13.1805 3.96093 13.1411L3.76193 15.1312ZM2.58323 14.8725C2.79705 14.9828 3.00683 15.0324 3.1868 15.0626C3.35693 15.0912 3.55831 15.1108 3.76193 15.1312L3.96094 13.1411C3.73089 13.1181 3.60701 13.1052 3.51798 13.0902C3.43878 13.0769 3.45549 13.0721 3.5 13.095L2.58323 14.8725ZM1.64009 13.8304C1.81803 14.2804 2.15311 14.6507 2.58323 14.8725L3.5 13.095H3.5L1.64009 13.8304ZM1.5 12.6318C1.5 12.8364 1.49948 13.0387 1.51098 13.2109C1.52314 13.393 1.55163 13.6066 1.64009 13.8304L3.5 13.095C3.51841 13.1416 3.51188 13.1577 3.50653 13.0776C3.50052 12.9875 3.5 12.863 3.5 12.6318H1.5ZM1.5 11.3683V12.6318H3.5V11.3683H1.5ZM1.64017 10.1694C1.55166 10.3932 1.52315 10.607 1.51098 10.7891C1.49948 10.9613 1.5 11.1637 1.5 11.3683H3.5C3.5 11.1371 3.50052 11.0125 3.50654 10.9224C3.51189 10.8423 3.51842 10.8584 3.5 10.905L1.64017 10.1694ZM2.58305 9.12757C2.15308 9.34939 1.8181 9.71954 1.64017 10.1694L3.5 10.905L3.5 10.905L2.58305 9.12757ZM3.76205 8.86881C3.55837 8.88917 3.35694 8.9088 3.18677 8.93737C3.00676 8.9676 2.79692 9.01724 2.58305 9.12757L3.5 10.905C3.45548 10.928 3.43877 10.9231 3.51798 10.9098C3.60704 10.8948 3.73094 10.8819 3.96105 10.8589L3.76205 8.86881ZM3.86155 8.86384H3.86155V10.8638H3.86155V8.86384ZM3.86156 8.86384H3.86155V10.8638H3.86156V8.86384ZM4.71177 8.77383C4.79471 8.71055 4.83141 8.73069 4.6363 8.7658C4.45075 8.7992 4.18939 8.82607 3.76205 8.86881L3.96106 10.8589C4.35482 10.8195 4.70927 10.7848 4.99056 10.7342C5.26231 10.6853 5.6169 10.5989 5.92506 10.3638L4.71177 8.77383ZM4.71177 8.77383L4.71178 8.77383L5.92506 10.3638C6.49613 9.92801 6.78962 9.21944 6.69396 8.50749L4.71177 8.77383ZM4.10732 8.03506C4.37929 8.36746 4.54511 8.5713 4.65272 8.72614C4.76586 8.88895 4.72567 8.87724 4.71177 8.77383L6.69396 8.50749C6.64234 8.1233 6.45263 7.81151 6.29506 7.58478C6.13195 7.35006 5.90584 7.07487 5.65523 6.76858L4.10732 8.03506ZM3.45652 7.01822C3.52973 7.24751 3.64303 7.43102 3.74896 7.5797C3.8491 7.72027 3.97768 7.8766 4.10732 8.03506L5.65523 6.76858C5.50876 6.58956 5.43026 6.49279 5.37785 6.41923C5.33123 6.35379 5.34651 6.36215 5.36175 6.40988L3.45652 7.01822ZM3.52651 5.61498C3.33424 6.05887 3.30938 6.5574 3.45652 7.01822L5.36175 6.40988L3.52651 5.61498ZM4.27523 4.66798C4.13047 4.81274 3.98698 4.9555 3.87335 5.08539C3.75316 5.2228 3.62217 5.39412 3.52651 5.61498L5.36175 6.40988C5.34184 6.45585 5.3258 6.46265 5.3787 6.40219C5.43816 6.33421 5.52589 6.24574 5.68944 6.0822L4.27523 4.66798ZM5.16855 3.77466L4.27523 4.66798L5.68944 6.0822L6.58276 5.18888L5.16855 3.77466ZM5.16855 3.77466L5.16855 3.77466L6.58276 5.18888L6.58276 5.18887L5.16855 3.77466ZM6.1152 3.02616C5.89443 3.12181 5.72317 3.25276 5.58582 3.37292C5.45597 3.48651 5.31325 3.62995 5.16855 3.77466L6.58276 5.18887C6.74625 5.02538 6.83469 4.93768 6.90264 4.87824C6.96309 4.82536 6.95629 4.84139 6.91034 4.8613L6.1152 3.02616ZM7.51892 2.95614C7.05795 2.80889 6.55923 2.83377 6.1152 3.02615L6.91033 4.8613H6.91034L7.51892 2.95614ZM8.53543 3.60681C8.37702 3.47719 8.22073 3.34865 8.08021 3.24853C7.93158 3.14264 7.74813 3.02936 7.51892 2.95614L6.91034 4.8613C6.86262 4.84606 6.85426 4.83078 6.91969 4.8774C6.99324 4.9298 7.08999 5.00829 7.26896 5.15472L8.53543 3.60681ZM9.27391 4.21101C9.37727 4.22493 9.38897 4.26509 9.22621 4.15198C9.07144 4.04441 8.86769 3.87865 8.53543 3.60681L7.26896 5.15472C7.57512 5.40521 7.85018 5.63122 8.08477 5.79427C8.31138 5.95176 8.623 6.14141 9.00697 6.19312L9.27391 4.21101ZM9.27391 4.21101L9.27391 4.21101L9.00697 6.19312C9.71932 6.28905 10.4284 5.99536 10.8642 5.42382L9.27391 4.21101ZM9.36883 3.2618C9.32612 3.6889 9.29926 3.95012 9.26589 4.13558C9.2308 4.33059 9.21068 4.29392 9.27391 4.21101L10.8642 5.42382C11.0992 5.11576 11.1854 4.76136 11.2343 4.48976C11.2849 4.20861 11.3196 3.85435 11.3589 3.46081L9.36883 3.2618ZM9.62739 2.08341C9.51716 2.29719 9.46756 2.50692 9.43736 2.68683C9.4088 2.85692 9.38919 3.05824 9.36883 3.2618L11.3589 3.46081C11.3819 3.23082 11.3948 3.10698 11.4098 3.01798C11.423 2.9388 11.4279 2.9555 11.405 3L9.62739 2.08341ZM10.6698 1.14002C10.2196 1.31796 9.84924 1.65315 9.62739 2.08341L11.405 3L11.405 3L10.6698 1.14002ZM11.8681 1C11.6635 1 11.4612 0.999483 11.2892 1.01097C11.1071 1.02313 10.8935 1.05161 10.6698 1.14002L11.405 3C11.3584 3.0184 11.3423 3.01188 11.4224 3.00653C11.5125 3.00052 11.637 3 11.8681 3V1ZM13.1318 1H11.8681V3H13.1318V1ZM14.3304 1.1401C14.1066 1.05163 13.893 1.02314 13.7109 1.01098C13.5387 0.999483 13.3364 1 13.1318 1V3C13.363 3 13.4875 3.00052 13.5776 3.00653C13.6577 3.01188 13.6416 3.01841 13.595 3L14.3304 1.1401ZM15.3725 2.08322C15.1507 1.65312 14.7804 1.31803 14.3304 1.1401L13.595 3L13.595 3L15.3725 2.08322ZM15.5 12C15.5 13.6569 14.1569 15 12.5 15V17C15.2614 17 17.5 14.7614 17.5 12H15.5ZM12.5 9C14.1569 9 15.5 10.3431 15.5 12H17.5C17.5 9.23858 15.2614 7 12.5 7V9ZM9.5 12C9.5 10.3431 10.8431 9 12.5 9V7C9.73858 7 7.5 9.23858 7.5 12H9.5ZM12.5 15C10.8431 15 9.5 13.6569 9.5 12H7.5C7.5 14.7614 9.73858 17 12.5 17V15Z" fill="#1A1A8D"/>
</svg>
