<svg width="25" height="24" viewBox="0 0 25 24" fill="none" xmlns="http://www.w3.org/2000/svg">
<path d="M5.80976 6.69267L4.48623 9.19267C3.7584 10.5675 3.39448 11.2549 3.39448 12C3.39448 12.7451 3.7584 13.4325 4.48623 14.8073L5.80976 17.3073C6.63314 18.8626 7.04483 19.6402 7.75883 20.0701C8.47282 20.5 9.35271 20.5 11.1125 20.5H13.8875C15.6473 20.5 16.5272 20.5 17.2412 20.0701C17.9552 19.6402 18.3669 18.8626 19.1902 17.3073L20.5138 14.8073C21.2416 13.4325 21.6055 12.7451 21.6055 12C21.6055 11.2549 21.2416 10.5675 20.5138 9.19268L19.1902 6.69267C18.3669 5.1374 17.9552 4.35977 17.2412 3.92988C16.5272 3.5 15.6473 3.5 13.8875 3.5H11.1125C9.35271 3.5 8.47282 3.5 7.75883 3.92988C7.04483 4.35977 6.63314 5.1374 5.80976 6.69267Z" fill="#FFD400" fill-opacity="0.5"/>
<circle cx="12.5" cy="12" r="3" fill="#1A1A8D"/>
</svg>
