<svg width="25" height="24" viewBox="0 0 25 24" fill="none" xmlns="http://www.w3.org/2000/svg">
<path fill-rule="evenodd" clip-rule="evenodd" d="M2.78906 11.9998C2.78906 12.5186 3.05342 12.9938 3.58213 13.9443L4.93138 16.3698L6.3573 18.751C6.91605 19.6841 7.19542 20.1506 7.64475 20.4101C8.09408 20.6695 8.63781 20.6782 9.72527 20.6955L12.5004 20.7398L15.2756 20.6955C16.3631 20.6782 16.9068 20.6695 17.3561 20.4101C17.8055 20.1506 18.0848 19.6841 18.6436 18.751L20.0695 16.3698L21.4188 13.9443L21.4188 13.9442C21.9475 12.9938 22.2118 12.5186 22.2118 11.9998C22.2118 11.4809 21.9475 11.0057 21.4188 10.0553L21.4188 10.0553L20.0695 7.62976L18.6436 5.24853C18.0848 4.31543 17.8055 3.84888 17.3561 3.58946C16.9068 3.33004 16.3631 3.32137 15.2756 3.30403L15.2756 3.30403L12.5004 3.25977L9.72527 3.30403L9.72525 3.30403C8.6378 3.32137 8.09408 3.33004 7.64475 3.58946C7.19542 3.84888 6.91605 4.31543 6.3573 5.24853L4.93138 7.62977L3.58213 10.0553C3.05342 11.0057 2.78906 11.4809 2.78906 11.9998ZM12.5004 14.9998C14.1573 14.9998 15.5004 13.6566 15.5004 11.9998C15.5004 10.3429 14.1573 8.99977 12.5004 8.99977C10.8436 8.99977 9.50044 10.3429 9.50044 11.9998C9.50044 13.6566 10.8436 14.9998 12.5004 14.9998Z" fill="#FFD400" fill-opacity="0.5"/>
<path d="M3.58168 13.9445C3.05298 12.9941 2.78862 12.5188 2.78862 12C2.78862 11.4812 3.05298 11.0059 3.58169 10.0555L4.93094 7.63L6.35685 5.24876C6.9156 4.31567 7.19498 3.84912 7.64431 3.5897C8.09364 3.33028 8.63737 3.3216 9.72483 3.30426L12.5 3.26L15.2752 3.30426C16.3626 3.3216 16.9064 3.33028 17.3557 3.5897C17.805 3.84912 18.0844 4.31567 18.6431 5.24876L20.0691 7.63L21.4183 10.0555C21.947 11.0059 22.2114 11.4812 22.2114 12C22.2114 12.5188 21.947 12.9941 21.4183 13.9445L20.0691 16.37L18.6431 18.7512C18.0844 19.6843 17.805 20.1509 17.3557 20.4103C16.9064 20.6697 16.3626 20.6784 15.2752 20.6957L12.5 20.74L9.72483 20.6957C8.63737 20.6784 8.09364 20.6697 7.64431 20.4103C7.19498 20.1509 6.9156 19.6843 6.35685 18.7512L4.93094 16.37L3.58168 13.9445Z" stroke="#1A1A8D" stroke-width="1.2"/>
<circle cx="12.5" cy="12" r="3" stroke="#1A1A8D" stroke-width="1.2"/>
</svg>
