<svg width="25" height="24" viewBox="0 0 25 24" fill="none" xmlns="http://www.w3.org/2000/svg">
<path d="M14.6361 3.36144L15.1337 3.31169L14.6361 3.36144ZM14.4838 2.54161L14.0394 2.7708V2.77081L14.4838 2.54161ZM14.9311 4.81793L15.3286 4.51467V4.51467L14.9311 4.81793ZM15.8595 5.20248L15.7928 4.70694L15.7928 4.70694L15.8595 5.20248ZM17.0979 4.38113L17.4145 4.76811V4.76811L17.0979 4.38113ZM17.7853 3.90918L17.9375 4.38547L17.7853 3.90918ZM18.4872 3.94419L18.686 3.48541V3.48541L18.4872 3.94419ZM19.1243 4.4822L18.7707 4.83575V4.83575L19.1243 4.4822ZM20.0178 5.37567L20.3713 5.02211V5.02211L20.0178 5.37567ZM20.5558 6.01275L21.0146 5.81396L21.0146 5.81396L20.5558 6.01275ZM20.5908 6.71464L21.0671 6.8668L21.0671 6.86679L20.5908 6.71464ZM20.1188 7.4021L19.7318 7.08548V7.08548L20.1188 7.4021ZM19.2975 8.64056L18.8019 8.5739V8.5739L19.2975 8.64056ZM19.682 9.56893L19.3787 9.96645L19.682 9.56893ZM21.1385 9.86385L21.1883 9.36633L21.1385 9.86385ZM21.9584 10.0162L22.1876 9.57187L22.1876 9.57187L21.9584 10.0162ZM22.4299 10.5373L22.8949 10.3534V10.3534L22.4299 10.5373ZM22.43 13.4626L21.965 13.2788L21.965 13.2788L22.43 13.4626ZM21.9583 13.9838L22.1875 14.4282H22.1875L21.9583 13.9838ZM21.1386 14.1361L21.0889 13.6386L21.0726 13.6402L21.0564 13.6429L21.1386 14.1361ZM21.1386 14.1361L21.1884 14.6337L21.2047 14.632L21.2208 14.6293L21.1386 14.1361ZM19.6825 14.4309L19.3794 14.0333L19.6825 14.4309ZM19.2979 15.3596L18.8023 15.4264V15.4264L19.2979 15.3596ZM20.119 16.5976L19.732 16.9142L20.119 16.5976ZM20.5908 17.2848L20.1145 17.437L20.1145 17.437L20.5908 17.2848ZM20.5558 17.9869L20.097 17.7881L20.097 17.7881L20.5558 17.9869ZM20.0179 18.6238L20.3715 18.9773L20.0179 18.6238ZM19.1243 19.5174L18.7708 19.1638V19.1638L19.1243 19.5174ZM18.4873 20.0554L18.6861 20.5141L18.6861 20.5141L18.4873 20.0554ZM17.7854 20.0904L17.6332 20.5667H17.6332L17.7854 20.0904ZM17.0979 19.6184L17.4146 19.2314L17.4103 19.228L17.0979 19.6184ZM17.0979 19.6184L16.7813 20.0054L16.7856 20.0088L17.0979 19.6184ZM15.8595 18.7971L15.9262 18.3015H15.9262L15.8595 18.7971ZM14.9311 19.1816L15.3286 19.4849L15.3286 19.4849L14.9311 19.1816ZM14.6362 20.6383L14.1386 20.5886L14.6362 20.6383ZM14.4837 21.4585L14.0394 21.2292L14.0394 21.2292L14.4837 21.4585ZM13.9628 21.9299L13.7789 21.465H13.7789L13.9628 21.9299ZM11.0373 21.9299L11.2211 21.465H11.2211L11.0373 21.9299ZM10.5162 21.4584L10.9606 21.2292L10.5162 21.4584ZM10.3639 20.6385L9.86634 20.6883L10.3639 20.6385ZM10.0689 19.182L9.67139 19.4853L9.67139 19.4853L10.0689 19.182ZM9.14057 18.7975L9.07392 18.3019H9.07392L9.14057 18.7975ZM7.90208 19.6189L7.58546 19.2319L7.57754 19.2384L7.56989 19.2452L7.90208 19.6189ZM7.90206 19.6189L8.21868 20.0058L8.2266 19.9994L8.23424 19.9926L7.90206 19.6189ZM7.21458 20.0908L7.36673 20.5671H7.36673L7.21458 20.0908ZM6.51272 20.0558L6.31394 20.5146H6.31394L6.51272 20.0558ZM5.87561 19.5178L6.22916 19.1642H6.22916L5.87561 19.5178ZM4.98217 18.6243L4.62861 18.9779H4.62861L4.98217 18.6243ZM4.44414 17.9873L4.90292 17.7885L4.44414 17.9873ZM4.40913 17.2854L4.88542 17.4375L4.40913 17.2854ZM4.8811 16.5979L5.26808 16.9145L4.8811 16.5979ZM5.70247 15.3594L6.19801 15.4261L5.70247 15.3594ZM5.31792 14.4311L5.62119 14.0335H5.62119L5.31792 14.4311ZM3.86143 14.1361L3.81168 14.6337H3.81168L3.86143 14.1361ZM3.04161 13.9838L3.27081 13.5394H3.27081L3.04161 13.9838ZM2.57005 13.4627L2.10507 13.6465H2.10507L2.57005 13.4627ZM2.57008 10.5372L2.10513 10.3533L2.10513 10.3533L2.57008 10.5372ZM3.04152 10.0163L2.81229 9.57193L2.81228 9.57193L3.04152 10.0163ZM3.86155 9.86384V9.36384H3.83661L3.8118 9.36633L3.86155 9.86384ZM3.86156 9.86384V10.3638H3.8865L3.91131 10.3614L3.86156 9.86384ZM5.31842 9.56881L5.0151 9.17132L5.01509 9.17132L5.31842 9.56881ZM5.70287 8.64066L6.19841 8.57408H6.19841L5.70287 8.64066ZM4.88128 7.40182L5.26826 7.0852L4.88128 7.40182ZM4.40914 6.71405L4.88545 6.56197H4.88544L4.40914 6.71405ZM4.44413 6.01243L3.98532 5.81371L3.98532 5.81371L4.44413 6.01243ZM4.98233 5.37509L5.33589 5.72864L5.33589 5.72864L4.98233 5.37509ZM5.87565 4.48177L5.5221 4.12822H5.5221L5.87565 4.48177ZM6.51277 3.94373L6.31398 3.48494H6.31398L6.51277 3.94373ZM7.21463 3.90872L7.36677 3.43243L7.21463 3.90872ZM7.9022 4.38076L8.21882 3.99378V3.99378L7.9022 4.38076ZM9.14044 5.20207L9.20718 4.70654L9.14044 5.20207ZM10.0691 4.81742L9.67149 4.51422L10.0691 4.81742ZM10.3639 3.36131L10.8614 3.41106V3.41106L10.3639 3.36131ZM10.5162 2.5417L10.0718 2.31255L10.0718 2.31256L10.5162 2.5417ZM11.0374 2.07001L11.2212 2.535L11.2212 2.535L11.0374 2.07001ZM13.9627 2.07005L14.1465 1.60507L14.1465 1.60507L13.9627 2.07005ZM15.1337 3.31169C15.1126 3.10146 15.0947 2.91945 15.0695 2.7696C15.0435 2.61482 15.0051 2.46166 14.9281 2.31242L14.0394 2.77081C14.0497 2.79088 14.0658 2.8308 14.0833 2.93519C14.1017 3.04449 14.1163 3.18775 14.1386 3.41119L15.1337 3.31169ZM15.3286 4.51467C15.3173 4.49983 15.2806 4.43872 15.2421 4.22451C15.2044 4.01507 15.1755 3.73051 15.1337 3.31169L14.1386 3.41119C14.1788 3.81323 14.2116 4.14432 14.2579 4.40161C14.3033 4.65413 14.3731 4.91083 14.5335 5.12119L15.3286 4.51467ZM15.7928 4.70694C15.6148 4.73089 15.4375 4.65749 15.3286 4.51467L14.5335 5.12118C14.8604 5.54967 15.392 5.76987 15.9261 5.69801L15.7928 4.70694ZM16.7813 3.99415C16.4555 4.26069 16.2339 4.44152 16.0592 4.56296C15.8804 4.68717 15.8113 4.70445 15.7928 4.70694L15.9261 5.69801C16.1883 5.66274 16.4192 5.53055 16.6298 5.38412C16.8445 5.23493 17.1018 5.02396 17.4145 4.76811L16.7813 3.99415ZM17.6332 3.4329C17.4732 3.484 17.3377 3.56512 17.2099 3.65619C17.0861 3.74436 16.9448 3.86037 16.7813 3.99415L17.4145 4.76811C17.5883 4.62591 17.6999 4.53493 17.7902 4.47062C17.8764 4.4092 17.916 4.39234 17.9375 4.38547L17.6332 3.4329ZM18.686 3.48541C18.353 3.3411 17.9789 3.32244 17.6332 3.4329L17.9375 4.38547C18.0527 4.34865 18.1774 4.35487 18.2884 4.40297L18.686 3.48541ZM19.4778 4.12865C19.3285 3.97925 19.1993 3.84975 19.0849 3.74971C18.9668 3.64638 18.8401 3.55217 18.686 3.48541L18.2884 4.40297C18.3092 4.41195 18.3469 4.43267 18.4265 4.50236C18.51 4.57534 18.612 4.67697 18.7707 4.83575L19.4778 4.12865ZM20.3713 5.02211L19.4778 4.12865L18.7707 4.83575L19.6642 5.72922L20.3713 5.02211ZM21.0146 5.81396C20.9478 5.65988 20.8536 5.53314 20.7503 5.41502C20.6502 5.30065 20.5207 5.17151 20.3713 5.02211L19.6642 5.72922C19.823 5.88801 19.9246 5.99001 19.9976 6.07343C20.0673 6.1531 20.088 6.19082 20.097 6.21155L21.0146 5.81396ZM21.0671 6.86679C21.1775 6.52106 21.1589 6.147 21.0146 5.81396L20.097 6.21154C20.1451 6.32255 20.1513 6.44724 20.1145 6.56249L21.0671 6.86679ZM20.5058 7.71872C20.6396 7.5552 20.7556 7.41382 20.8438 7.29006C20.9348 7.16224 21.016 7.02676 21.0671 6.8668L20.1145 6.56249C20.1076 6.58401 20.0908 6.62359 20.0293 6.7098C19.965 6.80008 19.874 6.91168 19.7318 7.08548L20.5058 7.71872ZM19.793 8.70721C19.7955 8.68872 19.8128 8.61958 19.937 8.44084C20.0584 8.2661 20.2393 8.0445 20.5058 7.71872L19.7318 7.08548C19.476 7.3982 19.265 7.65547 19.1158 7.87015C18.9694 8.08084 18.8372 8.31168 18.8019 8.5739L19.793 8.70721ZM19.9853 9.1714C19.8424 9.06244 19.7691 8.88524 19.793 8.70721L18.8019 8.5739C18.7301 9.108 18.9503 9.63959 19.3787 9.96645L19.9853 9.1714ZM21.1883 9.36633C20.7694 9.32445 20.4849 9.29562 20.2754 9.25793C20.0612 9.21938 20.0001 9.18271 19.9853 9.1714L19.3787 9.96645C19.5891 10.1269 19.8458 10.1967 20.0983 10.2421C20.3556 10.2884 20.6867 10.3212 21.0888 10.3614L21.1883 9.36633ZM22.1876 9.57187C22.0384 9.49489 21.8852 9.45645 21.7304 9.43046C21.5805 9.4053 21.3985 9.38736 21.1883 9.36633L21.0888 10.3614C21.3122 10.3837 21.4555 10.3983 21.5648 10.4167C21.6692 10.4342 21.7091 10.4503 21.7292 10.4606L22.1876 9.57187ZM22.8949 10.3534C22.7615 10.0159 22.5102 9.73825 22.1876 9.57187L21.7292 10.4606C21.8367 10.5161 21.9205 10.6086 21.965 10.7211L22.8949 10.3534ZM23 11.3682C23 11.157 23.0003 10.9741 22.9901 10.8224C22.9797 10.6658 22.9567 10.5096 22.8949 10.3534L21.965 10.7211C21.9733 10.7421 21.9853 10.7835 21.9924 10.8891C21.9997 10.9997 22 11.1437 22 11.3682H23ZM23 12.6319V11.3682H22V12.6319H23ZM22.895 13.6464C22.9567 13.4903 22.9797 13.3341 22.9901 13.1775C23.0003 13.026 23 12.8431 23 12.6319H22C22 12.8564 21.9997 13.0003 21.9924 13.1109C21.9853 13.2165 21.9733 13.2578 21.965 13.2788L22.895 13.6464ZM22.1875 14.4282C22.5101 14.2618 22.7615 13.984 22.895 13.6464L21.965 13.2788C21.9205 13.3914 21.8367 13.4839 21.7292 13.5394L22.1875 14.4282ZM21.1884 14.6337C21.3986 14.6126 21.5805 14.5947 21.7304 14.5695C21.8851 14.5436 22.0383 14.5051 22.1875 14.4282L21.7292 13.5394C21.7091 13.5498 21.6692 13.5658 21.5648 13.5833C21.4555 13.6017 21.3123 13.6163 21.0889 13.6386L21.1884 14.6337ZM21.2208 14.6293L21.2208 14.6293L21.0564 13.6429L21.0564 13.6429L21.2208 14.6293ZM19.9857 14.8285C20.0006 14.8172 20.0617 14.7805 20.2758 14.742C20.4852 14.7043 20.7697 14.6755 21.1884 14.6337L21.0889 13.6386C20.6869 13.6788 20.356 13.7115 20.0987 13.7578C19.8463 13.8032 19.5897 13.8729 19.3794 14.0333L19.9857 14.8285ZM19.7934 15.2929C19.7694 15.1148 19.8428 14.9375 19.9857 14.8285L19.3794 14.0333C18.9507 14.3602 18.7304 14.8921 18.8023 15.4264L19.7934 15.2929ZM20.506 16.281C20.2395 15.9553 20.0588 15.7338 19.9373 15.5591C19.8132 15.3805 19.7959 15.3113 19.7934 15.2929L18.8023 15.4264C18.8377 15.6885 18.9698 15.9192 19.1162 16.1298C19.2653 16.3444 19.4762 16.6016 19.732 16.9142L20.506 16.281ZM21.0671 17.1326C21.0159 16.9727 20.9348 16.8372 20.8438 16.7095C20.7557 16.5858 20.6397 16.4444 20.506 16.281L19.732 16.9142C19.8741 17.0879 19.9651 17.1995 20.0294 17.2897C20.0908 17.3759 20.1076 17.4155 20.1145 17.437L21.0671 17.1326ZM21.0145 18.1858C21.1589 17.8526 21.1776 17.4784 21.0671 17.1326L20.1145 17.437C20.1514 17.5523 20.1451 17.677 20.097 17.7881L21.0145 18.1858ZM20.3715 18.9773C20.5208 18.828 20.6503 18.6989 20.7503 18.5846C20.8536 18.4665 20.9478 18.3398 21.0145 18.1858L20.097 17.7881C20.088 17.8088 20.0673 17.8465 19.9976 17.9261C19.9247 18.0095 19.8231 18.1115 19.6644 18.2702L20.3715 18.9773ZM19.4779 19.8709L20.3715 18.9773L19.6644 18.2702L18.7708 19.1638L19.4779 19.8709ZM18.6861 20.5141C18.8401 20.4474 18.9669 20.3532 19.085 20.2498C19.1994 20.1498 19.3285 20.0203 19.4779 19.8709L18.7708 19.1638C18.612 19.3226 18.51 19.4242 18.4266 19.4972C18.3469 19.5669 18.3092 19.5876 18.2885 19.5966L18.6861 20.5141ZM17.6332 20.5667C17.9789 20.6771 18.353 20.6585 18.6861 20.5141L18.2885 19.5966C18.1775 19.6447 18.0528 19.6509 17.9375 19.6141L17.6332 20.5667ZM16.7813 20.0054C16.9448 20.1392 17.0862 20.2552 17.2099 20.3434C17.3378 20.4344 17.4732 20.5156 17.6332 20.5667L17.9375 19.6141C17.916 19.6072 17.8764 19.5904 17.7902 19.5289C17.6999 19.4646 17.5883 19.3736 17.4145 19.2314L16.7813 20.0054ZM16.7856 20.0088L16.7856 20.0089L17.4103 19.228L17.4103 19.228L16.7856 20.0088ZM15.7928 19.2926C15.8113 19.2951 15.8805 19.3124 16.0592 19.4366C16.2339 19.558 16.4555 19.7389 16.7813 20.0054L17.4145 19.2314C17.1018 18.9756 16.8446 18.7646 16.6299 18.6154C16.4192 18.469 16.1884 18.3368 15.9262 18.3015L15.7928 19.2926ZM15.3286 19.4849C15.4376 19.3421 15.6148 19.2687 15.7928 19.2926L15.9262 18.3015C15.392 18.2297 14.8604 18.4499 14.5336 18.8784L15.3286 19.4849ZM15.1337 20.6881C15.1756 20.2692 15.2044 19.9846 15.2421 19.7751C15.2807 19.5608 15.3173 19.4997 15.3286 19.4849L14.5336 18.8784C14.3731 19.0887 14.3033 19.3455 14.2579 19.598C14.2116 19.8553 14.1789 20.1865 14.1386 20.5886L15.1337 20.6881ZM14.9281 21.6877C15.0051 21.5385 15.0435 21.3852 15.0695 21.2304C15.0947 21.0805 15.1127 20.8984 15.1337 20.6881L14.1386 20.5886C14.1163 20.8121 14.1017 20.9554 14.0833 21.0648C14.0658 21.1692 14.0497 21.2092 14.0394 21.2292L14.9281 21.6877ZM14.1467 22.3949C14.4841 22.2614 14.7617 22.0102 14.9281 21.6877L14.0394 21.2292C13.9839 21.3367 13.8914 21.4205 13.7789 21.465L14.1467 22.3949ZM13.1316 22.5C13.343 22.5 13.5259 22.5003 13.6776 22.4901C13.8342 22.4797 13.9905 22.4566 14.1467 22.3949L13.7789 21.465C13.7579 21.4733 13.7166 21.4853 13.6109 21.4924C13.5003 21.4997 13.3563 21.5 13.1316 21.5V22.5ZM11.8682 22.5H13.1316V21.5H11.8682V22.5ZM10.8534 22.3949C11.0096 22.4567 11.1658 22.4797 11.3224 22.4901C11.4741 22.5003 11.657 22.5 11.8682 22.5V21.5C11.6437 21.5 11.4997 21.4997 11.3891 21.4924C11.2835 21.4853 11.2421 21.4733 11.2211 21.465L10.8534 22.3949ZM10.0719 21.6876C10.2382 22.0102 10.5159 22.2615 10.8534 22.3949L11.2211 21.465C11.1086 21.4205 11.0161 21.3367 10.9606 21.2292L10.0719 21.6876ZM9.86634 20.6883C9.88736 20.8985 9.9053 21.0805 9.93046 21.2304C9.95645 21.3852 9.99489 21.5384 10.0719 21.6876L10.9606 21.2292C10.9503 21.2091 10.9342 21.1692 10.9167 21.0648C10.8983 20.9555 10.8837 20.8122 10.8614 20.5888L9.86634 20.6883ZM9.67139 19.4853C9.68271 19.5001 9.71938 19.5612 9.75793 19.7754C9.79562 19.9849 9.82445 20.2695 9.86634 20.6883L10.8614 20.5888C10.8212 20.1867 10.7884 19.8556 10.7421 19.5983C10.6967 19.3458 10.6269 19.0891 10.4664 18.8787L9.67139 19.4853ZM9.20722 19.293C9.38525 19.2691 9.56244 19.3425 9.67139 19.4853L10.4664 18.8787C10.1396 18.4503 9.60801 18.2301 9.07392 18.3019L9.20722 19.293ZM8.21869 20.0058C8.54448 19.7393 8.76609 19.5584 8.94084 19.437C9.11958 19.3128 9.18872 19.2955 9.20722 19.293L9.07392 18.3019C8.8117 18.3372 8.58085 18.4694 8.37015 18.6158C8.15547 18.765 7.89819 18.976 7.58546 19.2319L8.21869 20.0058ZM8.23424 19.9926L8.23426 19.9926L7.56989 19.2452L7.56988 19.2452L8.23424 19.9926ZM7.36673 20.5671C7.5267 20.516 7.66218 20.4349 7.79001 20.3438C7.91377 20.2557 8.05516 20.1396 8.21868 20.0058L7.58544 19.2319C7.41164 19.3741 7.30003 19.4651 7.20976 19.5294C7.12354 19.5908 7.08395 19.6077 7.06244 19.6145L7.36673 20.5671ZM6.31394 20.5146C6.64696 20.6589 7.021 20.6776 7.36673 20.5671L7.06244 19.6145C6.94719 19.6514 6.82251 19.6451 6.71151 19.597L6.31394 20.5146ZM5.52205 19.8713C5.67146 20.0207 5.8006 20.1503 5.91497 20.2503C6.0331 20.3536 6.15985 20.4479 6.31394 20.5146L6.71151 19.597C6.69078 19.5881 6.65306 19.5673 6.57339 19.4977C6.48996 19.4247 6.38796 19.323 6.22916 19.1642L5.52205 19.8713ZM4.62861 18.9779L5.52205 19.8713L6.22916 19.1642L5.33572 18.2708L4.62861 18.9779ZM3.98535 18.186C4.05212 18.3401 4.14632 18.4669 4.24966 18.585C4.34971 18.6994 4.47922 18.8285 4.62861 18.9779L5.33572 18.2708C5.17693 18.112 5.07529 18.01 5.00232 17.9266C4.93262 17.8469 4.9119 17.8092 4.90292 17.7885L3.98535 18.186ZM3.93284 17.1332C3.8224 17.479 3.84106 17.853 3.98535 18.186L4.90292 17.7885C4.85482 17.6775 4.84861 17.5528 4.88542 17.4375L3.93284 17.1332ZM4.49413 16.2813C4.36033 16.4448 4.24432 16.5862 4.15614 16.7099C4.06507 16.8378 3.98395 16.9733 3.93284 17.1332L4.88542 17.4375C4.89229 17.416 4.90915 17.3764 4.97058 17.2902C5.03489 17.1999 5.12588 17.0883 5.26808 16.9145L4.49413 16.2813ZM5.20694 15.2928C5.20445 15.3113 5.18716 15.3804 5.06295 15.5592C4.9415 15.7339 4.76067 15.9555 4.49413 16.2813L5.26808 16.9145C5.52394 16.6018 5.73491 16.3445 5.88411 16.1298C6.03054 15.9192 6.16274 15.6883 6.19801 15.4261L5.20694 15.2928ZM5.01466 14.8286C5.15749 14.9375 5.23088 15.1147 5.20694 15.2928L6.19801 15.4261C6.26986 14.892 6.04966 14.3604 5.62119 14.0335L5.01466 14.8286ZM3.81168 14.6337C4.23051 14.6755 4.51507 14.7044 4.7245 14.7421C4.93871 14.7806 4.99983 14.8173 5.01466 14.8286L5.62119 14.0335C5.41083 13.8731 5.15413 13.8033 4.90161 13.7579C4.64432 13.7116 4.31322 13.6788 3.91118 13.6386L3.81168 14.6337ZM2.81242 14.4281C2.96166 14.5051 3.11482 14.5435 3.2696 14.5695C3.41945 14.5947 3.60145 14.6126 3.81168 14.6337L3.91118 13.6386C3.68774 13.6163 3.54449 13.6017 3.43519 13.5833C3.3308 13.5658 3.29088 13.5497 3.27081 13.5394L2.81242 14.4281ZM2.10507 13.6465C2.23852 13.9841 2.48984 14.2618 2.81242 14.4281L3.27081 13.5394C3.16328 13.4839 3.07951 13.3914 3.03502 13.2789L2.10507 13.6465ZM2 12.6318C2 12.8431 1.99974 13.0259 2.00987 13.1776C2.02033 13.3341 2.04333 13.4904 2.10507 13.6465L3.03502 13.2789C3.02672 13.2578 3.0147 13.2165 3.00764 13.1109C3.00026 13.0003 3 12.8563 3 12.6318H2ZM2 11.3683V12.6318H3V11.3683H2ZM2.10513 10.3533C2.04335 10.5095 2.02034 10.6658 2.00987 10.8224C1.99974 10.9741 2 11.157 2 11.3683H3C3 11.1437 3.00026 10.9997 3.00765 10.8891C3.01471 10.7834 3.02673 10.7421 3.03504 10.7211L2.10513 10.3533ZM2.81228 9.57193C2.48981 9.73829 2.23857 10.0159 2.10513 10.3533L3.03504 10.7211C3.07952 10.6086 3.16327 10.5161 3.27076 10.4606L2.81228 9.57193ZM3.8118 9.36633C3.60152 9.38735 3.41947 9.4053 3.26957 9.43047C3.11476 9.45647 2.96156 9.49492 2.81229 9.57193L3.27076 10.4606C3.29084 10.4503 3.33076 10.4342 3.43518 10.4167C3.54452 10.3983 3.6878 10.3837 3.9113 10.3614L3.8118 9.36633ZM3.86155 9.36384H3.86155V10.3638H3.86155V9.36384ZM3.86156 9.36384H3.86155V10.3638H3.86156V9.36384ZM5.01509 9.17132C5.00025 9.18265 4.93914 9.21933 4.72487 9.25789C4.51538 9.2956 4.23074 9.32443 3.81181 9.36633L3.91131 10.3614C4.31346 10.3211 4.64464 10.2884 4.902 10.2421C5.15458 10.1966 5.41135 10.1268 5.62174 9.9663L5.01509 9.17132ZM5.20732 8.70725C5.23124 8.88524 5.15786 9.06238 5.0151 9.17132L5.62174 9.9663C6.05004 9.63946 6.27016 9.10804 6.19841 8.57408L5.20732 8.70725ZM4.4943 7.71844C4.76093 8.04432 4.94182 8.26599 5.0633 8.4408C5.18756 8.61959 5.20484 8.68875 5.20732 8.70725L6.19841 8.57408C6.16317 8.31178 6.03094 8.08087 5.88448 7.87012C5.73524 7.65537 5.5242 7.39802 5.26826 7.0852L4.4943 7.71844ZM3.93283 6.86614C3.98393 7.02617 4.06508 7.16171 4.15618 7.28959C4.24439 7.4134 4.36045 7.55484 4.4943 7.71844L5.26826 7.0852C5.12599 6.91132 5.03497 6.79966 4.97063 6.70935C4.90918 6.6231 4.89232 6.58349 4.88545 6.56197L3.93283 6.86614ZM3.98532 5.81371C3.84112 6.14663 3.82247 6.52052 3.93283 6.86614L4.88544 6.56197C4.84866 6.44676 4.85488 6.32213 4.90294 6.21116L3.98532 5.81371ZM4.62878 5.02153C4.47933 5.17099 4.34977 5.30018 4.24969 5.41459C4.14632 5.53276 4.05209 5.65955 3.98532 5.81371L4.90294 6.21116C4.91192 6.19042 4.93264 6.15269 5.00236 6.07299C5.07536 5.98953 5.17704 5.88749 5.33589 5.72864L4.62878 5.02153ZM5.5221 4.12822L4.62878 5.02154L5.33589 5.72864L6.22921 4.83532L5.5221 4.12822ZM5.5221 4.12821L5.5221 4.12822L6.22921 4.83532L6.22921 4.83532L5.5221 4.12821ZM6.31398 3.48494C6.15989 3.55171 6.03315 3.64591 5.91502 3.74925C5.80065 3.8493 5.6715 3.97881 5.5221 4.12821L6.22921 4.83532C6.388 4.67653 6.49001 4.57489 6.57343 4.50191C6.65311 4.43221 6.69082 4.41149 6.71155 4.40251L6.31398 3.48494ZM7.36677 3.43243C7.02105 3.32199 6.647 3.34065 6.31398 3.48494L6.71155 4.40251C6.82256 4.35442 6.94724 4.3482 7.06248 4.38501L7.36677 3.43243ZM8.21882 3.99378C8.05526 3.85997 7.91386 3.74394 7.79008 3.65575C7.66225 3.56467 7.52675 3.48354 7.36677 3.43243L7.06248 4.38501C7.08399 4.39188 7.12359 4.40874 7.20982 4.47018C7.30011 4.53451 7.41175 4.62551 7.58558 4.76774L8.21882 3.99378ZM9.20718 4.70654C9.1887 4.70405 9.11957 4.68676 8.94085 4.56255C8.76613 4.44111 8.54455 4.26029 8.21882 3.99378L7.58558 4.76774C7.89826 5.02357 8.1555 5.23451 8.37013 5.38369C8.58078 5.5301 8.81156 5.66229 9.07371 5.69759L9.20718 4.70654ZM9.67149 4.51422C9.56252 4.6571 9.38526 4.73052 9.20718 4.70654L9.07371 5.69759C9.60797 5.76954 10.1397 5.54927 10.4666 5.12062L9.67149 4.51422ZM9.86635 3.31155C9.82448 3.73026 9.79566 4.01474 9.75799 4.22412C9.71945 4.43828 9.6828 4.49938 9.67149 4.51422L10.4666 5.12062C10.627 4.9103 10.6968 4.65367 10.7422 4.40121C10.7885 4.14399 10.8212 3.81299 10.8614 3.41106L9.86635 3.31155ZM10.0718 2.31256C9.99485 2.46176 9.95643 2.61489 9.93046 2.76962C9.9053 2.91943 9.88737 3.10139 9.86635 3.31155L10.8614 3.41106C10.8837 3.18768 10.8983 3.04447 10.9167 2.93519C10.9342 2.83083 10.9502 2.79092 10.9606 2.77085L10.0718 2.31256ZM10.8536 1.60501C10.516 1.73847 10.2382 1.98986 10.0718 2.31255L10.9606 2.77085C11.0161 2.66329 11.1086 2.57949 11.2212 2.535L10.8536 1.60501ZM11.8681 1.5C11.6569 1.5 11.474 1.49974 11.3225 1.50986C11.1659 1.52031 11.0097 1.54331 10.8536 1.60501L11.2212 2.535C11.2422 2.5267 11.2835 2.51469 11.3891 2.50764C11.4997 2.50026 11.6436 2.5 11.8681 2.5V1.5ZM13.1318 1.5H11.8681V2.5H13.1318V1.5ZM14.1465 1.60507C13.9904 1.54333 13.8341 1.52033 13.6776 1.50987C13.5259 1.49974 13.3431 1.5 13.1318 1.5V2.5C13.3563 2.5 13.5003 2.50026 13.6109 2.50764C13.7165 2.5147 13.7578 2.52672 13.7789 2.53502L14.1465 1.60507ZM14.9281 2.31242C14.7618 1.98984 14.4841 1.73852 14.1465 1.60507L13.7789 2.53502C13.8914 2.57951 13.9839 2.66328 14.0394 2.7708L14.9281 2.31242ZM16 12C16 13.933 14.433 15.5 12.5 15.5V16.5C14.9853 16.5 17 14.4853 17 12H16ZM12.5 8.5C14.433 8.5 16 10.067 16 12H17C17 9.51472 14.9853 7.5 12.5 7.5V8.5ZM9 12C9 10.067 10.567 8.5 12.5 8.5V7.5C10.0147 7.5 8 9.51472 8 12H9ZM12.5 15.5C10.567 15.5 9 13.933 9 12H8C8 14.4853 10.0147 16.5 12.5 16.5V15.5Z" fill="#1A1A8D"/>
</svg>
