<svg width="25" height="24" viewBox="0 0 25 24" fill="none" xmlns="http://www.w3.org/2000/svg">
<path fill-rule="evenodd" clip-rule="evenodd" d="M5.55847 12.0002C5.52618 12.0002 5.5 12.0264 5.5 12.0587V19.0002C5.5 19.943 5.5 20.4144 5.79289 20.7073C6.08579 21.0002 6.55719 21.0002 7.5 21.0002H17.5C18.4428 21.0002 18.9142 21.0002 19.2071 20.7073C19.5 20.4144 19.5 19.943 19.5 19.0002V12.0587C19.5 12.0264 19.4738 12.0002 19.4415 12.0002H18.193L18.164 12.0002C18.0229 12.0003 17.8461 12.0004 17.6891 11.9829C17.4962 11.9614 17.2417 11.9061 16.9921 11.7331C16.9303 11.6902 16.8475 11.6894 16.7846 11.7307C16.5516 11.8842 16.307 11.943 16.1188 11.9694C15.8968 12.0005 15.6352 12.0004 15.4104 12.0002L15.3672 12.0002H13.8828L13.8471 12.0002C13.6695 12.0003 13.4537 12.0005 13.2658 11.9765C12.8376 11.922 12.6236 11.8947 12.6207 11.8944C12.1786 11.8406 12.8214 11.8406 12.3793 11.8944C12.3764 11.8947 12.1624 11.922 11.7342 11.9765C11.5463 12.0005 11.3305 12.0003 11.1529 12.0002L11.1172 12.0002H9.63278L9.58955 12.0002C9.36475 12.0004 9.1032 12.0005 8.88121 11.9694C8.69302 11.943 8.44837 11.8842 8.21535 11.7307C8.15252 11.6894 8.06972 11.6902 8.00789 11.7331C7.75826 11.9061 7.50385 11.9614 7.31094 11.9829C7.15394 12.0004 6.97706 12.0003 6.83605 12.0002L6.807 12.0002H5.55847ZM6.43366 11.0002C5.93742 11.0002 5.4946 10.5555 5.72166 10.1143C5.94333 9.68354 6.3539 9.39027 7.17505 8.80374L10.175 6.66088C11.2977 5.85897 11.8591 5.45801 12.5 5.45801C13.1409 5.45801 13.7023 5.85897 14.825 6.66088L17.825 8.80374C18.6461 9.39027 19.0567 9.68354 19.2783 10.1143C19.5054 10.5555 19.0626 11.0002 18.5663 11.0002H18.193C17.8578 11.0002 17.6902 11.0002 17.5617 10.9112C17.4954 10.8652 17.4477 10.8013 17.4009 10.707C17.3569 10.6185 17.3137 10.5033 17.2567 10.3513L17.2567 10.3513L17.0463 9.79032L16.6132 8.63532L16.6129 8.63459L16.5964 8.5906L16.5964 8.59058C16.3768 8.00496 16.267 7.71215 16.1806 7.73342C16.0943 7.75469 16.1331 8.065 16.2107 8.68562V8.68563L16.2165 8.73225L16.2166 8.73303L16.3595 9.87617V9.87617C16.4078 10.2627 16.4383 10.5067 16.391 10.6759C16.3807 10.7129 16.3666 10.7463 16.3482 10.7769C16.3367 10.796 16.3235 10.814 16.3084 10.8311C16.1592 11.0002 15.8952 11.0002 15.3672 11.0002H13.8828C13.4624 11.0002 13.2523 11.0002 13.1105 10.875C13.0751 10.8438 13.0468 10.8073 13.0237 10.7636C12.9617 10.647 12.9355 10.4794 12.903 10.2234L12.8905 10.1242L12.7104 8.68336L12.7048 8.63825L12.6985 8.58785C12.625 8.00023 12.5883 7.70643 12.5 7.70643C12.4117 7.70643 12.375 8.00023 12.3015 8.58785L12.2952 8.63825L12.2896 8.68336L12.1095 10.1242L12.097 10.2234C12.0645 10.4794 12.0383 10.647 11.9763 10.7636C11.9532 10.8073 11.9249 10.8438 11.8895 10.875C11.7477 11.0002 11.5376 11.0002 11.1172 11.0002H9.63278C9.10481 11.0002 8.84083 11.0002 8.69155 10.8311C8.67649 10.814 8.66327 10.796 8.65176 10.7769C8.63338 10.7463 8.61933 10.7129 8.609 10.676C8.56169 10.5067 8.59218 10.2627 8.6405 9.87618L8.6405 9.87617L8.7834 8.73303L8.78349 8.73225L8.78932 8.68563L8.78932 8.68562L8.78932 8.68561C8.8669 8.065 8.90569 7.75469 8.81935 7.73342C8.73302 7.71215 8.62321 8.00497 8.4036 8.5906L8.3871 8.63459L8.38683 8.63532L7.95371 9.79032L7.74333 10.3513C7.68633 10.5033 7.64313 10.6185 7.59914 10.707C7.55229 10.8013 7.50456 10.8652 7.4383 10.9112C7.30982 11.0002 7.14221 11.0002 6.807 11.0002H6.43366Z" fill="#FFD400" fill-opacity="0.5"/>
<path d="M5.12127 4.51493C5.30316 3.78737 5.3941 3.42359 5.66536 3.21179C5.93663 3 6.3116 3 7.06155 3H17.9384C18.6884 3 19.0634 3 19.3346 3.21179C19.6059 3.42359 19.6968 3.78737 19.8787 4.51493L21.3447 10.3787C21.4162 10.6647 21.4519 10.8077 21.3769 10.9039C21.3018 11 21.1544 11 20.8596 11H18.244C17.8856 11 17.7064 11 17.5736 10.9011C17.4407 10.8023 17.3892 10.6306 17.2862 10.2873L16.5975 7.99155C16.3809 7.26969 16.2726 6.90876 16.1835 6.92642C16.0944 6.94407 16.1319 7.31902 16.2069 8.06892L16.39 9.9005C16.4414 10.4142 16.4671 10.671 16.3182 10.8355C16.1694 11 15.9112 11 15.395 11H13.905C13.4749 11 13.2598 11 13.117 10.8707C12.9741 10.7415 12.9527 10.5275 12.91 10.0995L12.699 7.99008C12.6267 7.26668 12.5905 6.90499 12.5 6.90499C12.4095 6.90499 12.3733 7.26668 12.301 7.99007L12.09 10.0995C12.0473 10.5275 12.0259 10.7415 11.883 10.8707C11.7402 11 11.5251 11 11.095 11H9.60499C9.08875 11 8.83064 11 8.68177 10.8355C8.5329 10.671 8.55858 10.4142 8.60995 9.9005L8.79311 8.06892C8.8681 7.31902 8.90559 6.94407 8.81648 6.92642C8.72737 6.90876 8.61909 7.26969 8.40254 7.99155L7.7138 10.2873C7.61081 10.6306 7.55931 10.8023 7.42645 10.9011C7.29359 11 7.11438 11 6.75597 11H4.14039C3.8456 11 3.69821 11 3.62314 10.9039C3.54807 10.8077 3.58382 10.6647 3.65532 10.3787L5.12127 4.51493Z" fill="#1A1A8D"/>
<path d="M13 15H12C10.8954 15 10 15.8954 10 17V20.85C10 20.9328 10.0672 21 10.15 21H14.85C14.9328 21 15 20.9328 15 20.85V17C15 15.8954 14.1046 15 13 15Z" fill="#1A1A8D"/>
</svg>
