<svg width="25" height="24" viewBox="0 0 25 24" fill="none" xmlns="http://www.w3.org/2000/svg">
<path d="M5.12127 4.51493C5.30316 3.78737 5.3941 3.42359 5.66536 3.21179C5.93663 3 6.3116 3 7.06155 3H17.9384C18.6884 3 19.0634 3 19.3346 3.21179C19.6059 3.42359 19.6968 3.78737 19.8787 4.51493L21.0823 9.32938C21.1792 9.71675 21.2276 9.91044 21.2169 10.0678C21.1892 10.4757 20.916 10.8257 20.5269 10.9515C20.3769 11 20.1726 11 19.7641 11C19.2309 11 18.9644 11 18.7405 10.9478C18.1133 10.8017 17.5948 10.3625 17.3475 9.76782C17.2593 9.55555 17.2164 9.29856 17.1308 8.78457C17.1068 8.64076 17.0948 8.56886 17.0812 8.54994C17.0413 8.49439 16.9587 8.49439 16.9188 8.54994C16.9052 8.56886 16.8932 8.64076 16.8692 8.78457L16.7877 9.27381C16.7791 9.32568 16.7747 9.35161 16.7704 9.37433C16.5939 10.3005 15.7946 10.9777 14.852 10.9995C14.8289 11 14.8026 11 14.75 11C14.6974 11 14.6711 11 14.648 10.9995C13.7054 10.9777 12.9061 10.3005 12.7296 9.37433C12.7253 9.35161 12.7209 9.32568 12.7123 9.27381L12.6308 8.78457C12.6068 8.64076 12.5948 8.56886 12.5812 8.54994C12.5413 8.49439 12.4587 8.49439 12.4188 8.54994C12.4052 8.56886 12.3932 8.64076 12.3692 8.78457L12.2877 9.27381C12.2791 9.32568 12.2747 9.35161 12.2704 9.37433C12.0939 10.3005 11.2946 10.9777 10.352 10.9995C10.3289 11 10.3026 11 10.25 11C10.1974 11 10.1711 11 10.148 10.9995C9.20541 10.9777 8.40606 10.3005 8.2296 9.37433C8.22527 9.35161 8.22095 9.32568 8.2123 9.27381L8.13076 8.78457C8.10679 8.64076 8.09481 8.56886 8.08122 8.54994C8.04132 8.49439 7.95868 8.49439 7.91878 8.54994C7.90519 8.56886 7.89321 8.64076 7.86924 8.78457C7.78357 9.29856 7.74074 9.55555 7.65249 9.76782C7.40524 10.3625 6.88675 10.8017 6.25951 10.9478C6.03563 11 5.76905 11 5.23591 11C4.82737 11 4.62309 11 4.47306 10.9515C4.08403 10.8257 3.81078 10.4757 3.78307 10.0678C3.77239 9.91044 3.82081 9.71675 3.91765 9.32938L5.12127 4.51493Z" fill="#1A1A8D"/>
<path fill-rule="evenodd" clip-rule="evenodd" d="M5.51747 12.5C5.5 12.9209 5.5 13.415 5.5 13.9998V19.9998C5.5 20.9426 5.5 21.414 5.79289 21.7069C6.08579 21.9998 6.55719 21.9998 7.5 21.9998H10.5V17.9998C10.5 17.4475 10.9477 16.9998 11.5 16.9998H13.5C14.0523 16.9998 14.5 17.4475 14.5 17.9998V21.9998H17.5C18.4428 21.9998 18.9142 21.9998 19.2071 21.7069C19.5 21.414 19.5 20.9426 19.5 19.9998V13.9998C19.5 13.415 19.5 12.9209 19.4825 12.5C19.1177 12.4991 18.7446 12.4888 18.4002 12.4085C17.8808 12.2875 17.404 12.0517 17 11.7266C16.4159 12.1967 15.6803 12.4805 14.8867 12.4989C14.8456 12.4998 14.8022 12.4998 14.7609 12.4998H14.7608L14.75 12.4998L14.7392 12.4998H14.7391C14.6978 12.4998 14.6544 12.4998 14.6133 12.4989C13.8197 12.4805 13.0841 12.1967 12.5 11.7266C11.9159 12.1967 11.1803 12.4805 10.3867 12.4989C10.3456 12.4998 10.3022 12.4998 10.2609 12.4998H10.2608L10.25 12.4998L10.2392 12.4998H10.2391C10.1978 12.4998 10.1544 12.4998 10.1133 12.4989C9.3197 12.4805 8.58409 12.1967 8 11.7266C7.59596 12.0517 7.1192 12.2875 6.59984 12.4085C6.25542 12.4888 5.88227 12.4991 5.51747 12.5Z" fill="#1A1A8D"/>
</svg>
