<svg width="25" height="24" viewBox="0 0 25 24" fill="none" xmlns="http://www.w3.org/2000/svg">
<path d="M6 10V17.5C6 18.4428 6 18.9142 6.29289 19.2071C6.58579 19.5 7.05719 19.5 8 19.5H17C17.9428 19.5 18.4142 19.5 18.7071 19.2071C19 18.9142 19 18.4428 19 17.5V10" stroke="#FFD400" stroke-opacity="0.5"/>
<path d="M15 19V15C15 13.8954 14.1046 13 13 13H12C10.8954 13 10 13.8954 10 15V19" stroke="#1A1A8D" stroke-linejoin="round"/>
<path d="M4.961 5.92432C5.46491 4.74853 5.71687 4.16064 6.21781 3.83032C6.71875 3.5 7.35836 3.5 8.63758 3.5H16.3624C17.6416 3.5 18.2812 3.5 18.7822 3.83032C19.2831 4.16064 19.5351 4.74853 20.039 5.92432L20.7744 7.64037C21.0664 8.32165 21.2124 8.66229 21.2239 8.93748C21.2508 9.5827 20.8617 10.1727 20.2581 10.4021C20.0006 10.5 19.63 10.5 18.8888 10.5V10.5C18.6586 10.5 18.5435 10.5 18.4396 10.4776C18.1994 10.426 17.9867 10.2877 17.8419 10.0892C17.7793 10.0033 17.7325 9.89814 17.639 9.68779L16.8114 7.82561C16.5164 7.16195 16.3689 6.83012 16.283 6.85845C16.1971 6.88678 16.2758 7.24126 16.4334 7.95023L16.4949 8.22713C16.7105 9.19722 16.8183 9.68227 16.6019 10.0292C16.56 10.0963 16.5104 10.1581 16.4541 10.2135C16.1623 10.5 15.6654 10.5 14.6717 10.5V10.5C13.9354 10.5 13.5673 10.5 13.3031 10.306C13.2511 10.2678 13.203 10.2247 13.1594 10.1773C12.9374 9.93621 12.8967 9.57032 12.8154 8.83854L12.6988 7.78899C12.6259 7.13336 12.5895 6.80554 12.5 6.80554C12.4105 6.80554 12.3741 7.13336 12.3012 7.78899L12.1846 8.83854C12.1033 9.57032 12.0626 9.93621 11.8406 10.1773C11.797 10.2247 11.7489 10.2678 11.6969 10.306C11.4327 10.5 11.0646 10.5 10.3283 10.5V10.5C9.33456 10.5 8.83768 10.5 8.54592 10.2135C8.48956 10.1581 8.43995 10.0963 8.39814 10.0292C8.18172 9.68227 8.28951 9.19722 8.50508 8.22713L8.56662 7.95023C8.72416 7.24126 8.80294 6.88678 8.717 6.85845C8.63106 6.83012 8.48358 7.16195 8.18862 7.82561L7.36098 9.68779C7.26749 9.89814 7.22075 10.0033 7.15809 10.0892C7.01334 10.2877 6.80059 10.426 6.56043 10.4776C6.45647 10.5 6.34137 10.5 6.11119 10.5V10.5C5.36998 10.5 4.99937 10.5 4.74191 10.4021C4.13826 10.1727 3.7492 9.5827 3.77611 8.93748C3.78759 8.66229 3.93358 8.32165 4.22556 7.64037L4.961 5.92432Z" stroke="#1A1A8D"/>
</svg>
