<svg width="25" height="24" viewBox="0 0 25 24" fill="none" xmlns="http://www.w3.org/2000/svg">
<path d="M5.42893 19.0711C6.82746 20.4696 8.60929 21.422 10.5491 21.8079C12.4889 22.1937 14.4996 21.9957 16.3268 21.2388C18.1541 20.4819 19.7159 19.2002 20.8147 17.5557C21.9135 15.9112 22.5 13.9778 22.5 12C22.5 10.0222 21.9135 8.08879 20.8147 6.4443C19.7159 4.79981 18.1541 3.51808 16.3268 2.76121C14.4996 2.00433 12.4889 1.8063 10.5491 2.19215C8.60929 2.578 6.82746 3.53041 5.42893 4.92893" stroke="#1A1A8D"/>
<path d="M15.5 12L15.8904 11.6877L16.1403 12L15.8904 12.3123L15.5 12ZM3.5 12.5C3.22386 12.5 3 12.2761 3 12C3 11.7239 3.22386 11.5 3.5 11.5V12.5ZM11.8904 6.68765L15.8904 11.6877L15.1096 12.3123L11.1096 7.31235L11.8904 6.68765ZM15.8904 12.3123L11.8904 17.3123L11.1096 16.6877L15.1096 11.6877L15.8904 12.3123ZM15.5 12.5H3.5V11.5H15.5V12.5Z" fill="#1A1A8D"/>
</svg>
