<svg width="25" height="24" viewBox="0 0 25 24" fill="none" xmlns="http://www.w3.org/2000/svg">
<ellipse cx="6" cy="6" rx="6" ry="6" transform="matrix(4.37114e-08 -1 -1 -4.37114e-08 20.5 18)" fill="#FFD400" fill-opacity="0.5"/>
<path d="M8.2 12C8.2 8.52061 11.0206 5.7 14.5 5.7C17.9794 5.7 20.8 8.52061 20.8 12C20.8 15.4794 17.9794 18.3 14.5 18.3C11.0206 18.3 8.2 15.4794 8.2 12Z" stroke="#FFD400" stroke-opacity="0.5" stroke-width="0.6"/>
<path d="M8.5 18.9282C9.71615 19.6303 11.0957 20 12.5 20C13.9043 20 15.2838 19.6303 16.5 18.9282C17.7162 18.2261 18.7261 17.2162 19.4282 16C20.1303 14.7838 20.5 13.4043 20.5 12C20.5 10.5957 20.1303 9.21615 19.4282 8C18.7261 6.78385 17.7162 5.77394 16.5 5.0718C15.2838 4.36965 13.9043 4 12.5 4C11.0957 4 9.71615 4.36965 8.5 5.0718" stroke="#1A1A8D" stroke-width="1.2"/>
<path d="M2.5 12L2.03148 11.6252L1.73163 12L2.03148 12.3748L2.5 12ZM11.5 12.6C11.8314 12.6 12.1 12.3314 12.1 12C12.1 11.6686 11.8314 11.4 11.5 11.4V12.6ZM6.03148 6.62518L2.03148 11.6252L2.96852 12.3748L6.96852 7.37482L6.03148 6.62518ZM2.03148 12.3748L6.03148 17.3748L6.96852 16.6252L2.96852 11.6252L2.03148 12.3748ZM2.5 12.6H11.5V11.4H2.5V12.6Z" fill="#1A1A8D"/>
</svg>
