<svg width="25" height="24" viewBox="0 0 25 24" fill="none" xmlns="http://www.w3.org/2000/svg">
<ellipse cx="8" cy="8" rx="8" ry="8" transform="matrix(4.37114e-08 -1 -1 -4.37114e-08 22.5 20)" fill="#FFD400" fill-opacity="0.5"/>
<path d="M6.2 12C6.2 7.41604 9.91604 3.7 14.5 3.7C19.084 3.7 22.8 7.41604 22.8 12C22.8 16.584 19.084 20.3 14.5 20.3C9.91604 20.3 6.2 16.584 6.2 12Z" stroke="#FFD400" stroke-opacity="0.5" stroke-width="0.6"/>
<path d="M5.42893 19.0711C6.82746 20.4696 8.60929 21.422 10.5491 21.8079C12.4889 22.1937 14.4996 21.9957 16.3268 21.2388C18.1541 20.4819 19.7159 19.2002 20.8147 17.5557C21.9135 15.9112 22.5 13.9778 22.5 12C22.5 10.0222 21.9135 8.08879 20.8147 6.4443C19.7159 4.79981 18.1541 3.51808 16.3268 2.76121C14.4996 2.00433 12.4889 1.8063 10.5491 2.19215C8.60929 2.578 6.82746 3.53041 5.42893 4.92893" stroke="#1A1A8D" stroke-width="1.2"/>
<path d="M15.5 12L15.9685 11.6252L16.2684 12L15.9685 12.3748L15.5 12ZM3.5 12.6C3.16863 12.6 2.9 12.3314 2.9 12C2.9 11.6686 3.16863 11.4 3.5 11.4V12.6ZM11.9685 6.62518L15.9685 11.6252L15.0315 12.3748L11.0315 7.37482L11.9685 6.62518ZM15.9685 12.3748L11.9685 17.3748L11.0315 16.6252L15.0315 11.6252L15.9685 12.3748ZM15.5 12.6H3.5V11.4H15.5V12.6Z" fill="#1A1A8D"/>
</svg>
