<svg width="25" height="24" viewBox="0 0 25 24" fill="none" xmlns="http://www.w3.org/2000/svg">
<path d="M8.5 18.9282C9.71615 19.6303 11.0957 20 12.5 20C13.9043 20 15.2838 19.6303 16.5 18.9282C17.7162 18.2261 18.7261 17.2162 19.4282 16C20.1303 14.7838 20.5 13.4043 20.5 12C20.5 10.5957 20.1303 9.21615 19.4282 8C18.7261 6.78385 17.7162 5.77394 16.5 5.0718C15.2838 4.36965 13.9043 4 12.5 4C11.0957 4 9.71615 4.36965 8.5 5.0718" stroke="#1A1A8D"/>
<path d="M2.5 12L2.10957 11.6877L1.85969 12L2.10957 12.3123L2.5 12ZM11.5 12.5C11.7761 12.5 12 12.2761 12 12C12 11.7239 11.7761 11.5 11.5 11.5V12.5ZM6.10957 6.68765L2.10957 11.6877L2.89043 12.3123L6.89043 7.31235L6.10957 6.68765ZM2.10957 12.3123L6.10957 17.3123L6.89043 16.6877L2.89043 11.6877L2.10957 12.3123ZM2.5 12.5H11.5V11.5H2.5V12.5Z" fill="#1A1A8D"/>
</svg>
