<svg width="25" height="24" viewBox="0 0 25 24" fill="none" xmlns="http://www.w3.org/2000/svg">
<path fill-rule="evenodd" clip-rule="evenodd" d="M16.121 2.66859L12.4314 2.08881C9.21084 1.58272 7.60055 1.32967 6.55027 2.22779C5.5 3.12591 5.5 4.75596 5.5 8.01607V11H11.4194L8.71913 7.62469L10.2809 6.37531L14.2809 11.3753L14.7806 12L14.2809 12.6247L10.2809 17.6247L8.71913 16.3753L11.4194 13H5.5V15.9831C5.5 19.2432 5.5 20.8733 6.55027 21.7714C7.60055 22.6695 9.21084 22.4165 12.4314 21.9104L16.121 21.3306C17.7337 21.0771 18.54 20.9504 19.02 20.3891C19.5 19.8279 19.5 19.0116 19.5 17.3791V6.6201C19.5 4.98758 19.5 4.17132 19.02 3.61003C18.54 3.04874 17.7337 2.92202 16.121 2.66859Z" fill="#1A1A8D"/>
</svg>
