<svg width="25" height="24" viewBox="0 0 25 24" fill="none" xmlns="http://www.w3.org/2000/svg">
<path d="M15.5136 3.1644L17.4379 2.84368C18.8733 2.60445 19.591 2.48483 20.1684 2.61679C21.1188 2.834 21.9044 3.4995 22.2749 4.40127C22.5 4.94911 22.5 5.67672 22.5 7.13193V17.066C22.5 18.3391 22.5 18.9756 22.3269 19.4628C21.966 20.479 21.0874 21.2232 20.0258 21.4122C19.5168 21.5028 18.8889 21.3981 17.6331 21.1889L17.6331 21.1889L15.5136 20.8356L15.5136 20.8356C13.1191 20.4365 11.9219 20.237 11.2109 19.3977C10.5 18.5585 10.5 17.3448 10.5 14.9172V9.08276C10.5 6.65525 10.5 5.44149 11.2109 4.60226C11.9219 3.76302 13.1191 3.56348 15.5136 3.1644Z" fill="#FFD400" fill-opacity="0.5"/>
<path d="M3.5 12L3.03148 11.6252L2.73163 12L3.03148 12.3748L3.5 12ZM12.5 12.6C12.8314 12.6 13.1 12.3314 13.1 12C13.1 11.6686 12.8314 11.4 12.5 11.4V12.6ZM7.03148 6.62518L3.03148 11.6252L3.96852 12.3748L7.96852 7.37482L7.03148 6.62518ZM3.03148 12.3748L7.03148 17.3748L7.96852 16.6252L3.96852 11.6252L3.03148 12.3748ZM3.5 12.6H12.5V11.4H3.5V12.6Z" fill="#1A1A8D"/>
</svg>
