<svg width="25" height="24" viewBox="0 0 25 24" fill="none" xmlns="http://www.w3.org/2000/svg">
<path d="M7.5 7.13193V6.61204C7.5 4.46614 7.5 3.3932 8.1896 2.79511C8.87919 2.19703 9.94136 2.34877 12.0657 2.65224L16.3485 3.26408C18.8047 3.61495 20.0327 3.79039 20.7664 4.63628C21.5 5.48217 21.5 6.72271 21.5 9.20377V14.7962C21.5 17.2773 21.5 18.5178 20.7664 19.3637C20.0327 20.2096 18.8047 20.385 16.3485 20.7359L12.0657 21.3478C9.94136 21.6512 8.87919 21.803 8.1896 21.2049C7.5 20.6068 7.5 19.5339 7.5 17.388V17.066" stroke="#1A1A8D"/>
<path d="M16.5 12L16.8904 11.6877L17.1403 12L16.8904 12.3123L16.5 12ZM4.5 12.5C4.22386 12.5 4 12.2761 4 12C4 11.7239 4.22386 11.5 4.5 11.5V12.5ZM12.8904 6.68765L16.8904 11.6877L16.1096 12.3123L12.1096 7.31235L12.8904 6.68765ZM16.8904 12.3123L12.8904 17.3123L12.1096 16.6877L16.1096 11.6877L16.8904 12.3123ZM16.5 12.5H4.5V11.5H16.5V12.5Z" fill="#1A1A8D"/>
</svg>
