<svg width="25" height="24" viewBox="0 0 25 24" fill="none" xmlns="http://www.w3.org/2000/svg">
<path d="M5.42893 19.0711C6.82746 20.4696 8.60929 21.422 10.5491 21.8079C12.4889 22.1937 14.4996 21.9957 16.3268 21.2388C18.1541 20.4819 19.7159 19.2002 20.8147 17.5557C21.9135 15.9112 22.5 13.9778 22.5 12C22.5 10.0222 21.9135 8.08879 20.8147 6.4443C19.7159 4.79981 18.1541 3.51808 16.3268 2.76121C14.4996 2.00433 12.4889 1.8063 10.5491 2.19215C8.60929 2.578 6.82746 3.53041 5.42893 4.92893" stroke="#1A1A8D" stroke-width="2"/>
<path d="M15.5 12L16.2809 11.3753L16.7806 12L16.2809 12.6247L15.5 12ZM3.5 13C2.94771 13 2.5 12.5523 2.5 12C2.5 11.4477 2.94771 11 3.5 11V13ZM12.2809 6.3753L16.2809 11.3753L14.7191 12.6247L10.7191 7.6247L12.2809 6.3753ZM16.2809 12.6247L12.2809 17.6247L10.7191 16.3753L14.7191 11.3753L16.2809 12.6247ZM15.5 13H3.5V11H15.5V13Z" fill="#1A1A8D"/>
</svg>
