<svg width="25" height="24" viewBox="0 0 25 24" fill="none" xmlns="http://www.w3.org/2000/svg">
<path d="M8.5 2L8.14645 1.64645L8.5 1.29289L8.85355 1.64645L8.5 2ZM9 17C9 17.2761 8.77614 17.5 8.5 17.5C8.22386 17.5 8 17.2761 8 17L9 17ZM4.14645 5.64645L8.14645 1.64645L8.85355 2.35355L4.85355 6.35355L4.14645 5.64645ZM8.85355 1.64645L12.8536 5.64645L12.1464 6.35355L8.14645 2.35355L8.85355 1.64645ZM9 2L9 17L8 17L8 2L9 2Z" fill="#1A1A8D"/>
<path d="M16.5 22L16.1464 22.3536L16.5 22.7071L16.8536 22.3536L16.5 22ZM17 7C17 6.72386 16.7761 6.5 16.5 6.5C16.2239 6.5 16 6.72386 16 7L17 7ZM12.1464 18.3536L16.1464 22.3536L16.8536 21.6464L12.8536 17.6464L12.1464 18.3536ZM16.8536 22.3536L20.8536 18.3536L20.1464 17.6464L16.1464 21.6464L16.8536 22.3536ZM17 22L17 7L16 7L16 22L17 22Z" fill="#1A1A8D"/>
</svg>
