<svg width="25" height="24" viewBox="0 0 25 24" fill="none" xmlns="http://www.w3.org/2000/svg">
<path d="M5.5 8L5.5 16" stroke="#1A1A8D" stroke-width="2" stroke-linejoin="round"/>
<path d="M5.70801 2.31202L8.67083 6.75624C9.02526 7.28788 8.64414 8 8.00519 8L2.99481 8C2.35586 8 1.97474 7.28788 2.32917 6.75624L5.29199 2.31202C5.39094 2.16359 5.60906 2.16359 5.70801 2.31202Z" fill="#1A1A8D"/>
<path d="M5.70801 21.688L8.67083 17.2438C9.02526 16.7121 8.64414 16 8.00519 16L2.99481 16C2.35586 16 1.97474 16.7121 2.32917 17.2438L5.29199 21.688C5.39094 21.8364 5.60906 21.8364 5.70801 21.688Z" fill="#1A1A8D"/>
<path d="M11.5 7H19.5" stroke="#1A1A8D" stroke-width="2" stroke-linecap="round"/>
<path d="M11.5 12H19.5" stroke="#1A1A8D" stroke-width="2" stroke-linecap="round"/>
<path d="M11.5 17H19.5" stroke="#1A1A8D" stroke-width="2" stroke-linecap="round"/>
</svg>
