<svg width="25" height="24" viewBox="0 0 25 24" fill="none" xmlns="http://www.w3.org/2000/svg">
<path d="M3.5 7H5.27985C7.43172 7 8.50766 7 9.37921 7.45631C9.75172 7.65134 10.0911 7.90388 10.385 8.20464C11.0725 8.90832 11.3817 9.93888 12 12V12C12.6183 14.0611 12.9275 15.0917 13.615 15.7954C13.9089 16.0961 14.2483 16.3487 14.6208 16.5437C15.4923 17 16.5683 17 18.7202 17H21.5M21.5 17L18.5 14M21.5 17L18.5 20" stroke="#1A1A8D"/>
<path fill-rule="evenodd" clip-rule="evenodd" d="M21.8536 6.64648L18.8536 3.64648L18.1464 4.35359L20.2929 6.50004H18.7202H18.6963C17.6406 6.50003 16.8153 6.50003 16.1464 6.55901C15.464 6.61918 14.905 6.74317 14.3889 7.01339C13.9698 7.2328 13.5879 7.51691 13.2574 7.85526C13.2386 7.87444 13.2202 7.8938 13.2019 7.91335C13.3289 8.16228 13.4399 8.41464 13.5406 8.66741C13.5782 8.7617 13.6154 8.85879 13.6523 8.95851C13.7519 8.80434 13.8571 8.6724 13.9727 8.5541C14.2298 8.29094 14.5268 8.06996 14.8527 7.89931C15.2081 7.71321 15.6228 7.60905 16.2343 7.55514C16.8542 7.50049 17.6355 7.50004 18.7202 7.50004H20.2929L18.1464 9.64648L18.8536 10.3536L21.8536 7.35359L22.2071 7.00004L21.8536 6.64648ZM10.7981 16.0867C10.6711 15.8378 10.5601 15.5854 10.4594 15.3327C10.4218 15.2384 10.3846 15.1413 10.3477 15.0416C10.2481 15.1957 10.1429 15.3277 10.0273 15.446C9.77024 15.7091 9.47324 15.9301 9.1473 16.1008C8.79185 16.2869 8.37716 16.391 7.76574 16.4449C7.14583 16.4996 6.36454 16.5 5.27985 16.5H3.5V17.5H5.27985H5.30369C6.35944 17.5 7.18467 17.5 7.85357 17.4411C8.53597 17.3809 9.09502 17.2569 9.61113 16.9867C10.0302 16.7673 10.4121 16.4832 10.7426 16.1448C10.7614 16.1256 10.7798 16.1063 10.7981 16.0867Z" fill="#1A1A8D"/>
</svg>
