<svg width="25" height="24" viewBox="0 0 25 24" fill="none" xmlns="http://www.w3.org/2000/svg">
<path d="M3.5 7H5.27985C7.43172 7 8.50766 7 9.37921 7.45631C9.75172 7.65134 10.0911 7.90388 10.385 8.20464C11.0725 8.90832 11.3817 9.93888 12 12V12C12.6183 14.0611 12.9275 15.0917 13.615 15.7954C13.9089 16.0961 14.2483 16.3487 14.6208 16.5437C15.4923 17 16.5683 17 18.7202 17H21.5M21.5 17L18.5 14M21.5 17L18.5 20" stroke="#1A1A8D" stroke-width="2"/>
<path fill-rule="evenodd" clip-rule="evenodd" d="M22.2071 6.29297L19.2071 3.29297L17.7929 4.70718L19.0858 6.00008H18.7202L18.6753 6.00008H18.6753C17.6374 6.00006 16.7935 6.00005 16.1025 6.06098C15.3846 6.12428 14.7534 6.25819 14.157 6.57047C13.7113 6.80377 13.3036 7.10292 12.9474 7.45771C13.1883 7.85138 13.3778 8.25889 13.5406 8.66744C13.6539 8.95149 13.7635 9.26091 13.8726 9.59127C14.0242 9.27607 14.1695 9.06816 14.3303 8.90355C14.5507 8.67799 14.8052 8.48858 15.0846 8.34231C15.3597 8.19827 15.7022 8.10403 16.2782 8.05325C16.8711 8.00097 17.6267 8.00008 18.7202 8.00008H19.0858L17.7929 9.29297L19.2071 10.7072L22.2071 7.70718L22.9142 7.00008L22.2071 6.29297ZM11.0526 16.5424C10.8117 16.1488 10.6222 15.7413 10.4594 15.3327C10.3461 15.0487 10.2365 14.7392 10.1274 14.4089C9.9758 14.7241 9.83053 14.932 9.66971 15.0966C9.44933 15.3222 9.19476 15.5116 8.91538 15.6578C8.64027 15.8019 8.29776 15.8961 7.72182 15.9469C7.12893 15.9992 6.37329 16.0001 5.27985 16.0001H3.5V18.0001H5.27985H5.3247H5.32472C6.36257 18.0001 7.20648 18.0001 7.89748 17.9392C8.61537 17.8759 9.2466 17.742 9.84305 17.4297C10.2887 17.1964 10.6964 16.8972 11.0526 16.5424Z" fill="#1A1A8D"/>
</svg>
