<svg width="25" height="24" viewBox="0 0 25 24" fill="none" xmlns="http://www.w3.org/2000/svg">
<path d="M8.5 2L7.79289 1.29289L8.5 0.585786L9.20711 1.29289L8.5 2ZM9.5 17C9.5 17.5523 9.05229 18 8.5 18C7.94772 18 7.5 17.5523 7.5 17L9.5 17ZM2.79289 6.29289L7.79289 1.29289L9.20711 2.70711L4.20711 7.70711L2.79289 6.29289ZM9.20711 1.29289L14.2071 6.29289L12.7929 7.70711L7.79289 2.70711L9.20711 1.29289ZM9.5 2L9.5 17L7.5 17L7.5 2L9.5 2Z" fill="#1A1A8D"/>
<path d="M16.5 22L15.7929 22.7071L16.5 23.4142L17.2071 22.7071L16.5 22ZM17.5 7C17.5 6.44772 17.0523 6 16.5 6C15.9477 6 15.5 6.44771 15.5 7L17.5 7ZM10.7929 17.7071L15.7929 22.7071L17.2071 21.2929L12.2071 16.2929L10.7929 17.7071ZM17.2071 22.7071L22.2071 17.7071L20.7929 16.2929L15.7929 21.2929L17.2071 22.7071ZM17.5 22L17.5 7L15.5 7L15.5 22L17.5 22Z" fill="#1A1A8D"/>
</svg>
