<svg width="25" height="24" viewBox="0 0 25 24" fill="none" xmlns="http://www.w3.org/2000/svg">
<path d="M13.5 14H9.31763C7.70089 14 6.33017 15.1888 6.10153 16.7893V16.7893C5.79858 18.9099 7.59499 20.7381 9.72059 20.4724L10.2782 20.4027C12.1188 20.1727 13.5 18.608 13.5 16.7531V7.38851C13.5 5.77017 13.5 4.961 13.974 4.4015C14.4479 3.84201 15.2461 3.70899 16.8424 3.44293L19.1991 3.05015C19.3349 3.02751 19.4028 3.01619 19.4395 3.05588C19.4761 3.09557 19.4594 3.16236 19.426 3.29593L18.5307 6.87721C18.5158 6.93689 18.5083 6.96672 18.4873 6.98673C18.4664 7.00673 18.4362 7.01276 18.3759 7.02482L13.5 8" stroke="#1A1A8D"/>
</svg>
