<svg width="25" height="24" viewBox="0 0 25 24" fill="none" xmlns="http://www.w3.org/2000/svg">
<path fill-rule="evenodd" clip-rule="evenodd" d="M13.5003 16.7533V14.0002H9.31795C7.7012 14.0002 6.33049 15.189 6.10184 16.7895C5.7989 18.9101 7.59531 20.7383 9.72091 20.4726L10.2785 20.4029C12.1191 20.1728 13.5003 18.6082 13.5003 16.7533Z" fill="#1A1A8D"/>
<path d="M13.5003 8.00019V7.3887C13.5003 5.77035 13.5003 4.96118 13.9743 4.40169C14.4482 3.8422 15.2464 3.70917 16.8427 3.44312L19.1994 3.05034C19.3352 3.0277 19.4031 3.01638 19.4398 3.05607C19.4764 3.09575 19.4597 3.16255 19.4263 3.29612L18.531 6.8774C18.5161 6.93707 18.5086 6.96691 18.4877 6.98691C18.4667 7.00691 18.4365 7.01295 18.3762 7.02501L13.5003 8.00019ZM13.5003 8.00019V14.0002M13.5003 14.0002V16.7533C13.5003 18.6082 12.1191 20.1728 10.2785 20.4029L9.72091 20.4726C7.59531 20.7383 5.7989 18.9101 6.10184 16.7895C6.33049 15.189 7.7012 14.0002 9.31795 14.0002H13.5003Z" stroke="#1A1A8D" stroke-width="2"/>
</svg>
