<svg width="25" height="24" viewBox="0 0 25 24" fill="none" xmlns="http://www.w3.org/2000/svg">
<path d="M3.65838 13.9306C2.94537 12.7423 2.94537 11.2577 3.65838 10.0694V10.0694C3.87596 9.70674 4.23641 9.45272 4.6511 9.36978L6.34413 9.03117C6.44499 9.011 6.53591 8.95691 6.60176 8.87788L8.67085 6.39498C9.8534 4.97592 10.4447 4.26638 10.9723 4.45742C11.5 4.64846 11.5 5.57207 11.5 7.41928L11.5 16.5807C11.5 18.4279 11.5 19.3515 10.9723 19.5426C10.4447 19.7336 9.8534 19.0241 8.67085 17.605L6.60176 15.1221C6.53591 15.0431 6.44499 14.989 6.34413 14.9688L4.6511 14.6302C4.23641 14.5473 3.87596 14.2933 3.65838 13.9306V13.9306Z" stroke="#1A1A8D" stroke-width="2"/>
<path d="M15.5 15L21.5 9" stroke="#1A1A8D" stroke-width="2" stroke-linecap="round"/>
<path d="M21.5 15L15.5 9" stroke="#1A1A8D" stroke-width="2" stroke-linecap="round"/>
</svg>
