<svg width="25" height="24" viewBox="0 0 25 24" fill="none" xmlns="http://www.w3.org/2000/svg">
<path d="M5.5 10C5.5 8.11438 5.5 7.17157 6.08579 6.58579C6.67157 6 7.61438 6 9.5 6H12.6265C13.5478 6 14.0084 6 14.4116 6.18882C14.8147 6.37764 15.1096 6.73152 15.6994 7.43926L17.3661 9.43927C18.3864 10.6637 18.8966 11.2759 18.8966 12C18.8966 12.7241 18.3864 13.3363 17.3661 14.5607L15.6994 16.5607C15.1096 17.2685 14.8147 17.6224 14.4116 17.8112C14.0084 18 13.5478 18 12.6265 18H9.5C7.61438 18 6.67157 18 6.08579 17.4142C5.5 16.8284 5.5 15.8856 5.5 14V10Z" fill="#1A1A8D"/>
</svg>
