<svg width="25" height="24" viewBox="0 0 25 24" fill="none" xmlns="http://www.w3.org/2000/svg">
<path d="M5.5 8C5.5 7.05719 5.5 6.58579 5.79289 6.29289C6.08579 6 6.55719 6 7.5 6H13.5633C14.0239 6 14.2542 6 14.4558 6.09441C14.6574 6.18882 14.8048 6.36576 15.0997 6.71963L18.433 10.7196C18.9432 11.3318 19.1983 11.638 19.1983 12C19.1983 12.362 18.9432 12.6682 18.433 13.2804L15.0997 17.2804C14.8048 17.6342 14.6574 17.8112 14.4558 17.9056C14.2542 18 14.0239 18 13.5633 18H7.5C6.55719 18 6.08579 18 5.79289 17.7071C5.5 17.4142 5.5 16.9428 5.5 16V8Z" stroke="#1A1A8D"/>
</svg>
