<svg width="25" height="24" viewBox="0 0 25 24" fill="none" xmlns="http://www.w3.org/2000/svg">
<path d="M10.8075 7.21986C11.4496 5.61918 11.7706 4.81883 12.2922 4.70791C12.4293 4.67874 12.5711 4.67874 12.7082 4.70791C13.2298 4.81883 13.5508 5.61918 14.1929 7.21986C14.558 8.13014 14.7406 8.58528 15.0822 8.89485C15.178 8.98168 15.282 9.05901 15.3928 9.12576C15.7876 9.36374 16.2805 9.40788 17.2663 9.49617C18.9351 9.64562 19.7695 9.72034 20.0243 10.1961C20.077 10.2946 20.1129 10.4013 20.1304 10.5117C20.2149 11.0447 19.6015 11.6028 18.3747 12.7189L18.034 13.0288C17.4605 13.5506 17.1737 13.8115 17.0078 14.1372C16.9083 14.3325 16.8416 14.5428 16.8104 14.7598C16.7582 15.1215 16.8422 15.5 17.0102 16.2569L17.0702 16.5274C17.3714 17.8849 17.522 18.5637 17.334 18.8973C17.1651 19.197 16.8541 19.3889 16.5105 19.4053C16.1279 19.4236 15.589 18.9844 14.511 18.106C13.8008 17.5273 13.4457 17.2379 13.0515 17.1249C12.6912 17.0216 12.3092 17.0216 11.9489 17.1249C11.5547 17.2379 11.1996 17.5273 10.4894 18.106C9.41144 18.9844 8.87245 19.4236 8.48993 19.4053C8.14633 19.3889 7.83528 19.197 7.66642 18.8973C7.47842 18.5637 7.62902 17.8849 7.93022 16.5274L7.99023 16.2569C8.15818 15.5 8.24216 15.1215 8.19004 14.7598C8.15878 14.5428 8.09207 14.3325 7.99257 14.1372C7.82669 13.8115 7.53992 13.5506 6.96637 13.0288L6.6257 12.7189C5.39891 11.6028 4.78552 11.0447 4.86999 10.5117C4.88749 10.4013 4.92337 10.2946 4.97614 10.1961C5.23094 9.72034 6.06532 9.64562 7.73408 9.49617C8.71986 9.40788 9.21276 9.36374 9.6076 9.12576C9.71834 9.05901 9.82236 8.98168 9.91818 8.89485C10.2598 8.58528 10.4424 8.13014 10.8075 7.21986Z" fill="#1A1A8D" stroke="#1A1A8D" stroke-width="2"/>
</svg>
