<svg width="25" height="24" viewBox="0 0 25 24" fill="none" xmlns="http://www.w3.org/2000/svg">
<path d="M10.6434 6.62753C11.43 4.66653 11.8233 3.68604 12.4996 3.68604C13.1759 3.68604 13.5692 4.66653 14.3558 6.62753L14.3925 6.71885C14.8369 7.82672 15.0591 8.38065 15.5119 8.71734C15.9648 9.05403 16.5592 9.10727 17.7481 9.21374L17.9631 9.23299C19.9089 9.40726 20.8818 9.49439 21.09 10.1134C21.2981 10.7324 20.5756 11.3897 19.1306 12.7044L18.6483 13.1432C17.9168 13.8087 17.551 14.1414 17.3806 14.5776C17.3488 14.6589 17.3223 14.7423 17.3014 14.8271C17.1894 15.2817 17.2965 15.7645 17.5107 16.7299L17.5774 17.0305C17.971 18.8048 18.1679 19.692 17.8242 20.0746C17.6958 20.2176 17.5289 20.3206 17.3434 20.3712C16.8472 20.5066 16.1428 19.9325 14.7338 18.7844C13.8086 18.0305 13.3461 17.6536 12.8149 17.5688C12.606 17.5354 12.3932 17.5354 12.1843 17.5688C11.6532 17.6536 11.1906 18.0305 10.2654 18.7844C8.85645 19.9325 8.15197 20.5066 7.65577 20.3712C7.47035 20.3206 7.30344 20.2176 7.17502 20.0746C6.83134 19.692 7.02818 18.8048 7.42185 17.0305L7.48853 16.7299C7.70274 15.7645 7.80984 15.2817 7.69779 14.8271C7.67688 14.7423 7.65045 14.6589 7.61865 14.5776C7.44817 14.1414 7.08242 13.8087 6.35091 13.1432L5.86863 12.7044C4.42359 11.3897 3.70107 10.7324 3.90924 10.1134C4.11742 9.49439 5.09033 9.40726 7.03614 9.23299L7.25108 9.21374C8.44 9.10727 9.03445 9.05403 9.4873 8.71734C9.94015 8.38065 10.1624 7.82672 10.6067 6.71885L10.6434 6.62753Z" fill="#FFD400" fill-opacity="0.5" stroke="#1A1A8D" stroke-width="1.4"/>
</svg>
