<svg width="25" height="24" viewBox="0 0 25 24" fill="none" xmlns="http://www.w3.org/2000/svg">
<path fill-rule="evenodd" clip-rule="evenodd" d="M15.0868 6.58492C15.4487 6.22361 15.9482 6.00018 16.5 6.00018C17.6046 6.00018 18.5 6.89561 18.5 8.00018C18.5 8.55194 18.2766 9.0515 17.9153 9.41335C17.324 8.17783 16.3223 7.17619 15.0868 6.58492ZM10.7571 6.25725C11.0118 5.41687 11.4459 4.65447 12.0149 4.01465C7.82249 4.26541 4.5 7.74479 4.5 12.0002C4.5 16.4185 8.08172 20.0002 12.5 20.0002C16.7554 20.0002 20.2348 16.6777 20.4855 12.4853C19.8457 13.0543 19.0833 13.4884 18.2429 13.7431C17.4962 16.2068 15.2075 18.0002 12.5 18.0002C9.18629 18.0002 6.5 15.3139 6.5 12.0002C6.5 9.29264 8.29338 7.00398 10.7571 6.25725Z" fill="#1A1A8D"/>
<circle cx="16.5" cy="8" r="4" fill="#1A1A8D"/>
</svg>
