<svg width="25" height="24" viewBox="0 0 25 24" fill="none" xmlns="http://www.w3.org/2000/svg">
<circle cx="17.5" cy="8" r="4" fill="#1A1A8D"/>
<path fill-rule="evenodd" clip-rule="evenodd" d="M15.5 8C15.5 6.89543 16.3954 6 17.5 6C18.6046 6 19.5 6.89543 19.5 8H15.5ZM11.5 8C11.5 7.29873 11.6203 6.62556 11.8414 6H5.5C4.94772 6 4.5 6.44772 4.5 7C4.5 7.55228 4.94772 8 5.5 8H11.5ZM12.3027 11C12.7671 11.8028 13.4121 12.488 14.1822 13H5.5C4.94772 13 4.5 12.5523 4.5 12C4.5 11.4477 4.94772 11 5.5 11H12.3027ZM5.5 16C4.94772 16 4.5 16.4477 4.5 17C4.5 17.5523 4.94772 18 5.5 18H19.5C20.0523 18 20.5 17.5523 20.5 17C20.5 16.4477 20.0523 16 19.5 16H5.5Z" fill="#1A1A8D"/>
</svg>
