<svg width="25" height="24" viewBox="0 0 25 24" fill="none" xmlns="http://www.w3.org/2000/svg">
<path fill-rule="evenodd" clip-rule="evenodd" d="M19.4809 9.25283C18.7198 7.32031 17.1794 5.77999 15.2469 5.01897C15.0229 5.27358 14.8413 5.56647 14.7133 5.88656C16.5226 6.54172 17.9581 7.97718 18.6133 9.7864C18.9334 9.6584 19.2263 9.47685 19.4809 9.25283ZM12.7276 5.50391C12.6521 5.50131 12.5762 5.5 12.5 5.5C8.91015 5.5 6 8.41015 6 12C6 15.5899 8.91015 18.5 12.5 18.5C16.0899 18.5 19 15.5899 19 12C19 11.9237 18.9987 11.8478 18.9961 11.7721C19.3387 11.6648 19.6655 11.5216 19.972 11.347C19.9905 11.5622 20 11.78 20 12C20 16.1421 16.6421 19.5 12.5 19.5C8.35786 19.5 5 16.1421 5 12C5 7.85786 8.35786 4.5 12.5 4.5C12.7199 4.5 12.9376 4.50946 13.1527 4.52801C12.9781 4.83451 12.8349 5.16128 12.7276 5.50391Z" fill="#1A1A8D"/>
<circle cx="17.5" cy="7" r="3" fill="#1A1A8D"/>
</svg>
