<svg width="25" height="24" viewBox="0 0 25 24" fill="none" xmlns="http://www.w3.org/2000/svg">
<path fill-rule="evenodd" clip-rule="evenodd" d="M15.9013 7.5H19.5C19.7761 7.5 20 7.27614 20 7C20 6.72386 19.7761 6.5 19.5 6.5H15.5415C15.6017 6.85896 15.7257 7.19631 15.9013 7.5ZM13.7289 7.5C13.6282 7.17938 13.5589 6.84484 13.5247 6.5H5.5C5.22386 6.5 5 6.72386 5 7C5 7.27614 5.22386 7.5 5.5 7.5H13.7289ZM5.5 11.5C5.22386 11.5 5 11.7239 5 12C5 12.2761 5.22386 12.5 5.5 12.5H19.5C19.7761 12.5 20 12.2761 20 12C20 11.7239 19.7761 11.5 19.5 11.5H5.5ZM5.5 16.5C5.22386 16.5 5 16.7239 5 17C5 17.2761 5.22386 17.5 5.5 17.5H19.5C19.7761 17.5 20 17.2761 20 17C20 16.7239 19.7761 16.5 19.5 16.5H5.5Z" fill="#1A1A8D"/>
<circle cx="18.5" cy="6" r="3" fill="#1A1A8D"/>
</svg>
