<svg width="25" height="24" viewBox="0 0 25 24" fill="none" xmlns="http://www.w3.org/2000/svg">
<path d="M12.8244 11.4595C12.8244 11.4596 12.8227 11.4615 12.8195 11.465C12.8228 11.4611 12.8244 11.4593 12.8244 11.4595ZM11.4804 11.0935C11.4805 11.0934 11.481 11.0957 11.4818 11.1007C11.4808 11.0961 11.4804 11.0936 11.4804 11.0935ZM12.1756 19.5405C12.1757 19.5404 12.1773 19.5385 12.1805 19.535C12.1772 19.5389 12.1756 19.5407 12.1756 19.5405ZM13.5196 19.9065C13.5195 19.9066 13.519 19.9043 13.5182 19.8993C13.5192 19.9039 13.5196 19.9064 13.5196 19.9065ZM10.0685 17.7262C10.4656 17.7851 10.9559 17.7971 11.5 17.7994V19.1638C11.5 19.1812 11.5 19.1986 11.5 19.2161C11.4999 19.5396 11.4998 19.8693 11.5302 20.1216C11.5461 20.2532 11.5794 20.4586 11.6785 20.6623C11.7927 20.897 12.0233 21.1796 12.4216 21.288C12.8198 21.3965 13.1618 21.2698 13.3792 21.1254C13.5679 21.0001 13.7009 20.8399 13.7812 20.7346C13.9354 20.5325 14.1025 20.2483 14.2664 19.9694C14.2753 19.9544 14.2841 19.9394 14.2929 19.9244L15.589 17.7211C15.6013 17.7001 15.6136 17.6792 15.6258 17.6584C15.9876 17.0435 16.3146 16.4877 16.5035 16.0208C16.7018 15.5306 16.8631 14.8635 16.4877 14.207C16.1121 13.5503 15.4547 13.3513 14.9315 13.2738C14.5344 13.2149 14.0441 13.2029 13.5 13.2006V11.8362C13.5 11.8188 13.5 11.8014 13.5 11.7839C13.5001 11.4604 13.5002 11.1307 13.4698 10.8784C13.4539 10.7468 13.4206 10.5414 13.3215 10.3377C13.2073 10.103 12.9767 9.82044 12.5784 9.71199C12.1802 9.60354 11.8382 9.73016 11.6208 9.87456C11.4321 9.99988 11.2991 10.1601 11.2188 10.2654C11.0646 10.4675 10.8975 10.7517 10.7336 11.0306C10.7247 11.0456 10.7159 11.0606 10.7071 11.0756L9.41103 13.2789C9.39871 13.2999 9.38643 13.3208 9.37419 13.3416C9.01236 13.9565 8.68536 14.5123 8.49649 14.9792C8.29818 15.4694 8.13686 16.1365 8.51232 16.793C8.88795 17.4497 9.54534 17.6487 10.0685 17.7262ZM13 13.7L13.0004 13.6996L13 13.7Z" stroke="#1A1A8D" stroke-width="2"/>
<path fill-rule="evenodd" clip-rule="evenodd" d="M12.5 2C10.0591 2 7.9608 3.45744 7.02373 5.54534C6.86893 5.89026 6.62934 6 6.5 6C4.29086 6 2.5 7.79086 2.5 10C2.5 11.8658 3.77746 13.4332 5.50545 13.8754C5.50914 13.7718 5.51531 13.6871 5.52567 13.6084C5.60739 12.9877 5.87667 12.4279 6.27516 11.9875C5.27643 11.8758 4.5 11.0286 4.5 10C4.5 8.89543 5.39543 8 6.5 8C7.65073 8 8.47904 7.1872 8.84839 6.36427C9.47472 4.96871 10.8753 4 12.5 4C14.1247 4 15.5253 4.96871 16.1516 6.36427C16.521 7.1872 17.3493 8 18.5 8C19.6046 8 20.5 8.89543 20.5 10C20.5 11.0286 19.7236 11.8758 18.7248 11.9875C19.1233 12.4279 19.3926 12.9877 19.4743 13.6084C19.4847 13.6871 19.4909 13.7718 19.4945 13.8754C21.2225 13.4332 22.5 11.8658 22.5 10C22.5 7.79086 20.7091 6 18.5 6C18.3707 6 18.1311 5.89026 17.9763 5.54534C17.0392 3.45744 14.9409 2 12.5 2Z" fill="#1A1A8D"/>
</svg>
