<svg width="25" height="24" viewBox="0 0 25 24" fill="none" xmlns="http://www.w3.org/2000/svg">
<path d="M6.5 12H18.5C20.1569 12 21.5 10.6569 21.5 9C21.5 7.34315 20.1569 6 18.5 6C17.86 6 17.326 5.53873 17.0639 4.95481C16.2822 3.21307 14.5328 2 12.5 2C10.4672 2 8.71776 3.21307 7.93606 4.95481C7.67399 5.53873 7.14004 6 6.5 6C4.84315 6 3.5 7.34315 3.5 9C3.5 10.6569 4.84315 12 6.5 12Z" fill="#1A1A8D"/>
<path fill-rule="evenodd" clip-rule="evenodd" d="M10.7352 14L10.2729 14.786C9.48586 16.124 9.09233 16.793 9.38032 17.2965C9.66831 17.8 10.4454 17.8 11.9996 17.8C12.2355 17.8 12.3535 17.8 12.4267 17.8732C12.5 17.9464 12.5 18.0643 12.5 18.3V20.1638C12.5 20.9032 12.5 21.2729 12.6843 21.3231C12.8686 21.3733 13.056 21.0547 13.4309 20.4174L14.727 18.214C15.514 16.876 15.9076 16.207 15.6196 15.7035C15.3316 15.2 14.5545 15.2 13.0003 15.2C12.7644 15.2 12.6464 15.2 12.5732 15.1268C12.5 15.0536 12.5 14.9357 12.5 14.7V14H10.7352Z" fill="#1A1A8D"/>
</svg>
