<svg width="25" height="24" viewBox="0 0 25 24" fill="none" xmlns="http://www.w3.org/2000/svg">
<path d="M12 17.3V19.1638L12 19.197C12 19.5382 11.9999 19.8404 12.0266 20.0618C12.0403 20.1753 12.0656 20.3151 12.1282 20.4436C12.1982 20.5876 12.3308 20.7451 12.5529 20.8056C12.7751 20.8661 12.9692 20.7975 13.1026 20.7089C13.2217 20.6299 13.3143 20.5223 13.3837 20.4313C13.519 20.254 13.6721 19.9936 13.8451 19.6994L13.8619 19.6709L15.158 17.4675L15.1793 17.4314C15.5547 16.7932 15.8653 16.2653 16.04 15.8333C16.2195 15.3895 16.3134 14.9094 16.0537 14.4553C15.7938 14.001 15.332 13.8386 14.8582 13.7683C14.3969 13.7 13.7837 13.7 13.0424 13.7L13.0004 13.7C13.0003 13.7 13.0001 13.7 13 13.7V11.8362C13 11.8251 13 11.814 13 11.803C13 11.4618 13.0001 11.1596 12.9734 10.9382C12.9597 10.8247 12.9344 10.6849 12.8718 10.5564C12.8018 10.4124 12.6692 10.2549 12.4471 10.1944C12.2249 10.1339 12.0308 10.2025 11.8974 10.2911C11.7783 10.3701 11.6857 10.4777 11.6163 10.5687C11.481 10.746 11.3279 11.0064 11.1549 11.3006C11.1493 11.3101 11.1437 11.3196 11.1381 11.3291L9.842 13.5324L9.82071 13.5686C9.44529 14.2068 9.13473 14.7347 8.96001 15.1667C8.78047 15.6105 8.68662 16.0906 8.94634 16.5447C9.20615 16.999 9.66799 17.1614 10.1418 17.2317C10.6031 17.3 11.2163 17.3 11.9576 17.3L11.9996 17.3C11.9997 17.3 11.9999 17.3 12 17.3Z" stroke="#1A1A8D"/>
<path fill-rule="evenodd" clip-rule="evenodd" d="M12.5 2.5C10.2632 2.5 8.33928 3.83526 7.47989 5.75007C7.27146 6.21449 6.88469 6.5 6.5 6.5C4.567 6.5 3 8.067 3 10C3 11.6095 4.08644 12.9653 5.56597 13.374C5.63772 13.0369 5.7655 12.7212 5.9392 12.4369C4.82851 12.1823 4 11.1879 4 10C4 8.61929 5.11929 7.5 6.5 7.5C7.39538 7.5 8.07652 6.86297 8.39222 6.15954C9.09624 4.59089 10.6713 3.5 12.5 3.5C14.3287 3.5 15.9038 4.59089 16.6078 6.15954C16.9235 6.86297 17.6046 7.5 18.5 7.5C19.8807 7.5 21 8.61929 21 10C21 11.1879 20.1715 12.1823 19.0608 12.4369C19.2345 12.7212 19.3623 13.0369 19.434 13.374C20.9136 12.9653 22 11.6095 22 10C22 8.067 20.433 6.5 18.5 6.5C18.1153 6.5 17.7285 6.21449 17.5201 5.75007C16.6607 3.83526 14.7368 2.5 12.5 2.5Z" fill="#1A1A8D"/>
</svg>
