<svg width="25" height="24" viewBox="0 0 25 24" fill="none" xmlns="http://www.w3.org/2000/svg">
<path d="M10.1272 17.3306C10.5851 17.3985 11.1868 17.4 11.9 17.4V19.1638L11.9 19.2016C11.9 19.5387 11.8999 19.8462 11.9274 20.0738C11.9415 20.1909 11.9684 20.3438 12.0382 20.4873C12.1171 20.6495 12.2693 20.832 12.5267 20.9021C12.7841 20.9721 13.0078 20.892 13.158 20.7922C13.2909 20.7039 13.3916 20.5858 13.4632 20.492C13.6022 20.3098 13.7581 20.0447 13.929 19.7541L13.9481 19.7216L15.2442 17.5183L15.269 17.4761C15.6414 16.8431 15.9552 16.3097 16.1327 15.8708C16.316 15.4177 16.4233 14.9002 16.1405 14.4056C15.8575 13.9109 15.3565 13.7411 14.8728 13.6694C14.4149 13.6015 13.8132 13.6 13.1 13.6V11.8362C13.1 11.8235 13.1 11.8109 13.1 11.7984C13.1 11.4613 13.1001 11.1538 13.0726 10.9262C13.0585 10.8091 13.0316 10.6562 12.9618 10.5127C12.8829 10.3505 12.7307 10.168 12.4733 10.0979C12.2159 10.0279 11.9922 10.108 11.842 10.2078C11.7091 10.2961 11.6084 10.4142 11.5368 10.508C11.3978 10.6902 11.2419 10.9553 11.071 11.2459C11.0647 11.2567 11.0583 11.2675 11.0519 11.2784L9.7558 13.4817C9.74751 13.4958 9.73925 13.5099 9.73102 13.5239C9.35862 14.1569 9.04484 14.6903 8.86731 15.1292C8.68401 15.5823 8.57667 16.0998 8.85954 16.5944C9.14251 17.0891 9.64346 17.2589 10.1272 17.3306ZM13.1038 13.8941C13.1038 13.8944 13.1038 13.8945 13.1038 13.8945C13.1038 13.8945 13.1038 13.8945 13.1038 13.8944C13.1038 13.8943 13.1038 13.8942 13.1038 13.8941Z" fill="#FFD400" fill-opacity="0.5" stroke="#1A1A8D" stroke-width="1.2"/>
<path fill-rule="evenodd" clip-rule="evenodd" d="M12.5004 2.3999C10.2227 2.3999 8.26398 3.7596 7.38905 5.70903C7.19134 6.14955 6.83401 6.3999 6.50039 6.3999C4.51217 6.3999 2.90039 8.01168 2.90039 9.9999C2.90039 11.6581 4.02152 13.0545 5.54712 13.4723C5.62028 13.0619 5.77601 12.6809 5.99667 12.347C4.91303 12.1155 4.10039 11.1526 4.10039 9.9999C4.10039 8.67442 5.17491 7.5999 6.50039 7.5999C7.44684 7.5999 8.15741 6.92772 8.48385 6.20039C9.17233 4.66636 10.7125 3.5999 12.5004 3.5999C14.2883 3.5999 15.8285 4.66636 16.5169 6.20038C16.8434 6.92772 17.5539 7.5999 18.5004 7.5999C19.8259 7.5999 20.9004 8.67442 20.9004 9.9999C20.9004 11.1526 20.0877 12.1155 19.0041 12.347C19.2248 12.6809 19.3805 13.0619 19.4537 13.4723C20.9793 13.0545 22.1004 11.6581 22.1004 9.9999C22.1004 8.01168 20.4886 6.3999 18.5004 6.3999C18.1668 6.3999 17.8094 6.14955 17.6117 5.70903C16.7368 3.7596 14.778 2.3999 12.5004 2.3999Z" fill="#1A1A8D"/>
</svg>
