<svg width="25" height="24" viewBox="0 0 25 24" fill="none" xmlns="http://www.w3.org/2000/svg">
<rect x="4.5" y="4" width="16" height="5" rx="1" stroke="#1A1A8D" stroke-width="2"/>
<path d="M4.5 17C4.5 16.0572 4.5 15.5858 4.79289 15.2929C5.08579 15 5.55719 15 6.5 15H9.5V18C9.5 18.9428 9.5 19.4142 9.20711 19.7071C8.91421 20 8.44281 20 7.5 20H6.5C5.55719 20 5.08579 20 4.79289 19.7071C4.5 19.4142 4.5 18.9428 4.5 18V17Z" stroke="#1A1A8D" stroke-width="2"/>
<path d="M15.5 15H18.5C19.4428 15 19.9142 15 20.2071 15.2929C20.5 15.5858 20.5 16.0572 20.5 17V18C20.5 18.9428 20.5 19.4142 20.2071 19.7071C19.9142 20 19.4428 20 18.5 20H17.5C16.5572 20 16.0858 20 15.7929 19.7071C15.5 19.4142 15.5 18.9428 15.5 18V15Z" stroke="#1A1A8D" stroke-width="2"/>
</svg>
