<svg width="25" height="24" viewBox="0 0 25 24" fill="none" xmlns="http://www.w3.org/2000/svg">
<rect x="4.5" y="4" width="16" height="7" rx="1" stroke="#1A1A8D"/>
<path d="M4.5 16C4.5 15.0572 4.5 14.5858 4.79289 14.2929C5.08579 14 5.55719 14 6.5 14H10.5V18C10.5 18.9428 10.5 19.4142 10.2071 19.7071C9.91421 20 9.44281 20 8.5 20H6.5C5.55719 20 5.08579 20 4.79289 19.7071C4.5 19.4142 4.5 18.9428 4.5 18V16Z" stroke="#1A1A8D"/>
<path d="M14.5 14H18.5C19.4428 14 19.9142 14 20.2071 14.2929C20.5 14.5858 20.5 15.0572 20.5 16V18C20.5 18.9428 20.5 19.4142 20.2071 19.7071C19.9142 20 19.4428 20 18.5 20H16.5C15.5572 20 15.0858 20 14.7929 19.7071C14.5 19.4142 14.5 18.9428 14.5 18V14Z" stroke="#1A1A8D"/>
</svg>
