<svg width="25" height="24" viewBox="0 0 25 24" fill="none" xmlns="http://www.w3.org/2000/svg">
<path d="M8.5 9L8.5 8C8.5 6.11438 8.5 5.17157 9.08579 4.58579C9.67157 4 10.6144 4 12.5 4V4C14.3856 4 15.3284 4 15.9142 4.58579C16.5 5.17157 16.5 6.11438 16.5 8L16.5 9" stroke="#1A1A8D" stroke-width="2" stroke-linecap="round"/>
<path d="M3.5 13C3.5 11.1144 3.5 10.1716 4.08579 9.58579C4.67157 9 5.61438 9 7.5 9H17.5C19.3856 9 20.3284 9 20.9142 9.58579C21.5 10.1716 21.5 11.1144 21.5 13V19C21.5 19.9428 21.5 20.4142 21.2071 20.7071C20.9142 21 20.4428 21 19.5 21H5.5C4.55719 21 4.08579 21 3.79289 20.7071C3.5 20.4142 3.5 19.9428 3.5 19V13Z" stroke="#1A1A8D" stroke-width="2"/>
<path d="M3.5 13.9976H21.5" stroke="#1A1A8D" stroke-width="2"/>
<rect x="10.5" y="13.9976" width="4" height="3.00244" fill="#1A1A8D"/>
</svg>
