<svg width="25" height="24" viewBox="0 0 25 24" fill="none" xmlns="http://www.w3.org/2000/svg">
<path d="M8.5 20C8.5 18.9391 8.92143 17.9217 9.67157 17.1716C10.4217 16.4214 11.4391 16 12.5 16C13.5609 16 14.5783 16.4214 15.3284 17.1716C16.0786 17.9217 16.5 18.9391 16.5 20" stroke="#1A1A8D" stroke-width="2"/>
<path d="M18 14.5L20 12.5" stroke="#1A1A8D" stroke-width="2" stroke-linecap="round"/>
<path d="M5.5 20H19.5" stroke="#1A1A8D" stroke-width="2" stroke-linecap="square"/>
<path d="M5 12.5L7 14.5" stroke="#1A1A8D" stroke-width="2" stroke-linecap="round"/>
<path d="M12.5 4L13.2071 3.29289L12.5 2.58579L11.7929 3.29289L12.5 4ZM11.5 12.5C11.5 13.0523 11.9477 13.5 12.5 13.5C13.0523 13.5 13.5 13.0523 13.5 12.5L11.5 12.5ZM16.2071 6.29289L13.2071 3.29289L11.7929 4.70711L14.7929 7.70711L16.2071 6.29289ZM11.7929 3.29289L8.79289 6.29289L10.2071 7.70711L13.2071 4.70711L11.7929 3.29289ZM11.5 4L11.5 12.5L13.5 12.5L13.5 4L11.5 4Z" fill="#1A1A8D"/>
</svg>
