<svg width="25" height="24" viewBox="0 0 25 24" fill="none" xmlns="http://www.w3.org/2000/svg">
<path d="M17.5 18C17.5 16.6739 16.9732 15.4021 16.0355 14.4645C15.0979 13.5268 13.8261 13 12.5 13C11.1739 13 9.90215 13.5268 8.96447 14.4645C8.02678 15.4021 7.5 16.6739 7.5 18L12.5 18H17.5Z" fill="#1A1A8D"/>
<path d="M18 12.5L20 10.5" stroke="#1A1A8D" stroke-width="2" stroke-linecap="round"/>
<path d="M5.5 18H19.5" stroke="#1A1A8D" stroke-width="2" stroke-linecap="square"/>
<path d="M5 10.5L7 12.5" stroke="#1A1A8D" stroke-width="2" stroke-linecap="round"/>
<path d="M12.5 2L13.2071 1.29289L12.5 0.585786L11.7929 1.29289L12.5 2ZM11.5 10.5C11.5 11.0523 11.9477 11.5 12.5 11.5C13.0523 11.5 13.5 11.0523 13.5 10.5L11.5 10.5ZM16.2071 4.29289L13.2071 1.29289L11.7929 2.70711L14.7929 5.70711L16.2071 4.29289ZM11.7929 1.29289L8.79289 4.29289L10.2071 5.70711L13.2071 2.70711L11.7929 1.29289ZM11.5 2L11.5 10.5L13.5 10.5L13.5 2L11.5 2Z" fill="#1A1A8D"/>
</svg>
