<svg width="25" height="24" viewBox="0 0 25 24" fill="none" xmlns="http://www.w3.org/2000/svg">
<path d="M17.5 20C17.5 18.6739 16.9732 17.4021 16.0355 16.4645C15.0979 15.5268 13.8261 15 12.5 15C11.1739 15 9.90215 15.5268 8.96447 16.4645C8.02678 17.4021 7.5 18.6739 7.5 20L12.5 20H17.5Z" fill="#FFD400" fill-opacity="0.5"/>
<path d="M8.1 20C8.1 18.833 8.56357 17.7139 9.38873 16.8887C10.2139 16.0636 11.333 15.6 12.5 15.6C13.667 15.6 14.7861 16.0636 15.6113 16.8887C16.4364 17.7139 16.9 18.833 16.9 20" stroke="#1A1A8D" stroke-width="1.2"/>
<path d="M18 14.5L20 12.5" stroke="#1A1A8D" stroke-width="1.2" stroke-linecap="round"/>
<path d="M5.5 20H19.5" stroke="#1A1A8D" stroke-width="1.2" stroke-linecap="square"/>
<path d="M5 12.5L7 14.5" stroke="#1A1A8D" stroke-width="1.2" stroke-linecap="round"/>
<path d="M12.5 4L12.9243 3.57574L12.5 3.15147L12.0757 3.57574L12.5 4ZM11.9 12.5C11.9 12.8314 12.1686 13.1 12.5 13.1C12.8314 13.1 13.1 12.8314 13.1 12.5L11.9 12.5ZM15.9243 6.57574L12.9243 3.57574L12.0757 4.42426L15.0757 7.42426L15.9243 6.57574ZM12.0757 3.57574L9.07574 6.57574L9.92426 7.42426L12.9243 4.42426L12.0757 3.57574ZM11.9 4L11.9 12.5L13.1 12.5L13.1 4L11.9 4Z" fill="#1A1A8D"/>
</svg>
