<svg width="25" height="24" viewBox="0 0 25 24" fill="none" xmlns="http://www.w3.org/2000/svg">
<path d="M8 18C8 16.8065 8.47411 15.6619 9.31802 14.818C10.1619 13.9741 11.3065 13.5 12.5 13.5C13.6935 13.5 14.8381 13.9741 15.682 14.818C16.5259 15.6619 17 16.8065 17 18" stroke="#1A1A8D"/>
<path d="M18 12.5L20 10.5" stroke="#1A1A8D" stroke-linecap="round"/>
<path d="M5.5 18H19.5" stroke="#1A1A8D" stroke-linecap="square"/>
<path d="M5 10.5L7 12.5" stroke="#1A1A8D" stroke-linecap="round"/>
<path d="M12.5 2L12.8536 1.64645L12.5 1.29289L12.1464 1.64645L12.5 2ZM12 10.5C12 10.7761 12.2239 11 12.5 11C12.7761 11 13 10.7761 13 10.5L12 10.5ZM15.8536 4.64645L12.8536 1.64645L12.1464 2.35355L15.1464 5.35355L15.8536 4.64645ZM12.1464 1.64645L9.14645 4.64645L9.85355 5.35355L12.8536 2.35355L12.1464 1.64645ZM12 2L12 10.5L13 10.5L13 2L12 2Z" fill="#1A1A8D"/>
</svg>
