<svg width="25" height="24" viewBox="0 0 25 24" fill="none" xmlns="http://www.w3.org/2000/svg">
<path fill-rule="evenodd" clip-rule="evenodd" d="M12.5 19C16.366 19 19.5 15.866 19.5 12C19.5 8.13401 16.366 5 12.5 5C8.63401 5 5.5 8.13401 5.5 12C5.5 15.866 8.63401 19 12.5 19ZM12.5 15C14.1569 15 15.5 13.6569 15.5 12C15.5 10.3431 14.1569 9 12.5 9C10.8431 9 9.5 10.3431 9.5 12C9.5 13.6569 10.8431 15 12.5 15Z" fill="#1A1A8D"/>
<path d="M7.5502 7.04996L5.5 5" stroke="#1A1A8D" stroke-width="2" stroke-linecap="round"/>
<path d="M17.4498 7.04996L19.5 5" stroke="#1A1A8D" stroke-width="2" stroke-linecap="round"/>
<path d="M19.5002 18.9998L17.4502 16.9497" stroke="#1A1A8D" stroke-width="2" stroke-linecap="round"/>
<path d="M5.50049 19L7.55078 16.9502" stroke="#1A1A8D" stroke-width="2" stroke-linecap="round"/>
</svg>
