<svg width="25" height="24" viewBox="0 0 25 24" fill="none" xmlns="http://www.w3.org/2000/svg">
<circle cx="12.5" cy="12" r="3" fill="#1A1A8D"/>
<path fill-rule="evenodd" clip-rule="evenodd" d="M12.5 18.0005C15.8137 18.0005 18.5 15.3142 18.5 12.0005C18.5 8.68678 15.8137 6.00049 12.5 6.00049C9.18629 6.00049 6.5 8.68678 6.5 12.0005C6.5 15.3142 9.18629 18.0005 12.5 18.0005ZM12.5 19.0005C14.2174 19.0005 15.7903 18.382 17.0082 17.3557C17.0138 17.3618 17.0196 17.3679 17.0255 17.3738L18.4397 18.788C18.674 19.0223 19.0539 19.0223 19.2883 18.788C19.5226 18.5537 19.5226 18.1738 19.2883 17.9395L17.874 16.5253C17.8681 16.5193 17.862 16.5135 17.8559 16.5079C18.8818 15.2901 19.5 13.7175 19.5 12.0005C19.5 10.2831 18.8816 8.71023 17.8552 7.49232C17.8616 7.48648 17.8679 7.48047 17.874 7.4743L19.2883 6.06009C19.5226 5.82578 19.5226 5.44588 19.2883 5.21156C19.0539 4.97725 18.674 4.97725 18.4397 5.21156L17.0255 6.62578C17.0193 6.63196 17.0133 6.63825 17.0074 6.64464C15.7896 5.61868 14.217 5.00049 12.5 5.00049C10.783 5.00049 9.21039 5.61867 7.99259 6.64461C7.98674 6.63823 7.98073 6.63195 7.97455 6.62578L6.56033 5.21156C6.32602 4.97725 5.94612 4.97725 5.71181 5.21156C5.47749 5.44588 5.47749 5.82578 5.71181 6.06009L7.12602 7.4743C7.13218 7.48046 7.13843 7.48646 7.14479 7.49229C6.11845 8.7102 5.5 10.2831 5.5 12.0005C5.5 13.7175 6.11818 15.2901 7.14412 16.5079C7.138 16.5135 7.13196 16.5193 7.12602 16.5253L5.71181 17.9395C5.47749 18.1738 5.47749 18.5537 5.71181 18.788C5.94612 19.0223 6.32602 19.0223 6.56034 18.788L7.97455 17.3738C7.98047 17.3679 7.98624 17.3619 7.99186 17.3558C9.20977 18.3821 10.7827 19.0005 12.5 19.0005Z" fill="#FFD400" fill-opacity="0.5"/>
</svg>
