<svg width="25" height="24" viewBox="0 0 25 24" fill="none" xmlns="http://www.w3.org/2000/svg">
<path d="M15.8839 12.319L15.2069 13.055L15.8839 12.319ZM10.5 6C10.5 4.89543 11.3954 4 12.5 4V2C10.2909 2 8.5 3.79086 8.5 6H10.5ZM10.5 11.5001V6H8.5V11.5001H10.5ZM8.5 16C8.5 14.835 8.99678 13.7874 9.79309 13.055L8.43916 11.583C7.2484 12.6782 6.5 14.2524 6.5 16H8.5ZM12.5 20C10.2909 20 8.5 18.2091 8.5 16H6.5C6.5 19.3137 9.18629 22 12.5 22V20ZM16.5 16C16.5 18.2091 14.7091 20 12.5 20V22C15.8137 22 18.5 19.3137 18.5 16H16.5ZM15.2069 13.055C16.0032 13.7874 16.5 14.835 16.5 16H18.5C18.5 14.2524 17.7516 12.6782 16.5608 11.583L15.2069 13.055ZM14.5 6V11.5001H16.5V6H14.5ZM12.5 4C13.6046 4 14.5 4.89543 14.5 6H16.5C16.5 3.79086 14.7091 2 12.5 2V4ZM16.5608 11.583C16.5308 11.5553 16.5137 11.5296 16.5056 11.5128C16.4982 11.4973 16.5 11.4937 16.5 11.5001H14.5C14.5 12.145 14.8101 12.69 15.2069 13.055L16.5608 11.583ZM8.5 11.5001C8.5 11.4937 8.50183 11.4973 8.49438 11.5128C8.48627 11.5296 8.46922 11.5553 8.43916 11.583L9.79309 13.055C10.1899 12.69 10.5 12.145 10.5 11.5001H8.5Z" fill="#1A1A8D"/>
<circle cx="12.5" cy="16" r="2" fill="#1A1A8D"/>
</svg>
