<svg width="25" height="24" viewBox="0 0 25 24" fill="none" xmlns="http://www.w3.org/2000/svg">
<path fill-rule="evenodd" clip-rule="evenodd" d="M9.5 6C9.5 4.34315 10.8431 3 12.5 3C14.1569 3 15.5 4.34315 15.5 6V11.5001C15.5 11.8146 15.6524 12.1061 15.8839 12.319C16.8774 13.2328 17.5 14.5437 17.5 16C17.5 18.7614 15.2614 21 12.5 21C9.73858 21 7.5 18.7614 7.5 16C7.5 14.5437 8.12259 13.2328 9.11612 12.319C9.3476 12.1061 9.5 11.8146 9.5 11.5001V6ZM12.5 18C13.6046 18 14.5 17.1046 14.5 16C14.5 14.8954 13.6046 14 12.5 14C11.3954 14 10.5 14.8954 10.5 16C10.5 17.1046 11.3954 18 12.5 18Z" fill="#FFD400" fill-opacity="0.5"/>
<path d="M15.8839 12.319L16.2901 11.8774L16.2901 11.8774L15.8839 12.319ZM9.11612 12.319L9.5223 12.7606L9.11612 12.319ZM12.5 2.4C10.5118 2.4 8.9 4.01177 8.9 6H10.1C10.1 4.67452 11.1745 3.6 12.5 3.6V2.4ZM16.1 6C16.1 4.01178 14.4882 2.4 12.5 2.4V3.6C13.8255 3.6 14.9 4.67452 14.9 6H16.1ZM16.1 11.5001V6H14.9V11.5001H16.1ZM16.2901 11.8774C16.1578 11.7557 16.1 11.6163 16.1 11.5001H14.9C14.9 12.0128 15.147 12.4565 15.4777 12.7606L16.2901 11.8774ZM18.1 16C18.1 14.369 17.4019 12.9001 16.2901 11.8774L15.4777 12.7606C16.3529 13.5656 16.9 14.7185 16.9 16H18.1ZM12.5 21.6C15.5928 21.6 18.1 19.0928 18.1 16H16.9C16.9 18.4301 14.9301 20.4 12.5 20.4V21.6ZM6.9 16C6.9 19.0928 9.40721 21.6 12.5 21.6V20.4C10.0699 20.4 8.1 18.4301 8.1 16H6.9ZM8.70995 11.8774C7.59808 12.9001 6.9 14.3689 6.9 16H8.1C8.1 14.7185 8.64711 13.5656 9.5223 12.7606L8.70995 11.8774ZM8.9 11.5001C8.9 11.6163 8.84221 11.7557 8.70995 11.8774L9.5223 12.7606C9.853 12.4565 10.1 12.0128 10.1 11.5001H8.9ZM8.9 6V11.5001H10.1V6H8.9ZM13.9 16C13.9 16.7732 13.2732 17.4 12.5 17.4V18.6C13.9359 18.6 15.1 17.4359 15.1 16H13.9ZM12.5 14.6C13.2732 14.6 13.9 15.2268 13.9 16H15.1C15.1 14.5641 13.9359 13.4 12.5 13.4V14.6ZM11.1 16C11.1 15.2268 11.7268 14.6 12.5 14.6V13.4C11.0641 13.4 9.9 14.5641 9.9 16H11.1ZM12.5 17.4C11.7268 17.4 11.1 16.7732 11.1 16H9.9C9.9 17.4359 11.0641 18.6 12.5 18.6V17.4Z" fill="#1A1A8D"/>
</svg>
