<svg width="25" height="24" viewBox="0 0 25 24" fill="none" xmlns="http://www.w3.org/2000/svg">
<path d="M15.8839 12.319L15.5454 12.687L15.8839 12.319ZM10 6C10 4.61929 11.1193 3.5 12.5 3.5V2.5C10.567 2.5 9 4.067 9 6H10ZM10 11.5001V6H9V11.5001H10ZM8 16C8 14.6893 8.55969 13.5101 9.45461 12.687L8.77764 11.951C7.6855 12.9555 7 14.3981 7 16H8ZM12.5 20.5C10.0147 20.5 8 18.4853 8 16H7C7 19.0376 9.46243 21.5 12.5 21.5V20.5ZM17 16C17 18.4853 14.9853 20.5 12.5 20.5V21.5C15.5376 21.5 18 19.0376 18 16H17ZM15.5454 12.687C16.4403 13.5101 17 14.6893 17 16H18C18 14.3981 17.3145 12.9555 16.2224 11.951L15.5454 12.687ZM15 6V11.5001H16V6H15ZM12.5 3.5C13.8807 3.5 15 4.61929 15 6H16C16 4.067 14.433 2.5 12.5 2.5V3.5ZM16.2224 11.951C16.0736 11.8141 16 11.6494 16 11.5001H15C15 11.9798 15.2312 12.3981 15.5454 12.687L16.2224 11.951ZM9 11.5001C9 11.6494 8.92644 11.8141 8.77764 11.951L9.45461 12.687C9.76876 12.3981 10 11.9798 10 11.5001H9Z" fill="#1A1A8D"/>
<circle cx="12.5" cy="16" r="2.5" stroke="#1A1A8D"/>
</svg>
