<svg width="25" height="24" viewBox="0 0 25 24" fill="none" xmlns="http://www.w3.org/2000/svg">
<path fill-rule="evenodd" clip-rule="evenodd" d="M12.5 3C10.8431 3 9.5 4.34315 9.5 6V11.5001C9.5 11.8146 9.3476 12.1061 9.11612 12.319C8.12259 13.2328 7.5 14.5437 7.5 16C7.5 18.7614 9.73858 21 12.5 21C15.2614 21 17.5 18.7614 17.5 16C17.5 14.5437 16.8774 13.2328 15.8839 12.319C15.6524 12.1061 15.5 11.8146 15.5 11.5001V6C15.5 4.34315 14.1569 3 12.5 3ZM14.5 16C14.5 17.1046 13.6046 18 12.5 18C11.3954 18 10.5 17.1046 10.5 16C10.5 15.2597 10.9022 14.6134 11.5 14.2676V6C11.5 5.44772 11.9477 5 12.5 5C13.0523 5 13.5 5.44772 13.5 6V14.2676C14.0978 14.6134 14.5 15.2597 14.5 16Z" fill="#1A1A8D"/>
</svg>
