<svg width="25" height="24" viewBox="0 0 25 24" fill="none" xmlns="http://www.w3.org/2000/svg">
<path d="M6.41473 4.55764L6.51227 5.04804L6.41473 4.55764ZM4.05764 6.91473L4.54804 7.01227L4.05764 6.91473ZM4.05764 17.0853L3.56725 17.1828L4.05764 17.0853ZM6.41473 19.4424L6.31718 19.9327H6.31718L6.41473 19.4424ZM13.3505 8.0111L13.2764 7.51662L13.3505 8.0111ZM13.3505 13.0111L13.2764 12.5166L13.3505 13.0111ZM13.3505 18.0111L13.2764 17.5166L13.3505 18.0111ZM13.3505 10.9889L13.4246 10.4944L13.3505 10.9889ZM13.3505 15.9889L13.2764 16.4834L13.3505 15.9889ZM13.4246 5.49443C13.1844 5.45842 13 5.25029 13 5H12C12 5.75268 12.5539 6.37509 13.2764 6.48338L13.4246 5.49443ZM13 5V4.65H12V5H13ZM12.35 4H7.75V5H12.35V4ZM7.75 4C7.07698 4 6.66745 3.99758 6.31718 4.06725L6.51227 5.04804C6.7416 5.00242 7.02905 5 7.75 5V4ZM6.31718 4.06725C4.92877 4.34342 3.84342 5.42877 3.56725 6.81718L4.54804 7.01227C4.7453 6.02055 5.52055 5.2453 6.51227 5.04804L6.31718 4.06725ZM3.56725 6.81718C3.49758 7.16745 3.5 7.57698 3.5 8.25H4.5C4.5 7.52905 4.50242 7.2416 4.54804 7.01227L3.56725 6.81718ZM3.5 8.25V8.75H4.5V8.25H3.5ZM3.5 8.75C3.5 9.44036 4.05964 10 4.75 10V9C4.61193 9 4.5 8.88807 4.5 8.75H3.5ZM4.75 10C5.7165 10 6.5 10.7835 6.5 11.75H7.5C7.5 10.2312 6.26878 9 4.75 9V10ZM6.5 11.75V12.25H7.5V11.75H6.5ZM6.5 12.25C6.5 13.2165 5.7165 14 4.75 14V15C6.26878 15 7.5 13.7688 7.5 12.25H6.5ZM4.75 14C4.05964 14 3.5 14.5596 3.5 15.25H4.5C4.5 15.1119 4.61193 15 4.75 15V14ZM3.5 15.25V15.75H4.5V15.25H3.5ZM3.5 15.75C3.5 16.423 3.49758 16.8325 3.56725 17.1828L4.54804 16.9877C4.50242 16.7584 4.5 16.4709 4.5 15.75H3.5ZM3.56725 17.1828C3.84342 18.5712 4.92877 19.6566 6.31718 19.9327L6.51227 18.952C5.52055 18.7547 4.7453 17.9795 4.54804 16.9877L3.56725 17.1828ZM6.31718 19.9327C6.66746 20.0024 7.07698 20 7.75 20V19C7.02905 19 6.7416 18.9976 6.51227 18.952L6.31718 19.9327ZM7.75 20H12.35V19H7.75V20ZM13 19.35V19H12V19.35H13ZM13 19C13 18.7497 13.1844 18.5416 13.4246 18.5056L13.2764 17.5166C12.5539 17.6249 12 18.2473 12 19H13ZM13 16.15V17.85H14V16.15H13ZM12 15C12 15.7527 12.5539 16.3751 13.2764 16.4834L13.4246 15.4944C13.1844 15.4584 13 15.2503 13 15H12ZM12 14V15H13V14H12ZM13.2764 12.5166C12.5539 12.6249 12 13.2473 12 14H13C13 13.7497 13.1844 13.5416 13.4246 13.5056L13.2764 12.5166ZM13 11.15V12.85H14V11.15H13ZM12 10C12 10.7527 12.5539 11.3751 13.2764 11.4834L13.4246 10.4944C13.1844 10.4584 13 10.2503 13 10H12ZM12 9V10H13V9H12ZM13.2764 7.51662C12.5539 7.62491 12 8.24732 12 9H13C13 8.74971 13.1844 8.54158 13.4246 8.50557L13.2764 7.51662ZM13 6.15V7.85H14V6.15H13ZM13.4246 8.50557C13.705 8.46356 14 8.22453 14 7.85H13C13 7.64115 13.1599 7.53408 13.2764 7.51662L13.4246 8.50557ZM13.4246 13.5056C13.705 13.4636 14 13.2245 14 12.85H13C13 12.6412 13.1599 12.5341 13.2764 12.5166L13.4246 13.5056ZM13.4246 18.5056C13.705 18.4636 14 18.2245 14 17.85H13C13 17.6412 13.1599 17.5341 13.2764 17.5166L13.4246 18.5056ZM12.35 20C12.709 20 13 19.709 13 19.35H12C12 19.1567 12.1567 19 12.35 19V20ZM14 11.15C14 10.7755 13.705 10.5364 13.4246 10.4944L13.2764 11.4834C13.1599 11.4659 13 11.3588 13 11.15H14ZM13 4.65C13 4.29101 12.709 4 12.35 4V5C12.1567 5 12 4.8433 12 4.65H13ZM14 16.15C14 15.7755 13.705 15.5364 13.4246 15.4944L13.2764 16.4834C13.1599 16.4659 13 16.3588 13 16.15H14ZM13.2764 6.48338C13.1599 6.46592 13 6.35885 13 6.15H14C14 5.77547 13.705 5.53644 13.4246 5.49443L13.2764 6.48338Z" fill="#1A1A8D"/>
<path d="M18.5853 19.4424L18.6828 19.9327H18.6828L18.5853 19.4424ZM20.9424 17.0853L21.4327 17.1828V17.1828L20.9424 17.0853ZM20.9424 6.91473L21.4327 6.81718V6.81718L20.9424 6.91473ZM18.5853 4.55764L18.6828 4.06725L18.5853 4.55764ZM15.5 18.5C15.7762 18.5 16 18.7239 16 19H17C17 18.1716 16.3284 17.5 15.5 17.5V18.5ZM16 19V19.35H17V19H16ZM16.65 20H17.25V19H16.65V20ZM17.25 20C17.923 20 18.3325 20.0024 18.6828 19.9327L18.4877 18.952C18.2584 18.9976 17.9709 19 17.25 19V20ZM18.6828 19.9327C20.0712 19.6566 21.1566 18.5712 21.4327 17.1828L20.452 16.9877C20.2547 17.9795 19.4795 18.7547 18.4877 18.952L18.6828 19.9327ZM21.4327 17.1828C21.5024 16.8325 21.5 16.423 21.5 15.75H20.5C20.5 16.4709 20.4976 16.7584 20.452 16.9877L21.4327 17.1828ZM21.5 15.75V15.25H20.5V15.75H21.5ZM21.5 15.25C21.5 14.5596 20.9404 14 20.25 14V15C20.3881 15 20.5 15.1119 20.5 15.25H21.5ZM20.25 14C19.2835 14 18.5 13.2165 18.5 12.25H17.5C17.5 13.7688 18.7312 15 20.25 15V14ZM18.5 12.25V11.75H17.5V12.25H18.5ZM18.5 11.75C18.5 10.7835 19.2835 10 20.25 10V9C18.7312 9 17.5 10.2312 17.5 11.75H18.5ZM20.25 10C20.9404 10 21.5 9.44036 21.5 8.75H20.5C20.5 8.88807 20.3881 9 20.25 9V10ZM21.5 8.75V8.25H20.5V8.75H21.5ZM21.5 8.25C21.5 7.57698 21.5024 7.16746 21.4327 6.81718L20.452 7.01227C20.4976 7.2416 20.5 7.52905 20.5 8.25H21.5ZM21.4327 6.81718C21.1566 5.42877 20.0712 4.34342 18.6828 4.06725L18.4877 5.04804C19.4795 5.2453 20.2547 6.02055 20.452 7.01227L21.4327 6.81718ZM18.6828 4.06725C18.3325 3.99758 17.923 4 17.25 4V5C17.9709 5 18.2584 5.00242 18.4877 5.04804L18.6828 4.06725ZM17.25 4H16.65V5H17.25V4ZM16 4.65V5H17V4.65H16ZM16 5C16 5.27614 15.7762 5.5 15.5 5.5V6.5C16.3284 6.5 17 5.82843 17 5H16ZM16 7.99999V6.00001H15V7.99999H16ZM17 9C17 8.17157 16.3284 7.5 15.5 7.5V8.5C15.7762 8.5 16 8.72386 16 9H17ZM17 10V9H16V10H17ZM15.5 11.5C16.3284 11.5 17 10.8284 17 10H16C16 10.2761 15.7762 10.5 15.5 10.5V11.5ZM16 13V11H15V13H16ZM17 14C17 13.1716 16.3284 12.5 15.5 12.5V13.5C15.7762 13.5 16 13.7239 16 14H17ZM17 15V14H16V15H17ZM15.5 16.5C16.3284 16.5 17 15.8284 17 15H16C16 15.2761 15.7762 15.5 15.5 15.5V16.5ZM16 18V16H15V18H16ZM15 13C15 13.2761 15.2239 13.5 15.5 13.5V12.5C15.7761 12.5 16 12.7239 16 13H15ZM15.5 10.5C15.2239 10.5 15 10.7239 15 11H16C16 11.2761 15.7761 11.5 15.5 11.5V10.5ZM15.5 15.5C15.2239 15.5 15 15.7239 15 16H16C16 16.2761 15.7761 16.5 15.5 16.5V15.5ZM15.5 17.5C15.7761 17.5 16 17.7239 16 18H15C15 18.2761 15.2239 18.5 15.5 18.5V17.5ZM15 7.99999C15 8.27614 15.2239 8.5 15.5 8.5V7.5C15.7761 7.5 16 7.72385 16 7.99999H15ZM15.5 5.5C15.2239 5.5 15 5.72386 15 6.00001H16C16 6.27615 15.7761 6.5 15.5 6.5V5.5ZM16.65 4C16.291 4 16 4.29101 16 4.65H17C17 4.8433 16.8433 5 16.65 5V4ZM16 19.35C16 19.709 16.291 20 16.65 20V19C16.8433 19 17 19.1567 17 19.35H16Z" fill="#FFD400" fill-opacity="0.5"/>
</svg>
