<svg width="25" height="24" viewBox="0 0 25 24" fill="none" xmlns="http://www.w3.org/2000/svg">
<path fill-rule="evenodd" clip-rule="evenodd" d="M2.72836 5.85195C2.5 6.40326 2.5 7.10218 2.5 8.5V9.25C2.5 9.66421 2.83579 10 3.25 10H3.5C4.60457 10 5.5 10.8954 5.5 12C5.5 13.1046 4.60457 14 3.5 14H3.25C2.83579 14 2.5 14.3358 2.5 14.75V15.5C2.5 16.8978 2.5 17.5967 2.72836 18.1481C3.03284 18.8831 3.61687 19.4672 4.35195 19.7716C4.90326 20 5.60218 20 7 20H18C19.3978 20 20.0967 20 20.6481 19.7716C21.3831 19.4672 21.9672 18.8831 22.2716 18.1481C22.5 17.5967 22.5 16.8978 22.5 15.5V14.75C22.5 14.3358 22.1642 14 21.75 14H21.5C20.3954 14 19.5 13.1046 19.5 12C19.5 10.8954 20.3954 10 21.5 10H21.75C22.1642 10 22.5 9.66421 22.5 9.25V8.5C22.5 7.10218 22.5 6.40326 22.2716 5.85195C21.9672 5.11687 21.3831 4.53284 20.6481 4.22836C20.0967 4 19.3978 4 18 4H7C5.60218 4 4.90326 4 4.35195 4.22836C3.61687 4.53284 3.03284 5.11687 2.72836 5.85195ZM12.0568 10.6885L12.0568 10.6885C11.9611 10.9359 11.9133 11.0596 11.8239 11.1437C11.7988 11.1673 11.7716 11.1883 11.7426 11.2065C11.6392 11.2711 11.5101 11.2831 11.252 11.3071C10.815 11.3477 10.5965 11.368 10.5298 11.4973C10.516 11.5241 10.5066 11.5531 10.502 11.5831C10.4799 11.7279 10.6405 11.8796 10.9618 12.1829L11.051 12.2671C11.2011 12.4089 11.2762 12.4798 11.3197 12.5683C11.3457 12.6213 11.3632 12.6785 11.3714 12.7375C11.385 12.8358 11.363 12.9386 11.3191 13.1443L11.3033 13.2178C11.2245 13.5867 11.185 13.7712 11.2343 13.8618C11.2785 13.9433 11.3599 13.9954 11.4499 13.9999C11.5501 14.0048 11.6912 13.8855 11.9735 13.6468C12.1594 13.4895 12.2524 13.4109 12.3557 13.3802C12.45 13.3521 12.55 13.3521 12.6443 13.3802C12.7476 13.4109 12.8406 13.4895 13.0265 13.6468C13.3088 13.8855 13.4499 14.0048 13.5501 13.9999C13.6401 13.9954 13.7215 13.9433 13.7657 13.8618C13.815 13.7712 13.7755 13.5867 13.6967 13.2178L13.6809 13.1443C13.637 12.9386 13.615 12.8358 13.6286 12.7375C13.6368 12.6785 13.6543 12.6213 13.6803 12.5683C13.7238 12.4798 13.7989 12.4089 13.949 12.2671L14.0383 12.1829L14.0383 12.1829C14.3595 11.8796 14.5201 11.7279 14.498 11.5831C14.4934 11.5531 14.484 11.5241 14.4702 11.4973C14.4035 11.368 14.185 11.3477 13.748 11.3071C13.4899 11.2831 13.3608 11.2711 13.2574 11.2065C13.2284 11.1883 13.2012 11.1673 13.1761 11.1437C13.0867 11.0596 13.0389 10.9359 12.9432 10.6885C12.7751 10.2536 12.691 10.0361 12.5545 10.0059C12.5186 9.99802 12.4814 9.99802 12.4455 10.0059C12.309 10.0361 12.2249 10.2536 12.0568 10.6885Z" fill="#1A1A8D"/>
</svg>
