<svg width="25" height="24" viewBox="0 0 25 24" fill="none" xmlns="http://www.w3.org/2000/svg">
<path d="M3.5 8.5C3.5 7.10218 3.5 6.40326 3.72836 5.85195C4.03284 5.11687 4.61687 4.53284 5.35195 4.22836C5.90326 4 6.60218 4 8 4H17C18.3978 4 19.0967 4 19.6481 4.22836C20.3831 4.53284 20.9672 5.11687 21.2716 5.85195C21.5 6.40326 21.5 7.10218 21.5 8.5V9.25C21.5 9.66421 21.1642 10 20.75 10H20.5C19.3954 10 18.5 10.8954 18.5 12C18.5 13.1046 19.3954 14 20.5 14H20.75C21.1642 14 21.5 14.3358 21.5 14.75V15.5C21.5 16.8978 21.5 17.5967 21.2716 18.1481C20.9672 18.8831 20.3831 19.4672 19.6481 19.7716C19.0967 20 18.3978 20 17 20H8C6.60218 20 5.90326 20 5.35195 19.7716C4.61687 19.4672 4.03284 18.8831 3.72836 18.1481C3.5 17.5967 3.5 16.8978 3.5 15.5V14.75C3.5 14.3358 3.83579 14 4.25 14H4.5C5.60457 14 6.5 13.1046 6.5 12C6.5 10.8954 5.60457 10 4.5 10H4.25C3.83579 10 3.5 9.66421 3.5 9.25V8.5Z" fill="#FFD400" fill-opacity="0.5"/>
<path d="M12.0964 8.55201C12.2961 8.27883 12.7039 8.27883 12.9036 8.55201L13.8628 9.86385C13.9245 9.94825 14.0111 10.0112 14.1105 10.0438L15.6545 10.5506C15.976 10.6562 16.102 11.044 15.904 11.3184L14.9527 12.636C14.8915 12.7208 14.8584 12.8226 14.8581 12.9271L14.8532 14.5522C14.8522 14.8907 14.5223 15.1303 14.2001 15.0267L12.6531 14.5292C12.5535 14.4972 12.4465 14.4972 12.3469 14.5292L10.7999 15.0267C10.4777 15.1303 10.1478 14.8907 10.1468 14.5522L10.1419 12.9271C10.1416 12.8226 10.1085 12.7208 10.0473 12.636L9.09604 11.3184C8.89796 11.044 9.02396 10.6562 9.34549 10.5506L10.8895 10.0438C10.9889 10.0112 11.0755 9.94825 11.1372 9.86384L12.0964 8.55201Z" fill="#1A1A8D"/>
</svg>
