<svg width="25" height="24" viewBox="0 0 25 24" fill="none" xmlns="http://www.w3.org/2000/svg">
<path d="M5.09202 4.71799L4.86502 4.27248L4.86502 4.27248L5.09202 4.71799ZM4.21799 5.59202L3.77248 5.36502L3.77248 5.36502L4.21799 5.59202ZM4.21799 18.408L4.66349 18.181H4.66349L4.21799 18.408ZM5.09202 19.282L5.31901 18.8365H5.31901L5.09202 19.282ZM19.908 19.282L19.681 18.8365H19.681L19.908 19.282ZM20.782 18.408L20.3365 18.181V18.181L20.782 18.408ZM20.7692 14.4187L20.7546 13.919H20.7546L20.7692 14.4187ZM20.5356 14.4256L20.5502 14.9254L20.5356 14.4256ZM20.782 5.59202L20.3365 5.81901V5.81901L20.782 5.59202ZM19.908 4.71799L19.681 5.16349V5.16349L19.908 4.71799ZM12.75 4H7.2V5H12.75V4ZM7.2 4C6.6482 4 6.20428 3.99961 5.84569 4.02891C5.48126 4.05868 5.16117 4.12159 4.86502 4.27248L5.31901 5.16349C5.45069 5.0964 5.62454 5.05031 5.92712 5.02559C6.23554 5.00039 6.6317 5 7.2 5V4ZM4.86502 4.27248C4.39462 4.51217 4.01217 4.89462 3.77248 5.36502L4.66349 5.81901C4.8073 5.53677 5.03677 5.3073 5.31901 5.16349L4.86502 4.27248ZM3.77248 5.36502C3.62159 5.66117 3.55868 5.98126 3.52891 6.34569C3.49961 6.70428 3.5 7.1482 3.5 7.7H4.5C4.5 7.1317 4.50039 6.73554 4.52559 6.42712C4.55031 6.12454 4.5964 5.95069 4.66349 5.81901L3.77248 5.36502ZM3.5 7.7V9.26923H4.5V7.7H3.5ZM3.5 9.26923C3.5 9.67282 3.82718 10 4.23077 10V9C4.37946 9 4.5 9.12054 4.5 9.26923H3.5ZM4.23077 10H4.5V9H4.23077V10ZM4.5 10C5.60457 10 6.5 10.8954 6.5 12H7.5C7.5 10.3431 6.15685 9 4.5 9V10ZM6.5 12C6.5 13.1046 5.60457 14 4.5 14V15C6.15685 15 7.5 13.6569 7.5 12H6.5ZM4.5 14H4.23077V15H4.5V14ZM4.23077 14C3.82718 14 3.5 14.3272 3.5 14.7308H4.5C4.5 14.8795 4.37946 15 4.23077 15V14ZM3.5 14.7308V16.3H4.5V14.7308H3.5ZM3.5 16.3C3.5 16.8518 3.49961 17.2957 3.52891 17.6543C3.55868 18.0187 3.62159 18.3388 3.77248 18.635L4.66349 18.181C4.5964 18.0493 4.55031 17.8755 4.52559 17.5729C4.50039 17.2645 4.5 16.8683 4.5 16.3H3.5ZM3.77248 18.635C4.01217 19.1054 4.39462 19.4878 4.86502 19.7275L5.31901 18.8365C5.03677 18.6927 4.8073 18.4632 4.66349 18.181L3.77248 18.635ZM4.86502 19.7275C5.16117 19.8784 5.48126 19.9413 5.84569 19.9711C6.20428 20.0004 6.6482 20 7.2 20V19C6.6317 19 6.23554 18.9996 5.92712 18.9744C5.62454 18.9497 5.45069 18.9036 5.31901 18.8365L4.86502 19.7275ZM7.2 20H12.75V19H7.2V20ZM13.5 19.25V19H12.5V19.25H13.5ZM13.5 19C13.5 18.7239 13.7239 18.5 14 18.5V17.5C13.1716 17.5 12.5 18.1716 12.5 19H13.5ZM14 18.5C14.2761 18.5 14.5 18.7239 14.5 19H15.5C15.5 18.1716 14.8284 17.5 14 17.5V18.5ZM14.5 19V19.25H15.5V19H14.5ZM15.25 20H17.8V19H15.25V20ZM17.8 20C18.3518 20 18.7957 20.0004 19.1543 19.9711C19.5187 19.9413 19.8388 19.8784 20.135 19.7275L19.681 18.8365C19.5493 18.9036 19.3755 18.9497 19.0729 18.9744C18.7645 18.9996 18.3683 19 17.8 19V20ZM20.135 19.7275C20.6054 19.4878 20.9878 19.1054 21.2275 18.635L20.3365 18.181C20.1927 18.4632 19.9632 18.6927 19.681 18.8365L20.135 19.7275ZM21.2275 18.635C21.3784 18.3388 21.4413 18.0187 21.4711 17.6543C21.5004 17.2957 21.5 16.8518 21.5 16.3H20.5C20.5 16.8683 20.4996 17.2645 20.4744 17.5729C20.4497 17.8755 20.4036 18.0493 20.3365 18.181L21.2275 18.635ZM21.5 16.3V14.6428H20.5V16.3H21.5ZM21.5 14.6428C21.5 14.2346 21.1627 13.907 20.7546 13.919L20.7839 14.9185C20.6285 14.9231 20.5 14.7983 20.5 14.6428H21.5ZM20.7546 13.919L20.5209 13.9258L20.5502 14.9254L20.7839 14.9185L20.7546 13.919ZM20.5209 13.9258C19.4145 13.9583 18.5 13.0702 18.5 11.9633H17.5C17.5 13.634 18.8803 14.9744 20.5502 14.9254L20.5209 13.9258ZM18.5 11.9633C18.5 10.879 19.379 10 20.4633 10V9C18.8267 9 17.5 10.3267 17.5 11.9633H18.5ZM20.4633 10H20.7692V9H20.4633V10ZM20.7692 10C21.1728 10 21.5 9.67283 21.5 9.26923H20.5C20.5 9.12054 20.6205 9 20.7692 9V10ZM21.5 9.26923V7.7H20.5V9.26923H21.5ZM21.5 7.7C21.5 7.1482 21.5004 6.70428 21.4711 6.34569C21.4413 5.98126 21.3784 5.66117 21.2275 5.36502L20.3365 5.81901C20.4036 5.95069 20.4497 6.12454 20.4744 6.42712C20.4996 6.73554 20.5 7.1317 20.5 7.7H21.5ZM21.2275 5.36502C20.9878 4.89462 20.6054 4.51217 20.135 4.27248L19.681 5.16349C19.9632 5.3073 20.1927 5.53677 20.3365 5.81901L21.2275 5.36502ZM20.135 4.27248C19.8388 4.12159 19.5187 4.05868 19.1543 4.02891C18.7957 3.99961 18.3518 4 17.8 4V5C18.3683 5 18.7645 5.00039 19.0729 5.02559C19.3755 5.05031 19.5493 5.0964 19.681 5.16349L20.135 4.27248ZM17.8 4H15.25V5H17.8V4ZM14.5 4.75V5H15.5V4.75H14.5ZM14.5 5C14.5 5.27614 14.2761 5.5 14 5.5V6.5C14.8284 6.5 15.5 5.82843 15.5 5H14.5ZM14 5.5C13.7239 5.5 13.5 5.27614 13.5 5H12.5C12.5 5.82843 13.1716 6.5 14 6.5V5.5ZM13.5 5V4.75H12.5V5H13.5ZM15.5 9C15.5 8.17157 14.8284 7.5 14 7.5V8.5C14.2761 8.5 14.5 8.72386 14.5 9H15.5ZM14 7.5C13.1716 7.5 12.5 8.17157 12.5 9H13.5C13.5 8.72386 13.7239 8.5 14 8.5V7.5ZM12.5 9V10H13.5V9H12.5ZM12.5 10C12.5 10.8284 13.1716 11.5 14 11.5V10.5C13.7239 10.5 13.5 10.2761 13.5 10H12.5ZM14 11.5C14.8284 11.5 15.5 10.8284 15.5 10H14.5C14.5 10.2761 14.2761 10.5 14 10.5V11.5ZM15.5 10V9H14.5V10H15.5ZM15.5 14C15.5 13.1716 14.8284 12.5 14 12.5V13.5C14.2761 13.5 14.5 13.7239 14.5 14H15.5ZM14 12.5C13.1716 12.5 12.5 13.1716 12.5 14H13.5C13.5 13.7239 13.7239 13.5 14 13.5V12.5ZM12.5 14V15H13.5V14H12.5ZM12.5 15C12.5 15.8284 13.1716 16.5 14 16.5V15.5C13.7239 15.5 13.5 15.2761 13.5 15H12.5ZM14 16.5C14.8284 16.5 15.5 15.8284 15.5 15H14.5C14.5 15.2761 14.2761 15.5 14 15.5V16.5ZM15.5 15V14H14.5V15H15.5ZM15.25 4C14.8358 4 14.5 4.33579 14.5 4.75H15.5C15.5 4.88807 15.3881 5 15.25 5V4ZM12.75 20C13.1642 20 13.5 19.6642 13.5 19.25H12.5C12.5 19.1119 12.6119 19 12.75 19V20ZM14.5 19.25C14.5 19.6642 14.8358 20 15.25 20V19C15.3881 19 15.5 19.1119 15.5 19.25H14.5ZM12.75 5C12.6119 5 12.5 4.88807 12.5 4.75H13.5C13.5 4.33579 13.1642 4 12.75 4V5Z" fill="#1A1A8D"/>
</svg>
