<svg width="25" height="24" viewBox="0 0 25 24" fill="none" xmlns="http://www.w3.org/2000/svg">
<path d="M3.5 8.5C3.5 7.10218 3.5 6.40326 3.72836 5.85195C4.03284 5.11687 4.61687 4.53284 5.35195 4.22836C5.90326 4 6.60218 4 8 4H17C18.3978 4 19.0967 4 19.6481 4.22836C20.3831 4.53284 20.9672 5.11687 21.2716 5.85195C21.5 6.40326 21.5 7.10218 21.5 8.5V9.25C21.5 9.66421 21.1642 10 20.75 10H20.5C19.3954 10 18.5 10.8954 18.5 12V12C18.5 13.1046 19.3954 14 20.5 14H20.75C21.1642 14 21.5 14.3358 21.5 14.75V15.5C21.5 16.8978 21.5 17.5967 21.2716 18.1481C20.9672 18.8831 20.3831 19.4672 19.6481 19.7716C19.0967 20 18.3978 20 17 20H8C6.60218 20 5.90326 20 5.35195 19.7716C4.61687 19.4672 4.03284 18.8831 3.72836 18.1481C3.5 17.5967 3.5 16.8978 3.5 15.5V14.75C3.5 14.3358 3.83579 14 4.25 14H4.5C5.60457 14 6.5 13.1046 6.5 12V12C6.5 10.8954 5.60457 10 4.5 10H4.25C3.83579 10 3.5 9.66421 3.5 9.25V8.5Z" stroke="#1A1A8D" stroke-width="2"/>
<path d="M12.0568 10.6885C12.2249 10.2536 12.309 10.0361 12.4455 10.0059C12.4814 9.99802 12.5186 9.99802 12.5545 10.0059C12.691 10.0361 12.7751 10.2536 12.9432 10.6885C13.0389 10.9359 13.0867 11.0596 13.1761 11.1437C13.2012 11.1673 13.2284 11.1883 13.2574 11.2065C13.3608 11.2711 13.4899 11.2831 13.748 11.3071C14.185 11.3477 14.4035 11.368 14.4702 11.4973C14.484 11.5241 14.4934 11.5531 14.498 11.5831C14.5201 11.7279 14.3595 11.8796 14.0383 12.1829L13.949 12.2671C13.7989 12.4089 13.7238 12.4798 13.6803 12.5683C13.6543 12.6213 13.6368 12.6785 13.6286 12.7375C13.615 12.8358 13.637 12.9386 13.6809 13.1443L13.6967 13.2178C13.7755 13.5867 13.815 13.7712 13.7657 13.8618C13.7215 13.9433 13.6401 13.9954 13.5501 13.9999C13.4499 14.0048 13.3088 13.8855 13.0265 13.6468C12.8406 13.4895 12.7476 13.4109 12.6443 13.3802C12.55 13.3521 12.45 13.3521 12.3557 13.3802C12.2524 13.4109 12.1594 13.4895 11.9735 13.6468C11.6912 13.8855 11.5501 14.0048 11.4499 13.9999C11.3599 13.9954 11.2785 13.9433 11.2343 13.8618C11.185 13.7712 11.2245 13.5867 11.3033 13.2178L11.3191 13.1443C11.363 12.9386 11.385 12.8358 11.3714 12.7375C11.3632 12.6785 11.3457 12.6213 11.3197 12.5683C11.2762 12.4798 11.2011 12.4089 11.051 12.2671L10.9617 12.1829C10.6405 11.8796 10.4799 11.7279 10.502 11.5831C10.5066 11.5531 10.516 11.5241 10.5298 11.4973C10.5965 11.368 10.815 11.3477 11.252 11.3071C11.5101 11.2831 11.6392 11.2711 11.7426 11.2065C11.7716 11.1883 11.7988 11.1673 11.8239 11.1437C11.9133 11.0596 11.9611 10.9359 12.0568 10.6885Z" fill="#1A1A8D" stroke="#1A1A8D"/>
</svg>
