<svg width="25" height="24" viewBox="0 0 25 24" fill="none" xmlns="http://www.w3.org/2000/svg">
<path fill-rule="evenodd" clip-rule="evenodd" d="M14.5 4H8C6.60218 4 5.90326 4 5.35195 4.22836C4.61687 4.53284 4.03284 5.11687 3.72836 5.85195C3.5 6.40326 3.5 7.10218 3.5 8.5V9.25C3.5 9.66421 3.83579 10 4.25 10H4.5C5.60457 10 6.5 10.8954 6.5 12C6.5 13.1046 5.60457 14 4.5 14H4.25C3.83579 14 3.5 14.3358 3.5 14.75V15.5C3.5 16.8978 3.5 17.5967 3.72836 18.1481C4.03284 18.8831 4.61687 19.4672 5.35195 19.7716C5.90326 20 6.60218 20 8 20H14.5V19C14.5 18.4477 14.9477 18 15.5 18V16C14.9477 16 14.5 15.5523 14.5 15V14C14.5 13.4477 14.9477 13 15.5 13V11C14.9477 11 14.5 10.5523 14.5 10V9C14.5 8.44772 14.9477 8 15.5 8V6C14.9477 6 14.5 5.55228 14.5 5V4Z" fill="#1A1A8D"/>
<path fill-rule="evenodd" clip-rule="evenodd" d="M15.5 6V8C16.0523 8 16.5 8.44772 16.5 9V10C16.5 10.5523 16.0523 11 15.5 11V13C16.0523 13 16.5 13.4477 16.5 14V15C16.5 15.5523 16.0523 16 15.5 16V18C16.0523 18 16.5 18.4477 16.5 19V20H17C18.3978 20 19.0967 20 19.6481 19.7716C20.3831 19.4672 20.9672 18.8831 21.2716 18.1481C21.5 17.5967 21.5 16.8978 21.5 15.5V14.75C21.5 14.3358 21.1642 14 20.75 14H20.5C19.3954 14 18.5 13.1046 18.5 12C18.5 10.8954 19.3954 10 20.5 10H20.75C21.1642 10 21.5 9.66421 21.5 9.25V8.5C21.5 7.10218 21.5 6.40326 21.2716 5.85195C20.9672 5.11687 20.3831 4.53284 19.6481 4.22836C19.0967 4 18.3978 4 17 4H16.5V5C16.5 5.55228 16.0523 6 15.5 6Z" fill="#FFD400" fill-opacity="0.5"/>
</svg>
