<svg width="25" height="24" viewBox="0 0 25 24" fill="none" xmlns="http://www.w3.org/2000/svg">
<path d="M4 8.5C4 6.84315 5.34315 5.5 7 5.5H18C19.6569 5.5 21 6.84315 21 8.5V8.75C21 9.16421 20.6642 9.5 20.25 9.5V9.5C19.0074 9.5 18 10.5074 18 11.75V12.25C18 13.4926 19.0074 14.5 20.25 14.5V14.5C20.6642 14.5 21 14.8358 21 15.25V15.5C21 17.1569 19.6569 18.5 18 18.5H7C5.34315 18.5 4 17.1569 4 15.5V15.25C4 14.8358 4.33579 14.5 4.75 14.5V14.5C5.99264 14.5 7 13.4926 7 12.25V11.75C7 10.5074 5.99264 9.5 4.75 9.5V9.5C4.33579 9.5 4 9.16421 4 8.75V8.5Z" stroke="#FFD400" stroke-opacity="0.5"/>
<path d="M13.4592 10.159L13.8628 9.86385L13.4592 10.159C13.5826 10.3278 13.7558 10.4536 13.9545 10.5188L15.4986 11.0257L14.5473 12.3433L14.9527 12.636L14.5473 12.3433C14.4249 12.5129 14.3588 12.7165 14.3581 12.9256L14.3532 14.5507L12.8061 14.0532L12.6531 14.5292L12.8061 14.0532C12.6071 13.9892 12.3929 13.9892 12.1939 14.0532L10.6468 14.5507L10.6419 12.9256C10.6412 12.7165 10.5751 12.5129 10.4527 12.3433L9.50144 11.0257L11.0455 10.5188C11.2442 10.4536 11.4174 10.3278 11.5408 10.159L12.5 8.84712L13.4592 10.159Z" stroke="#1A1A8D"/>
</svg>
