<svg width="25" height="24" viewBox="0 0 25 24" fill="none" xmlns="http://www.w3.org/2000/svg">
<path d="M18 19.0052V4.99481C18 4.35586 17.2879 3.97474 16.7562 4.32917L15.4867 5.17551C15.1969 5.36876 14.8153 5.3522 14.5432 5.13457L12.9998 3.8998C12.7076 3.66606 12.2924 3.66607 12.0002 3.89981L10.4568 5.13457C10.1847 5.3522 9.80314 5.36876 9.51327 5.17551L8.24376 4.32917C7.71212 3.97474 7 4.35586 7 4.99481V19.0052C7 19.6441 7.71212 20.0253 8.24376 19.6708L9.51327 18.8245C9.80314 18.6312 10.1847 18.6478 10.4568 18.8654L12.0002 20.1002C12.2924 20.3339 12.7076 20.3339 12.9998 20.1002L14.5432 18.8654C14.8153 18.6478 15.1969 18.6312 15.4867 18.8245L16.7562 19.6708C17.2879 20.0253 18 19.6441 18 19.0052Z" stroke="#1A1A8D"/>
<path d="M10 9.5H15" stroke="#1A1A8D" stroke-linecap="round"/>
<path d="M10 12.5H15" stroke="#1A1A8D" stroke-linecap="round"/>
<path d="M10 15.5H14" stroke="#1A1A8D" stroke-linecap="round"/>
</svg>
