<svg width="25" height="24" viewBox="0 0 25 24" fill="none" xmlns="http://www.w3.org/2000/svg">
<circle cx="12.5" cy="12" r="9" fill="#FFD400" fill-opacity="0.5"/>
<path d="M12.5 5.3C12.5 5.15741 12.5 5.08611 12.5462 5.04182C12.5925 4.99753 12.6616 5.0005 12.7999 5.00643C13.9246 5.05465 15.0226 5.37351 16 5.93782C17.0641 6.5522 17.9478 7.43587 18.5622 8.5C19.1766 9.56413 19.5 10.7712 19.5 12C19.5 13.2288 19.1766 14.4359 18.5622 15.5C17.9478 16.5641 17.0641 17.4478 16 18.0622C14.9359 18.6766 13.7288 19 12.5 19C11.2712 19 10.0641 18.6766 9 18.0622C8.02259 17.4979 7.19743 16.7064 6.59335 15.7565C6.51906 15.6397 6.48191 15.5813 6.49716 15.5191C6.5124 15.4569 6.57414 15.4213 6.69763 15.35L12.35 12.0866C12.4232 12.0443 12.4598 12.0232 12.4799 11.9884C12.5 11.9536 12.5 11.9113 12.5 11.8268V5.3Z" fill="#1A1A8D"/>
</svg>
