<svg width="25" height="24" viewBox="0 0 25 24" fill="none" xmlns="http://www.w3.org/2000/svg">
<path d="M12.5 3.3C12.5 3.15765 12.5 3.08648 12.5457 3.04226C12.5914 2.99805 12.6609 3.00036 12.8 3.005C14.674 3.06747 16.4846 3.71402 17.9765 4.85803C19.5479 6.06299 20.678 7.75256 21.1918 9.66496C21.7056 11.5773 21.5743 13.6058 20.8183 15.436C20.0623 17.2662 18.7238 18.796 17.0102 19.7883C15.2966 20.7807 13.3035 21.1802 11.3398 20.9249C9.37614 20.6696 7.55146 19.7739 6.14851 18.3764C4.74556 16.9789 3.84265 15.1578 3.5797 13.1951C3.33005 11.3317 3.67049 9.43952 4.54907 7.78303C4.61426 7.66014 4.64685 7.59869 4.70795 7.58105C4.76906 7.56341 4.83079 7.59883 4.95425 7.66968L10.5014 10.853C10.6193 10.9207 10.6782 10.9545 10.6967 11.007C10.7153 11.0595 10.6876 11.1306 10.6322 11.2727C10.5099 11.587 10.4682 11.9287 10.5134 12.2662C10.5719 12.7033 10.773 13.1088 11.0855 13.4201C11.3979 13.7313 11.8043 13.9308 12.2416 13.9876C12.6789 14.0445 13.1228 13.9555 13.5044 13.7345C13.8861 13.5135 14.1842 13.1728 14.3525 12.7652C14.5209 12.3576 14.5501 11.9059 14.4357 11.48C14.3213 11.0541 14.0696 10.6778 13.7197 10.4094C13.4495 10.2023 13.1324 10.0683 12.7989 10.018C12.648 9.99529 12.5726 9.98392 12.5363 9.94173C12.5 9.89955 12.5 9.83158 12.5 9.69564V3.3Z" fill="#FFD400" fill-opacity="0.5"/>
<path d="M9.15 17.8024C9.0787 17.9259 9.04306 17.9876 9.06095 18.0491C9.07884 18.1105 9.14021 18.1426 9.26294 18.2066C10.1242 18.6558 11.0707 18.9213 12.0422 18.985C13.1136 19.0552 14.1868 18.878 15.1788 18.4672C16.1708 18.0563 17.0549 17.4227 17.7629 16.6154C18.4708 15.8082 18.9836 14.8489 19.2615 13.8117C19.5394 12.7746 19.575 11.6874 19.3655 10.6344C19.156 9.58128 18.7071 8.5905 18.0535 7.73867C17.3998 6.88684 16.559 6.19678 15.596 5.72189C14.7228 5.29128 13.7704 5.04804 12.7999 5.00643C12.6616 5.0005 12.5925 4.99753 12.5462 5.04182C12.5 5.08611 12.5 5.15741 12.5 5.3V9.70234C12.5 9.83826 12.5 9.90622 12.5363 9.9484C12.5726 9.99057 12.648 10.002 12.7989 10.0248C13.0015 10.0555 13.1987 10.1172 13.3835 10.2083C13.6584 10.3439 13.8983 10.5408 14.0849 10.7839C14.2714 11.027 14.3995 11.3097 14.4593 11.6103C14.5191 11.9108 14.5089 12.2211 14.4296 12.517C14.3503 12.813 14.204 13.0868 14.0019 13.3172C13.7999 13.5475 13.5476 13.7283 13.2645 13.8456C12.9814 13.9629 12.6751 14.0134 12.3693 13.9934C12.1637 13.9799 11.962 13.9347 11.7712 13.86C11.6292 13.8043 11.5581 13.7765 11.5056 13.7949C11.4531 13.8133 11.4191 13.8721 11.3512 13.9898L9.15 17.8024Z" fill="#1A1A8D"/>
</svg>
