<svg width="25" height="24" viewBox="0 0 25 24" fill="none" xmlns="http://www.w3.org/2000/svg">
<path d="M12.5 6.72C12.5 6.47161 12.5 6.34742 12.5567 6.24546C12.6028 6.1624 12.6921 6.08326 12.7801 6.04738C12.8881 6.00333 12.9981 6.0166 13.2183 6.04315C14.02 6.13981 14.7964 6.39764 15.5 6.80385C16.4121 7.33046 17.1695 8.08788 17.6962 9C18.2228 9.91212 18.5 10.9468 18.5 12C18.5 13.0532 18.2228 14.0879 17.6962 15C17.1695 15.9121 16.4121 16.6695 15.5 17.1962C14.5879 17.7228 13.5532 18 12.5 18C11.4468 18 10.4121 17.7228 9.5 17.1962C8.79643 16.7899 8.18491 16.2464 7.70036 15.6005C7.5673 15.4231 7.50077 15.3344 7.48491 15.2189C7.47199 15.1247 7.4959 15.0078 7.54475 14.9263C7.60472 14.8263 7.71227 14.7642 7.92739 14.64L12.14 12.2078C12.2711 12.1321 12.3367 12.0943 12.3844 12.0413C12.4266 11.9944 12.4585 11.9392 12.478 11.8793C12.5 11.8115 12.5 11.7357 12.5 11.5843V6.72Z" fill="#1A1A8D"/>
<circle cx="12.5" cy="12" r="8.5" stroke="#1A1A8D"/>
</svg>
