<svg width="25" height="24" viewBox="0 0 25 24" fill="none" xmlns="http://www.w3.org/2000/svg">
<path fill-rule="evenodd" clip-rule="evenodd" d="M12.5 21C17.4706 21 21.5 16.9706 21.5 12C21.5 7.02944 17.4706 3 12.5 3C7.52944 3 3.5 7.02944 3.5 12C3.5 16.9706 7.52944 21 12.5 21ZM12.5796 5.06765C12.5 5.14181 12.5 5.2612 12.5 5.5V11.7113C12.5 11.8522 12.5 11.9226 12.4665 11.9807C12.433 12.0387 12.372 12.0739 12.25 12.1443L6.87083 15.25C6.66403 15.3694 6.56063 15.4291 6.53624 15.5351C6.51184 15.6412 6.57559 15.7354 6.70307 15.9237C7.29578 16.7994 8.08052 17.5313 9 18.0622C10.0641 18.6766 11.2712 19 12.5 19C13.7288 19 14.9359 18.6766 16 18.0622C17.0641 17.4478 17.9478 16.5641 18.5622 15.5C19.1766 14.4359 19.5 13.2288 19.5 12C19.5 10.7712 19.1766 9.56413 18.5622 8.5C17.9478 7.43587 17.0641 6.5522 16 5.93782C15.0805 5.40696 14.0543 5.09331 12.9996 5.01785C12.7727 5.00162 12.6593 4.9935 12.5796 5.06765Z" fill="#1A1A8D"/>
</svg>
