<svg width="25" height="24" viewBox="0 0 25 24" fill="none" xmlns="http://www.w3.org/2000/svg">
<path d="M12.5 4V6" stroke="#FFD400" stroke-opacity="0.5" stroke-width="1.2" stroke-linecap="round"/>
<path d="M12.5 11.9996L6.55859 6.06641" stroke="#1A1A8D" stroke-width="1.2" stroke-linecap="round"/>
<path d="M20.5 12L18.5 12" stroke="#FFD400" stroke-opacity="0.5" stroke-width="1.2" stroke-linecap="round"/>
<path d="M12.5 18V20" stroke="#FFD400" stroke-opacity="0.5" stroke-width="1.2" stroke-linecap="round"/>
<path d="M6.5 12L4.5 12" stroke="#FFD400" stroke-opacity="0.5" stroke-width="1.2" stroke-linecap="round"/>
<path d="M12.5 3.6C14.4434 3.6 16.3266 4.27384 17.8289 5.50671C19.3312 6.73958 20.3595 8.4552 20.7386 10.3612C21.1177 12.2673 20.8242 14.2458 19.9081 15.9597C18.992 17.6736 17.51 19.0169 15.7145 19.7606C13.9191 20.5043 11.9213 20.6024 10.0616 20.0383C8.2019 19.4742 6.59534 18.2827 5.51565 16.6668C4.43597 15.0509 3.94996 13.1107 4.14045 11.1767C4.33093 9.24263 5.18612 7.43448 6.56031 6.0603" stroke="#1A1A8D" stroke-width="1.2" stroke-linecap="round"/>
</svg>
