<svg width="25" height="24" viewBox="0 0 25 24" fill="none" xmlns="http://www.w3.org/2000/svg">
<mask id="path-1-outside-1_2_3958" maskUnits="userSpaceOnUse" x="1.5" y="1" width="22" height="22" fill="black">
<rect fill="white" x="1.5" y="1" width="22" height="22"/>
<path d="M12.5 2C14.8136 2 17.0555 2.80219 18.8439 4.2699C20.6323 5.7376 21.8565 7.78 22.3079 10.0491C22.7592 12.3182 22.4098 14.6736 21.3192 16.714C20.2286 18.7543 18.4643 20.3534 16.3268 21.2388C14.1894 22.1242 11.8111 22.241 9.59717 21.5694C7.38323 20.8978 5.47066 19.4793 4.18532 17.5557C2.89998 15.6321 2.3214 13.3222 2.54817 11.0198C2.77494 8.71741 3.79302 6.56486 5.42895 4.92893L8.25738 7.75736C7.27582 8.73891 6.66497 10.0304 6.52891 11.4119C6.39285 12.7933 6.73999 14.1792 7.5112 15.3334C8.2824 16.4876 9.42995 17.3387 10.7583 17.7416C12.0867 18.1446 13.5136 18.0745 14.7961 17.5433C16.0786 17.0121 17.1372 16.0526 17.7915 14.8284C18.4459 13.6042 18.6555 12.1909 18.3847 10.8295C18.1139 9.468 17.3794 8.24256 16.3064 7.36194C15.2333 6.48132 13.8881 6 12.5 6V2Z"/>
</mask>
<path d="M12.5 2C14.8136 2 17.0555 2.80219 18.8439 4.2699C20.6323 5.7376 21.8565 7.78 22.3079 10.0491C22.7592 12.3182 22.4098 14.6736 21.3192 16.714C20.2286 18.7543 18.4643 20.3534 16.3268 21.2388C14.1894 22.1242 11.8111 22.241 9.59717 21.5694C7.38323 20.8978 5.47066 19.4793 4.18532 17.5557C2.89998 15.6321 2.3214 13.3222 2.54817 11.0198C2.77494 8.71741 3.79302 6.56486 5.42895 4.92893L8.25738 7.75736C7.27582 8.73891 6.66497 10.0304 6.52891 11.4119C6.39285 12.7933 6.73999 14.1792 7.5112 15.3334C8.2824 16.4876 9.42995 17.3387 10.7583 17.7416C12.0867 18.1446 13.5136 18.0745 14.7961 17.5433C16.0786 17.0121 17.1372 16.0526 17.7915 14.8284C18.4459 13.6042 18.6555 12.1909 18.3847 10.8295C18.1139 9.468 17.3794 8.24256 16.3064 7.36194C15.2333 6.48132 13.8881 6 12.5 6V2Z" fill="#1A1A8D"/>
<path d="M12.5 2V1H11.5V2H12.5ZM18.8439 4.2699L19.4783 3.49689V3.49689L18.8439 4.2699ZM22.3079 10.0491L23.2887 9.85401V9.85401L22.3079 10.0491ZM16.3268 21.2388L16.7095 22.1627H16.7095L16.3268 21.2388ZM9.59717 21.5694L9.88745 20.6125L9.59717 21.5694ZM4.18532 17.5557L3.35385 18.1113H3.35385L4.18532 17.5557ZM2.54817 11.0198L3.54335 11.1178L2.54817 11.0198ZM5.42895 4.92893L6.13606 4.22182L5.42895 3.51472L4.72184 4.22182L5.42895 4.92893ZM8.25738 7.75736L8.96448 8.46447L9.67159 7.75736L8.96448 7.05025L8.25738 7.75736ZM6.52891 11.4119L7.52409 11.5099V11.5099L6.52891 11.4119ZM7.5112 15.3334L8.34267 14.7779V14.7778L7.5112 15.3334ZM10.7583 17.7416L10.468 18.6986H10.468L10.7583 17.7416ZM14.7961 17.5433L15.1788 18.4672H15.1788L14.7961 17.5433ZM17.7915 14.8284L16.9096 14.357L17.7915 14.8284ZM18.3847 10.8295L19.3655 10.6344L18.3847 10.8295ZM16.3064 7.36194L16.9408 6.58893V6.58893L16.3064 7.36194ZM12.5 6H11.5V7H12.5V6ZM12.5 3C14.5822 3 16.6 3.72197 18.2096 5.04291L19.4783 3.49689C17.5111 1.88241 15.0449 1 12.5 1V3ZM18.2096 5.04291C19.8191 6.36384 20.9209 8.202 21.3271 10.2442L23.2887 9.85401C22.7922 7.358 21.4456 5.11136 19.4783 3.49689L18.2096 5.04291ZM21.3271 10.2442C21.7333 12.2864 21.4188 14.4062 20.4373 16.2426L22.2011 17.1854C23.4008 14.941 23.7851 12.35 23.2887 9.85401L21.3271 10.2442ZM20.4373 16.2426C19.4558 18.0789 17.8679 19.5181 15.9442 20.3149L16.7095 22.1627C19.0607 21.1888 21.0015 19.4298 22.2011 17.1854L20.4373 16.2426ZM15.9442 20.3149C14.0205 21.1117 11.88 21.2169 9.88745 20.6125L9.30688 22.5263C11.7422 23.2651 14.3583 23.1366 16.7095 22.1627L15.9442 20.3149ZM9.88745 20.6125C7.89491 20.008 6.17359 18.7314 5.01679 17.0001L3.35385 18.1113C4.76772 20.2273 6.87156 21.7876 9.30688 22.5263L9.88745 20.6125ZM5.01679 17.0001C3.85998 15.2688 3.33926 13.19 3.54335 11.1178L1.55298 10.9218C1.30354 13.4545 1.93997 15.9953 3.35385 18.1113L5.01679 17.0001ZM3.54335 11.1178C3.74745 9.04567 4.66372 7.10837 6.13606 5.63604L4.72184 4.22182C2.92232 6.02134 1.80243 8.38915 1.55298 10.9218L3.54335 11.1178ZM4.72184 5.63604L7.55027 8.46446L8.96448 7.05025L6.13606 4.22182L4.72184 5.63604ZM7.55027 7.05025C6.40512 8.1954 5.69246 9.70219 5.53372 11.3139L7.52409 11.5099C7.63748 10.3587 8.14652 9.28243 8.96448 8.46447L7.55027 7.05025ZM5.53372 11.3139C5.37498 12.9256 5.77999 14.5424 6.67973 15.889L8.34267 14.7778C7.7 13.816 7.41071 12.6611 7.52409 11.5099L5.53372 11.3139ZM6.67973 15.889C7.57947 17.2355 8.91827 18.2285 10.468 18.6986L11.0486 16.7847C9.94163 16.4489 8.98534 15.7397 8.34267 14.7779L6.67973 15.889ZM10.468 18.6986C12.0178 19.1687 13.6826 19.0869 15.1788 18.4672L14.4134 16.6194C13.3447 17.0621 12.1556 17.1205 11.0486 16.7847L10.468 18.6986ZM15.1788 18.4672C16.675 17.8474 17.91 16.728 18.6735 15.2998L16.9096 14.357C16.3643 15.3772 15.4822 16.1767 14.4134 16.6194L15.1788 18.4672ZM18.6735 15.2998C19.4369 13.8715 19.6815 12.2227 19.3655 10.6344L17.4039 11.0245C17.6296 12.1591 17.4549 13.3368 16.9096 14.357L18.6735 15.2998ZM19.3655 10.6344C19.0496 9.046 18.1926 7.61632 16.9408 6.58893L15.672 8.13495C16.5662 8.8688 17.1783 9.89 17.4039 11.0245L19.3655 10.6344ZM16.9408 6.58893C15.6889 5.56154 14.1195 5 12.5 5V7C13.6568 7 14.7778 7.4011 15.672 8.13495L16.9408 6.58893ZM13.5 6V2H11.5V6H13.5Z" fill="#1A1A8D" mask="url(#path-1-outside-1_2_3958)"/>
<path d="M12.5 12L5.5 5" stroke="#1A1A8D" stroke-width="2" stroke-linecap="round"/>
</svg>
