<svg width="25" height="24" viewBox="0 0 25 24" fill="none" xmlns="http://www.w3.org/2000/svg">
<path d="M10 14.5L10 11.5" stroke="#1A1A8D" stroke-linecap="round"/>
<path d="M15 14.5L15 11.5" stroke="#1A1A8D" stroke-linecap="round"/>
<path d="M3.5 6.5H21.5V6.5C20.0955 6.5 19.3933 6.5 18.8889 6.83706C18.6705 6.98298 18.483 7.17048 18.3371 7.38886C18 7.89331 18 8.59554 18 10V15.5C18 17.3856 18 18.3284 17.4142 18.9142C16.8284 19.5 15.8856 19.5 14 19.5H11C9.11438 19.5 8.17157 19.5 7.58579 18.9142C7 18.3284 7 17.3856 7 15.5V10C7 8.59554 7 7.89331 6.66294 7.38886C6.51702 7.17048 6.32952 6.98298 6.11114 6.83706C5.60669 6.5 4.90446 6.5 3.5 6.5V6.5Z" stroke="#1A1A8D" stroke-linecap="round"/>
<path d="M10 3.50024C10 3.50024 10.5 2.5 12.5 2.5C14.5 2.5 15 3.5 15 3.5" stroke="#1A1A8D" stroke-linecap="round"/>
</svg>
