<svg width="25" height="24" viewBox="0 0 25 24" fill="none" xmlns="http://www.w3.org/2000/svg">
<path d="M4.5 7.5C4.5 7.2643 4.5 7.14645 4.57322 7.07322C4.64645 7 4.7643 7 5 7H20C20.2357 7 20.3536 7 20.4268 7.07322C20.5 7.14645 20.5 7.2643 20.5 7.5V7.75155C20.5 7.84249 20.5 7.88797 20.486 7.92806C20.474 7.96233 20.4547 7.99358 20.4294 8.01963C20.3998 8.0501 20.3591 8.07044 20.2778 8.11111C19.627 8.43649 19.3017 8.59917 19.065 8.84298C18.8626 9.0514 18.7082 9.30138 18.6122 9.57554C18.5 9.89627 18.5 10.2601 18.5 10.9876V16C18.5 17.8856 18.5 18.8284 17.9142 19.4142C17.3284 20 16.3856 20 14.5 20H10.5C8.61438 20 7.67157 20 7.08579 19.4142C6.5 18.8284 6.5 17.8856 6.5 16V10.9876C6.5 10.2601 6.5 9.89627 6.38778 9.57554C6.29185 9.30138 6.13735 9.0514 5.93503 8.84298C5.69835 8.59917 5.37297 8.43649 4.72222 8.11111C4.64088 8.07044 4.60021 8.0501 4.57062 8.01963C4.54533 7.99358 4.52602 7.96233 4.51403 7.92806C4.5 7.88797 4.5 7.84249 4.5 7.75155V7.5Z" fill="#FFD400" fill-opacity="0.5"/>
<path d="M10.5681 4.37059C10.6821 4.26427 10.9332 4.17033 11.2825 4.10332C11.6318 4.03632 12.0597 4 12.5 4C12.9403 4 13.3682 4.03632 13.7175 4.10332C14.0668 4.17033 14.3179 4.26427 14.4319 4.37059" stroke="#1A1A8D" stroke-linecap="round"/>
<rect x="14.5" y="11" width="1" height="6" rx="0.5" fill="#1A1A8D"/>
<rect x="9.5" y="11" width="1" height="6" rx="0.5" fill="#1A1A8D"/>
</svg>
