<svg width="25" height="24" viewBox="0 0 25 24" fill="none" xmlns="http://www.w3.org/2000/svg">
<path fill-rule="evenodd" clip-rule="evenodd" d="M21.5 14C21.5 18.9706 17.4706 23 12.5 23C7.52944 23 3.5 18.9706 3.5 14C3.5 9.02944 7.52944 5 12.5 5C17.4706 5 21.5 9.02944 21.5 14ZM12.5 19C15.2614 19 17.5 16.7614 17.5 14C17.5 11.2386 15.2614 9 12.5 9C9.73858 9 7.5 11.2386 7.5 14C7.5 16.7614 9.73858 19 12.5 19ZM12.5 21C16.366 21 19.5 17.866 19.5 14C19.5 10.134 16.366 7 12.5 7C8.63401 7 5.5 10.134 5.5 14C5.5 17.866 8.63401 21 12.5 21ZM13.5 11C13.5 10.4477 13.0523 10 12.5 10C11.9477 10 11.5 10.4477 11.5 11V14C11.5 14.5523 11.9477 15 12.5 15C13.0523 15 13.5 14.5523 13.5 14V11Z" fill="#1A1A8D"/>
<path d="M18 7.5L19.5 6" stroke="#1A1A8D" stroke-width="2" stroke-linecap="round"/>
<path d="M10.5681 2.37059C10.6821 2.26427 10.9332 2.17033 11.2825 2.10332C11.6318 2.03632 12.0597 2 12.5 2C12.9403 2 13.3682 2.03632 13.7175 2.10332C14.0668 2.17033 14.3179 2.26427 14.4319 2.37059" stroke="#1A1A8D" stroke-width="2" stroke-linecap="round"/>
</svg>
