<svg width="25" height="24" viewBox="0 0 25 24" fill="none" xmlns="http://www.w3.org/2000/svg">
<circle cx="12.5" cy="13" r="8" fill="#FFD400" fill-opacity="0.5"/>
<path d="M12.5 13L12.5 8" stroke="#1A1A8D" stroke-width="1.2" stroke-linecap="round"/>
<path d="M20.8536 5.35355C21.0488 5.15829 21.0488 4.84171 20.8536 4.64645C20.6583 4.45118 20.3417 4.45118 20.1465 4.64645L20.8536 5.35355ZM19.3536 6.85355L20.8536 5.35355L20.1465 4.64645L18.6464 6.14645L19.3536 6.85355Z" fill="#1A1A8D"/>
<path d="M10.5681 3.37059C10.6821 3.26427 10.9332 3.17033 11.2825 3.10332C11.6318 3.03632 12.0597 3 12.5 3C12.9403 3 13.3682 3.03632 13.7175 3.10332C14.0668 3.17033 14.3179 3.26427 14.4319 3.37059" stroke="#1A1A8D" stroke-width="1.2" stroke-linecap="round"/>
</svg>
