<svg width="27" height="24" viewBox="0 0 27 24" fill="none" xmlns="http://www.w3.org/2000/svg">
<path d="M15.2012 11.0181L19.7398 8.39775C20.1203 8.17808 20.6068 8.30844 20.8265 8.68892L20.9232 8.85641C21.5487 9.93988 21.572 11.2692 20.9847 12.3739C20.2693 13.7197 18.6348 14.283 17.2421 13.6637L15.2949 12.7979C14.5481 12.4658 14.4934 11.4268 15.2012 11.0181Z" stroke="#1A1A8D" stroke-width="2"/>
<path d="M15.2012 12.9819L19.7398 15.6023C20.1203 15.8219 20.2506 16.3084 20.031 16.6889L19.9343 16.8564C19.3087 17.9399 18.1692 18.6247 16.9188 18.6685C15.3956 18.7218 14.0905 17.588 13.9305 16.0722L13.7067 13.9529C13.6209 13.1401 14.4934 12.5732 15.2012 12.9819Z" stroke="#1A1A8D" stroke-width="2"/>
<path d="M13.5 13.9638V19.2045C13.5 19.6438 13.1438 20 12.7045 20H12.5111C11.26 20 10.0972 19.3555 9.43412 18.2946C8.62631 17.0021 8.95569 15.305 10.1883 14.4085L11.9118 13.155C12.5728 12.6743 13.5 13.1465 13.5 13.9638Z" stroke="#1A1A8D" stroke-width="2"/>
<path d="M11.7988 12.9819L7.26021 15.6023C6.87973 15.8219 6.39321 15.6916 6.17354 15.3111L6.07684 15.1436C5.4513 14.0601 5.42804 12.7308 6.01528 11.6261C6.73071 10.2803 8.36517 9.71699 9.75787 10.3363L11.7051 11.2021C12.4519 11.5342 12.5066 12.5732 11.7988 12.9819Z" stroke="#1A1A8D" stroke-width="2"/>
<path d="M11.7988 11.0181L7.26021 8.39775C6.87973 8.17808 6.74937 7.69156 6.96904 7.31108L7.06574 7.14359C7.69128 6.06012 8.83085 5.37533 10.0812 5.33155C11.6044 5.27821 12.9095 6.41204 13.0695 7.92779L13.2933 10.0471C13.3791 10.8599 12.5066 11.4268 11.7988 11.0181Z" stroke="#1A1A8D" stroke-width="2"/>
<path d="M13.5 10.0362V4.79549C13.5 4.35616 13.8562 4 14.2955 4H14.4889C15.74 4 16.9028 4.6445 17.5659 5.70541C18.3737 6.99791 18.0443 8.69505 16.8117 9.59153L15.0882 10.845C14.4272 11.3257 13.5 10.8535 13.5 10.0362Z" stroke="#1A1A8D" stroke-width="2"/>
</svg>
