<svg width="25" height="24" viewBox="0 0 25 24" fill="none" xmlns="http://www.w3.org/2000/svg">
<path d="M14.2002 11.0181L18.7388 8.39775C19.1193 8.17808 19.6058 8.30844 19.8255 8.68892L19.9222 8.85641C20.5477 9.93988 20.571 11.2692 19.9837 12.3739C19.2683 13.7197 17.6339 14.283 16.2412 13.6637L14.2939 12.7979C13.5471 12.4658 13.4924 11.4268 14.2002 11.0181Z" stroke="#1A1A8D"/>
<path d="M12.5 13.9638V19.2045C12.5 19.6438 12.1438 20 11.7045 20H11.5111C10.26 20 9.09719 19.3555 8.43412 18.2946C7.62631 17.0021 7.95569 15.305 9.18835 14.4085L10.9118 13.155C11.5728 12.6743 12.5 13.1465 12.5 13.9638Z" stroke="#1A1A8D"/>
<path d="M14.2012 12.9819L18.7398 15.6023C19.1203 15.8219 19.2506 16.3084 19.031 16.6889L18.9343 16.8564C18.3087 17.9399 17.1692 18.6247 15.9188 18.6685C14.3956 18.7218 13.0905 17.588 12.9305 16.0722L12.7067 13.9529C12.6209 13.1401 13.4934 12.5732 14.2012 12.9819Z" stroke="#1A1A8D"/>
<path d="M10.7998 12.9819L6.26118 15.6023C5.88071 15.8219 5.39419 15.6916 5.17452 15.3111L5.07782 15.1436C4.45228 14.0601 4.42901 12.7308 5.01626 11.6261C5.73169 10.2803 7.36614 9.71699 8.75884 10.3363L10.7061 11.2021C11.4529 11.5342 11.5076 12.5732 10.7998 12.9819Z" stroke="#1A1A8D"/>
<path d="M10.7988 11.0181L6.26021 8.39775C5.87973 8.17808 5.74937 7.69156 5.96904 7.31108L6.06574 7.14359C6.69128 6.06012 7.83085 5.37533 9.08116 5.33155C10.6044 5.27821 11.9095 6.41204 12.0695 7.92779L12.2933 10.0471C12.3791 10.8599 11.5066 11.4268 10.7988 11.0181Z" stroke="#1A1A8D"/>
<path d="M12.5 10.0362V4.79549C12.5 4.35616 12.8562 4 13.2955 4H13.4889C14.74 4 15.9028 4.6445 16.5659 5.70541C17.3737 6.99791 17.0443 8.69505 15.8117 9.59153L14.0882 10.845C13.4272 11.3257 12.5 10.8535 12.5 10.0362Z" stroke="#1A1A8D"/>
</svg>
