<svg width="25" height="24" viewBox="0 0 25 24" fill="none" xmlns="http://www.w3.org/2000/svg">
<path fill-rule="evenodd" clip-rule="evenodd" d="M4.37868 7.87868C3.5 8.75736 3.5 10.1716 3.5 13V14C3.5 17.7712 3.5 19.6569 4.67157 20.8284C5.84315 22 7.72876 22 11.5 22H13.5C17.2712 22 19.1569 22 20.3284 20.8284C21.5 19.6569 21.5 17.7712 21.5 14V13C21.5 10.1716 21.5 8.75736 20.6213 7.87868C19.7426 7 18.3284 7 15.5 7H9.5C6.67157 7 5.25736 7 4.37868 7.87868ZM12.5 15C13.0523 15 13.5 14.5523 13.5 14C13.5 13.4477 13.0523 13 12.5 13C11.9477 13 11.5 13.4477 11.5 14C11.5 14.5523 11.9477 15 12.5 15ZM15.5 14C15.5 15.3062 14.6652 16.4175 13.5 16.8293V19H11.5V16.8293C10.3348 16.4175 9.5 15.3062 9.5 14C9.5 12.3431 10.8431 11 12.5 11C14.1569 11 15.5 12.3431 15.5 14Z" fill="#1A1A8D"/>
<path d="M17 7.99981V7.99981C17.3043 6.17359 16.5108 4.33842 14.9717 3.30935L14.5979 3.05946C12.5734 1.70579 9.8937 1.87263 8.05269 3.46699L7.16992 4.23149" stroke="#1A1A8D" stroke-width="2" stroke-linecap="round"/>
</svg>
