<svg width="25" height="24" viewBox="0 0 25 24" fill="none" xmlns="http://www.w3.org/2000/svg">
<path d="M10.5 4L11.2071 3.29289L10.5 2.58579L9.79289 3.29289L10.5 4ZM18.5 21C19.0523 21 19.5 20.5523 19.5 20C19.5 19.4477 19.0523 19 18.5 19L18.5 21ZM16.2071 8.29289L11.2071 3.29289L9.79289 4.70711L14.7929 9.70711L16.2071 8.29289ZM9.79289 3.29289L4.79289 8.29289L6.20711 9.70711L11.2071 4.70711L9.79289 3.29289ZM9.5 4L9.5 14L11.5 14L11.5 4L9.5 4ZM16.5 21L18.5 21L18.5 19L16.5 19L16.5 21ZM9.5 14C9.5 17.866 12.634 21 16.5 21L16.5 19C13.7386 19 11.5 16.7614 11.5 14L9.5 14Z" fill="#1A1A8D"/>
</svg>
