<svg width="25" height="24" viewBox="0 0 25 24" fill="none" xmlns="http://www.w3.org/2000/svg">
<path d="M10.5 4L10.8536 3.64645L10.5 3.29289L10.1464 3.64645L10.5 4ZM18.5 20.5C18.7761 20.5 19 20.2761 19 20C19 19.7239 18.7761 19.5 18.5 19.5L18.5 20.5ZM15.8536 8.64645L10.8536 3.64645L10.1464 4.35355L15.1464 9.35355L15.8536 8.64645ZM10.1464 3.64645L5.14645 8.64645L5.85355 9.35355L10.8536 4.35355L10.1464 3.64645ZM10 4L10 14L11 14L11 4L10 4ZM16.5 20.5L18.5 20.5L18.5 19.5L16.5 19.5L16.5 20.5ZM10 14C10 17.5899 12.9101 20.5 16.5 20.5L16.5 19.5C13.4624 19.5 11 17.0376 11 14L10 14Z" fill="#1A1A8D"/>
</svg>
