<svg width="25" height="24" viewBox="0 0 25 24" fill="none" xmlns="http://www.w3.org/2000/svg">
<path fill-rule="evenodd" clip-rule="evenodd" d="M7.67157 13H6.5C4.84315 13 3.5 11.6569 3.5 10C3.5 8.34315 4.84315 7 6.5 7C6.77954 7 6.91931 7 7.01699 6.98034C7.31502 6.92036 7.45652 6.82876 7.63328 6.58143C7.69121 6.50036 7.77282 6.31851 7.93606 5.95481C8.71776 4.21308 10.4672 3 12.5 3C14.5328 3 16.2822 4.21307 17.0639 5.95481C17.2272 6.31851 17.3088 6.50036 17.3667 6.58143C17.5435 6.82876 17.685 6.92036 17.983 6.98034C18.0807 7 18.2205 7 18.5 7C20.1569 7 21.5 8.34315 21.5 10C21.5 11.6569 20.1569 13 18.5 13H17.3284L13.9142 9.58579L12.5 8.17157L11.0858 9.58579L7.67157 13Z" fill="#1A1A8D"/>
<path d="M12.5 12L11.7929 11.2929L12.5 10.5858L13.2071 11.2929L12.5 12ZM13.5 21C13.5 21.5523 13.0523 22 12.5 22C11.9477 22 11.5 21.5523 11.5 21L13.5 21ZM7.79289 15.2929L11.7929 11.2929L13.2071 12.7071L9.20711 16.7071L7.79289 15.2929ZM13.2071 11.2929L17.2071 15.2929L15.7929 16.7071L11.7929 12.7071L13.2071 11.2929ZM13.5 12L13.5 21L11.5 21L11.5 12L13.5 12Z" fill="#1A1A8D"/>
</svg>
