<svg width="25" height="24" viewBox="0 0 25 24" fill="none" xmlns="http://www.w3.org/2000/svg">
<path d="M12.5 5L12.8536 4.64645L12.5 4.29289L12.1464 4.64645L12.5 5ZM12 17C12 17.2761 12.2239 17.5 12.5 17.5C12.7761 17.5 13 17.2761 13 17L12 17ZM18.8536 10.6464L12.8536 4.64645L12.1464 5.35355L18.1464 11.3536L18.8536 10.6464ZM12.1464 4.64645L6.14645 10.6464L6.85355 11.3536L12.8536 5.35355L12.1464 4.64645ZM12 5L12 17L13 17L13 5L12 5Z" fill="#1A1A8D"/>
<path d="M5.5 21H19.5" stroke="#1A1A8D"/>
</svg>
