<svg width="25" height="24" viewBox="0 0 25 24" fill="none" xmlns="http://www.w3.org/2000/svg">
<path fill-rule="evenodd" clip-rule="evenodd" d="M12.5 2.5C10.2632 2.5 8.33928 3.83526 7.47989 5.75007C7.39728 5.93416 7.33874 6.06452 7.29362 6.15941C7.27129 6.20638 7.25451 6.23984 7.24168 6.26371C7.23213 6.28147 7.22703 6.28965 7.22588 6.29149C7.22575 6.29171 7.22567 6.29184 7.22564 6.29188C7.15664 6.38826 7.12018 6.41763 7.09892 6.4314C7.07756 6.44522 7.03559 6.46657 6.91833 6.49017C6.88281 6.49732 6.80904 6.5 6.5 6.5C4.567 6.5 3 8.067 3 10C3 11.933 4.567 13.5 6.5 13.5H7.17157L8.17157 12.5H6.5C5.11929 12.5 4 11.3807 4 10C4 8.61929 5.11929 7.5 6.5 7.5L6.55357 7.50003C6.77958 7.50021 6.96738 7.50035 7.11565 7.47051C7.29642 7.43413 7.47421 7.37969 7.6423 7.27088C7.8104 7.16208 7.93286 7.02216 8.04007 6.87214C8.09798 6.79112 8.14966 6.68782 8.19674 6.58881C8.24715 6.48277 8.31019 6.34231 8.38955 6.1655L8.38958 6.16542L8.39222 6.15954C9.09624 4.59089 10.6713 3.5 12.5 3.5C14.3287 3.5 15.9038 4.59089 16.6078 6.15954L16.6105 6.16566C16.6898 6.3424 16.7529 6.4828 16.8033 6.58881C16.8503 6.68782 16.902 6.79112 16.9599 6.87214C17.0671 7.02216 17.1896 7.16208 17.3577 7.27088C17.5258 7.37969 17.7036 7.43413 17.8844 7.47051C18.0326 7.50035 18.2204 7.50021 18.4464 7.50003L18.5 7.5C19.8807 7.5 21 8.61929 21 10C21 11.3807 19.8807 12.5 18.5 12.5H16.8284L17.8284 13.5H18.5C20.433 13.5 22 11.933 22 10C22 8.067 20.433 6.5 18.5 6.5C18.191 6.5 18.1172 6.49732 18.0817 6.49017C17.9644 6.46657 17.9224 6.44522 17.9011 6.4314C17.8798 6.41763 17.8434 6.38826 17.7744 6.29188L17.7741 6.2915C17.773 6.28968 17.7679 6.2815 17.7583 6.26371C17.7455 6.23984 17.7287 6.20638 17.7064 6.15941C17.6613 6.06452 17.6027 5.93416 17.5201 5.75007C16.6607 3.83526 14.7368 2.5 12.5 2.5Z" fill="#1A1A8D"/>
<path d="M12.5 12L12.1464 11.6464L12.5 11.2929L12.8536 11.6464L12.5 12ZM13 21C13 21.2761 12.7761 21.5 12.5 21.5C12.2239 21.5 12 21.2761 12 21L13 21ZM8.14645 15.6464L12.1464 11.6464L12.8536 12.3536L8.85355 16.3536L8.14645 15.6464ZM12.8536 11.6464L16.8536 15.6464L16.1464 16.3536L12.1464 12.3536L12.8536 11.6464ZM13 12L13 21L12 21L12 12L13 12Z" fill="#1A1A8D"/>
</svg>
