<svg width="25" height="24" viewBox="0 0 25 24" fill="none" xmlns="http://www.w3.org/2000/svg">
<path d="M12.5 5L13.2071 4.29289L12.5 3.58579L11.7929 4.29289L12.5 5ZM11.5 17C11.5 17.5523 11.9477 18 12.5 18C13.0523 18 13.5 17.5523 13.5 17L11.5 17ZM19.2071 10.2929L13.2071 4.29289L11.7929 5.70711L17.7929 11.7071L19.2071 10.2929ZM11.7929 4.29289L5.79289 10.2929L7.20711 11.7071L13.2071 5.70711L11.7929 4.29289ZM11.5 5L11.5 17L13.5 17L13.5 5L11.5 5Z" fill="#1A1A8D"/>
<path d="M5.5 21L19.5 21" stroke="#1A1A8D" stroke-width="2"/>
</svg>
