<svg width="25" height="24" viewBox="0 0 25 24" fill="none" xmlns="http://www.w3.org/2000/svg">
<mask id="path-1-outside-1_2_3746" maskUnits="userSpaceOnUse" x="2.5" y="2" width="20" height="12" fill="black">
<rect fill="white" x="2.5" y="2" width="20" height="12"/>
<path fill-rule="evenodd" clip-rule="evenodd" d="M6.5 13H12.5H18.5C20.1569 13 21.5 11.6569 21.5 10C21.5 8.34315 20.1569 7 18.5 7C18.2205 7 18.0807 7 17.983 6.98034C17.685 6.92036 17.5435 6.82876 17.3667 6.58143C17.3088 6.50036 17.2272 6.31851 17.0639 5.95481C16.2822 4.21307 14.5328 3 12.5 3C10.4672 3 8.71776 4.21308 7.93606 5.95481C7.77282 6.31851 7.69121 6.50036 7.63328 6.58143C7.45652 6.82876 7.31502 6.92036 7.01699 6.98034C6.91931 7 6.77954 7 6.5 7C4.84315 7 3.5 8.34315 3.5 10C3.5 11.6569 4.84315 13 6.5 13Z"/>
</mask>
<path fill-rule="evenodd" clip-rule="evenodd" d="M6.5 13H12.5H18.5C20.1569 13 21.5 11.6569 21.5 10C21.5 8.34315 20.1569 7 18.5 7C18.2205 7 18.0807 7 17.983 6.98034C17.685 6.92036 17.5435 6.82876 17.3667 6.58143C17.3088 6.50036 17.2272 6.31851 17.0639 5.95481C16.2822 4.21307 14.5328 3 12.5 3C10.4672 3 8.71776 4.21308 7.93606 5.95481C7.77282 6.31851 7.69121 6.50036 7.63328 6.58143C7.45652 6.82876 7.31502 6.92036 7.01699 6.98034C6.91931 7 6.77954 7 6.5 7C4.84315 7 3.5 8.34315 3.5 10C3.5 11.6569 4.84315 13 6.5 13Z" fill="#FFD400" fill-opacity="0.5"/>
<path d="M7.63328 6.58143L7.14512 6.23257L7.63328 6.58143ZM7.01699 6.98034L7.13538 7.56854L7.01699 6.98034ZM17.983 6.98034L17.8646 7.56854L17.983 6.98034ZM17.3667 6.58143L16.8786 6.93028L17.3667 6.58143ZM12.5 12.4H6.5V13.6H12.5V12.4ZM18.5 12.4H12.5V13.6H18.5V12.4ZM20.9 10C20.9 11.3255 19.8255 12.4 18.5 12.4V13.6C20.4882 13.6 22.1 11.9882 22.1 10H20.9ZM18.5 7.6C19.8255 7.6 20.9 8.67452 20.9 10H22.1C22.1 8.01178 20.4882 6.4 18.5 6.4V7.6ZM17.6113 5.70913C16.7364 3.75969 14.7776 2.4 12.5 2.4V3.6C14.2879 3.6 15.8281 4.66646 16.5165 6.20048L17.6113 5.70913ZM12.5 2.4C10.2224 2.4 8.26359 3.75969 7.38866 5.70913L8.48345 6.20048C9.17194 4.66646 10.7121 3.6 12.5 3.6V2.4ZM6.5 6.4C4.51177 6.4 2.9 8.01178 2.9 10H4.1C4.1 8.67452 5.17452 7.6 6.5 7.6V6.4ZM2.9 10C2.9 11.9882 4.51177 13.6 6.5 13.6V12.4C5.17452 12.4 4.1 11.3255 4.1 10H2.9ZM7.38866 5.70913C7.30584 5.89366 7.24784 6.02281 7.20331 6.11647C7.15409 6.21999 7.13936 6.24063 7.14512 6.23257L8.12143 6.93028C8.18512 6.84116 8.24017 6.73035 8.28705 6.63175C8.33862 6.52329 8.40304 6.37966 8.48345 6.20048L7.38866 5.70913ZM6.5 7.6C6.74415 7.6 6.96312 7.60322 7.13538 7.56854L6.8986 6.39214C6.90013 6.39183 6.88107 6.39565 6.80874 6.39781C6.73775 6.39994 6.6435 6.4 6.5 6.4V7.6ZM7.14512 6.23257C7.07934 6.32461 7.05126 6.34313 7.04458 6.34745C7.0379 6.35178 7.00951 6.36981 6.8986 6.39214L7.13538 7.56854C7.3225 7.53088 7.51388 7.47313 7.69664 7.35483C7.87941 7.23653 8.01046 7.08558 8.12143 6.93028L7.14512 6.23257ZM18.5 6.4C18.3565 6.4 18.2623 6.39994 18.1913 6.39781C18.1189 6.39565 18.0999 6.39183 18.1014 6.39214L17.8646 7.56854C18.0369 7.60322 18.2559 7.6 18.5 7.6V6.4ZM16.5165 6.20048C16.597 6.37966 16.6614 6.52329 16.713 6.63175C16.7598 6.73035 16.8149 6.84116 16.8786 6.93028L17.8549 6.23257C17.8606 6.24063 17.8459 6.21999 17.7967 6.11647C17.7522 6.02281 17.6942 5.89366 17.6113 5.70913L16.5165 6.20048ZM18.1014 6.39214C17.9905 6.36981 17.9621 6.35178 17.9554 6.34745C17.9487 6.34313 17.9207 6.32461 17.8549 6.23257L16.8786 6.93028C16.9895 7.08558 17.1206 7.23653 17.3034 7.35483C17.4861 7.47313 17.6775 7.53088 17.8646 7.56854L18.1014 6.39214Z" fill="#FFD400" fill-opacity="0.5" mask="url(#path-1-outside-1_2_3746)"/>
<path fill-rule="evenodd" clip-rule="evenodd" d="M12.5004 2.3999C10.2227 2.3999 8.26398 3.7596 7.38905 5.70903C7.30623 5.89356 7.24823 6.02271 7.2037 6.11637C7.16837 6.19069 7.1508 6.22229 7.14584 6.23122L7.14584 6.23123L7.14583 6.23123C7.14389 6.23474 7.14388 6.23474 7.14551 6.23247C7.07973 6.32452 7.05165 6.34303 7.04497 6.34735C7.03829 6.35168 7.0099 6.36972 6.89899 6.39204C6.89907 6.39202 6.89909 6.39202 6.89907 6.39202L6.89897 6.39204C6.89733 6.3923 6.87599 6.39571 6.80913 6.39771C6.73814 6.39984 6.64389 6.3999 6.50039 6.3999C4.51217 6.3999 2.90039 8.01168 2.90039 9.9999C2.90039 11.9881 4.51217 13.5999 6.50039 13.5999H7.07196L8.27196 12.3999H6.50039C5.17491 12.3999 4.10039 11.3254 4.10039 9.9999C4.10039 8.67442 5.17491 7.5999 6.50039 7.5999L6.55772 7.59994H6.55773C6.77882 7.60017 6.97711 7.60038 7.13577 7.56845C7.32289 7.53079 7.51427 7.47303 7.69703 7.35473C7.8798 7.23643 8.01085 7.08548 8.12182 6.93019C8.18551 6.84107 8.24056 6.73025 8.28744 6.63165C8.33833 6.52462 8.40173 6.38335 8.48067 6.20747L8.48068 6.20744L8.48385 6.20039C9.17233 4.66636 10.7125 3.5999 12.5004 3.5999C14.2883 3.5999 15.8285 4.66636 16.5169 6.20038L16.52 6.20721C16.599 6.38321 16.6624 6.52457 16.7133 6.63165C16.7602 6.73025 16.8153 6.84107 16.879 6.93019C16.9899 7.08548 17.121 7.23643 17.3037 7.35473C17.4865 7.47303 17.6779 7.53079 17.865 7.56845C18.0237 7.60038 18.222 7.60017 18.4431 7.59994H18.4431L18.5004 7.5999C19.8259 7.5999 20.9004 8.67442 20.9004 9.9999C20.9004 11.3254 19.8259 12.3999 18.5004 12.3999H16.7288L17.9288 13.5999H18.5004C20.4886 13.5999 22.1004 11.9881 22.1004 9.9999C22.1004 8.01168 20.4886 6.3999 18.5004 6.3999C18.3569 6.3999 18.2626 6.39984 18.1916 6.39771C18.1248 6.39571 18.1035 6.3923 18.1018 6.39204C18.1017 6.39202 18.1017 6.39202 18.1018 6.39204C17.9909 6.36972 17.9625 6.35168 17.9558 6.34735C17.9491 6.34303 17.9211 6.32452 17.8553 6.23247C17.8562 6.23371 17.8566 6.23427 17.8564 6.23396C17.8563 6.23369 17.8558 6.23282 17.8549 6.23123C17.85 6.2223 17.8324 6.1907 17.7971 6.11637C17.7526 6.02271 17.6945 5.89356 17.6117 5.70903C16.7368 3.7596 14.778 2.3999 12.5004 2.3999Z" fill="#1A1A8D"/>
<path d="M12.5 12L12.0757 11.5757L12.5 11.1515L12.9243 11.5757L12.5 12ZM13.1 21C13.1 21.3314 12.8314 21.6 12.5 21.6C12.1686 21.6 11.9 21.3314 11.9 21L13.1 21ZM8.07574 15.5757L12.0757 11.5757L12.9243 12.4243L8.92426 16.4243L8.07574 15.5757ZM12.9243 11.5757L16.9243 15.5757L16.0757 16.4243L12.0757 12.4243L12.9243 11.5757ZM13.1 12L13.1 21L11.9 21L11.9 12L13.1 12Z" fill="#1A1A8D"/>
</svg>
