<svg width="25" height="24" viewBox="0 0 25 24" fill="none" xmlns="http://www.w3.org/2000/svg">
<path fill-rule="evenodd" clip-rule="evenodd" d="M6.5 13H12.5H18.5C20.1569 13 21.5 11.6569 21.5 10C21.5 8.34315 20.1569 7 18.5 7C18.2205 7 18.0807 7 17.983 6.98034C17.685 6.92036 17.5435 6.82876 17.3667 6.58143C17.3088 6.50036 17.2272 6.31851 17.0639 5.95481C16.2822 4.21307 14.5328 3 12.5 3C10.4672 3 8.71776 4.21308 7.93606 5.95481C7.77282 6.31851 7.69121 6.50036 7.63328 6.58143C7.45652 6.82876 7.31502 6.92036 7.01699 6.98034C6.91931 7 6.77954 7 6.5 7C4.84315 7 3.5 8.34315 3.5 10C3.5 11.6569 4.84315 13 6.5 13Z" fill="#FFD400" fill-opacity="0.5"/>
<path d="M10 11.5L12.5 9M12.5 9L15 11.5M12.5 9L12.5 19" stroke="#1A1A8D" stroke-linecap="round"/>
</svg>
