<svg width="25" height="24" viewBox="0 0 25 24" fill="none" xmlns="http://www.w3.org/2000/svg">
<path fill-rule="evenodd" clip-rule="evenodd" d="M12.5 2C10.0591 2 7.9608 3.45744 7.02373 5.54534C6.94011 5.73166 6.88425 5.85598 6.84206 5.94471C6.83167 5.96657 6.82326 5.98381 6.81654 5.99729L6.79677 5.99799C6.73318 5.99989 6.64598 6 6.5 6C4.29086 6 2.5 7.79086 2.5 10C2.5 12.2091 4.29086 14 6.5 14H6.67157L8.67157 12H6.5C5.39543 12 4.5 11.1046 4.5 10C4.5 8.89543 5.39543 8 6.5 8L6.56419 8.0001H6.5642C6.77177 8.00057 7.01342 8.00111 7.21431 7.96068C7.42683 7.91791 7.67254 7.84692 7.914 7.69062C8.15546 7.53433 8.32083 7.33923 8.44687 7.16285C8.53371 7.04134 8.60219 6.90047 8.64829 6.8035C8.70111 6.69243 8.76605 6.54772 8.84352 6.37511L8.84839 6.36427C9.47472 4.96871 10.8753 4 12.5 4C14.1247 4 15.5253 4.96871 16.1516 6.36427L16.1565 6.37511C16.2339 6.54772 16.2989 6.69243 16.3517 6.8035C16.3978 6.90047 16.4663 7.04134 16.5531 7.16285C16.6792 7.33923 16.8445 7.53433 17.086 7.69062C17.3275 7.84692 17.5732 7.91791 17.7857 7.96068C17.9866 8.00111 18.2282 8.00057 18.4358 8.0001H18.4358L18.5 8C19.6046 8 20.5 8.89543 20.5 10C20.5 11.1046 19.6046 12 18.5 12H16.3284L18.3284 14H18.5C20.7091 14 22.5 12.2091 22.5 10C22.5 7.79086 20.7091 6 18.5 6C18.354 6 18.2668 5.99989 18.2032 5.99799L18.1835 5.99729C18.1767 5.98381 18.1683 5.96657 18.1579 5.94471C18.1158 5.85598 18.0599 5.73166 17.9763 5.54534C17.0392 3.45744 14.9409 2 12.5 2ZM6.79756 6.03369C6.79755 6.03369 6.79761 6.03357 6.79774 6.03336L6.79777 6.03333L6.79756 6.03369ZM18.2024 6.03369C18.2024 6.03369 18.2024 6.03358 18.2022 6.03333L18.2023 6.03336L18.2024 6.03369Z" fill="#1A1A8D"/>
<path d="M12.5 12L11.7929 11.2929L12.5 10.5858L13.2071 11.2929L12.5 12ZM13.5 21C13.5 21.5523 13.0523 22 12.5 22C11.9477 22 11.5 21.5523 11.5 21L13.5 21ZM7.79289 15.2929L11.7929 11.2929L13.2071 12.7071L9.20711 16.7071L7.79289 15.2929ZM13.2071 11.2929L17.2071 15.2929L15.7929 16.7071L11.7929 12.7071L13.2071 11.2929ZM13.5 12L13.5 21L11.5 21L11.5 12L13.5 12Z" fill="#1A1A8D"/>
</svg>
