<svg width="25" height="24" viewBox="0 0 25 24" fill="none" xmlns="http://www.w3.org/2000/svg">
<path d="M3.5 11C3.5 7.22876 3.5 5.34315 4.67157 4.17157C5.84315 3 7.72876 3 11.5 3H13.5C17.2712 3 19.1569 3 20.3284 4.17157C21.5 5.34315 21.5 7.22876 21.5 11V13C21.5 16.7712 21.5 18.6569 20.3284 19.8284C19.1569 21 17.2712 21 13.5 21H11.5C7.72876 21 5.84315 21 4.67157 19.8284C3.5 18.6569 3.5 16.7712 3.5 13V11Z" fill="#FFD400" fill-opacity="0.5"/>
<circle cx="12.5" cy="10" r="4" fill="#1A1A8D"/>
<path fill-rule="evenodd" clip-rule="evenodd" d="M19.4468 20.2532C19.4621 20.3587 19.4053 20.4613 19.3068 20.5021C18.1053 21 16.3358 21 13.5005 21H11.5005C8.66525 21 6.89579 21 5.69426 20.5022C5.59579 20.4614 5.53894 20.3587 5.55422 20.2532C5.98314 17.2919 8.92957 15 12.5005 15C16.0715 15 19.0179 17.2919 19.4468 20.2532Z" fill="#1A1A8D"/>
</svg>
