<svg width="25" height="24" viewBox="0 0 25 24" fill="none" xmlns="http://www.w3.org/2000/svg">
<circle cx="12.5" cy="8" r="4" fill="#FFD400" fill-opacity="0.5" stroke="#1A1A8D" stroke-width="1.2" stroke-linecap="round"/>
<path fill-rule="evenodd" clip-rule="evenodd" d="M16.0914 15.9999C15.6402 15.8414 15.171 15.7129 14.6892 15.6161C13.2547 15.3278 11.7461 15.3278 10.3117 15.6161C8.87769 15.9043 7.55591 16.473 6.48357 17.2773C5.41085 18.0818 4.61669 19.1012 4.20799 20.2451C4.09651 20.5572 4.2591 20.9005 4.57115 21.012C4.88321 21.1235 5.22655 20.9609 5.33804 20.6489C5.65625 19.7582 6.29031 18.9222 7.20357 18.2373C8.11719 17.552 9.26916 17.0496 10.5481 16.7926C11.3681 16.6278 12.2167 16.5687 13.0572 16.6153C13.4212 16.236 13.9332 15.9999 14.5004 15.9999L16.0914 15.9999Z" fill="#1A1A8D"/>
<path d="M18.5 14L18.5 22" stroke="#1A1A8D" stroke-width="1.2" stroke-linecap="round"/>
<path d="M22.5 18L14.5 18" stroke="#1A1A8D" stroke-width="1.2" stroke-linecap="round"/>
</svg>
