<svg width="25" height="24" viewBox="0 0 25 24" fill="none" xmlns="http://www.w3.org/2000/svg">
<path fill-rule="evenodd" clip-rule="evenodd" d="M3.67157 3.17157C2.5 4.34315 2.5 6.22876 2.5 10V14C2.5 17.7712 2.5 19.6569 3.67157 20.8284C4.32496 21.4818 5.20043 21.7708 6.50121 21.8986C6.566 19.184 9.22694 17 12.5 17C15.7731 17 18.434 19.184 18.4988 21.8986C19.7996 21.7708 20.675 21.4818 21.3284 20.8284C22.5 19.6569 22.5 17.7712 22.5 14V10C22.5 6.22876 22.5 4.34315 21.3284 3.17157C20.1569 2 18.2712 2 14.5 2H10.5C6.72876 2 4.84315 2 3.67157 3.17157ZM12.5 13C14.1569 13 15.5 11.6569 15.5 10C15.5 8.34315 14.1569 7 12.5 7C10.8431 7 9.5 8.34315 9.5 10C9.5 11.6569 10.8431 13 12.5 13Z" fill="#FFD400" fill-opacity="0.5"/>
<path d="M18.4407 21.2989C18.2395 20.1146 17.5355 19.0298 16.4565 18.2411C15.3775 17.4524 13.995 17.0122 12.5599 17.0002C11.1247 16.9883 9.73198 17.4055 8.63433 18.176C7.53668 18.9466 6.80685 20.0196 6.57726 21.2002" stroke="#1A1A8D" stroke-width="1.2"/>
<circle cx="12.5" cy="10" r="3" stroke="#1A1A8D" stroke-width="1.2" stroke-linecap="round"/>
<rect x="3.1" y="2.6" width="18.8" height="18.8" rx="3.4" stroke="#1A1A8D" stroke-width="1.2"/>
</svg>
