<svg width="25" height="24" viewBox="0 0 25 24" fill="none" xmlns="http://www.w3.org/2000/svg">
<path fill-rule="evenodd" clip-rule="evenodd" d="M2.5 10C2.5 6.22876 2.5 4.34315 3.67157 3.17157C4.84315 2 6.72876 2 10.5 2H14.5C18.2712 2 20.1569 2 21.3284 3.17157C22.5 4.34315 22.5 6.22876 22.5 10V14C22.5 17.7712 22.5 19.6569 21.3284 20.8284C20.1569 22 18.2712 22 14.5 22H10.5C6.72876 22 4.84315 22 3.67157 20.8284C2.5 19.6569 2.5 17.7712 2.5 14V10ZM8.23867 16.4465C9.46118 15.5085 10.9591 15 12.5 15C14.0409 15 15.5388 15.5085 16.7613 16.4465C17.9838 17.3846 18.8627 18.6998 19.2615 20.1883C19.4044 20.7217 19.0878 21.2701 18.5544 21.413C18.0209 21.556 17.4726 21.2394 17.3296 20.7059C17.0448 19.6427 16.417 18.7033 15.5438 18.0332C14.6706 17.3632 13.6007 17 12.5 17C11.3993 17 10.3294 17.3632 9.45619 18.0332C8.58297 18.7033 7.95525 19.6427 7.67037 20.7059C7.52743 21.2394 6.97909 21.556 6.44563 21.413C5.91216 21.2701 5.59558 20.7217 5.73852 20.1883C6.13734 18.6998 7.01616 17.3846 8.23867 16.4465ZM10.5 9C10.5 7.89543 11.3954 7 12.5 7C13.6046 7 14.5 7.89543 14.5 9C14.5 10.1046 13.6046 11 12.5 11C11.3954 11 10.5 10.1046 10.5 9ZM12.5 5C10.2909 5 8.5 6.79086 8.5 9C8.5 11.2091 10.2909 13 12.5 13C14.7091 13 16.5 11.2091 16.5 9C16.5 6.79086 14.7091 5 12.5 5Z" fill="#1A1A8D"/>
<rect x="3" y="2.5" width="19" height="19" rx="3.5" stroke="#1A1A8D"/>
</svg>
