<svg width="25" height="24" viewBox="0 0 25 24" fill="none" xmlns="http://www.w3.org/2000/svg">
<circle cx="12.5" cy="9" r="3" fill="#1A1A8D"/>
<path fill-rule="evenodd" clip-rule="evenodd" d="M17.9515 15.9084C18.0089 16.0121 17.9794 16.1415 17.8844 16.2125C16.3829 17.3352 14.5192 18 12.5002 18C10.4811 18 8.61738 17.3351 7.11588 16.2124C7.0209 16.1414 6.99137 16.0121 7.0488 15.9083C7.99896 14.1915 10.0826 13 12.5001 13C14.9177 13 17.0014 14.1915 17.9515 15.9084Z" fill="#FFD400" fill-opacity="0.5"/>
<path d="M18 3.5H18.2C19.9913 3.5 20.887 3.5 21.4435 4.0565C22 4.61299 22 5.50866 22 7.3V7.5" stroke="#1A1A8D" stroke-linecap="round"/>
<path d="M18 20.5H18.2C19.9913 20.5 20.887 20.5 21.4435 19.9435C22 19.387 22 18.4913 22 16.7V16.5" stroke="#1A1A8D" stroke-linecap="round"/>
<path d="M7 3.5H6.8C5.00866 3.5 4.11299 3.5 3.5565 4.0565C3 4.61299 3 5.50866 3 7.3V7.5" stroke="#1A1A8D" stroke-linecap="round"/>
<path d="M7 20.5H6.8C5.00866 20.5 4.11299 20.5 3.5565 19.9435C3 19.387 3 18.4913 3 16.7V16.5" stroke="#1A1A8D" stroke-linecap="round"/>
</svg>
