<svg width="25" height="24" viewBox="0 0 25 24" fill="none" xmlns="http://www.w3.org/2000/svg">
<circle cx="12.5" cy="8" r="4" stroke="#1A1A8D" stroke-linecap="round"/>
<path fill-rule="evenodd" clip-rule="evenodd" d="M15.7759 16C14.3972 15.5613 12.8896 15.4073 11.4067 15.5538C9.76616 15.7157 8.21472 16.2397 6.95048 17.0712C5.68613 17.9028 4.75374 19.0137 4.30174 20.2789C4.20884 20.5389 4.34433 20.825 4.60438 20.9179C4.86442 21.0108 5.15054 20.8754 5.24345 20.6153C5.61048 19.588 6.38515 18.64 7.5 17.9067C8.61495 17.1734 10.008 16.6967 11.5049 16.5489C12.0548 16.4946 12.6076 16.4858 13.1536 16.521C13.509 16.1974 13.9814 16 14.5 16L15.7759 16Z" fill="#1A1A8D"/>
<path d="M18.5 14L18.5 22" stroke="#1A1A8D" stroke-linecap="round"/>
<path d="M22.5 18L14.5 18" stroke="#1A1A8D" stroke-linecap="round"/>
</svg>
