<svg width="25" height="24" viewBox="0 0 25 24" fill="none" xmlns="http://www.w3.org/2000/svg">
<path d="M3.5 12C3.5 7.02944 7.52944 3 12.5 3C17.4706 3 21.5 7.02944 21.5 12C21.5 16.9706 17.4706 21 12.5 21C7.52944 21 3.5 16.9706 3.5 12Z" fill="#FFD400" fill-opacity="0.5"/>
<circle cx="12.5" cy="10" r="4" fill="#1A1A8D"/>
<path fill-rule="evenodd" clip-rule="evenodd" d="M18.721 18.2462C18.7791 18.3426 18.7614 18.466 18.6796 18.5432C17.0675 20.0662 14.8928 21 12.5001 21C10.1073 21 7.9327 20.0663 6.32063 18.5433C6.23883 18.466 6.22107 18.3427 6.27924 18.2463C7.44343 16.318 9.79221 15 12.5001 15C15.208 15 17.5568 16.3179 18.721 18.2462Z" fill="#1A1A8D"/>
</svg>
