<svg width="25" height="24" viewBox="0 0 25 24" fill="none" xmlns="http://www.w3.org/2000/svg">
<path d="M8.5 20L8.14645 20.3536L8.5 20.7071L8.85355 20.3536L8.5 20ZM14.5 4.5C14.7761 4.5 15 4.27614 15 4C15 3.72386 14.7761 3.5 14.5 3.5L14.5 4.5ZM4.14645 16.3536L8.14645 20.3536L8.85355 19.6464L4.85355 15.6464L4.14645 16.3536ZM8.85355 20.3536L12.8536 16.3536L12.1464 15.6464L8.14645 19.6464L8.85355 20.3536ZM9 20L9 8L8 8L8 20L9 20ZM12.5 4.5L14.5 4.5L14.5 3.5L12.5 3.5L12.5 4.5ZM9 8C9 6.067 10.567 4.5 12.5 4.5L12.5 3.5C10.0147 3.5 8 5.51472 8 8L9 8Z" fill="#1A1A8D"/>
<path d="M16.5 8L16.1464 7.64645L16.5 7.29289L16.8536 7.64645L16.5 8ZM16.5 16L17 16L16.5 16ZM13.5 19.5C13.2239 19.5 13 19.2761 13 19C13 18.7239 13.2239 18.5 13.5 18.5L13.5 19.5ZM12.1464 11.6464L16.1464 7.64645L16.8536 8.35355L12.8536 12.3536L12.1464 11.6464ZM16.8536 7.64645L20.8536 11.6464L20.1464 12.3536L16.1464 8.35355L16.8536 7.64645ZM17 8L17 16L16 16L16 8L17 8ZM17 16C17 17.933 15.433 19.5 13.5 19.5L13.5 18.5C14.8807 18.5 16 17.3807 16 16L17 16Z" fill="#1A1A8D"/>
</svg>
