<svg width="25" height="24" viewBox="0 0 25 24" fill="none" xmlns="http://www.w3.org/2000/svg">
<path d="M8.5 20L7.79289 20.7071L8.5 21.4142L9.20711 20.7071L8.5 20ZM14.5 5C15.0523 5 15.5 4.55228 15.5 4C15.5 3.44772 15.0523 3 14.5 3L14.5 5ZM3.79289 16.7071L7.79289 20.7071L9.20711 19.2929L5.20711 15.2929L3.79289 16.7071ZM9.20711 20.7071L13.2071 16.7071L11.7929 15.2929L7.79289 19.2929L9.20711 20.7071ZM9.5 20L9.5 8L7.5 8L7.5 20L9.5 20ZM12.5 5L14.5 5L14.5 3L12.5 3L12.5 5ZM9.5 8C9.5 6.34315 10.8431 5 12.5 5L12.5 3C9.73858 3 7.5 5.23858 7.5 8L9.5 8Z" fill="#1A1A8D"/>
<path d="M16.5 10L15.7929 9.29289L16.5 8.58579L17.2071 9.29289L16.5 10ZM16.5 18L17.5 18L16.5 18ZM14.5 21C13.9477 21 13.5 20.5523 13.5 20C13.5 19.4477 13.9477 19 14.5 19L14.5 21ZM11.7929 13.2929L15.7929 9.29289L17.2071 10.7071L13.2071 14.7071L11.7929 13.2929ZM17.2071 9.29289L21.2071 13.2929L19.7929 14.7071L15.7929 10.7071L17.2071 9.29289ZM17.5 10L17.5 18L15.5 18L15.5 10L17.5 10ZM17.5 18C17.5 19.6569 16.1569 21 14.5 21L14.5 19C15.0523 19 15.5 18.5523 15.5 18L17.5 18Z" fill="#1A1A8D"/>
</svg>
