<svg width="25" height="24" viewBox="0 0 25 24" fill="none" xmlns="http://www.w3.org/2000/svg">
<path d="M8.5 20L7.79289 20.7071L8.5 21.4142L9.20711 20.7071L8.5 20ZM8.5 12L7.5 12L8.5 12ZM10.5 11C11.0523 11 11.5 10.5523 11.5 10C11.5 9.44771 11.0523 9 10.5 9L10.5 11ZM3.79289 16.7071L7.79289 20.7071L9.20711 19.2929L5.20711 15.2929L3.79289 16.7071ZM9.20711 20.7071L13.2071 16.7071L11.7929 15.2929L7.79289 19.2929L9.20711 20.7071ZM9.5 20L9.5 12L7.5 12L7.5 20L9.5 20ZM9.5 12C9.5 11.4477 9.94771 11 10.5 11L10.5 9C8.84315 9 7.5 10.3431 7.5 12L9.5 12Z" fill="#1A1A8D"/>
<path d="M16.5 4L15.7929 3.29289L16.5 2.58579L17.2071 3.29289L16.5 4ZM16.5 12L17.5 12L16.5 12ZM14.5 15C13.9477 15 13.5 14.5523 13.5 14C13.5 13.4477 13.9477 13 14.5 13L14.5 15ZM11.7929 7.29289L15.7929 3.29289L17.2071 4.70711L13.2071 8.70711L11.7929 7.29289ZM17.2071 3.29289L21.2071 7.29289L19.7929 8.70711L15.7929 4.70711L17.2071 3.29289ZM17.5 4L17.5 12L15.5 12L15.5 4L17.5 4ZM17.5 12C17.5 13.6569 16.1569 15 14.5 15L14.5 13C15.0523 13 15.5 12.5523 15.5 12L17.5 12Z" fill="#1A1A8D"/>
</svg>
