<svg width="25" height="24" viewBox="0 0 25 24" fill="none" xmlns="http://www.w3.org/2000/svg">
<path d="M8.5 20L8.14645 20.3536L8.5 20.7071L8.85355 20.3536L8.5 20ZM8.5 12L8 12L8.5 12ZM10.5 10.5C10.7761 10.5 11 10.2761 11 10C11 9.72386 10.7761 9.5 10.5 9.5L10.5 10.5ZM4.14645 16.3536L8.14645 20.3536L8.85355 19.6464L4.85355 15.6464L4.14645 16.3536ZM8.85355 20.3536L12.8536 16.3536L12.1464 15.6464L8.14645 19.6464L8.85355 20.3536ZM9 20L9 12L8 12L8 20L9 20ZM9 12C9 11.1716 9.67157 10.5 10.5 10.5L10.5 9.5C9.11929 9.5 8 10.6193 8 12L9 12Z" fill="#1A1A8D"/>
<path d="M16.5 4L16.1464 3.64645L16.5 3.29289L16.8536 3.64645L16.5 4ZM16.5 12L17 12L16.5 12ZM14.5 14.5C14.2239 14.5 14 14.2761 14 14C14 13.7239 14.2239 13.5 14.5 13.5L14.5 14.5ZM12.1464 7.64645L16.1464 3.64645L16.8536 4.35355L12.8536 8.35355L12.1464 7.64645ZM16.8536 3.64645L20.8536 7.64645L20.1464 8.35355L16.1464 4.35355L16.8536 3.64645ZM17 4L17 12L16 12L16 4L17 4ZM17 12C17 13.3807 15.8807 14.5 14.5 14.5L14.5 13.5C15.3284 13.5 16 12.8284 16 12L17 12Z" fill="#1A1A8D"/>
</svg>
