<svg width="25" height="24" viewBox="0 0 25 24" fill="none" xmlns="http://www.w3.org/2000/svg">
<path d="M8.5 20L8.14645 20.3536L8.5 20.7071L8.85355 20.3536L8.5 20ZM10.5 6.5C10.7761 6.5 11 6.27614 11 6C11 5.72386 10.7761 5.5 10.5 5.5L10.5 6.5ZM5.14645 17.3536L8.14645 20.3536L8.85355 19.6464L5.85355 16.6464L5.14645 17.3536ZM8.85355 20.3536L11.8536 17.3536L11.1464 16.6464L8.14645 19.6464L8.85355 20.3536ZM9 20L9 8L8 8L8 20L9 20ZM9 8C9 7.17157 9.67157 6.5 10.5 6.5L10.5 5.5C9.11929 5.5 8 6.61929 8 8L9 8Z" fill="#1A1A8D"/>
<path d="M16.5 4L16.1464 3.64645L16.5 3.29289L16.8536 3.64645L16.5 4ZM16.5 17L17 17L16.5 17ZM14.5 19.5C14.2239 19.5 14 19.2761 14 19C14 18.7239 14.2239 18.5 14.5 18.5L14.5 19.5ZM13.1464 6.64645L16.1464 3.64645L16.8536 4.35355L13.8536 7.35355L13.1464 6.64645ZM16.8536 3.64645L19.8536 6.64645L19.1464 7.35355L16.1464 4.35355L16.8536 3.64645ZM17 4L17 17L16 17L16 4L17 4ZM17 17C17 18.3807 15.8807 19.5 14.5 19.5L14.5 18.5C15.3284 18.5 16 17.8284 16 17L17 17Z" fill="#1A1A8D"/>
</svg>
