<svg width="25" height="24" viewBox="0 0 25 24" fill="none" xmlns="http://www.w3.org/2000/svg">
<path d="M8.5 20L7.79289 20.7071L8.5 21.4142L9.20711 20.7071L8.5 20ZM10.5 5C11.0523 5 11.5 4.55228 11.5 4C11.5 3.44772 11.0523 3 10.5 3L10.5 5ZM3.79289 16.7071L7.79289 20.7071L9.20711 19.2929L5.20711 15.2929L3.79289 16.7071ZM9.20711 20.7071L13.2071 16.7071L11.7929 15.2929L7.79289 19.2929L9.20711 20.7071ZM9.5 20L9.5 6L7.5 6L7.5 20L9.5 20ZM9.5 6C9.5 5.44772 9.94771 5 10.5 5L10.5 3C8.84315 3 7.5 4.34315 7.5 6L9.5 6Z" fill="#1A1A8D"/>
<path d="M16.5 4L15.7929 3.29289L16.5 2.58579L17.2071 3.29289L16.5 4ZM16.5 19L17.5 19L17.5 19L16.5 19ZM14.5 22C13.9477 22 13.5 21.5523 13.5 21C13.5 20.4477 13.9477 20 14.5 20L14.5 22ZM11.7929 7.29289L15.7929 3.29289L17.2071 4.70711L13.2071 8.70711L11.7929 7.29289ZM17.2071 3.29289L21.2071 7.29289L19.7929 8.70711L15.7929 4.70711L17.2071 3.29289ZM17.5 4L17.5 19L15.5 19L15.5 4L17.5 4ZM17.5 19C17.5 20.6569 16.1569 22 14.5 22L14.5 20C15.0523 20 15.5 19.5523 15.5 19L17.5 19Z" fill="#1A1A8D"/>
</svg>
