<svg width="25" height="24" viewBox="0 0 25 24" fill="none" xmlns="http://www.w3.org/2000/svg">
<path fill-rule="evenodd" clip-rule="evenodd" d="M13.5 3H7.5C6.39543 3 5.5 3.89543 5.5 5V19C5.5 20.1046 6.39543 21 7.5 21H17.5C18.6046 21 19.5 20.1046 19.5 19V9H16C14.6193 9 13.5 7.88071 13.5 6.5V3ZM19.3178 8C19.2184 7.78333 19.0801 7.5841 18.9074 7.41308L15.0366 3.57905C14.8784 3.42235 14.6968 3.2947 14.5 3.19953V6.5C14.5 7.32843 15.1716 8 16 8H19.3178Z" fill="#FFD400" fill-opacity="0.5"/>
<path d="M10.5 16.1169V11.8831C10.5 11.4944 10.924 11.2544 11.2572 11.4543L14.7854 13.5713C15.1091 13.7655 15.1091 14.2345 14.7854 14.4287L11.2572 16.5457C10.924 16.7456 10.5 16.5056 10.5 16.1169Z" fill="#1A1A8D"/>
</svg>
