<svg width="25" height="24" viewBox="0 0 25 24" fill="none" xmlns="http://www.w3.org/2000/svg">
<path fill-rule="evenodd" clip-rule="evenodd" d="M12.5 21C17.4706 21 21.5 16.9706 21.5 12C21.5 7.02944 17.4706 3 12.5 3C7.52944 3 3.5 7.02944 3.5 12C3.5 16.9706 7.52944 21 12.5 21ZM10.2367 7.86847L16.7111 11.1057C17.4482 11.4742 17.4482 12.526 16.7111 12.8946L10.2367 16.1318C9.43878 16.5308 8.5 15.9506 8.5 15.0585V8.94178C8.5 8.04972 9.43878 7.46953 10.2367 7.86847Z" fill="#FFD400" fill-opacity="0.5"/>
<path d="M16.7111 11.1056L10.2367 7.86833C9.43878 7.46939 8.5 8.04958 8.5 8.94164V15.0584C8.5 15.9504 9.43878 16.5306 10.2367 16.1317L16.7111 12.8944C17.4482 12.5259 17.4482 11.4741 16.7111 11.1056Z" stroke="#1A1A8D" stroke-width="1.2" stroke-linecap="round" stroke-linejoin="round"/>
<circle cx="12.5" cy="12" r="9" stroke="#1A1A8D" stroke-width="1.2"/>
</svg>
