<svg width="25" height="24" viewBox="0 0 25 24" fill="none" xmlns="http://www.w3.org/2000/svg">
<path fill-rule="evenodd" clip-rule="evenodd" d="M12.5 7V2H10.5C7.67157 2 6.25736 2 5.37868 2.87868C4.5 3.75736 4.5 5.17157 4.5 8V16C4.5 18.8284 4.5 20.2426 5.37868 21.1213C6.25736 22 7.67157 22 10.5 22H14.5C17.3284 22 18.7426 22 19.6213 21.1213C20.5 20.2426 20.5 18.8284 20.5 16V10H15.5L15.4456 10H15.4456H15.4456C15.0215 10.0001 14.6094 10.0002 14.2695 9.95447C13.8863 9.90295 13.449 9.77743 13.0858 9.41421C12.7226 9.051 12.597 8.61372 12.5455 8.23052C12.4998 7.8906 12.4999 7.47848 12.5 7.05441L12.5 7ZM14.5 7V2.00462C14.9116 2.01481 15.184 2.04749 15.4369 2.15224C15.8045 2.30448 16.0935 2.59351 16.6716 3.17157L19.3284 5.82843C19.9065 6.40649 20.1955 6.69552 20.3478 7.06306C20.4525 7.31595 20.4852 7.58836 20.4954 8H15.5C15.0003 8 14.7262 7.99788 14.536 7.97231L14.5287 7.97131L14.5277 7.96402C14.5021 7.77383 14.5 7.49967 14.5 7ZM11.3377 12.1239L14.8341 13.8421C15.722 14.2784 15.722 15.7216 14.8342 16.1579L11.3377 17.8761C10.4677 18.3036 9.5 17.5719 9.5 16.4867V13.5133C9.5 12.4281 10.4677 11.6963 11.3377 12.1239Z" fill="#1A1A8D"/>
</svg>
