<svg width="25" height="24" viewBox="0 0 25 24" fill="none" xmlns="http://www.w3.org/2000/svg">
<path fill-rule="evenodd" clip-rule="evenodd" d="M13.2534 3.26628C13.541 3.53256 13.5747 3.97057 13.642 4.84661L13.858 7.65339C13.9253 8.52943 13.959 8.96744 14.2466 9.23372C14.5341 9.5 14.9734 9.5 15.8521 9.5H17.8622C18.864 9.5 19.365 9.5 19.6614 9.81682C19.9578 10.1336 19.9244 10.6334 19.8578 11.633L19.5 17C19.5 18.8856 19.5 19.8284 18.9142 20.4142C18.3284 21 17.3856 21 15.5 21H9.5C7.61438 21 6.67157 21 6.08579 20.4142C5.5 19.8284 5.5 18.8856 5.5 17V7C5.5 5.11438 5.5 4.17157 6.08579 3.58579C6.67157 3 7.61438 3 9.5 3H11.6479C12.5266 3 12.9659 3 13.2534 3.26628ZM11.1727 12.7165L14.3553 14.0805C15.1634 14.4268 15.1634 15.5724 14.3553 15.9188L11.1727 17.2827C10.3809 17.6221 9.5 17.0413 9.5 16.1798V13.8195C9.5 12.958 10.3809 12.3771 11.1727 12.7165Z" fill="#FFD400" fill-opacity="0.5"/>
<path d="M13.6716 3H9.5C7.61438 3 6.67157 3 6.08579 3.58579C5.5 4.17157 5.5 5.11438 5.5 7V17C5.5 18.8856 5.5 19.8284 6.08579 20.4142C6.67157 21 7.61438 21 9.5 21H15.5C17.3856 21 18.3284 21 18.9142 20.4142C19.5 19.8284 19.5 18.8856 19.5 17V8.82843C19.5 8.41968 19.5 8.2153 19.4239 8.03153C19.3478 7.84776 19.2032 7.70324 18.9142 7.41421L15.0858 3.58579C14.7968 3.29676 14.6522 3.15224 14.4685 3.07612C14.2847 3 14.0803 3 13.6716 3Z" stroke="#1A1A8D" stroke-width="1.2"/>
<path d="M14.3553 14.0805L11.1727 12.7165C10.3809 12.3771 9.5 12.958 9.5 13.8195V16.1798C9.5 17.0413 10.3809 17.6221 11.1727 17.2827L14.3553 15.9188C15.1634 15.5724 15.1634 14.4268 14.3553 14.0805Z" stroke="#1A1A8D" stroke-width="1.2" stroke-linecap="round" stroke-linejoin="round"/>
<path d="M13.5 3V7C13.5 7.94281 13.5 8.41421 13.7929 8.70711C14.0858 9 14.5572 9 15.5 9H19.5" stroke="#1A1A8D" stroke-width="1.2"/>
</svg>
