<svg width="25" height="24" viewBox="0 0 25 24" fill="none" xmlns="http://www.w3.org/2000/svg">
<circle cx="12.5" cy="12" r="2.5" stroke="#1A1A8D"/>
<path d="M18.7265 11.3805C18.8552 11.634 18.9195 11.7607 18.9195 12C18.9195 12.2393 18.8552 12.366 18.7265 12.6195C18.1001 13.8533 16.312 16.5 12.5 16.5C8.68799 16.5 6.89992 13.8533 6.27348 12.6195C6.14481 12.366 6.08048 12.2393 6.08048 12C6.08048 11.7607 6.14481 11.634 6.27348 11.3805C6.89992 10.1467 8.68799 7.5 12.5 7.5C16.312 7.5 18.1001 10.1467 18.7265 11.3805Z" stroke="#1A1A8D"/>
<path d="M18 3.5H18.2C19.9913 3.5 20.887 3.5 21.4435 4.0565C22 4.61299 22 5.50866 22 7.3V7.5" stroke="#1A1A8D" stroke-linecap="round"/>
<path d="M18 20.5H18.2C19.9913 20.5 20.887 20.5 21.4435 19.9435C22 19.387 22 18.4913 22 16.7V16.5" stroke="#1A1A8D" stroke-linecap="round"/>
<path d="M7 3.5H6.8C5.00866 3.5 4.11299 3.5 3.5565 4.0565C3 4.61299 3 5.50866 3 7.3V7.5" stroke="#1A1A8D" stroke-linecap="round"/>
<path d="M7 20.5H6.8C5.00866 20.5 4.11299 20.5 3.5565 19.9435C3 19.387 3 18.4913 3 16.7V16.5" stroke="#1A1A8D" stroke-linecap="round"/>
</svg>
