<svg width="25" height="24" viewBox="0 0 25 24" fill="none" xmlns="http://www.w3.org/2000/svg">
<path fill-rule="evenodd" clip-rule="evenodd" d="M21.27 12C21.27 11.6412 21.076 11.4056 20.6878 10.9343C19.2677 9.21014 16.1355 6 12.4998 6C8.86403 6 5.73183 9.21014 4.31174 10.9343C3.92357 11.4056 3.72949 11.6412 3.72949 12C3.72949 12.3588 3.92357 12.5944 4.31173 13.0657C5.73183 14.7899 8.86403 18 12.4998 18C16.1355 18 19.2677 14.7899 20.6878 13.0657C21.076 12.5944 21.27 12.3588 21.27 12ZM12.4998 15C14.1566 15 15.4998 13.6569 15.4998 12C15.4998 10.3431 14.1566 9 12.4998 9C10.8429 9 9.49977 10.3431 9.49977 12C9.49977 13.6569 10.8429 15 12.4998 15Z" fill="#1A1A8D"/>
</svg>
