<svg width="25" height="24" viewBox="0 0 25 24" fill="none" xmlns="http://www.w3.org/2000/svg">
<path fill-rule="evenodd" clip-rule="evenodd" d="M18.7368 15.1157C19.5481 14.3833 20.2135 13.6416 20.6878 13.0657C21.076 12.5944 21.27 12.3588 21.27 12C21.27 11.6412 21.076 11.4056 20.6878 10.9343C19.2677 9.21014 16.1355 6 12.4998 6C11.6603 6 10.8476 6.17115 10.0767 6.45563L12.6236 9.00251C14.182 9.06577 15.434 10.3178 15.4973 11.8762L18.7368 15.1157ZM9.89284 10.5144C9.6427 10.9524 9.49977 11.4595 9.49977 12C9.49977 13.6569 10.8429 15 12.4998 15C13.0403 15 13.5474 14.8571 13.9854 14.6069L16.287 16.9085C15.1358 17.5555 13.8526 18 12.4998 18C8.86403 18 5.73183 14.7899 4.31173 13.0657C3.92357 12.5944 3.72949 12.3588 3.72949 12C3.72949 11.6412 3.92357 11.4056 4.31174 10.9343C4.98516 10.1167 6.0436 8.96489 7.35818 7.97974L9.89284 10.5144Z" fill="#1A1A8D"/>
<path d="M5.5 2L21.5 18" stroke="#1A1A8D" stroke-width="2"/>
</svg>
