<svg width="25" height="24" viewBox="0 0 25 24" fill="none" xmlns="http://www.w3.org/2000/svg">
<path fill-rule="evenodd" clip-rule="evenodd" d="M16.4202 12.7988C16.4725 12.5407 16.5 12.2736 16.5 12C16.5 9.79086 14.7091 8 12.5 8C12.2264 8 11.9593 8.02746 11.7012 8.07977L12.8421 9.22069C14.115 9.37575 15.1243 10.385 15.2793 11.6579L16.4202 12.7988ZM10.0401 10.6614C9.82325 11.059 9.7 11.5151 9.7 12C9.7 13.5464 10.9536 14.8 12.5 14.8C12.9849 14.8 13.441 14.6768 13.8386 14.4599L14.712 15.3332C14.0784 15.7545 13.3179 16 12.5 16C10.2909 16 8.5 14.2091 8.5 12C8.5 11.1821 8.74547 10.4216 9.16676 9.78799L10.0401 10.6614Z" fill="#1A1A8D"/>
<path fill-rule="evenodd" clip-rule="evenodd" d="M16.4202 12.7988C16.4725 12.5407 16.5 12.2736 16.5 12C16.5 9.79086 14.7091 8 12.5 8C12.2264 8 11.9593 8.02746 11.7012 8.07977L12.8421 9.22069C14.115 9.37575 15.1243 10.385 15.2793 11.6579L16.4202 12.7988ZM10.0401 10.6614C9.82325 11.059 9.7 11.5151 9.7 12C9.7 13.5464 10.9536 14.8 12.5 14.8C12.9849 14.8 13.441 14.6768 13.8386 14.4599L14.712 15.3332C14.0784 15.7545 13.3179 16 12.5 16C10.2909 16 8.5 14.2091 8.5 12C8.5 11.1821 8.74547 10.4216 9.16676 9.78799L10.0401 10.6614Z" fill="#1A1A8D"/>
<path fill-rule="evenodd" clip-rule="evenodd" d="M16.727 17.3481L15.8457 16.4668C14.7997 17.0319 13.6684 17.3999 12.5002 17.3999C10.8575 17.3999 9.28791 16.6723 7.92568 15.6923C6.5682 14.7156 5.46741 13.5245 4.77526 12.6842C4.57017 12.4352 4.45918 12.298 4.39072 12.1832C4.33765 12.0942 4.32988 12.0507 4.32988 11.9999C4.32988 11.9491 4.33765 11.9056 4.39072 11.8166C4.45918 11.7018 4.57017 11.5646 4.77526 11.3156C5.44375 10.504 6.49341 9.36522 7.78736 8.40844L6.93016 7.55123C5.59532 8.56374 4.52769 9.72872 3.849 10.5527L3.78546 10.6295C3.45985 11.0224 3.12988 11.4205 3.12988 11.9999C3.12988 12.5793 3.45984 12.9774 3.78546 13.3703L3.84899 13.4471C4.57693 14.3309 5.75229 15.6069 7.22487 16.6664C8.6927 17.7224 10.5071 18.5999 12.5002 18.5999C14.042 18.5999 15.4768 18.0748 16.727 17.3481ZM9.61317 5.9916C10.5142 5.62802 11.4839 5.3999 12.5002 5.3999C14.4933 5.3999 16.3076 6.2774 17.7754 7.33344C19.248 8.3929 20.4234 9.66894 21.1513 10.5527L21.2149 10.6295C21.5405 11.0224 21.8704 11.4205 21.8704 11.9999C21.8704 12.5793 21.5405 12.9774 21.2149 13.3703L21.1513 13.4471C20.6696 14.0319 19.992 14.7885 19.162 15.5404L18.3124 14.6908C19.1049 13.978 19.758 13.2512 20.2251 12.6842C20.4301 12.4352 20.5411 12.298 20.6096 12.1832C20.6627 12.0942 20.6704 12.0507 20.6704 11.9999C20.6704 11.9491 20.6627 11.9056 20.6096 11.8166C20.5411 11.7018 20.4301 11.5646 20.2251 11.3156C19.5329 10.4753 18.4321 9.28419 17.0746 8.30754C15.7124 7.32748 14.1428 6.5999 12.5002 6.5999C11.8346 6.5999 11.1809 6.71936 10.5482 6.92668L9.61317 5.9916Z" fill="#FFD400" fill-opacity="0.5"/>
<path d="M5.5 2L21.5 18" stroke="#1A1A8D" stroke-width="1.2"/>
</svg>
