<svg width="25" height="24" viewBox="0 0 25 24" fill="none" xmlns="http://www.w3.org/2000/svg">
<path fill-rule="evenodd" clip-rule="evenodd" d="M16.4202 12.7988C16.4725 12.5407 16.5 12.2736 16.5 12C16.5 9.79086 14.7091 8 12.5 8C12.2264 8 11.9593 8.02746 11.7012 8.07977L16.4202 12.7988ZM9.16676 9.78799C8.74547 10.4216 8.5 11.1821 8.5 12C8.5 14.2091 10.2909 16 12.5 16C13.3179 16 14.0784 15.7545 14.712 15.3332L9.16676 9.78799Z" fill="#1A1A8D"/>
<path fill-rule="evenodd" clip-rule="evenodd" d="M16.287 16.9085L7.35818 7.97974C6.0436 8.96489 4.98516 10.1167 4.31174 10.9343C3.92357 11.4056 3.72949 11.6412 3.72949 12C3.72949 12.3588 3.92357 12.5944 4.31173 13.0657C5.73183 14.7899 8.86403 18 12.4998 18C13.8526 18 15.1358 17.5555 16.287 16.9085ZM10.0767 6.45563C10.8476 6.17115 11.6603 6 12.4998 6C16.1355 6 19.2677 9.21014 20.6878 10.9343C21.076 11.4056 21.27 11.6412 21.27 12C21.27 12.3588 21.076 12.5944 20.6878 13.0657C20.2135 13.6416 19.5481 14.3833 18.7368 15.1157L10.0767 6.45563Z" fill="#FFD400" fill-opacity="0.5"/>
<path fill-rule="evenodd" clip-rule="evenodd" d="M16.4202 12.7988C16.4725 12.5407 16.5 12.2736 16.5 12C16.5 9.79086 14.7091 8 12.5 8C12.2264 8 11.9593 8.02746 11.7012 8.07977L16.4202 12.7988ZM9.16676 9.78799C8.74547 10.4216 8.5 11.1821 8.5 12C8.5 14.2091 10.2909 16 12.5 16C13.3179 16 14.0784 15.7545 14.712 15.3332L9.16676 9.78799Z" fill="#1A1A8D"/>
<path d="M8.5 5L20.5 17" stroke="#1A1A8D" stroke-width="1.2"/>
</svg>
