<svg width="25" height="24" viewBox="0 0 25 24" fill="none" xmlns="http://www.w3.org/2000/svg">
<path fill-rule="evenodd" clip-rule="evenodd" d="M16.4202 12.7988C16.4725 12.5407 16.5 12.2736 16.5 12C16.5 9.79086 14.7091 8 12.5 8C12.2264 8 11.9593 8.02746 11.7012 8.07977L12.6239 9.00251C14.1822 9.06583 15.4342 10.3178 15.4975 11.8761L16.4202 12.7988ZM9.89311 10.5143C9.64295 10.9523 9.5 11.4595 9.5 12C9.5 13.6569 10.8431 15 12.5 15C13.0405 15 13.5477 14.857 13.9857 14.6069L14.712 15.3332C14.0784 15.7545 13.3179 16 12.5 16C10.2909 16 8.5 14.2091 8.5 12C8.5 11.1821 8.74547 10.4216 9.16676 9.78799L9.89311 10.5143Z" fill="#1A1A8D"/>
<path fill-rule="evenodd" clip-rule="evenodd" d="M16.6535 17.2751L15.9191 16.5406C14.8551 17.1196 13.6985 17.5 12.4998 17.5C10.8279 17.5 9.23792 16.7599 7.86689 15.7735C6.49982 14.79 5.39281 13.5918 4.69768 12.7478C4.27332 12.2326 4.22949 12.1435 4.22949 12C4.22949 11.8565 4.27332 11.7674 4.69768 11.2522C5.36696 10.4396 6.41806 9.29863 7.71548 8.33704L7.00114 7.62271C5.66967 8.63072 4.60359 9.79349 3.92579 10.6164L3.86699 10.6876C3.53646 11.087 3.22949 11.4579 3.22949 12C3.22949 12.5421 3.53646 12.913 3.86699 13.3124L3.92579 13.3836C4.65075 14.2638 5.81989 15.5327 7.28288 16.5853C8.74191 17.635 10.5359 18.5 12.4998 18.5C14.0098 18.5 15.4194 17.9886 16.6535 17.2751ZM9.68968 6.06861C10.5696 5.71828 11.5132 5.5 12.4998 5.5C14.4637 5.5 16.2576 6.365 17.7167 7.41472C19.1796 8.46727 20.3488 9.73623 21.0737 10.6164L21.1325 10.6876C21.4631 11.087 21.77 11.4579 21.77 12C21.77 12.5421 21.4631 12.913 21.1326 13.3124L21.0737 13.3836C20.5933 13.9669 19.9177 14.721 19.0908 15.4697L18.3828 14.7617C19.1784 14.0456 19.8336 13.3164 20.3019 12.7478C20.7262 12.2326 20.77 12.1435 20.77 12C20.77 11.8565 20.7262 11.7674 20.3019 11.2522C19.6067 10.4082 18.4997 9.21001 17.1326 8.22646C15.7616 7.24007 14.1716 6.5 12.4998 6.5C11.8054 6.5 11.1251 6.62768 10.4687 6.84765L9.68968 6.06861Z" fill="#1A1A8D"/>
<path d="M5.5 2L21.5 18" stroke="#1A1A8D"/>
</svg>
