<svg width="25" height="24" viewBox="0 0 25 24" fill="none" xmlns="http://www.w3.org/2000/svg">
<path fill-rule="evenodd" clip-rule="evenodd" d="M16.4202 12.7988C16.4725 12.5407 16.5 12.2736 16.5 12C16.5 9.79086 14.7091 8 12.5 8C12.2264 8 11.9593 8.02746 11.7012 8.07977L16.4202 12.7988ZM9.16676 9.78799C8.74547 10.4216 8.5 11.1821 8.5 12C8.5 14.2091 10.2909 16 12.5 16C13.3179 16 14.0784 15.7545 14.712 15.3332L13.2381 13.8594C13.0098 13.9501 12.7607 14 12.5 14C11.3954 14 10.5 13.1046 10.5 12C10.5 11.7393 10.5499 11.4902 10.6406 11.2619L9.16676 9.78799Z" fill="#1A1A8D"/>
<path fill-rule="evenodd" clip-rule="evenodd" d="M17.0189 17.6405L15.5496 16.1712C14.5774 16.6805 13.5475 17 12.4998 17C10.974 17 9.48592 16.3224 8.1589 15.3677C6.83978 14.4186 5.76384 13.2558 5.08362 12.43C4.98385 12.3088 4.90934 12.2182 4.84761 12.1385C4.79874 12.0754 4.76762 12.0315 4.74731 12C4.76762 11.9685 4.79874 11.9246 4.84761 11.8615C4.90934 11.7818 4.98385 11.6912 5.08362 11.57C5.74903 10.7622 6.7931 9.63187 8.07307 8.69463L6.64434 7.2659C5.29618 8.29616 4.22222 9.47005 3.53985 10.2985C3.51626 10.3272 3.49168 10.3566 3.46638 10.3869L3.46636 10.3869C3.15294 10.7624 2.72949 11.2696 2.72949 12C2.72949 12.7304 3.15294 13.2376 3.46636 13.6131L3.46658 13.6133C3.49181 13.6435 3.51633 13.6729 3.53985 13.7015C4.27972 14.5998 5.47993 15.9041 6.99087 16.9912C8.49391 18.0725 10.3898 19 12.4998 19C14.1698 19 15.7057 18.419 17.0189 17.6405ZM9.30658 5.6855C10.2904 5.26871 11.3641 5 12.4998 5C14.6097 5 16.5056 5.92747 18.0087 7.00885C19.5196 8.0959 20.7198 9.40025 21.4597 10.2985C21.4833 10.3272 21.5078 10.3566 21.5331 10.3869L21.5332 10.3869C21.8466 10.7624 22.27 11.2696 22.27 12C22.27 12.7304 21.8466 13.2376 21.5332 13.6131C21.5079 13.6434 21.4833 13.6728 21.4597 13.7015C20.973 14.2923 20.2872 15.0589 19.4448 15.8237L18.0287 14.4077C18.8086 13.708 19.4536 12.9912 19.9159 12.43C20.0157 12.3088 20.0902 12.2182 20.1519 12.1385C20.2008 12.0754 20.2319 12.0315 20.2522 12C20.2319 11.9685 20.2008 11.9246 20.1519 11.8615C20.0902 11.7818 20.0157 11.6912 19.9159 11.57C19.2357 10.7442 18.1598 9.58138 16.8406 8.63233C15.5136 7.6776 14.0256 7 12.4998 7C11.9488 7 11.4027 7.08837 10.8673 7.24624L9.30658 5.6855Z" fill="#1A1A8D"/>
<path d="M5.5 2L21.5 18" stroke="#1A1A8D" stroke-width="2"/>
</svg>
