<svg width="25" height="24" viewBox="0 0 25 24" fill="none" xmlns="http://www.w3.org/2000/svg">
<path d="M14.75 4H10.25C7.06802 4 5.47703 4 4.48851 5.00421C3.5 6.00841 3.5 7.62465 3.5 10.8571V13.1429C3.5 16.3753 3.5 17.9916 4.48851 18.9958C5.47703 20 7.06802 20 10.25 20H14.75C17.932 20 19.523 20 20.5115 18.9958C21.5 17.9916 21.5 16.3753 21.5 13.1429V10.8571C21.5 7.62465 21.5 6.00841 20.5115 5.00421C19.523 4 17.932 4 14.75 4Z" stroke="#1A1A8D" stroke-width="2"/>
<path d="M7.5 8H10.5" stroke="#1A1A8D" stroke-width="2" stroke-linecap="round"/>
<path d="M19.5 16H17.5C16.5572 16 16.0858 16 15.7929 15.7071C15.5 15.4142 15.5 14.9428 15.5 14C15.5 13.0572 15.5 12.5858 15.7929 12.2929C16.0858 12 16.5572 12 17.5 12H19.5C20.4428 12 20.9142 12 21.2071 12.2929C21.5 12.5858 21.5 13.0572 21.5 14C21.5 14.9428 21.5 15.4142 21.2071 15.7071C20.9142 16 20.4428 16 19.5 16Z" stroke="#1A1A8D" stroke-width="2"/>
</svg>
