<svg width="25" height="24" viewBox="0 0 25 24" fill="none" xmlns="http://www.w3.org/2000/svg">
<path d="M5 6.5V6.5C5 5.39543 5.89543 4.5 7 4.5L18.4286 4.5C18.4949 4.5 18.5281 4.5 18.556 4.50314C18.7878 4.52926 18.9707 4.71221 18.9969 4.94402C19 4.97192 19 5.00509 19 5.07143V5.07143C19 5.46946 19 5.66848 18.9811 5.83589C18.8244 7.22675 17.7268 8.32442 16.3359 8.48114C16.1685 8.5 15.9695 8.5 15.5714 8.5H15.5M5 6.5V6.5C5 7.60457 5.89543 8.5 7 8.5L18 8.5C18.9428 8.5 19.4142 8.5 19.7071 8.79289C20 9.08579 20 9.55719 20 10.5V12.5M5 6.5L5 15.5C5 17.3856 5 18.3284 5.58579 18.9142C6.17157 19.5 7.11438 19.5 9 19.5L18 19.5C18.9428 19.5 19.4142 19.5 19.7071 19.2071C20 18.9142 20 18.4428 20 17.5V16.5M20 16.5H18C17.0572 16.5 16.5858 16.5 16.2929 16.2071C16 15.9142 16 15.4428 16 14.5V14.5C16 13.5572 16 13.0858 16.2929 12.7929C16.5858 12.5 17.0572 12.5 18 12.5H20M20 16.5V12.5" stroke="#1A1A8D"/>
</svg>
