<svg width="25" height="24" viewBox="0 0 25 24" fill="none" xmlns="http://www.w3.org/2000/svg">
<path d="M3.5 6C3.5 4.89543 4.39543 4 5.5 4H20C20.2761 4 20.5 4.22386 20.5 4.5V6C20.5 7.10457 19.6046 8 18.5 8H5.5C4.39543 8 3.5 7.10457 3.5 6Z" fill="#1A1A8D"/>
<path d="M3.5 16V6C3.5 7.10457 4.39543 8 5.5 8H19.5C20.6046 8 21.5 8.89543 21.5 10V12.85C21.5 12.9328 21.4328 13 21.35 13H18.5C17.3954 13 16.5 13.8954 16.5 15C16.5 16.1046 17.3954 17 18.5 17H21.35C21.4328 17 21.5 17.0672 21.5 17.15V18C21.5 19.1046 20.6046 20 19.5 20H7.5C5.29086 20 3.5 18.2091 3.5 16Z" fill="#FFD400" fill-opacity="0.5"/>
<path d="M15.5 15C15.5 13.8954 16.3954 13 17.5 13H21.35C21.4328 13 21.5 13.0672 21.5 13.15V16.85C21.5 16.9328 21.4328 17 21.35 17H17.5C16.3954 17 15.5 16.1046 15.5 15Z" fill="#1A1A8D"/>
<rect x="5.5" y="10" width="6" height="1" rx="0.5" fill="#1A1A8D"/>
</svg>
