<svg width="25" height="24" viewBox="0 0 25 24" fill="none" xmlns="http://www.w3.org/2000/svg">
<rect x="15.5" y="13" width="6" height="4" fill="#FFD400" fill-opacity="0.5"/>
<path d="M20.5 7V4H6C4.61929 4 3.5 5.11929 3.5 6.5C3.5 7.88071 4.61929 9 6 9H18.5L20.5 7Z" fill="#FFD400" fill-opacity="0.5"/>
<path d="M3.50001 6.5V6.5C3.50001 5.11929 4.6193 4 6.00001 4L19.7857 4C19.9852 4 20.085 4 20.1651 4.02806C20.3088 4.07831 20.4217 4.19124 20.4719 4.33486C20.5 4.41505 20.5 4.51479 20.5 4.71429V4.71429C20.5 5.91124 20.5 6.50972 20.3317 6.99084C20.0301 7.85258 19.3526 8.53011 18.4908 8.83165C18.0097 9 17.4112 9 16.2143 9L15.5 9M3.50001 6.5V6.5C3.50001 7.88071 4.61929 9 6.00001 9L19.5 9C20.4428 9 20.9142 9 21.2071 9.29289C21.5 9.58579 21.5 10.0572 21.5 11L21.5 13M3.50001 6.5L3.50001 17C3.50001 18.8856 3.50001 19.8284 4.08579 20.4142C4.67158 21 5.61439 21 7.50001 21L19.5 21C20.4428 21 20.9142 21 21.2071 20.7071C21.5 20.4142 21.5 19.9428 21.5 19L21.5 17M21.5 17H17.5C16.5572 17 16.0858 17 15.7929 16.7071C15.5 16.4142 15.5 15.9428 15.5 15V15C15.5 14.0572 15.5 13.5858 15.7929 13.2929C16.0858 13 16.5572 13 17.5 13H21.5M21.5 17L21.5 13" stroke="#1A1A8D" stroke-width="1.2"/>
</svg>
