<svg width="25" height="24" viewBox="0 0 25 24" fill="none" xmlns="http://www.w3.org/2000/svg">
<path d="M3.5 10C3.5 7.17157 3.5 5.75736 4.37868 4.87868C5.25736 4 6.67157 4 9.5 4H15.5C18.3284 4 19.7426 4 20.6213 4.87868C21.5 5.75736 21.5 7.17157 21.5 10V11.7C21.5 11.8414 21.5 11.9121 21.4561 11.9561C21.4121 12 21.3414 12 21.2 12H17C16.5353 12 16.303 12 16.1098 12.0384C15.3164 12.1962 14.6962 12.8164 14.5384 13.6098C14.5 13.803 14.5 14.0353 14.5 14.5C14.5 14.9647 14.5 15.197 14.5384 15.3902C14.6962 16.1836 15.3164 16.8038 16.1098 16.9616C16.303 17 16.5353 17 17 17H21.3571C21.436 17 21.5 17.064 21.5 17.1429C21.5 18.7208 20.2208 20 18.6429 20H9.5C6.67157 20 5.25736 20 4.37868 19.1213C3.5 18.2426 3.5 16.8284 3.5 14V10Z" fill="#FFD400" fill-opacity="0.5"/>
<path d="M14.5 14C14.5 12.8954 15.3954 12 16.5 12H21.35C21.4328 12 21.5 12.0672 21.5 12.15V16.85C21.5 16.9328 21.4328 17 21.35 17H16.5C15.3954 17 14.5 16.1046 14.5 15V14Z" fill="#1A1A8D"/>
<rect x="6.5" y="7" width="6" height="1" rx="0.5" fill="#1A1A8D"/>
</svg>
