<svg width="25" height="24" viewBox="0 0 25 24" fill="none" xmlns="http://www.w3.org/2000/svg">
<rect x="11.5" y="7" width="2" height="8" rx="1" fill="#000080"/>
<rect x="11.5" y="16" width="2" height="2" rx="1" fill="#000080"/>
<path d="M19.212 5.78862L13.2878 3.24968C12.7847 3.03406 12.2153 3.03406 11.7122 3.24968L5.78797 5.78862C4.97806 6.13572 4.49073 6.972 4.58804 7.84777L5.23939 13.7099C5.43906 15.5069 6.3263 17.157 7.71529 18.3144L11.2196 21.2347C11.9613 21.8528 13.0387 21.8528 13.7804 21.2347L17.2847 18.3144C18.6737 17.157 19.5609 15.5069 19.7606 13.7099L20.412 7.84777C20.5093 6.972 20.0219 6.13572 19.212 5.78862Z" stroke="#000080" stroke-width="2" stroke-linecap="round"/>
</svg>
