<svg width="25" height="24" viewBox="0 0 25 24" fill="none" xmlns="http://www.w3.org/2000/svg">
<rect x="5.5" y="5" width="14" height="12" rx="3" stroke="#1A1A8D" stroke-width="2"/>
<path d="M8.5 4C8.5 3.05719 8.5 2.58579 8.79289 2.29289C9.08579 2 9.55719 2 10.5 2H14.5C15.4428 2 15.9142 2 16.2071 2.29289C16.5 2.58579 16.5 3.05719 16.5 4V5H8.5V4Z" fill="#1A1A8D"/>
<path d="M8.5 20C8.5 20.9428 8.5 21.4142 8.79289 21.7071C9.08579 22 9.55719 22 10.5 22H14.5C15.4428 22 15.9142 22 16.2071 21.7071C16.5 21.4142 16.5 20.9428 16.5 20V17H8.5V20Z" fill="#1A1A8D"/>
</svg>
