<svg width="25" height="24" viewBox="0 0 25 24" fill="none" xmlns="http://www.w3.org/2000/svg">
<rect x="7.5" y="7" width="10" height="10" rx="3" stroke="#1A1A8D" stroke-width="2"/>
<path d="M9.5 4C9.5 3.05719 9.5 2.58579 9.79289 2.29289C10.0858 2 10.5572 2 11.5 2H13.5C14.4428 2 14.9142 2 15.2071 2.29289C15.5 2.58579 15.5 3.05719 15.5 4V7H9.5V4Z" fill="#1A1A8D"/>
<path d="M9.5 20C9.5 20.9428 9.5 21.4142 9.79289 21.7071C10.0858 22 10.5572 22 11.5 22H13.5C14.4428 22 14.9142 22 15.2071 21.7071C15.5 21.4142 15.5 20.9428 15.5 20V17H9.5V20Z" fill="#1A1A8D"/>
</svg>
