<svg width="25" height="24" viewBox="0 0 25 24" fill="none" xmlns="http://www.w3.org/2000/svg">
<rect x="6" y="5.5" width="13" height="11" rx="2.5" stroke="#1A1A8D"/>
<path d="M15.5 5.5H16V5V4L16 3.96708C16 3.52384 16 3.14193 15.9589 2.8361C15.9149 2.50835 15.8155 2.19417 15.5607 1.93934C15.3058 1.68451 14.9917 1.58514 14.6639 1.54107C14.3581 1.49995 13.9762 1.49997 13.5329 1.5L13.5 1.5H11.5C11.489 1.5 11.478 1.5 11.4671 1.5C11.0238 1.49997 10.6419 1.49995 10.3361 1.54107C10.0083 1.58514 9.69417 1.68451 9.43934 1.93934C9.18451 2.19417 9.08514 2.50835 9.04107 2.8361C8.99995 3.14193 8.99997 3.52384 9 3.96708C9 3.97802 9 3.98899 9 4V5V5.5H9.5H15.5Z" stroke="#1A1A8D"/>
<path d="M15.5 16.5H16V17V20L16 20.0329C16 20.4762 16 20.8581 15.9589 21.1639C15.9149 21.4917 15.8155 21.8058 15.5607 22.0607C15.3058 22.3155 14.9917 22.4149 14.6639 22.4589C14.3581 22.5 13.9762 22.5 13.5329 22.5L13.5 22.5H11.5C11.489 22.5 11.478 22.5 11.4671 22.5C11.0238 22.5 10.6419 22.5 10.3361 22.4589C10.0083 22.4149 9.69417 22.3155 9.43934 22.0607C9.18451 21.8058 9.08514 21.4917 9.04107 21.1639C8.99995 20.8581 8.99997 20.4762 9 20.0329C9 20.022 9 20.011 9 20V17V16.5H9.5H15.5Z" stroke="#1A1A8D"/>
</svg>
