<svg width="25" height="24" viewBox="0 0 25 24" fill="none" xmlns="http://www.w3.org/2000/svg">
<rect x="7" y="6.5" width="11" height="11" rx="2.5" stroke="#1A1A8D"/>
<path d="M15.5 6.5H16V6V5L16 4.96708C16 4.52384 16 4.14193 15.9589 3.8361C15.9149 3.50835 15.8155 3.19417 15.5607 2.93934C15.3058 2.68451 14.9917 2.58514 14.6639 2.54107C14.3581 2.49995 13.9762 2.49997 13.5329 2.5L13.5 2.5H11.5C11.489 2.5 11.478 2.5 11.4671 2.5C11.0238 2.49997 10.6419 2.49995 10.3361 2.54107C10.0083 2.58514 9.69417 2.68451 9.43934 2.93934C9.18451 3.19417 9.08514 3.50835 9.04107 3.8361C8.99995 4.14193 8.99997 4.52384 9 4.96708C9 4.97802 9 4.98899 9 5V6V6.5H9.5H15.5Z" stroke="#1A1A8D"/>
<path d="M15.5 17.5H16V18V19L16 19.0329C16 19.4762 16 19.8581 15.9589 20.1639C15.9149 20.4917 15.8155 20.8058 15.5607 21.0607C15.3058 21.3155 14.9917 21.4149 14.6639 21.4589C14.3581 21.5 13.9762 21.5 13.5329 21.5L13.5 21.5H11.5C11.489 21.5 11.478 21.5 11.4671 21.5C11.0238 21.5 10.6419 21.5 10.3361 21.4589C10.0083 21.4149 9.69417 21.3155 9.43934 21.0607C9.18451 20.8058 9.08514 20.4917 9.04107 20.1639C8.99995 19.8581 8.99997 19.4762 9 19.0329C9 19.022 9 19.011 9 19V18V17.5H9.5H15.5Z" stroke="#1A1A8D"/>
</svg>
