<svg width="25" height="24" viewBox="0 0 25 24" fill="none" xmlns="http://www.w3.org/2000/svg">
<path d="M2.5 12C2.5 10.1308 2.5 9.19615 2.90192 8.5C3.16523 8.04394 3.54394 7.66523 4 7.40192C4.69615 7 5.63077 7 7.5 7H17.5C19.3692 7 20.3038 7 21 7.40192C21.4561 7.66523 21.8348 8.04394 22.0981 8.5C22.5 9.19615 22.5 10.1308 22.5 12C22.5 13.8692 22.5 14.8038 22.0981 15.5C21.8348 15.9561 21.4561 16.3348 21 16.5981C20.3038 17 19.3692 17 17.5 17H7.5C5.63077 17 4.69615 17 4 16.5981C3.54394 16.3348 3.16523 15.9561 2.90192 15.5C2.5 14.8038 2.5 13.8692 2.5 12Z" stroke="#1A1A8D" stroke-width="2"/>
<path d="M19.5 4C19.5 2.89543 18.6046 2 17.5 2H7.5C6.39543 2 5.5 2.89543 5.5 4" stroke="#1A1A8D" stroke-width="2"/>
<path d="M19.5 20C19.5 21.1046 18.6046 22 17.5 22H7.5C6.39543 22 5.5 21.1046 5.5 20" stroke="#1A1A8D" stroke-width="2"/>
<rect x="6" y="10.5" width="5" height="1" rx="0.5" stroke="#1A1A8D"/>
</svg>
