<svg width="25" height="24" viewBox="0 0 25 24" fill="none" xmlns="http://www.w3.org/2000/svg">
<circle cx="12.5" cy="12" r="3" stroke="#1A1A8D" stroke-width="2"/>
<path d="M12.5 8V6M12.5 3V6M12.5 6L9.5 4M12.5 6L15.5 4" stroke="#1A1A8D" stroke-width="2" stroke-linecap="round"/>
<path d="M16.5 12L18.5 12M21.5 12L18.5 12M18.5 12L20.5 9M18.5 12L20.5 15" stroke="#1A1A8D" stroke-width="2" stroke-linecap="round"/>
<path d="M12.5 16V18M12.5 21V18M12.5 18L9.5 20M12.5 18L15.5 20" stroke="#1A1A8D" stroke-width="2" stroke-linecap="round"/>
<path d="M8.5 12L6.5 12M3.5 12L6.5 12M6.5 12L4.5 9M6.5 12L4.5 15" stroke="#1A1A8D" stroke-width="2" stroke-linecap="round"/>
</svg>
