<svg width="25" height="24" viewBox="0 0 25 24" fill="none" xmlns="http://www.w3.org/2000/svg">
<circle cx="12.5" cy="13" r="4" fill="#1A1A8D"/>
<path d="M12.5 9V7M12.5 4V7M12.5 7L9.5 5M12.5 7L15.5 5" stroke="#1A1A8D" stroke-width="2" stroke-linecap="round"/>
<path d="M16 12.5L18 12.5M21 12.5L18 12.5M18 12.5L20 9.5M18 12.5L20 15.5" stroke="#1A1A8D" stroke-width="2" stroke-linecap="round"/>
<path d="M12.5 16V18M12.5 21V18M12.5 18L9.5 20M12.5 18L15.5 20" stroke="#1A1A8D" stroke-width="2" stroke-linecap="round"/>
<path d="M9 12.5L7 12.5M4 12.5L7 12.5M7 12.5L5 9.5M7 12.5L5 15.5" stroke="#1A1A8D" stroke-width="2" stroke-linecap="round"/>
</svg>
