<svg width="25" height="24" viewBox="0 0 25 24" fill="none" xmlns="http://www.w3.org/2000/svg">
<circle cx="12.5" cy="12" r="2.4" fill="#FFD400" fill-opacity="0.5" stroke="#1A1A8D" stroke-width="1.2"/>
<path d="M12.5 9V7M12.5 4V7M12.5 7L9.5 5M12.5 7L15.5 5" stroke="#1A1A8D" stroke-width="1.2" stroke-linecap="round"/>
<path d="M15.5 12L17.5 12M20.5 12L17.5 12M17.5 12L19.5 9M17.5 12L19.5 15" stroke="#1A1A8D" stroke-width="1.2" stroke-linecap="round"/>
<path d="M12.5 15V17M12.5 20V17M12.5 17L9.5 19M12.5 17L15.5 19" stroke="#1A1A8D" stroke-width="1.2" stroke-linecap="round"/>
<path d="M9.5 12L7.5 12M4.5 12L7.5 12M7.5 12L5.5 9M7.5 12L5.5 15" stroke="#1A1A8D" stroke-width="1.2" stroke-linecap="round"/>
</svg>
