<svg width="25" height="24" viewBox="0 0 25 24" fill="none" xmlns="http://www.w3.org/2000/svg">
<path fill-rule="evenodd" clip-rule="evenodd" d="M11.4998 3.05518V7.94789C10.8927 7.88446 10.2994 7.76353 9.735 7.58818C8.86332 7.31738 8.08605 6.92485 7.44294 6.44252C7.01988 6.12522 6.66315 5.77541 6.37574 5.40506C7.75252 4.12603 9.5304 3.27288 11.4998 3.05518ZM13.4998 3.05518V7.94789C14.1069 7.88446 14.7001 7.76353 15.2646 7.58818C16.1363 7.31738 16.9135 6.92485 17.5567 6.44252C17.9797 6.12522 18.3364 5.77541 18.6239 5.40505C17.2471 4.12603 15.4692 3.27288 13.4998 3.05518ZM19.9463 6.94399C19.5975 7.34359 19.1982 7.71137 18.7567 8.04252C17.914 8.67449 16.9275 9.16587 15.8579 9.49813C15.0998 9.73364 14.3063 9.88732 13.4998 9.95688V10.9999L21.4448 10.9999C21.2798 9.50754 20.7499 8.12518 19.9463 6.94399ZM21.4449 12.9999L13.4998 12.9999V14.0429C14.3063 14.1124 15.0998 14.2661 15.8579 14.5016C16.9275 14.8339 17.914 15.3253 18.7567 15.9572C19.1983 16.2885 19.5977 16.6564 19.9466 17.0561C20.7501 15.8748 21.28 14.4923 21.4449 12.9999ZM18.6242 18.5951C18.3367 18.2246 17.9799 17.8747 17.5567 17.5572C16.9135 17.0749 16.1363 16.6824 15.2646 16.4116C14.7001 16.2362 14.1069 16.1153 13.4998 16.0519V20.9453C15.4694 20.7276 17.2474 19.8743 18.6242 18.5951ZM11.4998 20.9453V16.0519C10.8927 16.1153 10.2994 16.2362 9.735 16.4116C8.86332 16.6824 8.08605 17.0749 7.44294 17.5572C7.01971 17.8747 6.66288 18.2246 6.37541 18.5951C7.75224 19.8743 9.53024 20.7276 11.4998 20.9453ZM5.05303 17.0561C5.40193 16.6564 5.80129 16.2885 6.24294 15.9572C7.08556 15.3253 8.07213 14.8339 9.14165 14.5016C9.89975 14.2661 10.6933 14.1124 11.4998 14.0429V12.9999L3.55469 12.9999C3.71961 14.4923 4.24945 15.8748 5.05303 17.0561ZM3.55477 10.9999L11.4998 10.9999V9.95688C10.6933 9.88732 9.89975 9.73364 9.14165 9.49813C8.07213 9.16587 7.08556 8.67448 6.24294 8.04252C5.80141 7.71137 5.40214 7.34359 5.05331 6.944C4.24971 8.12518 3.7198 9.50754 3.55477 10.9999Z" fill="#1A1A8D"/>
</svg>
