<svg width="25" height="24" viewBox="0 0 25 24" fill="none" xmlns="http://www.w3.org/2000/svg">
<circle cx="12.5" cy="12" r="8" stroke="#1A1A8D"/>
<path d="M18.7075 6.78485C17.9747 7.46088 17.0544 8.00912 16.0106 8.39144C14.9668 8.77376 13.8244 8.981 12.663 8.99875C11.5016 9.01651 10.3489 8.84434 9.2852 8.49423C8.22146 8.14412 7.27215 7.62447 6.50325 6.97139" stroke="#1A1A8D"/>
<path d="M18.8222 17.3235C18.0826 16.608 17.1367 16.0274 16.0553 15.6251C14.974 15.2227 13.7853 15.0091 12.5783 15.0003C11.3713 14.9914 10.1772 15.1875 9.08561 15.5739C7.994 15.9603 7.03311 16.5269 6.27495 17.2314" stroke="#1A1A8D"/>
<path d="M12.5 4V20" stroke="#1A1A8D"/>
<path d="M20.5 12H4.5" stroke="#1A1A8D"/>
</svg>
