<svg width="25" height="24" viewBox="0 0 25 24" fill="none" xmlns="http://www.w3.org/2000/svg">
<path d="M20 6L18.5333 7.1C18.1871 7.35964 17.7661 7.5 17.3333 7.5H13.975C13.3775 7.5 12.8312 7.83761 12.564 8.37206V8.37206C12.2342 9.03161 12.4053 9.83161 12.976 10.2986L14.976 11.9349C16.5499 13.2227 17.3644 15.22 17.1399 17.2412L17.0627 17.9357C17.021 18.3114 16.9526 18.6837 16.8582 19.0498L16.4604 20.5925" stroke="#1A1A8D"/>
<path d="M3 10.5L6.2381 9.96032C7.59174 9.73471 8.76529 10.9083 8.53968 12.2619L8.40517 13.069C8.16434 14.514 8.8941 15.9471 10.2044 16.6022V16.6022C11.2535 17.1268 11.7976 18.3097 11.5131 19.4476L11 21.5" stroke="#1A1A8D"/>
<circle cx="12.5" cy="12" r="9.5" stroke="#1A1A8D"/>
</svg>
