<svg width="25" height="24" viewBox="0 0 25 24" fill="none" xmlns="http://www.w3.org/2000/svg">
<path fill-rule="evenodd" clip-rule="evenodd" d="M11.5 3.05518V8.94334C9.96342 8.76797 8.54833 8.19325 7.47374 7.32014C6.87674 6.83508 6.41152 6.28112 6.08308 5.68969C7.49611 4.25299 9.38792 3.28865 11.5 3.05518ZM13.5 3.05518V8.94334C15.0366 8.76797 16.4517 8.19325 17.5263 7.32014C18.1233 6.83508 18.5885 6.28112 18.9169 5.68969C17.5039 4.253 15.6121 3.28865 13.5 3.05518ZM20.2168 7.36608C19.8207 7.91625 19.3406 8.42297 18.7874 8.87237C17.3355 10.0521 15.4677 10.7712 13.5 10.9538L13.5 13.0463C14.3146 13.1219 15.1157 13.2897 15.8804 13.5471C16.9564 13.9092 17.9455 14.4437 18.7874 15.1278C19.337 15.5743 19.8182 16.0801 20.217 16.634C21.0315 15.2805 21.5 13.6951 21.5 12.0002C21.5 10.3053 21.0314 8.71973 20.2168 7.36608ZM18.917 18.3107C18.5861 17.7154 18.1183 17.161 17.5263 16.68C16.8825 16.1569 16.1078 15.7338 15.2425 15.4426C14.6847 15.2549 14.099 15.1253 13.5 15.0569V20.9453C15.6121 20.7118 17.504 19.7475 18.917 18.3107ZM11.5 20.9453L11.5 15.0569C10.901 15.1253 10.3153 15.2549 9.7575 15.4426C8.89222 15.7338 8.11751 16.1569 7.47374 16.68C6.88168 17.161 6.41388 17.7154 6.08301 18.3107C7.49604 19.7475 9.38788 20.7118 11.5 20.9453ZM4.78297 16.634C5.18176 16.0801 5.66302 15.5743 6.21255 15.1278C7.05451 14.4437 8.04363 13.9092 9.11956 13.5471C9.88428 13.2897 10.6854 13.1219 11.5 13.0463V10.9538C9.53233 10.7712 7.66455 10.0521 6.21255 8.87237C5.65944 8.42297 5.17933 7.91625 4.78321 7.36608C3.96856 8.71972 3.5 10.3053 3.5 12.0002C3.5 13.6951 3.96846 15.2805 4.78297 16.634Z" fill="#1A1A8D"/>
</svg>
