<svg width="25" height="24" viewBox="0 0 25 24" fill="none" xmlns="http://www.w3.org/2000/svg">
<circle cx="12.5" cy="12" r="8" fill="#FFD400" fill-opacity="0.5" stroke="#1A1A8D" stroke-width="1.2"/>
<path d="M19.072 6.42127C18.3483 7.20326 17.3869 7.84488 16.2672 8.29313C15.1475 8.74138 13.9017 8.98339 12.6326 8.99918C11.3636 9.01496 10.1078 8.80406 8.9689 8.3839C7.83002 7.96374 6.84077 7.34638 6.08288 6.58282" stroke="#1A1A8D" stroke-width="1.2"/>
<path d="M19.072 17.5787C18.3483 16.7967 17.3869 16.1551 16.2672 15.7069C15.1475 15.2586 13.9017 15.0166 12.6326 15.0008C11.3636 14.985 10.1078 15.1959 8.9689 15.6161C7.83002 16.0363 6.84077 16.6536 6.08288 17.4172" stroke="#1A1A8D" stroke-width="1.2"/>
<path d="M12.5 4V20" stroke="#1A1A8D" stroke-width="1.2"/>
<path d="M20.5 12H4.5" stroke="#1A1A8D" stroke-width="1.2"/>
</svg>
